{
  "title" : "",
  "description" : "",
  "author" : "",
  "targetLoudness" : -18.0,
  "shouldApplyLoudnessNormalization" : true,
  "videoFormatFrameRate" : 30,
  "audioFormatSampleRate" : 44100,
  "allowSubFrameEditing" : false,
  "width" : 1920.0,
  "height" : 1080.0,
  "version" : "9.0",
  "editRate" : 705600000,
  "authoringClientName" :  {
    "name" : "Camtasia",
    "platform" : "Windows",
    "version" : "2025.0.1"
  },
  "sourceBin" : [
    {
      "id" : 1,
      "src" : "Rec 6-22-2025-2-25-34-PM.trec",
      "rect" : [0, 0, 3840, 2160],
      "lastMod" : "20250622T212534",
      "loudnessNormalization" : true,
      "sourceTracks" : [
        {
          "range" : [0, 28820621],
          "type" : 0,
          "editRate" : 60000,
          "trackRect" : [0, 0, 3840, 2160],
          "sampleRate" : "25867/2500",
          "bitDepth" : 24,
          "numChannels" : 0,
          "integratedLUFS" : 100.0,
          "peakLevel" : -1.0,
          "metaData" : "Rec 6-22-2025-2-25-34-PM.trec;2b7b6a00-7a1f-11e2-83d0-0017f200be7f;2b7b6aef-7a1f-11e2-83d0-0017f200be7f;2b7b6af0-7a1f-11e2-83d0-0017f200be7f;2b7b6af1-7a1f-11e2-83d0-0017f200be7f;2b7b6af2-7a1f-11e2-83d0-0017f200be7f;2b7b6af3-7a1f-11e2-83d0-0017f200be7f;2b7b6af5-7a1f-11e2-83d0-0017f200be7f;2b7b6af6-7a1f-11e2-83d0-0017f200be7f;2b7b6af7-7a1f-11e2-83d0-0017f200be7f;2b7b6af8-7a1f-11e2-83d0-0017f200be7f;2b7b6af9-7a1f-11e2-83d0-0017f200be7f;2b7b6afa-7a1f-11e2-83d0-0017f200be7f;"
        },
        {
          "range" : [0, 21186560],
          "type" : 2,
          "editRate" : 44100,
          "trackRect" : [0, 0, 0, 0],
          "sampleRate" : 44100,
          "bitDepth" : 16,
          "numChannels" : 2,
          "integratedLUFS" : -21.6188631863627,
          "peakLevel" : 0.6378173828125,
          "metaData" : "Rec 6-22-2025-2-25-34-PM.trec;"
        }
      ],
      "metadata" : {
        "timeAdded" : "20250622T212550.180177"
      }
    }
  ],
  "timeline" : {
    "id" : 2,
    "sceneTrack" : {
      "scenes" : [
        {
          "csml" : {
            "tracks" : [
              {
                "trackIndex" : 0,
                "medias" : [
                ]
              },
              {
                "trackIndex" : 1,
                "medias" : [
                  {
                    "id" : 3,
                    "_type" : "UnifiedMedia",
                    "video" : 
                        {
                          "id" : 4,
                          "_type" : "ScreenVMFile",
                          "src" : 1,
                          "trackNumber" : 0,
                          "attributes" : {
                            "ident" : "Rec 6-22-2025-2-25-34-PM"
                          },
                          "parameters" : {
                            "scale0" : {
                              "type" : "double",
                              "defaultValue" : 0.5,
                              "interp" : "eioe"
                            },
                            "scale1" : {
                              "type" : "double",
                              "defaultValue" : 0.5,
                              "interp" : "eioe"
                            },
                            "geometryCrop0" : {
                              "type" : "double",
                              "defaultValue" : 0.0,
                              "interp" : "eioe"
                            },
                            "geometryCrop1" : {
                              "type" : "double",
                              "defaultValue" : 0.0,
                              "interp" : "eioe"
                            },
                            "geometryCrop2" : {
                              "type" : "double",
                              "defaultValue" : 0.0,
                              "interp" : "eioe"
                            },
                            "geometryCrop3" : {
                              "type" : "double",
                              "defaultValue" : 0.0,
                              "interp" : "eioe"
                            },
                            "toc" : {
                              "type" : "string",
                              "keyframes" : [
                                {
                                  "endTime" : 37914240000,
                                  "time" : 37914240000,
                                  "value" : "Marker 1",
                                  "duration" : 0,
                                  "metadata" : {
                                    "markerIdentifier" : "AA949A04-F5C5-4350-9D35-5122AAB16FFC"
                                  }
                                },
                                {
                                  "endTime" : 52661280000,
                                  "time" : 52661280000,
                                  "value" : "Marker 2",
                                  "duration" : 0,
                                  "metadata" : {
                                    "markerIdentifier" : "390C930C-BF2E-479E-BEB5-63E1FFFA68F4"
                                  }
                                }
                              ]
                            },
                            "cursorScale" : {
                              "type" : "double",
                              "defaultValue" : 2.25,
                              "interp" : "linr"
                            },
                            "cursorOpacity" : {
                              "type" : "double",
                              "defaultValue" : 1.0,
                              "interp" : "linr"
                            },
                            "cursorTrackLevel" : {
                              "type" : "double",
                              "defaultValue" : 0.0,
                              "interp" : "linr"
                            },
                            "smoothCursorAcrossEditDuration" : 235200000
                          },
                          "effects" : [

                          ],
                          "start" : 0,
                          "duration" : 21238560000,
                          "mediaStart" : 32810400000,
                          "mediaDuration" : 21238560000,
                          "scalar" : 1,
                          "animationTracks" : {

                          }
                        },
                    "audio" : 
                        {
                          "id" : 5,
                          "_type" : "AMFile",
                          "src" : 1,
                          "trackNumber" : 1,
                          "attributes" : {
                            "ident" : "",
                            "gain" : 1.0,
                            "mixToMono" : false,
                            "loudnessNormalization" : true,
                            "sourceFileOffset" : 0
                          },
                            "channelNumber" : "0,1",
                          "effects" : [

                          ],
                          "start" : 0,
                          "duration" : 21238560000,
                          "mediaStart" : 32810400000,
                          "mediaDuration" : 21238560000,
                          "scalar" : 1,
                          "animationTracks" : {

                          }
                        }
,
                    "start" : 0,
                    "duration" : 21238560000,
                    "mediaStart" : 32810400000,
                    "mediaDuration" : 21238560000,
                    "scalar" : 1,
                    "metadata" : {
                      "AutoAppliedSmartFocus" : "False",
                      "audiateLinkedSession" : "",
                      "clipSpeedAttribute" : { "type": "bool", "value" : false},
                      "colorAttribute" : { "type": "color", "value" : [ 0, 0, 0, 0]}
                    }
                  },
                  {
                    "id" : 6,
                    "_type" : "UnifiedMedia",
                    "video" : 
                        {
                          "id" : 7,
                          "_type" : "ScreenVMFile",
                          "src" : 1,
                          "trackNumber" : 0,
                          "attributes" : {
                            "ident" : "Rec 6-22-2025-2-25-34-PM"
                          },
                          "parameters" : {
                            "translation0" : {
                              "type" : "double",
                              "defaultValue" : 0.0,
                              "interp" : "eioe",
                              "keyframes" : [
                                {
                                  "endTime" : 74464320000,
                                  "time" : 73405920000,
                                  "value" : -1605.01050680872,
                                  "duration" : 1058400000
                                },
                                {
                                  "endTime" : 76651680000,
                                  "time" : 75428640000,
                                  "value" : -5.6843418860808e-14,
                                  "duration" : 1223040000
                                }
                              ]
                            },
                            "translation1" : {
                              "type" : "double",
                              "defaultValue" : 0.0,
                              "interp" : "eioe",
                              "keyframes" : [
                                {
                                  "endTime" : 74464320000,
                                  "time" : 73405920000,
                                  "value" : -570.683468729842,
                                  "duration" : 1058400000
                                },
                                {
                                  "endTime" : 76651680000,
                                  "time" : 75428640000,
                                  "value" : 1.4210854715202e-14,
                                  "duration" : 1223040000
                                }
                              ]
                            },
                            "scale0" : {
                              "type" : "double",
                              "defaultValue" : 0.5,
                              "interp" : "eioe",
                              "keyframes" : [
                                {
                                  "endTime" : 74464320000,
                                  "time" : 73405920000,
                                  "value" : 1.869631950605,
                                  "duration" : 1058400000
                                },
                                {
                                  "endTime" : 76651680000,
                                  "time" : 75428640000,
                                  "value" : 0.499999853527988,
                                  "duration" : 1223040000
                                }
                              ]
                            },
                            "scale1" : {
                              "type" : "double",
                              "defaultValue" : 0.5,
                              "interp" : "eioe",
                              "keyframes" : [
                                {
                                  "endTime" : 74464320000,
                                  "time" : 73405920000,
                                  "value" : 1.86963249830267,
                                  "duration" : 1058400000
                                },
                                {
                                  "endTime" : 76651680000,
                                  "time" : 75428640000,
                                  "value" : 0.5,
                                  "duration" : 1223040000
                                }
                              ]
                            },
                            "scale2" : {
                              "type" : "double",
                              "defaultValue" : 1.0,
                              "interp" : "eioe",
                              "keyframes" : [
                                {
                                  "endTime" : 76651680000,
                                  "time" : 75428640000,
                                  "value" : 0.267432236257084,
                                  "duration" : 1223040000
                                }
                              ]
                            },
                            "geometryCrop0" : {
                              "type" : "double",
                              "defaultValue" : 0.0,
                              "interp" : "eioe"
                            },
                            "geometryCrop1" : {
                              "type" : "double",
                              "defaultValue" : 0.0,
                              "interp" : "eioe"
                            },
                            "geometryCrop2" : {
                              "type" : "double",
                              "defaultValue" : 0.0,
                              "interp" : "eioe"
                            },
                            "geometryCrop3" : {
                              "type" : "double",
                              "defaultValue" : 0.0,
                              "interp" : "eioe"
                            },
                            "toc" : {
                              "type" : "string",
                              "keyframes" : [
                                {
                                  "endTime" : 76298880000,
                                  "time" : 76298880000,
                                  "value" : "Marker 4",
                                  "duration" : 0,
                                  "metadata" : {
                                    "markerIdentifier" : "0A544664-68D9-4C6F-B0FC-53DEB0CC4E56"
                                  }
                                }
                              ]
                            },
                            "cursorScale" : {
                              "type" : "double",
                              "defaultValue" : 2.25,
                              "interp" : "linr"
                            },
                            "cursorOpacity" : {
                              "type" : "double",
                              "defaultValue" : 1.0,
                              "interp" : "linr"
                            },
                            "cursorTrackLevel" : {
                              "type" : "double",
                              "defaultValue" : 0.0,
                              "interp" : "linr"
                            },
                            "smoothCursorAcrossEditDuration" : 235200000
                          },
                          "effects" : [

                          ],
                          "start" : 21238560000,
                          "duration" : 18980640000,
                          "mediaStart" : 57859200000,
                          "mediaDuration" : 18980640000,
                          "scalar" : 1,
                          "animationTracks" : {
                            "visual" : [
                              {
                                "endTime" : 74464320000,
                                "duration" : 1058400000,
                                "range" : [ 73405920000, 1058400000]
                              },
                              {
                                "endTime" : 76651680000,
                                "duration" : 1223040000,
                                "range" : [ 75428640000, 1223040000]
                              }
                            ]
                          }
                        },
                    "audio" : 
                        {
                          "id" : 8,
                          "_type" : "AMFile",
                          "src" : 1,
                          "trackNumber" : 1,
                          "attributes" : {
                            "ident" : "",
                            "gain" : 1.0,
                            "mixToMono" : false,
                            "loudnessNormalization" : true,
                            "sourceFileOffset" : 0
                          },
                            "channelNumber" : "0,1",
                          "effects" : [

                          ],
                          "start" : 21238560000,
                          "duration" : 18980640000,
                          "mediaStart" : 57859200000,
                          "mediaDuration" : 18980640000,
                          "scalar" : 1,
                          "animationTracks" : {

                          }
                        }
,
                    "start" : 21238560000,
                    "duration" : 18980640000,
                    "mediaStart" : 57859200000,
                    "mediaDuration" : 18980640000,
                    "scalar" : 1,
                    "metadata" : {
                      "AutoAppliedSmartFocus" : "False",
                      "audiateLinkedSession" : "",
                      "clipSpeedAttribute" : { "type": "bool", "value" : false},
                      "colorAttribute" : { "type": "color", "value" : [ 0, 0, 0, 0]},
                      "default-anchor0" : { "type": "double", "value" : 0.0},
                      "default-anchor1" : { "type": "double", "value" : 0.0},
                      "default-anchor2" : { "type": "double", "value" : 0.0},
                      "default-height" : { "type": "double", "value" : 1080.0},
                      "default-rotation0" : { "type": "double", "value" : 0.0},
                      "default-rotation1" : { "type": "double", "value" : 0.0},
                      "default-rotation2" : { "type": "double", "value" : 0.0},
                      "default-scale0" : { "type": "double", "value" : 0.5},
                      "default-scale1" : { "type": "double", "value" : 0.5},
                      "default-scale2" : { "type": "double", "value" : 1.0},
                      "default-shear0" : { "type": "double", "value" : 0.0},
                      "default-shear1" : { "type": "double", "value" : 0.0},
                      "default-shear2" : { "type": "double", "value" : 0.0},
                      "default-translation0" : { "type": "double", "value" : 0.0},
                      "default-translation1" : { "type": "double", "value" : 0.0},
                      "default-translation2" : { "type": "double", "value" : 0.0},
                      "default-width" : { "type": "double", "value" : 1920.0}
                    }
                  },
                  {
                    "id" : 9,
                    "_type" : "UnifiedMedia",
                    "video" : 
                        {
                          "id" : 10,
                          "_type" : "ScreenVMFile",
                          "src" : 1,
                          "trackNumber" : 0,
                          "attributes" : {
                            "ident" : "Rec 6-22-2025-2-25-34-PM"
                          },
                          "parameters" : {
                            "translation0" : {
                              "type" : "double",
                              "defaultValue" : 0.0,
                              "interp" : "eioe",
                              "keyframes" : [
                                {
                                  "endTime" : 77898240000,
                                  "time" : 77474880000,
                                  "value" : 1.13686837721616e-13,
                                  "duration" : 423360000
                                }
                              ]
                            },
                            "translation1" : {
                              "type" : "double",
                              "defaultValue" : 0.0,
                              "interp" : "eioe",
                              "keyframes" : [
                                {
                                  "endTime" : 77898240000,
                                  "time" : 77474880000,
                                  "value" : 2.8421709430404e-14,
                                  "duration" : 423360000
                                }
                              ]
                            },
                            "scale0" : {
                              "type" : "double",
                              "defaultValue" : 0.5,
                              "interp" : "eioe",
                              "keyframes" : [
                                {
                                  "endTime" : 77898240000,
                                  "time" : 77474880000,
                                  "value" : 0.499999924514823,
                                  "duration" : 423360000
                                }
                              ]
                            },
                            "scale1" : {
                              "type" : "double",
                              "defaultValue" : 0.5,
                              "interp" : "eioe",
                              "keyframes" : [
                                {
                                  "endTime" : 77898240000,
                                  "time" : 77474880000,
                                  "value" : 0.5,
                                  "duration" : 423360000
                                }
                              ]
                            },
                            "scale2" : {
                              "type" : "double",
                              "defaultValue" : 1.0,
                              "interp" : "eioe",
                              "keyframes" : [
                                {
                                  "endTime" : 77898240000,
                                  "time" : 77474880000,
                                  "value" : 0.499999913731228,
                                  "duration" : 423360000
                                }
                              ]
                            },
                            "geometryCrop0" : {
                              "type" : "double",
                              "defaultValue" : 0.0,
                              "interp" : "eioe"
                            },
                            "geometryCrop1" : {
                              "type" : "double",
                              "defaultValue" : 0.0,
                              "interp" : "eioe"
                            },
                            "geometryCrop2" : {
                              "type" : "double",
                              "defaultValue" : 0.0,
                              "interp" : "eioe"
                            },
                            "geometryCrop3" : {
                              "type" : "double",
                              "defaultValue" : 0.0,
                              "interp" : "eioe"
                            },
                            "cursorScale" : {
                              "type" : "double",
                              "defaultValue" : 2.25,
                              "interp" : "linr"
                            },
                            "cursorOpacity" : {
                              "type" : "double",
                              "defaultValue" : 1.0,
                              "interp" : "linr"
                            },
                            "cursorTrackLevel" : {
                              "type" : "double",
                              "defaultValue" : 0.0,
                              "interp" : "linr"
                            },
                            "smoothCursorAcrossEditDuration" : 235200000
                          },
                          "effects" : [

                          ],
                          "start" : 40219200000,
                          "duration" : 2187360000,
                          "mediaStart" : 76839840000,
                          "mediaDuration" : 2187360000,
                          "scalar" : 1,
                          "animationTracks" : {
                            "visual" : [
                              {
                                "endTime" : 77898240000,
                                "duration" : 423360000,
                                "range" : [ 77474880000, 423360000]
                              }
                            ]
                          }
                        },
                    "audio" : 
                        {
                          "id" : 11,
                          "_type" : "AMFile",
                          "src" : 1,
                          "trackNumber" : 1,
                          "attributes" : {
                            "ident" : "",
                            "gain" : 1.0,
                            "mixToMono" : false,
                            "loudnessNormalization" : true,
                            "sourceFileOffset" : 0
                          },
                            "channelNumber" : "0,1",
                          "effects" : [

                          ],
                          "start" : 40219200000,
                          "duration" : 2187360000,
                          "mediaStart" : 76839840000,
                          "mediaDuration" : 2187360000,
                          "scalar" : 1,
                          "animationTracks" : {

                          }
                        }
,
                    "start" : 40219200000,
                    "duration" : 2187360000,
                    "mediaStart" : 76839840000,
                    "mediaDuration" : 2187360000,
                    "scalar" : 1,
                    "metadata" : {
                      "AutoAppliedSmartFocus" : "False",
                      "audiateLinkedSession" : "",
                      "clipSpeedAttribute" : { "type": "bool", "value" : false},
                      "colorAttribute" : { "type": "color", "value" : [ 0, 0, 0, 0]},
                      "default-anchor0" : { "type": "double", "value" : 0.0},
                      "default-anchor1" : { "type": "double", "value" : 0.0},
                      "default-anchor2" : { "type": "double", "value" : 0.0},
                      "default-height" : { "type": "double", "value" : 1080.0},
                      "default-rotation0" : { "type": "double", "value" : 0.0},
                      "default-rotation1" : { "type": "double", "value" : 0.0},
                      "default-rotation2" : { "type": "double", "value" : 0.0},
                      "default-scale0" : { "type": "double", "value" : 0.5},
                      "default-scale1" : { "type": "double", "value" : 0.5},
                      "default-scale2" : { "type": "double", "value" : 1.0},
                      "default-shear0" : { "type": "double", "value" : 0.0},
                      "default-shear1" : { "type": "double", "value" : 0.0},
                      "default-shear2" : { "type": "double", "value" : 0.0},
                      "default-translation0" : { "type": "double", "value" : 0.0},
                      "default-translation1" : { "type": "double", "value" : 0.0},
                      "default-translation2" : { "type": "double", "value" : 0.0},
                      "default-width" : { "type": "double", "value" : 1920.0}
                    }
                  },
                  {
                    "id" : 12,
                    "_type" : "UnifiedMedia",
                    "video" : 
                        {
                          "id" : 13,
                          "_type" : "ScreenVMFile",
                          "src" : 1,
                          "trackNumber" : 0,
                          "attributes" : {
                            "ident" : "Rec 6-22-2025-2-25-34-PM"
                          },
                          "parameters" : {
                            "scale0" : {
                              "type" : "double",
                              "defaultValue" : 0.5,
                              "interp" : "eioe"
                            },
                            "scale1" : {
                              "type" : "double",
                              "defaultValue" : 0.5,
                              "interp" : "eioe"
                            },
                            "geometryCrop0" : {
                              "type" : "double",
                              "defaultValue" : 0.0,
                              "interp" : "eioe"
                            },
                            "geometryCrop1" : {
                              "type" : "double",
                              "defaultValue" : 0.0,
                              "interp" : "eioe"
                            },
                            "geometryCrop2" : {
                              "type" : "double",
                              "defaultValue" : 0.0,
                              "interp" : "eioe"
                            },
                            "geometryCrop3" : {
                              "type" : "double",
                              "defaultValue" : 0.0,
                              "interp" : "eioe"
                            },
                            "cursorScale" : {
                              "type" : "double",
                              "defaultValue" : 2.25,
                              "interp" : "linr"
                            },
                            "cursorOpacity" : {
                              "type" : "double",
                              "defaultValue" : 1.0,
                              "interp" : "linr"
                            },
                            "cursorTrackLevel" : {
                              "type" : "double",
                              "defaultValue" : 0.0,
                              "interp" : "linr"
                            },
                            "smoothCursorAcrossEditDuration" : 235200000
                          },
                          "effects" : [

                          ],
                          "start" : 42406560000,
                          "duration" : 4492320000,
                          "mediaStart" : 79027200000,
                          "mediaDuration" : 4492320000,
                          "scalar" : 1,
                          "animationTracks" : {

                          }
                        },
                    "audio" : 
                        {
                          "id" : 14,
                          "_type" : "AMFile",
                          "src" : 1,
                          "trackNumber" : 1,
                          "attributes" : {
                            "ident" : "",
                            "gain" : 1.0,
                            "mixToMono" : false,
                            "loudnessNormalization" : true,
                            "sourceFileOffset" : 0
                          },
                            "channelNumber" : "0,1",
                          "effects" : [

                          ],
                          "start" : 42406560000,
                          "duration" : 4492320000,
                          "mediaStart" : 79027200000,
                          "mediaDuration" : 4492320000,
                          "scalar" : 1,
                          "animationTracks" : {

                          }
                        }
,
                    "start" : 42406560000,
                    "duration" : 4492320000,
                    "mediaStart" : 79027200000,
                    "mediaDuration" : 4492320000,
                    "scalar" : 1,
                    "metadata" : {
                      "AutoAppliedSmartFocus" : "False",
                      "audiateLinkedSession" : "",
                      "clipSpeedAttribute" : { "type": "bool", "value" : false},
                      "colorAttribute" : { "type": "color", "value" : [ 0, 0, 0, 0]},
                      "default-height" : { "type": "double", "value" : 1080.0},
                      "default-translation0" : { "type": "double", "value" : 0.0},
                      "default-translation1" : { "type": "double", "value" : 0.0},
                      "default-translation2" : { "type": "double", "value" : 0.0},
                      "default-width" : { "type": "double", "value" : 1920.0}
                    }
                  },
                  {
                    "id" : 15,
                    "_type" : "UnifiedMedia",
                    "video" : 
                        {
                          "id" : 16,
                          "_type" : "ScreenVMFile",
                          "src" : 1,
                          "trackNumber" : 0,
                          "attributes" : {
                            "ident" : "Rec 6-22-2025-2-25-34-PM"
                          },
                          "parameters" : {
                            "scale0" : {
                              "type" : "double",
                              "defaultValue" : 0.5,
                              "interp" : "eioe"
                            },
                            "scale1" : {
                              "type" : "double",
                              "defaultValue" : 0.5,
                              "interp" : "eioe"
                            },
                            "geometryCrop0" : {
                              "type" : "double",
                              "defaultValue" : 0.0,
                              "interp" : "eioe"
                            },
                            "geometryCrop1" : {
                              "type" : "double",
                              "defaultValue" : 0.0,
                              "interp" : "eioe"
                            },
                            "geometryCrop2" : {
                              "type" : "double",
                              "defaultValue" : 0.0,
                              "interp" : "eioe"
                            },
                            "geometryCrop3" : {
                              "type" : "double",
                              "defaultValue" : 0.0,
                              "interp" : "eioe"
                            },
                            "cursorScale" : {
                              "type" : "double",
                              "defaultValue" : 2.25,
                              "interp" : "linr"
                            },
                            "cursorOpacity" : {
                              "type" : "double",
                              "defaultValue" : 1.0,
                              "interp" : "linr"
                            },
                            "cursorTrackLevel" : {
                              "type" : "double",
                              "defaultValue" : 0.0,
                              "interp" : "linr"
                            },
                            "smoothCursorAcrossEditDuration" : 235200000
                          },
                          "effects" : [

                          ],
                          "start" : 46898880000,
                          "duration" : 588000000,
                          "mediaStart" : 83519520000,
                          "mediaDuration" : 588000000,
                          "scalar" : 1,
                          "animationTracks" : {

                          }
                        },
                    "audio" : 
                        {
                          "id" : 17,
                          "_type" : "AMFile",
                          "src" : 1,
                          "trackNumber" : 1,
                          "attributes" : {
                            "ident" : "",
                            "gain" : 1.0,
                            "mixToMono" : false,
                            "loudnessNormalization" : true,
                            "sourceFileOffset" : 0
                          },
                            "channelNumber" : "0,1",
                          "effects" : [

                          ],
                          "start" : 46898880000,
                          "duration" : 588000000,
                          "mediaStart" : 83519520000,
                          "mediaDuration" : 588000000,
                          "scalar" : 1,
                          "animationTracks" : {

                          }
                        }
,
                    "start" : 46898880000,
                    "duration" : 588000000,
                    "mediaStart" : 83519520000,
                    "mediaDuration" : 588000000,
                    "scalar" : 1,
                    "metadata" : {
                      "AutoAppliedSmartFocus" : "False",
                      "audiateLinkedSession" : "",
                      "clipSpeedAttribute" : { "type": "bool", "value" : false},
                      "colorAttribute" : { "type": "color", "value" : [ 0, 0, 0, 0]},
                      "default-height" : { "type": "double", "value" : 1080.0},
                      "default-translation0" : { "type": "double", "value" : 0.0},
                      "default-translation1" : { "type": "double", "value" : 0.0},
                      "default-translation2" : { "type": "double", "value" : 0.0},
                      "default-width" : { "type": "double", "value" : 1920.0}
                    }
                  },
                  {
                    "id" : 18,
                    "_type" : "UnifiedMedia",
                    "video" : 
                        {
                          "id" : 19,
                          "_type" : "ScreenVMFile",
                          "src" : 1,
                          "trackNumber" : 0,
                          "attributes" : {
                            "ident" : "Rec 6-22-2025-2-25-34-PM"
                          },
                          "parameters" : {
                            "scale0" : {
                              "type" : "double",
                              "defaultValue" : 0.5,
                              "interp" : "eioe"
                            },
                            "scale1" : {
                              "type" : "double",
                              "defaultValue" : 0.5,
                              "interp" : "eioe"
                            },
                            "geometryCrop0" : {
                              "type" : "double",
                              "defaultValue" : 0.0,
                              "interp" : "eioe"
                            },
                            "geometryCrop1" : {
                              "type" : "double",
                              "defaultValue" : 0.0,
                              "interp" : "eioe"
                            },
                            "geometryCrop2" : {
                              "type" : "double",
                              "defaultValue" : 0.0,
                              "interp" : "eioe"
                            },
                            "geometryCrop3" : {
                              "type" : "double",
                              "defaultValue" : 0.0,
                              "interp" : "eioe"
                            },
                            "cursorScale" : {
                              "type" : "double",
                              "defaultValue" : 2.25,
                              "interp" : "linr"
                            },
                            "cursorOpacity" : {
                              "type" : "double",
                              "defaultValue" : 1.0,
                              "interp" : "linr"
                            },
                            "cursorTrackLevel" : {
                              "type" : "double",
                              "defaultValue" : 0.0,
                              "interp" : "linr"
                            },
                            "smoothCursorAcrossEditDuration" : 235200000
                          },
                          "effects" : [

                          ],
                          "start" : 47486880000,
                          "duration" : 1340640000,
                          "mediaStart" : 84107520000,
                          "mediaDuration" : 1340640000,
                          "scalar" : 1,
                          "animationTracks" : {

                          }
                        },
                    "audio" : 
                        {
                          "id" : 20,
                          "_type" : "AMFile",
                          "src" : 1,
                          "trackNumber" : 1,
                          "attributes" : {
                            "ident" : "",
                            "gain" : 1.0,
                            "mixToMono" : false,
                            "loudnessNormalization" : true,
                            "sourceFileOffset" : 0
                          },
                            "channelNumber" : "0,1",
                          "effects" : [

                          ],
                          "start" : 47486880000,
                          "duration" : 1340640000,
                          "mediaStart" : 84107520000,
                          "mediaDuration" : 1340640000,
                          "scalar" : 1,
                          "animationTracks" : {

                          }
                        }
,
                    "start" : 47486880000,
                    "duration" : 1340640000,
                    "mediaStart" : 84107520000,
                    "mediaDuration" : 1340640000,
                    "scalar" : 1,
                    "metadata" : {
                      "AutoAppliedSmartFocus" : "False",
                      "audiateLinkedSession" : "",
                      "clipSpeedAttribute" : { "type": "bool", "value" : false},
                      "colorAttribute" : { "type": "color", "value" : [ 0, 0, 0, 0]},
                      "default-height" : { "type": "double", "value" : 1080.0},
                      "default-translation0" : { "type": "double", "value" : 0.0},
                      "default-translation1" : { "type": "double", "value" : 0.0},
                      "default-translation2" : { "type": "double", "value" : 0.0},
                      "default-width" : { "type": "double", "value" : 1920.0}
                    }
                  },
                  {
                    "id" : 21,
                    "_type" : "UnifiedMedia",
                    "video" : 
                        {
                          "id" : 22,
                          "_type" : "ScreenVMFile",
                          "src" : 1,
                          "trackNumber" : 0,
                          "attributes" : {
                            "ident" : "Rec 6-22-2025-2-25-34-PM"
                          },
                          "parameters" : {
                            "scale0" : {
                              "type" : "double",
                              "defaultValue" : 0.5,
                              "interp" : "eioe"
                            },
                            "scale1" : {
                              "type" : "double",
                              "defaultValue" : 0.5,
                              "interp" : "eioe"
                            },
                            "geometryCrop0" : {
                              "type" : "double",
                              "defaultValue" : 0.0,
                              "interp" : "eioe"
                            },
                            "geometryCrop1" : {
                              "type" : "double",
                              "defaultValue" : 0.0,
                              "interp" : "eioe"
                            },
                            "geometryCrop2" : {
                              "type" : "double",
                              "defaultValue" : 0.0,
                              "interp" : "eioe"
                            },
                            "geometryCrop3" : {
                              "type" : "double",
                              "defaultValue" : 0.0,
                              "interp" : "eioe"
                            },
                            "cursorScale" : {
                              "type" : "double",
                              "defaultValue" : 2.25,
                              "interp" : "linr"
                            },
                            "cursorOpacity" : {
                              "type" : "double",
                              "defaultValue" : 1.0,
                              "interp" : "linr"
                            },
                            "cursorTrackLevel" : {
                              "type" : "double",
                              "defaultValue" : 0.0,
                              "interp" : "linr"
                            },
                            "smoothCursorAcrossEditDuration" : 235200000
                          },
                          "effects" : [

                          ],
                          "start" : 48827520000,
                          "duration" : 1434720000,
                          "mediaStart" : 85448160000,
                          "mediaDuration" : 1434720000,
                          "scalar" : 1,
                          "animationTracks" : {

                          }
                        },
                    "audio" : 
                        {
                          "id" : 23,
                          "_type" : "AMFile",
                          "src" : 1,
                          "trackNumber" : 1,
                          "attributes" : {
                            "ident" : "",
                            "gain" : 1.0,
                            "mixToMono" : false,
                            "loudnessNormalization" : true,
                            "sourceFileOffset" : 0
                          },
                            "channelNumber" : "0,1",
                          "effects" : [

                          ],
                          "start" : 48827520000,
                          "duration" : 1434720000,
                          "mediaStart" : 85448160000,
                          "mediaDuration" : 1434720000,
                          "scalar" : 1,
                          "animationTracks" : {

                          }
                        }
,
                    "start" : 48827520000,
                    "duration" : 1434720000,
                    "mediaStart" : 85448160000,
                    "mediaDuration" : 1434720000,
                    "scalar" : 1,
                    "metadata" : {
                      "AutoAppliedSmartFocus" : "False",
                      "audiateLinkedSession" : "",
                      "clipSpeedAttribute" : { "type": "bool", "value" : false},
                      "colorAttribute" : { "type": "color", "value" : [ 0, 0, 0, 0]},
                      "default-height" : { "type": "double", "value" : 1080.0},
                      "default-translation0" : { "type": "double", "value" : 0.0},
                      "default-translation1" : { "type": "double", "value" : 0.0},
                      "default-translation2" : { "type": "double", "value" : 0.0},
                      "default-width" : { "type": "double", "value" : 1920.0}
                    }
                  },
                  {
                    "id" : 24,
                    "_type" : "UnifiedMedia",
                    "video" : 
                        {
                          "id" : 25,
                          "_type" : "ScreenVMFile",
                          "src" : 1,
                          "trackNumber" : 0,
                          "attributes" : {
                            "ident" : "Rec 6-22-2025-2-25-34-PM"
                          },
                          "parameters" : {
                            "scale0" : {
                              "type" : "double",
                              "defaultValue" : 0.5,
                              "interp" : "eioe"
                            },
                            "scale1" : {
                              "type" : "double",
                              "defaultValue" : 0.5,
                              "interp" : "eioe"
                            },
                            "geometryCrop0" : {
                              "type" : "double",
                              "defaultValue" : 0.0,
                              "interp" : "eioe"
                            },
                            "geometryCrop1" : {
                              "type" : "double",
                              "defaultValue" : 0.0,
                              "interp" : "eioe"
                            },
                            "geometryCrop2" : {
                              "type" : "double",
                              "defaultValue" : 0.0,
                              "interp" : "eioe"
                            },
                            "geometryCrop3" : {
                              "type" : "double",
                              "defaultValue" : 0.0,
                              "interp" : "eioe"
                            },
                            "cursorScale" : {
                              "type" : "double",
                              "defaultValue" : 2.25,
                              "interp" : "linr"
                            },
                            "cursorOpacity" : {
                              "type" : "double",
                              "defaultValue" : 1.0,
                              "interp" : "linr"
                            },
                            "cursorTrackLevel" : {
                              "type" : "double",
                              "defaultValue" : 0.0,
                              "interp" : "linr"
                            },
                            "smoothCursorAcrossEditDuration" : 235200000
                          },
                          "effects" : [

                          ],
                          "start" : 50262240000,
                          "duration" : 1552320000,
                          "mediaStart" : 86882880000,
                          "mediaDuration" : 1552320000,
                          "scalar" : 1,
                          "animationTracks" : {

                          }
                        },
                    "audio" : 
                        {
                          "id" : 26,
                          "_type" : "AMFile",
                          "src" : 1,
                          "trackNumber" : 1,
                          "attributes" : {
                            "ident" : "",
                            "gain" : 1.0,
                            "mixToMono" : false,
                            "loudnessNormalization" : true,
                            "sourceFileOffset" : 0
                          },
                            "channelNumber" : "0,1",
                          "effects" : [

                          ],
                          "start" : 50262240000,
                          "duration" : 1552320000,
                          "mediaStart" : 86882880000,
                          "mediaDuration" : 1552320000,
                          "scalar" : 1,
                          "animationTracks" : {

                          }
                        }
,
                    "start" : 50262240000,
                    "duration" : 1552320000,
                    "mediaStart" : 86882880000,
                    "mediaDuration" : 1552320000,
                    "scalar" : 1,
                    "metadata" : {
                      "AutoAppliedSmartFocus" : "False",
                      "audiateLinkedSession" : "",
                      "clipSpeedAttribute" : { "type": "bool", "value" : false},
                      "colorAttribute" : { "type": "color", "value" : [ 0, 0, 0, 0]},
                      "default-height" : { "type": "double", "value" : 1080.0},
                      "default-translation0" : { "type": "double", "value" : 0.0},
                      "default-translation1" : { "type": "double", "value" : 0.0},
                      "default-translation2" : { "type": "double", "value" : 0.0},
                      "default-width" : { "type": "double", "value" : 1920.0}
                    }
                  },
                  {
                    "id" : 27,
                    "_type" : "UnifiedMedia",
                    "video" : 
                        {
                          "id" : 28,
                          "_type" : "ScreenVMFile",
                          "src" : 1,
                          "trackNumber" : 0,
                          "attributes" : {
                            "ident" : "Rec 6-22-2025-2-25-34-PM"
                          },
                          "parameters" : {
                            "scale0" : {
                              "type" : "double",
                              "defaultValue" : 0.5,
                              "interp" : "eioe"
                            },
                            "scale1" : {
                              "type" : "double",
                              "defaultValue" : 0.5,
                              "interp" : "eioe"
                            },
                            "geometryCrop0" : {
                              "type" : "double",
                              "defaultValue" : 0.0,
                              "interp" : "eioe"
                            },
                            "geometryCrop1" : {
                              "type" : "double",
                              "defaultValue" : 0.0,
                              "interp" : "eioe"
                            },
                            "geometryCrop2" : {
                              "type" : "double",
                              "defaultValue" : 0.0,
                              "interp" : "eioe"
                            },
                            "geometryCrop3" : {
                              "type" : "double",
                              "defaultValue" : 0.0,
                              "interp" : "eioe"
                            },
                            "cursorScale" : {
                              "type" : "double",
                              "defaultValue" : 2.25,
                              "interp" : "linr"
                            },
                            "cursorOpacity" : {
                              "type" : "double",
                              "defaultValue" : 1.0,
                              "interp" : "linr"
                            },
                            "cursorTrackLevel" : {
                              "type" : "double",
                              "defaultValue" : 0.0,
                              "interp" : "linr"
                            },
                            "smoothCursorAcrossEditDuration" : 235200000
                          },
                          "effects" : [

                          ],
                          "start" : 51814560000,
                          "duration" : 1105440000,
                          "mediaStart" : 88435200000,
                          "mediaDuration" : 1105440000,
                          "scalar" : 1,
                          "animationTracks" : {

                          }
                        },
                    "audio" : 
                        {
                          "id" : 29,
                          "_type" : "AMFile",
                          "src" : 1,
                          "trackNumber" : 1,
                          "attributes" : {
                            "ident" : "",
                            "gain" : 1.0,
                            "mixToMono" : false,
                            "loudnessNormalization" : true,
                            "sourceFileOffset" : 0
                          },
                            "channelNumber" : "0,1",
                          "effects" : [

                          ],
                          "start" : 51814560000,
                          "duration" : 1105440000,
                          "mediaStart" : 88435200000,
                          "mediaDuration" : 1105440000,
                          "scalar" : 1,
                          "animationTracks" : {

                          }
                        }
,
                    "start" : 51814560000,
                    "duration" : 1105440000,
                    "mediaStart" : 88435200000,
                    "mediaDuration" : 1105440000,
                    "scalar" : 1,
                    "metadata" : {
                      "AutoAppliedSmartFocus" : "False",
                      "audiateLinkedSession" : "",
                      "clipSpeedAttribute" : { "type": "bool", "value" : false},
                      "colorAttribute" : { "type": "color", "value" : [ 0, 0, 0, 0]},
                      "default-height" : { "type": "double", "value" : 1080.0},
                      "default-translation0" : { "type": "double", "value" : 0.0},
                      "default-translation1" : { "type": "double", "value" : 0.0},
                      "default-translation2" : { "type": "double", "value" : 0.0},
                      "default-width" : { "type": "double", "value" : 1920.0}
                    }
                  },
                  {
                    "id" : 30,
                    "_type" : "UnifiedMedia",
                    "video" : 
                        {
                          "id" : 31,
                          "_type" : "ScreenVMFile",
                          "src" : 1,
                          "trackNumber" : 0,
                          "attributes" : {
                            "ident" : "Rec 6-22-2025-2-25-34-PM"
                          },
                          "parameters" : {
                            "scale0" : {
                              "type" : "double",
                              "defaultValue" : 0.5,
                              "interp" : "eioe"
                            },
                            "scale1" : {
                              "type" : "double",
                              "defaultValue" : 0.5,
                              "interp" : "eioe"
                            },
                            "geometryCrop0" : {
                              "type" : "double",
                              "defaultValue" : 0.0,
                              "interp" : "eioe"
                            },
                            "geometryCrop1" : {
                              "type" : "double",
                              "defaultValue" : 0.0,
                              "interp" : "eioe"
                            },
                            "geometryCrop2" : {
                              "type" : "double",
                              "defaultValue" : 0.0,
                              "interp" : "eioe"
                            },
                            "geometryCrop3" : {
                              "type" : "double",
                              "defaultValue" : 0.0,
                              "interp" : "eioe"
                            },
                            "cursorScale" : {
                              "type" : "double",
                              "defaultValue" : 2.25,
                              "interp" : "linr"
                            },
                            "cursorOpacity" : {
                              "type" : "double",
                              "defaultValue" : 1.0,
                              "interp" : "linr"
                            },
                            "cursorTrackLevel" : {
                              "type" : "double",
                              "defaultValue" : 0.0,
                              "interp" : "linr"
                            },
                            "smoothCursorAcrossEditDuration" : 235200000
                          },
                          "effects" : [

                          ],
                          "start" : 52920000000,
                          "duration" : 2046240000,
                          "mediaStart" : 89540640000,
                          "mediaDuration" : 2046240000,
                          "scalar" : 1,
                          "animationTracks" : {

                          }
                        },
                    "audio" : 
                        {
                          "id" : 32,
                          "_type" : "AMFile",
                          "src" : 1,
                          "trackNumber" : 1,
                          "attributes" : {
                            "ident" : "",
                            "gain" : 1.0,
                            "mixToMono" : false,
                            "loudnessNormalization" : true,
                            "sourceFileOffset" : 0
                          },
                            "channelNumber" : "0,1",
                          "effects" : [

                          ],
                          "start" : 52920000000,
                          "duration" : 2046240000,
                          "mediaStart" : 89540640000,
                          "mediaDuration" : 2046240000,
                          "scalar" : 1,
                          "animationTracks" : {

                          }
                        }
,
                    "start" : 52920000000,
                    "duration" : 2046240000,
                    "mediaStart" : 89540640000,
                    "mediaDuration" : 2046240000,
                    "scalar" : 1,
                    "metadata" : {
                      "AutoAppliedSmartFocus" : "False",
                      "audiateLinkedSession" : "",
                      "clipSpeedAttribute" : { "type": "bool", "value" : false},
                      "colorAttribute" : { "type": "color", "value" : [ 0, 0, 0, 0]},
                      "default-height" : { "type": "double", "value" : 1080.0},
                      "default-translation0" : { "type": "double", "value" : 0.0},
                      "default-translation1" : { "type": "double", "value" : 0.0},
                      "default-translation2" : { "type": "double", "value" : 0.0},
                      "default-width" : { "type": "double", "value" : 1920.0}
                    }
                  },
                  {
                    "id" : 33,
                    "_type" : "UnifiedMedia",
                    "video" : 
                        {
                          "id" : 34,
                          "_type" : "ScreenVMFile",
                          "src" : 1,
                          "trackNumber" : 0,
                          "attributes" : {
                            "ident" : "Rec 6-22-2025-2-25-34-PM"
                          },
                          "parameters" : {
                            "scale0" : {
                              "type" : "double",
                              "defaultValue" : 0.5,
                              "interp" : "eioe"
                            },
                            "scale1" : {
                              "type" : "double",
                              "defaultValue" : 0.5,
                              "interp" : "eioe"
                            },
                            "geometryCrop0" : {
                              "type" : "double",
                              "defaultValue" : 0.0,
                              "interp" : "eioe"
                            },
                            "geometryCrop1" : {
                              "type" : "double",
                              "defaultValue" : 0.0,
                              "interp" : "eioe"
                            },
                            "geometryCrop2" : {
                              "type" : "double",
                              "defaultValue" : 0.0,
                              "interp" : "eioe"
                            },
                            "geometryCrop3" : {
                              "type" : "double",
                              "defaultValue" : 0.0,
                              "interp" : "eioe"
                            },
                            "cursorScale" : {
                              "type" : "double",
                              "defaultValue" : 2.25,
                              "interp" : "linr"
                            },
                            "cursorOpacity" : {
                              "type" : "double",
                              "defaultValue" : 1.0,
                              "interp" : "linr"
                            },
                            "cursorTrackLevel" : {
                              "type" : "double",
                              "defaultValue" : 0.0,
                              "interp" : "linr"
                            },
                            "smoothCursorAcrossEditDuration" : 235200000
                          },
                          "effects" : [
                              {
                                "effectName" : "CursorHilight",
                                "bypassed" : false,
                                "category" : "categoryCursorEffects",
                                "parameters" : {
                                  "radius" : 50.0,
                                  "color-red" : 1.0,
                                  "color-green" : 1.0,
                                  "color-blue" : 0.0,
                                  "color-alpha" : 0.75,
                                  "blur" : 0.1
                                },
                                "metadata" : {
                                  "effectIndex" : "0",
                                  "presetName" : "Cursor Highlight"
                                }
                              }
                          ],
                          "start" : 54966240000,
                          "duration" : 399840000,
                          "mediaStart" : 91586880000,
                          "mediaDuration" : 399840000,
                          "scalar" : 1,
                          "animationTracks" : {

                          }
                        },
                    "audio" : 
                        {
                          "id" : 35,
                          "_type" : "AMFile",
                          "src" : 1,
                          "trackNumber" : 1,
                          "attributes" : {
                            "ident" : "",
                            "gain" : 1.0,
                            "mixToMono" : false,
                            "loudnessNormalization" : true,
                            "sourceFileOffset" : 0
                          },
                            "channelNumber" : "0,1",
                          "effects" : [

                          ],
                          "start" : 54966240000,
                          "duration" : 399840000,
                          "mediaStart" : 91586880000,
                          "mediaDuration" : 399840000,
                          "scalar" : 1,
                          "animationTracks" : {

                          }
                        }
,
                    "start" : 54966240000,
                    "duration" : 399840000,
                    "mediaStart" : 91586880000,
                    "mediaDuration" : 399840000,
                    "scalar" : 1,
                    "metadata" : {
                      "AutoAppliedSmartFocus" : "False",
                      "audiateLinkedSession" : "",
                      "clipSpeedAttribute" : { "type": "bool", "value" : false},
                      "colorAttribute" : { "type": "color", "value" : [ 0, 0, 0, 0]},
                      "default-height" : { "type": "double", "value" : 1080.0},
                      "default-translation0" : { "type": "double", "value" : 0.0},
                      "default-translation1" : { "type": "double", "value" : 0.0},
                      "default-translation2" : { "type": "double", "value" : 0.0},
                      "default-width" : { "type": "double", "value" : 1920.0}
                    }
                  },
                  {
                    "id" : 36,
                    "_type" : "UnifiedMedia",
                    "video" : 
                        {
                          "id" : 37,
                          "_type" : "ScreenVMFile",
                          "src" : 1,
                          "trackNumber" : 0,
                          "attributes" : {
                            "ident" : "Rec 6-22-2025-2-25-34-PM"
                          },
                          "parameters" : {
                            "scale0" : {
                              "type" : "double",
                              "defaultValue" : 0.5,
                              "interp" : "eioe"
                            },
                            "scale1" : {
                              "type" : "double",
                              "defaultValue" : 0.5,
                              "interp" : "eioe"
                            },
                            "geometryCrop0" : {
                              "type" : "double",
                              "defaultValue" : 0.0,
                              "interp" : "eioe"
                            },
                            "geometryCrop1" : {
                              "type" : "double",
                              "defaultValue" : 0.0,
                              "interp" : "eioe"
                            },
                            "geometryCrop2" : {
                              "type" : "double",
                              "defaultValue" : 0.0,
                              "interp" : "eioe"
                            },
                            "geometryCrop3" : {
                              "type" : "double",
                              "defaultValue" : 0.0,
                              "interp" : "eioe"
                            },
                            "cursorScale" : {
                              "type" : "double",
                              "defaultValue" : 2.25,
                              "interp" : "linr"
                            },
                            "cursorOpacity" : {
                              "type" : "double",
                              "defaultValue" : 1.0,
                              "interp" : "linr"
                            },
                            "cursorTrackLevel" : {
                              "type" : "double",
                              "defaultValue" : 0.0,
                              "interp" : "linr"
                            },
                            "smoothCursorAcrossEditDuration" : 235200000
                          },
                          "effects" : [
                              {
                                "effectName" : "CursorHilight",
                                "bypassed" : false,
                                "category" : "categoryCursorEffects",
                                "parameters" : {
                                  "radius" : 50.0,
                                  "color-red" : 1.0,
                                  "color-green" : 1.0,
                                  "color-blue" : 0.0,
                                  "color-alpha" : 0.75,
                                  "blur" : 0.1
                                },
                                "metadata" : {
                                  "effectIndex" : "0",
                                  "presetName" : "Cursor Highlight"
                                }
                              }
                          ],
                          "start" : 55366080000,
                          "duration" : 1811040000,
                          "mediaStart" : 91986720000,
                          "mediaDuration" : 1811040000,
                          "scalar" : 1,
                          "animationTracks" : {

                          }
                        },
                    "audio" : 
                        {
                          "id" : 38,
                          "_type" : "AMFile",
                          "src" : 1,
                          "trackNumber" : 1,
                          "attributes" : {
                            "ident" : "",
                            "gain" : 1.0,
                            "mixToMono" : false,
                            "loudnessNormalization" : true,
                            "sourceFileOffset" : 0
                          },
                            "channelNumber" : "0,1",
                          "effects" : [

                          ],
                          "start" : 55366080000,
                          "duration" : 1811040000,
                          "mediaStart" : 91986720000,
                          "mediaDuration" : 1811040000,
                          "scalar" : 1,
                          "animationTracks" : {

                          }
                        }
,
                    "start" : 55366080000,
                    "duration" : 1811040000,
                    "mediaStart" : 91986720000,
                    "mediaDuration" : 1811040000,
                    "scalar" : 1,
                    "metadata" : {
                      "AutoAppliedSmartFocus" : "False",
                      "audiateLinkedSession" : "",
                      "clipSpeedAttribute" : { "type": "bool", "value" : false},
                      "colorAttribute" : { "type": "color", "value" : [ 0, 0, 0, 0]},
                      "default-height" : { "type": "double", "value" : 1080.0},
                      "default-translation0" : { "type": "double", "value" : 0.0},
                      "default-translation1" : { "type": "double", "value" : 0.0},
                      "default-translation2" : { "type": "double", "value" : 0.0},
                      "default-width" : { "type": "double", "value" : 1920.0}
                    }
                  },
                  {
                    "id" : 39,
                    "_type" : "UnifiedMedia",
                    "video" : 
                        {
                          "id" : 40,
                          "_type" : "ScreenVMFile",
                          "src" : 1,
                          "trackNumber" : 0,
                          "attributes" : {
                            "ident" : "Rec 6-22-2025-2-25-34-PM"
                          },
                          "parameters" : {
                            "scale0" : {
                              "type" : "double",
                              "defaultValue" : 0.5,
                              "interp" : "eioe"
                            },
                            "scale1" : {
                              "type" : "double",
                              "defaultValue" : 0.5,
                              "interp" : "eioe"
                            },
                            "geometryCrop0" : {
                              "type" : "double",
                              "defaultValue" : 0.0,
                              "interp" : "eioe"
                            },
                            "geometryCrop1" : {
                              "type" : "double",
                              "defaultValue" : 0.0,
                              "interp" : "eioe"
                            },
                            "geometryCrop2" : {
                              "type" : "double",
                              "defaultValue" : 0.0,
                              "interp" : "eioe"
                            },
                            "geometryCrop3" : {
                              "type" : "double",
                              "defaultValue" : 0.0,
                              "interp" : "eioe"
                            },
                            "cursorScale" : {
                              "type" : "double",
                              "defaultValue" : 2.25,
                              "interp" : "linr"
                            },
                            "cursorOpacity" : {
                              "type" : "double",
                              "defaultValue" : 1.0,
                              "interp" : "linr"
                            },
                            "cursorTrackLevel" : {
                              "type" : "double",
                              "defaultValue" : 0.0,
                              "interp" : "linr"
                            },
                            "smoothCursorAcrossEditDuration" : 235200000
                          },
                          "effects" : [
                              {
                                "effectName" : "CursorHilight",
                                "bypassed" : false,
                                "category" : "categoryCursorEffects",
                                "parameters" : {
                                  "radius" : 50.0,
                                  "color-red" : 1.0,
                                  "color-green" : 1.0,
                                  "color-blue" : 0.0,
                                  "color-alpha" : 0.75,
                                  "blur" : 0.1
                                },
                                "metadata" : {
                                  "effectIndex" : "0",
                                  "presetName" : "Cursor Highlight"
                                }
                              }
                          ],
                          "start" : 57177120000,
                          "duration" : 917280000,
                          "mediaStart" : 93797760000,
                          "mediaDuration" : 917280000,
                          "scalar" : 1,
                          "animationTracks" : {

                          }
                        },
                    "audio" : 
                        {
                          "id" : 41,
                          "_type" : "AMFile",
                          "src" : 1,
                          "trackNumber" : 1,
                          "attributes" : {
                            "ident" : "",
                            "gain" : 1.0,
                            "mixToMono" : false,
                            "loudnessNormalization" : true,
                            "sourceFileOffset" : 0
                          },
                            "channelNumber" : "0,1",
                          "effects" : [

                          ],
                          "start" : 57177120000,
                          "duration" : 917280000,
                          "mediaStart" : 93797760000,
                          "mediaDuration" : 917280000,
                          "scalar" : 1,
                          "animationTracks" : {

                          }
                        }
,
                    "start" : 57177120000,
                    "duration" : 917280000,
                    "mediaStart" : 93797760000,
                    "mediaDuration" : 917280000,
                    "scalar" : 1,
                    "metadata" : {
                      "AutoAppliedSmartFocus" : "False",
                      "audiateLinkedSession" : "",
                      "clipSpeedAttribute" : { "type": "bool", "value" : false},
                      "colorAttribute" : { "type": "color", "value" : [ 0, 0, 0, 0]},
                      "default-height" : { "type": "double", "value" : 1080.0},
                      "default-translation0" : { "type": "double", "value" : 0.0},
                      "default-translation1" : { "type": "double", "value" : 0.0},
                      "default-translation2" : { "type": "double", "value" : 0.0},
                      "default-width" : { "type": "double", "value" : 1920.0}
                    }
                  },
                  {
                    "id" : 42,
                    "_type" : "UnifiedMedia",
                    "video" : 
                        {
                          "id" : 43,
                          "_type" : "ScreenVMFile",
                          "src" : 1,
                          "trackNumber" : 0,
                          "attributes" : {
                            "ident" : "Rec 6-22-2025-2-25-34-PM"
                          },
                          "parameters" : {
                            "scale0" : {
                              "type" : "double",
                              "defaultValue" : 0.5,
                              "interp" : "eioe"
                            },
                            "scale1" : {
                              "type" : "double",
                              "defaultValue" : 0.5,
                              "interp" : "eioe"
                            },
                            "geometryCrop0" : {
                              "type" : "double",
                              "defaultValue" : 0.0,
                              "interp" : "eioe"
                            },
                            "geometryCrop1" : {
                              "type" : "double",
                              "defaultValue" : 0.0,
                              "interp" : "eioe"
                            },
                            "geometryCrop2" : {
                              "type" : "double",
                              "defaultValue" : 0.0,
                              "interp" : "eioe"
                            },
                            "geometryCrop3" : {
                              "type" : "double",
                              "defaultValue" : 0.0,
                              "interp" : "eioe"
                            },
                            "cursorScale" : {
                              "type" : "double",
                              "defaultValue" : 2.25,
                              "interp" : "linr"
                            },
                            "cursorOpacity" : {
                              "type" : "double",
                              "defaultValue" : 1.0,
                              "interp" : "linr"
                            },
                            "cursorTrackLevel" : {
                              "type" : "double",
                              "defaultValue" : 0.0,
                              "interp" : "linr"
                            },
                            "smoothCursorAcrossEditDuration" : 235200000
                          },
                          "effects" : [
                              {
                                "effectName" : "CursorHilight",
                                "bypassed" : false,
                                "category" : "categoryCursorEffects",
                                "parameters" : {
                                  "radius" : 50.0,
                                  "color-red" : 1.0,
                                  "color-green" : 1.0,
                                  "color-blue" : 0.0,
                                  "color-alpha" : 0.75,
                                  "blur" : 0.1
                                },
                                "metadata" : {
                                  "effectIndex" : "0",
                                  "presetName" : "Cursor Highlight"
                                }
                              }
                          ],
                          "start" : 58094400000,
                          "duration" : 1340640000,
                          "mediaStart" : 94715040000,
                          "mediaDuration" : 1340640000,
                          "scalar" : 1,
                          "animationTracks" : {

                          }
                        },
                    "audio" : 
                        {
                          "id" : 44,
                          "_type" : "AMFile",
                          "src" : 1,
                          "trackNumber" : 1,
                          "attributes" : {
                            "ident" : "",
                            "gain" : 1.0,
                            "mixToMono" : false,
                            "loudnessNormalization" : true,
                            "sourceFileOffset" : 0
                          },
                            "channelNumber" : "0,1",
                          "effects" : [

                          ],
                          "start" : 58094400000,
                          "duration" : 1340640000,
                          "mediaStart" : 94715040000,
                          "mediaDuration" : 1340640000,
                          "scalar" : 1,
                          "animationTracks" : {

                          }
                        }
,
                    "start" : 58094400000,
                    "duration" : 1340640000,
                    "mediaStart" : 94715040000,
                    "mediaDuration" : 1340640000,
                    "scalar" : 1,
                    "metadata" : {
                      "AutoAppliedSmartFocus" : "False",
                      "audiateLinkedSession" : "",
                      "clipSpeedAttribute" : { "type": "bool", "value" : false},
                      "colorAttribute" : { "type": "color", "value" : [ 0, 0, 0, 0]},
                      "default-height" : { "type": "double", "value" : 1080.0},
                      "default-translation0" : { "type": "double", "value" : 0.0},
                      "default-translation1" : { "type": "double", "value" : 0.0},
                      "default-translation2" : { "type": "double", "value" : 0.0},
                      "default-width" : { "type": "double", "value" : 1920.0}
                    }
                  },
                  {
                    "id" : 45,
                    "_type" : "UnifiedMedia",
                    "video" : 
                        {
                          "id" : 46,
                          "_type" : "ScreenVMFile",
                          "src" : 1,
                          "trackNumber" : 0,
                          "attributes" : {
                            "ident" : "Rec 6-22-2025-2-25-34-PM"
                          },
                          "parameters" : {
                            "scale0" : {
                              "type" : "double",
                              "defaultValue" : 0.5,
                              "interp" : "eioe"
                            },
                            "scale1" : {
                              "type" : "double",
                              "defaultValue" : 0.5,
                              "interp" : "eioe"
                            },
                            "geometryCrop0" : {
                              "type" : "double",
                              "defaultValue" : 0.0,
                              "interp" : "eioe"
                            },
                            "geometryCrop1" : {
                              "type" : "double",
                              "defaultValue" : 0.0,
                              "interp" : "eioe"
                            },
                            "geometryCrop2" : {
                              "type" : "double",
                              "defaultValue" : 0.0,
                              "interp" : "eioe"
                            },
                            "geometryCrop3" : {
                              "type" : "double",
                              "defaultValue" : 0.0,
                              "interp" : "eioe"
                            },
                            "toc" : {
                              "type" : "string",
                              "keyframes" : [
                                {
                                  "endTime" : 97067040000,
                                  "time" : 97067040000,
                                  "value" : "Marker 17",
                                  "duration" : 0,
                                  "metadata" : {
                                    "markerIdentifier" : "774FF36F-3526-4D26-90C1-4150C931FF39"
                                  }
                                }
                              ]
                            },
                            "cursorScale" : {
                              "type" : "double",
                              "defaultValue" : 2.25,
                              "interp" : "linr"
                            },
                            "cursorOpacity" : {
                              "type" : "double",
                              "defaultValue" : 1.0,
                              "interp" : "linr"
                            },
                            "cursorTrackLevel" : {
                              "type" : "double",
                              "defaultValue" : 0.0,
                              "interp" : "linr"
                            },
                            "smoothCursorAcrossEditDuration" : 235200000
                          },
                          "effects" : [
                              {
                                "effectName" : "CursorHilight",
                                "bypassed" : false,
                                "category" : "categoryCursorEffects",
                                "parameters" : {
                                  "radius" : 50.0,
                                  "color-red" : 1.0,
                                  "color-green" : 1.0,
                                  "color-blue" : 0.0,
                                  "color-alpha" : 0.75,
                                  "blur" : 0.1
                                },
                                "metadata" : {
                                  "effectIndex" : "0",
                                  "presetName" : "Cursor Highlight"
                                }
                              }
                          ],
                          "start" : 59435040000,
                          "duration" : 446880000,
                          "mediaStart" : 96055680000,
                          "mediaDuration" : 1481760000,
                          "scalar" : "19/63",
                          "animationTracks" : {

                          }
                        },
                    "audio" : 
                        {
                          "id" : 47,
                          "_type" : "AMFile",
                          "src" : 1,
                          "trackNumber" : 1,
                          "attributes" : {
                            "ident" : "",
                            "gain" : 1.0,
                            "mixToMono" : false,
                            "loudnessNormalization" : true,
                            "sourceFileOffset" : 0
                          },
                            "channelNumber" : "0,1",
                          "effects" : [

                          ],
                          "start" : 59435040000,
                          "duration" : 446880000,
                          "mediaStart" : 96055680000,
                          "mediaDuration" : 1481760000,
                          "scalar" : "19/63",
                          "animationTracks" : {

                          }
                        }
,
                    "start" : 59435040000,
                    "duration" : 446880000,
                    "mediaStart" : 96055680000,
                    "mediaDuration" : 1481760000,
                    "scalar" : "19/63",
                    "metadata" : {
                      "AutoAppliedSmartFocus" : "False",
                      "audiateLinkedSession" : "",
                      "clipSpeedAttribute" : { "type": "bool", "value" : true},
                      "colorAttribute" : { "type": "color", "value" : [ 0, 0, 0, 0]},
                      "default-height" : { "type": "double", "value" : 1080.0},
                      "default-translation0" : { "type": "double", "value" : 0.0},
                      "default-translation1" : { "type": "double", "value" : 0.0},
                      "default-translation2" : { "type": "double", "value" : 0.0},
                      "default-width" : { "type": "double", "value" : 1920.0}
                    }
                  },
                  {
                    "id" : 48,
                    "_type" : "UnifiedMedia",
                    "video" : 
                        {
                          "id" : 49,
                          "_type" : "ScreenVMFile",
                          "src" : 1,
                          "trackNumber" : 0,
                          "attributes" : {
                            "ident" : "Rec 6-22-2025-2-25-34-PM"
                          },
                          "parameters" : {
                            "scale0" : {
                              "type" : "double",
                              "defaultValue" : 0.5,
                              "interp" : "eioe"
                            },
                            "scale1" : {
                              "type" : "double",
                              "defaultValue" : 0.5,
                              "interp" : "eioe"
                            },
                            "geometryCrop0" : {
                              "type" : "double",
                              "defaultValue" : 0.0,
                              "interp" : "eioe"
                            },
                            "geometryCrop1" : {
                              "type" : "double",
                              "defaultValue" : 0.0,
                              "interp" : "eioe"
                            },
                            "geometryCrop2" : {
                              "type" : "double",
                              "defaultValue" : 0.0,
                              "interp" : "eioe"
                            },
                            "geometryCrop3" : {
                              "type" : "double",
                              "defaultValue" : 0.0,
                              "interp" : "eioe"
                            },
                            "cursorScale" : {
                              "type" : "double",
                              "defaultValue" : 2.25,
                              "interp" : "linr"
                            },
                            "cursorOpacity" : {
                              "type" : "double",
                              "defaultValue" : 1.0,
                              "interp" : "linr"
                            },
                            "cursorTrackLevel" : {
                              "type" : "double",
                              "defaultValue" : 0.0,
                              "interp" : "linr"
                            },
                            "smoothCursorAcrossEditDuration" : 235200000
                          },
                          "effects" : [
                              {
                                "effectName" : "CursorHilight",
                                "bypassed" : false,
                                "category" : "categoryCursorEffects",
                                "parameters" : {
                                  "radius" : 50.0,
                                  "color-red" : 1.0,
                                  "color-green" : 1.0,
                                  "color-blue" : 0.0,
                                  "color-alpha" : 0.75,
                                  "blur" : 0.1
                                },
                                "metadata" : {
                                  "effectIndex" : "0",
                                  "presetName" : "Cursor Highlight"
                                }
                              }
                          ],
                          "start" : 59881920000,
                          "duration" : 893760000,
                          "mediaStart" : 97537440000,
                          "mediaDuration" : 893760000,
                          "scalar" : 1,
                          "animationTracks" : {

                          }
                        },
                    "audio" : 
                        {
                          "id" : 50,
                          "_type" : "AMFile",
                          "src" : 1,
                          "trackNumber" : 1,
                          "attributes" : {
                            "ident" : "",
                            "gain" : 1.0,
                            "mixToMono" : false,
                            "loudnessNormalization" : true,
                            "sourceFileOffset" : 0
                          },
                            "channelNumber" : "0,1",
                          "effects" : [

                          ],
                          "start" : 59881920000,
                          "duration" : 893760000,
                          "mediaStart" : 97537440000,
                          "mediaDuration" : 893760000,
                          "scalar" : 1,
                          "animationTracks" : {

                          }
                        }
,
                    "start" : 59881920000,
                    "duration" : 893760000,
                    "mediaStart" : 97537440000,
                    "mediaDuration" : 893760000,
                    "scalar" : 1,
                    "metadata" : {
                      "AutoAppliedSmartFocus" : "False",
                      "audiateLinkedSession" : "",
                      "clipSpeedAttribute" : { "type": "bool", "value" : false},
                      "colorAttribute" : { "type": "color", "value" : [ 0, 0, 0, 0]},
                      "default-height" : { "type": "double", "value" : 1080.0},
                      "default-translation0" : { "type": "double", "value" : 0.0},
                      "default-translation1" : { "type": "double", "value" : 0.0},
                      "default-translation2" : { "type": "double", "value" : 0.0},
                      "default-width" : { "type": "double", "value" : 1920.0}
                    }
                  },
                  {
                    "id" : 51,
                    "_type" : "UnifiedMedia",
                    "video" : 
                        {
                          "id" : 52,
                          "_type" : "ScreenVMFile",
                          "src" : 1,
                          "trackNumber" : 0,
                          "attributes" : {
                            "ident" : "Rec 6-22-2025-2-25-34-PM"
                          },
                          "parameters" : {
                            "scale0" : {
                              "type" : "double",
                              "defaultValue" : 0.5,
                              "interp" : "eioe"
                            },
                            "scale1" : {
                              "type" : "double",
                              "defaultValue" : 0.5,
                              "interp" : "eioe"
                            },
                            "geometryCrop0" : {
                              "type" : "double",
                              "defaultValue" : 0.0,
                              "interp" : "eioe"
                            },
                            "geometryCrop1" : {
                              "type" : "double",
                              "defaultValue" : 0.0,
                              "interp" : "eioe"
                            },
                            "geometryCrop2" : {
                              "type" : "double",
                              "defaultValue" : 0.0,
                              "interp" : "eioe"
                            },
                            "geometryCrop3" : {
                              "type" : "double",
                              "defaultValue" : 0.0,
                              "interp" : "eioe"
                            },
                            "cursorScale" : {
                              "type" : "double",
                              "defaultValue" : 2.25,
                              "interp" : "linr"
                            },
                            "cursorOpacity" : {
                              "type" : "double",
                              "defaultValue" : 1.0,
                              "interp" : "linr"
                            },
                            "cursorTrackLevel" : {
                              "type" : "double",
                              "defaultValue" : 0.0,
                              "interp" : "linr"
                            },
                            "smoothCursorAcrossEditDuration" : 235200000
                          },
                          "effects" : [
                              {
                                "effectName" : "CursorHilight",
                                "bypassed" : false,
                                "category" : "categoryCursorEffects",
                                "parameters" : {
                                  "radius" : 50.0,
                                  "color-red" : 1.0,
                                  "color-green" : 1.0,
                                  "color-blue" : 0.0,
                                  "color-alpha" : 0.75,
                                  "blur" : 0.1
                                },
                                "metadata" : {
                                  "effectIndex" : "0",
                                  "presetName" : "Cursor Highlight"
                                }
                              }
                          ],
                          "start" : 60775680000,
                          "duration" : 1340640000,
                          "mediaStart" : 98431200000,
                          "mediaDuration" : 4186560000,
                          "scalar" : "57/178",
                          "animationTracks" : {

                          }
                        },
                    "audio" : 
                        {
                          "id" : 53,
                          "_type" : "AMFile",
                          "src" : 1,
                          "trackNumber" : 1,
                          "attributes" : {
                            "ident" : "",
                            "gain" : 1.0,
                            "mixToMono" : false,
                            "loudnessNormalization" : true,
                            "sourceFileOffset" : 0
                          },
                            "channelNumber" : "0,1",
                          "effects" : [

                          ],
                          "start" : 60775680000,
                          "duration" : 1340640000,
                          "mediaStart" : 98431200000,
                          "mediaDuration" : 4186560000,
                          "scalar" : "57/178",
                          "animationTracks" : {

                          }
                        }
,
                    "start" : 60775680000,
                    "duration" : 1340640000,
                    "mediaStart" : 98431200000,
                    "mediaDuration" : 4186560000,
                    "scalar" : "57/178",
                    "metadata" : {
                      "AutoAppliedSmartFocus" : "False",
                      "audiateLinkedSession" : "",
                      "clipSpeedAttribute" : { "type": "bool", "value" : true},
                      "colorAttribute" : { "type": "color", "value" : [ 0, 0, 0, 0]},
                      "default-height" : { "type": "double", "value" : 1080.0},
                      "default-translation0" : { "type": "double", "value" : 0.0},
                      "default-translation1" : { "type": "double", "value" : 0.0},
                      "default-translation2" : { "type": "double", "value" : 0.0},
                      "default-width" : { "type": "double", "value" : 1920.0}
                    }
                  },
                  {
                    "id" : 54,
                    "_type" : "UnifiedMedia",
                    "video" : 
                        {
                          "id" : 55,
                          "_type" : "ScreenVMFile",
                          "src" : 1,
                          "trackNumber" : 0,
                          "attributes" : {
                            "ident" : "Rec 6-22-2025-2-25-34-PM"
                          },
                          "parameters" : {
                            "scale0" : {
                              "type" : "double",
                              "defaultValue" : 0.5,
                              "interp" : "eioe"
                            },
                            "scale1" : {
                              "type" : "double",
                              "defaultValue" : 0.5,
                              "interp" : "eioe"
                            },
                            "geometryCrop0" : {
                              "type" : "double",
                              "defaultValue" : 0.0,
                              "interp" : "eioe"
                            },
                            "geometryCrop1" : {
                              "type" : "double",
                              "defaultValue" : 0.0,
                              "interp" : "eioe"
                            },
                            "geometryCrop2" : {
                              "type" : "double",
                              "defaultValue" : 0.0,
                              "interp" : "eioe"
                            },
                            "geometryCrop3" : {
                              "type" : "double",
                              "defaultValue" : 0.0,
                              "interp" : "eioe"
                            },
                            "cursorScale" : {
                              "type" : "double",
                              "defaultValue" : 2.25,
                              "interp" : "linr"
                            },
                            "cursorOpacity" : {
                              "type" : "double",
                              "defaultValue" : 1.0,
                              "interp" : "linr"
                            },
                            "cursorTrackLevel" : {
                              "type" : "double",
                              "defaultValue" : 0.0,
                              "interp" : "linr"
                            },
                            "smoothCursorAcrossEditDuration" : 235200000
                          },
                          "effects" : [
                              {
                                "effectName" : "CursorHilight",
                                "bypassed" : false,
                                "category" : "categoryCursorEffects",
                                "parameters" : {
                                  "radius" : 50.0,
                                  "color-red" : 1.0,
                                  "color-green" : 1.0,
                                  "color-blue" : 0.0,
                                  "color-alpha" : 0.75,
                                  "blur" : 0.1
                                },
                                "metadata" : {
                                  "effectIndex" : "0",
                                  "presetName" : "Cursor Highlight"
                                }
                              }
                          ],
                          "start" : 62116320000,
                          "duration" : 4210080000,
                          "mediaStart" : 102617760000,
                          "mediaDuration" : 4210080000,
                          "scalar" : 1,
                          "animationTracks" : {

                          }
                        },
                    "audio" : 
                        {
                          "id" : 56,
                          "_type" : "AMFile",
                          "src" : 1,
                          "trackNumber" : 1,
                          "attributes" : {
                            "ident" : "",
                            "gain" : 1.0,
                            "mixToMono" : false,
                            "loudnessNormalization" : true,
                            "sourceFileOffset" : 0
                          },
                            "channelNumber" : "0,1",
                          "effects" : [

                          ],
                          "start" : 62116320000,
                          "duration" : 4210080000,
                          "mediaStart" : 102617760000,
                          "mediaDuration" : 4210080000,
                          "scalar" : 1,
                          "animationTracks" : {

                          }
                        }
,
                    "start" : 62116320000,
                    "duration" : 4210080000,
                    "mediaStart" : 102617760000,
                    "mediaDuration" : 4210080000,
                    "scalar" : 1,
                    "metadata" : {
                      "AutoAppliedSmartFocus" : "False",
                      "audiateLinkedSession" : "",
                      "clipSpeedAttribute" : { "type": "bool", "value" : false},
                      "colorAttribute" : { "type": "color", "value" : [ 0, 0, 0, 0]},
                      "default-height" : { "type": "double", "value" : 1080.0},
                      "default-translation0" : { "type": "double", "value" : 0.0},
                      "default-translation1" : { "type": "double", "value" : 0.0},
                      "default-translation2" : { "type": "double", "value" : 0.0},
                      "default-width" : { "type": "double", "value" : 1920.0}
                    }
                  },
                  {
                    "id" : 57,
                    "_type" : "UnifiedMedia",
                    "video" : 
                        {
                          "id" : 58,
                          "_type" : "ScreenVMFile",
                          "src" : 1,
                          "trackNumber" : 0,
                          "attributes" : {
                            "ident" : "Rec 6-22-2025-2-25-34-PM"
                          },
                          "parameters" : {
                            "scale0" : {
                              "type" : "double",
                              "defaultValue" : 0.5,
                              "interp" : "eioe"
                            },
                            "scale1" : {
                              "type" : "double",
                              "defaultValue" : 0.5,
                              "interp" : "eioe"
                            },
                            "geometryCrop0" : {
                              "type" : "double",
                              "defaultValue" : 0.0,
                              "interp" : "eioe"
                            },
                            "geometryCrop1" : {
                              "type" : "double",
                              "defaultValue" : 0.0,
                              "interp" : "eioe"
                            },
                            "geometryCrop2" : {
                              "type" : "double",
                              "defaultValue" : 0.0,
                              "interp" : "eioe"
                            },
                            "geometryCrop3" : {
                              "type" : "double",
                              "defaultValue" : 0.0,
                              "interp" : "eioe"
                            },
                            "cursorScale" : {
                              "type" : "double",
                              "defaultValue" : 2.25,
                              "interp" : "linr"
                            },
                            "cursorOpacity" : {
                              "type" : "double",
                              "defaultValue" : 1.0,
                              "interp" : "linr"
                            },
                            "cursorTrackLevel" : {
                              "type" : "double",
                              "defaultValue" : 0.0,
                              "interp" : "linr"
                            },
                            "smoothCursorAcrossEditDuration" : 235200000
                          },
                          "effects" : [

                          ],
                          "start" : 66326400000,
                          "duration" : 1340640000,
                          "mediaStart" : 106827840000,
                          "mediaDuration" : 3057600000,
                          "scalar" : "57/130",
                          "animationTracks" : {

                          }
                        },
                    "audio" : 
                        {
                          "id" : 59,
                          "_type" : "AMFile",
                          "src" : 1,
                          "trackNumber" : 1,
                          "attributes" : {
                            "ident" : "",
                            "gain" : 1.0,
                            "mixToMono" : false,
                            "loudnessNormalization" : true,
                            "sourceFileOffset" : 0
                          },
                            "channelNumber" : "0,1",
                          "effects" : [

                          ],
                          "start" : 66326400000,
                          "duration" : 1340640000,
                          "mediaStart" : 106827840000,
                          "mediaDuration" : 3057600000,
                          "scalar" : "57/130",
                          "animationTracks" : {

                          }
                        }
,
                    "start" : 66326400000,
                    "duration" : 1340640000,
                    "mediaStart" : 106827840000,
                    "mediaDuration" : 3057600000,
                    "scalar" : "57/130",
                    "metadata" : {
                      "AutoAppliedSmartFocus" : "False",
                      "audiateLinkedSession" : "",
                      "clipSpeedAttribute" : { "type": "bool", "value" : true},
                      "colorAttribute" : { "type": "color", "value" : [ 0, 0, 0, 0]},
                      "default-height" : { "type": "double", "value" : 1080.0},
                      "default-translation0" : { "type": "double", "value" : 0.0},
                      "default-translation1" : { "type": "double", "value" : 0.0},
                      "default-translation2" : { "type": "double", "value" : 0.0},
                      "default-width" : { "type": "double", "value" : 1920.0}
                    }
                  },
                  {
                    "id" : 60,
                    "_type" : "UnifiedMedia",
                    "video" : 
                        {
                          "id" : 61,
                          "_type" : "ScreenVMFile",
                          "src" : 1,
                          "trackNumber" : 0,
                          "attributes" : {
                            "ident" : "Rec 6-22-2025-2-25-34-PM"
                          },
                          "parameters" : {
                            "scale0" : {
                              "type" : "double",
                              "defaultValue" : 0.5,
                              "interp" : "eioe"
                            },
                            "scale1" : {
                              "type" : "double",
                              "defaultValue" : 0.5,
                              "interp" : "eioe"
                            },
                            "geometryCrop0" : {
                              "type" : "double",
                              "defaultValue" : 0.0,
                              "interp" : "eioe"
                            },
                            "geometryCrop1" : {
                              "type" : "double",
                              "defaultValue" : 0.0,
                              "interp" : "eioe"
                            },
                            "geometryCrop2" : {
                              "type" : "double",
                              "defaultValue" : 0.0,
                              "interp" : "eioe"
                            },
                            "geometryCrop3" : {
                              "type" : "double",
                              "defaultValue" : 0.0,
                              "interp" : "eioe"
                            },
                            "toc" : {
                              "type" : "string",
                              "keyframes" : [
                                {
                                  "endTime" : 111132000000,
                                  "time" : 111132000000,
                                  "value" : "Marker 5",
                                  "duration" : 0,
                                  "metadata" : {
                                    "markerIdentifier" : "87630760-4371-444F-8746-4351233DF179"
                                  }
                                }
                              ]
                            },
                            "cursorScale" : {
                              "type" : "double",
                              "defaultValue" : 2.25,
                              "interp" : "linr"
                            },
                            "cursorOpacity" : {
                              "type" : "double",
                              "defaultValue" : 1.0,
                              "interp" : "linr"
                            },
                            "cursorTrackLevel" : {
                              "type" : "double",
                              "defaultValue" : 0.0,
                              "interp" : "linr"
                            },
                            "smoothCursorAcrossEditDuration" : 235200000
                          },
                          "effects" : [
                              {
                                "effectName" : "CursorHilight",
                                "bypassed" : false,
                                "category" : "categoryCursorEffects",
                                "parameters" : {
                                  "radius" : 50.0,
                                  "color-red" : 1.0,
                                  "color-green" : 1.0,
                                  "color-blue" : 0.0,
                                  "color-alpha" : 0.75,
                                  "blur" : 0.1
                                },
                                "metadata" : {
                                  "effectIndex" : "0",
                                  "presetName" : "Cursor Highlight"
                                }
                              }
                          ],
                          "start" : 67667040000,
                          "duration" : 2163840000,
                          "mediaStart" : 109885440000,
                          "mediaDuration" : 2163840000,
                          "scalar" : 1,
                          "animationTracks" : {

                          }
                        },
                    "audio" : 
                        {
                          "id" : 62,
                          "_type" : "AMFile",
                          "src" : 1,
                          "trackNumber" : 1,
                          "attributes" : {
                            "ident" : "",
                            "gain" : 1.0,
                            "mixToMono" : false,
                            "loudnessNormalization" : true,
                            "sourceFileOffset" : 0
                          },
                            "channelNumber" : "0,1",
                          "effects" : [

                          ],
                          "start" : 67667040000,
                          "duration" : 2163840000,
                          "mediaStart" : 109885440000,
                          "mediaDuration" : 2163840000,
                          "scalar" : 1,
                          "animationTracks" : {

                          }
                        }
,
                    "start" : 67667040000,
                    "duration" : 2163840000,
                    "mediaStart" : 109885440000,
                    "mediaDuration" : 2163840000,
                    "scalar" : 1,
                    "metadata" : {
                      "AutoAppliedSmartFocus" : "False",
                      "audiateLinkedSession" : "",
                      "clipSpeedAttribute" : { "type": "bool", "value" : false},
                      "colorAttribute" : { "type": "color", "value" : [ 0, 0, 0, 0]},
                      "default-height" : { "type": "double", "value" : 1080.0},
                      "default-translation0" : { "type": "double", "value" : 0.0},
                      "default-translation1" : { "type": "double", "value" : 0.0},
                      "default-translation2" : { "type": "double", "value" : 0.0},
                      "default-width" : { "type": "double", "value" : 1920.0}
                    }
                  },
                  {
                    "id" : 63,
                    "_type" : "UnifiedMedia",
                    "video" : 
                        {
                          "id" : 64,
                          "_type" : "ScreenVMFile",
                          "src" : 1,
                          "trackNumber" : 0,
                          "attributes" : {
                            "ident" : "Rec 6-22-2025-2-25-34-PM"
                          },
                          "parameters" : {
                            "scale0" : {
                              "type" : "double",
                              "defaultValue" : 0.5,
                              "interp" : "eioe"
                            },
                            "scale1" : {
                              "type" : "double",
                              "defaultValue" : 0.5,
                              "interp" : "eioe"
                            },
                            "geometryCrop0" : {
                              "type" : "double",
                              "defaultValue" : 0.0,
                              "interp" : "eioe"
                            },
                            "geometryCrop1" : {
                              "type" : "double",
                              "defaultValue" : 0.0,
                              "interp" : "eioe"
                            },
                            "geometryCrop2" : {
                              "type" : "double",
                              "defaultValue" : 0.0,
                              "interp" : "eioe"
                            },
                            "geometryCrop3" : {
                              "type" : "double",
                              "defaultValue" : 0.0,
                              "interp" : "eioe"
                            },
                            "cursorScale" : {
                              "type" : "double",
                              "defaultValue" : 2.25,
                              "interp" : "linr"
                            },
                            "cursorOpacity" : {
                              "type" : "double",
                              "defaultValue" : 1.0,
                              "interp" : "linr"
                            },
                            "cursorTrackLevel" : {
                              "type" : "double",
                              "defaultValue" : 0.0,
                              "interp" : "linr"
                            },
                            "smoothCursorAcrossEditDuration" : 235200000
                          },
                          "effects" : [

                          ],
                          "start" : 69830880000,
                          "duration" : 917280000,
                          "mediaStart" : 112049280000,
                          "mediaDuration" : 1975680000,
                          "scalar" : "13/28",
                          "animationTracks" : {

                          }
                        },
                    "audio" : 
                        {
                          "id" : 65,
                          "_type" : "AMFile",
                          "src" : 1,
                          "trackNumber" : 1,
                          "attributes" : {
                            "ident" : "",
                            "gain" : 1.0,
                            "mixToMono" : false,
                            "loudnessNormalization" : true,
                            "sourceFileOffset" : 0
                          },
                            "channelNumber" : "0,1",
                          "effects" : [

                          ],
                          "start" : 69830880000,
                          "duration" : 917280000,
                          "mediaStart" : 112049280000,
                          "mediaDuration" : 1975680000,
                          "scalar" : "13/28",
                          "animationTracks" : {

                          }
                        }
,
                    "start" : 69830880000,
                    "duration" : 917280000,
                    "mediaStart" : 112049280000,
                    "mediaDuration" : 1975680000,
                    "scalar" : "13/28",
                    "metadata" : {
                      "AutoAppliedSmartFocus" : "False",
                      "audiateLinkedSession" : "",
                      "clipSpeedAttribute" : { "type": "bool", "value" : true},
                      "colorAttribute" : { "type": "color", "value" : [ 0, 0, 0, 0]},
                      "default-height" : { "type": "double", "value" : 1080.0},
                      "default-translation0" : { "type": "double", "value" : 0.0},
                      "default-translation1" : { "type": "double", "value" : 0.0},
                      "default-translation2" : { "type": "double", "value" : 0.0},
                      "default-width" : { "type": "double", "value" : 1920.0}
                    }
                  },
                  {
                    "id" : 66,
                    "_type" : "StitchedMedia",
                    "minMediaStart" : 0,
                    "attributes" : {
                      "ident" : "Rec 6-22-2025-2-25-34-PM",
                      "gain" : 1.0,
                      "mixToMono" : false,
                      "loudnessNormalization" : true,
                      "sourceFileOffset" : 0
                    },
                    "parameters" : {
                      "scale0" : 0.5,
                      "scale1" : 0.5,
                      "geometryCrop0" : 0.0,
                      "geometryCrop1" : 0.0,
                      "geometryCrop2" : 0.0,
                      "geometryCrop3" : 0.0,
                      "volume" : 1.0,
                      "cursorOpacity" : 1.0,
                      "cursorTrackLevel" : 0.0,
                      "cursorScale" : 2.25,
                      "smoothCursorAcrossEditDuration" : 235200000
                    },
                    "medias" : [
                        {
                          "id" : 67,
                          "_type" : "UnifiedMedia",
                          "video" : 
                              {
                                "id" : 68,
                                "_type" : "ScreenVMFile",
                                "src" : 1,
                                "trackNumber" : 0,
                                "attributes" : {
                                  "ident" : "Rec 6-22-2025-2-25-34-PM"
                                },
                                "parameters" : {
                                  "geometryCrop0" : {
                                    "type" : "double",
                                    "defaultValue" : 0.0,
                                    "interp" : "eioe"
                                  },
                                  "geometryCrop1" : {
                                    "type" : "double",
                                    "defaultValue" : 0.0,
                                    "interp" : "eioe"
                                  },
                                  "geometryCrop2" : {
                                    "type" : "double",
                                    "defaultValue" : 0.0,
                                    "interp" : "eioe"
                                  },
                                  "geometryCrop3" : {
                                    "type" : "double",
                                    "defaultValue" : 0.0,
                                    "interp" : "eioe"
                                  },
                                  "cursorScale" : {
                                    "type" : "double",
                                    "defaultValue" : 0.0,
                                    "interp" : "linr"
                                  },
                                  "cursorOpacity" : {
                                    "type" : "double",
                                    "defaultValue" : 0.0,
                                    "interp" : "linr"
                                  },
                                  "cursorTrackLevel" : {
                                    "type" : "double",
                                    "defaultValue" : 0.0,
                                    "interp" : "linr"
                                  },
                                  "smoothCursorAcrossEditDuration" : 235200000
                                },
                                "effects" : [

                                ],
                                "start" : 0,
                                "duration" : 223792800000,
                                "mediaStart" : 0,
                                "mediaDuration" : 223792800000,
                                "scalar" : 1,
                                "animationTracks" : {

                                }
                              },
                          "audio" : 
                              {
                                "id" : 69,
                                "_type" : "AMFile",
                                "src" : 1,
                                "trackNumber" : 1,
                                "attributes" : {
                                  "ident" : "",
                                  "gain" : 1.0,
                                  "mixToMono" : false,
                                  "loudnessNormalization" : true,
                                  "sourceFileOffset" : 0
                                },
                                  "channelNumber" : "0,1",
                                "effects" : [

                                ],
                                "start" : 0,
                                "duration" : 223792800000,
                                "mediaStart" : 0,
                                "mediaDuration" : 223792800000,
                                "scalar" : 1,
                                "animationTracks" : {

                                }
                              }
,
                          "start" : 0,
                          "duration" : 223792800000,
                          "mediaStart" : 0,
                          "mediaDuration" : 223792800000,
                          "scalar" : 1,
                          "metadata" : {
                            "AutoAppliedSmartFocus" : "False",
                            "audiateLinkedSession" : "",
                            "clipSpeedAttribute" : { "type": "bool", "value" : false},
                            "colorAttribute" : { "type": "color", "value" : [ 0, 0, 0, 0]}
                          }
                        },
                        {
                          "id" : 70,
                          "_type" : "UnifiedMedia",
                          "video" : 
                              {
                                "id" : 71,
                                "_type" : "ScreenVMFile",
                                "src" : 1,
                                "trackNumber" : 0,
                                "attributes" : {
                                  "ident" : "Rec 6-22-2025-2-25-34-PM"
                                },
                                "parameters" : {
                                  "geometryCrop0" : {
                                    "type" : "double",
                                    "defaultValue" : 0.0,
                                    "interp" : "eioe"
                                  },
                                  "geometryCrop1" : {
                                    "type" : "double",
                                    "defaultValue" : 0.0,
                                    "interp" : "eioe"
                                  },
                                  "geometryCrop2" : {
                                    "type" : "double",
                                    "defaultValue" : 0.0,
                                    "interp" : "eioe"
                                  },
                                  "geometryCrop3" : {
                                    "type" : "double",
                                    "defaultValue" : 0.0,
                                    "interp" : "eioe"
                                  },
                                  "cursorScale" : {
                                    "type" : "double",
                                    "defaultValue" : 0.0,
                                    "interp" : "linr"
                                  },
                                  "cursorOpacity" : {
                                    "type" : "double",
                                    "defaultValue" : 0.0,
                                    "interp" : "linr"
                                  },
                                  "cursorTrackLevel" : {
                                    "type" : "double",
                                    "defaultValue" : 0.0,
                                    "interp" : "linr"
                                  },
                                  "smoothCursorAcrossEditDuration" : 235200000
                                },
                                "effects" : [

                                ],
                                "start" : 223792800000,
                                "duration" : 112943040000,
                                "mediaStart" : 225980160000,
                                "mediaDuration" : 112943040000,
                                "scalar" : 1,
                                "animationTracks" : {

                                }
                              },
                          "audio" : 
                              {
                                "id" : 72,
                                "_type" : "AMFile",
                                "src" : 1,
                                "trackNumber" : 1,
                                "attributes" : {
                                  "ident" : "",
                                  "gain" : 1.0,
                                  "mixToMono" : false,
                                  "loudnessNormalization" : true,
                                  "sourceFileOffset" : 0
                                },
                                  "channelNumber" : "0,1",
                                "effects" : [

                                ],
                                "start" : 223792800000,
                                "duration" : 112943040000,
                                "mediaStart" : 225980160000,
                                "mediaDuration" : 112943040000,
                                "scalar" : 1,
                                "animationTracks" : {

                                }
                              }
,
                          "start" : 223792800000,
                          "duration" : 112943040000,
                          "mediaStart" : 225980160000,
                          "mediaDuration" : 112943040000,
                          "scalar" : 1,
                          "metadata" : {
                            "AutoAppliedSmartFocus" : "False",
                            "audiateLinkedSession" : "",
                            "clipSpeedAttribute" : { "type": "bool", "value" : false},
                            "colorAttribute" : { "type": "color", "value" : [ 0, 0, 0, 0]}
                          }
                        }
                    ],
                    "effects" : [

                    ],
                    "start" : 70748160000,
                    "duration" : 5033280000,
                    "mediaStart" : 114024960000,
                    "mediaDuration" : 88670400000,
                    "scalar" : "107/1885",
                    "metadata" : {
                      "AutoAppliedSmartFocus" : "False",
                      "audiateLinkedSession" : "",
                      "clipSpeedAttribute" : { "type": "bool", "value" : true},
                      "colorAttribute" : { "type": "color", "value" : [ 0, 0, 0, 0]}
                    },
                    "animationTracks" : {

                    }
                  },
                  {
                    "id" : 73,
                    "_type" : "StitchedMedia",
                    "minMediaStart" : 0,
                    "attributes" : {
                      "ident" : "Rec 6-22-2025-2-25-34-PM",
                      "gain" : 1.0,
                      "mixToMono" : false,
                      "loudnessNormalization" : true,
                      "sourceFileOffset" : 0
                    },
                    "parameters" : {
                      "scale0" : 0.5,
                      "scale1" : 0.5,
                      "geometryCrop0" : 0.0,
                      "geometryCrop1" : 0.0,
                      "geometryCrop2" : 0.0,
                      "geometryCrop3" : 0.0,
                      "volume" : 1.0,
                      "cursorOpacity" : 1.0,
                      "cursorTrackLevel" : 0.0,
                      "cursorScale" : 2.25,
                      "smoothCursorAcrossEditDuration" : 235200000
                    },
                    "medias" : [
                        {
                          "id" : 74,
                          "_type" : "UnifiedMedia",
                          "video" : 
                              {
                                "id" : 75,
                                "_type" : "ScreenVMFile",
                                "src" : 1,
                                "trackNumber" : 0,
                                "attributes" : {
                                  "ident" : "Rec 6-22-2025-2-25-34-PM"
                                },
                                "parameters" : {
                                  "geometryCrop0" : {
                                    "type" : "double",
                                    "defaultValue" : 0.0,
                                    "interp" : "eioe"
                                  },
                                  "geometryCrop1" : {
                                    "type" : "double",
                                    "defaultValue" : 0.0,
                                    "interp" : "eioe"
                                  },
                                  "geometryCrop2" : {
                                    "type" : "double",
                                    "defaultValue" : 0.0,
                                    "interp" : "eioe"
                                  },
                                  "geometryCrop3" : {
                                    "type" : "double",
                                    "defaultValue" : 0.0,
                                    "interp" : "eioe"
                                  },
                                  "cursorScale" : {
                                    "type" : "double",
                                    "defaultValue" : 0.0,
                                    "interp" : "linr"
                                  },
                                  "cursorOpacity" : {
                                    "type" : "double",
                                    "defaultValue" : 0.0,
                                    "interp" : "linr"
                                  },
                                  "cursorTrackLevel" : {
                                    "type" : "double",
                                    "defaultValue" : 0.0,
                                    "interp" : "linr"
                                  },
                                  "smoothCursorAcrossEditDuration" : 235200000
                                },
                                "effects" : [

                                ],
                                "start" : 0,
                                "duration" : 223792800000,
                                "mediaStart" : 0,
                                "mediaDuration" : 223792800000,
                                "scalar" : 1,
                                "animationTracks" : {

                                }
                              },
                          "audio" : 
                              {
                                "id" : 76,
                                "_type" : "AMFile",
                                "src" : 1,
                                "trackNumber" : 1,
                                "attributes" : {
                                  "ident" : "",
                                  "gain" : 1.0,
                                  "mixToMono" : false,
                                  "loudnessNormalization" : true,
                                  "sourceFileOffset" : 0
                                },
                                  "channelNumber" : "0,1",
                                "effects" : [

                                ],
                                "start" : 0,
                                "duration" : 223792800000,
                                "mediaStart" : 0,
                                "mediaDuration" : 223792800000,
                                "scalar" : 1,
                                "animationTracks" : {

                                }
                              }
,
                          "start" : 0,
                          "duration" : 223792800000,
                          "mediaStart" : 0,
                          "mediaDuration" : 223792800000,
                          "scalar" : 1,
                          "metadata" : {
                            "AutoAppliedSmartFocus" : "False",
                            "audiateLinkedSession" : "",
                            "clipSpeedAttribute" : { "type": "bool", "value" : false},
                            "colorAttribute" : { "type": "color", "value" : [ 0, 0, 0, 0]}
                          }
                        },
                        {
                          "id" : 77,
                          "_type" : "UnifiedMedia",
                          "video" : 
                              {
                                "id" : 78,
                                "_type" : "ScreenVMFile",
                                "src" : 1,
                                "trackNumber" : 0,
                                "attributes" : {
                                  "ident" : "Rec 6-22-2025-2-25-34-PM"
                                },
                                "parameters" : {
                                  "geometryCrop0" : {
                                    "type" : "double",
                                    "defaultValue" : 0.0,
                                    "interp" : "eioe"
                                  },
                                  "geometryCrop1" : {
                                    "type" : "double",
                                    "defaultValue" : 0.0,
                                    "interp" : "eioe"
                                  },
                                  "geometryCrop2" : {
                                    "type" : "double",
                                    "defaultValue" : 0.0,
                                    "interp" : "eioe"
                                  },
                                  "geometryCrop3" : {
                                    "type" : "double",
                                    "defaultValue" : 0.0,
                                    "interp" : "eioe"
                                  },
                                  "cursorScale" : {
                                    "type" : "double",
                                    "defaultValue" : 0.0,
                                    "interp" : "linr"
                                  },
                                  "cursorOpacity" : {
                                    "type" : "double",
                                    "defaultValue" : 0.0,
                                    "interp" : "linr"
                                  },
                                  "cursorTrackLevel" : {
                                    "type" : "double",
                                    "defaultValue" : 0.0,
                                    "interp" : "linr"
                                  },
                                  "smoothCursorAcrossEditDuration" : 235200000
                                },
                                "effects" : [

                                ],
                                "start" : 223792800000,
                                "duration" : 112943040000,
                                "mediaStart" : 225980160000,
                                "mediaDuration" : 112943040000,
                                "scalar" : 1,
                                "animationTracks" : {

                                }
                              },
                          "audio" : 
                              {
                                "id" : 79,
                                "_type" : "AMFile",
                                "src" : 1,
                                "trackNumber" : 1,
                                "attributes" : {
                                  "ident" : "",
                                  "gain" : 1.0,
                                  "mixToMono" : false,
                                  "loudnessNormalization" : true,
                                  "sourceFileOffset" : 0
                                },
                                  "channelNumber" : "0,1",
                                "effects" : [

                                ],
                                "start" : 223792800000,
                                "duration" : 112943040000,
                                "mediaStart" : 225980160000,
                                "mediaDuration" : 112943040000,
                                "scalar" : 1,
                                "animationTracks" : {

                                }
                              }
,
                          "start" : 223792800000,
                          "duration" : 112943040000,
                          "mediaStart" : 225980160000,
                          "mediaDuration" : 112943040000,
                          "scalar" : 1,
                          "metadata" : {
                            "AutoAppliedSmartFocus" : "False",
                            "audiateLinkedSession" : "",
                            "clipSpeedAttribute" : { "type": "bool", "value" : false},
                            "colorAttribute" : { "type": "color", "value" : [ 0, 0, 0, 0]}
                          }
                        }
                    ],
                    "effects" : [
                        {
                          "effectName" : "CursorHilight",
                          "bypassed" : false,
                          "category" : "categoryCursorEffects",
                          "parameters" : {
                            "radius" : 50.0,
                            "color-red" : 1.0,
                            "color-green" : 1.0,
                            "color-blue" : 0.0,
                            "color-alpha" : 0.75,
                            "blur" : 0.1
                          },
                          "metadata" : {
                            "presetName" : "Cursor Highlight"
                          }
                        }
                    ],
                    "start" : 75781440000,
                    "duration" : 6726720000,
                    "mediaStart" : 202695360000,
                    "mediaDuration" : 17230080000,
                    "scalar" : "1001/2564",
                    "metadata" : {
                      "AutoAppliedSmartFocus" : "False",
                      "audiateLinkedSession" : "",
                      "clipSpeedAttribute" : { "type": "bool", "value" : true},
                      "colorAttribute" : { "type": "color", "value" : [ 0, 0, 0, 0]}
                    },
                    "animationTracks" : {

                    }
                  },
                  {
                    "id" : 80,
                    "_type" : "StitchedMedia",
                    "minMediaStart" : 0,
                    "attributes" : {
                      "ident" : "Rec 6-22-2025-2-25-34-PM",
                      "gain" : 1.0,
                      "mixToMono" : false,
                      "loudnessNormalization" : true,
                      "sourceFileOffset" : 0
                    },
                    "parameters" : {
                      "scale0" : 0.5,
                      "scale1" : 0.5,
                      "geometryCrop0" : 0.0,
                      "geometryCrop1" : 0.0,
                      "geometryCrop2" : 0.0,
                      "geometryCrop3" : 0.0,
                      "volume" : 1.0,
                      "cursorOpacity" : 1.0,
                      "cursorTrackLevel" : 0.0,
                      "cursorScale" : 2.25,
                      "smoothCursorAcrossEditDuration" : 235200000
                    },
                    "medias" : [
                        {
                          "id" : 81,
                          "_type" : "UnifiedMedia",
                          "video" : 
                              {
                                "id" : 82,
                                "_type" : "ScreenVMFile",
                                "src" : 1,
                                "trackNumber" : 0,
                                "attributes" : {
                                  "ident" : "Rec 6-22-2025-2-25-34-PM"
                                },
                                "parameters" : {
                                  "geometryCrop0" : {
                                    "type" : "double",
                                    "defaultValue" : 0.0,
                                    "interp" : "eioe"
                                  },
                                  "geometryCrop1" : {
                                    "type" : "double",
                                    "defaultValue" : 0.0,
                                    "interp" : "eioe"
                                  },
                                  "geometryCrop2" : {
                                    "type" : "double",
                                    "defaultValue" : 0.0,
                                    "interp" : "eioe"
                                  },
                                  "geometryCrop3" : {
                                    "type" : "double",
                                    "defaultValue" : 0.0,
                                    "interp" : "eioe"
                                  },
                                  "cursorScale" : {
                                    "type" : "double",
                                    "defaultValue" : 0.0,
                                    "interp" : "linr"
                                  },
                                  "cursorOpacity" : {
                                    "type" : "double",
                                    "defaultValue" : 0.0,
                                    "interp" : "linr"
                                  },
                                  "cursorTrackLevel" : {
                                    "type" : "double",
                                    "defaultValue" : 0.0,
                                    "interp" : "linr"
                                  },
                                  "smoothCursorAcrossEditDuration" : 235200000
                                },
                                "effects" : [

                                ],
                                "start" : 0,
                                "duration" : 223792800000,
                                "mediaStart" : 0,
                                "mediaDuration" : 223792800000,
                                "scalar" : 1,
                                "animationTracks" : {

                                }
                              },
                          "audio" : 
                              {
                                "id" : 83,
                                "_type" : "AMFile",
                                "src" : 1,
                                "trackNumber" : 1,
                                "attributes" : {
                                  "ident" : "",
                                  "gain" : 1.0,
                                  "mixToMono" : false,
                                  "loudnessNormalization" : true,
                                  "sourceFileOffset" : 0
                                },
                                  "channelNumber" : "0,1",
                                "effects" : [

                                ],
                                "start" : 0,
                                "duration" : 223792800000,
                                "mediaStart" : 0,
                                "mediaDuration" : 223792800000,
                                "scalar" : 1,
                                "animationTracks" : {

                                }
                              }
,
                          "start" : 0,
                          "duration" : 223792800000,
                          "mediaStart" : 0,
                          "mediaDuration" : 223792800000,
                          "scalar" : 1,
                          "metadata" : {
                            "AutoAppliedSmartFocus" : "False",
                            "audiateLinkedSession" : "",
                            "clipSpeedAttribute" : { "type": "bool", "value" : false},
                            "colorAttribute" : { "type": "color", "value" : [ 0, 0, 0, 0]}
                          }
                        },
                        {
                          "id" : 84,
                          "_type" : "UnifiedMedia",
                          "video" : 
                              {
                                "id" : 85,
                                "_type" : "ScreenVMFile",
                                "src" : 1,
                                "trackNumber" : 0,
                                "attributes" : {
                                  "ident" : "Rec 6-22-2025-2-25-34-PM"
                                },
                                "parameters" : {
                                  "geometryCrop0" : {
                                    "type" : "double",
                                    "defaultValue" : 0.0,
                                    "interp" : "eioe"
                                  },
                                  "geometryCrop1" : {
                                    "type" : "double",
                                    "defaultValue" : 0.0,
                                    "interp" : "eioe"
                                  },
                                  "geometryCrop2" : {
                                    "type" : "double",
                                    "defaultValue" : 0.0,
                                    "interp" : "eioe"
                                  },
                                  "geometryCrop3" : {
                                    "type" : "double",
                                    "defaultValue" : 0.0,
                                    "interp" : "eioe"
                                  },
                                  "cursorScale" : {
                                    "type" : "double",
                                    "defaultValue" : 0.0,
                                    "interp" : "linr"
                                  },
                                  "cursorOpacity" : {
                                    "type" : "double",
                                    "defaultValue" : 0.0,
                                    "interp" : "linr"
                                  },
                                  "cursorTrackLevel" : {
                                    "type" : "double",
                                    "defaultValue" : 0.0,
                                    "interp" : "linr"
                                  },
                                  "smoothCursorAcrossEditDuration" : 235200000
                                },
                                "effects" : [

                                ],
                                "start" : 223792800000,
                                "duration" : 112943040000,
                                "mediaStart" : 225980160000,
                                "mediaDuration" : 112943040000,
                                "scalar" : 1,
                                "animationTracks" : {

                                }
                              },
                          "audio" : 
                              {
                                "id" : 86,
                                "_type" : "AMFile",
                                "src" : 1,
                                "trackNumber" : 1,
                                "attributes" : {
                                  "ident" : "",
                                  "gain" : 1.0,
                                  "mixToMono" : false,
                                  "loudnessNormalization" : true,
                                  "sourceFileOffset" : 0
                                },
                                  "channelNumber" : "0,1",
                                "effects" : [

                                ],
                                "start" : 223792800000,
                                "duration" : 112943040000,
                                "mediaStart" : 225980160000,
                                "mediaDuration" : 112943040000,
                                "scalar" : 1,
                                "animationTracks" : {

                                }
                              }
,
                          "start" : 223792800000,
                          "duration" : 112943040000,
                          "mediaStart" : 225980160000,
                          "mediaDuration" : 112943040000,
                          "scalar" : 1,
                          "metadata" : {
                            "AutoAppliedSmartFocus" : "False",
                            "audiateLinkedSession" : "",
                            "clipSpeedAttribute" : { "type": "bool", "value" : false},
                            "colorAttribute" : { "type": "color", "value" : [ 0, 0, 0, 0]}
                          }
                        }
                    ],
                    "effects" : [
                        {
                          "effectName" : "CursorHilight",
                          "bypassed" : false,
                          "category" : "categoryCursorEffects",
                          "parameters" : {
                            "radius" : 50.0,
                            "color-red" : 1.0,
                            "color-green" : 1.0,
                            "color-blue" : 0.0,
                            "color-alpha" : 0.75,
                            "blur" : 0.1
                          },
                          "metadata" : {
                            "presetName" : "Cursor Highlight"
                          }
                        }
                    ],
                    "start" : 82508160000,
                    "duration" : 3081120000,
                    "mediaStart" : 219925440000,
                    "mediaDuration" : "1128570240000/143",
                    "scalar" : "51352000/131534993",
                    "metadata" : {
                      "AutoAppliedSmartFocus" : "False",
                      "audiateLinkedSession" : "",
                      "clipSpeedAttribute" : { "type": "bool", "value" : true},
                      "colorAttribute" : { "type": "color", "value" : [ 0, 0, 0, 0]},
                      "default-anchor0" : { "type": "double", "value" : 0.0},
                      "default-anchor1" : { "type": "double", "value" : 0.0},
                      "default-anchor2" : { "type": "double", "value" : 0.0},
                      "default-height" : { "type": "double", "value" : 1080.0},
                      "default-rotation0" : { "type": "double", "value" : 0.0},
                      "default-rotation1" : { "type": "double", "value" : 0.0},
                      "default-rotation2" : { "type": "double", "value" : 0.0},
                      "default-scale0" : { "type": "double", "value" : 0.5},
                      "default-scale1" : { "type": "double", "value" : 0.5},
                      "default-scale2" : { "type": "double", "value" : 1.0},
                      "default-shear0" : { "type": "double", "value" : 0.0},
                      "default-shear1" : { "type": "double", "value" : 0.0},
                      "default-shear2" : { "type": "double", "value" : 0.0},
                      "default-translation0" : { "type": "double", "value" : 0.0},
                      "default-translation1" : { "type": "double", "value" : 0.0},
                      "default-translation2" : { "type": "double", "value" : 0.0},
                      "default-width" : { "type": "double", "value" : 1920.0}
                    },
                    "animationTracks" : {

                    }
                  },
                  {
                    "id" : 87,
                    "_type" : "StitchedMedia",
                    "minMediaStart" : 0,
                    "attributes" : {
                      "ident" : "Rec 6-22-2025-2-25-34-PM",
                      "gain" : 1.0,
                      "mixToMono" : false,
                      "loudnessNormalization" : true,
                      "sourceFileOffset" : 0
                    },
                    "parameters" : {
                      "scale0" : 0.5,
                      "scale1" : 0.5,
                      "geometryCrop0" : 0.0,
                      "geometryCrop1" : 0.0,
                      "geometryCrop2" : 0.0,
                      "geometryCrop3" : 0.0,
                      "volume" : 1.0,
                      "cursorOpacity" : 1.0,
                      "cursorTrackLevel" : 0.0,
                      "cursorScale" : 2.25,
                      "smoothCursorAcrossEditDuration" : 235200000
                    },
                    "medias" : [
                        {
                          "id" : 88,
                          "_type" : "UnifiedMedia",
                          "video" : 
                              {
                                "id" : 89,
                                "_type" : "ScreenVMFile",
                                "src" : 1,
                                "trackNumber" : 0,
                                "attributes" : {
                                  "ident" : "Rec 6-22-2025-2-25-34-PM"
                                },
                                "parameters" : {
                                  "geometryCrop0" : {
                                    "type" : "double",
                                    "defaultValue" : 0.0,
                                    "interp" : "eioe"
                                  },
                                  "geometryCrop1" : {
                                    "type" : "double",
                                    "defaultValue" : 0.0,
                                    "interp" : "eioe"
                                  },
                                  "geometryCrop2" : {
                                    "type" : "double",
                                    "defaultValue" : 0.0,
                                    "interp" : "eioe"
                                  },
                                  "geometryCrop3" : {
                                    "type" : "double",
                                    "defaultValue" : 0.0,
                                    "interp" : "eioe"
                                  },
                                  "cursorScale" : {
                                    "type" : "double",
                                    "defaultValue" : 0.0,
                                    "interp" : "linr"
                                  },
                                  "cursorOpacity" : {
                                    "type" : "double",
                                    "defaultValue" : 0.0,
                                    "interp" : "linr"
                                  },
                                  "cursorTrackLevel" : {
                                    "type" : "double",
                                    "defaultValue" : 0.0,
                                    "interp" : "linr"
                                  },
                                  "smoothCursorAcrossEditDuration" : 235200000
                                },
                                "effects" : [

                                ],
                                "start" : 0,
                                "duration" : 223792800000,
                                "mediaStart" : 0,
                                "mediaDuration" : 223792800000,
                                "scalar" : 1,
                                "animationTracks" : {

                                }
                              },
                          "audio" : 
                              {
                                "id" : 90,
                                "_type" : "AMFile",
                                "src" : 1,
                                "trackNumber" : 1,
                                "attributes" : {
                                  "ident" : "",
                                  "gain" : 1.0,
                                  "mixToMono" : false,
                                  "loudnessNormalization" : true,
                                  "sourceFileOffset" : 0
                                },
                                  "channelNumber" : "0,1",
                                "effects" : [

                                ],
                                "start" : 0,
                                "duration" : 223792800000,
                                "mediaStart" : 0,
                                "mediaDuration" : 223792800000,
                                "scalar" : 1,
                                "animationTracks" : {

                                }
                              }
,
                          "start" : 0,
                          "duration" : 223792800000,
                          "mediaStart" : 0,
                          "mediaDuration" : 223792800000,
                          "scalar" : 1,
                          "metadata" : {
                            "AutoAppliedSmartFocus" : "False",
                            "audiateLinkedSession" : "",
                            "clipSpeedAttribute" : { "type": "bool", "value" : false},
                            "colorAttribute" : { "type": "color", "value" : [ 0, 0, 0, 0]}
                          }
                        },
                        {
                          "id" : 91,
                          "_type" : "UnifiedMedia",
                          "video" : 
                              {
                                "id" : 92,
                                "_type" : "ScreenVMFile",
                                "src" : 1,
                                "trackNumber" : 0,
                                "attributes" : {
                                  "ident" : "Rec 6-22-2025-2-25-34-PM"
                                },
                                "parameters" : {
                                  "geometryCrop0" : {
                                    "type" : "double",
                                    "defaultValue" : 0.0,
                                    "interp" : "eioe"
                                  },
                                  "geometryCrop1" : {
                                    "type" : "double",
                                    "defaultValue" : 0.0,
                                    "interp" : "eioe"
                                  },
                                  "geometryCrop2" : {
                                    "type" : "double",
                                    "defaultValue" : 0.0,
                                    "interp" : "eioe"
                                  },
                                  "geometryCrop3" : {
                                    "type" : "double",
                                    "defaultValue" : 0.0,
                                    "interp" : "eioe"
                                  },
                                  "cursorScale" : {
                                    "type" : "double",
                                    "defaultValue" : 0.0,
                                    "interp" : "linr"
                                  },
                                  "cursorOpacity" : {
                                    "type" : "double",
                                    "defaultValue" : 0.0,
                                    "interp" : "linr"
                                  },
                                  "cursorTrackLevel" : {
                                    "type" : "double",
                                    "defaultValue" : 0.0,
                                    "interp" : "linr"
                                  },
                                  "smoothCursorAcrossEditDuration" : 235200000
                                },
                                "effects" : [

                                ],
                                "start" : 223792800000,
                                "duration" : 112943040000,
                                "mediaStart" : 225980160000,
                                "mediaDuration" : 112943040000,
                                "scalar" : 1,
                                "animationTracks" : {

                                }
                              },
                          "audio" : 
                              {
                                "id" : 93,
                                "_type" : "AMFile",
                                "src" : 1,
                                "trackNumber" : 1,
                                "attributes" : {
                                  "ident" : "",
                                  "gain" : 1.0,
                                  "mixToMono" : false,
                                  "loudnessNormalization" : true,
                                  "sourceFileOffset" : 0
                                },
                                  "channelNumber" : "0,1",
                                "effects" : [

                                ],
                                "start" : 223792800000,
                                "duration" : 112943040000,
                                "mediaStart" : 225980160000,
                                "mediaDuration" : 112943040000,
                                "scalar" : 1,
                                "animationTracks" : {

                                }
                              }
,
                          "start" : 223792800000,
                          "duration" : 112943040000,
                          "mediaStart" : 225980160000,
                          "mediaDuration" : 112943040000,
                          "scalar" : 1,
                          "metadata" : {
                            "AutoAppliedSmartFocus" : "False",
                            "audiateLinkedSession" : "",
                            "clipSpeedAttribute" : { "type": "bool", "value" : false},
                            "colorAttribute" : { "type": "color", "value" : [ 0, 0, 0, 0]}
                          }
                        }
                    ],
                    "effects" : [
                        {
                          "effectName" : "CursorHilight",
                          "bypassed" : false,
                          "category" : "categoryCursorEffects",
                          "parameters" : {
                            "radius" : 50.0,
                            "color-red" : 1.0,
                            "color-green" : 1.0,
                            "color-blue" : 0.0,
                            "color-alpha" : 0.75,
                            "blur" : 0.1
                          },
                          "metadata" : {
                            "presetName" : "Cursor Highlight"
                          }
                        }
                    ],
                    "start" : 85589280000,
                    "duration" : 1011360000,
                    "mediaStart" : "32577908160000/143",
                    "mediaDuration" : "111692270592000/42757",
                    "scalar" : "168560000/435376159",
                    "metadata" : {
                      "AutoAppliedSmartFocus" : "False",
                      "audiateLinkedSession" : "",
                      "clipSpeedAttribute" : { "type": "bool", "value" : true},
                      "colorAttribute" : { "type": "color", "value" : [ 0, 0, 0, 0]},
                      "default-anchor0" : { "type": "double", "value" : 0.0},
                      "default-anchor1" : { "type": "double", "value" : 0.0},
                      "default-anchor2" : { "type": "double", "value" : 0.0},
                      "default-height" : { "type": "double", "value" : 1080.0},
                      "default-rotation0" : { "type": "double", "value" : 0.0},
                      "default-rotation1" : { "type": "double", "value" : 0.0},
                      "default-rotation2" : { "type": "double", "value" : 0.0},
                      "default-scale0" : { "type": "double", "value" : 0.5},
                      "default-scale1" : { "type": "double", "value" : 0.5},
                      "default-scale2" : { "type": "double", "value" : 1.0},
                      "default-shear0" : { "type": "double", "value" : 0.0},
                      "default-shear1" : { "type": "double", "value" : 0.0},
                      "default-shear2" : { "type": "double", "value" : 0.0},
                      "default-translation0" : { "type": "double", "value" : 0.0},
                      "default-translation1" : { "type": "double", "value" : 0.0},
                      "default-translation2" : { "type": "double", "value" : 0.0},
                      "default-width" : { "type": "double", "value" : 1920.0}
                    },
                    "animationTracks" : {

                    }
                  },
                  {
                    "id" : 94,
                    "_type" : "StitchedMedia",
                    "minMediaStart" : 0,
                    "attributes" : {
                      "ident" : "Rec 6-22-2025-2-25-34-PM",
                      "gain" : 1.0,
                      "mixToMono" : false,
                      "loudnessNormalization" : true,
                      "sourceFileOffset" : 0
                    },
                    "parameters" : {
                      "scale0" : 0.5,
                      "scale1" : 0.5,
                      "geometryCrop0" : 0.0,
                      "geometryCrop1" : 0.0,
                      "geometryCrop2" : 0.0,
                      "geometryCrop3" : 0.0,
                      "volume" : 1.0,
                      "cursorOpacity" : 1.0,
                      "cursorTrackLevel" : 0.0,
                      "cursorScale" : 2.25,
                      "smoothCursorAcrossEditDuration" : 235200000
                    },
                    "medias" : [
                        {
                          "id" : 95,
                          "_type" : "UnifiedMedia",
                          "video" : 
                              {
                                "id" : 96,
                                "_type" : "ScreenVMFile",
                                "src" : 1,
                                "trackNumber" : 0,
                                "attributes" : {
                                  "ident" : "Rec 6-22-2025-2-25-34-PM"
                                },
                                "parameters" : {
                                  "geometryCrop0" : {
                                    "type" : "double",
                                    "defaultValue" : 0.0,
                                    "interp" : "eioe"
                                  },
                                  "geometryCrop1" : {
                                    "type" : "double",
                                    "defaultValue" : 0.0,
                                    "interp" : "eioe"
                                  },
                                  "geometryCrop2" : {
                                    "type" : "double",
                                    "defaultValue" : 0.0,
                                    "interp" : "eioe"
                                  },
                                  "geometryCrop3" : {
                                    "type" : "double",
                                    "defaultValue" : 0.0,
                                    "interp" : "eioe"
                                  },
                                  "cursorScale" : {
                                    "type" : "double",
                                    "defaultValue" : 0.0,
                                    "interp" : "linr"
                                  },
                                  "cursorOpacity" : {
                                    "type" : "double",
                                    "defaultValue" : 0.0,
                                    "interp" : "linr"
                                  },
                                  "cursorTrackLevel" : {
                                    "type" : "double",
                                    "defaultValue" : 0.0,
                                    "interp" : "linr"
                                  },
                                  "smoothCursorAcrossEditDuration" : 235200000
                                },
                                "effects" : [

                                ],
                                "start" : 0,
                                "duration" : 223792800000,
                                "mediaStart" : 0,
                                "mediaDuration" : 223792800000,
                                "scalar" : 1,
                                "animationTracks" : {

                                }
                              },
                          "audio" : 
                              {
                                "id" : 97,
                                "_type" : "AMFile",
                                "src" : 1,
                                "trackNumber" : 1,
                                "attributes" : {
                                  "ident" : "",
                                  "gain" : 1.0,
                                  "mixToMono" : false,
                                  "loudnessNormalization" : true,
                                  "sourceFileOffset" : 0
                                },
                                  "channelNumber" : "0,1",
                                "effects" : [

                                ],
                                "start" : 0,
                                "duration" : 223792800000,
                                "mediaStart" : 0,
                                "mediaDuration" : 223792800000,
                                "scalar" : 1,
                                "animationTracks" : {

                                }
                              }
,
                          "start" : 0,
                          "duration" : 223792800000,
                          "mediaStart" : 0,
                          "mediaDuration" : 223792800000,
                          "scalar" : 1,
                          "metadata" : {
                            "AutoAppliedSmartFocus" : "False",
                            "audiateLinkedSession" : "",
                            "clipSpeedAttribute" : { "type": "bool", "value" : false},
                            "colorAttribute" : { "type": "color", "value" : [ 0, 0, 0, 0]}
                          }
                        },
                        {
                          "id" : 98,
                          "_type" : "UnifiedMedia",
                          "video" : 
                              {
                                "id" : 99,
                                "_type" : "ScreenVMFile",
                                "src" : 1,
                                "trackNumber" : 0,
                                "attributes" : {
                                  "ident" : "Rec 6-22-2025-2-25-34-PM"
                                },
                                "parameters" : {
                                  "geometryCrop0" : {
                                    "type" : "double",
                                    "defaultValue" : 0.0,
                                    "interp" : "eioe"
                                  },
                                  "geometryCrop1" : {
                                    "type" : "double",
                                    "defaultValue" : 0.0,
                                    "interp" : "eioe"
                                  },
                                  "geometryCrop2" : {
                                    "type" : "double",
                                    "defaultValue" : 0.0,
                                    "interp" : "eioe"
                                  },
                                  "geometryCrop3" : {
                                    "type" : "double",
                                    "defaultValue" : 0.0,
                                    "interp" : "eioe"
                                  },
                                  "cursorScale" : {
                                    "type" : "double",
                                    "defaultValue" : 0.0,
                                    "interp" : "linr"
                                  },
                                  "cursorOpacity" : {
                                    "type" : "double",
                                    "defaultValue" : 0.0,
                                    "interp" : "linr"
                                  },
                                  "cursorTrackLevel" : {
                                    "type" : "double",
                                    "defaultValue" : 0.0,
                                    "interp" : "linr"
                                  },
                                  "smoothCursorAcrossEditDuration" : 235200000
                                },
                                "effects" : [

                                ],
                                "start" : 223792800000,
                                "duration" : 112943040000,
                                "mediaStart" : 225980160000,
                                "mediaDuration" : 112943040000,
                                "scalar" : 1,
                                "animationTracks" : {

                                }
                              },
                          "audio" : 
                              {
                                "id" : 100,
                                "_type" : "AMFile",
                                "src" : 1,
                                "trackNumber" : 1,
                                "attributes" : {
                                  "ident" : "",
                                  "gain" : 1.0,
                                  "mixToMono" : false,
                                  "loudnessNormalization" : true,
                                  "sourceFileOffset" : 0
                                },
                                  "channelNumber" : "0,1",
                                "effects" : [

                                ],
                                "start" : 223792800000,
                                "duration" : 112943040000,
                                "mediaStart" : 225980160000,
                                "mediaDuration" : 112943040000,
                                "scalar" : 1,
                                "animationTracks" : {

                                }
                              }
,
                          "start" : 223792800000,
                          "duration" : 112943040000,
                          "mediaStart" : 225980160000,
                          "mediaDuration" : 112943040000,
                          "scalar" : 1,
                          "metadata" : {
                            "AutoAppliedSmartFocus" : "False",
                            "audiateLinkedSession" : "",
                            "clipSpeedAttribute" : { "type": "bool", "value" : false},
                            "colorAttribute" : { "type": "color", "value" : [ 0, 0, 0, 0]}
                          }
                        }
                    ],
                    "effects" : [
                        {
                          "effectName" : "CursorHilight",
                          "bypassed" : false,
                          "category" : "categoryCursorEffects",
                          "parameters" : {
                            "radius" : 50.0,
                            "color-red" : 1.0,
                            "color-green" : 1.0,
                            "color-blue" : 0.0,
                            "color-alpha" : 0.75,
                            "blur" : 0.1
                          },
                          "metadata" : {
                            "presetName" : "Cursor Highlight"
                          }
                        }
                    ],
                    "start" : 86600640000,
                    "duration" : 4986240000,
                    "mediaStart" : "9852486810432000/42757",
                    "mediaDuration" : "213322174464000/42757",
                    "scalar" : "1246560000/1247293861",
                    "metadata" : {
                      "AutoAppliedSmartFocus" : "False",
                      "audiateLinkedSession" : "",
                      "clipSpeedAttribute" : { "type": "bool", "value" : false},
                      "colorAttribute" : { "type": "color", "value" : [ 0, 0, 0, 0]},
                      "default-anchor0" : { "type": "double", "value" : 0.0},
                      "default-anchor1" : { "type": "double", "value" : 0.0},
                      "default-anchor2" : { "type": "double", "value" : 0.0},
                      "default-height" : { "type": "double", "value" : 1080.0},
                      "default-rotation0" : { "type": "double", "value" : 0.0},
                      "default-rotation1" : { "type": "double", "value" : 0.0},
                      "default-rotation2" : { "type": "double", "value" : 0.0},
                      "default-scale0" : { "type": "double", "value" : 0.5},
                      "default-scale1" : { "type": "double", "value" : 0.5},
                      "default-scale2" : { "type": "double", "value" : 1.0},
                      "default-shear0" : { "type": "double", "value" : 0.0},
                      "default-shear1" : { "type": "double", "value" : 0.0},
                      "default-shear2" : { "type": "double", "value" : 0.0},
                      "default-translation0" : { "type": "double", "value" : 0.0},
                      "default-translation1" : { "type": "double", "value" : 0.0},
                      "default-translation2" : { "type": "double", "value" : 0.0},
                      "default-width" : { "type": "double", "value" : 1920.0}
                    },
                    "animationTracks" : {

                    }
                  },
                  {
                    "id" : 101,
                    "_type" : "StitchedMedia",
                    "minMediaStart" : 0,
                    "attributes" : {
                      "ident" : "Rec 6-22-2025-2-25-34-PM",
                      "gain" : 1.0,
                      "mixToMono" : false,
                      "loudnessNormalization" : true,
                      "sourceFileOffset" : 0
                    },
                    "parameters" : {
                      "scale0" : 0.5,
                      "scale1" : 0.5,
                      "geometryCrop0" : 0.0,
                      "geometryCrop1" : 0.0,
                      "geometryCrop2" : 0.0,
                      "geometryCrop3" : 0.0,
                      "volume" : 1.0,
                      "cursorOpacity" : 1.0,
                      "cursorTrackLevel" : 0.0,
                      "cursorScale" : 2.25,
                      "smoothCursorAcrossEditDuration" : 235200000
                    },
                    "medias" : [
                        {
                          "id" : 102,
                          "_type" : "UnifiedMedia",
                          "video" : 
                              {
                                "id" : 103,
                                "_type" : "ScreenVMFile",
                                "src" : 1,
                                "trackNumber" : 0,
                                "attributes" : {
                                  "ident" : "Rec 6-22-2025-2-25-34-PM"
                                },
                                "parameters" : {
                                  "geometryCrop0" : {
                                    "type" : "double",
                                    "defaultValue" : 0.0,
                                    "interp" : "eioe"
                                  },
                                  "geometryCrop1" : {
                                    "type" : "double",
                                    "defaultValue" : 0.0,
                                    "interp" : "eioe"
                                  },
                                  "geometryCrop2" : {
                                    "type" : "double",
                                    "defaultValue" : 0.0,
                                    "interp" : "eioe"
                                  },
                                  "geometryCrop3" : {
                                    "type" : "double",
                                    "defaultValue" : 0.0,
                                    "interp" : "eioe"
                                  },
                                  "cursorScale" : {
                                    "type" : "double",
                                    "defaultValue" : 0.0,
                                    "interp" : "linr"
                                  },
                                  "cursorOpacity" : {
                                    "type" : "double",
                                    "defaultValue" : 0.0,
                                    "interp" : "linr"
                                  },
                                  "cursorTrackLevel" : {
                                    "type" : "double",
                                    "defaultValue" : 0.0,
                                    "interp" : "linr"
                                  },
                                  "smoothCursorAcrossEditDuration" : 235200000
                                },
                                "effects" : [

                                ],
                                "start" : 0,
                                "duration" : 223792800000,
                                "mediaStart" : 0,
                                "mediaDuration" : 223792800000,
                                "scalar" : 1,
                                "animationTracks" : {

                                }
                              },
                          "audio" : 
                              {
                                "id" : 104,
                                "_type" : "AMFile",
                                "src" : 1,
                                "trackNumber" : 1,
                                "attributes" : {
                                  "ident" : "",
                                  "gain" : 1.0,
                                  "mixToMono" : false,
                                  "loudnessNormalization" : true,
                                  "sourceFileOffset" : 0
                                },
                                  "channelNumber" : "0,1",
                                "effects" : [

                                ],
                                "start" : 0,
                                "duration" : 223792800000,
                                "mediaStart" : 0,
                                "mediaDuration" : 223792800000,
                                "scalar" : 1,
                                "animationTracks" : {

                                }
                              }
,
                          "start" : 0,
                          "duration" : 223792800000,
                          "mediaStart" : 0,
                          "mediaDuration" : 223792800000,
                          "scalar" : 1,
                          "metadata" : {
                            "AutoAppliedSmartFocus" : "False",
                            "audiateLinkedSession" : "",
                            "clipSpeedAttribute" : { "type": "bool", "value" : false},
                            "colorAttribute" : { "type": "color", "value" : [ 0, 0, 0, 0]}
                          }
                        },
                        {
                          "id" : 105,
                          "_type" : "UnifiedMedia",
                          "video" : 
                              {
                                "id" : 106,
                                "_type" : "ScreenVMFile",
                                "src" : 1,
                                "trackNumber" : 0,
                                "attributes" : {
                                  "ident" : "Rec 6-22-2025-2-25-34-PM"
                                },
                                "parameters" : {
                                  "geometryCrop0" : {
                                    "type" : "double",
                                    "defaultValue" : 0.0,
                                    "interp" : "eioe"
                                  },
                                  "geometryCrop1" : {
                                    "type" : "double",
                                    "defaultValue" : 0.0,
                                    "interp" : "eioe"
                                  },
                                  "geometryCrop2" : {
                                    "type" : "double",
                                    "defaultValue" : 0.0,
                                    "interp" : "eioe"
                                  },
                                  "geometryCrop3" : {
                                    "type" : "double",
                                    "defaultValue" : 0.0,
                                    "interp" : "eioe"
                                  },
                                  "cursorScale" : {
                                    "type" : "double",
                                    "defaultValue" : 0.0,
                                    "interp" : "linr"
                                  },
                                  "cursorOpacity" : {
                                    "type" : "double",
                                    "defaultValue" : 0.0,
                                    "interp" : "linr"
                                  },
                                  "cursorTrackLevel" : {
                                    "type" : "double",
                                    "defaultValue" : 0.0,
                                    "interp" : "linr"
                                  },
                                  "smoothCursorAcrossEditDuration" : 235200000
                                },
                                "effects" : [

                                ],
                                "start" : 223792800000,
                                "duration" : 112943040000,
                                "mediaStart" : 225980160000,
                                "mediaDuration" : 112943040000,
                                "scalar" : 1,
                                "animationTracks" : {

                                }
                              },
                          "audio" : 
                              {
                                "id" : 107,
                                "_type" : "AMFile",
                                "src" : 1,
                                "trackNumber" : 1,
                                "attributes" : {
                                  "ident" : "",
                                  "gain" : 1.0,
                                  "mixToMono" : false,
                                  "loudnessNormalization" : true,
                                  "sourceFileOffset" : 0
                                },
                                  "channelNumber" : "0,1",
                                "effects" : [

                                ],
                                "start" : 223792800000,
                                "duration" : 112943040000,
                                "mediaStart" : 225980160000,
                                "mediaDuration" : 112943040000,
                                "scalar" : 1,
                                "animationTracks" : {

                                }
                              }
,
                          "start" : 223792800000,
                          "duration" : 112943040000,
                          "mediaStart" : 225980160000,
                          "mediaDuration" : 112943040000,
                          "scalar" : 1,
                          "metadata" : {
                            "AutoAppliedSmartFocus" : "False",
                            "audiateLinkedSession" : "",
                            "clipSpeedAttribute" : { "type": "bool", "value" : false},
                            "colorAttribute" : { "type": "color", "value" : [ 0, 0, 0, 0]}
                          }
                        }
                    ],
                    "effects" : [
                        {
                          "effectName" : "CursorHilight",
                          "bypassed" : false,
                          "category" : "categoryCursorEffects",
                          "parameters" : {
                            "radius" : 50.0,
                            "color-red" : 1.0,
                            "color-green" : 1.0,
                            "color-blue" : 0.0,
                            "color-alpha" : 0.75,
                            "blur" : 0.1
                          },
                          "metadata" : {
                            "presetName" : "Cursor Highlight"
                          }
                        }
                    ],
                    "start" : 91586880000,
                    "duration" : 1528800000,
                    "mediaStart" : "927697240512000/3887",
                    "mediaDuration" : "152947974144000/42757",
                    "scalar" : "764400000/1788572329",
                    "metadata" : {
                      "AutoAppliedSmartFocus" : "False",
                      "audiateLinkedSession" : "",
                      "clipSpeedAttribute" : { "type": "bool", "value" : true},
                      "colorAttribute" : { "type": "color", "value" : [ 0, 0, 0, 0]},
                      "default-anchor0" : { "type": "double", "value" : 0.0},
                      "default-anchor1" : { "type": "double", "value" : 0.0},
                      "default-anchor2" : { "type": "double", "value" : 0.0},
                      "default-height" : { "type": "double", "value" : 1080.0},
                      "default-rotation0" : { "type": "double", "value" : 0.0},
                      "default-rotation1" : { "type": "double", "value" : 0.0},
                      "default-rotation2" : { "type": "double", "value" : 0.0},
                      "default-scale0" : { "type": "double", "value" : 0.5},
                      "default-scale1" : { "type": "double", "value" : 0.5},
                      "default-scale2" : { "type": "double", "value" : 1.0},
                      "default-shear0" : { "type": "double", "value" : 0.0},
                      "default-shear1" : { "type": "double", "value" : 0.0},
                      "default-shear2" : { "type": "double", "value" : 0.0},
                      "default-translation0" : { "type": "double", "value" : 0.0},
                      "default-translation1" : { "type": "double", "value" : 0.0},
                      "default-translation2" : { "type": "double", "value" : 0.0},
                      "default-width" : { "type": "double", "value" : 1920.0}
                    },
                    "animationTracks" : {

                    }
                  },
                  {
                    "id" : 108,
                    "_type" : "StitchedMedia",
                    "minMediaStart" : 0,
                    "attributes" : {
                      "ident" : "Rec 6-22-2025-2-25-34-PM",
                      "gain" : 1.0,
                      "mixToMono" : false,
                      "loudnessNormalization" : true,
                      "sourceFileOffset" : 0
                    },
                    "parameters" : {
                      "scale0" : 0.5,
                      "scale1" : 0.5,
                      "geometryCrop0" : 0.0,
                      "geometryCrop1" : 0.0,
                      "geometryCrop2" : 0.0,
                      "geometryCrop3" : 0.0,
                      "volume" : 1.0,
                      "cursorOpacity" : 1.0,
                      "cursorTrackLevel" : 0.0,
                      "cursorScale" : 2.25,
                      "smoothCursorAcrossEditDuration" : 235200000
                    },
                    "medias" : [
                        {
                          "id" : 109,
                          "_type" : "UnifiedMedia",
                          "video" : 
                              {
                                "id" : 110,
                                "_type" : "ScreenVMFile",
                                "src" : 1,
                                "trackNumber" : 0,
                                "attributes" : {
                                  "ident" : "Rec 6-22-2025-2-25-34-PM"
                                },
                                "parameters" : {
                                  "geometryCrop0" : {
                                    "type" : "double",
                                    "defaultValue" : 0.0,
                                    "interp" : "eioe"
                                  },
                                  "geometryCrop1" : {
                                    "type" : "double",
                                    "defaultValue" : 0.0,
                                    "interp" : "eioe"
                                  },
                                  "geometryCrop2" : {
                                    "type" : "double",
                                    "defaultValue" : 0.0,
                                    "interp" : "eioe"
                                  },
                                  "geometryCrop3" : {
                                    "type" : "double",
                                    "defaultValue" : 0.0,
                                    "interp" : "eioe"
                                  },
                                  "cursorScale" : {
                                    "type" : "double",
                                    "defaultValue" : 0.0,
                                    "interp" : "linr"
                                  },
                                  "cursorOpacity" : {
                                    "type" : "double",
                                    "defaultValue" : 0.0,
                                    "interp" : "linr"
                                  },
                                  "cursorTrackLevel" : {
                                    "type" : "double",
                                    "defaultValue" : 0.0,
                                    "interp" : "linr"
                                  },
                                  "smoothCursorAcrossEditDuration" : 235200000
                                },
                                "effects" : [

                                ],
                                "start" : 0,
                                "duration" : 223792800000,
                                "mediaStart" : 0,
                                "mediaDuration" : 223792800000,
                                "scalar" : 1,
                                "animationTracks" : {

                                }
                              },
                          "audio" : 
                              {
                                "id" : 111,
                                "_type" : "AMFile",
                                "src" : 1,
                                "trackNumber" : 1,
                                "attributes" : {
                                  "ident" : "",
                                  "gain" : 1.0,
                                  "mixToMono" : false,
                                  "loudnessNormalization" : true,
                                  "sourceFileOffset" : 0
                                },
                                  "channelNumber" : "0,1",
                                "effects" : [

                                ],
                                "start" : 0,
                                "duration" : 223792800000,
                                "mediaStart" : 0,
                                "mediaDuration" : 223792800000,
                                "scalar" : 1,
                                "animationTracks" : {

                                }
                              }
,
                          "start" : 0,
                          "duration" : 223792800000,
                          "mediaStart" : 0,
                          "mediaDuration" : 223792800000,
                          "scalar" : 1,
                          "metadata" : {
                            "AutoAppliedSmartFocus" : "False",
                            "audiateLinkedSession" : "",
                            "clipSpeedAttribute" : { "type": "bool", "value" : false},
                            "colorAttribute" : { "type": "color", "value" : [ 0, 0, 0, 0]}
                          }
                        },
                        {
                          "id" : 112,
                          "_type" : "UnifiedMedia",
                          "video" : 
                              {
                                "id" : 113,
                                "_type" : "ScreenVMFile",
                                "src" : 1,
                                "trackNumber" : 0,
                                "attributes" : {
                                  "ident" : "Rec 6-22-2025-2-25-34-PM"
                                },
                                "parameters" : {
                                  "geometryCrop0" : {
                                    "type" : "double",
                                    "defaultValue" : 0.0,
                                    "interp" : "eioe"
                                  },
                                  "geometryCrop1" : {
                                    "type" : "double",
                                    "defaultValue" : 0.0,
                                    "interp" : "eioe"
                                  },
                                  "geometryCrop2" : {
                                    "type" : "double",
                                    "defaultValue" : 0.0,
                                    "interp" : "eioe"
                                  },
                                  "geometryCrop3" : {
                                    "type" : "double",
                                    "defaultValue" : 0.0,
                                    "interp" : "eioe"
                                  },
                                  "cursorScale" : {
                                    "type" : "double",
                                    "defaultValue" : 0.0,
                                    "interp" : "linr"
                                  },
                                  "cursorOpacity" : {
                                    "type" : "double",
                                    "defaultValue" : 0.0,
                                    "interp" : "linr"
                                  },
                                  "cursorTrackLevel" : {
                                    "type" : "double",
                                    "defaultValue" : 0.0,
                                    "interp" : "linr"
                                  },
                                  "smoothCursorAcrossEditDuration" : 235200000
                                },
                                "effects" : [

                                ],
                                "start" : 223792800000,
                                "duration" : 112943040000,
                                "mediaStart" : 225980160000,
                                "mediaDuration" : 112943040000,
                                "scalar" : 1,
                                "animationTracks" : {

                                }
                              },
                          "audio" : 
                              {
                                "id" : 114,
                                "_type" : "AMFile",
                                "src" : 1,
                                "trackNumber" : 1,
                                "attributes" : {
                                  "ident" : "",
                                  "gain" : 1.0,
                                  "mixToMono" : false,
                                  "loudnessNormalization" : true,
                                  "sourceFileOffset" : 0
                                },
                                  "channelNumber" : "0,1",
                                "effects" : [

                                ],
                                "start" : 223792800000,
                                "duration" : 112943040000,
                                "mediaStart" : 225980160000,
                                "mediaDuration" : 112943040000,
                                "scalar" : 1,
                                "animationTracks" : {

                                }
                              }
,
                          "start" : 223792800000,
                          "duration" : 112943040000,
                          "mediaStart" : 225980160000,
                          "mediaDuration" : 112943040000,
                          "scalar" : 1,
                          "metadata" : {
                            "AutoAppliedSmartFocus" : "False",
                            "audiateLinkedSession" : "",
                            "clipSpeedAttribute" : { "type": "bool", "value" : false},
                            "colorAttribute" : { "type": "color", "value" : [ 0, 0, 0, 0]}
                          }
                        }
                    ],
                    "effects" : [
                        {
                          "effectName" : "CursorHilight",
                          "bypassed" : false,
                          "category" : "categoryCursorEffects",
                          "parameters" : {
                            "radius" : 50.0,
                            "color-red" : 1.0,
                            "color-green" : 1.0,
                            "color-blue" : 0.0,
                            "color-alpha" : 0.75,
                            "blur" : 0.1
                          },
                          "metadata" : {
                            "presetName" : "Cursor Highlight"
                          }
                        }
                    ],
                    "start" : 93115680000,
                    "duration" : 1411200000,
                    "mediaStart" : "10357617619776000/42757",
                    "mediaDuration" : "60374200320000/42757",
                    "scalar" : "705600000/706015393",
                    "metadata" : {
                      "AutoAppliedSmartFocus" : "False",
                      "audiateLinkedSession" : "",
                      "clipSpeedAttribute" : { "type": "bool", "value" : false},
                      "colorAttribute" : { "type": "color", "value" : [ 0, 0, 0, 0]},
                      "default-anchor0" : { "type": "double", "value" : 0.0},
                      "default-anchor1" : { "type": "double", "value" : 0.0},
                      "default-anchor2" : { "type": "double", "value" : 0.0},
                      "default-height" : { "type": "double", "value" : 1080.0},
                      "default-rotation0" : { "type": "double", "value" : 0.0},
                      "default-rotation1" : { "type": "double", "value" : 0.0},
                      "default-rotation2" : { "type": "double", "value" : 0.0},
                      "default-scale0" : { "type": "double", "value" : 0.5},
                      "default-scale1" : { "type": "double", "value" : 0.5},
                      "default-scale2" : { "type": "double", "value" : 1.0},
                      "default-shear0" : { "type": "double", "value" : 0.0},
                      "default-shear1" : { "type": "double", "value" : 0.0},
                      "default-shear2" : { "type": "double", "value" : 0.0},
                      "default-translation0" : { "type": "double", "value" : 0.0},
                      "default-translation1" : { "type": "double", "value" : 0.0},
                      "default-translation2" : { "type": "double", "value" : 0.0},
                      "default-width" : { "type": "double", "value" : 1920.0}
                    },
                    "animationTracks" : {

                    }
                  },
                  {
                    "id" : 115,
                    "_type" : "StitchedMedia",
                    "minMediaStart" : 0,
                    "attributes" : {
                      "ident" : "Rec 6-22-2025-2-25-34-PM",
                      "gain" : 1.0,
                      "mixToMono" : false,
                      "loudnessNormalization" : true,
                      "sourceFileOffset" : 0
                    },
                    "parameters" : {
                      "scale0" : 0.5,
                      "scale1" : 0.5,
                      "geometryCrop0" : 0.0,
                      "geometryCrop1" : 0.0,
                      "geometryCrop2" : 0.0,
                      "geometryCrop3" : 0.0,
                      "volume" : 1.0,
                      "cursorOpacity" : 1.0,
                      "cursorTrackLevel" : 0.0,
                      "cursorScale" : 2.25,
                      "smoothCursorAcrossEditDuration" : 235200000
                    },
                    "medias" : [
                        {
                          "id" : 116,
                          "_type" : "UnifiedMedia",
                          "video" : 
                              {
                                "id" : 117,
                                "_type" : "ScreenVMFile",
                                "src" : 1,
                                "trackNumber" : 0,
                                "attributes" : {
                                  "ident" : "Rec 6-22-2025-2-25-34-PM"
                                },
                                "parameters" : {
                                  "geometryCrop0" : {
                                    "type" : "double",
                                    "defaultValue" : 0.0,
                                    "interp" : "eioe"
                                  },
                                  "geometryCrop1" : {
                                    "type" : "double",
                                    "defaultValue" : 0.0,
                                    "interp" : "eioe"
                                  },
                                  "geometryCrop2" : {
                                    "type" : "double",
                                    "defaultValue" : 0.0,
                                    "interp" : "eioe"
                                  },
                                  "geometryCrop3" : {
                                    "type" : "double",
                                    "defaultValue" : 0.0,
                                    "interp" : "eioe"
                                  },
                                  "cursorScale" : {
                                    "type" : "double",
                                    "defaultValue" : 0.0,
                                    "interp" : "linr"
                                  },
                                  "cursorOpacity" : {
                                    "type" : "double",
                                    "defaultValue" : 0.0,
                                    "interp" : "linr"
                                  },
                                  "cursorTrackLevel" : {
                                    "type" : "double",
                                    "defaultValue" : 0.0,
                                    "interp" : "linr"
                                  },
                                  "smoothCursorAcrossEditDuration" : 235200000
                                },
                                "effects" : [

                                ],
                                "start" : 0,
                                "duration" : 223792800000,
                                "mediaStart" : 0,
                                "mediaDuration" : 223792800000,
                                "scalar" : 1,
                                "animationTracks" : {

                                }
                              },
                          "audio" : 
                              {
                                "id" : 118,
                                "_type" : "AMFile",
                                "src" : 1,
                                "trackNumber" : 1,
                                "attributes" : {
                                  "ident" : "",
                                  "gain" : 1.0,
                                  "mixToMono" : false,
                                  "loudnessNormalization" : true,
                                  "sourceFileOffset" : 0
                                },
                                  "channelNumber" : "0,1",
                                "effects" : [

                                ],
                                "start" : 0,
                                "duration" : 223792800000,
                                "mediaStart" : 0,
                                "mediaDuration" : 223792800000,
                                "scalar" : 1,
                                "animationTracks" : {

                                }
                              }
,
                          "start" : 0,
                          "duration" : 223792800000,
                          "mediaStart" : 0,
                          "mediaDuration" : 223792800000,
                          "scalar" : 1,
                          "metadata" : {
                            "AutoAppliedSmartFocus" : "False",
                            "audiateLinkedSession" : "",
                            "clipSpeedAttribute" : { "type": "bool", "value" : false},
                            "colorAttribute" : { "type": "color", "value" : [ 0, 0, 0, 0]}
                          }
                        },
                        {
                          "id" : 119,
                          "_type" : "UnifiedMedia",
                          "video" : 
                              {
                                "id" : 120,
                                "_type" : "ScreenVMFile",
                                "src" : 1,
                                "trackNumber" : 0,
                                "attributes" : {
                                  "ident" : "Rec 6-22-2025-2-25-34-PM"
                                },
                                "parameters" : {
                                  "geometryCrop0" : {
                                    "type" : "double",
                                    "defaultValue" : 0.0,
                                    "interp" : "eioe"
                                  },
                                  "geometryCrop1" : {
                                    "type" : "double",
                                    "defaultValue" : 0.0,
                                    "interp" : "eioe"
                                  },
                                  "geometryCrop2" : {
                                    "type" : "double",
                                    "defaultValue" : 0.0,
                                    "interp" : "eioe"
                                  },
                                  "geometryCrop3" : {
                                    "type" : "double",
                                    "defaultValue" : 0.0,
                                    "interp" : "eioe"
                                  },
                                  "cursorScale" : {
                                    "type" : "double",
                                    "defaultValue" : 0.0,
                                    "interp" : "linr"
                                  },
                                  "cursorOpacity" : {
                                    "type" : "double",
                                    "defaultValue" : 0.0,
                                    "interp" : "linr"
                                  },
                                  "cursorTrackLevel" : {
                                    "type" : "double",
                                    "defaultValue" : 0.0,
                                    "interp" : "linr"
                                  },
                                  "smoothCursorAcrossEditDuration" : 235200000
                                },
                                "effects" : [

                                ],
                                "start" : 223792800000,
                                "duration" : 112943040000,
                                "mediaStart" : 225980160000,
                                "mediaDuration" : 112943040000,
                                "scalar" : 1,
                                "animationTracks" : {

                                }
                              },
                          "audio" : 
                              {
                                "id" : 121,
                                "_type" : "AMFile",
                                "src" : 1,
                                "trackNumber" : 1,
                                "attributes" : {
                                  "ident" : "",
                                  "gain" : 1.0,
                                  "mixToMono" : false,
                                  "loudnessNormalization" : true,
                                  "sourceFileOffset" : 0
                                },
                                  "channelNumber" : "0,1",
                                "effects" : [

                                ],
                                "start" : 223792800000,
                                "duration" : 112943040000,
                                "mediaStart" : 225980160000,
                                "mediaDuration" : 112943040000,
                                "scalar" : 1,
                                "animationTracks" : {

                                }
                              }
,
                          "start" : 223792800000,
                          "duration" : 112943040000,
                          "mediaStart" : 225980160000,
                          "mediaDuration" : 112943040000,
                          "scalar" : 1,
                          "metadata" : {
                            "AutoAppliedSmartFocus" : "False",
                            "audiateLinkedSession" : "",
                            "clipSpeedAttribute" : { "type": "bool", "value" : false},
                            "colorAttribute" : { "type": "color", "value" : [ 0, 0, 0, 0]}
                          }
                        }
                    ],
                    "effects" : [
                        {
                          "effectName" : "CursorHilight",
                          "bypassed" : false,
                          "category" : "categoryCursorEffects",
                          "parameters" : {
                            "radius" : 50.0,
                            "color-red" : 1.0,
                            "color-green" : 1.0,
                            "color-blue" : 0.0,
                            "color-alpha" : 0.75,
                            "blur" : 0.1
                          },
                          "metadata" : {
                            "presetName" : "Cursor Highlight"
                          }
                        }
                    ],
                    "start" : 94526880000,
                    "duration" : 18416160000,
                    "mediaStart" : "10457235050304000/42757",
                    "mediaDuration" : "787883314176000/42757",
                    "scalar" : "9208080000/9213500879",
                    "metadata" : {
                      "AutoAppliedSmartFocus" : "False",
                      "audiateLinkedSession" : "",
                      "clipSpeedAttribute" : { "type": "bool", "value" : false},
                      "colorAttribute" : { "type": "color", "value" : [ 0, 0, 0, 0]},
                      "default-anchor0" : { "type": "double", "value" : 0.0},
                      "default-anchor1" : { "type": "double", "value" : 0.0},
                      "default-anchor2" : { "type": "double", "value" : 0.0},
                      "default-height" : { "type": "double", "value" : 1080.0},
                      "default-rotation0" : { "type": "double", "value" : 0.0},
                      "default-rotation1" : { "type": "double", "value" : 0.0},
                      "default-rotation2" : { "type": "double", "value" : 0.0},
                      "default-scale0" : { "type": "double", "value" : 0.5},
                      "default-scale1" : { "type": "double", "value" : 0.5},
                      "default-scale2" : { "type": "double", "value" : 1.0},
                      "default-shear0" : { "type": "double", "value" : 0.0},
                      "default-shear1" : { "type": "double", "value" : 0.0},
                      "default-shear2" : { "type": "double", "value" : 0.0},
                      "default-translation0" : { "type": "double", "value" : 0.0},
                      "default-translation1" : { "type": "double", "value" : 0.0},
                      "default-translation2" : { "type": "double", "value" : 0.0},
                      "default-width" : { "type": "double", "value" : 1920.0}
                    },
                    "animationTracks" : {

                    }
                  },
                  {
                    "id" : 122,
                    "_type" : "StitchedMedia",
                    "minMediaStart" : 0,
                    "attributes" : {
                      "ident" : "Rec 6-22-2025-2-25-34-PM",
                      "gain" : 1.0,
                      "mixToMono" : false,
                      "loudnessNormalization" : true,
                      "sourceFileOffset" : 0
                    },
                    "parameters" : {
                      "scale0" : 0.5,
                      "scale1" : 0.5,
                      "geometryCrop0" : 0.0,
                      "geometryCrop1" : 0.0,
                      "geometryCrop2" : 0.0,
                      "geometryCrop3" : 0.0,
                      "volume" : 1.0,
                      "cursorOpacity" : 1.0,
                      "cursorTrackLevel" : 0.0,
                      "cursorScale" : 2.25,
                      "smoothCursorAcrossEditDuration" : 235200000
                    },
                    "medias" : [
                        {
                          "id" : 123,
                          "_type" : "UnifiedMedia",
                          "video" : 
                              {
                                "id" : 124,
                                "_type" : "ScreenVMFile",
                                "src" : 1,
                                "trackNumber" : 0,
                                "attributes" : {
                                  "ident" : "Rec 6-22-2025-2-25-34-PM"
                                },
                                "parameters" : {
                                  "geometryCrop0" : {
                                    "type" : "double",
                                    "defaultValue" : 0.0,
                                    "interp" : "eioe"
                                  },
                                  "geometryCrop1" : {
                                    "type" : "double",
                                    "defaultValue" : 0.0,
                                    "interp" : "eioe"
                                  },
                                  "geometryCrop2" : {
                                    "type" : "double",
                                    "defaultValue" : 0.0,
                                    "interp" : "eioe"
                                  },
                                  "geometryCrop3" : {
                                    "type" : "double",
                                    "defaultValue" : 0.0,
                                    "interp" : "eioe"
                                  },
                                  "cursorScale" : {
                                    "type" : "double",
                                    "defaultValue" : 0.0,
                                    "interp" : "linr"
                                  },
                                  "cursorOpacity" : {
                                    "type" : "double",
                                    "defaultValue" : 0.0,
                                    "interp" : "linr"
                                  },
                                  "cursorTrackLevel" : {
                                    "type" : "double",
                                    "defaultValue" : 0.0,
                                    "interp" : "linr"
                                  },
                                  "smoothCursorAcrossEditDuration" : 235200000
                                },
                                "effects" : [

                                ],
                                "start" : 0,
                                "duration" : 223792800000,
                                "mediaStart" : 0,
                                "mediaDuration" : 223792800000,
                                "scalar" : 1,
                                "animationTracks" : {

                                }
                              },
                          "audio" : 
                              {
                                "id" : 125,
                                "_type" : "AMFile",
                                "src" : 1,
                                "trackNumber" : 1,
                                "attributes" : {
                                  "ident" : "",
                                  "gain" : 1.0,
                                  "mixToMono" : false,
                                  "loudnessNormalization" : true,
                                  "sourceFileOffset" : 0
                                },
                                  "channelNumber" : "0,1",
                                "effects" : [

                                ],
                                "start" : 0,
                                "duration" : 223792800000,
                                "mediaStart" : 0,
                                "mediaDuration" : 223792800000,
                                "scalar" : 1,
                                "animationTracks" : {

                                }
                              }
,
                          "start" : 0,
                          "duration" : 223792800000,
                          "mediaStart" : 0,
                          "mediaDuration" : 223792800000,
                          "scalar" : 1,
                          "metadata" : {
                            "AutoAppliedSmartFocus" : "False",
                            "audiateLinkedSession" : "",
                            "clipSpeedAttribute" : { "type": "bool", "value" : false},
                            "colorAttribute" : { "type": "color", "value" : [ 0, 0, 0, 0]}
                          }
                        },
                        {
                          "id" : 126,
                          "_type" : "UnifiedMedia",
                          "video" : 
                              {
                                "id" : 127,
                                "_type" : "ScreenVMFile",
                                "src" : 1,
                                "trackNumber" : 0,
                                "attributes" : {
                                  "ident" : "Rec 6-22-2025-2-25-34-PM"
                                },
                                "parameters" : {
                                  "geometryCrop0" : {
                                    "type" : "double",
                                    "defaultValue" : 0.0,
                                    "interp" : "eioe"
                                  },
                                  "geometryCrop1" : {
                                    "type" : "double",
                                    "defaultValue" : 0.0,
                                    "interp" : "eioe"
                                  },
                                  "geometryCrop2" : {
                                    "type" : "double",
                                    "defaultValue" : 0.0,
                                    "interp" : "eioe"
                                  },
                                  "geometryCrop3" : {
                                    "type" : "double",
                                    "defaultValue" : 0.0,
                                    "interp" : "eioe"
                                  },
                                  "cursorScale" : {
                                    "type" : "double",
                                    "defaultValue" : 0.0,
                                    "interp" : "linr"
                                  },
                                  "cursorOpacity" : {
                                    "type" : "double",
                                    "defaultValue" : 0.0,
                                    "interp" : "linr"
                                  },
                                  "cursorTrackLevel" : {
                                    "type" : "double",
                                    "defaultValue" : 0.0,
                                    "interp" : "linr"
                                  },
                                  "smoothCursorAcrossEditDuration" : 235200000
                                },
                                "effects" : [

                                ],
                                "start" : 223792800000,
                                "duration" : 112943040000,
                                "mediaStart" : 225980160000,
                                "mediaDuration" : 112943040000,
                                "scalar" : 1,
                                "animationTracks" : {

                                }
                              },
                          "audio" : 
                              {
                                "id" : 128,
                                "_type" : "AMFile",
                                "src" : 1,
                                "trackNumber" : 1,
                                "attributes" : {
                                  "ident" : "",
                                  "gain" : 1.0,
                                  "mixToMono" : false,
                                  "loudnessNormalization" : true,
                                  "sourceFileOffset" : 0
                                },
                                  "channelNumber" : "0,1",
                                "effects" : [

                                ],
                                "start" : 223792800000,
                                "duration" : 112943040000,
                                "mediaStart" : 225980160000,
                                "mediaDuration" : 112943040000,
                                "scalar" : 1,
                                "animationTracks" : {

                                }
                              }
,
                          "start" : 223792800000,
                          "duration" : 112943040000,
                          "mediaStart" : 225980160000,
                          "mediaDuration" : 112943040000,
                          "scalar" : 1,
                          "metadata" : {
                            "AutoAppliedSmartFocus" : "False",
                            "audiateLinkedSession" : "",
                            "clipSpeedAttribute" : { "type": "bool", "value" : false},
                            "colorAttribute" : { "type": "color", "value" : [ 0, 0, 0, 0]}
                          }
                        }
                    ],
                    "effects" : [

                    ],
                    "start" : 112943040000,
                    "duration" : 1105440000,
                    "mediaStart" : 273843360000,
                    "mediaDuration" : 7126560000,
                    "scalar" : "47/303",
                    "metadata" : {
                      "AutoAppliedSmartFocus" : "False",
                      "audiateLinkedSession" : "",
                      "clipSpeedAttribute" : { "type": "bool", "value" : true},
                      "colorAttribute" : { "type": "color", "value" : [ 0, 0, 0, 0]}
                    },
                    "animationTracks" : {

                    }
                  },
                  {
                    "id" : 129,
                    "_type" : "StitchedMedia",
                    "minMediaStart" : 0,
                    "attributes" : {
                      "ident" : "Rec 6-22-2025-2-25-34-PM",
                      "gain" : 1.0,
                      "mixToMono" : false,
                      "loudnessNormalization" : true,
                      "sourceFileOffset" : 0
                    },
                    "parameters" : {
                      "scale0" : 0.5,
                      "scale1" : 0.5,
                      "geometryCrop0" : 0.0,
                      "geometryCrop1" : 0.0,
                      "geometryCrop2" : 0.0,
                      "geometryCrop3" : 0.0,
                      "volume" : 1.0,
                      "cursorOpacity" : 1.0,
                      "cursorTrackLevel" : 0.0,
                      "cursorScale" : 2.25,
                      "smoothCursorAcrossEditDuration" : 235200000
                    },
                    "medias" : [
                        {
                          "id" : 130,
                          "_type" : "UnifiedMedia",
                          "video" : 
                              {
                                "id" : 131,
                                "_type" : "ScreenVMFile",
                                "src" : 1,
                                "trackNumber" : 0,
                                "attributes" : {
                                  "ident" : "Rec 6-22-2025-2-25-34-PM"
                                },
                                "parameters" : {
                                  "geometryCrop0" : {
                                    "type" : "double",
                                    "defaultValue" : 0.0,
                                    "interp" : "eioe"
                                  },
                                  "geometryCrop1" : {
                                    "type" : "double",
                                    "defaultValue" : 0.0,
                                    "interp" : "eioe"
                                  },
                                  "geometryCrop2" : {
                                    "type" : "double",
                                    "defaultValue" : 0.0,
                                    "interp" : "eioe"
                                  },
                                  "geometryCrop3" : {
                                    "type" : "double",
                                    "defaultValue" : 0.0,
                                    "interp" : "eioe"
                                  },
                                  "cursorScale" : {
                                    "type" : "double",
                                    "defaultValue" : 0.0,
                                    "interp" : "linr"
                                  },
                                  "cursorOpacity" : {
                                    "type" : "double",
                                    "defaultValue" : 0.0,
                                    "interp" : "linr"
                                  },
                                  "cursorTrackLevel" : {
                                    "type" : "double",
                                    "defaultValue" : 0.0,
                                    "interp" : "linr"
                                  },
                                  "smoothCursorAcrossEditDuration" : 235200000
                                },
                                "effects" : [

                                ],
                                "start" : 0,
                                "duration" : 223792800000,
                                "mediaStart" : 0,
                                "mediaDuration" : 223792800000,
                                "scalar" : 1,
                                "animationTracks" : {

                                }
                              },
                          "audio" : 
                              {
                                "id" : 132,
                                "_type" : "AMFile",
                                "src" : 1,
                                "trackNumber" : 1,
                                "attributes" : {
                                  "ident" : "",
                                  "gain" : 1.0,
                                  "mixToMono" : false,
                                  "loudnessNormalization" : true,
                                  "sourceFileOffset" : 0
                                },
                                  "channelNumber" : "0,1",
                                "effects" : [

                                ],
                                "start" : 0,
                                "duration" : 223792800000,
                                "mediaStart" : 0,
                                "mediaDuration" : 223792800000,
                                "scalar" : 1,
                                "animationTracks" : {

                                }
                              }
,
                          "start" : 0,
                          "duration" : 223792800000,
                          "mediaStart" : 0,
                          "mediaDuration" : 223792800000,
                          "scalar" : 1,
                          "metadata" : {
                            "AutoAppliedSmartFocus" : "False",
                            "audiateLinkedSession" : "",
                            "clipSpeedAttribute" : { "type": "bool", "value" : false},
                            "colorAttribute" : { "type": "color", "value" : [ 0, 0, 0, 0]}
                          }
                        },
                        {
                          "id" : 133,
                          "_type" : "UnifiedMedia",
                          "video" : 
                              {
                                "id" : 134,
                                "_type" : "ScreenVMFile",
                                "src" : 1,
                                "trackNumber" : 0,
                                "attributes" : {
                                  "ident" : "Rec 6-22-2025-2-25-34-PM"
                                },
                                "parameters" : {
                                  "geometryCrop0" : {
                                    "type" : "double",
                                    "defaultValue" : 0.0,
                                    "interp" : "eioe"
                                  },
                                  "geometryCrop1" : {
                                    "type" : "double",
                                    "defaultValue" : 0.0,
                                    "interp" : "eioe"
                                  },
                                  "geometryCrop2" : {
                                    "type" : "double",
                                    "defaultValue" : 0.0,
                                    "interp" : "eioe"
                                  },
                                  "geometryCrop3" : {
                                    "type" : "double",
                                    "defaultValue" : 0.0,
                                    "interp" : "eioe"
                                  },
                                  "cursorScale" : {
                                    "type" : "double",
                                    "defaultValue" : 0.0,
                                    "interp" : "linr"
                                  },
                                  "cursorOpacity" : {
                                    "type" : "double",
                                    "defaultValue" : 0.0,
                                    "interp" : "linr"
                                  },
                                  "cursorTrackLevel" : {
                                    "type" : "double",
                                    "defaultValue" : 0.0,
                                    "interp" : "linr"
                                  },
                                  "smoothCursorAcrossEditDuration" : 235200000
                                },
                                "effects" : [

                                ],
                                "start" : 223792800000,
                                "duration" : 112943040000,
                                "mediaStart" : 225980160000,
                                "mediaDuration" : 112943040000,
                                "scalar" : 1,
                                "animationTracks" : {

                                }
                              },
                          "audio" : 
                              {
                                "id" : 135,
                                "_type" : "AMFile",
                                "src" : 1,
                                "trackNumber" : 1,
                                "attributes" : {
                                  "ident" : "",
                                  "gain" : 1.0,
                                  "mixToMono" : false,
                                  "loudnessNormalization" : true,
                                  "sourceFileOffset" : 0
                                },
                                  "channelNumber" : "0,1",
                                "effects" : [

                                ],
                                "start" : 223792800000,
                                "duration" : 112943040000,
                                "mediaStart" : 225980160000,
                                "mediaDuration" : 112943040000,
                                "scalar" : 1,
                                "animationTracks" : {

                                }
                              }
,
                          "start" : 223792800000,
                          "duration" : 112943040000,
                          "mediaStart" : 225980160000,
                          "mediaDuration" : 112943040000,
                          "scalar" : 1,
                          "metadata" : {
                            "AutoAppliedSmartFocus" : "False",
                            "audiateLinkedSession" : "",
                            "clipSpeedAttribute" : { "type": "bool", "value" : false},
                            "colorAttribute" : { "type": "color", "value" : [ 0, 0, 0, 0]}
                          }
                        }
                    ],
                    "effects" : [

                    ],
                    "start" : 114048480000,
                    "duration" : 564480000,
                    "mediaStart" : 280969920000,
                    "mediaDuration" : 2375520000,
                    "scalar" : "24/101",
                    "metadata" : {
                      "AutoAppliedSmartFocus" : "False",
                      "audiateLinkedSession" : "",
                      "clipSpeedAttribute" : { "type": "bool", "value" : true},
                      "colorAttribute" : { "type": "color", "value" : [ 0, 0, 0, 0]}
                    },
                    "animationTracks" : {

                    }
                  },
                  {
                    "id" : 136,
                    "_type" : "StitchedMedia",
                    "minMediaStart" : 0,
                    "attributes" : {
                      "ident" : "Rec 6-22-2025-2-25-34-PM",
                      "gain" : 1.0,
                      "mixToMono" : false,
                      "loudnessNormalization" : true,
                      "sourceFileOffset" : 0
                    },
                    "parameters" : {
                      "scale0" : 0.5,
                      "scale1" : 0.5,
                      "geometryCrop0" : 0.0,
                      "geometryCrop1" : 0.0,
                      "geometryCrop2" : 0.0,
                      "geometryCrop3" : 0.0,
                      "volume" : 1.0,
                      "toc" : {
                        "type" : "string",
                        "keyframes" : [
                          {
                            "endTime" : 287602560000,
                            "time" : 287602560000,
                            "value" : "Marker 14",
                            "duration" : 0,
                            "metadata" : {
                              "markerIdentifier" : "16957459-CA70-4880-9FEB-F98B5FD62E69"
                            }
                          },
                          {
                            "endTime" : 291295200000,
                            "time" : 291295200000,
                            "value" : "Marker 8",
                            "duration" : 0,
                            "metadata" : {
                              "markerIdentifier" : "2963758F-A86D-447A-B538-BD40D4FAFDBC"
                            }
                          }
                        ]
                      },
                      "cursorOpacity" : 1.0,
                      "cursorTrackLevel" : 0.0,
                      "cursorScale" : 2.25,
                      "smoothCursorAcrossEditDuration" : 235200000
                    },
                    "medias" : [
                        {
                          "id" : 137,
                          "_type" : "UnifiedMedia",
                          "video" : 
                              {
                                "id" : 138,
                                "_type" : "ScreenVMFile",
                                "src" : 1,
                                "trackNumber" : 0,
                                "attributes" : {
                                  "ident" : "Rec 6-22-2025-2-25-34-PM"
                                },
                                "parameters" : {
                                  "geometryCrop0" : {
                                    "type" : "double",
                                    "defaultValue" : 0.0,
                                    "interp" : "eioe"
                                  },
                                  "geometryCrop1" : {
                                    "type" : "double",
                                    "defaultValue" : 0.0,
                                    "interp" : "eioe"
                                  },
                                  "geometryCrop2" : {
                                    "type" : "double",
                                    "defaultValue" : 0.0,
                                    "interp" : "eioe"
                                  },
                                  "geometryCrop3" : {
                                    "type" : "double",
                                    "defaultValue" : 0.0,
                                    "interp" : "eioe"
                                  },
                                  "cursorScale" : {
                                    "type" : "double",
                                    "defaultValue" : 0.0,
                                    "interp" : "linr"
                                  },
                                  "cursorOpacity" : {
                                    "type" : "double",
                                    "defaultValue" : 0.0,
                                    "interp" : "linr"
                                  },
                                  "cursorTrackLevel" : {
                                    "type" : "double",
                                    "defaultValue" : 0.0,
                                    "interp" : "linr"
                                  },
                                  "smoothCursorAcrossEditDuration" : 235200000
                                },
                                "effects" : [

                                ],
                                "start" : 0,
                                "duration" : 223792800000,
                                "mediaStart" : 0,
                                "mediaDuration" : 223792800000,
                                "scalar" : 1,
                                "animationTracks" : {

                                }
                              },
                          "audio" : 
                              {
                                "id" : 139,
                                "_type" : "AMFile",
                                "src" : 1,
                                "trackNumber" : 1,
                                "attributes" : {
                                  "ident" : "",
                                  "gain" : 1.0,
                                  "mixToMono" : false,
                                  "loudnessNormalization" : true,
                                  "sourceFileOffset" : 0
                                },
                                  "channelNumber" : "0,1",
                                "effects" : [

                                ],
                                "start" : 0,
                                "duration" : 223792800000,
                                "mediaStart" : 0,
                                "mediaDuration" : 223792800000,
                                "scalar" : 1,
                                "animationTracks" : {

                                }
                              }
,
                          "start" : 0,
                          "duration" : 223792800000,
                          "mediaStart" : 0,
                          "mediaDuration" : 223792800000,
                          "scalar" : 1,
                          "metadata" : {
                            "AutoAppliedSmartFocus" : "False",
                            "audiateLinkedSession" : "",
                            "clipSpeedAttribute" : { "type": "bool", "value" : false},
                            "colorAttribute" : { "type": "color", "value" : [ 0, 0, 0, 0]}
                          }
                        },
                        {
                          "id" : 140,
                          "_type" : "UnifiedMedia",
                          "video" : 
                              {
                                "id" : 141,
                                "_type" : "ScreenVMFile",
                                "src" : 1,
                                "trackNumber" : 0,
                                "attributes" : {
                                  "ident" : "Rec 6-22-2025-2-25-34-PM"
                                },
                                "parameters" : {
                                  "geometryCrop0" : {
                                    "type" : "double",
                                    "defaultValue" : 0.0,
                                    "interp" : "eioe"
                                  },
                                  "geometryCrop1" : {
                                    "type" : "double",
                                    "defaultValue" : 0.0,
                                    "interp" : "eioe"
                                  },
                                  "geometryCrop2" : {
                                    "type" : "double",
                                    "defaultValue" : 0.0,
                                    "interp" : "eioe"
                                  },
                                  "geometryCrop3" : {
                                    "type" : "double",
                                    "defaultValue" : 0.0,
                                    "interp" : "eioe"
                                  },
                                  "cursorScale" : {
                                    "type" : "double",
                                    "defaultValue" : 0.0,
                                    "interp" : "linr"
                                  },
                                  "cursorOpacity" : {
                                    "type" : "double",
                                    "defaultValue" : 0.0,
                                    "interp" : "linr"
                                  },
                                  "cursorTrackLevel" : {
                                    "type" : "double",
                                    "defaultValue" : 0.0,
                                    "interp" : "linr"
                                  },
                                  "smoothCursorAcrossEditDuration" : 235200000
                                },
                                "effects" : [

                                ],
                                "start" : 223792800000,
                                "duration" : 112943040000,
                                "mediaStart" : 225980160000,
                                "mediaDuration" : 112943040000,
                                "scalar" : 1,
                                "animationTracks" : {

                                }
                              },
                          "audio" : 
                              {
                                "id" : 142,
                                "_type" : "AMFile",
                                "src" : 1,
                                "trackNumber" : 1,
                                "attributes" : {
                                  "ident" : "",
                                  "gain" : 1.0,
                                  "mixToMono" : false,
                                  "loudnessNormalization" : true,
                                  "sourceFileOffset" : 0
                                },
                                  "channelNumber" : "0,1",
                                "effects" : [

                                ],
                                "start" : 223792800000,
                                "duration" : 112943040000,
                                "mediaStart" : 225980160000,
                                "mediaDuration" : 112943040000,
                                "scalar" : 1,
                                "animationTracks" : {

                                }
                              }
,
                          "start" : 223792800000,
                          "duration" : 112943040000,
                          "mediaStart" : 225980160000,
                          "mediaDuration" : 112943040000,
                          "scalar" : 1,
                          "metadata" : {
                            "AutoAppliedSmartFocus" : "False",
                            "audiateLinkedSession" : "",
                            "clipSpeedAttribute" : { "type": "bool", "value" : false},
                            "colorAttribute" : { "type": "color", "value" : [ 0, 0, 0, 0]}
                          }
                        }
                    ],
                    "effects" : [
                        {
                          "effectName" : "CursorHilight",
                          "bypassed" : false,
                          "category" : "categoryCursorEffects",
                          "parameters" : {
                            "radius" : 50.0,
                            "color-red" : 1.0,
                            "color-green" : 1.0,
                            "color-blue" : 0.0,
                            "color-alpha" : 0.75,
                            "blur" : 0.1
                          },
                          "metadata" : {
                            "presetName" : "Cursor Highlight"
                          }
                        }
                    ],
                    "start" : 114612960000,
                    "duration" : 12324480000,
                    "mediaStart" : 283345440000,
                    "mediaDuration" : 12324480000,
                    "scalar" : 1,
                    "metadata" : {
                      "AutoAppliedSmartFocus" : "False",
                      "audiateLinkedSession" : "",
                      "clipSpeedAttribute" : { "type": "bool", "value" : false},
                      "colorAttribute" : { "type": "color", "value" : [ 0, 0, 0, 0]},
                      "default-anchor0" : { "type": "double", "value" : 0.0},
                      "default-anchor1" : { "type": "double", "value" : 0.0},
                      "default-anchor2" : { "type": "double", "value" : 0.0},
                      "default-height" : { "type": "double", "value" : 1080.0},
                      "default-rotation0" : { "type": "double", "value" : 0.0},
                      "default-rotation1" : { "type": "double", "value" : 0.0},
                      "default-rotation2" : { "type": "double", "value" : 0.0},
                      "default-scale0" : { "type": "double", "value" : 0.5},
                      "default-scale1" : { "type": "double", "value" : 0.5},
                      "default-scale2" : { "type": "double", "value" : 1.0},
                      "default-shear0" : { "type": "double", "value" : 0.0},
                      "default-shear1" : { "type": "double", "value" : 0.0},
                      "default-shear2" : { "type": "double", "value" : 0.0},
                      "default-translation0" : { "type": "double", "value" : 0.0},
                      "default-translation1" : { "type": "double", "value" : 0.0},
                      "default-translation2" : { "type": "double", "value" : 0.0},
                      "default-width" : { "type": "double", "value" : 1920.0}
                    },
                    "animationTracks" : {

                    }
                  },
                  {
                    "id" : 143,
                    "_type" : "StitchedMedia",
                    "minMediaStart" : 0,
                    "attributes" : {
                      "ident" : "Rec 6-22-2025-2-25-34-PM",
                      "gain" : 1.0,
                      "mixToMono" : false,
                      "loudnessNormalization" : true,
                      "sourceFileOffset" : 0
                    },
                    "parameters" : {
                      "scale0" : 0.5,
                      "scale1" : 0.5,
                      "geometryCrop0" : 0.0,
                      "geometryCrop1" : 0.0,
                      "geometryCrop2" : 0.0,
                      "geometryCrop3" : 0.0,
                      "volume" : 1.0,
                      "cursorOpacity" : 1.0,
                      "cursorTrackLevel" : 0.0,
                      "cursorScale" : 2.25,
                      "smoothCursorAcrossEditDuration" : 235200000
                    },
                    "medias" : [
                        {
                          "id" : 144,
                          "_type" : "UnifiedMedia",
                          "video" : 
                              {
                                "id" : 145,
                                "_type" : "ScreenVMFile",
                                "src" : 1,
                                "trackNumber" : 0,
                                "attributes" : {
                                  "ident" : "Rec 6-22-2025-2-25-34-PM"
                                },
                                "parameters" : {
                                  "geometryCrop0" : {
                                    "type" : "double",
                                    "defaultValue" : 0.0,
                                    "interp" : "eioe"
                                  },
                                  "geometryCrop1" : {
                                    "type" : "double",
                                    "defaultValue" : 0.0,
                                    "interp" : "eioe"
                                  },
                                  "geometryCrop2" : {
                                    "type" : "double",
                                    "defaultValue" : 0.0,
                                    "interp" : "eioe"
                                  },
                                  "geometryCrop3" : {
                                    "type" : "double",
                                    "defaultValue" : 0.0,
                                    "interp" : "eioe"
                                  },
                                  "cursorScale" : {
                                    "type" : "double",
                                    "defaultValue" : 0.0,
                                    "interp" : "linr"
                                  },
                                  "cursorOpacity" : {
                                    "type" : "double",
                                    "defaultValue" : 0.0,
                                    "interp" : "linr"
                                  },
                                  "cursorTrackLevel" : {
                                    "type" : "double",
                                    "defaultValue" : 0.0,
                                    "interp" : "linr"
                                  },
                                  "smoothCursorAcrossEditDuration" : 235200000
                                },
                                "effects" : [

                                ],
                                "start" : 0,
                                "duration" : 223792800000,
                                "mediaStart" : 0,
                                "mediaDuration" : 223792800000,
                                "scalar" : 1,
                                "animationTracks" : {

                                }
                              },
                          "audio" : 
                              {
                                "id" : 146,
                                "_type" : "AMFile",
                                "src" : 1,
                                "trackNumber" : 1,
                                "attributes" : {
                                  "ident" : "",
                                  "gain" : 1.0,
                                  "mixToMono" : false,
                                  "loudnessNormalization" : true,
                                  "sourceFileOffset" : 0
                                },
                                  "channelNumber" : "0,1",
                                "effects" : [

                                ],
                                "start" : 0,
                                "duration" : 223792800000,
                                "mediaStart" : 0,
                                "mediaDuration" : 223792800000,
                                "scalar" : 1,
                                "animationTracks" : {

                                }
                              }
,
                          "start" : 0,
                          "duration" : 223792800000,
                          "mediaStart" : 0,
                          "mediaDuration" : 223792800000,
                          "scalar" : 1,
                          "metadata" : {
                            "AutoAppliedSmartFocus" : "False",
                            "audiateLinkedSession" : "",
                            "clipSpeedAttribute" : { "type": "bool", "value" : false},
                            "colorAttribute" : { "type": "color", "value" : [ 0, 0, 0, 0]}
                          }
                        },
                        {
                          "id" : 147,
                          "_type" : "UnifiedMedia",
                          "video" : 
                              {
                                "id" : 148,
                                "_type" : "ScreenVMFile",
                                "src" : 1,
                                "trackNumber" : 0,
                                "attributes" : {
                                  "ident" : "Rec 6-22-2025-2-25-34-PM"
                                },
                                "parameters" : {
                                  "geometryCrop0" : {
                                    "type" : "double",
                                    "defaultValue" : 0.0,
                                    "interp" : "eioe"
                                  },
                                  "geometryCrop1" : {
                                    "type" : "double",
                                    "defaultValue" : 0.0,
                                    "interp" : "eioe"
                                  },
                                  "geometryCrop2" : {
                                    "type" : "double",
                                    "defaultValue" : 0.0,
                                    "interp" : "eioe"
                                  },
                                  "geometryCrop3" : {
                                    "type" : "double",
                                    "defaultValue" : 0.0,
                                    "interp" : "eioe"
                                  },
                                  "cursorScale" : {
                                    "type" : "double",
                                    "defaultValue" : 0.0,
                                    "interp" : "linr"
                                  },
                                  "cursorOpacity" : {
                                    "type" : "double",
                                    "defaultValue" : 0.0,
                                    "interp" : "linr"
                                  },
                                  "cursorTrackLevel" : {
                                    "type" : "double",
                                    "defaultValue" : 0.0,
                                    "interp" : "linr"
                                  },
                                  "smoothCursorAcrossEditDuration" : 235200000
                                },
                                "effects" : [

                                ],
                                "start" : 223792800000,
                                "duration" : 112943040000,
                                "mediaStart" : 225980160000,
                                "mediaDuration" : 112943040000,
                                "scalar" : 1,
                                "animationTracks" : {

                                }
                              },
                          "audio" : 
                              {
                                "id" : 149,
                                "_type" : "AMFile",
                                "src" : 1,
                                "trackNumber" : 1,
                                "attributes" : {
                                  "ident" : "",
                                  "gain" : 1.0,
                                  "mixToMono" : false,
                                  "loudnessNormalization" : true,
                                  "sourceFileOffset" : 0
                                },
                                  "channelNumber" : "0,1",
                                "effects" : [

                                ],
                                "start" : 223792800000,
                                "duration" : 112943040000,
                                "mediaStart" : 225980160000,
                                "mediaDuration" : 112943040000,
                                "scalar" : 1,
                                "animationTracks" : {

                                }
                              }
,
                          "start" : 223792800000,
                          "duration" : 112943040000,
                          "mediaStart" : 225980160000,
                          "mediaDuration" : 112943040000,
                          "scalar" : 1,
                          "metadata" : {
                            "AutoAppliedSmartFocus" : "False",
                            "audiateLinkedSession" : "",
                            "clipSpeedAttribute" : { "type": "bool", "value" : false},
                            "colorAttribute" : { "type": "color", "value" : [ 0, 0, 0, 0]}
                          }
                        }
                    ],
                    "effects" : [
                        {
                          "effectName" : "CursorHilight",
                          "bypassed" : false,
                          "category" : "categoryCursorEffects",
                          "parameters" : {
                            "radius" : 50.0,
                            "color-red" : 1.0,
                            "color-green" : 1.0,
                            "color-blue" : 0.0,
                            "color-alpha" : 0.75,
                            "blur" : 0.1
                          },
                          "metadata" : {
                            "presetName" : "Cursor Highlight"
                          }
                        }
                    ],
                    "start" : 126937440000,
                    "duration" : 2892960000,
                    "mediaStart" : 295669920000,
                    "mediaDuration" : 14652960000,
                    "scalar" : "123/623",
                    "metadata" : {
                      "AutoAppliedSmartFocus" : "False",
                      "audiateLinkedSession" : "",
                      "clipSpeedAttribute" : { "type": "bool", "value" : true},
                      "colorAttribute" : { "type": "color", "value" : [ 0, 0, 0, 0]},
                      "default-anchor0" : { "type": "double", "value" : 0.0},
                      "default-anchor1" : { "type": "double", "value" : 0.0},
                      "default-anchor2" : { "type": "double", "value" : 0.0},
                      "default-height" : { "type": "double", "value" : 1080.0},
                      "default-rotation0" : { "type": "double", "value" : 0.0},
                      "default-rotation1" : { "type": "double", "value" : 0.0},
                      "default-rotation2" : { "type": "double", "value" : 0.0},
                      "default-scale0" : { "type": "double", "value" : 0.5},
                      "default-scale1" : { "type": "double", "value" : 0.5},
                      "default-scale2" : { "type": "double", "value" : 1.0},
                      "default-shear0" : { "type": "double", "value" : 0.0},
                      "default-shear1" : { "type": "double", "value" : 0.0},
                      "default-shear2" : { "type": "double", "value" : 0.0},
                      "default-translation0" : { "type": "double", "value" : 0.0},
                      "default-translation1" : { "type": "double", "value" : 0.0},
                      "default-translation2" : { "type": "double", "value" : 0.0},
                      "default-width" : { "type": "double", "value" : 1920.0}
                    },
                    "animationTracks" : {

                    }
                  },
                  {
                    "id" : 150,
                    "_type" : "StitchedMedia",
                    "minMediaStart" : 0,
                    "attributes" : {
                      "ident" : "Rec 6-22-2025-2-25-34-PM",
                      "gain" : 1.0,
                      "mixToMono" : false,
                      "loudnessNormalization" : true,
                      "sourceFileOffset" : 0
                    },
                    "parameters" : {
                      "scale0" : 0.5,
                      "scale1" : 0.5,
                      "geometryCrop0" : 0.0,
                      "geometryCrop1" : 0.0,
                      "geometryCrop2" : 0.0,
                      "geometryCrop3" : 0.0,
                      "volume" : 1.0,
                      "cursorOpacity" : 1.0,
                      "cursorTrackLevel" : 0.0,
                      "cursorScale" : 2.25,
                      "smoothCursorAcrossEditDuration" : 235200000
                    },
                    "medias" : [
                        {
                          "id" : 151,
                          "_type" : "UnifiedMedia",
                          "video" : 
                              {
                                "id" : 152,
                                "_type" : "ScreenVMFile",
                                "src" : 1,
                                "trackNumber" : 0,
                                "attributes" : {
                                  "ident" : "Rec 6-22-2025-2-25-34-PM"
                                },
                                "parameters" : {
                                  "geometryCrop0" : {
                                    "type" : "double",
                                    "defaultValue" : 0.0,
                                    "interp" : "eioe"
                                  },
                                  "geometryCrop1" : {
                                    "type" : "double",
                                    "defaultValue" : 0.0,
                                    "interp" : "eioe"
                                  },
                                  "geometryCrop2" : {
                                    "type" : "double",
                                    "defaultValue" : 0.0,
                                    "interp" : "eioe"
                                  },
                                  "geometryCrop3" : {
                                    "type" : "double",
                                    "defaultValue" : 0.0,
                                    "interp" : "eioe"
                                  },
                                  "cursorScale" : {
                                    "type" : "double",
                                    "defaultValue" : 0.0,
                                    "interp" : "linr"
                                  },
                                  "cursorOpacity" : {
                                    "type" : "double",
                                    "defaultValue" : 0.0,
                                    "interp" : "linr"
                                  },
                                  "cursorTrackLevel" : {
                                    "type" : "double",
                                    "defaultValue" : 0.0,
                                    "interp" : "linr"
                                  },
                                  "smoothCursorAcrossEditDuration" : 235200000
                                },
                                "effects" : [

                                ],
                                "start" : 0,
                                "duration" : 223792800000,
                                "mediaStart" : 0,
                                "mediaDuration" : 223792800000,
                                "scalar" : 1,
                                "animationTracks" : {

                                }
                              },
                          "audio" : 
                              {
                                "id" : 153,
                                "_type" : "AMFile",
                                "src" : 1,
                                "trackNumber" : 1,
                                "attributes" : {
                                  "ident" : "",
                                  "gain" : 1.0,
                                  "mixToMono" : false,
                                  "loudnessNormalization" : true,
                                  "sourceFileOffset" : 0
                                },
                                  "channelNumber" : "0,1",
                                "effects" : [

                                ],
                                "start" : 0,
                                "duration" : 223792800000,
                                "mediaStart" : 0,
                                "mediaDuration" : 223792800000,
                                "scalar" : 1,
                                "animationTracks" : {

                                }
                              }
,
                          "start" : 0,
                          "duration" : 223792800000,
                          "mediaStart" : 0,
                          "mediaDuration" : 223792800000,
                          "scalar" : 1,
                          "metadata" : {
                            "AutoAppliedSmartFocus" : "False",
                            "audiateLinkedSession" : "",
                            "clipSpeedAttribute" : { "type": "bool", "value" : false},
                            "colorAttribute" : { "type": "color", "value" : [ 0, 0, 0, 0]}
                          }
                        },
                        {
                          "id" : 154,
                          "_type" : "UnifiedMedia",
                          "video" : 
                              {
                                "id" : 155,
                                "_type" : "ScreenVMFile",
                                "src" : 1,
                                "trackNumber" : 0,
                                "attributes" : {
                                  "ident" : "Rec 6-22-2025-2-25-34-PM"
                                },
                                "parameters" : {
                                  "geometryCrop0" : {
                                    "type" : "double",
                                    "defaultValue" : 0.0,
                                    "interp" : "eioe"
                                  },
                                  "geometryCrop1" : {
                                    "type" : "double",
                                    "defaultValue" : 0.0,
                                    "interp" : "eioe"
                                  },
                                  "geometryCrop2" : {
                                    "type" : "double",
                                    "defaultValue" : 0.0,
                                    "interp" : "eioe"
                                  },
                                  "geometryCrop3" : {
                                    "type" : "double",
                                    "defaultValue" : 0.0,
                                    "interp" : "eioe"
                                  },
                                  "cursorScale" : {
                                    "type" : "double",
                                    "defaultValue" : 0.0,
                                    "interp" : "linr"
                                  },
                                  "cursorOpacity" : {
                                    "type" : "double",
                                    "defaultValue" : 0.0,
                                    "interp" : "linr"
                                  },
                                  "cursorTrackLevel" : {
                                    "type" : "double",
                                    "defaultValue" : 0.0,
                                    "interp" : "linr"
                                  },
                                  "smoothCursorAcrossEditDuration" : 235200000
                                },
                                "effects" : [

                                ],
                                "start" : 223792800000,
                                "duration" : 112943040000,
                                "mediaStart" : 225980160000,
                                "mediaDuration" : 112943040000,
                                "scalar" : 1,
                                "animationTracks" : {

                                }
                              },
                          "audio" : 
                              {
                                "id" : 156,
                                "_type" : "AMFile",
                                "src" : 1,
                                "trackNumber" : 1,
                                "attributes" : {
                                  "ident" : "",
                                  "gain" : 1.0,
                                  "mixToMono" : false,
                                  "loudnessNormalization" : true,
                                  "sourceFileOffset" : 0
                                },
                                  "channelNumber" : "0,1",
                                "effects" : [

                                ],
                                "start" : 223792800000,
                                "duration" : 112943040000,
                                "mediaStart" : 225980160000,
                                "mediaDuration" : 112943040000,
                                "scalar" : 1,
                                "animationTracks" : {

                                }
                              }
,
                          "start" : 223792800000,
                          "duration" : 112943040000,
                          "mediaStart" : 225980160000,
                          "mediaDuration" : 112943040000,
                          "scalar" : 1,
                          "metadata" : {
                            "AutoAppliedSmartFocus" : "False",
                            "audiateLinkedSession" : "",
                            "clipSpeedAttribute" : { "type": "bool", "value" : false},
                            "colorAttribute" : { "type": "color", "value" : [ 0, 0, 0, 0]}
                          }
                        }
                    ],
                    "effects" : [
                        {
                          "effectName" : "CursorHilight",
                          "bypassed" : false,
                          "category" : "categoryCursorEffects",
                          "parameters" : {
                            "radius" : 50.0,
                            "color-red" : 1.0,
                            "color-green" : 1.0,
                            "color-blue" : 0.0,
                            "color-alpha" : 0.75,
                            "blur" : 0.1
                          },
                          "metadata" : {
                            "presetName" : "Cursor Highlight"
                          }
                        }
                    ],
                    "start" : 129830400000,
                    "duration" : 11783520000,
                    "mediaStart" : 310322880000,
                    "mediaDuration" : 11783520000,
                    "scalar" : 1,
                    "metadata" : {
                      "AutoAppliedSmartFocus" : "False",
                      "audiateLinkedSession" : "",
                      "clipSpeedAttribute" : { "type": "bool", "value" : false},
                      "colorAttribute" : { "type": "color", "value" : [ 0, 0, 0, 0]},
                      "default-anchor0" : { "type": "double", "value" : 0.0},
                      "default-anchor1" : { "type": "double", "value" : 0.0},
                      "default-anchor2" : { "type": "double", "value" : 0.0},
                      "default-height" : { "type": "double", "value" : 1080.0},
                      "default-rotation0" : { "type": "double", "value" : 0.0},
                      "default-rotation1" : { "type": "double", "value" : 0.0},
                      "default-rotation2" : { "type": "double", "value" : 0.0},
                      "default-scale0" : { "type": "double", "value" : 0.5},
                      "default-scale1" : { "type": "double", "value" : 0.5},
                      "default-scale2" : { "type": "double", "value" : 1.0},
                      "default-shear0" : { "type": "double", "value" : 0.0},
                      "default-shear1" : { "type": "double", "value" : 0.0},
                      "default-shear2" : { "type": "double", "value" : 0.0},
                      "default-translation0" : { "type": "double", "value" : 0.0},
                      "default-translation1" : { "type": "double", "value" : 0.0},
                      "default-translation2" : { "type": "double", "value" : 0.0},
                      "default-width" : { "type": "double", "value" : 1920.0}
                    },
                    "animationTracks" : {

                    }
                  }
                ]
              },
              {
                "trackIndex" : 2,
                "medias" : [
                  {
                    "id" : 157,
                    "_type" : "Callout",
                    "def" : {
                        "kind" : "remix",
                        "shape" : "speech-bubble2",
                        "style" : "basic",
                        "corner-radius" : 8.0,
                        "enable-ligatures" : 1.0,
                        "fill-color-blue" : 0.258823529411765,
                        "fill-color-green" : 0.258823529411765,
                        "fill-color-opacity" : 1.0,
                        "fill-color-red" : 0.988235294117647,
                        "height" : 180.0,
                        "line-spacing" : 0.0,
                        "stroke-color-blue" : 1.0,
                        "stroke-color-green" : 1.0,
                        "stroke-color-opacity" : 1.0,
                        "stroke-color-red" : 1.0,
                        "stroke-width" : 0.0,
                        "tail-x" : -100.0,
                        "tail-y" : -200.0,
                        "text-stroke-alignment" : 2.0,
                        "text-stroke-color-alpha" : 1.0,
                        "text-stroke-color-blue" : 0.0,
                        "text-stroke-color-green" : 0.0,
                        "text-stroke-color-red" : 0.0,
                        "text-stroke-width" : 0.0,
                        "width" : 350.0,
                        "word-wrap" : 1.0,
                        "fill-style" : "solid",
                        "horizontal-alignment" : "center",
                        "resize-behavior" : "resizeText",
                        "stroke-style" : "solid",
                        "text" : "Open in Admin mode",
                        "vertical-alignment" : "center",
                        "font" : {
                          "color-blue" : 1.0,
                          "color-green" : 1.0,
                          "color-red" : 1.0,
                          "size" : 64.0,
                          "tracking" : 0.0,
                          "name" : "Montserrat",
                          "weight" : "Regular"
                        },
                        "textAttributes" : {
                          "type" : "textAttributeList",
                          "keyframes" : [
                            {
                              "endTime" : 0,
                              "time" : 0,
                              "value" : [{"name":"fontSize","rangeEnd":18,"rangeStart":0,"value":64.0,"valueType":"double"},{"name":"fontItalic","rangeEnd":18,"rangeStart":0,"value":0,"valueType":"int"},{"name":"fontWeight","rangeEnd":18,"rangeStart":0,"value":400,"valueType":"int"},{"name":"strikethrough","rangeEnd":18,"rangeStart":0,"value":0,"valueType":"int"},{"name":"underline","rangeEnd":18,"rangeStart":0,"value":0,"valueType":"int"},{"name":"kerning","rangeEnd":18,"rangeStart":0,"value":0.0,"valueType":"double"},{"name":"fgColor","rangeEnd":18,"rangeStart":0,"value":"(255,255,255,255)","valueType":"color"},{"name":"fontName","rangeEnd":18,"rangeStart":0,"value":"Montserrat","valueType":"string"}],
                              "duration" : 0
                            }
                          ]
                        }
                    },
                    "attributes" : {
                      "ident" : "",
                      "autoRotateText" : true
                    },
                    "parameters" : {
                      "translation0" : 661.0,
                      "translation1" : 327.0,
                      "geometryCrop0" : 0.0,
                      "geometryCrop1" : 0.0,
                      "geometryCrop2" : 0.0,
                      "geometryCrop3" : 0.0
                    },
                    "effects" : [
                        {
                          "_type" : "GenericBehaviorEffect",
                          "effectName" : "wiggle",
                          "bypassed" : false,
                          "start" : -282240000,
                          "duration" : 5668320000                        ,
                          "in" : {
                            "attributes" : {
                              "name" : "fadeIn",
                              "type" : 0,
                              "characterOrder" : 6,
                              "offsetBetweenCharacters" : 65896448,
                              "suggestedDurationPerCharacter" : 1317928960,
                              "overlapProportion" : 0,
                              "movement" : 0,
                              "springDamping" : 5.0,
                              "springStiffness" : 50.0,
                              "bounceBounciness" : 0.45
                            }
                          
                          },
                          "center" : {
                            "attributes" : {
                              "name" : "wiggle",
                              "type" : 0,
                              "characterOrder" : 0,
                              "offsetBetweenCharacters" : 0,
                              "secondsPerLoop" : 100000,
                              "numberOfLoops" : -1,
                              "delayBetweenLoops" : 0
                            },
                            "parameters" : {
                              "frequency" : {
                                "type" : "double",
                                "defaultValue" : 1.0,
                                "valueBounds" : {
                                  "minValue" : 0.0,
                                  "maxValue" : 20.0,
                                  "defaultValue" : 1.0
                                },
                                "uiHints" : {
                                  "userInterfaceType" : 1,
                                  "unitType" : 0
                                }
                              },
                              "nuance" : {
                                "type" : "double",
                                "defaultValue" : 1.0,
                                "valueBounds" : {
                                  "minValue" : 1.0,
                                  "maxValue" : 3.0,
                                  "defaultValue" : 1.0
                                },
                                "uiHints" : {
                                  "userInterfaceType" : 1,
                                  "unitType" : 0
                                }
                              },
                              "offsetX" : {
                                "type" : "double",
                                "defaultValue" : 10.0,
                                "valueBounds" : {
                                  "minValue" : 0.0,
                                  "maxValue" : 100.0,
                                  "defaultValue" : 10.0
                                },
                                "uiHints" : {
                                  "userInterfaceType" : 1,
                                  "unitType" : 0
                                }
                              },
                              "offsetY" : {
                                "type" : "double",
                                "defaultValue" : 10.0,
                                "valueBounds" : {
                                  "minValue" : 0.0,
                                  "maxValue" : 100.0,
                                  "defaultValue" : 10.0
                                },
                                "uiHints" : {
                                  "userInterfaceType" : 1,
                                  "unitType" : 0
                                }
                              },
                              "rotation" : {
                                "type" : "double",
                                "defaultValue" : 0.0,
                                "valueBounds" : {
                                  "minValue" : 0.0,
                                  "maxValue" : 1.5708,
                                  "defaultValue" : 0.0
                                },
                                "uiHints" : {
                                  "userInterfaceType" : 1,
                                  "unitType" : 3
                                }
                              },
                              "scale" : {
                                "type" : "double",
                                "defaultValue" : 0.0,
                                "valueBounds" : {
                                  "minValue" : 0.0,
                                  "maxValue" : 100.0,
                                  "defaultValue" : 0.0
                                },
                                "uiHints" : {
                                  "userInterfaceType" : 1,
                                  "unitType" : 0
                                }
                              }
                            }
                          
                          },
                          "out" : {
                            "attributes" : {
                              "name" : "fadeOut",
                              "type" : 0,
                              "characterOrder" : 6,
                              "offsetBetweenCharacters" : 65896448,
                              "suggestedDurationPerCharacter" : 1317928960,
                              "overlapProportion" : 0,
                              "movement" : 0,
                              "springDamping" : 5.0,
                              "springStiffness" : 50.0,
                              "bounceBounciness" : 0.45
                            }
                          
                          },
                          "metadata" : {
                            "default-behavior-in-style" : "none",
                            "default-behavior-out-style" : "none",
                            "presetName" : "Wiggle"
                          }
                        }
                    ],
                    "start" : 24390240000,
                    "duration" : 5668320000,
                    "mediaStart" : -282240000,
                    "mediaDuration" : 5668320000,
                    "scalar" : 1,
                    "metadata" : {
                      "audiateLinkedSession" : "",
                      "clipSpeedAttribute" : { "type": "bool", "value" : false},
                      "colorAttribute" : { "type": "color", "value" : [ 0, 0, 0, 0]},
                      "default-HAlign" : "center",
                      "default-LineSpace" : { "type": "double", "value" : 0.0},
                      "default-VAlign" : "center",
                      "default-height" : { "type": "double", "value" : 204.0},
                      "default-text-stroke-color-blue" : { "type": "double", "value" : 0.0},
                      "default-text-stroke-color-green" : { "type": "double", "value" : 0.0},
                      "default-text-stroke-color-red" : { "type": "double", "value" : 0.0},
                      "default-text-stroke-opacity" : { "type": "double", "value" : 1.0},
                      "default-text-stroke-width" : { "type": "double", "value" : 0.0},
                      "default-translation0" : { "type": "double", "value" : 0.0},
                      "default-translation1" : { "type": "double", "value" : 0.0},
                      "default-translation2" : { "type": "double", "value" : 0.0},
                      "default-width" : { "type": "double", "value" : 390.0}
                    },
                    "animationTracks" : {

                    }
                  },
                  {
                    "id" : 158,
                    "_type" : "Callout",
                    "def" : {
                        "kind" : "TypeWinSpotlight",
                        "shape" : "",
                        "style" : "",
                        "corner-radius" : 6.0,
                        "height" : 270.0,
                        "intensity" : 0.5,
                        "width" : 480.0,
                        "filename" : "C:\\Users\\svelderr\\AppData\\Local\\TechSmith\\Camtasia Studio\\25.0\\Features\\Tools\\Annotations\\Defaults\\ReverseHighlight_100x100.xml",
                        "name" : "",
                        "xmlContent" : "﻿<?xml version=\"1.0\"?>\n\n<Overlay version=\"1.0.1\">\n\n<Overlay_Filename>ReverseHighlight_100x100.png</Overlay_Filename>\n<Overlay_Name>Spotlight</Overlay_Name>\n<Text_Top>0</Text_Top>\n<Text_Left>0</Text_Left>\n<Text_Bottom>0</Text_Bottom>\n<Text_Right>0</Text_Right>\n<Fill_Color>0</Fill_Color>\n<Border_Color>0</Border_Color>\n</Overlay>"
                    },
                    "attributes" : {
                      "ident" : "",
                      "autoRotateText" : true
                    },
                    "parameters" : {
                      "translation0" : -123.5,
                      "translation1" : -152.0,
                      "scale0" : 1.34791666666667,
                      "scale1" : 1.12592592592593,
                      "geometryCrop0" : 0.0,
                      "geometryCrop1" : 0.0,
                      "geometryCrop2" : 0.0,
                      "geometryCrop3" : 0.0
                    },
                    "effects" : [

                    ],
                    "start" : 43676640000,
                    "duration" : 1481760000,
                    "mediaStart" : 0,
                    "mediaDuration" : 1481760000,
                    "scalar" : 1,
                    "metadata" : {
                      "audiateLinkedSession" : "",
                      "clipSpeedAttribute" : { "type": "bool", "value" : false},
                      "colorAttribute" : { "type": "color", "value" : [ 0, 0, 0, 0]},
                      "default-anchor0" : { "type": "double", "value" : 0.0},
                      "default-anchor1" : { "type": "double", "value" : 0.0},
                      "default-anchor2" : { "type": "double", "value" : 0.0},
                      "default-height" : { "type": "double", "value" : 270.0},
                      "default-rotation0" : { "type": "double", "value" : 0.0},
                      "default-rotation1" : { "type": "double", "value" : 0.0},
                      "default-rotation2" : { "type": "double", "value" : 0.0},
                      "default-scale0" : { "type": "double", "value" : 1.0},
                      "default-scale1" : { "type": "double", "value" : 1.0},
                      "default-scale2" : { "type": "double", "value" : 1.0},
                      "default-shear0" : { "type": "double", "value" : 0.0},
                      "default-shear1" : { "type": "double", "value" : 0.0},
                      "default-shear2" : { "type": "double", "value" : 0.0},
                      "default-translation0" : { "type": "double", "value" : 0.0},
                      "default-translation1" : { "type": "double", "value" : 0.0},
                      "default-translation2" : { "type": "double", "value" : 0.0},
                      "default-width" : { "type": "double", "value" : 480.0}
                    },
                    "animationTracks" : {

                    }
                  },
                  {
                    "id" : 159,
                    "_type" : "Callout",
                    "def" : {
                        "kind" : "TypeWinHighlighter",
                        "shape" : "",
                        "style" : "",
                        "corner-radius" : 6.0,
                        "fill-color-opacity" : 1.0,
                        "fill-invert" : 0.0,
                        "fillColorBlue" : 0.0,
                        "fillColorGreen" : 1.0,
                        "fillColorRed" : 1.0,
                        "height" : 270.0,
                        "width" : 480.0,
                        "filename" : "C:\\Users\\svelderr\\AppData\\Local\\TechSmith\\Camtasia Studio\\25.0\\Features\\Tools\\Annotations\\Defaults\\highlighter_100x100.xml",
                        "name" : "",
                        "xmlContent" : "﻿<?xml version=\"1.0\"?>\n\n<Overlay version=\"1.0.1\">\n\n<Overlay_Filename>highlighter_100x100.png</Overlay_Filename>\n<Overlay_Name>Highlighter</Overlay_Name>\n<Text_Top>0</Text_Top>\n<Text_Left>0</Text_Left>\n<Text_Bottom>0</Text_Bottom>\n<Text_Right>0</Text_Right>\n<Fill_Color>1</Fill_Color>\n<Border_Color>0</Border_Color>\n</Overlay>"
                    },
                    "attributes" : {
                      "ident" : "",
                      "autoRotateText" : true
                    },
                    "parameters" : {
                      "translation0" : 87.9999999999999,
                      "translation1" : -327.5,
                      "scale0" : 2.1625,
                      "scale1" : 0.203703703703704,
                      "geometryCrop0" : 0.0,
                      "geometryCrop1" : 0.0,
                      "geometryCrop2" : 0.0,
                      "geometryCrop3" : 0.0
                    },
                    "effects" : [

                    ],
                    "start" : 50262240000,
                    "duration" : 7291200000,
                    "mediaStart" : 0,
                    "mediaDuration" : 7291200000,
                    "scalar" : 1,
                    "metadata" : {
                      "audiateLinkedSession" : "",
                      "clipSpeedAttribute" : { "type": "bool", "value" : false},
                      "colorAttribute" : { "type": "color", "value" : [ 0, 0, 0, 0]},
                      "default-anchor0" : { "type": "double", "value" : 0.0},
                      "default-anchor1" : { "type": "double", "value" : 0.0},
                      "default-anchor2" : { "type": "double", "value" : 0.0},
                      "default-height" : { "type": "double", "value" : 270.0},
                      "default-rotation0" : { "type": "double", "value" : 0.0},
                      "default-rotation1" : { "type": "double", "value" : 0.0},
                      "default-rotation2" : { "type": "double", "value" : 0.0},
                      "default-scale0" : { "type": "double", "value" : 1.0},
                      "default-scale1" : { "type": "double", "value" : 1.0},
                      "default-scale2" : { "type": "double", "value" : 1.0},
                      "default-shear0" : { "type": "double", "value" : 0.0},
                      "default-shear1" : { "type": "double", "value" : 0.0},
                      "default-shear2" : { "type": "double", "value" : 0.0},
                      "default-translation0" : { "type": "double", "value" : 0.0},
                      "default-translation1" : { "type": "double", "value" : 0.0},
                      "default-translation2" : { "type": "double", "value" : 0.0},
                      "default-width" : { "type": "double", "value" : 480.0}
                    },
                    "animationTracks" : {

                    }
                  },
                  {
                    "id" : 160,
                    "_type" : "Callout",
                    "def" : {
                        "kind" : "remix",
                        "shape" : "text",
                        "style" : "bold",
                        "corner-radius" : 0.0,
                        "enable-ligatures" : 1.0,
                        "height" : 254.114470842333,
                        "line-spacing" : -0.08,
                        "text-stroke-alignment" : 2.0,
                        "text-stroke-color-alpha" : 0.0,
                        "text-stroke-color-blue" : 0.890196078431372,
                        "text-stroke-color-green" : 0.870588235294118,
                        "text-stroke-color-red" : 0.847058823529412,
                        "text-stroke-width" : 0.0,
                        "width" : 404.0,
                        "word-wrap" : 1.0,
                        "horizontal-alignment" : "left",
                        "resize-behavior" : "resizeText",
                        "text" : "Uninstall \rdemo",
                        "vertical-alignment" : "center",
                        "font" : {
                          "color-blue" : 1.0,
                          "color-green" : 1.0,
                          "color-red" : 1.0,
                          "size" : 96.0,
                          "tracking" : 0.0,
                          "name" : "Source Sans Pro",
                          "weight" : "Semi Bold"
                        },
                        "textAttributes" : {
                          "type" : "textAttributeList",
                          "keyframes" : [
                            {
                              "endTime" : 0,
                              "time" : 0,
                              "value" : [{"name":"fontSize","rangeEnd":15,"rangeStart":0,"value":104.0,"valueType":"double"},{"name":"fontName","rangeEnd":15,"rangeStart":0,"value":"Arial","valueType":"string"},{"name":"fontWeight","rangeEnd":15,"rangeStart":0,"value":700,"valueType":"int"},{"name":"fgColor","rangeEnd":15,"rangeStart":0,"value":"(216,222,227,255)","valueType":"color"},{"name":"kerning","rangeEnd":15,"rangeStart":0,"value":0.0,"valueType":"double"},{"name":"fontItalic","rangeEnd":15,"rangeStart":0,"value":0,"valueType":"int"},{"name":"strikethrough","rangeEnd":15,"rangeStart":0,"value":0,"valueType":"int"},{"name":"underline","rangeEnd":15,"rangeStart":0,"value":0,"valueType":"int"}],
                              "duration" : 0
                            }
                          ]
                        }
                    },
                    "attributes" : {
                      "ident" : "",
                      "autoRotateText" : true
                    },
                    "parameters" : {
                      "translation0" : -758.0,
                      "translation1" : -412.942764578834,
                      "geometryCrop0" : 0.0,
                      "geometryCrop1" : 0.0,
                      "geometryCrop2" : 0.0,
                      "geometryCrop3" : 0.0,
                      "toc" : {
                        "type" : "string",
                        "keyframes" : [
                          {
                            "endTime" : 13077120000,
                            "time" : 13077120000,
                            "value" : "Marker 27",
                            "duration" : 0,
                            "metadata" : {
                              "markerIdentifier" : "52496B09-A79D-4B11-B6C9-A4874DE89635"
                            }
                          }
                        ]
                      }
                    },
                    "effects" : [

                    ],
                    "start" : 113625120000,
                    "duration" : 3386880000,
                    "mediaStart" : 0,
                    "mediaDuration" : 3386880000,
                    "scalar" : 1,
                    "metadata" : {
                      "audiateLinkedSession" : "",
                      "clipSpeedAttribute" : { "type": "bool", "value" : false},
                      "colorAttribute" : { "type": "color", "value" : [ 0, 0, 0, 0]},
                      "default-HAlign" : "center",
                      "default-LineSpace" : { "type": "double", "value" : 0.0},
                      "default-VAlign" : "center",
                      "default-anchor0" : { "type": "double", "value" : 0.0},
                      "default-anchor1" : { "type": "double", "value" : 0.0},
                      "default-anchor2" : { "type": "double", "value" : 0.0},
                      "default-height" : { "type": "double", "value" : 250.0},
                      "default-rotation0" : { "type": "double", "value" : 0.0},
                      "default-rotation1" : { "type": "double", "value" : 0.0},
                      "default-rotation2" : { "type": "double", "value" : 0.0},
                      "default-scale0" : { "type": "double", "value" : 1.0},
                      "default-scale1" : { "type": "double", "value" : 1.0},
                      "default-scale2" : { "type": "double", "value" : 1.0},
                      "default-shear0" : { "type": "double", "value" : 0.0},
                      "default-shear1" : { "type": "double", "value" : 0.0},
                      "default-shear2" : { "type": "double", "value" : 0.0},
                      "default-text-attributes" : "[{\"name\":\"fontName\",\"rangeEnd\":9,\"rangeStart\":0,\"value\":\"Arial\",\"valueType\":\"string\"},{\"name\":\"strikethrough\",\"rangeEnd\":9,\"rangeStart\":0,\"value\":0,\"valueType\":\"int\"},{\"name\":\"underline\",\"rangeEnd\":9,\"rangeStart\":0,\"value\":0,\"valueType\":\"int\"},{\"name\":\"fontSize\",\"rangeEnd\":9,\"rangeStart\":0,\"value\":104.0,\"valueType\":\"double\"},{\"name\":\"fontItalic\",\"rangeEnd\":9,\"rangeStart\":0,\"value\":0,\"valueType\":\"int\"},{\"name\":\"kerning\",\"rangeEnd\":9,\"rangeStart\":0,\"value\":0.0,\"valueType\":\"double\"},{\"name\":\"fgColor\",\"rangeEnd\":9,\"rangeStart\":0,\"value\":\"(216,222,227,255)\",\"valueType\":\"color\"},{\"name\":\"fontWeight\",\"rangeEnd\":9,\"rangeStart\":0,\"value\":700,\"valueType\":\"int\"}]",
                      "default-text-stroke-color-blue" : { "type": "double", "value" : 0.0},
                      "default-text-stroke-color-green" : { "type": "double", "value" : 0.0},
                      "default-text-stroke-color-red" : { "type": "double", "value" : 0.0},
                      "default-text-stroke-opacity" : { "type": "double", "value" : 1.0},
                      "default-text-stroke-width" : { "type": "double", "value" : 0.0},
                      "default-translation0" : { "type": "double", "value" : 0.0},
                      "default-translation1" : { "type": "double", "value" : 0.0},
                      "default-translation2" : { "type": "double", "value" : 0.0},
                      "default-width" : { "type": "double", "value" : 400.0}
                    },
                    "animationTracks" : {

                    }
                  },
                  {
                    "id" : 161,
                    "_type" : "Callout",
                    "def" : {
                        "kind" : "remix",
                        "shape" : "text",
                        "style" : "bold",
                        "corner-radius" : {
                          "type" : "double",
                          "defaultValue" : 0.0,
                          "interp" : "linr"
                        },
                        "enable-ligatures" : {
                          "type" : "double",
                          "defaultValue" : 1.0,
                          "interp" : "linr"
                        },
                        "height" : {
                          "type" : "double",
                          "defaultValue" : 295.114470842333,
                          "interp" : "linr"
                        },
                        "line-spacing" : {
                          "type" : "double",
                          "defaultValue" : -0.08,
                          "interp" : "linr"
                        },
                        "text-stroke-alignment" : {
                          "type" : "double",
                          "defaultValue" : 2.0,
                          "interp" : "linr"
                        },
                        "text-stroke-color-alpha" : {
                          "type" : "double",
                          "defaultValue" : 0.0,
                          "interp" : "linr"
                        },
                        "text-stroke-color-blue" : {
                          "type" : "double",
                          "defaultValue" : 0.890196078431372,
                          "interp" : "linr"
                        },
                        "text-stroke-color-green" : {
                          "type" : "double",
                          "defaultValue" : 0.870588235294118,
                          "interp" : "linr"
                        },
                        "text-stroke-color-red" : {
                          "type" : "double",
                          "defaultValue" : 0.847058823529412,
                          "interp" : "linr"
                        },
                        "text-stroke-width" : {
                          "type" : "double",
                          "defaultValue" : 0.0,
                          "interp" : "linr"
                        },
                        "width" : {
                          "type" : "double",
                          "defaultValue" : 459.0,
                          "interp" : "linr"
                        },
                        "word-wrap" : {
                          "type" : "double",
                          "defaultValue" : 1.0,
                          "interp" : "linr"
                        },
                        "horizontal-alignment" : "left",
                        "resize-behavior" : "resizeText",
                        "text" : "Acknowledge One-button Dialog",
                        "vertical-alignment" : "center",
                        "font" : {
                          "color-blue" : {
                            "type" : "double",
                            "defaultValue" : 1.0,
                            "interp" : "linr"
                          },
                          "color-green" : {
                            "type" : "double",
                            "defaultValue" : 1.0,
                            "interp" : "linr"
                          },
                          "color-red" : {
                            "type" : "double",
                            "defaultValue" : 1.0,
                            "interp" : "linr"
                          },
                          "size" : {
                            "type" : "double",
                            "defaultValue" : 96.0,
                            "interp" : "linr"
                          },
                          "tracking" : {
                            "type" : "double",
                            "defaultValue" : 0.0,
                            "interp" : "linr"
                          },
                          "name" : "Source Sans Pro",
                          "weight" : "Semi Bold"
                        },
                        "textAttributes" : {
                          "type" : "textAttributeList",
                          "keyframes" : [
                            {
                              "endTime" : 0,
                              "time" : 0,
                              "value" : [{"name":"kerning","rangeEnd":29,"rangeStart":0,"value":0.0,"valueType":"double"},{"name":"fontItalic","rangeEnd":29,"rangeStart":0,"value":0,"valueType":"int"},{"name":"fgColor","rangeEnd":29,"rangeStart":0,"value":"(216,222,227,255)","valueType":"color"},{"name":"strikethrough","rangeEnd":29,"rangeStart":0,"value":0,"valueType":"int"},{"name":"fontSize","rangeEnd":29,"rangeStart":0,"value":104.0,"valueType":"double"},{"name":"fontName","rangeEnd":29,"rangeStart":0,"value":"Arial","valueType":"string"},{"name":"fontWeight","rangeEnd":29,"rangeStart":0,"value":700,"valueType":"int"},{"name":"underline","rangeEnd":29,"rangeStart":0,"value":0,"valueType":"int"}],
                              "duration" : 0
                            }
                          ]
                        }
                    },
                    "attributes" : {
                      "ident" : "",
                      "autoRotateText" : true
                    },
                    "parameters" : {
                      "translation0" : {
                        "type" : "double",
                        "defaultValue" : -730.5,
                        "interp" : "eioe"
                      },
                      "translation1" : {
                        "type" : "double",
                        "defaultValue" : -392.442764578834,
                        "interp" : "eioe"
                      },
                      "geometryCrop0" : {
                        "type" : "double",
                        "defaultValue" : 0.0,
                        "interp" : "eioe"
                      },
                      "geometryCrop1" : {
                        "type" : "double",
                        "defaultValue" : 0.0,
                        "interp" : "eioe"
                      },
                      "geometryCrop2" : {
                        "type" : "double",
                        "defaultValue" : 0.0,
                        "interp" : "eioe"
                      },
                      "geometryCrop3" : {
                        "type" : "double",
                        "defaultValue" : 0.0,
                        "interp" : "eioe"
                      },
                      "toc" : {
                        "type" : "string",
                        "keyframes" : [
                          {
                            "endTime" : 13077120000,
                            "time" : 13077120000,
                            "value" : "Marker 27",
                            "duration" : 0,
                            "metadata" : {
                              "markerIdentifier" : "52496B09-A79D-4B11-B6C9-A4874DE89635"
                            }
                          }
                        ]
                      }
                    },
                    "effects" : [

                    ],
                    "start" : 117012000000,
                    "duration" : 5550720000,
                    "mediaStart" : 0,
                    "mediaDuration" : 5550720000,
                    "scalar" : 1,
                    "metadata" : {
                      "audiateLinkedSession" : "",
                      "clipSpeedAttribute" : { "type": "bool", "value" : false},
                      "colorAttribute" : { "type": "color", "value" : [ 0, 0, 0, 0]},
                      "default-HAlign" : "center",
                      "default-LineSpace" : { "type": "double", "value" : 0.0},
                      "default-VAlign" : "center",
                      "default-anchor0" : { "type": "double", "value" : 0.0},
                      "default-anchor1" : { "type": "double", "value" : 0.0},
                      "default-anchor2" : { "type": "double", "value" : 0.0},
                      "default-height" : { "type": "double", "value" : 250.0},
                      "default-rotation0" : { "type": "double", "value" : 0.0},
                      "default-rotation1" : { "type": "double", "value" : 0.0},
                      "default-rotation2" : { "type": "double", "value" : 0.0},
                      "default-scale0" : { "type": "double", "value" : 1.0},
                      "default-scale1" : { "type": "double", "value" : 1.0},
                      "default-scale2" : { "type": "double", "value" : 1.0},
                      "default-shear0" : { "type": "double", "value" : 0.0},
                      "default-shear1" : { "type": "double", "value" : 0.0},
                      "default-shear2" : { "type": "double", "value" : 0.0},
                      "default-text-attributes" : "[{\"name\":\"fontName\",\"rangeEnd\":9,\"rangeStart\":0,\"value\":\"Arial\",\"valueType\":\"string\"},{\"name\":\"strikethrough\",\"rangeEnd\":9,\"rangeStart\":0,\"value\":0,\"valueType\":\"int\"},{\"name\":\"underline\",\"rangeEnd\":9,\"rangeStart\":0,\"value\":0,\"valueType\":\"int\"},{\"name\":\"fontSize\",\"rangeEnd\":9,\"rangeStart\":0,\"value\":104.0,\"valueType\":\"double\"},{\"name\":\"fontItalic\",\"rangeEnd\":9,\"rangeStart\":0,\"value\":0,\"valueType\":\"int\"},{\"name\":\"kerning\",\"rangeEnd\":9,\"rangeStart\":0,\"value\":0.0,\"valueType\":\"double\"},{\"name\":\"fgColor\",\"rangeEnd\":9,\"rangeStart\":0,\"value\":\"(216,222,227,255)\",\"valueType\":\"color\"},{\"name\":\"fontWeight\",\"rangeEnd\":9,\"rangeStart\":0,\"value\":700,\"valueType\":\"int\"}]",
                      "default-text-stroke-color-blue" : { "type": "double", "value" : 0.0},
                      "default-text-stroke-color-green" : { "type": "double", "value" : 0.0},
                      "default-text-stroke-color-red" : { "type": "double", "value" : 0.0},
                      "default-text-stroke-opacity" : { "type": "double", "value" : 1.0},
                      "default-text-stroke-width" : { "type": "double", "value" : 0.0},
                      "default-translation0" : { "type": "double", "value" : 0.0},
                      "default-translation1" : { "type": "double", "value" : 0.0},
                      "default-translation2" : { "type": "double", "value" : 0.0},
                      "default-width" : { "type": "double", "value" : 400.0}
                    },
                    "animationTracks" : {

                    }
                  },
                  {
                    "id" : 162,
                    "_type" : "Callout",
                    "def" : {
                        "kind" : "remix",
                        "shape" : "text",
                        "style" : "bold",
                        "corner-radius" : {
                          "type" : "double",
                          "defaultValue" : 0.0,
                          "interp" : "linr"
                        },
                        "enable-ligatures" : {
                          "type" : "double",
                          "defaultValue" : 1.0,
                          "interp" : "linr"
                        },
                        "height" : {
                          "type" : "double",
                          "defaultValue" : 254.114470842333,
                          "interp" : "linr"
                        },
                        "line-spacing" : {
                          "type" : "double",
                          "defaultValue" : -0.08,
                          "interp" : "linr"
                        },
                        "text-stroke-alignment" : {
                          "type" : "double",
                          "defaultValue" : 2.0,
                          "interp" : "linr"
                        },
                        "text-stroke-color-alpha" : {
                          "type" : "double",
                          "defaultValue" : 0.0,
                          "interp" : "linr"
                        },
                        "text-stroke-color-blue" : {
                          "type" : "double",
                          "defaultValue" : 0.890196078431372,
                          "interp" : "linr"
                        },
                        "text-stroke-color-green" : {
                          "type" : "double",
                          "defaultValue" : 0.870588235294118,
                          "interp" : "linr"
                        },
                        "text-stroke-color-red" : {
                          "type" : "double",
                          "defaultValue" : 0.847058823529412,
                          "interp" : "linr"
                        },
                        "text-stroke-width" : {
                          "type" : "double",
                          "defaultValue" : 0.0,
                          "interp" : "linr"
                        },
                        "width" : {
                          "type" : "double",
                          "defaultValue" : 404.0,
                          "interp" : "linr"
                        },
                        "word-wrap" : {
                          "type" : "double",
                          "defaultValue" : 1.0,
                          "interp" : "linr"
                        },
                        "horizontal-alignment" : "left",
                        "resize-behavior" : "resizeText",
                        "text" : "Uninstall \rdemo",
                        "vertical-alignment" : "center",
                        "font" : {
                          "color-blue" : {
                            "type" : "double",
                            "defaultValue" : 1.0,
                            "interp" : "linr"
                          },
                          "color-green" : {
                            "type" : "double",
                            "defaultValue" : 1.0,
                            "interp" : "linr"
                          },
                          "color-red" : {
                            "type" : "double",
                            "defaultValue" : 1.0,
                            "interp" : "linr"
                          },
                          "size" : {
                            "type" : "double",
                            "defaultValue" : 96.0,
                            "interp" : "linr"
                          },
                          "tracking" : {
                            "type" : "double",
                            "defaultValue" : 0.0,
                            "interp" : "linr"
                          },
                          "name" : "Source Sans Pro",
                          "weight" : "Semi Bold"
                        },
                        "textAttributes" : {
                          "type" : "textAttributeList",
                          "keyframes" : [
                            {
                              "endTime" : 0,
                              "time" : 0,
                              "value" : [{"name":"fontSize","rangeEnd":15,"rangeStart":0,"value":104.0,"valueType":"double"},{"name":"fontName","rangeEnd":15,"rangeStart":0,"value":"Arial","valueType":"string"},{"name":"fontWeight","rangeEnd":15,"rangeStart":0,"value":700,"valueType":"int"},{"name":"fgColor","rangeEnd":15,"rangeStart":0,"value":"(216,222,227,255)","valueType":"color"},{"name":"kerning","rangeEnd":15,"rangeStart":0,"value":0.0,"valueType":"double"},{"name":"fontItalic","rangeEnd":15,"rangeStart":0,"value":0,"valueType":"int"},{"name":"strikethrough","rangeEnd":15,"rangeStart":0,"value":0,"valueType":"int"},{"name":"underline","rangeEnd":15,"rangeStart":0,"value":0,"valueType":"int"}],
                              "duration" : 0
                            }
                          ]
                        }
                    },
                    "attributes" : {
                      "ident" : "",
                      "autoRotateText" : true
                    },
                    "parameters" : {
                      "translation0" : {
                        "type" : "double",
                        "defaultValue" : -758.0,
                        "interp" : "eioe"
                      },
                      "translation1" : {
                        "type" : "double",
                        "defaultValue" : -412.942764578834,
                        "interp" : "eioe"
                      },
                      "geometryCrop0" : {
                        "type" : "double",
                        "defaultValue" : 0.0,
                        "interp" : "eioe"
                      },
                      "geometryCrop1" : {
                        "type" : "double",
                        "defaultValue" : 0.0,
                        "interp" : "eioe"
                      },
                      "geometryCrop2" : {
                        "type" : "double",
                        "defaultValue" : 0.0,
                        "interp" : "eioe"
                      },
                      "geometryCrop3" : {
                        "type" : "double",
                        "defaultValue" : 0.0,
                        "interp" : "eioe"
                      },
                      "toc" : {
                        "type" : "string",
                        "keyframes" : [
                          {
                            "endTime" : 13077120000,
                            "time" : 13077120000,
                            "value" : "Marker 27",
                            "duration" : 0,
                            "metadata" : {
                              "markerIdentifier" : "52496B09-A79D-4B11-B6C9-A4874DE89635"
                            }
                          }
                        ]
                      }
                    },
                    "effects" : [

                    ],
                    "start" : 122562720000,
                    "duration" : 4116000000,
                    "mediaStart" : 0,
                    "mediaDuration" : 4116000000,
                    "scalar" : 1,
                    "metadata" : {
                      "audiateLinkedSession" : "",
                      "clipSpeedAttribute" : { "type": "bool", "value" : false},
                      "colorAttribute" : { "type": "color", "value" : [ 0, 0, 0, 0]},
                      "default-HAlign" : "center",
                      "default-LineSpace" : { "type": "double", "value" : 0.0},
                      "default-VAlign" : "center",
                      "default-anchor0" : { "type": "double", "value" : 0.0},
                      "default-anchor1" : { "type": "double", "value" : 0.0},
                      "default-anchor2" : { "type": "double", "value" : 0.0},
                      "default-height" : { "type": "double", "value" : 250.0},
                      "default-rotation0" : { "type": "double", "value" : 0.0},
                      "default-rotation1" : { "type": "double", "value" : 0.0},
                      "default-rotation2" : { "type": "double", "value" : 0.0},
                      "default-scale0" : { "type": "double", "value" : 1.0},
                      "default-scale1" : { "type": "double", "value" : 1.0},
                      "default-scale2" : { "type": "double", "value" : 1.0},
                      "default-shear0" : { "type": "double", "value" : 0.0},
                      "default-shear1" : { "type": "double", "value" : 0.0},
                      "default-shear2" : { "type": "double", "value" : 0.0},
                      "default-text-attributes" : "[{\"name\":\"fontName\",\"rangeEnd\":9,\"rangeStart\":0,\"value\":\"Arial\",\"valueType\":\"string\"},{\"name\":\"strikethrough\",\"rangeEnd\":9,\"rangeStart\":0,\"value\":0,\"valueType\":\"int\"},{\"name\":\"underline\",\"rangeEnd\":9,\"rangeStart\":0,\"value\":0,\"valueType\":\"int\"},{\"name\":\"fontSize\",\"rangeEnd\":9,\"rangeStart\":0,\"value\":104.0,\"valueType\":\"double\"},{\"name\":\"fontItalic\",\"rangeEnd\":9,\"rangeStart\":0,\"value\":0,\"valueType\":\"int\"},{\"name\":\"kerning\",\"rangeEnd\":9,\"rangeStart\":0,\"value\":0.0,\"valueType\":\"double\"},{\"name\":\"fgColor\",\"rangeEnd\":9,\"rangeStart\":0,\"value\":\"(216,222,227,255)\",\"valueType\":\"color\"},{\"name\":\"fontWeight\",\"rangeEnd\":9,\"rangeStart\":0,\"value\":700,\"valueType\":\"int\"}]",
                      "default-text-stroke-color-blue" : { "type": "double", "value" : 0.0},
                      "default-text-stroke-color-green" : { "type": "double", "value" : 0.0},
                      "default-text-stroke-color-red" : { "type": "double", "value" : 0.0},
                      "default-text-stroke-opacity" : { "type": "double", "value" : 1.0},
                      "default-text-stroke-width" : { "type": "double", "value" : 0.0},
                      "default-translation0" : { "type": "double", "value" : 0.0},
                      "default-translation1" : { "type": "double", "value" : 0.0},
                      "default-translation2" : { "type": "double", "value" : 0.0},
                      "default-width" : { "type": "double", "value" : 400.0}
                    },
                    "animationTracks" : {

                    }
                  },
                  {
                    "id" : 163,
                    "_type" : "Callout",
                    "def" : {
                        "kind" : "remix",
                        "shape" : "text",
                        "style" : "bold",
                        "corner-radius" : {
                          "type" : "double",
                          "defaultValue" : 0.0,
                          "interp" : "linr"
                        },
                        "enable-ligatures" : {
                          "type" : "double",
                          "defaultValue" : 1.0,
                          "interp" : "linr"
                        },
                        "height" : {
                          "type" : "double",
                          "defaultValue" : 263.114470842333,
                          "interp" : "linr"
                        },
                        "line-spacing" : {
                          "type" : "double",
                          "defaultValue" : -0.08,
                          "interp" : "linr"
                        },
                        "text-stroke-alignment" : {
                          "type" : "double",
                          "defaultValue" : 2.0,
                          "interp" : "linr"
                        },
                        "text-stroke-color-alpha" : {
                          "type" : "double",
                          "defaultValue" : 0.0,
                          "interp" : "linr"
                        },
                        "text-stroke-color-blue" : {
                          "type" : "double",
                          "defaultValue" : 0.890196078431372,
                          "interp" : "linr"
                        },
                        "text-stroke-color-green" : {
                          "type" : "double",
                          "defaultValue" : 0.870588235294118,
                          "interp" : "linr"
                        },
                        "text-stroke-color-red" : {
                          "type" : "double",
                          "defaultValue" : 0.847058823529412,
                          "interp" : "linr"
                        },
                        "text-stroke-width" : {
                          "type" : "double",
                          "defaultValue" : 0.0,
                          "interp" : "linr"
                        },
                        "width" : {
                          "type" : "double",
                          "defaultValue" : 404.0,
                          "interp" : "linr"
                        },
                        "word-wrap" : {
                          "type" : "double",
                          "defaultValue" : 1.0,
                          "interp" : "linr"
                        },
                        "horizontal-alignment" : "left",
                        "resize-behavior" : "resizeText",
                        "text" : "Restart LabVIEW",
                        "vertical-alignment" : "center",
                        "font" : {
                          "color-blue" : {
                            "type" : "double",
                            "defaultValue" : 1.0,
                            "interp" : "linr"
                          },
                          "color-green" : {
                            "type" : "double",
                            "defaultValue" : 1.0,
                            "interp" : "linr"
                          },
                          "color-red" : {
                            "type" : "double",
                            "defaultValue" : 1.0,
                            "interp" : "linr"
                          },
                          "size" : {
                            "type" : "double",
                            "defaultValue" : 96.0,
                            "interp" : "linr"
                          },
                          "tracking" : {
                            "type" : "double",
                            "defaultValue" : 0.0,
                            "interp" : "linr"
                          },
                          "name" : "Source Sans Pro",
                          "weight" : "Semi Bold"
                        },
                        "textAttributes" : {
                          "type" : "textAttributeList",
                          "keyframes" : [
                            {
                              "endTime" : 0,
                              "time" : 0,
                              "value" : [{"name":"fgColor","rangeEnd":15,"rangeStart":0,"value":"(216,222,227,255)","valueType":"color"},{"name":"fontName","rangeEnd":15,"rangeStart":0,"value":"Arial","valueType":"string"},{"name":"fontItalic","rangeEnd":15,"rangeStart":0,"value":0,"valueType":"int"},{"name":"kerning","rangeEnd":15,"rangeStart":0,"value":0.0,"valueType":"double"},{"name":"fontWeight","rangeEnd":15,"rangeStart":0,"value":700,"valueType":"int"},{"name":"strikethrough","rangeEnd":15,"rangeStart":0,"value":0,"valueType":"int"},{"name":"fontSize","rangeEnd":15,"rangeStart":0,"value":104.0,"valueType":"double"},{"name":"underline","rangeEnd":15,"rangeStart":0,"value":0,"valueType":"int"}],
                              "duration" : 0
                            }
                          ]
                        }
                    },
                    "attributes" : {
                      "ident" : "",
                      "autoRotateText" : true
                    },
                    "parameters" : {
                      "translation0" : {
                        "type" : "double",
                        "defaultValue" : -758.0,
                        "interp" : "eioe"
                      },
                      "translation1" : {
                        "type" : "double",
                        "defaultValue" : -408.442764578834,
                        "interp" : "eioe"
                      },
                      "geometryCrop0" : {
                        "type" : "double",
                        "defaultValue" : 0.0,
                        "interp" : "eioe"
                      },
                      "geometryCrop1" : {
                        "type" : "double",
                        "defaultValue" : 0.0,
                        "interp" : "eioe"
                      },
                      "geometryCrop2" : {
                        "type" : "double",
                        "defaultValue" : 0.0,
                        "interp" : "eioe"
                      },
                      "geometryCrop3" : {
                        "type" : "double",
                        "defaultValue" : 0.0,
                        "interp" : "eioe"
                      },
                      "toc" : {
                        "type" : "string",
                        "keyframes" : [
                          {
                            "endTime" : 13077120000,
                            "time" : 13077120000,
                            "value" : "Marker 27",
                            "duration" : 0,
                            "metadata" : {
                              "markerIdentifier" : "52496B09-A79D-4B11-B6C9-A4874DE89635"
                            }
                          }
                        ]
                      }
                    },
                    "effects" : [

                    ],
                    "start" : 126678720000,
                    "duration" : 2845920000,
                    "mediaStart" : 0,
                    "mediaDuration" : 2845920000,
                    "scalar" : 1,
                    "metadata" : {
                      "audiateLinkedSession" : "",
                      "clipSpeedAttribute" : { "type": "bool", "value" : false},
                      "colorAttribute" : { "type": "color", "value" : [ 0, 0, 0, 0]},
                      "default-HAlign" : "center",
                      "default-LineSpace" : { "type": "double", "value" : 0.0},
                      "default-VAlign" : "center",
                      "default-anchor0" : { "type": "double", "value" : 0.0},
                      "default-anchor1" : { "type": "double", "value" : 0.0},
                      "default-anchor2" : { "type": "double", "value" : 0.0},
                      "default-height" : { "type": "double", "value" : 250.0},
                      "default-rotation0" : { "type": "double", "value" : 0.0},
                      "default-rotation1" : { "type": "double", "value" : 0.0},
                      "default-rotation2" : { "type": "double", "value" : 0.0},
                      "default-scale0" : { "type": "double", "value" : 1.0},
                      "default-scale1" : { "type": "double", "value" : 1.0},
                      "default-scale2" : { "type": "double", "value" : 1.0},
                      "default-shear0" : { "type": "double", "value" : 0.0},
                      "default-shear1" : { "type": "double", "value" : 0.0},
                      "default-shear2" : { "type": "double", "value" : 0.0},
                      "default-text-attributes" : "[{\"name\":\"fontName\",\"rangeEnd\":9,\"rangeStart\":0,\"value\":\"Arial\",\"valueType\":\"string\"},{\"name\":\"strikethrough\",\"rangeEnd\":9,\"rangeStart\":0,\"value\":0,\"valueType\":\"int\"},{\"name\":\"underline\",\"rangeEnd\":9,\"rangeStart\":0,\"value\":0,\"valueType\":\"int\"},{\"name\":\"fontSize\",\"rangeEnd\":9,\"rangeStart\":0,\"value\":104.0,\"valueType\":\"double\"},{\"name\":\"fontItalic\",\"rangeEnd\":9,\"rangeStart\":0,\"value\":0,\"valueType\":\"int\"},{\"name\":\"kerning\",\"rangeEnd\":9,\"rangeStart\":0,\"value\":0.0,\"valueType\":\"double\"},{\"name\":\"fgColor\",\"rangeEnd\":9,\"rangeStart\":0,\"value\":\"(216,222,227,255)\",\"valueType\":\"color\"},{\"name\":\"fontWeight\",\"rangeEnd\":9,\"rangeStart\":0,\"value\":700,\"valueType\":\"int\"}]",
                      "default-text-stroke-color-blue" : { "type": "double", "value" : 0.0},
                      "default-text-stroke-color-green" : { "type": "double", "value" : 0.0},
                      "default-text-stroke-color-red" : { "type": "double", "value" : 0.0},
                      "default-text-stroke-opacity" : { "type": "double", "value" : 1.0},
                      "default-text-stroke-width" : { "type": "double", "value" : 0.0},
                      "default-translation0" : { "type": "double", "value" : 0.0},
                      "default-translation1" : { "type": "double", "value" : 0.0},
                      "default-translation2" : { "type": "double", "value" : 0.0},
                      "default-width" : { "type": "double", "value" : 400.0}
                    },
                    "animationTracks" : {

                    }
                  },
                  {
                    "id" : 164,
                    "_type" : "Callout",
                    "def" : {
                        "kind" : "remix",
                        "shape" : "text",
                        "style" : "bold",
                        "corner-radius" : 0.0,
                        "enable-ligatures" : 1.0,
                        "height" : 284.228941684665,
                        "line-spacing" : -0.08,
                        "text-stroke-alignment" : 2.0,
                        "text-stroke-color-alpha" : 0.0,
                        "text-stroke-color-blue" : 0.890196078431372,
                        "text-stroke-color-green" : 0.870588235294118,
                        "text-stroke-color-red" : 0.847058823529412,
                        "text-stroke-width" : 0.0,
                        "width" : 461.0,
                        "word-wrap" : 1.0,
                        "horizontal-alignment" : "left",
                        "resize-behavior" : "resizeText",
                        "text" : "Open Icon Editor",
                        "vertical-alignment" : "center",
                        "font" : {
                          "color-blue" : 1.0,
                          "color-green" : 1.0,
                          "color-red" : 1.0,
                          "size" : 96.0,
                          "tracking" : 0.0,
                          "name" : "Source Sans Pro",
                          "weight" : "Semi Bold"
                        },
                        "textAttributes" : {
                          "type" : "textAttributeList",
                          "keyframes" : [
                            {
                              "endTime" : 0,
                              "time" : 0,
                              "value" : [{"name":"strikethrough","rangeEnd":16,"rangeStart":0,"value":0,"valueType":"int"},{"name":"fontSize","rangeEnd":16,"rangeStart":0,"value":104.0,"valueType":"double"},{"name":"fontName","rangeEnd":16,"rangeStart":0,"value":"Arial","valueType":"string"},{"name":"kerning","rangeEnd":16,"rangeStart":0,"value":0.0,"valueType":"double"},{"name":"fgColor","rangeEnd":16,"rangeStart":0,"value":"(216,222,227,255)","valueType":"color"},{"name":"fontWeight","rangeEnd":16,"rangeStart":0,"value":700,"valueType":"int"},{"name":"underline","rangeEnd":16,"rangeStart":0,"value":0,"valueType":"int"},{"name":"fontItalic","rangeEnd":16,"rangeStart":0,"value":0,"valueType":"int"}],
                              "duration" : 0
                            }
                          ]
                        }
                    },
                    "attributes" : {
                      "ident" : "",
                      "autoRotateText" : true
                    },
                    "parameters" : {
                      "translation0" : -729.5,
                      "translation1" : -397.885529157668,
                      "geometryCrop0" : 0.0,
                      "geometryCrop1" : 0.0,
                      "geometryCrop2" : 0.0,
                      "geometryCrop3" : 0.0
                    },
                    "effects" : [

                    ],
                    "start" : 129524640000,
                    "duration" : 4868640000,
                    "mediaStart" : 0,
                    "mediaDuration" : 4868640000,
                    "scalar" : 1,
                    "metadata" : {
                      "audiateLinkedSession" : "",
                      "clipSpeedAttribute" : { "type": "bool", "value" : false},
                      "colorAttribute" : { "type": "color", "value" : [ 0, 0, 0, 0]},
                      "default-HAlign" : "center",
                      "default-LineSpace" : { "type": "double", "value" : 0.0},
                      "default-VAlign" : "center",
                      "default-anchor0" : { "type": "double", "value" : 0.0},
                      "default-anchor1" : { "type": "double", "value" : 0.0},
                      "default-anchor2" : { "type": "double", "value" : 0.0},
                      "default-height" : { "type": "double", "value" : 250.0},
                      "default-rotation0" : { "type": "double", "value" : 0.0},
                      "default-rotation1" : { "type": "double", "value" : 0.0},
                      "default-rotation2" : { "type": "double", "value" : 0.0},
                      "default-scale0" : { "type": "double", "value" : 1.0},
                      "default-scale1" : { "type": "double", "value" : 1.0},
                      "default-scale2" : { "type": "double", "value" : 1.0},
                      "default-shear0" : { "type": "double", "value" : 0.0},
                      "default-shear1" : { "type": "double", "value" : 0.0},
                      "default-shear2" : { "type": "double", "value" : 0.0},
                      "default-text-attributes" : "[{\"name\":\"fontSize\",\"rangeEnd\":18,\"rangeStart\":0,\"value\":104.0,\"valueType\":\"double\"},{\"name\":\"fontName\",\"rangeEnd\":18,\"rangeStart\":0,\"value\":\"Arial\",\"valueType\":\"string\"},{\"name\":\"strikethrough\",\"rangeEnd\":18,\"rangeStart\":0,\"value\":0,\"valueType\":\"int\"},{\"name\":\"fontItalic\",\"rangeEnd\":18,\"rangeStart\":0,\"value\":0,\"valueType\":\"int\"},{\"name\":\"fontWeight\",\"rangeEnd\":18,\"rangeStart\":0,\"value\":700,\"valueType\":\"int\"},{\"name\":\"underline\",\"rangeEnd\":18,\"rangeStart\":0,\"value\":0,\"valueType\":\"int\"},{\"name\":\"kerning\",\"rangeEnd\":18,\"rangeStart\":0,\"value\":0.0,\"valueType\":\"double\"},{\"name\":\"fgColor\",\"rangeEnd\":18,\"rangeStart\":0,\"value\":\"(216,222,227,255)\",\"valueType\":\"color\"}]",
                      "default-text-stroke-color-blue" : { "type": "double", "value" : 0.0},
                      "default-text-stroke-color-green" : { "type": "double", "value" : 0.0},
                      "default-text-stroke-color-red" : { "type": "double", "value" : 0.0},
                      "default-text-stroke-opacity" : { "type": "double", "value" : 1.0},
                      "default-text-stroke-width" : { "type": "double", "value" : 0.0},
                      "default-translation0" : { "type": "double", "value" : 0.0},
                      "default-translation1" : { "type": "double", "value" : 0.0},
                      "default-translation2" : { "type": "double", "value" : 0.0},
                      "default-width" : { "type": "double", "value" : 400.0}
                    },
                    "animationTracks" : {

                    }
                  },
                  {
                    "id" : 165,
                    "_type" : "Callout",
                    "def" : {
                        "kind" : "remix",
                        "shape" : "text",
                        "style" : "bold",
                        "corner-radius" : {
                          "type" : "double",
                          "defaultValue" : 0.0,
                          "interp" : "linr"
                        },
                        "enable-ligatures" : {
                          "type" : "double",
                          "defaultValue" : 1.0,
                          "interp" : "linr"
                        },
                        "height" : {
                          "type" : "double",
                          "defaultValue" : 232.228941684665,
                          "interp" : "linr"
                        },
                        "line-spacing" : {
                          "type" : "double",
                          "defaultValue" : -0.08,
                          "interp" : "linr"
                        },
                        "text-stroke-alignment" : {
                          "type" : "double",
                          "defaultValue" : 2.0,
                          "interp" : "linr"
                        },
                        "text-stroke-color-alpha" : {
                          "type" : "double",
                          "defaultValue" : 0.0,
                          "interp" : "linr"
                        },
                        "text-stroke-color-blue" : {
                          "type" : "double",
                          "defaultValue" : 0.890196078431372,
                          "interp" : "linr"
                        },
                        "text-stroke-color-green" : {
                          "type" : "double",
                          "defaultValue" : 0.870588235294118,
                          "interp" : "linr"
                        },
                        "text-stroke-color-red" : {
                          "type" : "double",
                          "defaultValue" : 0.847058823529412,
                          "interp" : "linr"
                        },
                        "text-stroke-width" : {
                          "type" : "double",
                          "defaultValue" : 0.0,
                          "interp" : "linr"
                        },
                        "width" : {
                          "type" : "double",
                          "defaultValue" : 461.0,
                          "interp" : "linr"
                        },
                        "word-wrap" : {
                          "type" : "double",
                          "defaultValue" : 1.0,
                          "interp" : "linr"
                        },
                        "horizontal-alignment" : "left",
                        "resize-behavior" : "resizeText",
                        "text" : "Confirm Icon Editor opens",
                        "vertical-alignment" : "center",
                        "font" : {
                          "color-blue" : {
                            "type" : "double",
                            "defaultValue" : 1.0,
                            "interp" : "linr"
                          },
                          "color-green" : {
                            "type" : "double",
                            "defaultValue" : 1.0,
                            "interp" : "linr"
                          },
                          "color-red" : {
                            "type" : "double",
                            "defaultValue" : 1.0,
                            "interp" : "linr"
                          },
                          "size" : {
                            "type" : "double",
                            "defaultValue" : 96.0,
                            "interp" : "linr"
                          },
                          "tracking" : {
                            "type" : "double",
                            "defaultValue" : 0.0,
                            "interp" : "linr"
                          },
                          "name" : "Source Sans Pro",
                          "weight" : "Semi Bold"
                        },
                        "textAttributes" : {
                          "type" : "textAttributeList",
                          "keyframes" : [
                            {
                              "endTime" : 0,
                              "time" : 0,
                              "value" : [{"name":"fgColor","rangeEnd":25,"rangeStart":0,"value":"(216,222,227,255)","valueType":"color"},{"name":"strikethrough","rangeEnd":25,"rangeStart":0,"value":0,"valueType":"int"},{"name":"fontItalic","rangeEnd":25,"rangeStart":0,"value":0,"valueType":"int"},{"name":"fontWeight","rangeEnd":25,"rangeStart":0,"value":700,"valueType":"int"},{"name":"underline","rangeEnd":25,"rangeStart":0,"value":0,"valueType":"int"},{"name":"fontName","rangeEnd":25,"rangeStart":0,"value":"Arial","valueType":"string"},{"name":"kerning","rangeEnd":25,"rangeStart":0,"value":0.0,"valueType":"double"},{"name":"fontSize","rangeEnd":25,"rangeStart":0,"value":104.0,"valueType":"double"}],
                              "duration" : 0
                            }
                          ]
                        }
                    },
                    "attributes" : {
                      "ident" : "",
                      "autoRotateText" : true
                    },
                    "parameters" : {
                      "translation0" : {
                        "type" : "double",
                        "defaultValue" : -729.5,
                        "interp" : "eioe"
                      },
                      "translation1" : {
                        "type" : "double",
                        "defaultValue" : -423.885529157667,
                        "interp" : "eioe"
                      },
                      "geometryCrop0" : {
                        "type" : "double",
                        "defaultValue" : 0.0,
                        "interp" : "eioe"
                      },
                      "geometryCrop1" : {
                        "type" : "double",
                        "defaultValue" : 0.0,
                        "interp" : "eioe"
                      },
                      "geometryCrop2" : {
                        "type" : "double",
                        "defaultValue" : 0.0,
                        "interp" : "eioe"
                      },
                      "geometryCrop3" : {
                        "type" : "double",
                        "defaultValue" : 0.0,
                        "interp" : "eioe"
                      }
                    },
                    "effects" : [

                    ],
                    "start" : 134393280000,
                    "duration" : 7220640000,
                    "mediaStart" : 0,
                    "mediaDuration" : 7220640000,
                    "scalar" : 1,
                    "metadata" : {
                      "audiateLinkedSession" : "",
                      "clipSpeedAttribute" : { "type": "bool", "value" : false},
                      "colorAttribute" : { "type": "color", "value" : [ 0, 0, 0, 0]},
                      "default-HAlign" : "center",
                      "default-LineSpace" : { "type": "double", "value" : 0.0},
                      "default-VAlign" : "center",
                      "default-anchor0" : { "type": "double", "value" : 0.0},
                      "default-anchor1" : { "type": "double", "value" : 0.0},
                      "default-anchor2" : { "type": "double", "value" : 0.0},
                      "default-height" : { "type": "double", "value" : 250.0},
                      "default-rotation0" : { "type": "double", "value" : 0.0},
                      "default-rotation1" : { "type": "double", "value" : 0.0},
                      "default-rotation2" : { "type": "double", "value" : 0.0},
                      "default-scale0" : { "type": "double", "value" : 1.0},
                      "default-scale1" : { "type": "double", "value" : 1.0},
                      "default-scale2" : { "type": "double", "value" : 1.0},
                      "default-shear0" : { "type": "double", "value" : 0.0},
                      "default-shear1" : { "type": "double", "value" : 0.0},
                      "default-shear2" : { "type": "double", "value" : 0.0},
                      "default-text-attributes" : "[{\"name\":\"fontSize\",\"rangeEnd\":18,\"rangeStart\":0,\"value\":104.0,\"valueType\":\"double\"},{\"name\":\"fontName\",\"rangeEnd\":18,\"rangeStart\":0,\"value\":\"Arial\",\"valueType\":\"string\"},{\"name\":\"strikethrough\",\"rangeEnd\":18,\"rangeStart\":0,\"value\":0,\"valueType\":\"int\"},{\"name\":\"fontItalic\",\"rangeEnd\":18,\"rangeStart\":0,\"value\":0,\"valueType\":\"int\"},{\"name\":\"fontWeight\",\"rangeEnd\":18,\"rangeStart\":0,\"value\":700,\"valueType\":\"int\"},{\"name\":\"underline\",\"rangeEnd\":18,\"rangeStart\":0,\"value\":0,\"valueType\":\"int\"},{\"name\":\"kerning\",\"rangeEnd\":18,\"rangeStart\":0,\"value\":0.0,\"valueType\":\"double\"},{\"name\":\"fgColor\",\"rangeEnd\":18,\"rangeStart\":0,\"value\":\"(216,222,227,255)\",\"valueType\":\"color\"}]",
                      "default-text-stroke-color-blue" : { "type": "double", "value" : 0.0},
                      "default-text-stroke-color-green" : { "type": "double", "value" : 0.0},
                      "default-text-stroke-color-red" : { "type": "double", "value" : 0.0},
                      "default-text-stroke-opacity" : { "type": "double", "value" : 1.0},
                      "default-text-stroke-width" : { "type": "double", "value" : 0.0},
                      "default-translation0" : { "type": "double", "value" : 0.0},
                      "default-translation1" : { "type": "double", "value" : 0.0},
                      "default-translation2" : { "type": "double", "value" : 0.0},
                      "default-width" : { "type": "double", "value" : 400.0}
                    },
                    "animationTracks" : {

                    }
                  }
                ]
              },
              {
                "trackIndex" : 3,
                "medias" : [
                  {
                    "id" : 166,
                    "_type" : "Callout",
                    "def" : {
                        "kind" : "remix",
                        "shape" : "text",
                        "style" : "bold",
                        "corner-radius" : {
                          "type" : "double",
                          "defaultValue" : 0.0,
                          "interp" : "linr"
                        },
                        "enable-ligatures" : {
                          "type" : "double",
                          "defaultValue" : 1.0,
                          "interp" : "linr"
                        },
                        "height" : {
                          "type" : "double",
                          "defaultValue" : 126.228941684665,
                          "interp" : "linr"
                        },
                        "line-spacing" : {
                          "type" : "double",
                          "defaultValue" : -0.08,
                          "interp" : "linr"
                        },
                        "text-stroke-alignment" : {
                          "type" : "double",
                          "defaultValue" : 2.0,
                          "interp" : "linr"
                        },
                        "text-stroke-color-alpha" : {
                          "type" : "double",
                          "defaultValue" : 0.0,
                          "interp" : "linr"
                        },
                        "text-stroke-color-blue" : {
                          "type" : "double",
                          "defaultValue" : 0.890196078431372,
                          "interp" : "linr"
                        },
                        "text-stroke-color-green" : {
                          "type" : "double",
                          "defaultValue" : 0.870588235294118,
                          "interp" : "linr"
                        },
                        "text-stroke-color-red" : {
                          "type" : "double",
                          "defaultValue" : 0.847058823529412,
                          "interp" : "linr"
                        },
                        "text-stroke-width" : {
                          "type" : "double",
                          "defaultValue" : 0.0,
                          "interp" : "linr"
                        },
                        "width" : {
                          "type" : "double",
                          "defaultValue" : 999.0,
                          "interp" : "linr"
                        },
                        "word-wrap" : {
                          "type" : "double",
                          "defaultValue" : 1.0,
                          "interp" : "linr"
                        },
                        "horizontal-alignment" : "left",
                        "resize-behavior" : "resizeText",
                        "text" : "Default Icon Editor",
                        "vertical-alignment" : "center",
                        "font" : {
                          "color-blue" : {
                            "type" : "double",
                            "defaultValue" : 1.0,
                            "interp" : "linr"
                          },
                          "color-green" : {
                            "type" : "double",
                            "defaultValue" : 1.0,
                            "interp" : "linr"
                          },
                          "color-red" : {
                            "type" : "double",
                            "defaultValue" : 1.0,
                            "interp" : "linr"
                          },
                          "size" : {
                            "type" : "double",
                            "defaultValue" : 96.0,
                            "interp" : "linr"
                          },
                          "tracking" : {
                            "type" : "double",
                            "defaultValue" : 0.0,
                            "interp" : "linr"
                          },
                          "name" : "Source Sans Pro",
                          "weight" : "Semi Bold"
                        },
                        "textAttributes" : {
                          "type" : "textAttributeList",
                          "keyframes" : [
                            {
                              "endTime" : 0,
                              "time" : 0,
                              "value" : [{"name":"fontItalic","rangeEnd":19,"rangeStart":0,"value":0,"valueType":"int"},{"name":"strikethrough","rangeEnd":19,"rangeStart":0,"value":0,"valueType":"int"},{"name":"underline","rangeEnd":19,"rangeStart":0,"value":0,"valueType":"int"},{"name":"fgColor","rangeEnd":19,"rangeStart":0,"value":"(255,255,255,255)","valueType":"color"},{"name":"kerning","rangeEnd":19,"rangeStart":0,"value":0.0,"valueType":"double"},{"name":"fontName","rangeEnd":19,"rangeStart":0,"value":"Source Sans Pro","valueType":"string"},{"name":"fontWeight","rangeEnd":19,"rangeStart":0,"value":400,"valueType":"int"},{"name":"fontSize","rangeEnd":19,"rangeStart":0,"value":96.0,"valueType":"double"}],
                              "duration" : 0
                            }
                          ]
                        }
                    },
                    "attributes" : {
                      "ident" : "",
                      "autoRotateText" : true
                    },
                    "parameters" : {
                      "translation0" : {
                        "type" : "double",
                        "defaultValue" : -460.5,
                        "interp" : "eioe"
                      },
                      "translation1" : {
                        "type" : "double",
                        "defaultValue" : -449.885529157667,
                        "interp" : "eioe"
                      },
                      "geometryCrop0" : {
                        "type" : "double",
                        "defaultValue" : 0.0,
                        "interp" : "eioe"
                      },
                      "geometryCrop1" : {
                        "type" : "double",
                        "defaultValue" : 0.0,
                        "interp" : "eioe"
                      },
                      "geometryCrop2" : {
                        "type" : "double",
                        "defaultValue" : 0.0,
                        "interp" : "eioe"
                      },
                      "geometryCrop3" : {
                        "type" : "double",
                        "defaultValue" : 0.0,
                        "interp" : "eioe"
                      }
                    },
                    "effects" : [

                    ],
                    "start" : 5103840000,
                    "duration" : 14747040000,
                    "mediaStart" : 1528800000,
                    "mediaDuration" : 14747040000,
                    "scalar" : 1,
                    "metadata" : {
                      "audiateLinkedSession" : "",
                      "clipSpeedAttribute" : { "type": "bool", "value" : false},
                      "colorAttribute" : { "type": "color", "value" : [ 0, 0, 0, 0]},
                      "default-HAlign" : "center",
                      "default-LineSpace" : { "type": "double", "value" : 0.0},
                      "default-VAlign" : "center",
                      "default-anchor0" : { "type": "double", "value" : 0.0},
                      "default-anchor1" : { "type": "double", "value" : 0.0},
                      "default-anchor2" : { "type": "double", "value" : 0.0},
                      "default-height" : { "type": "double", "value" : 250.0},
                      "default-rotation0" : { "type": "double", "value" : 0.0},
                      "default-rotation1" : { "type": "double", "value" : 0.0},
                      "default-rotation2" : { "type": "double", "value" : 0.0},
                      "default-scale0" : { "type": "double", "value" : 1.0},
                      "default-scale1" : { "type": "double", "value" : 1.0},
                      "default-scale2" : { "type": "double", "value" : 1.0},
                      "default-shear0" : { "type": "double", "value" : 0.0},
                      "default-shear1" : { "type": "double", "value" : 0.0},
                      "default-shear2" : { "type": "double", "value" : 0.0},
                      "default-text-attributes" : "[{\"name\":\"fgColor\",\"rangeEnd\":14,\"rangeStart\":0,\"value\":\"(216,222,227,255)\",\"valueType\":\"color\"},{\"name\":\"fontItalic\",\"rangeEnd\":14,\"rangeStart\":0,\"value\":0,\"valueType\":\"int\"},{\"name\":\"fontWeight\",\"rangeEnd\":14,\"rangeStart\":0,\"value\":700,\"valueType\":\"int\"},{\"name\":\"fontSize\",\"rangeEnd\":14,\"rangeStart\":0,\"value\":104.0,\"valueType\":\"double\"},{\"name\":\"underline\",\"rangeEnd\":14,\"rangeStart\":0,\"value\":0,\"valueType\":\"int\"},{\"name\":\"kerning\",\"rangeEnd\":14,\"rangeStart\":0,\"value\":0.0,\"valueType\":\"double\"},{\"name\":\"fontName\",\"rangeEnd\":14,\"rangeStart\":0,\"value\":\"Arial\",\"valueType\":\"string\"},{\"name\":\"strikethrough\",\"rangeEnd\":14,\"rangeStart\":0,\"value\":0,\"valueType\":\"int\"}]",
                      "default-text-stroke-color-blue" : { "type": "double", "value" : 0.0},
                      "default-text-stroke-color-green" : { "type": "double", "value" : 0.0},
                      "default-text-stroke-color-red" : { "type": "double", "value" : 0.0},
                      "default-text-stroke-opacity" : { "type": "double", "value" : 1.0},
                      "default-text-stroke-width" : { "type": "double", "value" : 0.0},
                      "default-translation0" : { "type": "double", "value" : 0.0},
                      "default-translation1" : { "type": "double", "value" : 0.0},
                      "default-translation2" : { "type": "double", "value" : 0.0},
                      "default-width" : { "type": "double", "value" : 400.0}
                    },
                    "animationTracks" : {

                    }
                  },
                  {
                    "id" : 167,
                    "_type" : "Callout",
                    "def" : {
                        "kind" : "remix",
                        "shape" : "text",
                        "style" : "bold",
                        "corner-radius" : {
                          "type" : "double",
                          "defaultValue" : 0.0,
                          "interp" : "linr"
                        },
                        "enable-ligatures" : {
                          "type" : "double",
                          "defaultValue" : 1.0,
                          "interp" : "linr"
                        },
                        "height" : {
                          "type" : "double",
                          "defaultValue" : 126.228941684665,
                          "interp" : "linr"
                        },
                        "line-spacing" : {
                          "type" : "double",
                          "defaultValue" : -0.08,
                          "interp" : "linr"
                        },
                        "text-stroke-alignment" : {
                          "type" : "double",
                          "defaultValue" : 2.0,
                          "interp" : "linr"
                        },
                        "text-stroke-color-alpha" : {
                          "type" : "double",
                          "defaultValue" : 0.0,
                          "interp" : "linr"
                        },
                        "text-stroke-color-blue" : {
                          "type" : "double",
                          "defaultValue" : 0.890196078431372,
                          "interp" : "linr"
                        },
                        "text-stroke-color-green" : {
                          "type" : "double",
                          "defaultValue" : 0.870588235294118,
                          "interp" : "linr"
                        },
                        "text-stroke-color-red" : {
                          "type" : "double",
                          "defaultValue" : 0.847058823529412,
                          "interp" : "linr"
                        },
                        "text-stroke-width" : {
                          "type" : "double",
                          "defaultValue" : 0.0,
                          "interp" : "linr"
                        },
                        "width" : {
                          "type" : "double",
                          "defaultValue" : 999.0,
                          "interp" : "linr"
                        },
                        "word-wrap" : {
                          "type" : "double",
                          "defaultValue" : 1.0,
                          "interp" : "linr"
                        },
                        "horizontal-alignment" : "left",
                        "resize-behavior" : "resizeText",
                        "text" : "Open VIPM in Admin mode",
                        "vertical-alignment" : "center",
                        "font" : {
                          "color-blue" : {
                            "type" : "double",
                            "defaultValue" : 1.0,
                            "interp" : "linr"
                          },
                          "color-green" : {
                            "type" : "double",
                            "defaultValue" : 1.0,
                            "interp" : "linr"
                          },
                          "color-red" : {
                            "type" : "double",
                            "defaultValue" : 1.0,
                            "interp" : "linr"
                          },
                          "size" : {
                            "type" : "double",
                            "defaultValue" : 96.0,
                            "interp" : "linr"
                          },
                          "tracking" : {
                            "type" : "double",
                            "defaultValue" : 0.0,
                            "interp" : "linr"
                          },
                          "name" : "Source Sans Pro",
                          "weight" : "Semi Bold"
                        },
                        "textAttributes" : {
                          "type" : "textAttributeList",
                          "keyframes" : [
                            {
                              "endTime" : 0,
                              "time" : 0,
                              "value" : [{"name":"underline","rangeEnd":23,"rangeStart":0,"value":0,"valueType":"int"},{"name":"fontWeight","rangeEnd":23,"rangeStart":0,"value":400,"valueType":"int"},{"name":"fontName","rangeEnd":23,"rangeStart":0,"value":"Source Sans Pro","valueType":"string"},{"name":"fontItalic","rangeEnd":23,"rangeStart":0,"value":0,"valueType":"int"},{"name":"strikethrough","rangeEnd":23,"rangeStart":0,"value":0,"valueType":"int"},{"name":"kerning","rangeEnd":23,"rangeStart":0,"value":0.0,"valueType":"double"},{"name":"fgColor","rangeEnd":23,"rangeStart":0,"value":"(255,255,255,255)","valueType":"color"},{"name":"fontSize","rangeEnd":23,"rangeStart":0,"value":96.0,"valueType":"double"}],
                              "duration" : 0
                            }
                          ]
                        }
                    },
                    "attributes" : {
                      "ident" : "",
                      "autoRotateText" : true
                    },
                    "parameters" : {
                      "translation0" : {
                        "type" : "double",
                        "defaultValue" : -460.5,
                        "interp" : "eioe"
                      },
                      "translation1" : {
                        "type" : "double",
                        "defaultValue" : -449.885529157667,
                        "interp" : "eioe"
                      },
                      "geometryCrop0" : {
                        "type" : "double",
                        "defaultValue" : 0.0,
                        "interp" : "eioe"
                      },
                      "geometryCrop1" : {
                        "type" : "double",
                        "defaultValue" : 0.0,
                        "interp" : "eioe"
                      },
                      "geometryCrop2" : {
                        "type" : "double",
                        "defaultValue" : 0.0,
                        "interp" : "eioe"
                      },
                      "geometryCrop3" : {
                        "type" : "double",
                        "defaultValue" : 0.0,
                        "interp" : "eioe"
                      }
                    },
                    "effects" : [

                    ],
                    "start" : 19850880000,
                    "duration" : 10207680000,
                    "mediaStart" : 14017920000,
                    "mediaDuration" : 10207680000,
                    "scalar" : 1,
                    "metadata" : {
                      "audiateLinkedSession" : "",
                      "clipSpeedAttribute" : { "type": "bool", "value" : false},
                      "colorAttribute" : { "type": "color", "value" : [ 0, 0, 0, 0]},
                      "default-HAlign" : "center",
                      "default-LineSpace" : { "type": "double", "value" : 0.0},
                      "default-VAlign" : "center",
                      "default-anchor0" : { "type": "double", "value" : 0.0},
                      "default-anchor1" : { "type": "double", "value" : 0.0},
                      "default-anchor2" : { "type": "double", "value" : 0.0},
                      "default-height" : { "type": "double", "value" : 250.0},
                      "default-rotation0" : { "type": "double", "value" : 0.0},
                      "default-rotation1" : { "type": "double", "value" : 0.0},
                      "default-rotation2" : { "type": "double", "value" : 0.0},
                      "default-scale0" : { "type": "double", "value" : 1.0},
                      "default-scale1" : { "type": "double", "value" : 1.0},
                      "default-scale2" : { "type": "double", "value" : 1.0},
                      "default-shear0" : { "type": "double", "value" : 0.0},
                      "default-shear1" : { "type": "double", "value" : 0.0},
                      "default-shear2" : { "type": "double", "value" : 0.0},
                      "default-text-attributes" : "[{\"name\":\"fgColor\",\"rangeEnd\":14,\"rangeStart\":0,\"value\":\"(216,222,227,255)\",\"valueType\":\"color\"},{\"name\":\"fontItalic\",\"rangeEnd\":14,\"rangeStart\":0,\"value\":0,\"valueType\":\"int\"},{\"name\":\"fontWeight\",\"rangeEnd\":14,\"rangeStart\":0,\"value\":700,\"valueType\":\"int\"},{\"name\":\"fontSize\",\"rangeEnd\":14,\"rangeStart\":0,\"value\":104.0,\"valueType\":\"double\"},{\"name\":\"underline\",\"rangeEnd\":14,\"rangeStart\":0,\"value\":0,\"valueType\":\"int\"},{\"name\":\"kerning\",\"rangeEnd\":14,\"rangeStart\":0,\"value\":0.0,\"valueType\":\"double\"},{\"name\":\"fontName\",\"rangeEnd\":14,\"rangeStart\":0,\"value\":\"Arial\",\"valueType\":\"string\"},{\"name\":\"strikethrough\",\"rangeEnd\":14,\"rangeStart\":0,\"value\":0,\"valueType\":\"int\"}]",
                      "default-text-stroke-color-blue" : { "type": "double", "value" : 0.0},
                      "default-text-stroke-color-green" : { "type": "double", "value" : 0.0},
                      "default-text-stroke-color-red" : { "type": "double", "value" : 0.0},
                      "default-text-stroke-opacity" : { "type": "double", "value" : 1.0},
                      "default-text-stroke-width" : { "type": "double", "value" : 0.0},
                      "default-translation0" : { "type": "double", "value" : 0.0},
                      "default-translation1" : { "type": "double", "value" : 0.0},
                      "default-translation2" : { "type": "double", "value" : 0.0},
                      "default-width" : { "type": "double", "value" : 400.0}
                    },
                    "animationTracks" : {

                    }
                  },
                  {
                    "id" : 168,
                    "_type" : "Callout",
                    "def" : {
                        "kind" : "remix",
                        "shape" : "text",
                        "style" : "bold",
                        "corner-radius" : {
                          "type" : "double",
                          "defaultValue" : 0.0,
                          "interp" : "linr"
                        },
                        "enable-ligatures" : {
                          "type" : "double",
                          "defaultValue" : 1.0,
                          "interp" : "linr"
                        },
                        "height" : {
                          "type" : "double",
                          "defaultValue" : 126.228941684665,
                          "interp" : "linr"
                        },
                        "line-spacing" : {
                          "type" : "double",
                          "defaultValue" : -0.08,
                          "interp" : "linr"
                        },
                        "text-stroke-alignment" : {
                          "type" : "double",
                          "defaultValue" : 2.0,
                          "interp" : "linr"
                        },
                        "text-stroke-color-alpha" : {
                          "type" : "double",
                          "defaultValue" : 0.0,
                          "interp" : "linr"
                        },
                        "text-stroke-color-blue" : {
                          "type" : "double",
                          "defaultValue" : 0.890196078431372,
                          "interp" : "linr"
                        },
                        "text-stroke-color-green" : {
                          "type" : "double",
                          "defaultValue" : 0.870588235294118,
                          "interp" : "linr"
                        },
                        "text-stroke-color-red" : {
                          "type" : "double",
                          "defaultValue" : 0.847058823529412,
                          "interp" : "linr"
                        },
                        "text-stroke-width" : {
                          "type" : "double",
                          "defaultValue" : 0.0,
                          "interp" : "linr"
                        },
                        "width" : {
                          "type" : "double",
                          "defaultValue" : 426.0,
                          "interp" : "linr"
                        },
                        "word-wrap" : {
                          "type" : "double",
                          "defaultValue" : 1.0,
                          "interp" : "linr"
                        },
                        "horizontal-alignment" : "left",
                        "resize-behavior" : "resizeText",
                        "text" : "Open Github",
                        "vertical-alignment" : "center",
                        "font" : {
                          "color-blue" : {
                            "type" : "double",
                            "defaultValue" : 1.0,
                            "interp" : "linr"
                          },
                          "color-green" : {
                            "type" : "double",
                            "defaultValue" : 1.0,
                            "interp" : "linr"
                          },
                          "color-red" : {
                            "type" : "double",
                            "defaultValue" : 1.0,
                            "interp" : "linr"
                          },
                          "size" : {
                            "type" : "double",
                            "defaultValue" : 96.0,
                            "interp" : "linr"
                          },
                          "tracking" : {
                            "type" : "double",
                            "defaultValue" : 0.0,
                            "interp" : "linr"
                          },
                          "name" : "Source Sans Pro",
                          "weight" : "Semi Bold"
                        },
                        "textAttributes" : {
                          "type" : "textAttributeList",
                          "keyframes" : [
                            {
                              "endTime" : 0,
                              "time" : 0,
                              "value" : [{"name":"fontName","rangeEnd":11,"rangeStart":0,"value":"Source Sans Pro","valueType":"string"},{"name":"fgColor","rangeEnd":11,"rangeStart":0,"value":"(255,255,255,255)","valueType":"color"},{"name":"underline","rangeEnd":11,"rangeStart":0,"value":0,"valueType":"int"},{"name":"fontItalic","rangeEnd":11,"rangeStart":0,"value":0,"valueType":"int"},{"name":"kerning","rangeEnd":11,"rangeStart":0,"value":0.0,"valueType":"double"},{"name":"fontSize","rangeEnd":11,"rangeStart":0,"value":96.0,"valueType":"double"},{"name":"fontWeight","rangeEnd":11,"rangeStart":0,"value":400,"valueType":"int"},{"name":"strikethrough","rangeEnd":11,"rangeStart":0,"value":0,"valueType":"int"}],
                              "duration" : 0
                            }
                          ]
                        }
                    },
                    "attributes" : {
                      "ident" : "",
                      "autoRotateText" : true
                    },
                    "parameters" : {
                      "translation0" : {
                        "type" : "double",
                        "defaultValue" : -747.0,
                        "interp" : "eioe"
                      },
                      "translation1" : {
                        "type" : "double",
                        "defaultValue" : -449.885529157667,
                        "interp" : "eioe"
                      },
                      "geometryCrop0" : {
                        "type" : "double",
                        "defaultValue" : 0.0,
                        "interp" : "eioe"
                      },
                      "geometryCrop1" : {
                        "type" : "double",
                        "defaultValue" : 0.0,
                        "interp" : "eioe"
                      },
                      "geometryCrop2" : {
                        "type" : "double",
                        "defaultValue" : 0.0,
                        "interp" : "eioe"
                      },
                      "geometryCrop3" : {
                        "type" : "double",
                        "defaultValue" : 0.0,
                        "interp" : "eioe"
                      }
                    },
                    "effects" : [

                    ],
                    "start" : 30058560000,
                    "duration" : 7432320000,
                    "mediaStart" : 14017920000,
                    "mediaDuration" : 7432320000,
                    "scalar" : 1,
                    "metadata" : {
                      "audiateLinkedSession" : "",
                      "clipSpeedAttribute" : { "type": "bool", "value" : false},
                      "colorAttribute" : { "type": "color", "value" : [ 0, 0, 0, 0]},
                      "default-HAlign" : "center",
                      "default-LineSpace" : { "type": "double", "value" : 0.0},
                      "default-VAlign" : "center",
                      "default-anchor0" : { "type": "double", "value" : 0.0},
                      "default-anchor1" : { "type": "double", "value" : 0.0},
                      "default-anchor2" : { "type": "double", "value" : 0.0},
                      "default-height" : { "type": "double", "value" : 250.0},
                      "default-rotation0" : { "type": "double", "value" : 0.0},
                      "default-rotation1" : { "type": "double", "value" : 0.0},
                      "default-rotation2" : { "type": "double", "value" : 0.0},
                      "default-scale0" : { "type": "double", "value" : 1.0},
                      "default-scale1" : { "type": "double", "value" : 1.0},
                      "default-scale2" : { "type": "double", "value" : 1.0},
                      "default-shear0" : { "type": "double", "value" : 0.0},
                      "default-shear1" : { "type": "double", "value" : 0.0},
                      "default-shear2" : { "type": "double", "value" : 0.0},
                      "default-text-attributes" : "[{\"name\":\"fgColor\",\"rangeEnd\":14,\"rangeStart\":0,\"value\":\"(216,222,227,255)\",\"valueType\":\"color\"},{\"name\":\"fontItalic\",\"rangeEnd\":14,\"rangeStart\":0,\"value\":0,\"valueType\":\"int\"},{\"name\":\"fontWeight\",\"rangeEnd\":14,\"rangeStart\":0,\"value\":700,\"valueType\":\"int\"},{\"name\":\"fontSize\",\"rangeEnd\":14,\"rangeStart\":0,\"value\":104.0,\"valueType\":\"double\"},{\"name\":\"underline\",\"rangeEnd\":14,\"rangeStart\":0,\"value\":0,\"valueType\":\"int\"},{\"name\":\"kerning\",\"rangeEnd\":14,\"rangeStart\":0,\"value\":0.0,\"valueType\":\"double\"},{\"name\":\"fontName\",\"rangeEnd\":14,\"rangeStart\":0,\"value\":\"Arial\",\"valueType\":\"string\"},{\"name\":\"strikethrough\",\"rangeEnd\":14,\"rangeStart\":0,\"value\":0,\"valueType\":\"int\"}]",
                      "default-text-stroke-color-blue" : { "type": "double", "value" : 0.0},
                      "default-text-stroke-color-green" : { "type": "double", "value" : 0.0},
                      "default-text-stroke-color-red" : { "type": "double", "value" : 0.0},
                      "default-text-stroke-opacity" : { "type": "double", "value" : 1.0},
                      "default-text-stroke-width" : { "type": "double", "value" : 0.0},
                      "default-translation0" : { "type": "double", "value" : 0.0},
                      "default-translation1" : { "type": "double", "value" : 0.0},
                      "default-translation2" : { "type": "double", "value" : 0.0},
                      "default-width" : { "type": "double", "value" : 400.0}
                    },
                    "animationTracks" : {

                    }
                  },
                  {
                    "id" : 169,
                    "_type" : "Callout",
                    "def" : {
                        "kind" : "remix",
                        "shape" : "text",
                        "style" : "bold",
                        "corner-radius" : {
                          "type" : "double",
                          "defaultValue" : 0.0,
                          "interp" : "linr"
                        },
                        "enable-ligatures" : {
                          "type" : "double",
                          "defaultValue" : 1.0,
                          "interp" : "linr"
                        },
                        "height" : {
                          "type" : "double",
                          "defaultValue" : 126.228941684665,
                          "interp" : "linr"
                        },
                        "line-spacing" : {
                          "type" : "double",
                          "defaultValue" : -0.08,
                          "interp" : "linr"
                        },
                        "text-stroke-alignment" : {
                          "type" : "double",
                          "defaultValue" : 2.0,
                          "interp" : "linr"
                        },
                        "text-stroke-color-alpha" : {
                          "type" : "double",
                          "defaultValue" : 0.0,
                          "interp" : "linr"
                        },
                        "text-stroke-color-blue" : {
                          "type" : "double",
                          "defaultValue" : 0.890196078431372,
                          "interp" : "linr"
                        },
                        "text-stroke-color-green" : {
                          "type" : "double",
                          "defaultValue" : 0.870588235294118,
                          "interp" : "linr"
                        },
                        "text-stroke-color-red" : {
                          "type" : "double",
                          "defaultValue" : 0.847058823529412,
                          "interp" : "linr"
                        },
                        "text-stroke-width" : {
                          "type" : "double",
                          "defaultValue" : 0.0,
                          "interp" : "linr"
                        },
                        "width" : {
                          "type" : "double",
                          "defaultValue" : 426.0,
                          "interp" : "linr"
                        },
                        "word-wrap" : {
                          "type" : "double",
                          "defaultValue" : 1.0,
                          "interp" : "linr"
                        },
                        "horizontal-alignment" : "left",
                        "resize-behavior" : "resizeText",
                        "text" : "Open Releases",
                        "vertical-alignment" : "center",
                        "font" : {
                          "color-blue" : {
                            "type" : "double",
                            "defaultValue" : 1.0,
                            "interp" : "linr"
                          },
                          "color-green" : {
                            "type" : "double",
                            "defaultValue" : 1.0,
                            "interp" : "linr"
                          },
                          "color-red" : {
                            "type" : "double",
                            "defaultValue" : 1.0,
                            "interp" : "linr"
                          },
                          "size" : {
                            "type" : "double",
                            "defaultValue" : 96.0,
                            "interp" : "linr"
                          },
                          "tracking" : {
                            "type" : "double",
                            "defaultValue" : 0.0,
                            "interp" : "linr"
                          },
                          "name" : "Source Sans Pro",
                          "weight" : "Semi Bold"
                        },
                        "textAttributes" : {
                          "type" : "textAttributeList",
                          "keyframes" : [
                            {
                              "endTime" : 0,
                              "time" : 0,
                              "value" : [{"name":"fontName","rangeEnd":13,"rangeStart":0,"value":"Source Sans Pro","valueType":"string"},{"name":"fontItalic","rangeEnd":13,"rangeStart":0,"value":0,"valueType":"int"},{"name":"fontWeight","rangeEnd":13,"rangeStart":0,"value":400,"valueType":"int"},{"name":"underline","rangeEnd":13,"rangeStart":0,"value":0,"valueType":"int"},{"name":"fgColor","rangeEnd":13,"rangeStart":0,"value":"(255,255,255,255)","valueType":"color"},{"name":"kerning","rangeEnd":13,"rangeStart":0,"value":0.0,"valueType":"double"},{"name":"fontSize","rangeEnd":13,"rangeStart":0,"value":96.0,"valueType":"double"},{"name":"strikethrough","rangeEnd":13,"rangeStart":0,"value":0,"valueType":"int"}],
                              "duration" : 0
                            }
                          ]
                        }
                    },
                    "attributes" : {
                      "ident" : "",
                      "autoRotateText" : true
                    },
                    "parameters" : {
                      "translation0" : {
                        "type" : "double",
                        "defaultValue" : -747.0,
                        "interp" : "eioe"
                      },
                      "translation1" : {
                        "type" : "double",
                        "defaultValue" : -449.885529157667,
                        "interp" : "eioe"
                      },
                      "geometryCrop0" : {
                        "type" : "double",
                        "defaultValue" : 0.0,
                        "interp" : "eioe"
                      },
                      "geometryCrop1" : {
                        "type" : "double",
                        "defaultValue" : 0.0,
                        "interp" : "eioe"
                      },
                      "geometryCrop2" : {
                        "type" : "double",
                        "defaultValue" : 0.0,
                        "interp" : "eioe"
                      },
                      "geometryCrop3" : {
                        "type" : "double",
                        "defaultValue" : 0.0,
                        "interp" : "eioe"
                      }
                    },
                    "effects" : [

                    ],
                    "start" : 39678240000,
                    "duration" : 3998400000,
                    "mediaStart" : 14017920000,
                    "mediaDuration" : 3998400000,
                    "scalar" : 1,
                    "metadata" : {
                      "audiateLinkedSession" : "",
                      "clipSpeedAttribute" : { "type": "bool", "value" : false},
                      "colorAttribute" : { "type": "color", "value" : [ 0, 0, 0, 0]},
                      "default-HAlign" : "center",
                      "default-LineSpace" : { "type": "double", "value" : 0.0},
                      "default-VAlign" : "center",
                      "default-anchor0" : { "type": "double", "value" : 0.0},
                      "default-anchor1" : { "type": "double", "value" : 0.0},
                      "default-anchor2" : { "type": "double", "value" : 0.0},
                      "default-height" : { "type": "double", "value" : 250.0},
                      "default-rotation0" : { "type": "double", "value" : 0.0},
                      "default-rotation1" : { "type": "double", "value" : 0.0},
                      "default-rotation2" : { "type": "double", "value" : 0.0},
                      "default-scale0" : { "type": "double", "value" : 1.0},
                      "default-scale1" : { "type": "double", "value" : 1.0},
                      "default-scale2" : { "type": "double", "value" : 1.0},
                      "default-shear0" : { "type": "double", "value" : 0.0},
                      "default-shear1" : { "type": "double", "value" : 0.0},
                      "default-shear2" : { "type": "double", "value" : 0.0},
                      "default-text-attributes" : "[{\"name\":\"fgColor\",\"rangeEnd\":14,\"rangeStart\":0,\"value\":\"(216,222,227,255)\",\"valueType\":\"color\"},{\"name\":\"fontItalic\",\"rangeEnd\":14,\"rangeStart\":0,\"value\":0,\"valueType\":\"int\"},{\"name\":\"fontWeight\",\"rangeEnd\":14,\"rangeStart\":0,\"value\":700,\"valueType\":\"int\"},{\"name\":\"fontSize\",\"rangeEnd\":14,\"rangeStart\":0,\"value\":104.0,\"valueType\":\"double\"},{\"name\":\"underline\",\"rangeEnd\":14,\"rangeStart\":0,\"value\":0,\"valueType\":\"int\"},{\"name\":\"kerning\",\"rangeEnd\":14,\"rangeStart\":0,\"value\":0.0,\"valueType\":\"double\"},{\"name\":\"fontName\",\"rangeEnd\":14,\"rangeStart\":0,\"value\":\"Arial\",\"valueType\":\"string\"},{\"name\":\"strikethrough\",\"rangeEnd\":14,\"rangeStart\":0,\"value\":0,\"valueType\":\"int\"}]",
                      "default-text-stroke-color-blue" : { "type": "double", "value" : 0.0},
                      "default-text-stroke-color-green" : { "type": "double", "value" : 0.0},
                      "default-text-stroke-color-red" : { "type": "double", "value" : 0.0},
                      "default-text-stroke-opacity" : { "type": "double", "value" : 1.0},
                      "default-text-stroke-width" : { "type": "double", "value" : 0.0},
                      "default-translation0" : { "type": "double", "value" : 0.0},
                      "default-translation1" : { "type": "double", "value" : 0.0},
                      "default-translation2" : { "type": "double", "value" : 0.0},
                      "default-width" : { "type": "double", "value" : 400.0}
                    },
                    "animationTracks" : {

                    }
                  },
                  {
                    "id" : 170,
                    "_type" : "Callout",
                    "def" : {
                        "kind" : "remix",
                        "shape" : "text",
                        "style" : "bold",
                        "corner-radius" : 0.0,
                        "enable-ligatures" : 1.0,
                        "height" : 253.228941684665,
                        "line-spacing" : -0.08,
                        "text-stroke-alignment" : 2.0,
                        "text-stroke-color-alpha" : 0.0,
                        "text-stroke-color-blue" : 0.890196078431372,
                        "text-stroke-color-green" : 0.870588235294118,
                        "text-stroke-color-red" : 0.847058823529412,
                        "text-stroke-width" : 0.0,
                        "width" : 364.0,
                        "word-wrap" : 1.0,
                        "horizontal-alignment" : "left",
                        "resize-behavior" : "resizeText",
                        "text" : "How to install",
                        "vertical-alignment" : "center",
                        "font" : {
                          "color-blue" : 1.0,
                          "color-green" : 1.0,
                          "color-red" : 1.0,
                          "size" : 96.0,
                          "tracking" : 0.0,
                          "name" : "Source Sans Pro",
                          "weight" : "Semi Bold"
                        },
                        "textAttributes" : {
                          "type" : "textAttributeList",
                          "keyframes" : [
                            {
                              "endTime" : 0,
                              "time" : 0,
                              "value" : [{"name":"fgColor","rangeEnd":14,"rangeStart":0,"value":"(216,222,227,255)","valueType":"color"},{"name":"fontItalic","rangeEnd":14,"rangeStart":0,"value":0,"valueType":"int"},{"name":"fontWeight","rangeEnd":14,"rangeStart":0,"value":700,"valueType":"int"},{"name":"fontSize","rangeEnd":14,"rangeStart":0,"value":104.0,"valueType":"double"},{"name":"underline","rangeEnd":14,"rangeStart":0,"value":0,"valueType":"int"},{"name":"kerning","rangeEnd":14,"rangeStart":0,"value":0.0,"valueType":"double"},{"name":"fontName","rangeEnd":14,"rangeStart":0,"value":"Arial","valueType":"string"},{"name":"strikethrough","rangeEnd":14,"rangeStart":0,"value":0,"valueType":"int"}],
                              "duration" : 0
                            }
                          ]
                        }
                    },
                    "attributes" : {
                      "ident" : "",
                      "autoRotateText" : true
                    },
                    "parameters" : {
                      "translation0" : -778.0,
                      "translation1" : -389.385529157667,
                      "geometryCrop0" : 0.0,
                      "geometryCrop1" : 0.0,
                      "geometryCrop2" : 0.0,
                      "geometryCrop3" : 0.0
                    },
                    "effects" : [

                    ],
                    "start" : 43676640000,
                    "duration" : 6585600000,
                    "mediaStart" : 0,
                    "mediaDuration" : 6585600000,
                    "scalar" : 1,
                    "metadata" : {
                      "audiateLinkedSession" : "",
                      "clipSpeedAttribute" : { "type": "bool", "value" : false},
                      "colorAttribute" : { "type": "color", "value" : [ 0, 0, 0, 0]},
                      "default-HAlign" : "center",
                      "default-LineSpace" : { "type": "double", "value" : 0.0},
                      "default-VAlign" : "center",
                      "default-anchor0" : { "type": "double", "value" : 0.0},
                      "default-anchor1" : { "type": "double", "value" : 0.0},
                      "default-anchor2" : { "type": "double", "value" : 0.0},
                      "default-height" : { "type": "double", "value" : 250.0},
                      "default-rotation0" : { "type": "double", "value" : 0.0},
                      "default-rotation1" : { "type": "double", "value" : 0.0},
                      "default-rotation2" : { "type": "double", "value" : 0.0},
                      "default-scale0" : { "type": "double", "value" : 1.0},
                      "default-scale1" : { "type": "double", "value" : 1.0},
                      "default-scale2" : { "type": "double", "value" : 1.0},
                      "default-shear0" : { "type": "double", "value" : 0.0},
                      "default-shear1" : { "type": "double", "value" : 0.0},
                      "default-shear2" : { "type": "double", "value" : 0.0},
                      "default-text-stroke-color-blue" : { "type": "double", "value" : 0.0},
                      "default-text-stroke-color-green" : { "type": "double", "value" : 0.0},
                      "default-text-stroke-color-red" : { "type": "double", "value" : 0.0},
                      "default-text-stroke-opacity" : { "type": "double", "value" : 1.0},
                      "default-text-stroke-width" : { "type": "double", "value" : 0.0},
                      "default-translation0" : { "type": "double", "value" : 0.0},
                      "default-translation1" : { "type": "double", "value" : 0.0},
                      "default-translation2" : { "type": "double", "value" : 0.0},
                      "default-width" : { "type": "double", "value" : 400.0}
                    },
                    "animationTracks" : {

                    }
                  },
                  {
                    "id" : 171,
                    "_type" : "Callout",
                    "def" : {
                        "kind" : "remix",
                        "shape" : "text",
                        "style" : "bold",
                        "corner-radius" : {
                          "type" : "double",
                          "defaultValue" : 0.0,
                          "interp" : "linr"
                        },
                        "enable-ligatures" : {
                          "type" : "double",
                          "defaultValue" : 1.0,
                          "interp" : "linr"
                        },
                        "height" : {
                          "type" : "double",
                          "defaultValue" : 253.228941684665,
                          "interp" : "linr"
                        },
                        "line-spacing" : {
                          "type" : "double",
                          "defaultValue" : -0.08,
                          "interp" : "linr"
                        },
                        "text-stroke-alignment" : {
                          "type" : "double",
                          "defaultValue" : 2.0,
                          "interp" : "linr"
                        },
                        "text-stroke-color-alpha" : {
                          "type" : "double",
                          "defaultValue" : 0.0,
                          "interp" : "linr"
                        },
                        "text-stroke-color-blue" : {
                          "type" : "double",
                          "defaultValue" : 0.890196078431372,
                          "interp" : "linr"
                        },
                        "text-stroke-color-green" : {
                          "type" : "double",
                          "defaultValue" : 0.870588235294118,
                          "interp" : "linr"
                        },
                        "text-stroke-color-red" : {
                          "type" : "double",
                          "defaultValue" : 0.847058823529412,
                          "interp" : "linr"
                        },
                        "text-stroke-width" : {
                          "type" : "double",
                          "defaultValue" : 0.0,
                          "interp" : "linr"
                        },
                        "width" : {
                          "type" : "double",
                          "defaultValue" : 426.0,
                          "interp" : "linr"
                        },
                        "word-wrap" : {
                          "type" : "double",
                          "defaultValue" : 1.0,
                          "interp" : "linr"
                        },
                        "horizontal-alignment" : "left",
                        "resize-behavior" : "resizeText",
                        "text" : "Download VI Package",
                        "vertical-alignment" : "center",
                        "font" : {
                          "color-blue" : {
                            "type" : "double",
                            "defaultValue" : 1.0,
                            "interp" : "linr"
                          },
                          "color-green" : {
                            "type" : "double",
                            "defaultValue" : 1.0,
                            "interp" : "linr"
                          },
                          "color-red" : {
                            "type" : "double",
                            "defaultValue" : 1.0,
                            "interp" : "linr"
                          },
                          "size" : {
                            "type" : "double",
                            "defaultValue" : 96.0,
                            "interp" : "linr"
                          },
                          "tracking" : {
                            "type" : "double",
                            "defaultValue" : 0.0,
                            "interp" : "linr"
                          },
                          "name" : "Source Sans Pro",
                          "weight" : "Semi Bold"
                        },
                        "textAttributes" : {
                          "type" : "textAttributeList",
                          "keyframes" : [
                            {
                              "endTime" : 0,
                              "time" : 0,
                              "value" : [{"name":"fontItalic","rangeEnd":19,"rangeStart":0,"value":0,"valueType":"int"},{"name":"fontSize","rangeEnd":19,"rangeStart":0,"value":104.0,"valueType":"double"},{"name":"kerning","rangeEnd":19,"rangeStart":0,"value":0.0,"valueType":"double"},{"name":"fontName","rangeEnd":19,"rangeStart":0,"value":"Arial","valueType":"string"},{"name":"fontWeight","rangeEnd":19,"rangeStart":0,"value":700,"valueType":"int"},{"name":"strikethrough","rangeEnd":19,"rangeStart":0,"value":0,"valueType":"int"},{"name":"underline","rangeEnd":19,"rangeStart":0,"value":0,"valueType":"int"},{"name":"fgColor","rangeEnd":19,"rangeStart":0,"value":"(216,222,227,255)","valueType":"color"}],
                              "duration" : 0
                            }
                          ]
                        }
                    },
                    "attributes" : {
                      "ident" : "",
                      "autoRotateText" : true
                    },
                    "parameters" : {
                      "translation0" : {
                        "type" : "double",
                        "defaultValue" : -747.0,
                        "interp" : "eioe"
                      },
                      "translation1" : {
                        "type" : "double",
                        "defaultValue" : -413.385529157668,
                        "interp" : "eioe"
                      },
                      "geometryCrop0" : {
                        "type" : "double",
                        "defaultValue" : 0.0,
                        "interp" : "eioe"
                      },
                      "geometryCrop1" : {
                        "type" : "double",
                        "defaultValue" : 0.0,
                        "interp" : "eioe"
                      },
                      "geometryCrop2" : {
                        "type" : "double",
                        "defaultValue" : 0.0,
                        "interp" : "eioe"
                      },
                      "geometryCrop3" : {
                        "type" : "double",
                        "defaultValue" : 0.0,
                        "interp" : "eioe"
                      }
                    },
                    "effects" : [

                    ],
                    "start" : 50262240000,
                    "duration" : 10513440000,
                    "mediaStart" : 0,
                    "mediaDuration" : 10513440000,
                    "scalar" : 1,
                    "metadata" : {
                      "audiateLinkedSession" : "",
                      "clipSpeedAttribute" : { "type": "bool", "value" : false},
                      "colorAttribute" : { "type": "color", "value" : [ 0, 0, 0, 0]},
                      "default-HAlign" : "center",
                      "default-LineSpace" : { "type": "double", "value" : 0.0},
                      "default-VAlign" : "center",
                      "default-anchor0" : { "type": "double", "value" : 0.0},
                      "default-anchor1" : { "type": "double", "value" : 0.0},
                      "default-anchor2" : { "type": "double", "value" : 0.0},
                      "default-height" : { "type": "double", "value" : 250.0},
                      "default-rotation0" : { "type": "double", "value" : 0.0},
                      "default-rotation1" : { "type": "double", "value" : 0.0},
                      "default-rotation2" : { "type": "double", "value" : 0.0},
                      "default-scale0" : { "type": "double", "value" : 1.0},
                      "default-scale1" : { "type": "double", "value" : 1.0},
                      "default-scale2" : { "type": "double", "value" : 1.0},
                      "default-shear0" : { "type": "double", "value" : 0.0},
                      "default-shear1" : { "type": "double", "value" : 0.0},
                      "default-shear2" : { "type": "double", "value" : 0.0},
                      "default-text-attributes" : "[{\"name\":\"fgColor\",\"rangeEnd\":14,\"rangeStart\":0,\"value\":\"(216,222,227,255)\",\"valueType\":\"color\"},{\"name\":\"fontItalic\",\"rangeEnd\":14,\"rangeStart\":0,\"value\":0,\"valueType\":\"int\"},{\"name\":\"fontWeight\",\"rangeEnd\":14,\"rangeStart\":0,\"value\":700,\"valueType\":\"int\"},{\"name\":\"fontSize\",\"rangeEnd\":14,\"rangeStart\":0,\"value\":104.0,\"valueType\":\"double\"},{\"name\":\"underline\",\"rangeEnd\":14,\"rangeStart\":0,\"value\":0,\"valueType\":\"int\"},{\"name\":\"kerning\",\"rangeEnd\":14,\"rangeStart\":0,\"value\":0.0,\"valueType\":\"double\"},{\"name\":\"fontName\",\"rangeEnd\":14,\"rangeStart\":0,\"value\":\"Arial\",\"valueType\":\"string\"},{\"name\":\"strikethrough\",\"rangeEnd\":14,\"rangeStart\":0,\"value\":0,\"valueType\":\"int\"}]",
                      "default-text-stroke-color-blue" : { "type": "double", "value" : 0.0},
                      "default-text-stroke-color-green" : { "type": "double", "value" : 0.0},
                      "default-text-stroke-color-red" : { "type": "double", "value" : 0.0},
                      "default-text-stroke-opacity" : { "type": "double", "value" : 1.0},
                      "default-text-stroke-width" : { "type": "double", "value" : 0.0},
                      "default-translation0" : { "type": "double", "value" : 0.0},
                      "default-translation1" : { "type": "double", "value" : 0.0},
                      "default-translation2" : { "type": "double", "value" : 0.0},
                      "default-width" : { "type": "double", "value" : 400.0}
                    },
                    "animationTracks" : {

                    }
                  },
                  {
                    "id" : 172,
                    "_type" : "Callout",
                    "def" : {
                        "kind" : "remix",
                        "shape" : "text",
                        "style" : "bold",
                        "corner-radius" : {
                          "type" : "double",
                          "defaultValue" : 0.0,
                          "interp" : "linr"
                        },
                        "enable-ligatures" : {
                          "type" : "double",
                          "defaultValue" : 1.0,
                          "interp" : "linr"
                        },
                        "height" : {
                          "type" : "double",
                          "defaultValue" : 253.228941684665,
                          "interp" : "linr"
                        },
                        "line-spacing" : {
                          "type" : "double",
                          "defaultValue" : -0.08,
                          "interp" : "linr"
                        },
                        "text-stroke-alignment" : {
                          "type" : "double",
                          "defaultValue" : 2.0,
                          "interp" : "linr"
                        },
                        "text-stroke-color-alpha" : {
                          "type" : "double",
                          "defaultValue" : 0.0,
                          "interp" : "linr"
                        },
                        "text-stroke-color-blue" : {
                          "type" : "double",
                          "defaultValue" : 0.890196078431372,
                          "interp" : "linr"
                        },
                        "text-stroke-color-green" : {
                          "type" : "double",
                          "defaultValue" : 0.870588235294118,
                          "interp" : "linr"
                        },
                        "text-stroke-color-red" : {
                          "type" : "double",
                          "defaultValue" : 0.847058823529412,
                          "interp" : "linr"
                        },
                        "text-stroke-width" : {
                          "type" : "double",
                          "defaultValue" : 0.0,
                          "interp" : "linr"
                        },
                        "width" : {
                          "type" : "double",
                          "defaultValue" : 426.0,
                          "interp" : "linr"
                        },
                        "word-wrap" : {
                          "type" : "double",
                          "defaultValue" : 1.0,
                          "interp" : "linr"
                        },
                        "horizontal-alignment" : "left",
                        "resize-behavior" : "resizeText",
                        "text" : "Open VI Package",
                        "vertical-alignment" : "center",
                        "font" : {
                          "color-blue" : {
                            "type" : "double",
                            "defaultValue" : 1.0,
                            "interp" : "linr"
                          },
                          "color-green" : {
                            "type" : "double",
                            "defaultValue" : 1.0,
                            "interp" : "linr"
                          },
                          "color-red" : {
                            "type" : "double",
                            "defaultValue" : 1.0,
                            "interp" : "linr"
                          },
                          "size" : {
                            "type" : "double",
                            "defaultValue" : 96.0,
                            "interp" : "linr"
                          },
                          "tracking" : {
                            "type" : "double",
                            "defaultValue" : 0.0,
                            "interp" : "linr"
                          },
                          "name" : "Source Sans Pro",
                          "weight" : "Semi Bold"
                        },
                        "textAttributes" : {
                          "type" : "textAttributeList",
                          "keyframes" : [
                            {
                              "endTime" : 0,
                              "time" : 0,
                              "value" : [{"name":"strikethrough","rangeEnd":15,"rangeStart":0,"value":0,"valueType":"int"},{"name":"fontSize","rangeEnd":15,"rangeStart":0,"value":104.0,"valueType":"double"},{"name":"fontName","rangeEnd":15,"rangeStart":0,"value":"Arial","valueType":"string"},{"name":"fontItalic","rangeEnd":15,"rangeStart":0,"value":0,"valueType":"int"},{"name":"fontWeight","rangeEnd":15,"rangeStart":0,"value":700,"valueType":"int"},{"name":"kerning","rangeEnd":15,"rangeStart":0,"value":0.0,"valueType":"double"},{"name":"underline","rangeEnd":15,"rangeStart":0,"value":0,"valueType":"int"},{"name":"fgColor","rangeEnd":15,"rangeStart":0,"value":"(216,222,227,255)","valueType":"color"}],
                              "duration" : 0
                            }
                          ]
                        }
                    },
                    "attributes" : {
                      "ident" : "",
                      "autoRotateText" : true
                    },
                    "parameters" : {
                      "translation0" : {
                        "type" : "double",
                        "defaultValue" : -747.0,
                        "interp" : "eioe"
                      },
                      "translation1" : {
                        "type" : "double",
                        "defaultValue" : -397.385529157668,
                        "interp" : "eioe"
                      },
                      "geometryCrop0" : {
                        "type" : "double",
                        "defaultValue" : 0.0,
                        "interp" : "eioe"
                      },
                      "geometryCrop1" : {
                        "type" : "double",
                        "defaultValue" : 0.0,
                        "interp" : "eioe"
                      },
                      "geometryCrop2" : {
                        "type" : "double",
                        "defaultValue" : 0.0,
                        "interp" : "eioe"
                      },
                      "geometryCrop3" : {
                        "type" : "double",
                        "defaultValue" : 0.0,
                        "interp" : "eioe"
                      }
                    },
                    "effects" : [

                    ],
                    "start" : 60775680000,
                    "duration" : 8137920000,
                    "mediaStart" : 0,
                    "mediaDuration" : 8137920000,
                    "scalar" : 1,
                    "metadata" : {
                      "audiateLinkedSession" : "",
                      "clipSpeedAttribute" : { "type": "bool", "value" : false},
                      "colorAttribute" : { "type": "color", "value" : [ 0, 0, 0, 0]},
                      "default-HAlign" : "center",
                      "default-LineSpace" : { "type": "double", "value" : 0.0},
                      "default-VAlign" : "center",
                      "default-anchor0" : { "type": "double", "value" : 0.0},
                      "default-anchor1" : { "type": "double", "value" : 0.0},
                      "default-anchor2" : { "type": "double", "value" : 0.0},
                      "default-height" : { "type": "double", "value" : 250.0},
                      "default-rotation0" : { "type": "double", "value" : 0.0},
                      "default-rotation1" : { "type": "double", "value" : 0.0},
                      "default-rotation2" : { "type": "double", "value" : 0.0},
                      "default-scale0" : { "type": "double", "value" : 1.0},
                      "default-scale1" : { "type": "double", "value" : 1.0},
                      "default-scale2" : { "type": "double", "value" : 1.0},
                      "default-shear0" : { "type": "double", "value" : 0.0},
                      "default-shear1" : { "type": "double", "value" : 0.0},
                      "default-shear2" : { "type": "double", "value" : 0.0},
                      "default-text-attributes" : "[{\"name\":\"fgColor\",\"rangeEnd\":14,\"rangeStart\":0,\"value\":\"(216,222,227,255)\",\"valueType\":\"color\"},{\"name\":\"fontItalic\",\"rangeEnd\":14,\"rangeStart\":0,\"value\":0,\"valueType\":\"int\"},{\"name\":\"fontWeight\",\"rangeEnd\":14,\"rangeStart\":0,\"value\":700,\"valueType\":\"int\"},{\"name\":\"fontSize\",\"rangeEnd\":14,\"rangeStart\":0,\"value\":104.0,\"valueType\":\"double\"},{\"name\":\"underline\",\"rangeEnd\":14,\"rangeStart\":0,\"value\":0,\"valueType\":\"int\"},{\"name\":\"kerning\",\"rangeEnd\":14,\"rangeStart\":0,\"value\":0.0,\"valueType\":\"double\"},{\"name\":\"fontName\",\"rangeEnd\":14,\"rangeStart\":0,\"value\":\"Arial\",\"valueType\":\"string\"},{\"name\":\"strikethrough\",\"rangeEnd\":14,\"rangeStart\":0,\"value\":0,\"valueType\":\"int\"}]",
                      "default-text-stroke-color-blue" : { "type": "double", "value" : 0.0},
                      "default-text-stroke-color-green" : { "type": "double", "value" : 0.0},
                      "default-text-stroke-color-red" : { "type": "double", "value" : 0.0},
                      "default-text-stroke-opacity" : { "type": "double", "value" : 1.0},
                      "default-text-stroke-width" : { "type": "double", "value" : 0.0},
                      "default-translation0" : { "type": "double", "value" : 0.0},
                      "default-translation1" : { "type": "double", "value" : 0.0},
                      "default-translation2" : { "type": "double", "value" : 0.0},
                      "default-width" : { "type": "double", "value" : 400.0}
                    },
                    "animationTracks" : {

                    }
                  },
                  {
                    "id" : 173,
                    "_type" : "Callout",
                    "def" : {
                        "kind" : "remix",
                        "shape" : "text",
                        "style" : "bold",
                        "corner-radius" : {
                          "type" : "double",
                          "defaultValue" : 0.0,
                          "interp" : "linr"
                        },
                        "enable-ligatures" : {
                          "type" : "double",
                          "defaultValue" : 1.0,
                          "interp" : "linr"
                        },
                        "height" : {
                          "type" : "double",
                          "defaultValue" : 219.228941684665,
                          "interp" : "linr"
                        },
                        "line-spacing" : {
                          "type" : "double",
                          "defaultValue" : -0.08,
                          "interp" : "linr"
                        },
                        "text-stroke-alignment" : {
                          "type" : "double",
                          "defaultValue" : 2.0,
                          "interp" : "linr"
                        },
                        "text-stroke-color-alpha" : {
                          "type" : "double",
                          "defaultValue" : 0.0,
                          "interp" : "linr"
                        },
                        "text-stroke-color-blue" : {
                          "type" : "double",
                          "defaultValue" : 0.890196078431372,
                          "interp" : "linr"
                        },
                        "text-stroke-color-green" : {
                          "type" : "double",
                          "defaultValue" : 0.870588235294118,
                          "interp" : "linr"
                        },
                        "text-stroke-color-red" : {
                          "type" : "double",
                          "defaultValue" : 0.847058823529412,
                          "interp" : "linr"
                        },
                        "text-stroke-width" : {
                          "type" : "double",
                          "defaultValue" : 0.0,
                          "interp" : "linr"
                        },
                        "width" : {
                          "type" : "double",
                          "defaultValue" : 467.0,
                          "interp" : "linr"
                        },
                        "word-wrap" : {
                          "type" : "double",
                          "defaultValue" : 1.0,
                          "interp" : "linr"
                        },
                        "horizontal-alignment" : "left",
                        "resize-behavior" : "resizeText",
                        "text" : "Install VI Package",
                        "vertical-alignment" : "center",
                        "font" : {
                          "color-blue" : {
                            "type" : "double",
                            "defaultValue" : 1.0,
                            "interp" : "linr"
                          },
                          "color-green" : {
                            "type" : "double",
                            "defaultValue" : 1.0,
                            "interp" : "linr"
                          },
                          "color-red" : {
                            "type" : "double",
                            "defaultValue" : 1.0,
                            "interp" : "linr"
                          },
                          "size" : {
                            "type" : "double",
                            "defaultValue" : 96.0,
                            "interp" : "linr"
                          },
                          "tracking" : {
                            "type" : "double",
                            "defaultValue" : 0.0,
                            "interp" : "linr"
                          },
                          "name" : "Source Sans Pro",
                          "weight" : "Semi Bold"
                        },
                        "textAttributes" : {
                          "type" : "textAttributeList",
                          "keyframes" : [
                            {
                              "endTime" : 0,
                              "time" : 0,
                              "value" : [{"name":"fgColor","rangeEnd":18,"rangeStart":0,"value":"(216,222,227,255)","valueType":"color"},{"name":"fontName","rangeEnd":18,"rangeStart":0,"value":"Arial","valueType":"string"},{"name":"fontItalic","rangeEnd":18,"rangeStart":0,"value":0,"valueType":"int"},{"name":"strikethrough","rangeEnd":18,"rangeStart":0,"value":0,"valueType":"int"},{"name":"kerning","rangeEnd":18,"rangeStart":0,"value":0.0,"valueType":"double"},{"name":"fontWeight","rangeEnd":18,"rangeStart":0,"value":700,"valueType":"int"},{"name":"underline","rangeEnd":18,"rangeStart":0,"value":0,"valueType":"int"},{"name":"fontSize","rangeEnd":18,"rangeStart":0,"value":104.0,"valueType":"double"}],
                              "duration" : 0
                            }
                          ]
                        }
                    },
                    "attributes" : {
                      "ident" : "",
                      "autoRotateText" : true
                    },
                    "parameters" : {
                      "translation0" : {
                        "type" : "double",
                        "defaultValue" : -726.5,
                        "interp" : "eioe"
                      },
                      "translation1" : {
                        "type" : "double",
                        "defaultValue" : -393.385529157667,
                        "interp" : "eioe"
                      },
                      "geometryCrop0" : {
                        "type" : "double",
                        "defaultValue" : 0.0,
                        "interp" : "eioe"
                      },
                      "geometryCrop1" : {
                        "type" : "double",
                        "defaultValue" : 0.0,
                        "interp" : "eioe"
                      },
                      "geometryCrop2" : {
                        "type" : "double",
                        "defaultValue" : 0.0,
                        "interp" : "eioe"
                      },
                      "geometryCrop3" : {
                        "type" : "double",
                        "defaultValue" : 0.0,
                        "interp" : "eioe"
                      }
                    },
                    "effects" : [

                    ],
                    "start" : 68913600000,
                    "duration" : 13594560000,
                    "mediaStart" : 0,
                    "mediaDuration" : 13594560000,
                    "scalar" : 1,
                    "metadata" : {
                      "audiateLinkedSession" : "",
                      "clipSpeedAttribute" : { "type": "bool", "value" : false},
                      "colorAttribute" : { "type": "color", "value" : [ 0, 0, 0, 0]},
                      "default-HAlign" : "center",
                      "default-LineSpace" : { "type": "double", "value" : 0.0},
                      "default-VAlign" : "center",
                      "default-anchor0" : { "type": "double", "value" : 0.0},
                      "default-anchor1" : { "type": "double", "value" : 0.0},
                      "default-anchor2" : { "type": "double", "value" : 0.0},
                      "default-height" : { "type": "double", "value" : 250.0},
                      "default-rotation0" : { "type": "double", "value" : 0.0},
                      "default-rotation1" : { "type": "double", "value" : 0.0},
                      "default-rotation2" : { "type": "double", "value" : 0.0},
                      "default-scale0" : { "type": "double", "value" : 1.0},
                      "default-scale1" : { "type": "double", "value" : 1.0},
                      "default-scale2" : { "type": "double", "value" : 1.0},
                      "default-shear0" : { "type": "double", "value" : 0.0},
                      "default-shear1" : { "type": "double", "value" : 0.0},
                      "default-shear2" : { "type": "double", "value" : 0.0},
                      "default-text-attributes" : "[{\"name\":\"fgColor\",\"rangeEnd\":14,\"rangeStart\":0,\"value\":\"(216,222,227,255)\",\"valueType\":\"color\"},{\"name\":\"fontItalic\",\"rangeEnd\":14,\"rangeStart\":0,\"value\":0,\"valueType\":\"int\"},{\"name\":\"fontWeight\",\"rangeEnd\":14,\"rangeStart\":0,\"value\":700,\"valueType\":\"int\"},{\"name\":\"fontSize\",\"rangeEnd\":14,\"rangeStart\":0,\"value\":104.0,\"valueType\":\"double\"},{\"name\":\"underline\",\"rangeEnd\":14,\"rangeStart\":0,\"value\":0,\"valueType\":\"int\"},{\"name\":\"kerning\",\"rangeEnd\":14,\"rangeStart\":0,\"value\":0.0,\"valueType\":\"double\"},{\"name\":\"fontName\",\"rangeEnd\":14,\"rangeStart\":0,\"value\":\"Arial\",\"valueType\":\"string\"},{\"name\":\"strikethrough\",\"rangeEnd\":14,\"rangeStart\":0,\"value\":0,\"valueType\":\"int\"}]",
                      "default-text-stroke-color-blue" : { "type": "double", "value" : 0.0},
                      "default-text-stroke-color-green" : { "type": "double", "value" : 0.0},
                      "default-text-stroke-color-red" : { "type": "double", "value" : 0.0},
                      "default-text-stroke-opacity" : { "type": "double", "value" : 1.0},
                      "default-text-stroke-width" : { "type": "double", "value" : 0.0},
                      "default-translation0" : { "type": "double", "value" : 0.0},
                      "default-translation1" : { "type": "double", "value" : 0.0},
                      "default-translation2" : { "type": "double", "value" : 0.0},
                      "default-width" : { "type": "double", "value" : 400.0}
                    },
                    "animationTracks" : {

                    }
                  },
                  {
                    "id" : 174,
                    "_type" : "Callout",
                    "def" : {
                        "kind" : "remix",
                        "shape" : "text-arrow",
                        "style" : "bold",
                        "corner-radius" : 0.0,
                        "enable-ligatures" : 1.0,
                        "fill-color-blue" : 0.109803921568627,
                        "fill-color-green" : 0.274509803921569,
                        "fill-color-opacity" : 1.0,
                        "fill-color-red" : 0.898039215686275,
                        "height" : 81.0,
                        "line-spacing" : 0.0,
                        "stroke-color-blue" : 1.0,
                        "stroke-color-green" : 1.0,
                        "stroke-color-opacity" : 1.0,
                        "stroke-color-red" : 1.0,
                        "stroke-width" : 0.0,
                        "tail-x" : 0.0,
                        "tail-y" : -20.0,
                        "text-stroke-alignment" : 2.0,
                        "text-stroke-color-alpha" : 1.0,
                        "text-stroke-color-blue" : 0.0,
                        "text-stroke-color-green" : 0.0,
                        "text-stroke-color-red" : 0.0,
                        "text-stroke-width" : 0.0,
                        "width" : 244.0,
                        "word-wrap" : 1.0,
                        "fill-style" : "solid",
                        "horizontal-alignment" : "center",
                        "resize-behavior" : "resizeText",
                        "stroke-style" : "solid",
                        "text" : "Acknowledge, and restart LabVIEW",
                        "vertical-alignment" : "center",
                        "font" : {
                          "color-blue" : 1.0,
                          "color-green" : 1.0,
                          "color-red" : 1.0,
                          "size" : 70.0,
                          "tracking" : 0.0,
                          "name" : "Source Sans Pro",
                          "weight" : "Semi Bold"
                        },
                        "textAttributes" : {
                          "type" : "textAttributeList",
                          "keyframes" : [
                            {
                              "endTime" : 0,
                              "time" : 0,
                              "value" : [{"name":"fontSize","rangeEnd":32,"rangeStart":0,"value":70.0,"valueType":"double"},{"name":"fgColor","rangeEnd":32,"rangeStart":0,"value":"(255,255,255,255)","valueType":"color"},{"name":"fontName","rangeEnd":32,"rangeStart":0,"value":"Source Sans Pro","valueType":"string"},{"name":"fontItalic","rangeEnd":32,"rangeStart":0,"value":0,"valueType":"int"},{"name":"fontWeight","rangeEnd":32,"rangeStart":0,"value":400,"valueType":"int"},{"name":"underline","rangeEnd":32,"rangeStart":0,"value":0,"valueType":"int"},{"name":"strikethrough","rangeEnd":32,"rangeStart":0,"value":0,"valueType":"int"},{"name":"kerning","rangeEnd":32,"rangeStart":0,"value":0.0,"valueType":"double"}],
                              "duration" : 0
                            }
                          ]
                        }
                    },
                    "attributes" : {
                      "ident" : "",
                      "autoRotateText" : true
                    },
                    "parameters" : {
                      "translation0" : -339.230769230769,
                      "translation1" : 118.115384615385,
                      "geometryCrop0" : 0.0,
                      "geometryCrop1" : 0.0,
                      "geometryCrop2" : 0.0,
                      "geometryCrop3" : 0.0,
                      "toc" : {
                        "type" : "string",
                        "keyframes" : [
                          {
                            "endTime" : 1528800000,
                            "time" : 1528800000,
                            "value" : "Marker 26",
                            "duration" : 0,
                            "metadata" : {
                              "markerIdentifier" : "B182186F-CC49-4491-8958-010B23D9E5D7"
                            }
                          }
                        ]
                      }
                    },
                    "effects" : [

                    ],
                    "start" : 117012000000,
                    "duration" : 5550720000,
                    "mediaStart" : 0,
                    "mediaDuration" : 5550720000,
                    "scalar" : 1,
                    "metadata" : {
                      "audiateLinkedSession" : "",
                      "clipSpeedAttribute" : { "type": "bool", "value" : false},
                      "colorAttribute" : { "type": "color", "value" : [ 0, 0, 0, 0]},
                      "default-HAlign" : "center",
                      "default-LineSpace" : { "type": "double", "value" : 0.0},
                      "default-VAlign" : "center",
                      "default-anchor0" : { "type": "double", "value" : 0.0},
                      "default-anchor1" : { "type": "double", "value" : 0.0},
                      "default-anchor2" : { "type": "double", "value" : 0.0},
                      "default-height" : { "type": "double", "value" : 154.0},
                      "default-rotation0" : { "type": "double", "value" : 0.0},
                      "default-rotation1" : { "type": "double", "value" : 0.0},
                      "default-rotation2" : { "type": "double", "value" : 0.0},
                      "default-scale0" : { "type": "double", "value" : 1.0},
                      "default-scale1" : { "type": "double", "value" : 1.0},
                      "default-scale2" : { "type": "double", "value" : 1.0},
                      "default-shear0" : { "type": "double", "value" : 0.0},
                      "default-shear1" : { "type": "double", "value" : 0.0},
                      "default-shear2" : { "type": "double", "value" : 0.0},
                      "default-text-stroke-color-blue" : { "type": "double", "value" : 0.0},
                      "default-text-stroke-color-green" : { "type": "double", "value" : 0.0},
                      "default-text-stroke-color-red" : { "type": "double", "value" : 0.0},
                      "default-text-stroke-opacity" : { "type": "double", "value" : 1.0},
                      "default-text-stroke-width" : { "type": "double", "value" : 0.0},
                      "default-translation0" : { "type": "double", "value" : 0.0},
                      "default-translation1" : { "type": "double", "value" : 0.0},
                      "default-translation2" : { "type": "double", "value" : 0.0},
                      "default-width" : { "type": "double", "value" : 452.0}
                    },
                    "animationTracks" : {

                    }
                  }
                ]
              }            ]
          }
        }
      ]
    },
    "trackAttributes" : [
      {
        "ident" : "",
        "audioMuted" : false,
        "videoHidden" : false,
        "magnetic" : false,
        "matte" : 0,
        "solo" : false,
        "metadata" : {
          "IsLocked" : "False",
          "WinTrackHeight" : "0"
        }
      },
      {
        "ident" : "",
        "audioMuted" : false,
        "videoHidden" : false,
        "magnetic" : false,
        "matte" : 0,
        "solo" : false,
        "metadata" : {
          "IsLocked" : "False",
          "WinTrackHeight" : "56"
        }
      },
      {
        "ident" : "",
        "audioMuted" : false,
        "videoHidden" : false,
        "magnetic" : false,
        "matte" : 0,
        "solo" : false,
        "metadata" : {
          "IsLocked" : "False",
          "WinTrackHeight" : "56"
        }
      },
      {
        "ident" : "",
        "audioMuted" : false,
        "videoHidden" : false,
        "magnetic" : false,
        "matte" : 0,
        "solo" : false,
        "metadata" : {
          "IsLocked" : "False",
          "WinTrackHeight" : "56"
        }
      }
    ],
    "parameters" : {
      "toc" : {
        "type" : "string",
        "keyframes" : [
          {
            "endTime" : 24390240000,
            "time" : 24390240000,
            "value" : "Marker 3",
            "duration" : 0,
            "metadata" : {
              "markerIdentifier" : "D853C1D2-E5DB-4A1B-859A-B855B6F0FC72"
            }
          },
          {
            "endTime" : 37490880000,
            "time" : 37490880000,
            "value" : "Marker 6",
            "duration" : 0,
            "metadata" : {
              "markerIdentifier" : "C6ACB0CF-D0CE-48BE-AF11-7EC39ECD288B"
            }
          },
          {
            "endTime" : 40219200000,
            "time" : 40219200000,
            "value" : "Marker 4",
            "duration" : 0,
            "metadata" : {
              "markerIdentifier" : "ED0E9C0A-503F-4F78-97B4-A66C09F5CB6A"
            }
          },
          {
            "endTime" : 41277600000,
            "time" : 41277600000,
            "value" : "Marker 5",
            "duration" : 0,
            "metadata" : {
              "markerIdentifier" : "2301448D-5F17-4A3A-A60E-ACF215D6C517"
            }
          },
          {
            "endTime" : 43676640000,
            "time" : 43676640000,
            "value" : "Marker 7",
            "duration" : 0,
            "metadata" : {
              "markerIdentifier" : "AFC198DE-9944-4AA7-9D77-6C4743F3898E"
            }
          },
          {
            "endTime" : 45158400000,
            "time" : 45158400000,
            "value" : "Marker 8",
            "duration" : 0,
            "metadata" : {
              "markerIdentifier" : "6EFFDC4B-6097-498F-9723-7C59DA692EC0"
            }
          },
          {
            "endTime" : 50262240000,
            "time" : 50262240000,
            "value" : "Marker 10",
            "duration" : 0,
            "metadata" : {
              "markerIdentifier" : "A1C25E85-76B8-48E4-A21C-3ED045C20950"
            }
          },
          {
            "endTime" : 82508160000,
            "time" : 82508160000,
            "value" : "Marker 19",
            "duration" : 0,
            "metadata" : {
              "markerIdentifier" : "9C547B74-8806-4631-B845-D4F0B46994C4"
            }
          },
          {
            "endTime" : 90740160000,
            "time" : 90740160000,
            "value" : "Marker 20",
            "duration" : 0,
            "metadata" : {
              "markerIdentifier" : "C1DA096E-4845-40FC-AA50-8F32FD1AB10B"
            }
          },
          {
            "endTime" : 107157120000,
            "time" : 107157120000,
            "value" : "Marker 12",
            "duration" : 0,
            "metadata" : {
              "markerIdentifier" : "0CB6E79D-B14E-4ED9-A565-A249AAF8EE28"
            }
          },
          {
            "endTime" : 134393280000,
            "time" : 134393280000,
            "value" : "Marker 15",
            "duration" : 0,
            "metadata" : {
              "markerIdentifier" : "A811828C-1441-4872-B103-F3E21887DDA4"
            }
          }
        ]
      }
    },
    "captionAttributes" : {
      "enabled" : true,
      "fontName" : "Arial",
      "fontSize" : 64,
      "backgroundColor" : [ 0, 0, 0, 191],
      "foregroundColor" : [ 255, 255, 255, 255],
      "lang" : "en",
      "alignment" : 0,
      "defaultFontSize" : true,
      "opacity" : 0.5,
      "backgroundEnabled" : true,
      "backgroundOnlyAroundText" : true
    },
    "gain" : 1.0,
    "legacyAttenuateAudioMix" : false,
    "backgroundColor" : [ 0, 0, 0, 255]
  },
  "metadata" : {
    "AutoSaveFile" : "C:\\Users\\svelderr\\AppData\\Local\\TechSmith\\Camtasia Studio\\25.0\\Auto-Saves\\How to install using tims new stuff1d82b35b.autosave.tscproj",
    "CanvasZoom" : { "type": "int", "value" : 100},
    "Date" : "2025-06-22 02:25:49 PM",
    "IsAutoSave" : { "type": "bool", "value" : false},
    "IsStandalone" : { "type": "bool", "value" : true},
    "Language" : "ENU",
    "ProfileName" : "",
    "ProjectDimensionsChanged" : "1",
    "ProjectThumbnail" : "iVBORw0KGgoAAAANSUhEUgAAAoAAAAFoCAYAAADHMkpRAAAAAXNSR0IArs4c6QAAAARnQU1BAACx\r\njwv8YQUAAAAJcEhZcwAAHYcAAB2HAY/l8WUAAP+lSURBVHhe7J0HQB3Xne7VbDm7SXaT3X1v36Zn\r\n0xxn4zjJptlxkk0vmx7baY7t2HEvcS+yJatbvVck0YUQVRLqXSDRm0AghEAgiui9g773/85wuMNl\r\nQCBAXKRzpI+ZU+bcqf/zm9NmgjgYGY2V3v2e92Lm7LnYuXsvdu7ZL8t9ooOyLuJS+akDVpgK12FM\r\nr8Mkvidch9nTmu3N9jpch5ntB9xeSdIoMd49jBK/Cmf+7mH2tFe3/S7xW2L8IVlSOu2Bbr89jGl1\r\nmGy/V9JQKi8d7iSJ39eddu8hRO09jD0HjmLf0ePYLzp0LAaHj5/CkROxjjpqWxpZUucjOk4tFy9d\r\njve///2OZYDRmMox0GiU9d73vhd/+9vfsHDhQtECLFhw42nevHkIi4jEhaISnD2Xh7M5lnJkPSf3\r\nvCzP94Qxvk+YSithEm62t4eZ7c32I7C9St/t7y+se3uXP99aDmp7pnUK606r91X5GWeFWWm06M8V\r\nMY34cy9Y6yrMnq8O60+M13nKuvx+RmY2UjKyce5CEc5fvIS8ogrkl1TiQmlVLxVc0qo2clJZNWqb\r\nO7Bo2QrHstBoTOUYaDSKmjJlCsLCwmAc0N7ZiabmFjT3UrNNA4UNJa1T2FDSOoUNJa1T2FDSOoUN\r\nJa1T2FDSOoUNJa1T2FDSOoUNJa1T2FDSOoUNJa1T2FDSOoUNJa1T2FDSOoUNJa1T2FDSOoUNJa09\r\nrD/1Ttsi6+cEKhNTM3AmtwDZeReRc6EE5wpLHZUrkGjkLILgsZPxuPnmmx3LRKMxk2Og0SjqC1+4\r\nXRmYxsZGNDQ0orGuCI21BbIsFMmyoRoNjS0SVy9qMDIyMjJyUFNTUzewNXXbU+d0TrKnd9q2sbEB\r\n9fV1OJWQgtNn83HmfCHO5hfhXMH1CYDni8p65BQ/HLGG9ERsAm655RbHMtFozOQYaDSKuvPOO9HR\r\n0SFGRoxOYzNaU76Hjpj3oT3m/Wg/+S/oTL4LTZWpaGxuV4aJRs5llAQYbbLH2eO57oJMa51yT08x\r\nTKdzGVTXtkZGRkaeJtqn0tJS5OfnK1VVVQ3aZjEd09fV1Slbp9fd0zU11CE2IQnp2bmqFpAAyFrA\r\nnALnmkAn+BkPIvRly7GlZZ9H+tm8IR/L2QvFKo+84nK17h5PADwuADjVAKCnyTHQaBT1jW98A+3t\r\n7WJgxFg1tqAj4TZ0Zf0aXfmvoiPuA+g6NgGt+XNQfKkONTXVKCgo6AEzGqrKykpcunQJ5eXlyvBp\r\nsGttbcXFixeVUaQ/JycHtbW1ythlZGQgNzcX58+fV3E6v5aWFuTl5Snj19TUjOLiYqSkpODChQsq\r\nfxpBnb+7dLi1NMBoZGQ0PA3FhtTX1yMuLg6FhYXKtqWmpipb5JTWXfwd2rfTp08rW5qenu6Yjq0w\r\nJxNSkJaVi8xzLgD01FrA/BL2U7Q01Jq8fUeiEZ2QiiMnE3DsVKLKwymduwh9sSkZatvTOfk4ePxU\r\nn99WAHhKAHCqAUAPk2Og0SiqDwDG34qugrdxGcDl9jJ0nv4eOvLewOmsC6ioKEdycrIYqDRl4E6d\r\nOqX8NFxHjx5VhiszM1PFnTt3ToVpYIyOjlZGjoby2LFjalumy8rKUpBH8CMYJiUlIS0tTaU7e/Ys\r\nSkpKVXxW1hmVhr9HA5uYmKigUv9mZmaGyi8+Pl7lUV1drYwm8xlvIgDb1V9Yf3JPa2TkaRrLe9X+\r\nrNjFF1TaHtoY2hC+vA7WhtTU1ChbxNYUAh3XafcG+j0tptEvv7t27VJ+5uGerlbCT8YnI+3MOWSc\r\nu6D6AfaCQC07BBYK9GgJ/FwrMGStJOHtUHQcDp6IRXr2+UFDIGvtuG1RRa3ahnkMFgCpwrJqHDh2\r\nEoEhOxQQGgAcN3IMNBpF9QXAz+Jy4UygqxFdhfPRGfuv6MifjqycIgVkBK/k5CQFbidPnlTQRkCj\r\n0SSA7d27V8EeAY9padRo3BhXUlKiDGVsbKx6WyasMd2ZM2dw8OBBBYsMP3z4sDKe/A3CHo1xfHwc\r\nYmJisG/fPrUdoZNpCYEEygMHDqh0iYkJal+YFw0pjbqniMc+GDlta2RkNDw5PWvuctpOa6B4vnDS\r\nlrEVhHaSNojw2F/e9jDaKcIm7ahu9bCnVZI0NbKMiUtESsZZASp5YRYI1ANCCIJn84v7SDURd6sH\r\nDC9eGwgkyGkNBTwJj6wBzJTjS87MwSEByMEC4HkBvtSsXFXzdyI+RYkQaE9jANBj5RhoNIrqDYDN\r\nAoC3oTPhU+hIuBVdRycoteZOQ23DZTFs2d3NvWWqNo9AR8ArK5M3LAE1NvmyuZZGkE0hrJljHA0Y\r\n47gNDSWBj9txe6bPzrbyZTi34/bcjsaQb9JcUvwN1ixSBD4aWubJJeOYhr9TVFSk8mMTtZGRkRHF\r\n7iqUUxyl469GtGt86eQLKUWg6y9/93CK9qqiokLZSm6r89Txep3gkpiejdQzucjIuaCagjMFAjko\r\nJEvEpV4nGGbnFfVIAaFbf0E7GHmKWGOXkJ6F43HJOCEi6A629pDpCIA8zvzSSgWQ7mkMAHqsHAON\r\nRlG9AbAJzaW70HxxC5oueqO5OFCWPmioTEJDU5vq06L7xehmCb690jjxbVYbK0obOho1QppeUjqe\r\nYfZ0eskwvY0O0+H8LfYdJCzq/Biu89PScU4iXBoZGRmNpLSN0vbLKU1/stsmve6koydOIi4lA4mn\r\nzyrQYdMqawM5MrhHOdZSAaLAoZa9prBXjaAHwiBr7a62/6BK372Ne+0fZQDQY+UYaDSKcgGg1dG4\r\nqbEDjU1dAnyWuF7f2NoL+HTTqn4rpdFirRxr8lgbR3GdTbhcuqu/cCe5p6Wf+fMtW/uNjIyMrifZ\r\nbZ5dBw8fwYmYWETHxuNUfJIaFRybmNyjuMQUxCdppSIhOU0pLjEVSWlZVu2gAsG+tYGeBoGjJQOA\r\nHivHQKNRlDsA1qv5/nrP+afhzw6AhD/9pkuDxSYMezojIyMjo5FVj13uE6bttk2MU/G02/XqCybx\r\nKadV3zpCoFMt4I0AgQYAPVaOgUajKM4DyEEarNHjVzBaWqypCzgIo15AT3dW1iL4VVfXCCg2qNo/\r\nNseyHx/zUIaosRUNzZ29xTBlpIyMjIyMrrU4kTRtdHJqOtLto4gvWDWBOQVcunSukHB4fepCSaUB\r\nQM+UY6DRKOrOO7+hDENjUyNOHd6N4LAdSEvPRMzxEyitqkNbazPqBA41/FVVUaUI8vHGviMnkX+h\r\nAGVllwQYG9HQ1IGmiwFoTf+F6FdozfgtWrMeRlNlApoEAmmEnObW0mFXirOvE1Dt6foT0znlqzVQ\r\nnJGRkdG1Em2RGvEr0n73NAOJ6an+bCPD8/LyUVZegdq6erHXzWhqaUVzaytaW9vQ2uau9utQbair\r\nb0J0TJwBQM+TY6DRKEoDYGt7E3xWv4OwvUeQHHcSXhvW4vDhI9i0xR9FFdUCgRoAa1BVdg4z33gL\r\nSRnZCAv0Qe75PDVApL4ZaD33GrpipqAz7Zvoir4Jl49OQFvaD1HX0NJTi8hmCz1xMw0T86XhYpMy\r\nm5f1YBOKTctMp7flOpudOdqX65TOi0uKeXJb5sVRxcyfx2hPq9eZv91IGhkZGV2t7HaI605pnMT0\r\nHNjGqaz0fKZO6foToZFTcvE32R+bMyzQBtrTMO7ChXxJWyXrjWhvb0NXVye6Lnehi/O+uul6dqlp\r\naeZbwJ4nx0CjUZQFgPIGKADovW4BDkbHI9B3LVatXYMZr72EV2cuRm5xOerr9KAPAcBLAoDTZiAm\r\nNgazZ72D0opKZVw0AHYk347Ll9twuT4OnVm/Q2fyF1FaVo4cMUxsMs7JOdvTdMy5swhznFOQk7By\r\nnVPEsHmZ08jQILKPIufGooHjOg2knmqGU75wChgOROF2xcVFan5AQiKnheE68+AUDUzDtDSOFLfn\r\nb7obSiMjI6OhinaEdsaamD5T2bfB2hYCIO0aX45p4zjPaa28dDuldRLtL0chcw5VAiDzc0pz7lyu\r\n2L1SlJZXo7y6HjVitJvbOtApxHf58uVeup4dYdsAoMfJMdBoFKVrABsa65AYF43KuiakJ8Uh+kQs\r\n4k+ewLaQnSi+VKWagXUTcHVlCbb6emP3oWMI8vUVmLugDI4FgK8KAN6hHrLLHdXoOv8MupK/jEtl\r\nFcjKylbgxwmdCV4nT8YInCUqY0cA5Cg3fj3k8OFDOH78uDKinFC1ra1NgR4fWhpHAh2NHOEuJSVV\r\njQpmXpx4muLbM2sLuQ3zYb6cLJp5EyS5HSeePnHihDK6BgCNjIyGK9oRQlhpqfWCyfWhACBtE7eh\r\nX08G7Z6uP/F3+HLLeVNpT9n64Z6GAHg2Jxd5Fy7h4qVaFFfW4VJVg4CgvLw3sjZQoK9b1z8AZhoA\r\n9Dw5BhqNojgIhIDFN08OAuGIsSYxRk0tVjNGW4s1BQwNCg0SwYqDQOrqG1BZVYm8/Au4dKlMNSkQ\r\nANtyXkZX3P9FV+FMdMR/GJ3HJqAz8XNiYGjgUhX48S2ZBpJTubBWjzV3hDQ9iSqhjG/PhDnCHQGV\r\ntXd6sIl+s+Z2bMIlJBIIWXvImkHmxclUWQvI32FtIr8+QsPIcG5HQ8nf4roBQCMjo5EQbYldTmmc\r\nRDgrLCxQto+2iS+7Q9metpl2kbacNpFy375ZfiP3fD4uFFaguLQWpRUNuCTwV1bTgopasfON7QJ+\r\nvWsCr851SSZsVB4Z197WgeTjRdgbmIPkYyXKP9xGagOAHinHQKNR1Ne+9jVlLAhlNCBa+QWu9Z4w\r\ngSsCk9WMm6Omf2FtG5taacCsQSCBahBI8+lfoznjt0otZ19GkwBgEzsdSzqKxkmv20XodI+j8WKY\r\nNmj2ZX/b2bfR4e5p9DrTGhkZGY2ltI3SckozkLQt0zbPPZ5weODgYaRn5KKisgmXFAA2WwBY14ZK\r\nUWu71RvQHf5YARAREYGQkBCEh4cjMjKy57vF7o7blte0ybI7wMHxm8krV65Uy4FcU0Mb1kyLxYs/\r\nOYAXfngYL/z4MNaKv6mhtTuFs2ttbVX7y6WTMwDokXIMNBpFEQBZU8bmUtagUUWUza/CbH7CIkGQ\r\nTQ6sfWMtmzY+9U0t3dO/dCg1yXqTvFm6GyMjIyMjo2snwpZ/wFasWLkB5/PElpdUK/jTAFhR34a6\r\npnYSXB8APHLkCLy8vFTrSmhoqCo37rjjDtWNxt1x04Ly/gGQeRPMpk2bppYD1TTu2JKF5390CAse\r\niYb/3GQs/FsMXvjRQezyzupO4ewIu7t371ZLJ2cA0CPlGGg0irI3AbuLb3d2Wc2/7AdofbuSzams\r\nBeTS1KQZGRkZDV+0paNhT1mrmH+hEBu8vPHIo0/gTE6BAj8LAFtRJgBYbWsGlr8WLYljn2n2o6bj\r\nbA1vvPEG1q9fr8oEd8dNC8utfJwcy5JZs2bhsccew+zZs5W/P7fs7zF45eeHsebVOISsScGSp6Px\r\nxi+OYsXfT3WncHY81i1btqilkzMA6JFyDDQaRelBIOxD4i4+3HYR/Ch2VCYAsumXfVW4tKDRMjK6\r\n+cEJIrXUd4clrfJLOm7TX3pOOs1JqbUhc0rjLrUvHNwiedb2Crdmx7enHUiN3cbYKW4oYj5qsI2a\r\nlb933EDHpM+j2m+H4x/K8eh8tHTYUM6HkZHR6InPN1tbKNpEe5z78+subbftabmuw5pbmhGXkIh5\r\nC5bg2Ml4VDe025qAW1UNYK0CwL41gAcOHFAD6uiCg4Oxc+dO1YTL/XV3FgB2OAKgtqUJCQm49957\r\n1ZJ+hju5ta8lCAAeweJnTmH7ymT4zEnGyz89ivUSPpDjYEHm3V8TswFAj5RjoNEoarAAqGv+nACQ\r\nxorAVVlejLjYUzhz9hwu5OejpLRcQR7hzZ4vDdOF3GzExieguk6MXHUFzufmobSc08kI4Mjv6bT8\r\nhFHRxQuokrCCAvZBvCiG0YLMHkPnlj+3qSwvQezJGBSXlsk+WEDKfSkrYdMHw6z9Iog2yG/WS372\r\nPGpEDY0NyMpIRXJ6pvpNGin+XkNDd/8aBbqNAncNaBSwa5Q4BbLux1tXi6zTKTh5MhYFRaVoabaM\r\nIKGwoa4GhfmFaJR9rK93O46aalwsuoiK8jI1jU5BIY+/UPajRX5H9ln2oaayDCXdx6M/+eR8TupQ\r\nUVqC0kvlqJLrVFJSrq57VVlJz3VSsGzbxsjI6NqK9oOD1Tj4jfDCZ5QtNHw+2VxKcZ1hjKMYxiXD\r\nKR1uD6M6OzsRn5iM19+chZ17Dqs+f/Y+gBS77dC51wASpt5++23s2LEDhw4dwpIlS/DMM8+q/uDu\r\njtte6KcGkINc3nzzTXV80dHRakk/w51c/MFCPP/TA3jzvuNY+kws3rz3KJ7/yQEkSPhAjudx8eLF\r\naunkDAB6pBwDjUZRIwWATZJH0sndWLzSC5lZWdgTGYRdB2NwNjMDxWUVvYCkua0BPuuWIWTPUcnr\r\nEsKDNiEoZB/2bA9EYPh+AZxmV9rmFhzfF4b9x2OwNTAAaelnUShGJyPjDMrKLwkcFgnAXJJ9dO13\r\noxi71FP7sHjREnj5b0NO9lkBp1wkJqUgL/cszuVeQGZaugLOs5np2BMWCP+wvWgSMNN51InhOH8m\r\nFus3eiPI3xsx8aeRnpyM/OJLKJA8zp7LQ3ZGJnJyspF1NgsBa1cj+cx5nElPR5Hb8RLsMhOPYPpb\r\n85GTK/shb+HVtTVIEaOam5uBLZt8kSH7USh527draqhGaMg2RIX5Yq1PCIK3bUVycgayT2cg7UwO\r\naqrKEeq/HjsPxCAzPQXnOMt/WSmKCh3OiZzTlJgoRO6NQVL0LkTuj0beuXM4figc4VEHkSEGOK+w\r\nxECgkdEYii+WnNHA399f1bRt374dmzdvRlhYmAqjuM4wxm3duhXbtm1TAzOioqKwS6SWu3Zh505q\r\nJ0JCQ1W/PW57MjZOjQDOKyzHpcq+g0DaOlj71xcAu7q6egYK0tH+c7Qy5e64VV1zl21rl+NLtJ+f\r\nH1avXo1169apJfeLgNqfOxycg7f/fAQv/uIgpsvy0PZz3TH9O+4v53nl0skZAPRIOQYajaJGCgCb\r\nW1qRfGoXZs1fgcMHd2CVANHaNSvxyIMPI+JYkqr10vm2tjViy+oFCI06goitPli7eimWrVuDhbNm\r\nYPO2vaqpQqetq29EWeEZLF4wFzsO7ofv5vV44emn8Obcd7Bh4wbMnTUXm4PCVE2i3qapuRVpAoCv\r\nvToD4bt3YMmipdi0fg22+GzGxo1r4LV2FR7/25NYsXYdgkJ3YG+INzYE7ERLq+s8cEqcuAPhOBKf\r\njcLMeCxbshBLFq+S31yJF558AnOXLcP8+cuwOzIYTzz9DObPeQchwVvx4P0PIPx47+PlZ5fqagrg\r\n7xeEsABvbPL2wqrVS7DRazM2bFqFdes3YP6ihUjKykejFAB6OzZhx+wLxsLla7F6+WL4hoRhixz/\r\nnLkLsGTFCnht2izneBmWLF0uBcIWrFolwLtxPWbPnAfvoAjU1Lv2gVP7pJzciZlzlmDNioVYunwp\r\nnnhUzsFGMcKrVsjb8gqs3+yH+qbWnm2MjIyurQiArFVbuHChsrm0tQQkAhlrzCiuM4x2mTVzrEEj\r\n6C2YtwBLFy9VWrZkmdiD5di0aaNqEWCTKOdaDQ2PQGFRFYou1aKkvB6lVU0oFwCsrG2Vl3g221rN\r\nvxYAeo6rrWnGxfM1smzpDhmeMwDokXIMNBpFEQDZhMAmQndjZAdAaiAAbBRgykg8iuikHFw4myxv\r\nef6ICAnBkiUrkHAmtxfYtLQ0IsLfC4Fh8oYaFiSA9g58AgSOtm2Fb3CEapa170dLcy3WLVuItOxs\r\nRIZswzqBn12HjsDHawO2B/gj9MApeYN0bdMo22clHsfuw/Foqi9FZOQeHNkTjrXrNsqb8lb4+fpj\r\nxcq12H9kv0CUN6KP7Ib31nD1bUydB5tSq4pz4bVhHTZu8sO+PWF4861ZiBRDu2HVSgTvjMSOnXsR\r\nEeSDuQuXYlugrxhXOd7Fy+V4z/c6XgJgdcUFRITvwKHd4fLWuwH7D+wREFuFcMknPCwSWzaswe7j\r\niWquLr0dz0NuWjTWCTiGb/XG4ZOnELotADt278fh/TvlN/0F3N7Btu3bsXblauw5eBgB3huxPTAA\r\nYXJOWlp655WReExdn4s5ydgetE3OwRrs3L0L3pvWYfqMOQjbdUDVnuptjIyMrq00ALKJlQDIGRpY\r\n40fHZlLdVMow2mROij9//nwslZfcj3ztI/iX2/4V77v1ffjST78M3y0rMXvOi8q+07G2LjxiBwou\r\nVqKwtAbFZXUCgA2oELhqbukU6LNq/jwPAEd+XwwAeqQcA41GUd/4xtfVGyKhzl00PlqciJnQR3Ha\r\nF04Hw+YATuxMAORAjto6q69ZfXc/NPZxq6muQqUYMjtg1kg6pqkor0Bdg8BRVTUa6tmfTqBL0nPQ\r\nht0o0k/DyD52dbJsEH9lRaVAljXfFX+LXyrR6fnd4vpa9g+UfOr47eE6SSdAVnUJAb5bkJpbjEZ+\r\n21j2o6aqUrYRwK2St8tev1tjNYfWyL7Jb2SnClAeiUNbW7v6/YrKSom3+gTW1gh0cls5phrWlLod\r\nr9ondW7YR7ABlZVVqmm7WvKol2Ngs2+V7IdT82uD7Hs9+xfyuGVpnVur7yPPCb/MwmYVbl8reau+\r\niLJU++WWF/dJXR9ZV9dGYL5WjiEz+Tj2HIlVNaD282hkZHRtRXvG+VZnzpyJoKAgBAQEwNvbW0EL\r\nvw5C0TGMzb+rVq3C/HnzsWrtKvzLb/4Fk344GRO+PxGf/NtnELB5qbwgvikvghYA0lbv2LkL5RU1\r\nYpNpr5vQ2NKO9s4udCno6w2AngWBI+sMAHqkHAONRlFf/OIX1WTObB7gJ9oGkm6CoDgijHNDsemB\r\nBsteQ+i5qkSZwKxrXyt64uxN3L0k4dWyrK6uRLWAXg0/haf8TM98BCQljDDF9AxnfJ98bNK/Zf/N\r\nfn//CnLKa8iSbYe1vZGR0YiIEMiBEStWrOhGFaj+fHT8ahJFp8NYWzhv3jysWb8WX/nml/GZ/7kV\r\nt37vs/juL3+EHbvXYc7cZ9HerpIqANyze4960WwS0GyVF76uTtb8deFyP33lrlfHlisDgB4nx0Cj\r\nURTnARyq45thZ2eHalrgHIB61BonCR2v4jHoTs3jUfxustNxDV5ZPeuc27F33MgoS37jrCwpp3gj\r\noxtL8jyI3Tx3Lk+WOcrPLyzxW+WEOn6+8tSpU6o5mOlZI0hxnWF8cWdT8Ny587B27Sr4+S1EStJW\r\n7AtaiILIZUhf9mds8f4XeWGfgcb6QqQmJqmBIWWll9TMAtXyQswZCgiEbDloamzoEVsRKH7i87qR\r\nQC/V3t4mMJyKqVMNAHqYHAONRlHf+MY3urGur+vdHNCFrq5ONZWAnpaAzYwcacVmYTZdsElyJMQm\r\nC+dwa0oEPb2BezwfbjZxqilcxG/fJ64TWPWyZ5umJtWUzakN2KE6ITFRlvFISk5GUlKiMsY0tFr0\r\n6zRxca7w+HgrHb9fTMX32s4Vx2VcT7hLySkpSE5Kcttu8Dp06KA6dnVMPN6amkFfE55TTjnB2geu\r\ns8M4z7FuZnaXNa2ENZUNp8Ghn+fRKa1WU1M7mlvapbCh32qmdkpnZHRjiMDVjOpqfsM3RrVKsFsI\r\nnyXao/nzBw+AhMV16zbhZ79+BGEzH8e2334fC37/Wzz96E+xadNNWLt+KhKPPIvYoBDs3rcXNewK\r\nUi8w1NyKNnnW2+VlnqJ9VzZe1NGtzi7afUtc1xpq2FDSOoXZw7tYY9ldJg1Gatvumk7tWJNqANDj\r\n5BhoNIq6GgAkINgBkINBCAP2vixXIw0we/fuVXnb8yTMEL44DxUNI6vwmVbHq325eBHJYhST4mKR\r\nkpKEysoKlQfFfoxsAmHfRnakZnpuxzxoUDn1QltbC0qKLqBcjHJeThbOX7ioDCT7xrW0WNDTIqBz\r\nqaQAlWKwLSBtVfDTSjBtbsDFggJcLCpBUyvn46JaZXsxtJKupOgiahuaFGRxGw3SjfJ2eiY9DRnZ\r\nuWhpa0drN+CqePltisdvF3+b4jqBlueEM/S3y/rmbdvx+7mLkSpQSSjW50gXPtqvw/bs2aOmkuC0\r\nDIGBgarfEc8V83dPz2YqGs+SklIsWvQqQkL85AWgTNUacp/d01N19W3IPrsXZ87uwAvb9sPveCza\r\nOJeiXAPuv9M2RkbXs9gfuLy8EqnJP8Px45OwZ/efUFxUpewCm3WH0gQ8Y8Z0ZSsOHzmD0JXbsXep\r\nN3buyxTY2419B+5FXl60/GYDTmdmIiIyAgUXi1BUcgmXyipQUVmFyip2/6hRXVzsqqq2urj0dHVx\r\nCK+WdRXuFMa03WEqfCS2V3EWLA/Wsfyio308evSoWjdNwB4px0CjUdTwALBhxACQ2/MBZVMm3245\r\nVxThQAMcf49Gj4aRsMIPfRPmdHxJaSnSTsWh9EQ0yqOjURATjdSkRNQqY9Gs+jCyvyP7L37+85/v\r\n2Y7wwWYYqrW1EQGbV2B/dDxWLXgLJxIycC4rE5nZWQhYtxpxmfnobGvExuVzseNILCqKCxGfkIzS\r\nS5eQnJCEnHOnsX7dRqRm5qIg7yxOn8lGroDk6fQErF21DvHJqbhYWCBv7okoK7uExLh45BVdQl3N\r\nRcx7ew4SMs/h/NkzSD+Tg+KCPCSlpuP4/nAEhuxVBYM+VzxPupmW6zxPrCnoAcDg7bh33iL53XR5\r\nY+Z3N9sV8OptCHE8dubFmgdeQ57L6BMxqjaX8SxYdLO+PT3PF7/h+ctf/hY+Pi/jnXdewne/+31V\r\nE8Ft3NPXC/zl5m6T8z8Bm8IewheWbMedqwLxUvhhlMk1oyHmN6V1eiOjG0H19Y1is85h0+b/wcpl\r\njyJq1yR5mQpDR0fnkAeBTJ8+XdlkuvyCSmRklah17YqLLyl7yud/d1SUGqxW3ygvtGIX2ttp08W2\r\nd15Gp9h5yhoQYonrWvbyYKhhQ0nrFOYeXlNTJ/vu/JUPJ8cWDl9fH7zyysuqpYe2zdQAepwcA41G\r\nUf0BoP1ho6xqeOcaQI4KHm4BTojh2y1r/9hHg5OZcq4r3RTJiUy3bQsW4HhHNXlwAtF9+/ap/WBN\r\nUt6FCzh97DhyQ8ORGx6BvJ27ERsdo2r+mAcHufDj5QTAz33ucypP7nMPAGYLALZ1ID3+MA7FpSE/\r\nKwVr1y7HvLlLsG7dMrz12puIP1uKS/npWLBgHpav98LmjWvFAK/GilVLsHjxKqxdtxxrN67Hxg1e\r\nWLl2Pc6ez8PqJbPw0htvYNHiNWKwvbFq+Qr4+myW/V+CufMXY/WW7WhsvoQZr03DkeNHsFoA19tn\r\nPRYsWojFy1Zg/rxZ8Nm2W47Bmp6F+8x956z8f/nLX9Q64VADIP3lZWXYFuCvrk3g1vUCZ144cfyo\r\n6ivEbXjM+nrx3PCj6fPmzZXjelDO/x7VFM1JX/m9Tvf0BMbw8DDsCA3Dgrl/h7fXcgRvDUSMnN85\r\nc+b0Sd/Y2IXYU88gJekRAd7VCIqOw6KD0fiFVzAKBIZ//vOfq0ltWYvJ9EZGN4oaG1uQJS9MiYmf\r\nxuo130RycqZ6HvkitXTpUvUs83mLjIxUNpn9lCk6hvE5Y2vGjBkzlI3uz9Fe79+/X/UvpF3lbzNv\r\n/hbj2J+btt1qMu1t9z3Vsfmac7UO1nHmBL6khoaGqDKAL54GAD1OjoFGo6jBA2B3/5BRAkAaM775\r\nLl++XL3VbtiwAXl5eSqcYtMvIZA1gP7+fqqpkiNXNRAVXLyIxMOHkbTFB4kCFGlB23AqJkZBEQ0d\r\nawC/8IUvqNHLBED+Jrdl3roGsLm1DWeSTyJWDPHRqHAEbPPHrOlvY4vvVoQEbsbJ1BwkHY9CaNRe\r\n2Rc/gcNZWLpiNYKDNstb+FyEhoVj+/ZghIVGwG+LFw4fOYzF8+dgo4+/QN8WBEtcSFCAgOVGRO4I\r\nxzHZp/CI3aiuLZZtotDcUotN6wQQA4IkPAInY2MQFOCHgOAdqLfVAOqCgeee+2+vAdRAd9dddyFo\r\n2zY5j38V/3MCWSsEstp6ttF5MT1Hcs+dOxuB/s/hgef+jh/6hWGR12ZVm+ienrD97Kuv46GNvvjL\r\nGm/8dVMg7puzAH6+viqvPukbWqXg2YYjR2/HqRM3I3Dn3/GVzfvw2p4YtAvUFhcVqf0e7v1jZDTe\r\nxFrA0ktnERBwF06ciJfnx+qbTLs3d+5c1eWFXTsIg6xZZ8sHxXWGsSaLLSEvvfSS6g9IGNS1hFoM\r\n41yBJ06cUF8OYSuKtpkuALRsO1/y3e2+p7omOVfUYJx1LL1HObOlyTQBe5wcA41GUUMHwI7uvmvW\r\nHHgjBYAUjR8HFbD5gzVQrNki6PB32DRJCOTnkf7+97+rt2SCj96Wv599JhOJRw4h6fAhxB87hvP5\r\neWpbxrEmkAaV8xlyaf9NGlT2AWS/Es63x35znNqlsbZEjGYY6lra0NLUiLpaAUaJa2lvk3PSjt0R\r\nwci7VIPcjBjsPx6Pjo522bYBzU3NsuRgFM4lKIAmx1HfIAa/gUa3SfVl4ddOOGF1U0OT+s1GLsXP\r\n0Xic65B9Dfn5Nv15OuvcuMRj5/nhOg257gNIP40bDf0xOQcbvbywadNm5MjxcRueD33sFM8vCwE2\r\n42/yWoWtUkgsFQA9dPQYWroh356e5yYkIhLLtoVgTfgO0U4s9vZTtYYcaeeenqpvaEPe+WTs2XsP\r\nkrNOwvtEgup7xPkP9fVx38bI6HqXagYuOSsvhN9GUmKSev75/NIe8dkl1NFW2ZdOYXze+fzT7ySm\r\nISxyyZovdtHg77DWnc8+7frly70HSXi6GyoA6vKLojMA6JFyDDQaRQ0VANmXQg9iYOFNANTNrKwV\r\nHAkxLz1AQovGSveD45Kyx1PcrlQAr7i0FJVi5LiNPY5vuvYlw/k7rHmkgSR05gk00k9duJCHCwWi\r\nC5afyute5udfUKP1lGS94EJBd/h5kSuP/sS3fPd0VljvdFrucfTrMO43CwwadX1MPEZeK+04gbU+\r\nF05i7aBycq0pbu+UjlIFBdXVLVxWv+WUVov5c+RjR7ukF1DWA12MjG5ktcrLZU1Nq3o+6CeQsan2\r\n/Plc9TjyOdTPcn/ruhaP6zpOh9vFcNoMTt3FFz89gl8PVKO95GC2oYi2Rtuba+mGAoC0TwYAx4Uc\r\nA41GUcMFQH4RhP1L2B+PTY8jIY5KdQqnGDdQ/N69+9S+sC+hU7yTWLO4ZcsW0ebuZX9yxXtT3t7W\r\ncou3CmNfNkrFe1vpdJgr3Cnt8Lan/Pz8Bjwvo6GoKOfw/sRJaJ3CjYxuZNmfW9otNvNyAMhQbJi7\r\nuC27u7iLo2D5EltwsRgll8pRVlGFssoqVFTx6yC1qKqp6yWGDSSdrryyekh98obrDABel3IMNBpF\r\nDb8G8CIOHz6sBlnwoWInZfY54bqetsCT/Xp/2ezCUXIU+81oP5tM7H73+OGmd/df7e9x3X487sdn\r\n/MZv/OPDn5ycrJ7rq92e842yFpF9pNktRIt+2o2i4hKBvmrU1DagrrEZDc3satKqRgW7q6WtY9Cq\r\nqKpVZYWTY/9CfmrzSu7M2RycjEuQfNiy0L8zAHhdyjHQaBQ1XABk8yMHWLAmkN8E5pL96biu/Tk5\r\nLj+bjO1+z4zPGWK8y391+Q93+97x7uff7jfxJt7Ee3a8+/M/9O1zVJ9pdgmx9zmkPyfnLC4WF+NS\r\neRWqa+sFAMWONzWjsblFgErsuogTtvesO0ChkwiA/L4wQc/JBW0Pw6IVa1BWXtEd0tclp6Rh2tvz\r\nMW3mfISE71DN0v05A4DXpRwDjUZRgwNAawoYJwBkHzh2LuZAEBojbYC4bvzGb/zGb/zX1s8ZDdjP\r\nj/bZDoD0nz9/DhcKL6Kmrl4AsA4NCv5Y+9eKhsYWtHV0Kn97R5datrZ3Cty1q6WGvfbOLnReRo9f\r\nA2C5AsDeNYAsP8J2RGHF2o1YsnLdgLWAsXGJSDt9BufO5+PQkWNoam7ujunrDABel3IMNBpFDQYA\r\n9RyA/QFgbOwpNRiBI3M5qS+bL/LyzquOzC5/nok38SbexJv4UY4n3BAG3WsAOZdoVNQeLFyyDJt8\r\nAjBv7juYt2Chmrze19cbK1ZtwO59h7FsyXJs8QnEyjXr4evnh3kLl+FSRbXAYZeCrhlvz8T9f3kA\r\nuXn5AoOX+wVATt4cGrELO6L2wds/COUVld0xzm7X3gMoKrEmsQ4I2q7Kmv6cAcDrUo6BRqOokagB\r\n5BQEzgBo9zsZMBNv4k28iTfxIxnfHwBy5P227eFYtX4j3nhrDnx8/LFywyb4bFmPOe8sxLpNWzBj\r\n5jy88eZMvPDKWwiLjMKCubMxb/EKlFXVqFpAYUDExSfAP3CrAsKBagDjE1MlT1+Bv60DNv1qd+Dw\r\nMaSknVbTX/n6b+sOdXYGAK9LOQYajaKGWwNI8GMTMOeR669JwviN3/iN3/ivjb+/JmACYWZGJo4e\r\nj8HFkhIUFhWjsPgSysvLsHLFMpyIS1FzBGZm56CgsFiN8uUnIs/m5inA07BHCCTmab8GwIrqOlVW\r\naBefkKT68vHbv4NxF2V/vH394e0XgJiTcd2hzs4A4HUpx0CjUZQTANrhbyAA5AS+fPPkZKMGAI3f\r\n+I3f+MfeP1AfwJycXJSUlgms1aC2vhENzW1oFnjj3KnNbZ3g5zDZrMu+gIS6VqE9Ah/7AdqBz10t\r\n7Z2o5Chgtz6AV+Ok1Ole698ZALwu5RhoNIoaTg0gAZA1gJwCxvQBNPEm3sSb+LGP768JmADIaWDO\r\n5+Wj+FIZyiurUFnbIGpEXWOrAsL6hialum7VNzZfWU0takRxbV19d+kx+s4A4HUpx0CjUdRwAZB9\r\nAPkdWg2AlMtA2f2WgTLxJt7Em3gTP3rxVwJApmUNoTU3YC1qavkpRutzjLTpdQJy1lJU33BF1YrY\r\nb895ApjRcQYAr0s5BhqNokaiBtD0ATR+4zd+4/cM/0BNwKwh5Kc7+VlGfg6T9pz2nQP9rjT58pXc\r\n8Bt/B+8MAF6Xcgw0GkWNNAByYuiBDJSJN/Em3sSb+NGLHwgAOWl0WVmZst38DjC/Ed7ZSQi07LsF\r\ngi7b76nOAOB1KcdAo1HU1QAgPxre2NjYA4D2JuDB9FEx8SbexJt4Ez868QM1AWsArK/XANjWXQvo\r\nDICUJzoDgNelHAONRlGDAUD3eQAHD4B2v5MBM/Em3sSbeBM/kvFXAkB+Js5eAzgQAHqqMwB4Xcox\r\n0GgU5QSAdgNA2R8edwCk4TF9AI3f+I3f+D3DP/gm4KYr1gB6qjMAeF3KMdBoFDUUAOzs7A2ANCoE\r\nQDMPoPEbv/Ebv2f4BwuA7MetAZC23bLzBgCNxkyOgUajqJEAQNMH0MSbeBNv4j0j/kpNwAYADQB6\r\nqBwDjUZRQwPAjj4A6N4HkHIZKLvfMlAm3sSbeBNv4kcvfigA2N5u9QHUAGiagI3GUI6BRqOokagB\r\nNH0Ajd/4jd/4PcM/lCZgdwCk7LbfU50BwOtSjoFGo6iRBkBPmAfLxJt4E2/ib9T4kQRAyhOdAcDr\r\nUo6BRqOooQIgDYZ7E7D5FrCJN/Em3sR7RvxwmoApd/vvic4A4HUpx0CjUdSVAdA1B+DQAdDudzJg\r\nJt7Em3gTb+JHMt4AoLszADhO5BhoNIoaOgCaPoDGb/zGb/ye6h/eNDAGAI3GTI6BRqOooQAgZe8D\r\nWFNTYwDQ+I3f+I3fg/wGAN2dAcBxIsdAo1HUSACgmQfQxJt4E2/iPSN+KE3ANwIA8hjsZRgdz9HU\r\nqQYAPUyOgUajqKECoL0PoAsAXX0AKZeBsvstA2XiTbyJN/EmfvTirwSArB2k7WZ8Swu/B9xm6wvY\r\nGwYplgGeJNboNTa3oEEkAX3i3aXLLS26zMwMUwPoeXIMNBpFDRcAaXDMp+CM3/iN3/g9wz9QEzDT\r\n0lZXVVWpWkDa8ZaWFgWBWnZY0rWDniSWQ/WNTaJmtW5Ba//SrVZaLNcyMjJMDaDnyTHQaBR19QDY\r\n4AiAnjAPlok38SbexN+o8VcCQG5TXl6u7DfDCIHNzU2iZlUjSCC0i1DY2uoCxLFWe3sbausalNrF\r\nb4e7/sRjs46xSQFhRsZpA4CeJ8dAo1GUOwD2hr/eAMi3LwIgjQKbD1xNwKYPoIk38SbexHtC/EBN\r\nwNnZ2SotAbGyshLV1dU9cUzvJAKiJ6mpqRGVVdWorK5RYMe+jP3L2obHxxpPiuVXWlqaY3loNKZy\r\nDDQaRQ2lBnDoAGj3OxkwE2/iTbyJN/EjGd8fANKfmpqqWmzS09ORlZWlgJC1guwbyG0p5mMX8/Yk\r\n5efn4ezZHGTnnMOFCxdU2dO/rG30sVHchmXW3Xffrcq/O++802gMdNddd+H222/HlClTNI/0BRSj\r\n0dVwawBpIMw0MMZv/MZv/J7h768JmDab0Mf0RUVFuHTpkmoKZk0gbbmWfRtK15x5klSNXn2DqF6t\r\n96eetN1LLdYKWs3Jrv6ORtdWbIpnDW5oaCje+973kkecIcVo9DQUAKR44QwAGr/xG7/xe6b/SgDI\r\nWrCSkpIe+NPNwHa4sovbGd3YsjfBO8VfrZgf3eOPP0YecYYUo9HTcAGQ1eumD6CJN/Em3sR7RvxA\r\nTcCDAUB3CNSFtdGNKUIa7w+W99rvnmYgaXBkn0yneLrly5eTR5whxWj0dCUAtMOfEwDS6NgBkHIZ\r\nKLvfMlAm3sSbeBNv4kcvfjAAyCZgTghtagBvDBG+rJHQ1qAZpzROYnreX0lJSWrgTEJCgmO6/sT7\r\niVPu8DfZz5QvHu6/T7ds2TLyiDOkGI2ehgKA7APIfhOmCdj4jd/4jd8z/VdqAmZBPBAAukOgvbA2\r\nGn9i7RsHvvDFgOL6YGvxCIAcOMR1Vv5w8JC+lwYjwl5FRQUOHz6s7jvNDnbRGQAcIw0dAAfuA+gJ\r\n82CZeBNv4k38jRo/mD6AehCIAcDrX4Q9Qhhr33hfcH0oAJiSkqK2oZ/rQwFA/g7vN4Lj6dOn1b3l\r\n/tt0BgDHSCMBgKYPoIk38SbexHtG/GCbgN0BkDIAeH2K0GWXUxonsQaPLxmsBWQTMO+1oWzPe4o1\r\njpyMm/cb5b49nQHAMdJINAGbeQBNvIk38SbeM+KvFgCd4M8AoBEhUPcfpJzSDCTd568/+KQzADhG\r\nMn0Ajd/4jd/4rx//SDcBGwg0Gk3RGQAcIw0FACkXANYrw0FjYgDw6vxcv3Hji/qkH2k/17WfBZ6J\r\n7z+e/uFsPxq/PxR/3/z7/p67n+vXY/xgAdA+CMTAn9FYic4A4Bhp6ACo+wBaAMgawBuxDyDXhx9v\r\n/AP5uc6RY2zScvfrdbvfPV7Lnh9l4sdHfH/XV6fX2xh/bz/PF2GQhas7ADKtBkY9IEBDIFt0KKYl\r\nCOrtnKDQKczIaKjifdTV1YWlS5eSR5whxWj0NLQm4A7HGsAbaR5AbWD1+rX26wLxeokfjJ/zSLnH\r\nc30g/3B+z/jH3s/1gfxXSq/jKaf04zV+MH4+L6wJZAGroY6in2lZC8iO+Wy1YTOwnhCaqqqq6iN3\r\nODQyGkmxa5kBwDHS1QEgO4JaAEiDdT03AetpFXQc/fyAOpc0otS19BO0r6d4+lkgmfixi7+Sfzzv\r\nHzXQ9uMtfjB+ng9O+cHaFQ1wFAtbwiFfaJmOzcCDAUDKDoEaBA0QGo2EDACOoUYaAGmIrgRU4yWe\r\ncfQTAPW6NrDa2NJg2/2sKfTk+OH6B8qf69f6+Oz+sfh9Ez/4eK6P9vZX8g/n90ci/kr+kfh9Ah7t\r\ncW2tBYBaLGw5FxvjuR0BkKDIvoC6KfhKNYFOIGhkNBwZABxDDRcA2eRwPfYB5DrhVjfJcEkwJAzS\r\niA7Xz/WhxDv5uT44f/qA8Zyk0yleh10p/97bZ/fJb7h+/h7Pj1M8az/s++PupwbaX6Yf6v4Y/+D9\r\n7ud3uNdnqNuPhr/v718p/sp+p+ffPb09fiD7wv0lDLJw1TDHJYGNabW940suQVFDIGsCCYIaBu1Q\r\n6ASDBgKNRkIGAMdQowuAdr8TgHlmvL1PDQ0rm00GMtD2AsKpwHLy622vNr27356eE3bqdSe/3r4/\r\nv05PsXaBfh03OH9qLz8nER3Iz/T693U8l+7puc5rZd+efv4+43S8fX90enu8+/apqSlu8c5+ruvt\r\nTXzfeJd/4PM73Ouj7y8dZvl73z96ex3vfn+5x9v9jB84vev5YJj26zT24+sb33d79+fX6fnWfsop\r\nfW9/mgJA2mcNdBTBjWlp32jv2KrBWkBCIAeE6OZgd2kQdIdAykCg0XBlAHAMdbUAyA7FGgCvpz6A\r\n9iZf9yYWDYm9O133HaTg7icwuvutbXPVb2u/hkx7PMNotPX62bO945me8Yxz3177hxqv/VznuWCB\r\nxXW7X8fb09u3d+2vK727n+vu+Q0mf/f0g9nfq/Fz3e5n4Ur1F8919/jh+qmRzG+ofkr7GTdQvLtf\r\nh12Nf6Dr6X697fcbw/T2jBsoP53GKd7ud8/f/vt2v3u83a+ffyc/axD1uuXv/fxnZDj7df5OzzPt\r\nGMGNUMfaPS7p56e8kpOT1XXkPtC+MS3tHUUbWFRULPa8pFtct2oJNSTq2kItXUvYHyQaGfWvSvWV\r\nkCVLFpNHnCHFaPQ0MAB2OQIgZwMnAPIC0vBcbwBI48gljSPFWgdXDacFcNrYMq2rxsC5QNXx7n6u\r\n91fjYE9Po80l/a5467fp1/Hu29v99nju30Dx7tunpLj7e/9ef36u89zRz3W73x7PAskerwuo/uKt\r\n7Xv7+8b3/v3B+Lmu/QPn57Q/1vZ8OdDx9FN6/68mnn73eKfzMZD/SukZ734+3NMP5vi13ym/K+U/\r\nVD/zo+x+93iXv/f+Jie7tmeYPb3db4/v7/6nnJ43+gfKbyC/tb3r+b7S82n3U8zv/Pk8BWoENy36\r\nY2Nj1Yf52WpDu52UlKTSp6amiV1g7SqBN0NsXKoCyfR0+s8KdFr3Hs8ff5O/w9+kaOu0zp3TsgDY\r\n5TcyclZR0UXMnDmTPOIMKUajp5EAwOupDyCNlr3Jl4aOwMQl0zEuMTFRQSANJONoSNnswnUa44SE\r\nBLWu/YzX63a/Jaan38rL5e+7PUVjbc9P+/W63e8e7/LHOfq5zsI7Lq53vPYzTscz3J7e7mchw6Ur\r\nPnbAePr1uj2eYgHF+8vu1/Fc1369vVP6wfq5zmtLP9e1YmNd8Zbfff/s++PaXodxeyvO0tDj+x4v\r\n/fbtB4rXx+ee3uV35W8/fqd4y997f/v+fu/83X9/qH6n47Nfb8Y73T/93V9Xun+d/PpZoLTf/flw\r\nT+8er/1Oz6v786z9lLu/P/ui/fw9Qpp+KdeTZNPPeNo5AiFr72jDa2oaUFfXjKamZLHvq8TOPyf2\r\n/q+yfBwdHXPR2npQbH49WlouK/vf0dEucSwTulQ5YZxxw3XLly8njzhDitHoaSAA5ANuB8COjisD\r\nIOUCLLvfAixPjuexaAC01+ARypiG4YQ+GmAaUhrr5GSrwGItA42/9lvrLKBYoJ5UBRULV6uAHdh/\r\n8qS7P6bHz9+OiXH5neL19lzX6XVau38o8TwOHRYdHd0dF68Kn5iYaImz0tKv47lu97vHDzW9jj9x\r\n4kTPOgs7+rnU0vFOfsLAQPGD9et15nf8+HFZt+dPvyu+7/bDje/9+0yv4+nn/tj9Vn79x1v775wf\r\n5fT718Kvw+jX19/dT13t/TVUvyXe732fR6fn58r+BCX3513nr8P62oMr2wu+oLJ1Q7diUPQznnBI\r\nv9W0W4nyivNobJqB9o5voaPzy6KviL4m+mq3/2toa38YjY1xYvfb1bddOResBYMdShYQWjJQaNxQ\r\nnekDOEYaCQCkkbwemoDd+/xxncdH6CMMMpyG9fjxY+qYdYHFAkL7rQLUKqC57uTX6blOWNTx7tu7\r\n+/X27vHHj7vimR8LdL1u97vH9+c/duxYz7YsXIbmt/LrHX9ULVkwUX231/GWGO/s7297y29P39vv\r\nyp+FK/2Ebu0/etQVz2tj97vH2/1c1+m5bvfb491/f6Tjr/T7w4mntF+HueJ7++3x+vzT736+9fFw\r\n3e53j3f5e19v++9Rrvvjyn6dv86PsvI/2ZO/++/Z/VTf+9s5ff/P2zE3f1/gd4/Xfh3vnl6vaz+B\r\nkLZK1wxS9PP6EkL5Anv6dDbO5cSh+tKv0FT1CTRU3Sb6vFJjL/0XWhpuQ3vn9wUCD3RDYGMvCDQA\r\naNxwnPkU3BhppAGQfecGAi5PjedSD/TQb8isHWQcjSVrAlkDSAPL5hP1HcNGfhFFzkW3GhoarfAx\r\nEK+HlpPfyMjo+pXT824P6xvXKKoTe/4i6tJuRs2pKaiJvalfVcdPRV3hB9DW8RPZLkPUqiCQHfjb\r\n29kk3GErK7q6SxPjjBucMwA4RhoKALa3X599ANm5Wff5Y00f35StGr8zap1vzHyDZu0B86DRa2yo\r\nQ1NdARprC5WaqEYxsI1NPUbWyMjIyDPVLnZ8J7oufx116f+E2ribUCuQZ+lm23q3P+5mBYHNDZ9F\r\nS8vrqKujnWtUZQHtISsHdDnBvuO6DDHOuME4A4BjJDsA2uGPGj4A2v1OAOYZ8adPW33+tNjkyxq/\r\nzEyrzx+bV9i3j00xrOlsau5AU2US2k/9P7Sf/Fd0nHw/Ok79H7SfeUQMZI0YyDY3Y9tbPH80mOxL\r\n09hoNaUwjOovvYJOSculDuf2lN7WfXvmq39DXzf67WmMjIxuNLGlgjbhaQHArwoA/rMCPAV7Cbeg\r\nNukfURsrQJgwFXVJ77IAUOJYE9hYdRvaO74nAJgpZYBlX6ym4N61gBoCjTNuMM4A4BhpJGoAx3Mf\r\nQDYJ6z5/ut+fBkam4zo7TrMmkP172PyrALAiDl3RN6Gr8C10Zv0OXTHvwuUTk9FQFofUtDOqWUQb\r\nR4rgppf8jcDAQDWvFg0y+zQRRhnO88vt9HnmNtwPTt3A880maObBeO4/95nXgEBLECdYMp59ctgX\r\nicfByTYPHDig8uHxGwg0MrqR1SwvhQViK36Czq67egFgjagh9z9Qm/petaxLebcrjgBY+V9qkEh9\r\nfahAYFvPCyztkXszsAFA4wbrDACOkQYLgAQKex9A/aHx6xEA2STMebTYDKwBkDWB7gDYEX0LLjdn\r\nWuet7ji64j6MmuLD2BYcjl27dmHfvn0ICgpCWFgYIiMjsX79enXOmB9HPbFvoZeXlwrfu3cv3nrr\r\nLRw6dAhbtmxRwBcQEKAM7Pbt21U6AuOqVavg4+Oj8p07d64CST8/PzWPUmhoKIKDgxESEoI9e/bg\r\ntddeU8fCmfrfeWe+aubmfvAaOhcMRkZG17/YmpAmNv3bAoDf7F0DKMuahFvQUX0rms++D7Wnpljh\r\n3QDYoADwy7L9WikD2mVptTT0BUAzGMS4wTsDgGOkkQDA8dwH0H3eP0KfbgJmOPv+sQmYo+pYo9bT\r\nBKwA8F243JQiykRnzgPoPPke1JYcg7dvoAI29hkkzG3evBkbNmxQIEfo4/Qwvr6+Ct62bduGjRs3\r\nKqDjNkxHSJs3b57qe8hzHRoaotLt378fq1evVtsR9Dh3EtcJivwd6vnnn8eKFStUXoRM7j+vJX+P\r\n8Mp9YO2kc8FgZGR0/UsD4Lf6ACBrANsL/h0Bqz6C7b6fQGvmVNTZmoA1ADY0EACtGkDaKAOAxg3H\r\nGQAcI40EALJmTAMg5QIsu98CME+L5/7ref9cAGh9W5a1ZwQoNrv2BsBOAcBYdB6fjI7Ubwj4vQ9d\r\nxyag48QENJTLubhQomr5uI2ekoHnhzWMnHyVNXnh4eGqWZm1hFyyZpLAx30h6LFmkp9d4vlmbSL3\r\ni2DI42Ac8+L+EU65LWGTv0E/9519FpkPP8/E68VjJXxyGgh7P0IjI6MbTWwCvuDYBMw+gE1pk+G1\r\n6Nvw37oLwSv/CW1pE10AWEUA/G+x/yGorbX6JWsAZBchA4DGXY0z8wCOkYYLgKw5I3RcL03ABCwC\r\nIoHJvQmYkKUAsKkFjbUlaL0YgOaLW9Bc5CcKFPmjsa5Ezk9rrz5/XPKcUTSY7IPHWjjddKLjdVp9\r\njpmW4rlmn0tuo/OhdP56W/cl8+H2NPpMy6bgvoWBkZHRjaUBBoGImpImCAB+Ay1tQEhIBIKXvUcg\r\ncJIA4M09g0Bqak4LAFqD0FpbW5RtYhlhDf7gNDBmKhjjBu9MDeAYaaQBkEB1JeDypHj6nQCQNYMa\r\nAFkz1xsAOYiCxq8TDU1dvSXhzkb36qUhbrgaqXyMjIzGu7qngen6OmpT3oOakwJ4nAtQ1JgwARsX\r\nfg2NzVYN3tatkQhe+s9ojJ+A+oqPo6r6eeTnF6OoqASXLpWhsrIC1dXV6gWT5UJdXa2Sfd5BI6P+\r\nRM5YsmQJecQZUoxGT0MBQPsoYHsT8PjuA+jUBJzepwmYtYAcrcvvahKkaNzqeQPXU30nXO2t7pu9\r\ne905jZaV1inuSr9z5f1wVn/bXW1+RkZGni7aGE4E/QKaSz+ExsKPoanw46KPoa3kg9i85seIjjmD\r\nqKhDmDX71wjeejuaSv8D9bVfx/m8HWIbE5GVHYeMzFhkZ2coAGR5QAjkrAMaBrluZDSQyBamCXiM\r\nNBAAsir/SjWABKrxPw/gaUcA1INA+LF5CwCPqBpFGs86MZ6VlfL2W1GpjF19bX/GznojLi8vRW1N\r\nHRrq6lFTXSXh9QKSDT0GU6umsgqVVdWq715tLwMq65JP7zAtGluR5Nk3bhCS/arjftZWy3EwH4br\r\n37OlMzIyum5UU9skdiMf7R2PoBP/jc7L3xR9S0qBb8Hb506sW3sHVq58AuvXP4PWtlsl/AeiCFG5\r\nqFBUhI7OApzNyVTlAUW45AssX5KNjAYjOtMEPEYauAbQgj9XDWB7dx8zGo7rtw8ga/4IhvYmYIIg\r\nB1Bwm+aWVmQlH8XSZauRkJyGw/t34mjsabTKeWGNoN3ItrQ2Idx/PXyCI1HX1IbTCYcRueMgEk+d\r\nRPLps/IAuNLXNzQiLzsZM19/FREHT6owflmEcNfY1IDdEduQV9Td3NK9jdquqQkZSUewLzoZ/DxT\r\nbQ2bX8QYN3S/7cu1Yp+f2upatS2lt6WamuuxOzwEpQKQB3aE4kJpNdpbmhAVEYy8YgFRgVQadfs2\r\nRkZG14NoXy6ipfltecG/W/QlsfVfETt/Ozo7PoXDhz+ON17/EbLP/lzsfYS8+BbLC+I5sS358vKa\r\nIy+I+Th77owqD5ifBkADgaMndkFiJcx4F4+Dx0NnAHCMdDUAyAvnAsCc6xoAud4HAFvbkXYqCrPn\r\nLUNMzFF4e2+EX0AQXnv+ReyKTkWLwJo2sG3tzfBZPR/bdx3B0X2RmDvnLaz38cXimdOwaF2gwGRz\r\nT9oaAbe2zlaEBXnLOT2FlcuXYltYKPw2bcAm7y3w3rIRK1evws4DJxQY6u0amluQfHInIo8loaW2\r\nFG+/9TrWefnilOQRss0Xb7z0Gjb4+GDVynVYtHQxMnIvolHgUG/fIvu4ZfUCrN/sizkzZ8DP2xvT\r\nps/G+k0bsWHdBixYsBDRyWfQJA+r3sbIyOh6EZ9rdmtJENu+XA0Oqa+/B+npd0mJMBdFhauwZvUi\r\nBAT6wNdnI1avXIAdu0Iwa+ar8PJZj7z8XAOA10gse6uqqqW8LUFJSek41SXZ/1J1HDweOgOAY6Th\r\nA+C5XtPA9G5iHb99AJmGTcOcOoVN3IRA9gG0ALANKTFRCN8Xg4zkI1i2YiXWrV6JV954G7Gnc9DU\r\n4GqmbW1rRsC6xYjcfwzbfDdj9eqlWLxqBdavXYWA8P3yJtTSk5a1es2tjQgJ3ILduyKxdv0GbPFZ\r\ng1Wr1iDAbws2rF+H4K0BWL7eD/WNLnAkAKaejMKaTcE4eXgvnnnyGYSE78L8+fOwd1co3pg2G75i\r\nvHcfjMGW9csQeTRR3vhdANncWo+tW9Yi60IxwgK9MG/2TCzbIMApYLtw0UKsXLUae48nyr66tjEy\r\nMrqeRJvVJC+hLQJxTfKifBZ79wQgcJsfjhzejXVrVsLPbyO2Bm1B8DYvsV9LMWf2G9izfwfO5+cY\r\nALxGamlplnLqHMrKylFVXYOqmgZZ1iqYGj+qQXl5hRxHrqoJpDMAOEbqHwBd/f/6A0D2UyMA2vsA\r\nUi7AsvstAPO0eAKhOwCyto9pCIBcJ+DaAZDGreJSCUouVaCq4pI6ds7Zl56ajPOFxarJVRtWGsSC\r\n3GzEJSajsCBf5VNQUIiiiwU4nXkGtXW9++2xb2FRYQGqa6qQnBCP4rJK5J3NQEb2eZSVFCPrTCay\r\ncvJUvj3bSR6V5SWIk+twVq5Hamo6TqfEYot/EBoF2lJlvzLPnkNxaSlSZP1iaXmvfayrr7V+U8JK\r\nii6ipPgiEpNTUCTrvgKMuw6dVL9h9Q00MjK6nlVf3yi2MFPsXJ7Y93iUXpL1xnxcLEwR4BA7UpyK\r\neokrLT0tcdnIzuGUMJY9YblgAHD0RGA6fz4fXVJGA+3oqk4BOmqtwnscOQ4wPX/+ggHAsdZIAOD1\r\n9Ck4gqJuAubXQAiCPD5rEuUT6jj5IDaoB5KGzqqWZxjn2mMfPMKZXU1NzWhVcda3gVV6EW9+97RU\r\nY6M1lQzTMt8mScfaN20AuO6+DfdD9c+UfFvb2lCYn4ui0ko0qU81cRvub71a59J9e+5PQwN/m+n0\r\nN4ybcUkgsJHzHsr+uG9jZGR0/Yk2oLS0BLnnz4h9zEH+hbPykntW7CO7+0Qj/XSyvBwni308LbYz\r\nXdlQPZiN2xsAHD1pAOyQ8rj1zDq0ZW9CS9oCdLU3dJfg48NxQCmPwwDgGGskAPB6mQdQ12KyRlAD\r\nIGHQBYDR6qsehEKGe7KyZN+z5bhcYWfUfmvZ07rLni47+6ycn97bGhkZXd+i7WNryFl5/rmkHThz\r\n5qzYvxSxmRdRdJFzAFagoqIS7AqkB5YZABxdaQBsb5MX/eTZUmBLmZyxDF2NF7tL8PHhDAB6iAYP\r\ngB39AuB47gOYm3tONfXyOCxDl92rCTglJaWnCfjIkSMoKyuT89GlbmAjIyOj61Wc91WLftp+fiaT\r\ntpQv1nzppz1kOWAA8NqopwawSyDqUjTaUhegJf5FtBdGdZfg48PxfjIA6AEaLABaBmGoAGj3OwGY\r\nZ8T3BcBUlcYOgKwFPHz4sDpm41yO94q+J+zig01dKcw9nE3PxhlnnOc5vvjy5Zi21A6AFRXW1FQG\r\nAEdftJOqBlDK454vLXe1ofVcADo7xk8zsAFAD9FIAOB4nQaG6+5NwDRubALmcREGuc7jYxPwiRMn\r\nUFJSoo6dxm501XuCaE+V7vvDCcIJb1x2dFj3yVDFbVmA8P4zzjjjPMtpAOSLM+2mEwDSNhoAHD1p\r\nAOyUazGenTUIJM8A4Fhr6ABoDWK4EQCQ4RoAWRNIACwtLVXHrw1cR6ecp84ONUeeNnzu4ifjOHk0\r\nIUd9Pk7StsiN75SWIgTRoDJ/FSbLdoGqJrd0dnHgBjsG97cvfNCs/CxDwvxd8Ryo0qK2b2tvU9dZ\r\nH6NWi+x/u+y/PYzivvJeILyxqai+tgoXi8vEQPHD8N2fE5R82YdU3VNq6brP2uX3uK21fbsBQOOM\r\nG6Lrec5GSfp55LoBwLGVNQ1MrppGhefceZoVz1Z1tZkGxmM0EgB46tT47APIde6/Bj73PoCcD5Dg\r\nFxMTo5qAjxw5rGoAOWKW56CmvAQBm9dhzSY/lNY08OSpc6QNp3XOOtR5zc2MxdGkTLXe2lyPfIHP\r\nNoknEDEda834gGuocgGgqLEGu8JCUd/Shg4FTO0KqNq6f6ujoxPV5cWyL6vVvlyqrlf70iHxzPty\r\nZzsuFuajlnl1G2c7ADY3NaOypAABfn6I2n8Ye/ZFobiqCV2yLX+HLj87DQdjT6v1Tvk9DbAaAHnc\r\nLCaST+zE9Pmb5bha1HnNl/NcUlqCouJS5GRlIq+wCGfPZCBTzm/mmSw0yG9zWwOAY+t4n/B6WqO/\r\njTxZLDR5rej4rKhPUcpzMzqyPlfJ39EASFtqAHBsxHKH8+hxImVOqOw80bLnq1jK0Sq5Z3g8dAYA\r\nx0hXC4B82J36AFIuALP7LQDznPi8XgDIWkE7AHI0rDsAHj58SG7eEnX8NHCs/du+fhbmeoXiQnYK\r\nlq9Yhah9e7Fh7VqsXLsagdvDsHd3JDZu8YXXqjmYtdoXocHBCN26Eb+9/2HEJ8Zi1cq1CI8Mh29g\r\nEMprrClgaHjtANjUUI4XH/0bjp48jm2hEYg+fggbtnjjuCxXrliJPUdOqmsXvH4m5m7kviRh+fLV\r\nCN+1E+ER4YiMDMF9v/kx9sRnoa3VKjzsAHi5ow1L574O/4j9SI6Pw1uvPYWFa71x6OB+bPH2gZd3\r\nALy9V+CeB57E/kMH4OezGafPFajJpLmvdgBMEgCctcgP1aVn8eB9v8VDjz2B+//6MN6cMQ2//vVv\r\n8PLbb+H3v38Qm9Ytxr1/eQzF1Q0ClAYAPcHRCH/qU5/C7bffbuSh+vznP6+WnI2AjlDGZ2Y0nbIR\r\n3QDIrjC0oe4AyJHAGgC5P9zGHV6MRkYsf/gSMN7F4+Dx0BkAHCMNHwDH76fguM6m38E2AR8/fqxX\r\nEzBHYu3wno/lgTvxzit/w8NPvog3Z7+Jx5/+Ox58/Am88tSDeOL55/Dm22/i3j/eh8effxn3/PIn\r\neOGNt/DKtGmY9sLj+Kts887COfjZr+/DucLyHqiyA2BzYwXeePxveOLph7E/JgVvvPgwZi+Yi1/d\r\n8zs8Kr/12POvgPV0kdyXgF2Y9+qjeOCx5+G31Rtf+tRHsXDjdrz41B8Qf+6S9b1i2Xc7AHZ1tGLu\r\nm89j6469eOHR3+P5N17C3/72CH77p/vx9xeexetvv4F7/vpXvD7tbTz57JP4g4Cdf8QRATerz54G\r\nwC7htpy0E3jl9dkI8FqGhx78C3y2heIXP/8lDh89iGlvzMCBI3vx9twVyM1Jw2MChxkF5arZ2gDg\r\n2LtXXnnF0UYYeZ74UkpnB8BKeYFMOn0eyVRGt2Q9JTMfaedLkZSZh7LqOpV2KE4/kxoA+eJMe+kO\r\ngKwpNABoNFTRGQAcI13tIJD+AJBvhgMBmCfFM45+JwBkGg2AsbGxSE5O7gOALa1tyEg4ghMpZ5Cd\r\ncgpbt4Yg5tQJ7Nl/EFH79iH60E48//RDePOdlYg+cQR+vt5YtWolTsQlISwsFCeOHURQ0HbExZ+E\r\nl9dmXLxUKXlbE0n3qgFsrMa+HTsRFxuNoNBIxEQfwSYfX4GqA4javx879uxDSwdwOuGw7EsWslJi\r\nERgUgqNH9yJcfmfnwSM4tDcCJ1Oz0NrStwawqbkVJYVn4ePng6BtwTh49AiCfdfg1VlLMPeNp/DG\r\n/OU4HnMUh44ew46oXQgK8EN03Gn1MsB91QBIiGNTdrMcA89NZ2cXcjNisHjtFlU72NbCpvMWtLMJ\r\nWdY5YXWn3FfczgDg2LvXX3/d0UYYeZYmTpyovr5ERyjjM8wvQyz3iUBYZBSi9uxX2sXl3oOICI3C\r\n6r8+LbYmFCsDo9RzORTH/O0AyBpA2suioiL1BaTy8nIDgEZXFLsvaH6gdDidAcAx0tUBID8ebgEg\r\nQWk8zgPIddby6SZgLnksbAKmkbM3AXMC6Li4WBw61LsJmCLotAkIWcDjqsmicLkTRw5EoaS6WcXR\r\n8PLcWqAkaSWN2ka25TkmOOl8XQBoGVILsNpVvz5rO2tibi37vrT27ItOx33q6IE/5mcHQIrfJGZa\r\nivtyaH8ksvOLcOzQXpRWN6lm4vbu/VaDReR39LZ2ANTHr5fsK9jevQ9qgIlKo+Ot9PbtDACOnbMD\r\n4L//+79jxowZ3ZpuNIaaNWsWHnvssZ5rQwCkzaUjlPErPU0tbdgctAu1FQWouGSJn4esvHQBZ1OW\r\nYP2H/h3HtwUgaNcJNDa1qm2dXHOLAGV9b0DkM64BkPaQtpP23g6ALAtoU1guGAA0chdtO8tglqss\r\nP3mP6Dg6A4BjpNEFQLvfCdDGLl6vE/z0PIA5OVYfQAJgRoYzANLo8ebl8V9JNSL2daivH/q0MTy3\r\nTuEjpYHy5343CRDyU3eu/XeelkZ3QNfQNxwxDxYcvMec4o1GXjznGrjtAPjFL35RhRnnGY52SV8b\r\ndwDkM9Pc0o4tQVEoLz4vNuocLhZfQF5OIsrz5iIz5heY/cYjSE9LQGDEIVXj7+Tq6rrw4F/ScOzo\r\nue4Qy7kDIO2mOwDqr4GYGkAjd/FFPypqF9atW4fAwEDMnDkT4eERqrKB8XQGAMdIdgB0wd/QAPB6\r\nmgaGYJiRcVqlYTjhkM0t7HR99OhR1QTMqmxdjW3U5AgWVyt7E4HR6IuFdlubBQR2APzCF75Ai9At\r\n1ggZjZ2gwEtfm/4AkDWAl4pzUXgxH7lnD6Ou+G3kxNyDRTP+hFOxMaisuAj/0IOOANjU1IH77z+N\r\ndeuPo6Oz94TCgwFAlgWmCdjIXSwrWflC+KMjJzz55JMIDQ01AOgJGjoAsmboxgFA1gLaAZCdnq1m\r\nVVfz640uJ5Abjpx+w2h0xOfYAKCna5AAGLgTpcXnkZ+bgKqCd3As5DdYNP1PkjYaxUV5KCvJg3/I\r\ngT4A2NDQiYcfTsWWLcfEZ83LZnfuAMjWEg2AfCHuDwANBBrxhZ5drPz8/NS9RD/vmeLiItW6xDR0\r\nBgDHSCMBgAQkDU+uJlc2wY6PPoCuJmBXH0DetJwOhoM/dBPwwYMHFQDyXDiBy4ipu3B2jDMyGiEZ\r\nABwvGiQAbt2JyvIcHA6Yh7DVf8GKRW8g9tRxgb9zKCw4i0sl5+HnBoC1tZ3485/T4bXpuPj6wh+d\r\nOwDShg4GAO0gYHRjiq0MXK5fv159SpVl7YoVK1TZzNpBxtEZABwj9QeAfNg1/LHGayAAtPcBpFwA\r\nZvdbAOYp8VzSkGkA5HHoeQA1ALL2jzV/BECOBB4ZAOxEe5sL8HpAT5YqXNTYyA6yNOotvUCQI/3U\r\nIJBuv5HRcDQ8ANRxN6Kczsdoqi8Auo8CJgD6bN+LPZExeP4PP8GGFe8g91wmigpzUHAhS6mkWAAw\r\n1AWAnR3AU09kYO1a1vxZE/I6OXcA7K8G0H0QiIFAI4o1fbwvdu3aheDgYFX20v7oeDoDgGOkwdQA\r\nckTp9doEzKZf9yZgDYT2JuDkZKsJmMbuagGQAJdzOgHJmXkCei1okTCO/OW0KDyvza2tcr47cPJw\r\nBKa98TZyigib/JoHv/jRgRTZj7Lq+u6vgRgZDU9XD4B2GLoR5X4+RlsDAyBHATe3tCkA/N+f5GD2\r\nHF+UFGWgtOScLM+KclAsy8ryfAWAjRoAO4EL+VViX/qHP7qrAUBKF/BGRqwJZLnJyiRd86dFZwBw\r\njDTUGkB98foDwKHMwzfW8YyjfyAA5LoGwCNHjgwLAFl0nEmORuSOCARs24qEU8ewYfUqhO+IxMql\r\nS7FolRdqW7rQ3lyOrUGhOLY7HK9OexsBvr7y9nQQc15/BUdTcsTqdzrmb2Q0FF0dAAJr167Fpz/9\r\naZXmRtJtt92Ge++9V87AtQbBKzcBd3Zexqpte7Hz4FEcPBKNk/HJiIlNRvQpKgnRsn4sNglrgg+I\r\n/bI+7zhY5w6AugmYNtQAoNFwRWcAcIzUPwC6+v9pAGSh4Q6AbDa1NwG7+tyxuXV89AF0mgdQNwGz\r\nD+CJEycUBO7fv3/YAJidGgc/740IDI1A4om92LBxC/z9vRGwNRzbtvrjQlkDWutLERi4HX7rV2Lp\r\nem94r1iKTX47EL51C5LOFuKyXA+n/I2MhiINgOyYTTdYAJw2bVovG3IjiRDoaQBYL4BGV1lbh5Qz\r\neUg7k4/UzPOivO6lpaSM8+pzk0N1dgCkPaQN1QB46ZIFgFVVAoA1nAaGAGh9D1gV8E0ucfYIIyO7\r\negBwuQHAMdHoAqDd7wRoYxev1ykNgFYfwCxlbO2DQAiAsbGncODAgWEBIAvcpjoxjnUNyM44jfKK\r\nSmSdlmVlDaoqq1BZXoHmVknX1oKK8io01tXg9Ol0FBQWoaysAqUlBSgo5ShkqzbW6MaT0311tWJ+\r\nVwOAnBzabkNuJPV/XkZTgwPA0XJ2AExISFCT+XLOVL5gFxReQHERawJLxEZdQkUFawP5aTjWCPLr\r\nIC7Rb2TkLs4TuGzZUt7bfR84o9HVcACQ34AkNF1v08DoJmCCImsBaWwTExOH3QRM8bxxpFxjYxPq\r\nCYNyLvnWzLC67gmXa2qst2jGNzdZXx2xmlW4rFOj7exi04t7mF1O8QxzD3cK0+FOYWb7a7e9FjtU\r\nO91XV6ORAMD3vve9+MlPfoIf//jHHqcf/ehH+PnPf45HHnkEDz/8sFrSz/Af/vBH+OMff4Fnn/0d\r\nnnnmd3j00V/jxxKut3v00d+o8Bde+D2+8bX/wmQ51kmiL3ogADaIbRjIpZ4+h5zzRd2+vo4D3djy\r\n0Z+zA+Dx48eVvac9TE1NE1uZIfYzW8qBHHmJzhX7KS/aefykJkWbKtLL/IJuaf9AGmw6raGm9wQN\r\n5XxcvyotLcNrr73Be9sFJkbXRlcLgCyYrmcA5HERAFkLOFIAyIK2St549PpgxPOt1ttcYb2272/d\r\n6LoSrzlfAlgYj1RN4EgA4Ic+9CGsWrVK9eHxNC1ZskRNP8HuG3yGuaSf4YsWLcGuXeuRm+uPszl+\r\n8nx7q/Cl3dvRf/asHy4WheGl5/+Am+RY/1H0ZTkvYiHlLHgQAA5QA7hnXyw+/OkX8KvfvyppO7pD\r\ne7ulS5firbfe6vb1dXYA5H6w1YT2kjafsyKwJYjlAV9imZYvtxRfVtj5n8uW1ha551q6ZzZgOSJh\r\nDBc/11UaWddpm5ub0N7ZhU65R/mZyj5puv0UPzFJPz8zqcM8Wcqm8/mT565OXupbZGkdjzViluvW\r\nedHH3eQY1jutDtPhVlrrN/sLs+d7bbfnfcF1Lulee+013tsuMDG6NhouABKmaIyupz6A9iZgvh3r\r\nJuDh9gFkQcvzNtgC3Pqmb6d6YGhcuZ19nWlYS9jSQkAQYyLrfKDc8zEa/+L1ZuHqaQD4wQ9+UGBq\r\nEebPn6+0cOFCj9GCBQuwcuVKNX0Tu29wSTCcN3cuZs+ei+DgZUhN3SjP+AYcO7YW77yzQLZbJMt3\r\nEBOzUV4EN+N8bhCef/ZeBYD/IPrvO+5Q56B/Zz9XI6WrA8DW1hqs9YrArf99H7aFhItdt/KyO77o\r\n8twsWbIYW/xCcTiuSOxJW3es5ewAGB8fr5qAaSdpS/kCrUcDEwZpHwmE+tNwtHe1tfLiUluMaX9/\r\nDi+99BJOnT6PVoEdqxWkFrV19eo75VXVNVb5Ul+L4CB/7IqKxMmkM2gVm8Y0nDGB+bLVhHaP926j\r\nwGFm3D48/NADOBSbgRZJy9/0VHGf2ZJTdekCAjZ7IShsF8prxF9ZZZWrcs7YClTNY2uol+PlN9vr\r\nUS3bMr5ajr9Wjp0vg8yLrUVOvzMexGPgPcL7ygDgGGkkagDtAEi5AMzutwDMU+K5pAHTAEj447Gw\r\nNpCDQFgLyCVr/giAPMZ9+/YNax7AoQIgRdckBriy9BI65Xc55UPZJWudb7zlst4shrRN8uZ6gw0O\r\nja4fjQcAJDi98sorePHFFz1Czz//vNpXTkBLyOG3vBUAzpvXDYDL5Rn3QnLyRkmzWqXndi+88AL8\r\n/GchLGIudu9Zgj//4UeqCfgW0ec+/WkFY7QNXGrxRZH94CxnP18job4AaJ8GxgkACRFz3zmFN2cv\r\nw569+5S9cHe0dUePHheIK8SGDRsRGr4b970YhjleiWLjXc3KTgBIW0kb6g6ALBMIaXYArKtrEKgr\r\nwp9/8Qs8+szzOHB4P5545GG8Ov1tvPTaG3hzxtt4Z8kCvDXrbbmPZuKtmbOxfMVSPP7Xe/DijHfk\r\nvpqNOYsXYO7b0/Hm9Bl4c+Y0zFu+HpX1TXIPt2LlgukI3RGGmfNXoKWtQ93TnqxmeWGPOxiBvdHJ\r\n6vwe2rkNK1atRmhYMN6ZNQfzFi7Aqo2bEejngwULl+BYTAzmzpqBrcHbMW/2PKzesAn7jx7Frt27\r\nUCFwXefwG+NBBEDeHwYAx1DDBUC+CV6P8wDSwNHQ2ZuAWZBcyxpAnusqeZtukvPdJb9ZKwaV6zTm\r\ndbJe150Xl/Rzv1qbraYQbs+48ST34x+PGq1jYZ6eDoBcfuADH+iJ8wR96lOfUvN3DgSAaWmbERo6\r\nW4GVa1tZp989rGe9r6ZPn67OT+/zNRIaWg1gV1cznvn7fnzjf+bKdvHdoX3djh07kJCQKDalWSA4\r\nFZu8vPDiy6/hJ4/IOck4053KCQCtF2YNgMV6PkA3AGRtlgbAhtpCPPXQI3jrrVfxxmuv4i8PPYWg\r\nwE3488N/w/MvPY37H34Eb896C28IAP35vnvwwONPYcnCmZgl1+rlV17Ca2+9hD/++WEcS8nE4/f+\r\nEG+t9UeH7E9JfhpefGMW2i+3Ye5bryH5XDGa6hv6wIaniLDW2NSC/MxYrFq7Hslp6fDduA6+fr5Y\r\nt34VIndFwT9wK8JDA7FgwWJs3LAeG9etVy8mi1Yux449exHgH4R1qxcj7EC0akZ3+p3xIKsWkwB4\r\n2QDgWGmkAZAGYSAA86R4xtHvDoAc+KEBkG/6YwmA1QRAMcAd4icAsgawo02gr6pa+Ql79XyYqmtU\r\nmjYNgPIb7JfBa8QmGU9XeXkFmpr6DnBgfyGPVJ/9tMCPhSWPZ6Sb4nXeBgCHJgLgsWPHrgiA4eFz\r\nHLcfinoDoD53TudwqBoaAIbvOI2/Pr4Y6RkJ3SHOjnZ9584o7N27H6tXr8GCd95BfmEpvvJ7X6Sd\r\nzupO1RsATyWkIC0rD2dyL+LshRLkXSxHQWk1LpbVoriyAaXVTSirbRa1oLyuFZV1zahpbEdlQwsy\r\nc4twsbwSGbnFSD1zDmnJcfjjY88hNqcEJWLLYpIycL64FImnc3AmT9JeqkBqTgEyz51HytlC5Mq+\r\nldTU4c1pr+Pw6WJItsjMOo19sZlollOcmBiP2Kwi1DZ3ye+1eZwq6ttQ09CKKtnxmpYunMnOxcn0\r\n8yguq0JsUjZKKurkPFbjQkkVyqrq4bV+IyKOpqK0qg7xqVnIvViJixX1yC0oxiYfH5wtFYBqdP4t\r\nj1d9C+qaO+SctKJDrp0BwDHS1QIgCw7CBUGJzRHXWx9ApybgvXv3XrsmYElLiKPTTcD83UZ5uy3n\r\nOvOQNAxvkevR1mKtN9XVo7P7U3NWp2w25VyWa8hZ2PuX5fqms65/77CRFn+DhYy9byNF0OroEAPh\r\nierkOXZdL/av4hQZqfJGTz+vFZ8bHT9c8byMBwCkX8e5a+KEiT1yih+qBpOfOwDyO6Rsqp47dz5C\r\nw1aLLfBBVrYfIiPnS/retX0EraHs64wZAwGg+3kcigYPgOwL/Ojj0Xj6ma3i429ajjbdyXF7H4EJ\r\nXj921q+pa8Cdv50v8Hi2O4UNAGV999InETXte9j/9k9xZPZPcWLuz3By/v8idsEvELfoF4hf/Esk\r\nLP6VpUU/R4bvc7gQ9ibiF/4Eqct/heRlv0Da0l8iXdZTF/0Qe177OtJXSPjyXyNd4lJX/Abpq36D\r\n1CU/R4qkS135O9E9SJNlyqrfIWHhDxH+4leRsuK3SFz6C1nKdpI+YYlsu+q3sv2vVHjikv9F4uKf\r\nyfrPbZLwMVT8wp8iP2ohzmz4C5IW/xRpso9pcsw89jQ5tpRlv0Yqtfw3SJPzcPzt78r5+iVSFv1M\r\nztev1TEni+Le+SF2vXo3UlbyHPB4x5cSFv0vMvyeQ0H4m4ib+12UJYTgtbfe5r3d96EyGl1dDQDS\r\nIOgawIEB0O53ArSxjM9T69RAAMhCfaz6APJc17A2qaERne0dqtZP1QDK77N5hU2/BEHW/ukm4Jbm\r\nFlU7xd8gUNGoExhb5Rr259rampCWFIfE5DR0dNkKisudaG5qVp+ws98PIy3CEycFtQPg5a42ZJ6v\r\nw5f/UoH//msNvqJU3b0cW93xQD3ueyFHzr3rXF+qqMTCR3+PqM0rcPpMthyXVXDzGrpf16sRf2O8\r\nAeCkD03GpLtEX52EKT+agqnLp+LmZTerJf2TvmrFT/7QJAEtl03qT678Jlv5LbvFym+Zzm8iJn1z\r\nEiZ/eFLPNvYmYNbgP/DAA/jpT3+KX/7yV7jrrq/jM5/5CG797Efxuc99El//2tfx9a9/HV/96lex\r\nYcNrAoXz5KVvMf7wxx/25McvoNA+uPcBpE0hAN56663q3Gndfvvtakm7Yjn7uRyshlYDePRoNo4c\r\nYdOvte1gHG08HZ/1BLEDHHSgnQZApsiY9RWUPjEB5X+fgJrnJ6DhxQlofnkC2l6dgM7XRW9MQNe0\r\nCcCbIvF3rLgVHcs+Bcx6Ly4v/gDwzofRvuYLaF//HbRv/V9g+e24vO424BXZzudHwFuy3dvvRXvg\r\nL9G56hMqHK91S36Deao02k9xneE6jNss+H+4POfdVjgl+6X2ifs2FuJvy/61+vwEl6dPVmHtPj9H\r\nu+93rXh9bDwGfRxczvpXtAX+Cp0rP2rF63Td+fWksx8b1z1Zsv8dK25D+/LPAnIP4ehMvDZ9Nu9t\r\n6wY3una60fsAOjUB2/sA6iZgguChQweveROwAsD6BnSKn5DHGkDG1agm4BpVC1gvedZ1r3OUMOP5\r\nGwSq1tZGnE3LRHFpsRznWZSVFMsxpamBJCmJSbhQfEld+4u52TiTdQEXzmXhdGYWii8WozA/F7si\r\n96CprUNBmv2eGEk5ASAutyEhsxb/9N0afPAXjfgP6ueeof/zk0Z86fsh6GhrVvvL65p6OhNf+eD7\r\ncWzB8yi6VI7t27dLoZ2sniV9PYcj/s64A8BPTMaEn0zEhO/K+r2TMClCwCxMACZS1sU/8bsS9xOJ\r\n++QgAdAtv4nd+TFf+hmu89PbuAPg7373O9x99934/ve/j49+9OM96d71rn/AD3/4QxX+ne98B/v2\r\nL5Pn31vsQSCeffaennR3DDAK2H5e3MUJ5S1nP5eD1dAHgYykswNg+uw7cfHpCSh5QSDwJYFAga36\r\n1yai6Y2JaBH4aBM465guICi6LIV926o7RJ9H1+z/QGvI/WgJuBfNQX9Fc8hzaAl5HC07XkdrzEy0\r\nLfw8WlL80DljClq3P472JR9G18z3CTD9Cq3e3xVg/K6k/xPatt0rAPnfaPP7LVqD7hH9Du0rv4iO\r\nJZ9E2+qvoW3r79Hm+0O0rbwbzSeWomXbz9Cx4COSRiCU4DhjDCXnp9lfwHbGzehY9yO0eX8bbRt+\r\nhlb/X6A1+I9oX3U7Wrx/jtYtPxDouw+tvj+Q/X8IrWvluASkCU4952Pj99Hm9S20yPG2e33NAis5\r\n546/62lS98UX5Xp9EZB7CMfm4tW3DACOiYYOgM29moDHIwAS7rgk/A0WANn5mdNIXEsA7GkClvPN\r\n5t0uuQ5sDuZoX14T1j6VXypVtXScU6q8pFRNj8D8KQWALU3ITT+DUzExuFRZhdPdnbhPRkcLAKYh\r\nPi5N/calwlxkZ57D7ogwJKam49Duvci7cBHxMcmqVtB+P4y07ACoj50AmHimARM+n4opX4jG5DtO\r\nYMod0R6hCbcdx3/dtQGd7a3qPBPUC+XcP/rT/8GBBa/gaHQMtmzZou6bGxkAJ390Cib8jwDbnQJl\r\nv56EyVHi3zURk6Imi18k4RP/R+I+5gK2gTTpYwKAkl7nN2m3+HfK+i7mJ3lIOOPt+bkD4O9//3t8\r\n73vfU7WAn/zkJ3vSvfvd78E3v/kt3HnnN/HVr34DO3ctkmffS2yDL556+jc96QY6L/bz5y6OErac\r\nfZvByjMAkHtCACzsAcCJqHrVAsDm1ycpAGwXyCL89QLA1QLNr8l65CtoDb0HLZvvQ/Pu2QKBAjvr\r\nfo7mqGfRvPd1NO18EZ2zbkFbyJMCgB8UcPushP1dIOivaNnzOpq3PSnrD6A58g20RD6BlvAXBCgf\r\nlLxeR0vg79G8a7rEPS75yjaRL0n4y2jdJDC4/w10LP+wBUlOQHKtZAfA9T9A6+a70Lrhx2je8RJa\r\nQh9B666X0RC/Bs3b5dh2yDkhJEc9hZa1P0bLrsfQvvjzkvY5OQ8Py/l4TeDvj2gKfhStkY9aNZzj\r\nCgC774uXxX98Ll4xNYBjo6EAoC7saBAG1wQ8dn38Boon2HE5+D6Ax6Uwj7m2fQBFTM9pXdjsSwhs\r\nrK9X0usNddY6B4E01NahuaFR9Qdk/hSBqqW5CVVlFSgrLUbmmWxVA5iWdkbAsRyVFZUoLSpVRVlD\r\nTRWqKmuRn5sjhV42CvMvoKz7+jY0W33c7PfESMoJAC9f7kBmTg2+8J1A3P4db1n6eIxu+6YP7rk/\r\nWO4Dqx8gzzUnuE1LjIfX6qU4cvSIGp1Hx3uF19F+Xa9G/I3xBoA3330zprw5BZNfnYypz0/F1N9P\r\nxc2/v1kk6+Kf/PJkTJk2BTfdfVPPNgNJ5feWQ373yfrfb8bkVyQ/+b2bvuXKzw6AXH7rW9/CRz7y\r\nEQV/73//+3vSffCD/1f2/3k5jmcxZ+7TOHJspZoehgD49FMWAA78JRCoieJ5Dnl+tDgwZPr0GWqU\r\nrOXs2wxWQ2sCHmmnAVDVAM78KoqeEAB8TgDw+QmofkkAUNT8ygS0CuS1C4joZuDLr0tBv+I20edU\r\ns2zH0s+jY/EH0b7oU2hd9QUV3znvQxL2cQG0z6Ft2efQRXhkbeHWe9G+XNJ5CSht/LoA4a0ChB9H\r\n+8KPoG3lf6N92X+qsHYJa1v+WbQF/k7SfgvtS/8THUv+SwCDzczfROvKL6J91+PoIiDJPo1pM6mc\r\nn2afnwoA3oSuNyei1fvnaNn0ddnXn6D1wIvoWPRhAcLvChTL8S77lHXMCz+K5gA5ttVyPHKcrZt+\r\ngBY5H21LP4vOOR9Q8Ngaeb/V7O30m54odV/I9eZ9IS8SODrLAOBYaaT7AFIuALP7LQDzlHguNQRq\r\nAOSxME4DIJds+uXnj2JiYrBnzx5cumQNxnAvTAejoQIgm3NZ89fIgR3ym1VyvtV6u7VeU1Wl+gBy\r\nydHCar/k+tj7AGrjfbmL6kKnSNYkTJayzuvLtLzG9LNgs66/pGWYhLDmkXkzHcV1PYDDgiCGMQ8d\r\n1jftQNvTzykBuL+M18dPuOrsoCRvD5R9EAiPoaysXNWuasdzq+OHK54XXkvKfo6GI+YzqgD4p6mY\r\nuG8iJuyS9RU3Qw+o4JL+CTsnSbzAnKTT2wwkpmN61iLevNIhP/mdifsn9srPPgiEy0984hM9cXbd\r\ndtvHkXMuQDX7ZmR4I0ngLzFxgwLAZwQAOQ/gQF8CuXy5/z62Lmc/j0PRaAKgPhatvk7bEHYPTl5x\r\nD85P/wSKZt+G0nmfQ8XCz6F60X+hdsnn0SCA17j8djSvvB0totblt6HZ/zei36J9xX+hfeXnZCkQ\r\nuFrW2Sy87kvokGXnys8L/N2GTllvk+0IBgxjXOvSWxXsML5NILGVoEjgU0sLLhnHdK3LJG13ePtK\r\ngcCln0Hj1j/K7/+vFb7yC1b+YyUB3MaIp9Cy5mtyDm4XyPusQLHst89v0OH/A1yW/e6U/eyQ42kn\r\nDPMY1PptuMz0PNbu89HO7dbejfqDb6HJ/2fW8a2S36Dcf1fCOtfcoZqYtZ/N8r3S63Ud7hTWK/wq\r\ntxfxeNR9EfAbtAnAI3ETXntzJu/tvg+m0ehqcABoFd4sNNwB8HrrA0gQ1E3ABEPWAhL+dBPwtZ4I\r\nurPDavatErignzV/leXWOmuZKmV/WEPY0tSMCllnjaEaISwiQPIaVXbPy2WfdkXP1TXYsKGkdQq7\r\nUlruJ/fX/dxYNWyeKft+Wvvarp4dgvNQrvFgxPzGBQB+wAaAvxdgE1hjPz0O1ugFbEsF2EIFAAUC\r\np943OABkbd/EHQKAobK9U37sXyi/x5pBvc2nPvkpHLUBIIFQx9l162c+gvT0zQJ967q1oV8AdD4v\r\no6nBAyDtc1hoGAIDA7F161Ylf39/ZdfcXWtrJ4KD6+Ht3QhfX5FPIzZvbsC5XKv2WrseAJTfSkxJ\r\nRk7ueVwouIiikjKUsnWhqgaVdQ2obmhEXZOUDy2taJR7qqlV7JXsT6P4GxprJU0t6mV5sbgMRYV5\r\nSE7PQFVttZoahlB98WIBGlrlhbCrHZmnU3DuYomqdWQXlLZOea7klFP8RFy7nBbtb+voEsnLloRz\r\nShFuU8oJ8tvlxbVL7vVWeSmWMqxFntmxVgM/i8aXxcpLqGtrRUlFmapUyDqdgtyCIpRcKkZ1cwua\r\nWhpQIGUqPwVQ31CDhKQklNc3qWPjgL5WuR7t8hLPgWgt7IrC8yRh6lzxXHSfD6bnJ/hK5Dpxrod2\r\niW+VuFZ5gbX2iUueG+23h9nDncKufvtGuSZUs8TRvfaqsj19H0yj0dVgawB1ocM+gAMBIIFqIADz\r\npHjG0e8EgDyusQZAGnP26ePAj+bGRqs5uLsJmOsqTq4FJxdlMzDXmc4OJ/yt8SL7sRv1Fs/PuADA\r\nTwoA/oNAys0CZfcT2K4AgDsmSToBRUk/8b2if7TSaNGvwnvymzQwAO6U9b9InKSf8K4J+PTt3U3A\r\nB/sC4NSpU/He974Xt9zyLnzpS59DeloQkhJ9Bfz4beDeNYAcpDJV9CUPB0DasXlyLdJpu2SbjIzT\r\n2LVrJzZ6bexO4XKVFa34v/+3TvLsELV3qw2r1vCLJtbv0tkBkH0Zs+XlOC8vX2yoAEtJKcrkhZQv\r\nmTVyL9Wxa4rYIP0tYPYXbxIArCg6i8CwHTh0cCe2+GzDlo3rsWb9OmzcuBavvr1cXmCr8Ogjj6K0\r\noQuxByIRtmMXsnIvoDAvF9nn8lFeUozTaaeRkZmpBlnl57C1JkuOMwvlFXyJrFJ9o8+JLc/KzUde\r\ndiY2r16DE4npaGpukG3K1PfUaVPHTAI8DY0NqhUm5shOHIqJFUD3FW3D2lVrsH7zFsx/+y0EH0hE\r\n+skdeGH6MrkKHQjy8cKR6BgUlZbhTFqqgrn8nGxknjmDdDkflVWVyExLQ3bWGTlX51El16NGwsqk\r\nTE5PSUNhcSmSoo9i9coNuFAicdXyAl5dq8C4tbnVJSnbLdnCe8JEPWES7x7WK+3A2/NcNDbJPSJq\r\n6v7soAHAMdJQAZAPtTsA0hiNxz6AlHsTMGGQI/bcm4Cjo6NVE/BwAZAFLs/lYMQHhbV6BD65KFYT\r\ncLcxrhajx4mgu+Qtj0s2A7MJl/MBtnfPA2h0/Yj3nKcD4MIFC/HBX34AE74nkPLtiZjyyhRMCJd0\r\njgB4kwqfEDFBpZss6Sf+aCImf2NyT94U/Qyf9K1Jkk62kfT9AqXO79UpmCT5cVTwp+4TADxCANzf\r\nBwDZHPzjH/9Yjfr94x/+KC97aQKASUhMoPwFANcrABzcIJDR1OABME/ssI+vb7fPcnzJ9fb27vZp\r\nd1nAoQ0f+lCj5HlZ1NmjdeuLJN716bg+ACg2n7aUL9AlJSXKJrI2n/cSu3JYANgoZUWTLBvUemd7\r\nM7b5bIDPthDs3x2F1UsXYfGKDYiKisCShcsRFOQv4LoE5bXNCN6yEeUN8vtN5Vi3Yjl8/bywePEy\r\nLF60QLZZhdVeG7DwnaWY/85c9TWNNevXY9/+Q9iyZb3KY7mAn4/PFsyZMRuBQcHYti0Qx+JTVTnW\r\nC8jGQDyXrWKfq0pzsWLRQuw9fAyh2wNlX2fCd1soAgX21q71gq/3WqzbGIKmmhI5Ln91HbITjmDd\r\nug3wlvM4f94SzJPjX712A9ZsWCfP3mLMledvpZwPr02+OHLkIJYvX4YFi5ZjjdcmrF+7HO/MW4bt\r\n20MRFLwVF0orpZwYOyDmRPkU1+nMRNBjpJEAwPE2D6AdAKn+AJBLVx/AkQFANnfSIPIcDkbsF8ea\r\nPt1HTq/T2CqDK37WAKo4Gl9lgJ3zMhq/4j3Db6ty3ZMB8AO/EADkSN27BcReFgAksAkEOgIg4VDi\r\nOXiD6Sf8QNa/3ntE8CT6JXzC3QKUA+bnAsCe/L4jAHjvJxUAHuwHADn1CweGcHSwGvQlgEMITEpg\r\nLeD4A0DaYX7tpLKyQg08oY1mC4bXxr41gBWVbfjXf2uQPLts6sDKVRcldmgASLvWA4Dd96sLABvU\r\n/IIxe0MQfuAkEqOPIzhoKy6WNyAvKwkH9x1CYHAI9kRFobSmGWdTj2HlmvWIjouF/6aN2Bq0XX2x\r\nJE7KmeiT8QgPDcbuvUdx7OAhxMedwq7wcKxesRirN3lh7/5jOHZoL7ZtD0eQrw+i4+Mwb95MlNe3\r\nqGmy3EHkWovnhsvLnS3YuGopMnLzsW9XJMJCd6nm2iP7d+NA1G5E7t2PqF371HnbFeKHLQHBOBV9\r\nFOtWrcGOqJ1ynEdx5NAhJMjxbfXzx6m4BBzcfxhHDx9AZMg2LFz0DrwDtiIuPhnhYdsQER4Bf19/\r\nHDu6G8sEENkT3H3frqUMAHqIBgOABB4nAOSUKDQG43UaGMq9CZhAyO//6j6ANLw0oDxG9iMaDgBS\r\nQ4E/SqXv3obrA20/1LyNxp8Ia0731dVoVADwfwUAvy2QctdE3PTyTZgcORmTIiaqyZrtwKb8nA9w\r\nx2RVszfxzomY+F2Bt6/1rgGc9DUBQAlnflNeuVml5/x/nATaPb9JkRMlnjWFU9QUM4TAT/3OqgE8\r\n6NAEbK8B/NOf/tTT5SM1JRXJSawBXOexANjfNDAsVDdt3oS1a9di/fr12LBhA1auXKUms3d3zS2d\r\nWLn6EmbNLsbceSWYN78U098uwvHofIm1fpeO+WsA5KwI/QEgy4T+AJCj5NvYMiFqa5H7j82PvA+b\r\nrbB22tRWtnrwSzudVleXJjYdCihwcnuJa5XtetQq26ql9TyoZ6NZ1mX7VkriOzrbkBZ/BFGHotEh\r\n5Zg7hIyFuJ9qXfZbHbfsO/dXHZ/sc4scE5/LzjaejxY0S7qO9g71kt/azuNsVOeRx90i6V3nQx83\r\nz2urdT66zxHTWee9XmA5CBl5F9EhaViWj4V4/AYAPURXAsDOzv4BkA/+eAZAwl9/AMgwDYBs/rUA\r\ncP+wAZDn0cjoauV0T12tmN9IAeA789/BgvkL8IHVH8KE9QJrXlNw8ysCZb+yJmnmlzr0NvzM2pQf\r\n3YSJnBz615Nwk4Ad008W3TLDDexmTMXkTVbcTSo/Acp7rS+BsF+eJeYn0Mf85PduEqCc7CUguXYC\r\nPun1SRw+dBgHDxzstw/gP/7jP+JDH/qQgsD7fv973Hfvfdi/d5k8+9Y0MOOpBnDoTg0T6BaHElDW\r\n1EzaMX8NgLSNbE2hLWUNowY/pmHZwHuJ95Ue5W/da63okvUuzjwg+RDwOPq/WcBOAnrC9W/QEfwI\r\nLjp8qNL3NGcR4Ohl62tGnPVgbMX9Yh9AnhveQZ3dZSzBrV1Aj/suf/i/exumggJqnjc692O9kliO\r\nE7bpCJV07vt1LcV7y7Jn1vWlMwA4RhoJADx1anz2AWSzr+4DSEi0moDPqGaO9PR0ZXQ5+IMFByFw\r\n9+7hTQND8SHnuVTn1CGeGijOyGikNOIAOG8B/iPgA5gQKnE7JlpNsayJ45c7vurWtEs/v9wh8ZPZ\r\ntMvBHRETcPPy3jWFanqXSEm3cwKm9Juf/NZXJE7nx3SSfkLIBPxn2Cdx6KAzANpFCGRNIJuD77rz\r\nTuwe8kTQo6mrB0BubRWxV+/sAEi7SFtfVFSk7D/7/rH7CQHFghgL/lh2cBvlF4ipuXQe+0+cFIA8\r\nhe2huxG81Q8r1mzAzl0RWLVlu/xKO+bMnoHKlssoPJsMH5/NiEnNsPLoBh/mRUmQAkplh8WvnAQy\r\nLafLIlQV5J5DnPxeZW2TiiZ0eYLjc0eXGHsIGbnnsWdvJPbs3of1q1fCN2g7vDesRnR6Hopz4rBk\r\nzRaV9sS+SPhv3YoLZdVq+il196ly2eqaRceZH3jsHRKunEpknf+21mZkpqchLjZF4T6dBsuxcrx2\r\nlHYGAMdIzgBIUh8YANkfSQOgfRAI5QIwu98CME+IdxoE4gLArD4AePy4BYBRUVHDAkDCH0fr1tQ2\r\nqKlcWvmJNQ7V55uRnGcaWBrPCvkNNnvw3PN6qIdFtlV+lcZKq4yjw+8YGQ1GfKZHHAD9BACDJY59\r\n8V4TEGN/QH6e7S43ALxL4iSc8ZNf5WARgT4O7ljqBoDLuvv2hTM/SUfIY37fdAPAuySOn4lT+Une\r\n7Cu4TQAwpHcNYH/zAL7nPe9Rn4H77ne/i28LBO6OWozUlPEPgCPh7ADIJnLaUtYAugMgm/N4X7kD\r\nIKGkq7UeWwN8sD0yHDsjdmLzuvXYsGkL/P19MXfWYiTFH8W0V99CdVM7Qvw2o6qFx92KwE3r4RcY\r\nhEA/fyxc8A6WrlyBrRERWLtyNRYuXigQuV6NGI6PT5FrFonlS5djtZcPDuzbhWkvvYx1m/0RnxCL\r\nEwkp1sGMsdPP2sVzqfD388PO3bsRFhwsx7MWG318sH7FUmzyDcHuMF8sWhmA1sZK+PoGqW3KLmRi\r\n7aqViNy5E6uXrVLHv3LNOkTs2olF7yzA4mVLsX6zD3ZF7UVKchKCgwLVcxkUvgvbAzbh5RenSdq9\r\niIk+jPMllSrPsXIGAD1EwwVAAlNsbOx11weQYOvqAxitjnHfvn3qmK8WAGnS0uMP4tDJFOwKDUBC\r\n+hkUypt0aWEB8guLkJvNr240ITRwCwrLG1FXVYIz2Tnqixy1dTUoLSlG9tlzKJbjyJa0Z7Kz1DB6\r\nA4FGV6NRAUD//8CE7RIXOQE3PXYTJn1wEiZ9YhImf1igrHsbin5+s3fShyapdBN2SPgAADgxcqKk\r\nu1ml53Z98vuQ5Ce/w9/ryU8B4KcEAI8oABzoSyAGAPt3VwJA3kPs56cBkPaxFwB2F/R7gr3gHbIH\r\nJw7uw5qVy3EiPhNn0k4ieOs2LF+1BoH+gSiva0PMvmAER+6WF/dUbFyzBtsFZNZv8sH+/XsQte8g\r\nNm9ZD/+tEQgP3Y5Dhw9g00YveG1ch4WSZ0BwFHZEbFfpN6zZhNj4BMydOweFFXVqH8ba8VnjnUO4\r\nfWf6G4hLz0JEcCBWLFmN4ooqREVux1Zfb3jJuQgMipBz2A4fr9VyrpIRfTgKXgLNWwN9ELA1Uh3/\r\n4SMHsXLlSuzZfwjB28MRKdtvlvOxZt1KLFm1CvsOHsOWLV7Y7O0tywAcP7wbi9d6dd9VY+d4T+j7\r\ngs4A4BhpJGoA7QBIoBoIwDwhvj8ApGHTAMgwXQvI2j8e4/79wwfAjITDOHwyFbvDA7By7Sp5I4vE\r\n688+hXkrV2He3KWob2tH2FZvVDR0IvHoTjz6xLPwDgzBjl0RWDz3Lbzw5kwsXrwI/gEBWL5uA+qa\r\nxOB2Xxsjo6FoNAGQ8/FNvXeQEzzfd7Nrwuj+AHAI+XFiaZVfDwBaNYADfQt4/AHgGHwL2A0A2RrS\r\nuwlY9/8j/Fn7bS/oG+trUFvfqD5bWVFh1UC1NHEe03rU1zeoqazaO2S7rg6cTktF4aUKlBTkI/9C\r\nMepqONcpZzyoQ1VFOaqrJC8pg9QsCDU1yMo8jYKLxaiprlPhzL/8UjESE6MRsD1M/ZYnOAWAci7p\r\nKsouWVPCyL7W1FiAynPQ2GAN9quqrFJhDbWVSEpOVecuOyMTldW1cpw8/ho160P5pTI5D/VWmJyL\r\nmspypErZVVZWocIrKypQXVmNwoI87I0KwdGEVJXvWDr7fUFnAHCMNBQA5M3LkV3uAGhvAiZAuZpg\r\nx6aP35XirzQPoG4C5jQwug8gvwccFbVrWE3AbAqpKs3HquWLsXlbCE4eO4D1W7zVW26Y5B2x46C6\r\nDju2bkZQ6A55E/TCgmVrEHNsL9b5BuLY3khs8g9CWEi4nPczWLJ0CS5WNah+IU6/Z2Q0kEYFALcK\r\nAHJ6l70Cc38cJAD+USBvtwBbpKy7T++y3OoDOHH3JEz9wyABkPnJ77Mv4n+GfxJHuvsAEgB/85vf\r\n4K677lKg9/GPf7xnGwLgeOoD2N8oYDracKbfERmJE/LySlvdv+uSvOoQHt4kL7q16LrsKpS1swMg\r\nbSNfqPnC7N4PkOn0yE4LBq3J7FlpwHJkIMdmYzr27WOfQe0ULLFMUl1lrK4v8l9k7Y/qPsMApqVf\r\nfqdT0mpXUVKI8qpata2GjrEUzwWfO6sPnpa7k2PqDuYAmh4n5bKcie5j1LJqW7nsCRM/HcM7VLw+\r\nH5eRl5uDZn5tpXt/uC+8Tlz2DWNtbnd/dVuYc9r+wvpuTz/vD4rrdAYAx0hDBUA+4O4AOJ7nAXQH\r\nQKZ1BsATwwZAqkOMU2szR3RxyoNm9cmedllvkPPKb/xa57oN9Q31aGtvRWdbM/bvCEGWvAXzAeZE\r\n0K1yLVokvLmZ/W2sjsBGN4ac7qmrFfMbUQB8ZwE+tPgjmLR0Mm5eezNu+cktPekG0tRfTMUU75sw\r\necNkTJ11C2762E2Y8rEpannL7FsweeNkTPGZgqm/HCQAyu9OXTsVE5dMwmfWfAbHDh1VAHjo0CE8\r\n8cTjuPfee/GXv/wFd9xxR882//Iv/6JGAbOG8N577sW+PUsFojx3FHB/AEj74evjg6CgIGW/YsV+\r\nrVq1Cpli43o7sSWNbbj//kpMnlQv+bZjwsRGAeRyse026BBnB0DaQ9pI2k62nhACaRM53yDLBA2C\r\nrMFq4tceZMmvglSWXkD62RwUFmTjeHQCThw5AP+t28XOJuOg+DkIZPeOCFQ1tKKhqhQR24MQk3Ra\r\n/f5lVQ5Z54H7zf7SCgzpkyU/l8l7mYMirHABnXO5KCouFRiSc9RtI2lvCaRjKZ4bTuNyJiMRF8sr\r\nkJgci+TEVEQEB2DvoRM4fvQQzhaVobr0PKL2HVZXPzczGYFB25BXUq6OmdeY10KX1fRb67xG1rHy\r\n+Sb80bU116kuQ2UVNcrPsodzIhJG7dL76BTuFOYePpTtzTQwHqKhNwH3BkDWmI3neQD5JmvvA0gQ\r\n1H0A9ddA2ARMgzvcPoAUR0/X1rKqvloVvtXipxheI+Fq2SMxqBLGKvw6fmuzuqonnGlra+uUn9ei\r\n93ZWmHu4U5gOdwoz21+b7bX6i9fhFI2n0311NRpJAOz5FFz3t4BZe6dr8q6kyf85GZO+PwkT75b1\r\n307GTeECg+HWcor4GT7pBxMx+RO9+/31J/tvf/pTn8axo9a3gCnOY8dmTALMM88807PNZz/7WQU2\r\nPfMAJnr2PID99QHki2pkZGS3z3K8b5YuWaKut90tX1Yh+bWKIOcLaskvgTz3XP8TQXNifJ4n2kna\r\nTNp9AiCng+Hv9AZAzgMoANjUjLryAvj4ByJSXmYDAoNVvz1vXx+sWbMKL706F8WF2Xj04cdQ3tCG\r\nqCBvpGWdR0NdDY7s2YGdew8iLvo4Avz8EBS8DScSErEnPBxB27YhaHsYkuR6nT17DilJCYgM2Y7Q\r\nqP1ITzqFt196GT7bInCxqAApGVndEOiCsbEQzw1bglJj9yMscqccw1ZsDQyU87EZGzZ74Z2338SW\r\n4H04sccfr85chY6WWmzx2ozymlqUlRRge2AAYpNSeo6fE16npqdhq5yb7SEhiNx9AGkp6Tgv1yc+\r\nJhr+3r6q/+DhnSF48e+v4FhcEs7lZCKvuFz1HXfax2shA4AeIicA5IPePwD27gNIYzCe5wHsDwAZ\r\n5g6Ae/fuHRYAsqAlxOl1I6PBiveMnmRXP4vD1WgC4FA06T8nYcKPZP07sv47gbdQgTf2I5TlpN9K\r\nnIQzftIn7HMJDk6f/tSncOzYUQV/+/fvVzVYiYnW1yyefvrpnnS3CgDyeWft/3j+EsjuPbtVWne3\r\nYsUKBWd299RT1ZJfl4I/Lcked915Bh3tVm0RHfO3AyBbUAYPgNZE0JcvdyLUexU2BITi0N4oLF04\r\nFxt8QnEq5gA2rFmP5SuWY+3qtSitbkJEoBeSsy+gqvgcVq1chW3btuCdRcvg7+cD74AgrFq7AitX\r\nCzCtXyMAFKw+eUb4WbZqCVau2QJvn02SZh2WL1mNQ4cOY9nSxUjJzlNdZdxB5FqL54bzG7Y0lGPO\r\ntNdx+GQcQrb5YcYb03EwJg5hsr5+9Wqs2bgWm3xC0NpYJce5HpUNzYg7FIktvgHYvGklVqzc1H38\r\nIVi4ZKkKX7NuI3x8vbFq1TqEhm7D/IUL4ROwHavXrsaqNSskvR+idoRh5QYvVNY3yXPvvI/XQgYA\r\nPUTDHQRCUBqvfQBpxCgafkKibgJm00nvJuCj6nNwu3YNrwmYBS1rdEaqADcaf9KGzy6ndO7iPcPn\r\njvJoABS/jhusWLM36ceTMPG7EzHlvsm4KaK7BjBSlvdOVuGTfsLRv1cBgJ+2A+ABeVntBsCsbAEg\r\nFwB+9tbP9rz0paelIyUpYFzWABYJkK1YvlwBGR3tOVsufN2+D0wXHl4l+TWLdO0f1YZnn+MggWYr\r\nkTjmrwGQ9nAgAOT9xPTuANgmNvNcRiJSMnNx/kw24mLj0NTWibJCsc+ns5GUkobTcoxVdfKSXFaA\r\nAH9/xKVm4ti+KOw7cAKnU9OQk50j4H4OCbGxSJG4rPQMnMvJxmmx04So3fsPybU7gzPpaTgVm4Do\r\no4cQE3dSYHEV6ls70eoGIWMhnhuWoZ0drTh2aD+Ky8qRliDnJeWMOtenU5KQlSH34Rn2RU9Bp5z3\r\njKRo+G8NRvbZbIRs3YrElFQpnzKRKcefey4H0SdipPzKRUZaBjJPS7kVf1JA0AfHY07J+clDQlys\r\nvNAk48D+fTh0cAf8IqLUxNjNY9gkrm0f1+kMAI6RhlYD2HcQiDsAUi4As/stAPOEeHsfQIIfjT4N\r\nGgGQcX37AB5VTSsaAHlOnArUK+lqAJAjfLXh4qSnXNLPPJifbhLkeouss1rfTAvjueL1ZyGpRb+6\r\ntg5p7eL15nNHDeX+GUjMxxMAcOLUiZj4XtF7BPTeNwlTPj6lR/QzfOJ7ZSnpnLYfSJz4mX14NQCe\r\nituKhERfpCQH4NChVQgJmYUdO+Zj7dqXFQTeeuutos9i546FSE3dNO4AkI59mpcuWYq1a9Zg/bp1\r\nqj8g7URf14XVq6vw4Q9W4h//sQb/+m/leOCRU7hYXCBxPD7LMX87ANKe0nayBYUAyHLAmg7G+hSc\r\nLtz5mywv2BeQ9xj7P7M/HvvqMS+WJ5wblfaUfvbzs+5Lq/mZ4fKz1m/LOvv6UWoACP2SXoXJtspJ\r\nWh3O/OjOnY5H6pnzKpz7MJbisRGMtZ/HRvvepc5Ll/o8HM9RZycHenDZIWEtcnzWteD5oNPlMtOw\r\nbLbOnQ5zDaIh5OnzowadXO7CicMHUFbTiA7ZF/u+XWtZ94b15Rg6A4BjpKECIB9sdwAcz30ACa48\r\nBr7NEhKZlv2AdG0ADS/hLzaWfQCH3wQ8FADUD3wNP7ck4rWpLq9Q63QNdZwCwAJSTpHACaRb+d1M\r\nh7yMPEPuAEjd6AA4mrID4IH9BwUANyMhaZ2q3eMgj7S0zQryCIH27cJC5/TEjTcApGPhTygjcAzs\r\nLqOivFaAmC/EF9HSxqlH9PFZzg6A3A8Nf/pTcLyH+DtqUJvcV7SPFpiw7LBGgRpnOZ4fnssb3el7\r\nRDsDgGOkkQZAGoaBAMwT4gcLgLoWkADIz92NRB/AoQAg35Ca5Fw3NTSqJUcAq3UBvzaBho5WMbYt\r\nrWhhWL0Vb4cJ/o5lgD1ZliHguv3Yx6uudG2vNwD8wAc+gHfeeQdz5sxRy3/913/tifMEcdJnVw0g\r\nAXCLAOB6AcANPSLohYXNQc+gFQGsnTsWIzsrUGzCdjz73L09+XkKAA40DcxIu6sBQJYbeoQqZZzl\r\n+KwZADQA6DEaDABaBY7zNDAEpfHaB5Ai8Lk+BZfd0wTMgSBcEm6PHDmiCpFr2Qewtb0NdXW1qJBz\r\nzM7LnBqGNXz83iPnu0pOTFSjx/YJlF66WITWxiYVzuZhbs/fYHMMr1F5OVXuYerep7JKUQWqqsZ/\r\n30g+K7r5q1Xg3CnN9QaAH/vYx7B161bVx8zPzw/PPvssHnroITz88MNjLu7Hiy++qOb/0zWAsQKA\r\niVcCQFnOnPkDbPL6FXx8fotf/fpzPcc7XmoAR9INBgCZhs29vK9oHw0AOjsDgJZzvy8MAI6RBgeA\r\ng+8D6AIuApjd7wRoYxPv1AdwIAA8evTaAyClP/BdJ+ea4u9yWS1G96233kJlWTnSU1NRzaYegb3q\r\niooemOB1y809L5BVIderEQ311jWrqnKputqaZsQedu0l+yD7wc7dLS1WPxktXOa0FZ6q3vcArw07\r\nbvOZ0FDlVKt5vQHgpz/9aTVKnpBFcZ32wFPE2nsFf0MEwF/8egIeeGgCHn5kAr70JZe9NAA4EACa\r\nGsArOQOAlnO/LwwAjpGGBoDWKEY+7BoACVfXUx9ADgax9wG0moCPi8GN6W4CvnYAqDrKCrg1qybe\r\netXMS7H5d5OXFy6VlKK1u5mYANgocRomuI8XLhRIfAPOZKQhPeMM3Ofib1Mw79Q5/Nq7goKLvUCI\r\n8Hcorg6vr67BjI21mLFBlh6i19dU4/CpCtnr7vtArmeh3D/rpz2HWLlPeH3p+Ozwmutjoq43AGQf\r\nu6NHjwtgHVRiM6unyb5vsXHegwLAX/92Mv4q8Pe3xybgi19yjT6+/fN3qHPgctcCBIcGgPqq9XJ9\r\nAgbvmP+VAJBNwAYAr+wMAFrO/b4wADhGuhoAZNMiOxjrGsDxCoA0Yk4AyNo/gi2XyclJ3QCo+wBe\r\nIwCUNJxTq6LU+j3WBnKdXwuRi4S4U7GqaZqusrwcTWKA+bkk3QTMbQiA7W3N2LFtC7z8I1CQfx7n\r\n8wsFImvkmHOQFHsY+48nqzzG2vFa9AJAgatpAlqTv9mM9/+oCe/7oYfoR82Y+NUSvDH7qOyj9bF7\r\nFnz+gVvxhw/fgpwYjjSNU/cOa8v57PRcU9H1VwP4SUSfOIDDh6LGheJYA5g4MABy+cQTUzFj+hS8\r\nPfMm/PSnU/FP/zxJRHv5GXmuUpAvystPlvPIQRbu52ikNTQAtLaQFxC5vqejduF8Mr+04ezWr1+P\r\nxYsX47nnnsPs2bMxa9Ys9cUUu7MDoH0iaNpQ+yhg3tssGwiD/PqHNQLYmgyac87xPruRxWfOOhfO\r\n8TeSVOWGiOt0BgDHSCMBgDRG47EPII0Y4VA3AXNy2IH6AO7cufOaNgEzHX+rproa9VJQ07WKAWmT\r\nB4fAtC0oCI0cECL5Nggs2puAuV1+/gW1TXb6SezefwTeXhsQ4OeNjWL0twb6Y92GdTh8Ml2lGWvX\r\nFwDbMX19DSZ/9Tze/z/ZnqPvncOUz5/A9Jn82oIFgHwewnbuwo/ePwGl8YdxMj4eixYuUs8GHa+7\r\nPq7rDQA/+9mPIf20NxIUVI0HucCvPwCcMGGSANd75Ugni25CRNi78OADk/DYE5PwyKMT8eBDE/CX\r\nBybgj3+eoCDQcvZzNNIaehNwuzz/p48fQW34LiQsWoz0+NjumN7ujTfewMGDB/CZz3wGjzzyiLJx\r\ny5cv7461nB0AaQ/ZZ5q2kjafL9WsCeSn4HRtIJ8HbkPY4RQwXCcM8j6/0WWdi97z77n7dZhTuv7S\r\nOoV58vbkCIrrdAYAx0hD7QN4JQCkXABm91sA5gnx/fUB1ADIz0X1BcCj1xwAqfbWNgV3pfKmHR4e\r\nju3BwQjaGoTgbdtQfqkMNXId2AxcL2m4zgeK29kBMPdMIqJPJSLYdwu2BUdgf1QENnv5YPeeXYhP\r\nzlZpxtr1BcBOTF92BhP+dT0mfYTagEkf3jj2+shGTHj/akyfvVf28bLaVxq1sopybF06CwHemxC1\r\ne7ca4MJr4H6vXJcAmO7dB6o8SQlJIodwrbR0AcDwuXI8LgBMTf1HOdIJSuGhN+PPf5qAR/7WW4TA\r\n/Hz91Q19ruyyn7fhqC8ADjQKmDb7XMwxVCfGoj0kCj73P4AwefFzctyW1/+//uu/8Oijf1NhvEdZ\r\nDmjHNHYApL1kKwptPr8FrAGQ3YJ4P7lqASlrImhP+A6vJ4jn0in8RpMBQA/R1QwCsQMg4Wq8NgFT\r\nNGI8Bi4JiboPIMOsaWCS1FdA2Adwz5491wwAmYZNwJznj82627dvV993rK+vQ63kwYEgLWxilLSV\r\nch3YD1BPdsrtLQDMR6dcwx53uatnklDm70mOAEiQ0sfPARRFRRVITMpHckqBqNBjlJh0AReLq2Qf\r\nXdeLE7CeOBWHk6dcNS18jnS81kAAOJDj9WLhQQ3m/hmMmA9/fyQBMCXZC2kpm5WSkzf2Aq2rUUrK\r\nJnkeNytZ+TnX4vUr2SYpdRMS07YgMX0LkhyUnuWHsAjOA6gBcLL87j/Lkd4smoqw0H/AffdNxAMP\r\nukT4+9OfJ6qmYDqxnL3+9T5nw9XgAbBD7sOEID9U7oxE+6Gj2PLgX7F0xluoqnV92s3J3XbbbaoG\r\nULsrASBtKrvN0KYOBIDc1gJAZxC40cTz4RR+o8kAoIdoKADIgoIXbSAAZEE+EIB5QrwdAGnEBgJA\r\n1gISAGNiri0AUnw4mhubUFVRqT6ezqZeNgVTzXIdGmoFBsXocm5ATgTNdT0XF4GEx3RejonHbInH\r\nT7H/o9UH0rWu/WOjrKzsHnjV4jFYBSAh1pNkzdJv31eK/TTp+Az1d484ASCPm+lZ0xwaGqo+5s8R\r\n5xEREcrPb9jyOWThQXkiACYJbKWkeOGZp/6E++75BX73659h1YqXkX6afe4cwGwQYn5PP/0n3HPP\r\nz/Hb33Tnl77ZMa2TEtI2ISNyLuo+8xE0iOpv/aijmj/zUWTd8QH8+p4p+O29U3DPvVPx1a/+A26/\r\nfSo+85mpmP/O+1B66V0Ceze7aSoWLfksXnntDrw+7Qs9euXV27Bs+T3d52skYHDwTcB8KYxZvQyX\r\n1q7Htgcfwsq3p6NGXhqv5D772c/i0Ucf7fb1dsxflwuxsbHKLuoaQNpUDYAsE3g/sXzgNhoAKavp\r\n70aXcxPwjSgDgB6iwQCgLszcAZAwNJ77AFKEw/6bgBPF4MWp6S1YOO/YseOaNwFzGwJfbaXVvFtb\r\nZU0Jw5o/NvtaNYHNCgDtTcBa+oHzZDU3Wx3E7ft9vao/AOQzFRAQoF5KzpzJlHvuoLpn+ULy1FNP\r\nqUJDF6ieCIAErpTUTQJrv8Cdd30LX/nqnZgz52lkZFx98zA/xXav5HfXXXcLkEl+syW/04PPLyFt\r\nMzJDZqJL9lN2dkAV/vMEPPLkRDz6+AQ8+dQk/PM/T5Jg6xjfeovNwRNFkraXJuO11yfgz/dPwEMP\r\nTVB9A7m8X/yEQNrSaw2AdKVFRfCfMR0rpk9DdW11d2j/jlP3fPSjH8X//M//KDvu7pi/Lhc4CIQ2\r\nn7aT96qGP97XbLFgbZ8GHN5XGn44jynvtxtZLDd4bvT6jSzeGxTX6QwAjpEGC4C8aXnBhgaAdr8T\r\noI1NvB0AWcD2B4Bc8o2XAHj06LXtA9gqquPn3TgKWNJzRB8nglbXorUNZSWlauRvR5uEswlY1nnd\r\naHid8jPyDA0EgCEhIaisLMfevXvwX/91P0pKclUN9ZNPPqkKDhbEngaAt932cXl2AuW58UZWtq/A\r\nzy/x3e/ejbu/9Q0sWvwszucGCARukWdscDV3bOZl+kwBx2zJ7zf3/w7//d3v4Qt3fwdzF70gz6xz\r\nfvGZPojP9rPJF7F5W5Gxa/6gALDg3RPw18cmqr59jz0+Cf/2by4AnD7j3XLUE+VMSFolwiB1k4De\r\nFNz3ezYHu0T/Sy9/UeIHcvZzeiUNfRBIeUU5aq7Q7KsdbRptI+0fYc7d2QGQ02LRVvK+1PDHe4hp\r\neI/qQp1ieoIf142zHM+P9WJwYzt9j2hnAHCMNLgmYKvA4c3rDoCEq/HcB9CpCZjGlmG6CZgjgPmW\r\nfC2bgAmAPNf83m9Lc4uq5dPrNLSs/WtqbLLC5XqwSZh9BfkbTvkZeYb6A0DWnkRF7cSypWvxwQ8+\r\njqm3LFIQeOzYETVFB6+5J9YAfvCD/xeLBMzmz38GCxc+h6985S/42Mf+hA995I+4996/Ycni5zB3\r\nztNYufKlK/YJZPyxYysxd+7TKr/5C/6OjV/+ArZ89KPY8qEPY8U9P8G8xS9I/FOS34tISu7uD5ji\r\nhfxpf0HR479A0ZO/sunXuCjLi0/92i28t0qf/C2Sn/guHnrEGtxhAeDknmPUAEj4Ky29BdOnv0f0\r\nbjkP70VAwHsQFnYzQkOn2jQZIaEfxvaQGd2a3rO+Neh1AVg9zYr9vA6koQPgSDo7ANIe0p7SXpaU\r\nlKjBTrynLQDkF3Ba1X1FG3n5MssOA4B2x/NjANAAoMdoJACQtWTjdR5AdwBkWg2AeiTwWABgjyRt\r\nT3rbdgxT4d3LIeVpNGbqFwDlmQoLC0P2mUwsW7YZH/rg37B/3251rz799NMeC4Dvfve78c1vfht3\r\n3vlNWd6Nf/iHpyWc+byBDwsE3n33nar59je/+Zlq0nWHPrsYv2vXIkn/DXzjzrvxtbu+hQvveldP\r\nLd2WD30EX7j7f1T8b37zU6SkClAmybZpW9Dwsf/oSWdXw39+APHnAxHXq3bQLl8kntuK/dHz8dBf\r\nNQBO7gWAM2wAmJT0bgnTtYOTcPo04+S3emoFLRUV3YT77utdM0j95rcTFARazn5eB5JnASDvSdpN\r\nOwDWc5J6voTKvcT7ygCgs+P5MQBoANBjNBIA2H8T8Oj04RtuvG4CZm0fgW8wTcBj1QeQ14PXgNdE\r\nrctvc52O4RQd98k0/3q++gXAujo10pt+3q9Ll61DZXWZKmSffOJJ9dx5IgC+5z3vwXe+8118+9vf\r\nkeV3xP+khL8iehUf+/gfVXMw+/CxL9+VAdALUbsX4xuSzze//33c+YMf4Ny7/qEH5jZ/+CP47+99\r\nV/L7Ju6595dIzvRFfPpmJJzxQ8MnP9STzq6GT3xAAHHTgNPApKRsxsEDb/cLgLNmuQAwI+MfJcwF\r\ngPQzXEs3E+fnTxXgs+YM7JHkz+bh7SEzJc1gnecDIO8hptEASFvEQVL8EogBwN6O54fn8kZ3vCfs\r\n94UBwDHS0ACQo3caBwRAygVgdr8FYGMdbwdAyh0AOckpwY8jgWnsCICcGd8OgDwn7oXpYDRUAOS1\r\n4L5zygfuD/czPi4OqVIY8BjY9M5zz3453GdOw+CUj5HnqD8A5DNHALvrrjtVZ/wf//hH+Na3v4Wv\r\nf/3rePjhh9XzyULW0wDwX/7lffjzn3+DP/zhl7j/z7/C+//leQlnPq/jjjsexoP3/wr33fMrPPvU\r\n/QIxXr3Ay10pAoAHdy7Ag1/+Ev76ta/ir1/9KrJv+wSaP/MRtH3qgwj8zlfxmz/9Gvfe+ws8++jv\r\ncTZ0FrJCRGGzUPGdOwQCP4j6Wzna1xLhr/yHX0ViysDgeSUAfOyxfxLb8B4Fe9uC3oeJNgCkn+Gs\r\nGSwpnSpnxwLA4uKb8drrN2HatCkuvTkFr7wyASGhj+NiUTbyLqSgKDcFbfI8t7pLbE+7AJZ27gDY\r\n3zQwtE/79u1Ttovb8FvItBv8ihFfEN0dp4VauKkcZ3KsieadnB0AaWdoJ2lPOQcgZ4Kg3bEGgFif\r\ng+P9xHuLBTynDiMEWmXKjS2eQ14Dlh9O8TeKeB54f1BcpzMAOEYaKgDyIb+e+gASXHkMGmCZ1r0J\r\nmANA2AS8e/duZfAsw+ZcqA6koQAg09CwrlmzRg0O8Pf1R2BAIAL9A+Hn64dNmzepJmnuI/sqMh1n\r\n4rfnrd+yxoMGc07Gg650HE4AyEKBzxy7JPA+Y+GuxemHWNAy3hMBkKOAM874IYUjbs/4iH+hhHNO\r\nvbl4+pkVOHdus7yweMkzdeU5AeMlj6zts9AxYaIw1AS1zAqfi/gsX1WLx1HGqQJrKZm+An+z0S5p\r\nOMCjnekEBhMlXVL65t4S+ItPHPi3rwSA1vyA9BP8NPxpTeoGwkmqXyBrClkLeFktp/QRRKGhN6vm\r\n4T8+PAFv/nIiWiUfHkubTQxrmD5dnW+6wdYA0hbMnDlT2aqwsFD4+vqqaYReffVVZa/tjvDXebkT\r\n01eex/HoNLRLXk7ODoB6GhhCIG0m701dE8gygfcTywduo2usrZHB1qfhLN2406BoSHaKu5HE80Bx\r\nnc4A4BhppAGQhdhAADbW8fTb+wD2B4CsYUtN1QB4TL1JX2sApGEl/P3t4Ufw5e98GV/67y/jjrvv\r\nwMOPPIz5C14T476p+8pB1U7aawDb29rVNSorrxDjXDmAGD+2KisrV/fUSIHNWEiDLAs8GjWnNFR/\r\nAMg4PmtOTj+DzJsaqfPEfPj7wwXA9NM+6msbaac3i/8dCbcA8KmnlyIre+BaP7viBNgyQ2bhsuQr\r\nGahlpoAdm3lVX79u0c9we7qskJl90vXI4bfssgBwpgsAn5iEf/1XOwAOTr0B0KoJdFJYyM24/08T\r\n8ODjss1vrf2XDPqo6SoAkP2VfXx8un0ux+/8ssuL3S3eXI63V+bhteUlWBlYiAefT0ZpSd9pY5i/\r\nOwBy9gfWAtKm2gGQ93dfACT0WHO+3ejS0HOji+dBnws6A4BjpKEAoL5w7gBobwJmsyrDrCbYsenj\r\nd6X4KzUBc66r1NQUtRyrJmCm4XkO2R6CB595CO/63bsw+b+nYMLPJuP+mX9CiN9ibA3a0n3lAE4Y\r\nzH2zX6vs7LNSwNcJGNbI79aJalFZVa2WVbL0FBEAeW3czyu/B+yZIuy5riHBr0ZAKuNMtoLwgSBt\r\nIABkPjwH7mI482O+A+U9VDGf4QPgxwXyAuQZ4jQwrAFcIOHzRHPw9LOrkJvni9R0byXOF+iuNFEK\r\nv8iRthkJWb7IjpiNTgEcyQBdssyNmIu0bH+V1pXOT9LNtaWbhNxwV7qhKjPTH8eOzsXf/jZJjQB+\r\n/IkpAoA3Sda6xs9ddhvqCh9sDWBI6FRVA3i/AOe0X0xUNX4jVQPIF9aoqKhun8tt3LhRwZrdZeZU\r\n43j0aawS+DuZkIude5LR1Nh36hjm7wSAtPnuAMj7yQBg/9LQc6OL54F9RrlOZwBwjDS6AGj3OwHa\r\n2MQTALnON2LWBjoNAmGfO2sQyKk+AMgC2b0wHYyGCoCEie3B2/HQCw9jygduxj/+5J8w4T8m4vcv\r\n/RneG+bC39+3+8pBjSClEdZ5c3Lli4XFcr1q0NbZgaraSlRX8YsAXaitvvKXAa6l4/3GTuX288rP\r\nrK3ZVoVp6+owfSNVi+kbaixxXYXZwjdSA6Udge27NWNdBYpLa+XZsPqxtLa148S+KPgsnImz5853\r\nH5XV4Vsfj1Z/AMhj5/UukgKVtelabGLjNoxnYUoN5v4ZjJgPf384AHjLLVNVLaDWLbf8TcKZz5v4\r\nt3/7GT73uQ/hVlu8uz4qWiTquPUjaPnsR5Hynx/A7QI41BdEt338A/jsbR/HxyTNYlu6ZEnHeKa7\r\nQ/Q5SXerpHP6jSvr4/jUpz4g0MeaP0ogLYR9+94t4EX9oxL7+gUFvU+OTUPgJPG/X6VLVH0Ab5Gz\r\nM0GppPhmTHutbx/Al0eoD2B/AEi7FRQU1O1zuXXr1ikb3dtdRkfXZfz1+RSBvzSs8KrC3mgWyNZ1\r\n1o752wGQ3U5MDeDVyQCgJZ4HfS7oDACOka4EgLr2gQWGvnDuADhe+wC6NwHToDEtjS3DrD6AiaoP\r\noG4CvpYAyIlWAwO3YtGCWQgOWo6grUsQ4L8Ip4LWYIfXr+Ab8FvU15WpaxcRGYkaAQh+IYTbEwBL\r\nSsqQEL0XR0/FYds2P4RGHERbax0iI/agoqIYeQUCGwV5yM0vRHVZCdLSM9Dcdu1H7PF8XriQ33Ne\r\nrZGDrbjjjzV4z/da8P4fNvbofbb1wYc19RM+2DDX9u//cRumfj4BCQm5succ5diOKrmmTzzwZyz9\r\n2ZdwVgrGGCmc+aLBWkL3a+0EgLwvKNbenJfzcE7uw3NyH57LPafETv3Mh4UpNZj7ZzBiPsMFwL56\r\nQPSqaJroG91hA+tNkawopXSHOcmeLrk7bHTUd3SvFmHPDoD9jwK+Gfe7jQJmE/NIjQLubxAIXwR/\r\n8IMfKAjk7AWsrePL68svv6zuSSd3qaQKTY21OHysBZ/7USV+8ngDTqY2dccaABxJaei50cXzoM8F\r\nnQHAMZITAHL4/kAAyBFfHHCgAZBGgUagP+DyNP9gANDqA8iRwInKgF5rAKRoSENCtuMPf3gE8xe+\r\nhh0z7seOx36Onc/9AX6Lv4yly6cgJPzfkXNgI0I2efetAbxYioaqi1ixbBn2HTmKnbsOoK29AdsD\r\nArBxi5ccaya81q7B1oAtWLZsORYuWYIjiWe674Zr5ywAdNUAEgA7O9rwpT9fwrvvPov3/0+WKNsD\r\nJPvxvfP4h08HIikxR/bcAsBKKfiee/opvPmVD6K+qhzbgoPVoBxeP9ag269pfwDIjuFpGRlozDqD\r\nOrkHq5saUF1YgKrSSwiPiFDbsjClBnv/XEnM52oA0J6ur+4XaQD8SnfYwHpNJFQj3DQBibZwdw02\r\nHTWxW05xV9YkJCdb8/vp/nwa7DxlHsD+AHDhwoX43Oc+h82bN8tL3zYFgYGBgdghL4h8SR/I0fZP\r\nW1CFz92VgbXeWRJi/Tbz1wBo/xQc7SntIcsClgm833vPBcj71KoFtyoVjHhurLLVOf5GEe8PivcV\r\nnQHAMdLV1AC6A+B47QNI2KPYBEwo1H0ACX2EP90H8ODBg8qQ8iP917IGkIVzZGQEEhMzsXhBII5P\r\nn4mIucvwxqxAzJ7/c+ze9UWcyQxAR0s9wraHoLysrCdvAmDBhSJ1XTetWYkz5y/gyOEYiWvE4b0H\r\nsTXQByfj4rDV2wvBwWHYHbUXCXGncGrMALB3DSDnEfvCjw9iwr9vwKSPeHmMJn5kEyb+nyUCCHmy\r\n53pwRiPOpKcgYP7r8PP3R3x8vCo03eGP6g8A+Wylyr3XEHsSjQLjDXLda+ITUCFwydpdbuspAMgX\r\nIqZlTWAvTZ+Of/935jFd9Ba+/e3XMGcO46b3Tdud/vU5c7D/O99WUEcV/r//h+kSR7nS6nTfuWK6\r\nOXNmye/+QZJ8XXSXwNLdsvy+wOAPMWnCD2T5XvH3tYP/8A+T8N9fvRlf/soUfOlLU5GV/Q9ypH0B\r\nkM289i+BBAa8F2Fh9q+AUDeJPoztoTO6Nb1Ho/ElEIKXdrRn7A88dGdd68S0Buzamy7rrgFJdgB0\r\nmgaGNX8W/DXKvdSi7ive+2YewL6Oz52GnhvZ8Z6w3xcGAMdIzgBowR/FglgXOIMBQMoFYHa/BWBj\r\nHW8HQPc+gHyzdc0DaB8E0hsAnQr2wWioAMhaVW3Mi0sEBiPiEB1zVvmbmgiirTh86LgcQw52RUW5\r\nNQE3o6CgUKV1dGKc29rlAZQlp4MYS8eC5UJ+7z6APP4zZ4qRlFyA5JRCD1OBFHhNPdeRywZ5LiKj\r\ndquaTO3sx6M1EACykK9pakBdWBiali9DTVoqKmtqEeFRNYAWkPTnvvjFdbI9B4HMFBg72h06sOsQ\r\nuNPf6239Yv/f0B1sujlz9kuSF0WshSSMLhUtF/ijPijrfe3gv/2fyXj62cl48qkJajDIhQs3S069\r\nAVBDoKumb4BvAb9y7b4FbAfAkXG97QHz1wBIm2ifAkYDYF1dfU+THu8rCwD5gmTdZ8ZZjs+aAUAD\r\ngB6jKwNg30EgdgAkTBGSxksfQDb76iZgFtb2JmACIuPsTcCEQasJ+Dh27466ptPA0LCGh4d3Xx27\r\ncxkQ3SeHI/9UDWD39vwtGurCAjkHNhXY/YU22cKZ5lqJv5eXd0EAsLAPWLMAsWoiPE1WE4Z9Xynu\r\nPx0Lyv6u8YA1gPIi0iQvJQ1yzevqalB39ChqLpUicscOta3nAGD/uu22FbL9LNF0TJ9xQMLszp7W\r\n5TpmzVJQR3XccUd3aF832HSzZkVJkr+LWKgQAjk34SKBv8Wy/D+ivnbwn/6Z8/9NUtPAPPDARLEH\r\nLgDk0lmT8drrE/Dn+139/Kj7xf/Kq7d1F/RDO3/OutYA2NvZawA1APKFujcAWhNB8z5uazMA2J8z\r\nAGg5A4AeopEGwCvNwzfW8fQPFgAJVgRAPQiEkHUtAZCFM/vvtLa1ynlnZ+reamlpVrWY+XIcW7du\r\nRXmpaxoYir/XLNeM180SJyD1TNmP/XpW/wDYqp6j7IzTcu9lICMrC2cyMnBaXkKCtwer6zoeAPCe\r\ne3wVBN5663LMmB4lz9ZFJCfnCzSwO4JOd1lBBL9gkyLLuMcfV4M6OAAk7tbPIFmevxQ5bj6HPXJL\r\nF99PuuzsDDz2GCH0T6IHRQ8L+D0n+rvoWXz603fijjtuV8endfvn7xA7+Bk88uhECwAfdAEgVVNz\r\nkwDPVHnObu4RawjzL0zFosWfxauv3YHXp32hR4S/pcvu6TlW13FfrfoHQNprPfUQQVDfIyMhnR/v\r\nWQ2A7k3AevAH01r9/9ybgK0vghhnOT53BgANAHqMRgIA7U3Arj53bH4dP30AuaRhs38Kjm+77Gyt\r\n+wCyKY7HfC0AkKoRwxokYBcWFq4GgwQHB6kawdDtsh7E8DBEiH978DaEhoagVa6PUz5GniMnAORz\r\nxeeM9ym/2sD7TYt+3p98FnXBPNj750piPiMNgJRYEFlCADBM8npU9JTk93Z3vJUn87fboWslgpTl\r\n9LFREKBLUbV3fQFwojx7nLdvIh6UcMZZYs2fpJPt6LTt1HI/J8NT/wBIZ9nsvh3tR0rW8cieyDpn\r\nfKCN5IsyX6D54k8IJITW1dWq+1PP78YBIHy54/3Fe43SBf+NKp4bcx461D1BcZ3OAOAYaXQB0O53\r\nArSxidcASBH8OFWCOwDS4Fp9AMcOAJvEmHbI8nJnFzpkG75dd8n14HqbrPPadPGBYgEuxrnNAKDH\r\nqz8AZBwLWCfHcN4z4wUArWZyYPr0SMnrGdEL+Pzn50iIBRJ0t99+e89vXUuxb6/l9LFZ+5R/IRV/\r\nEajTTcC6DyDFT7exbx/jHrbpLw9wuhen/LSczs3VaGAAvFaO9yF/ly/HtKm0n2xxIQSyZYRlAu9v\r\nlg+8T1lW6NYK6xNwZioYnhf2z76RxfNAEOagIa7TGQAcIw13EAhharzNA0jQ45JyagKmgSMI2vsA\r\nHj9+HLt27ZJjvjZNwBTTKXGdYfbtutdVnD2NkUdrIAAcSLzG4w8AIySvx0XPSH4EQMbRjVwN4FCn\r\nenHVANr3VwBQQI61eoS8Bx8iAHIUML/ccRPCQqbi9/dOwEMCfHb9+U8EwGS1fe/8Rlp9AVBPA0PH\r\n5tfRFO85OicApA11B0C9DcsKa6kB0Cr8b2TxnDiF32iyANB8CWTMdSUAJOzoAocXSwNgRUWFmqj4\r\negRAGlsCIPsAshbwyJHDPQB4rfoAGl2fujEAkLos9qEaSUn5OH26CJGRR1SerPnj8l3vYv+850VP\r\n4rHH1sszmSHPXfKglJGRjqCgPbLtn0V/Ef1J+RnOZ9dZ3DZFgUjfY+oNgA8/MgGvvnYT3njrpu4v\r\ndzyBoovZuCBp7CL8cVqlqz9Hg9XAg0Boj7kcLTF/q1y4MgBaTcGuGkDCoAZAq7+vMxDcKDIAaMkA\r\noIeoLwDyoe8NgBp4eLHcAZCGgEbBuQl4bPr4XSmecMclB1AQDtkEzKlUOA0M+1vZm4D5pn3gwAH1\r\nObiIiPBr2gRsdP3pxgFAqxZQu9On03rZHcLfpAlLZDkbs2Yd7k41eJeRUSzb6pG+zyv/4JzT8fQG\r\nQIpf7WCfwCt/uWO04Y8aGAB5T4ymI8TZAZD7QptKG6oBkHbxSgBomoCtJmCn8BtNBgA9RIMBQF3g\r\n8GI51QDaAZByAZjdbwHYWMfTaHGfud73W8DWPIAEP45QtADwJA4e1ABo9QFk3zv3wnQwMgBodOMA\r\nIOVyfAbtdmfChMdEs0WvYfr0/d2pBu84utgaYPKcyispiRNz0zntx5UEnM9Lwj0j9uUOJ7k7pzT9\r\nyXMAkPZQfwqONpStKiwHWB5wNDDvJw1/LOCtJWu9OBikRWTZwRtVPB9O4Tea9AsB1+kMAI6RrhYA\r\n+banAXC8zQPIJmCuDzQNjO4DSAjkAJDjx4919wE0NYBGV6+BAJD3FV8u3KWfwfEFgO5fDOHXQFya\r\nPiNMzRM4Q+BvxvRIgcBwCY8U7RBJWI92qvgZMyJEu1X66QyfHiWKkO12qG3Z3Gw5p325koDqmmJs\r\nC5mO7RS/3hFi6eq+3OGuy1i7di2mTZumzgfPi+Wc0jpp6ABI+GJt3FBdQUklGputWhnt7ABIe9jf\r\np+BY06endOJn4Hjv6nWrbOG9dGM7ng9zHsw0MB6jkQbA0Z7HbyTi7QBIaQCkUXMCQHsfQAOARsNR\r\nfwDIe4oFNudW47OkRT+3Yfx4A0B7frfeeqsKc3IzBOA4X9+ECU+LnhW9bRObeRlO8RvDDHtT8lvW\r\nvbXdOe3HYHUl57TNYGSdw09/+tOy39a54HmxnFN6JzkBoPO3gOnYH2/16tVq/lJe58G6xqZm/OQF\r\nH6zcerA7xHJOAKhr/3oDoJ4I2nqZYflhfQrO9c3XG93xWTPnwgCgx2gwAMgHmjeuBkAWGnYAjImJ\r\n6alBI0S5mmA9sw8g95lL3QfQ3gTMdRo5VxOwqw8g5+AzTcBGw5ETAPK+oJKSktR9ad2n1gvJObkv\r\n9+3bp+6Z8QGALseaP53fbbfdJiFO+QHTphEAnxS9IHpJNNeml0UM54CRN0T8zNwsNdl073w8Tb0L\r\n+TvuuEP22zoXPC+Wc9rOSX0BUI8CdgJA2uW5c+fC398PDz704KBrAv12J+BrL0bgV68FyctHSXdo\r\nbwDkd661/XQGQF0DaNVm2wHQcI8BQO14f9D+aGcAcIx0NTWALDTcAZA1aX0BzO53ArSxidcGjCIE\r\nDhYA9SAQA4BGV6v+AJBTZLDGubGxCRcLCwQG96Cmqlql54sHt/V8AHR94YPP3PTp01XNH+Hv3nvv\r\nVfF98wPWrj2IT396uvzmXNF80SrR6m69I5ojYtxiFUb4u+ceH9lyqPt3rXRZ9W8itHHeQS7tNYCj\r\nDYB01VVVSEtLgdeGdaiVe+hKrqK6VtX+ff3vIfjq435YunmHhFq/3R8AsnWlNwC6moB5b1kAyEmP\r\nTQ2gdgYALWcA0EM0NABsVg85Cw07AI7HPoAMd28CJiDqJmCCIAvk+HirD+CxY+wDuNNMA2M0LPUH\r\ngHy54mj0CxeKEBe/HBVVLyM6OgTlZVWIjIxU23o2AFppuZ3OgwBouaHkQ3EEsVZ/cVwfSp7XUr2B\r\nzV0jAYAD9QFk/7/YUzHYfyQGXuEnUVPHqWqcHe87TpHj4+ePRas3YffBk/DfHoW9h44LwFlNdL0B\r\nMEHZS2cAtJqAeV/RRrL80Ot0hnsMAGrHe0LfF3QGAMdIVwJAGgFdYFyPANjfIBAXAMar2j8C4M6d\r\nBgCNhqcrAeD58xdx+OB6FBe9jIMHdsszVjauAND+hQ8X6AwmH53GPZ093D3OU0VgS+45D+4aLQCk\r\n/Warxfbt2+Hv54PVGwPwlae34udvhCoQ7LQVuHQctevn54eQkBAEBW1FTPQJZJxOxwN/uR+LFi3s\r\nTtUbAPm7tIt2CCwpKen5JjDvJ6YnDLIWlCOAKWsEMNV3ROiNIj5zPC9OcTea9FdBeE/QGQAcIw0O\r\nAAeuARxvfQDd5wEk7BH89DyANKI0uIQ/HhubgPk5uPDwMNMEbDQsDQSALFhbWtrkvtuDEyfeQN75\r\nC1KYNqrph7jteABAew0gR/tazin99ayxqQGk/d6zZ7eCuuBtW7HGKwDffDEC33zODw+9tlLuvd59\r\nAXnP0bYFBATAz98PW7ZswcyZM+Vl96iyfdrZAZD2kE38tKG0n3yh5kAl2kVOBaPnAeQ23K/6euue\r\n1dN+8DdvZFnnwkyIbc0DaNUY0xkAHCMNtgbQKqRcAKjnAaQhoDHSAEi5AMzutwBsrOMJfoRWrtvn\r\nAXQHQN0HkMd24MB+HDp0EGFhBgCNhqeBAJD9ungPJiUlI/pEDDJOZ6jnKzg4WG3LwoMyAOjpGv0+\r\ngE4ASMfWCbZwbN++DRt9gvDodC+ERu5FZVlpd4q+jq03e/bsUbWA6elp3aEu5wSAtKF2AOzvSyDW\r\n0nwJRIvnwyn8RpMBQA/RSADgePoUnPs0ME5NwDRw9iZg3Qdwx44dpgnYaFhyAkAaQb5U8D7cv58v\r\nG4fUPcda5/3796l7kfEsPCgDgONBPB8uN9KjgPsDQO14bRVsNPff/8/uaPt5jzk5A4AjJ3VNHMJv\r\nNBkA9BBdCQA17LCQYNU1b2AWGv0BIA3ClQBsrOPtAGgfBMLaQQ2APC4aXR6bBYBHDQAaDVv9ASDj\r\nWMA6OYbrAp0yADie5HRehg+A9lHABLTRdAMBIO2nvQmY/QB7NwFbS9MEbMk6FwaEDQB6iEYCAO1N\r\nwK4+d2x+9cw+gDReXNKAEQ6tJmDXt4D76wNomoCNhquBAHAgGQAcrxodALxSDeBIOuavAZDgyU/B\r\n8SWaNl/X/hH8eG8T+Fi4Wx38rTKD9zfvNYrlyY0sng9zHlxMwXU6A4BjpNEFQLvfCdDGJl4DIOGv\r\nPwDkW64BQKORVn8AqO8JPmPu0oWnAcDxqNEFQNpsNrvyGo60eF/+//auAr6KY/3SJ/+2r+17fXWs\r\n/tr36u7u9vraPqm7uxdKBSi0RVoo7u6Q4O4aCIQAgShO3JUk6PnPmc3kzt3Mvbk3uYEE5svv5O5+\r\n883s7uzuzNlvjL98ZhUBZJnI8pQfz2xdYXmoRv86I389E0E79YdDdhjfil0KTgmfCUX+KJYAHiaE\r\nugnY3eRa3/ZVEzD1pj6ADFN9AE1NwCzwVJ4EC1WYhqoCt2h4MBFAPhd8JuhZ4TMXE7NRvFfxcp/P\r\nIr0ufOYaGgFs166d0Oliineko2q+hJIAUnj/FFlTcO8rnS+9SafAZ4WiCKBq/mUZyjqAff/4HPHZ\r\nZDOv82xVXQnEip0HUIklgPUE/gggX2DeJFYUfHB9EcCGOA8gf2tCANncYT2AFjWFLwLId4uDjrgS\r\nSGJirCB9c5CWli77UzXUaWDeeeedyveJv4GndSShar6EmgAeKiEBZHnoJoCsC/gcOQTQvRKIs+3U\r\nLRUJHcViCaAjlgDWEwRCADkPoD8CyGZScxNww+kDmJSUKO24za9cvQmYIzPZBBweHm6bgC1qBV8E\r\nkJ4WVvJFRaVYuWoy1m34XDyP8dKeSxAybkMjgDqCT+9IQdV8CTUB5L3UPXaEeqYC0fvSKT3Tp1Tv\r\nAfQ0AfPZYh2iPIBWHGGeWgJoCWC9gX8C6Nwkvsx8cN0EkDPAszDQ+wASHgKm7zsE7HCH6wSQ5E/N\r\nA6gTwDVrzATQ9gG0qC38EUA+exs3ciqYDsjNbYnJEwcjJTkNU6Y0HA+gvhKIjiuuuKLSxhz/SIVz\r\nzaEmgGoUMMtsPlPqGdIJnL7vT+9Px1+mz+OQAK5aFSk/+ll2sgVFrQKipn9RIzv5fJH4Mb5DBlmv\r\nHN1gHjJvTGFHE5gPfCYIblMsATxMqE0TMF/+htgHkKSPencTMEmhuwl49erIyqXgbBOwRW3hjwCy\r\nCTg3t1A8e+FI2vwdEuJXIy+XHsCG2QSsI/j0jhRUzZdQEkBWqHwm6lKYviKAy5cvl+Ujy316Ad3T\r\nwJAI8pniaGDPPIDOsnAOju4pUJgfnA+R+XC0gvnAkeJ8LrhNsQTwMCHUBJAEqzoCdrjDdQJI+CKA\r\nrJB5bVwFZPFi2wfQovbwRQD5bvG5Y3hmeiYSxDOZm+u8Z5MmNYQmYOJgxfuzVhIWBe7bPoB10wRM\r\nUkaypWTRokXyPvIYvtC6dWv5y+bbQITpKwK4YsVyrF27VpaPLFdZbroJoJoHkBW8+nXmALTz3/H9\r\nLS01hx1N4DNhCWA9QG0JIJtTG1IfQH61qj4sLMAIFmYkhb6mgWETMKeCsU3AFrWFLwLI94zelXFj\r\nx2L8+AkID58ol4AbK/b57PGZq/8EkPAnJvsjHXVPAPlMKNHvYXUgkQtEmL6HAK6Q8UweQPYFVM+3\r\niQAq78/RDOalSX+0wZkI2pkYnGIJ4GFCKAig3gfQm4Dp+yaCdujDFQGk3jcBZB/AtbYPoEXIYSKA\r\nLAT5TKj3zA31DvLdI0L1/DAdHp/HoISGAFp449ASQKat7KoD0wxEmL6bALKc9EUAfXkALQG0BFCB\r\nzwTBbYolgIcJtg+g/z6AThMw+wCyCXiKbQK2qBV8EUCTrQ5LABsqjjwCyI9jlo8sV3UCyDpBTQpt\r\nJoB2KTjmpUl/tMH2AawnCAUBbEjzAHKfBJBE0E0A+UWrCGBMTIz8VQTQ9gG0CAUsATzacGQRQJaH\r\nJH8sJ1lmsg4wjQLmM6VGAfNZY1yLAzI/TPqjCXyWWPYQ3KZYAniYULdNwPWvDyD3ffUBpB232fTL\r\nZg53H0A7D6BFbWEJ4NEGJw8vvfTSyrz99ttvhY5isjehbgjgRjkwp3rRCSDLRJafLDf5MV11Imi1\r\nEohnHkBuW3GEeaNIz9Es5BWEEksADxOqI4CqsvFFAOkB1Akg4SFg+r5DwA53uLsPIIkfvX3efQDX\r\nSALIr12OerMTQVuECpYAHm1w8vDpp5+WJPDiiy9Gnz59hI5isjehKgH0NQ1MoATwGIEu77yDye3a\r\nIax1ay+MFs9BxKKFFSlW9QCyzGfZyVaUQAmgU7dY4sN3zeaDJYD1BtUTQN9rATfEJuBg+gC6m4Cn\r\nTJkiCSAfXL0iDRSWAFpYAni0QuVlTfI0cA+gfg994xiJJWK7VKBAQ6HALgGSQCVMXxFAlvUsG1mm\r\nVkcAnfrDEkBdLAF0xBLAeoJQE0AWCtURsMMdrhNAwkQA9T6A8+eTAC6yBNCi1rAE8GiFysua5Gfg\r\nBFCfB5Dz/ak5/35o106uzfzW736Htr/7PVr//vdIE9sQRBCN+OtBkTgGPYFKmL4igLoHkGVoIB5A\r\nvaI/2sUSQEcsAawnqCkBZMdf7ybgHbKJ1dPnjs2v9a8PoGoCNvUBNDUBc242Tx/AMNsEbFErsKO8\r\nmiaD4LYlgBb+ERgBrI5Y8ON2o4gvEvELegHDBGlUwvQVAWTTMyfIV2UqP6oVCWTZxmeaIzxZV+zZ\r\n49QZfL5JBPnMqYr/aAXzg++dgh5m0geqC8bWpAvG1qQL1pZlDsFtiiWAhwl1SwD1fRNBO/Th7j6A\r\nbgJIz58aBOImgGFhoSGA7hfDwqI68JmxBPBoReAeQArD3n33XTkvny7RIo1IEV8k4hf+CCDLQzUP\r\nIMtOtqDoJFBfCk49ryUlxXJ0sJr492gG84P16NEM5oMzEbSdBuawo7ZNwCwISJSOhD6AJIckgSzg\r\nPE3Aqyr6ALIJeHKtmoAJNVmqhUWw4LPDubMsATzaEPggEMqAAQPw6KOPyvXLR48eLT98KSSAq0V8\r\nkYhf+COA+kTQLFdZhnIeQJ0A6hNBM65DeuxScATzwqQ/2uAQQLsSyGFHbQggSZ+HAKYFRMDqwz4J\r\nIImgLwKo9wFk/8ZQEkDmow79pTDpA9UFY2vSBWNr0gVja9IFY2vSBWNr0gVja9IFY2vSBWJLmJ6p\r\nmsIfAbzmmmukzkr9EDbfqntTHQGkDBo0SJZbDz/8sOz7R1m3fj3WiPgiEb+QfQADJIAsNxUB1OcD\r\nVARQeQItAXRgCaADSwDrCUJBAJ0m4IY/DyD1/pqA2QeQBV1Nm4AtLOoT/BHAs846Sw4esDj8aFcx\r\ngEPdm+qagCnq/tIbqGyjRJm2QMTnyF96+Uwg+UsW8DUKOBgCyHg6AXRIoJkQHC1w8sISYUsA6wlq\r\n2wfQTQAJDwHT9x0CdrjD3X0ASfxI+vhLO50Arl7tEMA5c+aEpA9gwBAFd6ia+SwsfMEfAbSov3AT\r\nQJKsQCRNkLThglCGc74/8esLJH8rFi2qiAWZvk4A2TLCvt8sS9mSQkcAV0jSl4FjPcEKnl5A/paX\r\n05td1aN9tIH5YdIfTWDZQy5BcJ9iCeBhQigI4JHdB5DTwMyX0yuwCbg2S8FJcF4s8asIXiXRI+nj\r\nvkCJyGMWFKWlHD3nsau0rbAvr5hja++evThwENi7j/sV4RYW1YDPjk4AW7RoYSwjLOofqvMAhlKY\r\nviKALA/VNDAsS1kHsDWIfVRJ/PRpYJz6w9mmiCSOemHeMC+PdmE3KkKJJYCHCaEjgE4fQBYK1RGw\r\nwx1uIoD0ENIrqBNAdrzWCaBaC7imfQD3C5aWuDEK62K3Yt8e8TUsiFup+Dreu08QSrrGy0XhsP8A\r\nIhZOwbfftsXmZEE2Rdh+cbwykffEXrG9V9yLffv3Yu70cCRn5Yt7th/rVq1CVmEx9okCtzZ9FC2O\r\nHrgJ4K+//ooLLrgAl112mUU9BVcTIThVFYVlNskX7yGb0/hrQpmPbTf0NNQ20w+cAHL6FzMBtGLn\r\nAVRiCWA9QaibgAPpg3c4w1UTsOoD6G4C5vW4+wCqJuDaLgXH1z5+XQQmT52GkWNHYc3KJejbqycm\r\nTp2MHl1/w689B6Kg7CD2lmZhzNiJWDJzIr77oQMGDh6Ejh064NduPTBm4kT07tETA4cOw7BhQ7Fw\r\n/hz88ONPaNvqW0ycPh3ffPkl5q7exLtpPAcLCwWdAPLdp04VzBb1F7xvOqnifSNZ80cAawKVJtOn\r\n+CKArAv4HLFu8EUAyXks8bEEUIl6lpVYAniYUBsCWP0gEH3fRNAOfXh1fQB1AujuA1hbAsgJHRLX\r\nr8LwoYMxMnwqopbNRv8BYnukwOhwjBs9AtszS7CnOA2jRo/HyL490K3/EAwcOFicwwxMmzUXQ4f0\r\nwy+/dBe/AzFEEMM+ggy2/K4NBg8agrAJo/B1qzaIStiGg+L+mc7BwkJBJ4BWrFQngRFA303AViwB\r\nVGIJYD1BTQlg1Wlgjrw+gN5NwItr3QTMgrCksBDFhUWI37QRmdk5iN8Yg6zsPOTm5CBX5GlZ+V7s\r\n21OO7KwcFBfkYVNsHNJS01GYn4+CvEJk7EpCjy7dsHmn0OXlIWXXNiRu3oqMNHF96elIEuefmpUr\r\n7p2dbPpIhOm5qimYniKAfPeVB0l5fhR86dx6Z9/RMX1duC9tRLiKK+35q+kqmycr0vNAHEPqK/Z5\r\nHD28Srre56NXNlZqJv6agE0EkHWI9QB6C59Jmw+WANYbhI4AHhnzAHK+raoEcB4WL649ASSYdwWF\r\norAsKZHTJZSU7JZ9ZwoFKeQ++9IQhUXOkmFqLi1uEwUFOdi5Yxd2M57Y5/3gTPtFRc6UC469Jx2L\r\nIwecYkM1sYUCigBym+83ny+HNHlInSRtPnRuvdIRPFdV0fGX5y/tBTHbv/+A06+1Ih4HNPGDhaTP\r\nIW7Ue9KS8SqInH7uym6fLKec1VL4K89Fi88847VZqZ2QALJFxDQKmF5ATlSel+f0BVRk0CmfOPLV\r\n+xlRz5wOdW9N+kB19T2+HQXsgAMc+V5ym2IJ4GFCcATQeaHdBLAh9QHkvnsewEPVB5B5yIpRbdcI\r\nIu6+faz8DGEWRzRUxUqS4362agI3ASRCJTxXEgYKf3nejhxAUnwstmxPrtgXtnlZSNy8vWLPvxQV\r\n5qFEEIncXLXM2UFsSYpDVm4hkndsQ3p2XoXeIyzXPMe3UlPhfVy2bFnlBzLLTJb7/LBW8wCSBPKZ\r\nUs+qTgYJRfqPVjh54T0PoHtf6Ux2vmxNuvoc384DWE8QDAHkDeMD7I8AEh4Cpu87BOxwh7v7ALoJ\r\nILc5wq4qAZwbMgIYSAVOGwpHCeeJvKbHpLS4RGznyG1OF5OXle2MDBbp5mflYHdRsfSmmNKzaNjg\r\n88B3j6grAqgKYyWBPudMR5E9JW4CWFTszFW3tywXv3XsgK49+yN+RxpDMXNSGPr1H4QdWRVeOj8t\r\nZJkpmzFixDDMmLcAGYL0iRSxfs1S9OvWB0OHj8So8VMqFk/ziDy+OB8rtRPm4/LlDgFkuc+yUxFA\r\nloskgPpcgKr1wkMAqxKFow3MC5P+aIMlgPUEwRJAvtBszjmS+gCSEJIgqj6A7qXgQjUNTDAEkOBx\r\ndpcUI198Ve8RcUsKi5BXsV1eWia3d4tCtmx3qdjORbG4N5YAHpk41ASQOr4TfFf4/pjAMBXO94Ll\r\nhxI3ASwWHyeUfeW5aN3iS/QfEYZV0RtQWl6MSdMnY8mSeYhKqvAK+u0itQc/t2mFRavWY+2mRKnZ\r\nELUCkeIjdNSwQejYowfcvf0sAQyNKAIYFRXlRQC5EkggBNAuBWcJoIIlgPUENfEA+iOAJFgsGPwR\r\nsMMd7iaAykOoCKDeB/BwEUB+LWemp2N3cYm8N5Lsibxn5UiPIEkh71WBSI9hFKavp8F9HerlM+l8\r\n6QPVBWPr1vFXP++GCNX/zBQWChxqAsh3feDAgRg2bBjGjh1biTGjx2DEiJEYP348Jk6cKL3i3bt3\r\nl31k/RHAIj67QvaU5mDWzDlYNn8uRk2eI8na4llT0XfAMBTsrhgt6ocAxseswoIlizBuzHAsiY5D\r\neXEmuvzaERFR0Zg9eSKmL3EmSNbFEsDQCPORTcAkgKrVhOUmy1U3AWSfSz6rOgG0TcB2KTgFSwDr\r\nCdwEkC+5LwLIB5cPMAkgX3Y1DyCXB1JNwIH0wTuc4aoJWPUBZCHmbgJ29wGcPTu0fQADqsCZ3+IL\r\nuqRIVPqiMKWnr4Rf1RXbJIPUEyXFopBl2O4SGVeRBZJVHi8vL7ceI088S5nyfPV84ehBHBSEoB7i\r\n4AHv+0fyV1BYJK4jW+Y5PR96eCig7qk7n2oDpuOPAI4bNw5DhgzBSy++hNdfex2vvfoaPnz/Q3T4\r\nuQ0+/OBd+RFFYRnAbhKBeAB1G06AXpXr+WF/Qg6Ij56KLezbz+2D4n10yih2hzCJQwBtH8DaCvOR\r\n3X3Wr18vy0qWp3wG2P/PGQDirAPM55/Pj6oz6PlznjfnmTtawXKC+aG2j2bw2SC4TbEE8DAhuEEg\r\nwRJAfd9E0A59uLsPIIkfr4G/1JsIYKgHgbAAMIXrYB+//SLvuSwc+/2xn5/cFgUtySErO04bQ12Z\r\nKGy5TS+LKmxYELMQZgXJe0qw0iTUvq436dz6uojP86NngIRB5QsriqKSMkTFFSMqvqReYU1cCeK2\r\n7va6h1ydZe7kiVi0YJHUU/gu8X4rm9qC6R5qAkgvX5dOXXDm/Wfh/675P/zhqj/gsucux0vP/w9f\r\nfP4Gpk6dJp+zDRs2YO7cufKalVQhgOK8lZQU5on3ax2KyyomGN63B/HiHS3b4+SdPynIy0K5OO+c\r\ngvwKDbBr2xZkVA7+cJ4pXXQCSAJZXLYPxeWhRZFI84B2/RQelyOe+RtquMUps822NQXPXb+n1LFM\r\nZHnJspOtKe5pYPjc7NlTLp8tnhN/OWjNiiN81/Q8PVpFEUEllgAeJlRHAHmTVIVBAsivOzcBZDNp\r\nQ+4DSILIX70JmNflXgv4UDYBk+BlpWdIbx+FBE9t5wtCmJ+Tyxsm5wJUTcCcEoNxmb76EtfvZ30E\r\nz2/3bqevkMoXetnWxhXhxLty8dcHi+sRCnHifbtx/VOR2Le3FHJdZ3HO23bswvv3XIf5fTpgReSa\r\nyo+EQO5zoGBah4MAdu3ZFX+5669odPsxaHRbI1z4nwvx9PP/RudO3/Pxk7JuXbQggHNwkAtSV4gv\r\nAnhwn0h3xDDMmb8YiVu3oXTvAcTHRKBv335YGBEjbfxJXPRyTJw8BWFTZyA9T3z8FGVh2KABGDZ2\r\nMvbTgKfgql95fH4o7RbHGhaZhnFRKQirDmtTXbpUTBC/JjB83JoUDI5MF2RQnoXMy5ycbOnlZrMo\r\nobYdr7wA9fSCV4TpUPZq250G328l3OaoaK94Ko5KQ/2qcNe2GyqMnj31XPgigKwLWCeQZCvPH58t\r\nvt+eeQAt6aEwb2xeWAJYb6AIICssVWnxi41QFQOJn0P+iisKm1xZyZFQ8eufhQILAhPhqo/7JIAs\r\nvKqbCPpwEkDalojClE29HPzBvoBsApbNwWKbI35l868Ik3oB2fRYUeA2fAJYgpPvzUHzf2ag2WP1\r\nBek4/aEMXH/fSEEAnUqOleOmuHhc2+xUzG/3Pgp3lwoy0xezZs2S75X7vtYUPNahJoDjxo1Hnz49\r\n8eEHr+Hdz17FW5+/iu9at8D4oT/h888eRam4b5T1MfQAzhYE0OOZqkIAxT5ld14qRo0Jx/LFMzB8\r\n7ESkF5Rg5fLZiFgdifC5S6WNf9mLLj9/hxVrYxEdvxU5aYmYunCJIIRTUbynqmeMwuOX7S7G2l0F\r\nWLJFfDhJUUzRBFFB7XG850q4sk7FlgsU53fx5jx5DArLSMfz5fHAE1IO7MNuUZ56p0MwXNsnURDQ\r\n4zs4KIkZr4vgNu2r2on0KtJgeOWva9sUj2AYnxFeC4XH8k8ARTnlhwDKQx7lwryxBNASwHqDW2+9\r\nVRb8fIEJvuwsUHJynF+69/mCk/Cxrwc9fXzx2ZxKssTmXzaTkkxVbYI99H38AgnX+wASLNB89QFc\r\nsYJ9AGcftmlgSACz08UxxctCL0aWOL4koOV7kCP0pSW7saesXG5z8miOAmbchk4AozYVo9E58wQm\r\noNG59QFhAhPRqEkY/n5jP3EPnHvEe5qVm4ee33yO6d3bYdS4CbK7AD82WGG672tNwWMdeg/gBHTs\r\n+DPa/fQVNq7sh7mdP0baoBZY/N0zeP3VUzBx0o3YHDscq2fNxdz5c/0TQHHejuzDjPAJ6N9/ICZN\r\nnokd2QVI2xaH337rgQ2JTp/C6mTezGnS67o8KkY8KrsxtH8/TJ25uCK0auXK45eJZ2ztzgKs3cGm\r\n4gPYL549EygJ61egtyDxk6fNwqI58zB19jSsjk2QYQfEu28Cjxu9I1+k7zRNsxxl30TvZ/0gSgtz\r\nMG7kMEwSeVZcykmxhV6EqbwvL9st+0ZSNm9ag4g1sXLbO50D0jvH6yIcgsb+2x4bx+4gykuyMH0a\r\n781u8QHrfJSUFWdhypQZ4noPyvJCBFaJq0ASyzKLwmP5I4C8xyYCaJuAPWIJoCOWANYTmAigDp0A\r\nEooAkkhx1YyIiJVeBJDwEDB93yFghztc9QFUBJDETw0CUX0A68M8gLwnstlXFKokf/niXpAA7tu7\r\nDwWCnHP07z6RDpeIy5fbzkoK+0RcqRcVMPvWsWJQX/T1ETw/dx/A/fv3IiWtAK1/nI/WP88T4G99\r\nwAJ8234eeg9YIfv9qXvF8+azNGjwEOlJVhLIfQ4UTOtQE8AxY8Zg5sy5ePvd9ujyyrPo9cTD+O89\r\nD+Ohf92OX7sejwlhN2BH4pgKAjhfEgQlbgKoRgErYeHP+69IlxrcIZ4K8ReY7JXEq3rh8ctLHQIY\r\nJQlgVbKkwLBxw4agSNRNi6eHo32rr9G+1+iKdMxxCMZj2ooA8j13E0DK+uXzsDByk9yOi16MNj91\r\nxtgxI/Fzp9+wcMlijB07GtGrV+D7r79Fz8H9sWiF0yyup8N8C5QA7i3Nxg/ftcaoUcPxa48+6Nvl\r\nV/wiyO2wYcPRu3sf9Ok3BHm7+dFlJoG+CCDLfpb5rA9YJvIcnI9OZ5qTcvGBKld3Ec8Vny91rkcz\r\neD+YN6awownyuRRlD6HIsCWAhwkkgHxJa04AI7By5coG0wTMczc1AZMgqiZg9zyA9OiwCXjKlCmH\r\nrg+gKChI+rhuMCeDJuErEpU1RwZzuzAvX9vOk9sECSDTZwXMSoIVOT1s9Rmq8tDzZX9F81l9FQ7S\r\nUefK86a3lWSKwkKtps+IL/AYh5oAkiSQAMyevQDt2g1Cmx+GYPHSNdiVnIC4hFGiPEjHxk0J2BQX\r\ni7lz5srCXYlvArgPSXGbsFVfCSQ3C4lbHOJM+ufvrhcI23XivYyrsBepy5VAMrI9g0LcwuN7CCDt\r\n/BFAYOnMSZgyfSbGjBiLUUMHo3fvQYhO2CrDTHEIpulNAOkBdLxgHhsgbdtG9B0wCJsSEjF6yEC0\r\n+rYN+g8egYWL5mNAn34YO2kaopbPxjfft8eosSOxYHn1BJDb1Ok2jt1BOU3O4EGjkZObhiED+qP1\r\nt9+LY0zC4MGD0LVLd/TvOwhpefxQrBqfcBNAfhCrPtIsR1l+slxVK4HwXeYzxfvPd0I9s3YaGAfM\r\nC5P+aINTL9lpYA47zj//fNnUy5thIoAM44tN4kMCSKKnE0CSP50AMqw6Ana4w6sSQO+JoFUfQDUP\r\nIAkg5zk7lASQNizA6fXL5jHFPvv6cVvGr2j2ZX/A8tJSuc1+ViptHouFMIlVQwDP150HDQnMdz4X\r\ngdzbmoDpHmoCOGLECPnuDxw4QOr27femZnwXRo0ahdjYODkKmARBiZsA8rwpe8uy0bVjR/TuNxRJ\r\nO9MZipmTxssm4Z1qJRA/UlKcj4mjBqJLb3FuBUxzH9atXozhQyc6Bgbh8UkA15AA7vRNFCvl4H7E\r\nb9qAfH58FRehrLQYWdlq6TnfQnK5xqsJ2CGGCoraJm/fgtjELaI8TcHmLduQl5PnTOlUVCyXycsW\r\nZcTWpETsSE5BcYm6J550KFU9gBTdxsEBQUJzc8Q5iWvKz81HRkoykrbtFL/b0PO3nti6K0PYUarG\r\nJUgCfRFAlqvBEUA7/52TFzYfLAGsR/j8888l0ePN4MOpbg7BB1YRCRJE2rHg50vPl5+FAb2ADaUP\r\noO8m4ITKJmBzH8B5mDjxEDcBZznTvHiagIucbTYB5zrp0APIMJIPNgHraTC8oUA/b4uqYB6pyjRU\r\n+cV0/HsAh4mwcqSmplRovYVNfPxA4vtV7TyA4rwpXAquY9t26N17COYtW4PyPSWYOH0iFsuVQKrv\r\nA8g+f6NGjUSGeDdWb4iXuvVrliCqYtskPD5X1EkpLMeglcmI2paNqK0O1mzNqYTSRW3LwYZdBVi3\r\nPRdrKxAtUBlugogzICIFqQXOesq8fo4CLihwWlZ0MC/YVOqQJP56PoRImrivyFNhYYFXXKbHMoTl\r\nsBJuU6fbVULYM70Csc1f59glYj8X27Zur9g2xBPgsdgCpO5dsASQ8RQsAXTAvDDpjzYofsFtiiWA\r\nhxn0BLI5WIGjg924+eabcdNNN0nceOONuP7663HdddfJEY/0tFUlYPq+iaAd+nBFAKn3EMANfgjg\r\nisp5AENBAFmwKk+RP0jb7BzZrHtA2LOvH7c5N2BRnijM8wukV5DNwoUV23vEy2RKy6Lhg8+Mqky5\r\nb3q+ggXT8UUAWVkPGjQII0YMx6RJkzBhwgSMnzBeYoIGfSUQRfgovgjgvj2F6NetG4YPGYWZC5dj\r\njyCNS2dNkSuB5KuVQPzIxlVz0e6nXzBn3lwsWRtbuRLI8qj1FRZVhcfn+VBS80sF2ctGtCCBxFqJ\r\nHPmrdDUB00wWaesiyZXI31CDRNHxLjrCbepMtv7APDHpdfAalARLABWJJSwBdMC8MOmPNlgCeARh\r\nxowZlV5Bd5NrfdtXTcDUqyZgEj8SRNo5TcDOUkeetYCdJuDaTgND8Gvd/aVtQmUhrPalruK3Qlep\r\nFwRQ11kcmeCzw0r1UBBAev5SUpLFuxKPBCIhHvEV4LYHCfJ9IgHwRwCLij1LsTFtruJBvfQZHjxQ\r\nOfK1Ojmwf5+cI5PTqKiVQMrLy1Ba5njeTCKPX0EArdRcmI+B9gEkIXXIn+PltH0AHVgC6MASwCME\r\nf/zjHyUBpGdM9atjpUCCVV/3SfJYcCmv4KZNm+QvCSDJIEcBc35DrnnJ/o0cAawPAqmpB5BgRatD\r\nfylM+kB1wdiadMHYmnTB2Jp0wdiadMHYmnTB2Jp0wdiadIHYEqZnqqbwRwAprPDdcXxBb/6lVCGA\r\nh5GA8fiseK3UTpiP/CDmxzHLVJahHBTIMpHET5E+9dw6H8rOc8u4FgdsXgiwrGDZQ6hywxLABgoS\r\nQDaPsgDgQBCCBQO/CLnNAqK+7ZP48TclJUV+vbJZmL8kh9wmISRJ3LgxRn7tLlmyRHz5LhNEd3ol\r\nAVQPsIVFQ4ZOAIlQiZsAHk4CxkrGegBrL7yP7BbD8pEfy/ygZrnKfoLsg8g8plfHeyk4fiDYue+U\r\nmD6WjkbhxwGhxBLABopjjz1WfhGy8mABYAILf9O2SVeX4XqY3meGzWsksNnZznQ3JIckg+wnqAaJ\r\nkAjSC0gSyS9cNsVZWDRksLJmxc13lxUTt6t7v/zplJ7gO6UqOv5y32R/KMB3nL9WaicmAsjykE2/\r\n6v7ymeLzRALofCg7nmY+A5b42ImglVgCeISABJDNpXzxFaGqz2BBpQifAr9g6dlTHkI2F7NJmOSP\r\nA0g4HQybhbkkHL2GfIl5vRYWDR3smK8GFLCCDxXclRz3TXaHClZqL3xO2ARsCWDNxRJARywBPEKg\r\nPIB88U2Eq75BEUB6O3QCyEKMzRmKALKZWBHA9evXSwLIgSDsI2jFihUrR5uwrGSfaHaPYVcZlpOq\r\nCZhlKz2/OgF0moCddeUplvhYAqjEEsAjBL/73e/kPIB8sN1kqz7CnwfQTQD5lUsCqA8I4YS3mzZt\r\nFIQxU5LGYJCZ6QuZAcGTjjn8SAKb4muC2sS1aNhwP0NHG9xljbu84DbLOD2vlI0vsGwk2CVm2bJl\r\nshzURwCzRYTpqdkN2LVGdS9gnaDmlSUR1KEIwNEG5oevfDDpA9UFY2vSBWNr0gVry2eD4LYlgA0c\r\nb7/9tryRbGrZv5/YX6/Bc+UDqUYw8kFkIUUyyEKPzRqKBPJLl1+8OglkUzBHPk+bNq0KOFWML3AU\r\n8ZQpk11wdJMnT5LzrSlMnDgxIHAeNoWwsDC/4FxugWD8+PHVYty4cRg7dmy14Hqy+q8/0Gb06NEB\r\ngStQ+MPIkSMlTGG+oOJYBA/mn35vlH70qKo6t60vKJtAwedHQX+m/IE2fJYDgek90GF6l3Q476hC\r\nmNe764bpXfcHlhmTJzvliPPrlC+cq3Hw4MEYOnQoBgwYgB49emDIkCHyPvD6eV3qXCZNmlgRzymv\r\nWJ5Nnz5dlnWcCYEf+pwii2Uhy0T2kSYxVCSQZSfLUH5oqxHBqh8my1c7F6BnJZCjGcwHPg9cBpTb\r\nlgAeAXj44Yfx448/olOnjujYsT6jg0SHDh78/PPP+OmnnySx4zxXHPW7YMEC6e3jJNcsBNVkuCw0\r\nhw8fJgvVwYOHyF9OmDtw4EAJbg8a5Oj69+8n0F+iXz+BAbQRtqIgZmHswAl3bJV9P2HvDU86vsL6\r\noW/fvlXQp08fgd7yt3dv/qpthd7o1at3xW8vDT1d+73Qs2dPCc++0nnC3GCFw4mCJXpUwL3tB926\r\ndfOB34z47TffMNnrMMUxo+sRDOcauxrCunb1oEuXLvj111/xyy+/oHPnzuLd/0nkYTcZV8avsFPb\r\neroqTNdXgvehAlXvubrvJr0H+vPD588D53k0PaeE/qyb0Lu3See8Ozqcd855v9S2gvv9NL3POtR7\r\n72CAXJZPL2uccsgBiR2J3tChQ7RtB9xnGiR+LMdIGvnxSZLHMo6T3c+d60x4z7KPWLhwoRz4xvKQ\r\nE+JzAEh09DrZB5AeQPaT5ocyW03oTaSnkF1rSP5I+tSAIG575gG0BNCkP9rgEEA7D6BFPQIJGQtD\r\nfgWzgOSXMT0ELDQV6aMNKxZWXm6Cwn1WYp06dcKnn36BDh2FTY+++LVLd3Tq0A7tvntL/LYVlWAP\r\nWYGqSlRt66DeDKfCNYHH1eGtM5Fhb5AMK4LsgLqfJUF28FMFdJ0HJNFuqDjc/vGnH8WvQnv5y48G\r\nD9pX/rZvbwbDne12LjBMwZ1u1Tjt2jkw6eorVB6YwggVHji8r79qHvxQ+du2bVu0adsGbdq0RuvW\r\nrfHdd9/im2++QcuWLfHFF5/jzTffEPHbS7u2PwioX4E2bdrIfab1g0jrhx/M8D62b1S9Ds9z4+8Z\r\nIKo+n57nV/8odEN/Jzy/HeV7pb9zOvR307HtZHifHZjKAMJNlnVSSwKqk0tFGNXHpSKKBEkhvaT0\r\nVCryx2mtWN7xQ5eT3fMDeOHCBZL0sb/z4sVLsHTpUvlRvGrVSkRFrZH9odkthi0jbALm9FlsMSEB\r\nVEvSKfLHpmBLAL1hCaADSwAt6hU4nyHJHgs8Fob8Ip45c6b8QmZTCptIlAdQEUF+VXPb8fo56Nu3\r\nP9p+9yE+eO48/Pr9P9H3pzvRo83l6PB5M/T5+nfo+d256NXjFxGfHkJPYU2oL33dA+B4CTyeArcH\r\nQa8A3FAeCXr4/HksfEHFMXlLTPB4Whyvn76vdP5AEv3bbw6UR04n2AqV3iIZrqOqrQ4njnd8dwXr\r\nAferhx6/ruB9Xt7nrKO6cB16eiboNl27OmTEISvOB0hHQXxImtoLskVC+PHHH0tbN4FR8bp0+dXr\r\n+CpM1/mCOg8d3vfUe5+/pudLwf1cmqCeZ+9n3HkX1HtRHfgOqXdR7bvfXx3q/dehlw9ur5/y8nHN\r\n5uHDh2PEiBGVTez81ZvHSfycZt5Jsnl31qyZlUtcOqSP3r7F0tvHvn4EiV9ExArZ7YWD4DgbAr1/\r\nnATa0/zrWQVEEUDV/OvAuwnYEkASwKM7DwhLAC3qFUgA+WUcGblKkMAl8ivY3QzMr2basIBlgUsy\r\nqPdVoq5P3wF4+sm70bdVI4z6sRFGtGuEIW0a4d3//BHdvjoG/b49AX1+a4XhIxx7Haog92wPk78e\r\nsLD3BisB//A0EZnhIa8mOB4Eb2+CbzhNVHqlZarUfEEnvoHCqTzNzd+HAjrhri18p8/fqmGhgjlP\r\nHfD47o8BEiOSLJKzX37pLD1pX371pbTXSY+6Jn1bT9etU9A/eKqD6Tki9GdQh/tZNj3z+vvhS6/g\r\nft9Uc6u+r8P7fXaglwEmOMRuRGVZo/ddVP0LVT9fTx9Cp0+f6lNM0scyjB+1LNNYtpH0KcLHJl72\r\n8SPZY1MvwTXRSfzY74+ePyP5y0gT5I8rgeSAS1UWFXEQCEcDl0jCt7vU+S0rU+Tv6IaHBFs4cCaf\r\nb9nCEkCLw4j/+7//k4Ukv3I51xW/fFV/QPaF4ZcyiSA7RLMTNwtfFqyeAtchhmHhUzCs//cI63QM\r\nJnRuhAmdGiFM/I7vcAyGtm6EwT+cieGDuoqCnJ3Gw7w6kROqw7kJLPTdYGWgoIhoIOC5KtBbUFOw\r\ncvIHU4UWOKpWlr7hXdHWDt6VursyN4WFGvq51C3UcbzhORcPEVIkn/1WSdRICOlRo4ePzbz0DrJP\r\noA7VxOkP9A76gsemqmeR8PYWct/Rmbyzbu8toXuOdU+igtt76MC3h1F5C3VPog5FpAOBTqYVOXaT\r\nXDeJ1Ympfn/5PvF95bvPcoNlDQkjyy01YGTqVKdP4PTpM2Q5R7LIMm/27NmSNLIcVP0BV65cJcjh\r\nWkSvXSfIYQxiYjYJghiLuNh4xMcnCqKYhMREgaTNSErags3id/Nm8WthUYmtEqmpaWjbpi3rYXPl\r\nbGFR1yABZIHHKQ646ge/fEkE+UXsJoLTBFGcLApM2rOgJPh1TSI4dfpsPP7QNQgXpG9K12Mw9bdj\r\nMI3o9jtM/PUYjPupEQb8+iTGh3HUMEfamUcLq5F8TuHs2Vdf9CawMPePqnaKwOpQ3gRCeRh0L4Ov\r\ncB1uYhsITITXpHPA7cBGItcGOsH2pa9rOMdzjhnqY+vXpKDCnI8F59fzoeCQehIMEg564Uh8SJao\r\nJxmXcYT9MI1QcpsYMdz5cFAk3/TRoMOx8zRxuqE+RHxB/9AxQX0Q+YKeVwqmPFNwP6/u59r9zKv3\r\nxfRuKejvJt9Z9b6rskGVGyRvauQuocomgkRuzpzZlU2+qo+f4/1jU6/j/WOZp3v/OPMBy0N+GLNs\r\n5OhfDgChF1D1AeQgENUMzIEgqilYTbmlpodRg0MsLDwolPMisvwQ9bC5crawqGuQAHIUHJs4OM0B\r\nCzxFBNksvHJlhCCCyyQR5BcxC1UWpvwyZl8a2WdQoFvXH/De/47DnF7HYHaPRpjTU0BszxWY0eMY\r\nTBbEcEjXBzBxymxZIM+ePUsWzr4xUxJN52vc86swcyYLeEevF/gmOBUDKwhv6BUHf3UyWlOwYgoW\r\niuR6wzOthQmqMnQqRAe67miFyhuVJ/7BvKyahv6BQCKiiD2JDskRCRbJHUkgPVbjxgmyM3Y4Wn3x\r\nGVp80xpjJwjyIuIxDn8nhoVj6EBh22dQpd4XwVKESSf5OpFSYBqefW7rcMIVyVLnr8MUxm03CdOh\r\nEzJ/UGSNH14qL/mrkzgT9OdbB98Rvlv6+6rKBqdccMoMlk+EUy45285ADw7yWCjJn2r6ZUuHp+l3\r\nlUb8nKZfloHR0dGVTcAkgJwflSOASQA5CpjTwKj5BXUSqOZZ1cmge15WC4v9+/dJ77uoh82Vs4VF\r\nXYMEkIUjCzaOcmNhxxVOFBHklzALx1WioFwk7FiYshB1vqQXy8EjM6bPxgv/uQE9Wv4es3v9DksG\r\nNsKiAcdUoBHm9WmEmV0bYcLgjzF77mLZz5DH9AdnSob58pfHNIFE1HvfgTOyz4Eiq5zPyx8UmfUN\r\nh7j6g6qAdOiklqTX0Xt0wUKv+DwVYFVdaOE0i4UWTDPU8KSvfyy4odvp8P5wcD4K6KlWJF2RGZIl\r\nEkF6A/sPGCDIy2SEjR+B1196Ee998hV69OiOz79shb59eqFlq7YY1LcX3n3jBbzz8RfSe9e9V2+Z\r\n5iSSzwoCqghSoHCTp0DAazDpdHjm6PQFJz/cHz46FFFzgx9dzFflqXODYd73wAHvGd8b5z3jtC18\r\nZ513W8EpAzzbTvnh9PdzyqklskXDacZ1+vs5pG91pbePhI/lHkHixw9iRf7U9C+cI5VLwZH80QOo\r\nJpdWg0EU+SN0T6CJAFgc3eC8vF27Wg+gxWEECSAJHQs1fuHSE0giyKXf2PTBgpAFIwvIFbJJeKks\r\nQJ2v5wjZdDJ/3gJ88cHDeOr+EwT5+x1WDv8dIoY2QsQQAfG7tH8jTO/SCNMmdMfyFZEyHRbGJqiR\r\neDpIMt1wwtSvtw2vR4dq9vHAIa8KS5Z475OgcmSgDkfvbeex9cBDYs0k1xl1WBVsnlKVViCgvYIp\r\nPLTwVKg1gU7S6wv8naP6KCDRoHec5EMRRBIZEiV6xJQnkH3Hpk4aizdffgUtv2uDD998Ga+8/RG+\r\n/uoLPPnUv/HRp1/gm29a4pPPv8IHH3yMPoNHYNpkEX/EKIGRGDchXBIgRZL0Xx3Kc+0QKW+S5CFR\r\nDhHWwxRB1rd14mv60PAGP2SqftwQJGSzZzt5pPYVSXNjzhzn18lfbwLnwKznPXGedf098rxz7neS\r\nZI/gu8+yQTX1eg/wcAifIn2K8PHjl+UeiR/LQJI/NQCE5E9NAM0pYPTVRdzeP50Amip/i6MbJcUl\r\nyMhMBqcbE/WwuXK2sKhrkACykGShxi9cFnSKCLLwIxlkgcjCMbKib+DaaMczqLB+Qwwmhw3HE3ef\r\njAV9GmHdmEZYM1xgWCNEVfzOH3K5KJTnC/toWQj7gmcknjdINP2B5xUqsLJgExG9Bc4owcChRhWq\r\nuG54yK6vME5D4RvLlpEk1w0856ZDHdc/dALuhkPUPdvOrzkdBee4pvMJFbzT5zHV+Xp/ODhE3iGG\r\nzjRJJFL0dNETyP501M+aORWDBw3HqOFD0LP7b+jQ6Rf81qUj2v/YEYMH9MU3336HEcOH4ZPPPsGs\r\nBYsxefwo9OnZR6A3ho8ZL9J30naDBNRNpBwSpciRG95E1xc83nU3QVc6T5ibLBM6GQsUzseO9wcT\r\n89cDbyKng/dD3R/1/KhnU7+PhP5O8X1WxI9llcnLpxM+gmUeyz7l+dPJn5oAmgRQ9/6RAOrkzxJA\r\nC18oLCgUz1OieEay0L69HQRicRhBAkjCwq9ZegHZv4WFHQs9TnrKAlCRwXXromUhGhPjEEIdiXFJ\r\nmBo+HP3bXYE5g67FihlfIWb5r1g6rSUWT/wMa1fOF/FisX7d+sqCl+C2XiArKJ0CZ+L33ne+3gl+\r\nzXvDO4zn7LYx6XQwPFioPkS+wHAFN/GtL4iMNOurgyLuoQSJv0kfGqjzdl8DBwN4PiocMu8QRJIQ\r\nEhkSLzbj0ytHAkgiQ1JCz/YKQaRXCuIRsYJx+UHB+Oxjthbho4dg1NhwRAg7Eu4V8kPD6WO7tJLg\r\nON4rz7aH9Lihe8A9MOmVzq0nYTKTqGBAoqU+ftS2bzjXzHypiqofYwQnY3bui+f+qXvGJlz1Tpne\r\nSZYB69c7ZYvu3SPJU0SP5RvLOX74Eiz3WP4p4sdyURE/3evnb/CHrOjryQAQTkytT06t5qKzOLTg\r\ncnAc/JEnPg6ysjLEdh4eeuh+1sPmytnCoq5BAsgClYUZvYAc3cbCjuAXLwtA5Rlk4clCVBFCHQlx\r\nXCNzmyhoNyJylSh418VhbXSs+I3FxtgtwiZRFLjO17Ub6stbBwtpHf7CeV7BgtcRKBRZde/XFjrh\r\nrR/wJtlHI9SHg/p4IEgu+I6QFJLgkHyR9JEIsj8cB0+w+VN55UweO0J6zgRMYYTeBOred0P3+vkO\r\nd7x6Jp0vuD19gaBqVwTVh9cbbm+gxyuotn17AZVXVqEqGdaJrTehdUip013Fmzx6SCPvM+85nwG+\r\nC+odZVnB8obllE4UFUlU/QL54czyUkGRxkMBltm+wHD9fLmvl0EWhw6sOyIjV2LJ0oWYNXsa3nj9\r\nNVUPV62YLSwOBUgAWQCyyYJft2zaIPi1S0LIAoOFGQs1Ej0WhFsqCCELFTe2bGEY5zny1quv6+rA\r\nAjZY6HFZSCu47XSYSCyhx/cFt63aVvpQQCe7OlkOFno6vhCMbUOEnh8mKDv3R4Ui+yQE9H4rMqiI\r\nIPuTktiwHx0Hh6gRtZ7Rub6hRvjqoF6NyNX1zihhZ0ocZ98TZtr3B33EsSlMnwZGbZvhGb2sdGrf\r\nAffN08lUB+/jeNI2nbOCO3+dvPQeDR0e7hnNrA+AcQa3eAa/6ANa9H6V7A+p+jmq9YMd0uwhzorI\r\nKqIbSjDd2XOcAWuLK47hjzSTGPN63n77bbzzzjtyGUPm1QknnCAXADj22GMtDjmOw/HH/wl/+MMf\r\n9XrYu1K2sDhUIAHkVy+bKticQU8gmzfYzKEIIckgIUlf0uZKUugPJIzqq1jXKTCsOqgva/4GCn6R\r\nq69yf1B2/hConQnMKx0mXXVwk+iawpS2jmBsTdDjH26Yzs8EU1z3h4Qi4ySJihSSENJTxI8mEkF6\r\nmOiRYuXveNrM3j3CIQ6ebQWnn58DXa8GVijiocPfyPNDAe9BIv7gPQLbP6rG94yc94aeTwp6Puo2\r\nzG9F1pSXU/VHJFHiIDA1aERtq+Z3ehM9zdr0InpWDDE1PSuvcXS0d5eSUGCdeO4iVkVipTiH9eKD\r\nhN1ilNdSea3VPsFnlSTxww8/lOCa1ySyf/jDH4x1gcVhg1FpYVHnIAFkQcE+IuzHQk8g+7SQDLoJ\r\n4Y6dgrgJ8iaJYQUprC10gqlAz6MbpuaN6kCi6obJTkEPd2/XBCS9Jt2hgPu4wcKUpi/oxN4Ufiih\r\nn4s/+Iqnf3wo0k5yqEihIoOKCK5e7fEI6k2QevOkQnXhOszNnR5doCDBIdFR8HiIvAdjuOGxM8MU\r\np+YgGVMwhVeF6Zx8gfnA/GO+q/6OvF+qaVjva8h7qUMRPacfr3m6GAU+E6qbSF2AHyBRa+mJjsIm\r\nse14qat2a1H79Grz2j/55BOBT+Ua1iTELPNNdYHFYYNRaWFR5zj22P+ThQY7qNILqEYqKTKoCCHB\r\nNTCTdyVLUqiIoYIii9nZTpgn3LOt9NkqLCtbkMpdyEhLlfFVWgQJZ6hB4lod3LaBxjtaoboMNHS4\r\nP0AU8VekkISQZFB5COkZ1IkgyYHjEfIMKnFGsJv3lRcpGLjJiT+4B7OEAg5BcmAKDwyKcOkDP/Rt\r\n33Bfo34+3vC2Y96pfFdeOzXZsweeEcIez1p0FXKnyJXqKkCoLgSE6lagvMehAtPkB8gGQfh4HkmJ\r\nVbumuMHnlCT3888/k+jUqZP0floCWO9gVFpY1DnYL4EF2p49e+QoMTVSrLCQ8BBCjmxLS89AalpG\r\nJTF0yGGuCM+XFWYqK9PUdEHmcrBTVJxZ2XmS7CWnpEnitys5FVmCUO1KIeHLQX5egfiaX4yYjbHY\r\nJirZtHQuru4hnDWB8lweCihCGwiCtbeoW+gfG27o5FYRQuUVJSFUZFARQVb8rJRJEhRZUMRBQXmM\r\nfEHZkHjoHiZdp/TucLeNG4rkuPd1uPXKtmocfZ8kSoce318a3jCF6/H0cJNeh56GAvUqn9T94D1S\r\npG7DBm/PmQcegmcidTrR0qG6Eii4uxoEC5UOn7mNsXHYFLsJW7eYbXXQg00C/OWXX0hwjWp6RC0B\r\nrHcwKi0s6hz0ALKQ47I0HKqupgxQ0wYoQlhcXIRMQdrSMnMEMfRMccDwbaJgmjJjDjaIgnX02HAs\r\nW7YCc+YtxvTZCzAhLAyRa9cjfOIkRK7ZgAkTwjF3wSJERW/AqhURmDFnAaI3bMTQ4aOwMWErSkR6\r\ninRWB33KBV2nh9UU9ICqqR3Udk3hTtsfTPEbEvSPAwWTXX0Dz9P0EUGySC+wmwwqzyArWVa2JAJu\r\ngqC8QSboXqNQQPdIBYKqZMdDeEww24ceJGJmMhYYVHxTOu480++H+94pcqcTPF+kjsTMDT4XoQY/\r\nPOLi+ZzFiW2zjQ4+o/R2fvXVVxJdunSRTeGWANY7GJUWFnUORQC5MHV5eTnKysoESiVKS/V5jEqQ\r\nk5uPrNwClGpEkfYx69di8YpISQQXLV2J1RERWLdhE6bPmodVK1chfPIsURBFYXz4VEyZOgs7tm/D\r\ntJlzMGXyDMycuwARKyMxZfoc5Bc6c1Yp4lkd1DmYwHBnHixz3OrgkF63zgN3WKjhnLvFoYL6oCF0\r\nMq6IoSKC9AzqzcT0CioiqMNECtzQSURdQicuuqdKR3XhwSDYdHSyVZfQj6mulzDlmfteqftKEqZD\r\ndQ9wg+Qr1OCzlpDIvE0Q22YbHfxQoQe0RYuWaNmypVx3lv0fLQGsdzAqLSzqHCwMSAApbAbeu3ev\r\n/CVICMvLyyp/8/ILkJNfVEEOPSgr24110euxect2UUFmoKSoEJGr1yAlNV0Wtpu3bhO/8UjavBU7\r\nRaVJYsnVQzZujEN6Rqb4Go/H0mURwj5VEkoP6fQNpuEPpjgmougLuj3Jrxu6bXUwxQ8UpvQsvGEi\r\n0DpMcfyBcXRiSDKoiCC9gmwmNnkEdZAYVAdFFtS2O0zfDgQ6Aa1ruAlSbWAiYKGGOpbpWnSY8pXQ\r\n7w3Be0xCxnuvugeo7VBDDUZLEUiqmGIrJblquBt8Ptns/fXXX0t069ZNDnqxBLDewai0sKhzsDCI\r\njXUIIMkfF6hW8JBBoRfbBUXFyCssqSSIOg4c2I/9jCfjlIv9AzKN/fuFXmDffrG9bz/27mN4GQ7s\r\nd8L37nWOJYywTxynrJJwVge3nb7vKw16NwNDMLZ1D8cjW1+hfwzUBKY0q4MpHV8w56mOUkG2q34o\r\nKAJJEqi6FegeQdVfUPcImqBX5v5AEuELboLpK9yt16HHry3chKg2MBGuuoA6nul6CFOeEbw37nvK\r\n+20CnwX1PIQaTHfrNie/OAuDrtftlI7PJvs5tmr1tUT37t3kgBhLAOsdjEoLizqHQwBjJQFUxM8N\r\nEkGSu6Li3SgQULqao9ygq3uYiKuFhYL6UFDE0ONNLoHT9O/xCLJ5WCeCqp9gbaDIg4IvvQl6xa8T\r\nger0wcJNhEIJNyEOBUzHIUzXRqh80n916PfLBH0Akb5fE7jjZ2SkY/sOh8hnMLzCxgTa87lk38dv\r\nvmkl0aNHD9kn0BLAegej0sKizqETQHrxfOHgwQMo2V2Kwt1lcl959moGj2ewpnCT1EMNei5NMNnW\r\nFnWdfnVwCLT3eXjg7TWuCczp+zumO35t4Jy/czzPh0J5uUMIy8oIegi9m4fdRFAf5c2KNxiQPBKm\r\nMEKF61B6hxg4Op0sHA6YiEh9hukaTFD564b7PtU1+Gzt3EWivBPZWZ5ptXyBzyTL9m+//VaiV69e\r\ncroiSwDrHYxKC4s6h04ASfJ0VCGApWUoEnCHHYkwkU7CZKvDFKe20MnO0YJQfCQEA+e4HhLoTQYd\r\nEqi8gXrTsGoeVgNGqgPJYqigRirXB5gISF3CRJB8wVc87puuRYce1x3mvhfu/VAjV6SbnJKK1JQU\r\n5OV6juULfCY5ovm7777D999/jz59+sgpcSwBrHcwKi0s6hzeBPCgASR7B0To0UUALY5u6GTUFxF0\r\newTVVET+QK9hsGBFruDeN8FEPOsainSY9G5dKKCOFyxMadUFTPeltsjPz0NqegbS0zKQL/ZNx9XB\r\nZ4WD8Fq3bi3Rt29f2SeQc7+a6gKLwwaj0sKizlE9AXRAIQEsLi2X2yab4ODtbaxLmCp4C4vq4CaA\r\n/ryBigRWB9rpMNkEAkUo/YXVNUgw9O2GAP38Gxp4b9Mzs5GZkY2iau4zbfl8ccRwmzZtJPr17yfn\r\nRrQEsN7BqLSwqHPoBFAXRdScbfkjCGB5CAlgRaJ1LupYFhZmqOfD+VhwoH84eJqIdTKoRpU7I42V\r\nR7CuoQgn4S+srnGo5sO08EZWdi5ysvOwW2wXucLc4Ih2jhhu07YN2rZti/4D+stBIZYA1jsYlRYW\r\ndQ4SQM6EH4jsFuSPJNCKlSNZPB8pVb3HJjLoGTmsTznjEMPAUHUey5rCM52NeV7J6hF8fDcRtagb\r\n8L7k5LLpN89rMn5f4LPFEcM//PCDxMCBA+Wcr5YA1jsYlRYWdY4jiQCqituKldqIhwD6IoEeAuhu\r\nHg4EHFns3ndDDzfDmavSFxwyWhPUJq4HityawggP+a0e3nHMxLc+wkOmQwOmmZuXj7zcfJQHkIf0\r\nUnPEcLt27SQGDRpkCWD9hFFpYVHnqDsCeADftWqJZavWVuxXLwdF5RqXkFSxF7iwya5EFJCF7FMl\r\nwMLPEkErNRVvAmgmgYTuCXSTwVBg715fqP44ahqb4FGTuCqOOW5ghNaiOpDQ5ReIMk5gryHcDT4n\r\nycm70L59e4nBgweDk/5bAljvYFRaWNQ5QkEAWdCwaYxEjJUPJX7jWjz6yCP4/Ju2cj8nOxPh4eFI\r\nSNqGzPRUTAgLw87UdBQV5mPS5MnYujMFK5fNx7W33I2oDZuQmBCPsPDJyC8slvF9CStodnbOLyxE\r\nTl4uikpKkFdQIJtAGGbFSk3EmwD6JoF6k7CHEHrvm6AII2EKJ6rOWajDE78+QyelpvC6gn7cIwW8\r\nroKiEvGRW1yx4pLZRoHPZkpKMn788UeJIUOGyP7elgDWOxiVFhZ1jlAQwMjVq3HTLXfg+htuxfx5\r\n86Wu049tMGHKDLz11ptIz8nHZx++g6/b/IydO3fh5eefRqffeiMlNQXvv/cu2v74M5557iXMmDEd\r\ndz/4OJYtW4IHH34Uo8ZPQnHxbpmeL2GhR8JXWFyM8PFjMWDIKJSUlUkdl5+zYqWmEigJJFjZ6jAR\r\nOgszHMLi/rVwg3lVWFyCIgGuzGQK18EPcq5mQvL3008/YejQoZYA1k8YlRYWdY5QNQH/68l/4667\r\n7hWk6wD2lBXj/vsfwGtvfYTb77gTg0ZPQtymDfj0k08xeOR4REYsw4cffYSRo0bjgQcfwoDBw9Cr\r\nb3/ECptnX31XphcmyNybb76DdZsS5b4vKSsvl2SP57Zw3my079wDu8sc3R5RKFqxUhupSgL9E8H6\r\nDjdRrR9wT/odiknAD+1E4ocCvH/FJaUo3l0a0L3ks8rl69wEkGW+qS6wOGwwKi0s6hyhIoCcX2r1\r\n6tVye8mCmfjymzZyO25DFN754FOEhU3A1y2+QteefTB65Eh8/tknGBU2Fb26dUGLVt9h9PgpKC0p\r\nxAsvPI/ho8dgQP9+eOfNN7Fy7QaZji/hl29eYSHyC/MRHj4RnX/rg6Ldu2WT8H7xBWzFSm2lKgFU\r\nsPNMWhw68FkrKS2VS3IigOdOGMkl70j+fv7ZEsB6DKPSwqLOESoCqEtxUYEclOHIQeTmcVb6PKSk\r\npklNTk4W0jMy5DaFi7PnFxbI7eLiImGfh/T0NOTl50udP2Evv+JSEr4CJG3ZguzcHBQI8ldaXuYY\r\nWLESIjGTQDdYMXtPRF5fYCIJFg0HvIecjJ8E8KB4xkw2OigkgB06/CTwM4YPH2YJYP2EUWlhUeeo\r\nCwKoRFSHFVt1KzxK+Z49KBOkjyOA6RW0YqWuxEz8jhaYyaVF3YMlnSSAArJ0NdjooJAA0vtHAjhs\r\nmCWA9RRGpYVFnaMuCaAVK0eqmMmRhUXdgVJSxjLYad0w2eigsCXFEsB6D6PSwqLOYQmgFSsNW1Rl\r\n7yYAFkcWKCx/a0oAbRNwvYVRaWFR57AE0IoVK1YahugEMBBJT08XBPBnLw/gscdaAljPYFRaWNQ5\r\nLAG0YsWKlYYhNSGAJH8OAVTzAFoCWM9gVFpY1DksAbRixYqVhiG1I4DWA1hPYVRaWNQ5QkUA95Tv\r\nQVFRMQoq1uPlr4Jao1fXV6fzpQ9WF4ytSReMra7zpQ9U50sfrC4YW5MuGFuTLhhbky4YW5MuGFuT\r\nLhjb6nS+9P50wdiadMHYmnTB2Jp0wdhWp/Ol96cLxtakC8a2Op0vvdQVeus5q4FJgieAnAbGIYDD\r\nhw+vIIB2JZB6BqPSwqLOEQoCWFZWhoL8goqpWBy4F4h365SdL32gumBsTbpgbE26YGxNumBsTbpg\r\nbE26YGxNumBsTbpgbE26YGxNumBsTbpgbE26YGxNumBsTbpgbE26YGxNumBsTbpgbE26YGxNumBs\r\nTTqjnstb5heitKxqWVs7Aqg8gJYA1jMYlRYWdY5QEMC8wmK76oYVK1ashEj27z+AfFGuuqU2BNA2\r\nAddbGJUWFnWO0BDAEhw44Ew7YJK4+CSkpKVX7FmxYsWKFX/C1WT4Ye2W2hFAOwiknsKotLCoc4SO\r\nAFb1AGbn5GDkmAmYNmsexoZNxozZ8+Ui5UpK9+zHXvGlS9m77wDKBWoiZXv2oaR8n/j1pO1LdKLK\r\nqbL2uI65b78nfL/YVmmq86Tsq0zDY7u73Fl83YqVhiu1e37ZFWTq1GkYM2Ysxo4di127dlWEWAlW\r\n6oYAWg9gPYVRaWFR5wgFAcwtKDYSwHHhU9Dhl27YvHUbVqxcgy+/aY8tW7dXhAKRCVnYkVMit5N2\r\n5mFjcp7c3ltBwkgKKfsF4TrgIlc6IZsRkYzxK1OxMjELyxNysUeEkbypGPsqbAtK9qL16CT8Ot05\r\nh7gduWg1KhbT1+fK/fHLUvHZ8ATEpjvrGH8zIgkjlydjVUI+vh6ZgCnRWRi5KBmfj4jHzlzmQ8UR\r\nxLnNX5uK3Xv3exFIKw1LSOD5fOqP2r69e7FzV7IkN/zNLypGcXExMrJyZLh+t/fuKUdaeoZsvkvN\r\nyBTPr/PxsGXbNpTu3o3VUdHioyhX2Oje8INyLWyu75qZmYn8fGdNbOq5ZvZmcT6FhUVIF+lRsnPy\r\nkFdQJLeTtmxHwpatleeQKc5Jd8SnpqXLdE3ieTsEqSgqQmqqc07p4vzzxfHS0lKxbYe4XnE+vKay\r\n8nJ5/Xv37pN2JolauxY//9wBMTExCA8PR+/evStCai6JiUkiD3YgIyMDq1ZFIi5xs9Tv2rkTsQlJ\r\n4l4dEPlehvjNjr6gIA+7xLXECaKzLmaTKCeq/ygMtezf7zuPtm3fjnI/eaikLgig7QNYb2FUWljU\r\nOeqSAE6aOgu7UlLRf/BwQQBXI2JlJMLnrMWXI7ai85RtGLY4TZA+p5BbvSkHY1ak4OfwzZiyJhV9\r\nZm9H2/GJmLI6UxCxeHw/NhF5pU7BuTI+F1+NSMDoiAx0n7kdHw6Iw4BFGRg0LwXPdI3H9OgMtJuw\r\nFd1m7cLQBeloPS4J27IKMGd1hoiTjm4Tt2FHvnMdkyIyMXBJhtxuNWYrFm/KR6+FqXL/00GxmBWT\r\ng36zk9FzdgreH5CAHydvw7w1mQiPysTGbfkIF2kOmLcD/edsF+ecijZjtwhb6/loaLJ06RIkbN6C\r\nsIlTMGfeYqSlpmLm7PlITc/CwoVLsFw8uyPHTMT2XSmYMnUGYuKSkJ+XKwjjDqSnpWHh4uXIykjH\r\nmAmTsLusXKQzGTsFEVmzeg1Gjp2IBQvmY+zEGViweDHGh03G+g0xIv25gnyzRgcAAEjgSURBVGTt\r\nwto1UViyIgqbNsZg9vxF2Lx5KyJWrUFObi4mT52OxKTNmCDiZmZmYaxIf9vOFKxevRpDRk0QaU/A\r\n/MURSE5JwZARY5CSloFFS1YgLiFRxJmMyTPmYP369eL8o0S6WzB/4TLsEMdcvFTEEcRz2uwFiFwd\r\nhWGjxiAmNgHR0dGYuXApMsW1TJw4TdqME8dMSc/EvPkLBQHbVpFj3jJgwAB0794d02fMlPskjX37\r\n9ZPbNRUS8uzsbEyZNhPpgtyujRL5FLFahk2dMl3k9URJkkqK8vHzrz1QUrYH8+fMwaQZCzBjxgyE\r\nT5qO5LQsaR9KOSjKuhTxfOwWpD5DkPbY2Hhxr/KwTXzobtu+A6PGTUBGdq4oV+MlYU9M2iLyIxOJ\r\nCQkYLz6K0zKzsXFTrEgjDcUlu+V6ve4uNHVDAO0o4HoKo9LCos5Rl03Ac+cvwVxRmcyatxDrY2Ix\r\nasw4jJsbh19nZaLPtO34ZOhmRG5xvBmLBdH7eEgsfpq6HVtSC9BqdBImCnL1yZBE9Jm5C12m7cDG\r\ndMdb+Muk7fhoWCJ+nrQN7QSZ6yeIXscpyeg8ORntJ+zAgFnbMWJ5OjrSbnASFmzMxfx1KZi8Mg1d\r\nZu5EhwnbEJNShLnR2fhgaDyS88uwPaMErUYmSVLab3EqsgrLsUEQvLf7xCJmVyF+DkvEN4JU/hC2\r\nFYPm7sT4Vekizm683nsT+iwQxx6fhFZjdyA8MhufDk3SmomtNARZMH++eE4XYe6CJYIMLsWcOfPQ\r\ntXtfrF2/CdNnzhZEMAMrVqzAjFnzJLGYNH2uICc5gnilIULoozfESg/gBEGaCoqKMX/ePERGrcPM\r\nWXMxRdjGigo/Jm4zUlKSMXpMGKZNm47e/QcjZmOCIIcLkbhlO7ZuER8/M+ZiljgGvW9FhflYtGy5\r\nIBz7ET55pkgjTsSdgKkzZmPmnAUImzQDkyZPxew58yVJ6jdoGOaId27l6vXYkpSEQUNHYYa4jvFh\r\nk9Bn4EhBzmahV/9hmCXsN8UnITJyJXr2G4x5CxaLc5yJBYuWIV6QlKmzFyJ51y6s27AJpbtLMFmQ\r\nrQRBYqaJ+DuSU6Wnkp5M+hEppaWlgmB0xMqVK6UHkOUJPYA9e/WS4bUR5lfk6rVye9GipSgs3o0D\r\n+/di+qw54ppnITMnX+RTAUZPmCrOfymmTZ+FxctXIzwsHBOnzMT25Lrpe7x4yTJB2lcJkjwFI0aN\r\nE/k3W5B1cY/iEzFZ3IvFS5dhyMgxQjdL5MV0rIpcjTVr14vnZy42xiVi5KixmCTOf+myFVi6fEVF\r\nqh6pCwJom4DrLYxKC4s6RygIYL4PAshm25WRa/FTp26iAhqOnaJSScsrx6othYhKysW8mBys316A\r\nxNQiRCbkIHp7vmyGXRibhQUx2Ri4cBfiU4uxeksBVm/Ow7rt4mta2MYLQjZ8cTKSMooxeVUGhixM\r\nxsokYSPs5q7NwqrNuRi2cCfmiPQjk/KRnOcUmPzKHiniLYrPxRphE7YyA92m7cTiTTlYEp+NNYl5\r\nGLwoGYmCaC4V++OXJmO2II9p2SUYPH8H0gr3ICJOpL0sBXHJRdi4qwjTo7KwNacMqxNz0XbcTrQJ\r\n2y7OI18ez0rDkc2bN2P7jl3IzMpCTm4Odu7chQ0b48TvTun9Y7MtK8/8gkJs374D23emoKSkBBmZ\r\nWeK3COs3bEROTjaWR0QiNS1NevW2bN8l003aukM2GxcVl0iP1pZtO2STckxsnCSREStXyWMnxCcg\r\nLUMcPycHG2MTkJ+fL5tjS4qLsHTFSqRnZiMhIUk2P6t0kwTRS9zMZuuDSEtLl8dYL4gbzzNOkJGs\r\n7FwRJ1E2o27ZulV6BvNEuuvE+RYWForjxCEvLw/R69dLb1WcOIeMzBxki3wo37MXGRmZIv5m8Zsu\r\n8mEVtopr2rJ1G3bsTK5sRiYB7Nz5FzkTwOw5c9C162+C4IyW+VQbKS8rFR+N47E6aj0KCvKxYPEy\r\n8Q7vR6K4rpmz52GqIK1pWXkoFGFLV0Zh5sxZiIp2vJ0k2DNmzhF5VDfe+JRdOzBqwhRsTkzC6PET\r\nES9+l0eswhzxATFn/iJErFolvcExsfHiwyESO7Zvl97dKdNnYN6iJRgrSDk/GsLF79ZdaRWpeqRu\r\nCKAdBFJPYVRaWNQ56pIAKh/Ynr17BRmsGk7JLiwTxC4fObvNE5/qkpojKrcd+XLAR7DinEsovXJV\r\n01qRkI/skuDPzYqVwyu1ey84sOvrVt+gd58+GDRoENq0aVsRUjth/z4OJGP/xz1792DPnj2S6O4W\r\nBIikkwSWwrKHYTwPgsSVfRdzBbGtK4lavUaQu0S5nZeXj1JB6HPF7759++S5le8pl+ewW+g5Sb5j\r\nlyebjfeIsAJB0DMzM6QnV/VR1sUSwKMKRqWFRZ2jLglgdeKudvxVQ8FXUb5i1K6ys2LlyJPavxP0\r\nKm7esgVbBEh0jnThah3BSdU8LisXRNYw2TOF3tTQ9wG0g0DqKYxKC4s6R6gIoJ0CxYoVK1ZCI+w+\r\nYweBHDUwKi0s6hyhIIC5+UWyPxSbNywsLCwsaoeS4hJZrrrFegCPSBiVFhZ1jpAQwIJi2QeH/V/2\r\n7t1rYWFhYVELcF31PFGuuqU2BND2Aay3MCotLOocoSCAchoY2wRsxYoVKyERDppjueoWSwCPSBiV\r\nFhZ1jpARQMMgkD179soJoDnPGKfUsGLFihUr1UtdDAKx8wDWW1RVnnDCCbjnvgfwVatv0bPvAAwc\r\nOhK/9eyDDz7+DFdfe10V+/qCO+++B+1+6ogBQ0bIiU6/bfMDrrz6Gpx+xhl45vkX8fxLr+B/zz6P\r\nU089zRi/vuHmW2/Diy+/hhfEeT/2+BOSMJnsGipCQwDNK4EkJG7B8FETMHp8OAYMHSUnmqVwPj73\r\nGry1loNAYSmnW6jqiVQDVHaX70V5xfJcFOu1tGLFyqEUTgETyIC5uhkFbAeB1FN4K+66+16ET52J\r\nxO0p2J6aLZDlhY2JW/HLbz1wVuPGXvEON9585z0kbEvGjrRsieTMPGTkleCV19/EdTfciC270rEr\r\nIw9xW3biyquuNqZR39Cley+k5RYhOSsf85dE4M9/+YvRrqGiLglgbFyiXJYqck2UIINJGDlmAram\r\nFKLF8ASMWZEsbfbsdeJxUlmnWDwo1/6lVK4F7FpfV8XhursqpKBwLzpMShJbB73W410ck4HkvN0y\r\nzS3pBUgvLJUElLI0Nh2ZRVWvx4oVK1b8iU7i2PeZwiXi2Bc6afNmWd5wTkKpF7ayzDl4AEuXLUVh\r\nSWllGMVECO00MEcVPDtPP/cCYhK2YltKJjbvTJOEj8SJ29RxO2lHKnak52DCpGk488yz9IQOG047\r\n7XQsXhGJrckZkrjyGhYuWylnaL/hxptwvcDW5EykCCJFknjV1dcY06lv6PRrN2wXZHaLuK6Z8xbj\r\nz3+2BNAt/gggvX4RkasRn5CECeFTsGlbHt4ZmID49N2YujIN345JwOgVaRi8JBmrYrMwfEk6vhiS\r\niNHLk/FjWBJmRqfj+7Gb0WueQxhXxOai3fjNQp+B9hM2o/usnZi2JhNthM2XoxIwbnkavhyZgOid\r\nBTiw/wDGrUjFpl0Fcl3hqWvFPYzOQo9ZOzBsyQ65+sjiWGcdYCtWrFgJSASRi4iIxLbt27Fk+Uq5\r\nNN+KVWvkEntxopzrO3CIXBlmyvRZWL4qClOmzcG6mE1YvHgJxo6fiG07d8k1nhcuWY6krduxcvVa\r\nVHyTVoptAj6q4GzcetsdWB+3uZLwrYtNwg8/dcRDjzyKO+66G2+8/S5mL1gqSRZJ1E5BAtt36OxO\r\n7LDgH5dciuhNiUgS581zpzfw+OOPx+mnn4E//OEPOO+88/Ft6x/Qut1P+Prb1mjatJkxnfqGjiSA\r\nqYIAintiCWCwBDABk6bOQvc+AwUJXINRYyegsGg3FqzPwis9Y9FyWLxcp/drQdy+GJ2EfjO2o82E\r\nneg2IwW9Z+zEjJgcjFqwC6/3j0f32c6STp3CtmDuphwMnrMToyLS0Tl8Cz4eEo9pa3OkZ/GtXnH4\r\ndmwSliflYO/eAwiPFO9KchEmrknDwg1Z6D83GZPX5mL00p2YH5OOOetTZLpWrFixEqjEbIjBhMkz\r\nMXfOHFGuTZQEcMWKCCxdvgpz5y/CooULMXJsOBYtjcCcOQsRvW69XN5v3tz50jEyZny4qMuXYOKk\r\nKYiOia1I1SN1QwDtIJB6ikY49rjjMEo8FPT40cMXtSEO9z3wYBXjZs2aY+K0WdIbSGxM3IbLr7iy\r\nip0CSVjjJk3QrPnZNe53d9JJf5bx2eT8+9//3mhz+RVXSfJK8he7eTuuu/5Go12g+OMf/4im4lpP\r\nOfVUY7iOM844U57fSX/+c5Ww4//0J5lO48ZNBBH9Y5Xw6hAMATz5r38V59EcTQS5ZZ6ZbEz4y8kn\r\ny/vatFkznHjSSUab6nDa6aej+dlnB5RfOuqSAObm5skv5DbtO4iv43mYM28+0nN2o9+sbVgYm4vY\r\nHYXoNWsHEjNLMSc6CwPnJ2NZQj7WbC1AVl45+s3ZLpd+G7M0FdHbnNUFdmWVCv0OxOwqxBBBDucL\r\nMhiXXIwBc3diliB40VvyMWppMgpK90r7ySt3YdLKVIyJSMFakdbc6Gz8NGk7lifmCkKYhrj0qoWs\r\nFStWrPiTHdu2YvqcRSgvK0OEIH9cwzkmJgabt27Hprh4bN2xC5Gr1yI1PQPbt+2Q86SuiIjEmqh1\r\nSNy8Ra7tnJKaiklTpspptNxiCeBRhUa45bbbZd84kj8Su0+/bGEylLj/wYck2Vq0IlJ8ZYThpptv\r\nrWJDD9tnX7bEJEEWV0ZtwBpBKBcuW4U+A4YYiSXBgQ7Dx0yQ+Pd/n5Zk5NMvWgjis0jEj0XEmvUY\r\nOmoc7r73/so4bPrt2qMPwqbMkOfP5t/4rbvkPm0Zn3b0EHJgyJCRY+Q5nHf+BZVp3HbHnRgmbIeP\r\nGY+PP/sS519woRz0wnNeErEaH37yuey30PKb7zF89HgMGTEGV1x5Ff5x6aXo0XcAlq1aKwnzrPmL\r\n8fZ7H0iP4zHHHIPnXngJk6bPxur1sTIPmFd33XNv5XEDQSAE8Lrrb5B9BectXoE14lirojfKPGvb\r\n/md5LW57hRtuvBmdu3bHnIXLxDluQuS6jZgxdyHatPsJF118cRV7Dgz6qeMvGCbygHl54d8uwsV/\r\n/wd+E/nPfIqKce7xz5274NzzzqsS34S6JIBKSATZN+bQy0EUifNlYaokM68MOwWJpOQVlwbUIduK\r\nFStWdNm0cSPyC5y1iGsquTlZiEtw1hNmWaVLKAngzz//ZAlg/UYjfPLFV5Xev/WxSbj08itMhhLH\r\nHXecJFT06Jk8cjffcqscsMCBGExzZ0YudmXmOfsCbD7+pnVb6WXT4/3wYwek5RTKwRs9+vTH4OGj\r\nkZpdKMG4sk+i+GX/vnvuc0ggPW8b4jeLOE7fPgXaZxXsxoixE6TdLbfeLuJzEEhulUEg/33mWdk3\r\nkMedMnMuxoRNkn0ceTzqOv7SVZI69nlMzS6QTeAdhG5Z5Fqk5xZLG/bRo57kmUSRzc28dl4Pm8o3\r\nCwLHc2ez+q2331F57OpQHQF89vkX5f1y8jpbDnLhNfLYvIZFyyPlKGg9DvHO+x/JfFT3xCue2Cdh\r\nfeSxx73i/OUvJ2PB0giZVyTZbEpfuirKyQOh21rRR5TpMB858lqPb0JoCKCdB9CKFStWQiWhmgcw\r\nKysT7du3Q7t2P8hBICzrLQGsd2gkp3ph5c8KfP6SFbI50WUUEOhxWhyxGttEWiRQJCe9+w9C+587\r\nYdrsBTL9pB3OgBKSTj3u923by3MggYvdvEPYZmDcxKnSkzVmwiTp3VPkbvCI0TLOGWeeiQmTp0ky\r\nRlLCcP5y8AfJz0+dfpV2NwlSyjTVOdGDp4771H+fruzXSHLIc+Q+SR3P8977HY/laHEOJDlMn+ls\r\niN+C7r37CZL2G1atjZHk2TnHFBmP5IjHHzB0RKV3kudODyQ9hOr4/uCPAN58y23yHBhGcBAMiSlH\r\naPN8eI483nhBXE888cTKeP995jl5rgxnHtNrx3j0Iq5cu6Hy+tduTPDy7nIEMr2cDFfXs1GQyF79\r\nBor721mmwzSZj7yPL7/2RmVcXwgFAcwtKEJZWbn08llYWFhY1A5lZWXGpuFgCeCBA/uxcOECDBjQ\r\nH9u3b0NCQoIs8011gcVhAj1xI8aGSdLCip9TwPzpT38yG1cDDgoh6SDBYLOtIk/EySefjN969pXH\r\nIFHgoI3LrvB4GnUCSGLyXZt2sumVYTyfQcNGVsRNFwRvjex3xjCeP4nKhoo+gJuStsumVj5o9FbS\r\nhvPpBUIAGb563Sa8+sZb8tzZJMx+bfQAKgLIa6P3TPeQcY5BRQBJkBYuXyW9pAwj2eveu7/MX4bN\r\nWbgUfwlwOhdfBPCY3/0OfQcOdUYIizASswsu/FtlvNvuuEv2z9yZTq9eNv75ryelnoNi5i1eLq+X\r\nGBs+WfbdU/GYL/wAYJq8FyPHhVXeA50A8lrpzeQAIRWX/TDpOWQe8rx+6dq9MswXQkcAy0TBRRJo\r\nYWFhYVFz7EGpJIC1WwvYmX5GdX9xWmhiYzdZAljfwAEgY8MmC0LgEMCwydNx/PHBE8AmTZtKTxyb\r\nO0l2vvr62yo2Z59zLlasXldJEj5v8XVlmCKADFuxZp0czKDHfe6Fl2W6DGc/t+Znn1MZRuKiBoGQ\r\nAN5w081ecQMhgCRvTP+jTz/3ikuQBCkCSBv2BdS9eCR76zgKWRAjej+/bPmNV3zORSjPXeQNPYPs\r\nu6iH+4IvAnj2OedIbx2vh+mSsOrxficI4osvv4p3P/hI9qdU5PBfT/67ksCRIN548y1e8Yj/PfOc\r\nTJc2zMvrb3AG1OgEkNdIr7E7LvsGMoz3kZ5Od7gboSCAsg+gbQK2YsWKlZBIKJqAHQK4vxIUSwDr\r\nIejd4iAIEgl63jgQ4KQajAa9/Y67ZPMoiQObCH31des/ZLgkCcSgYaOkN4t6RQBJxjjS2E1C6XFj\r\nsyzJCQcsnHve+ZVhV151jRcBdA9MCYQAOoRnWyXh0aEIIPOIhOzHjr94hZNgcQAG02daT/77v17h\r\nJFXUkwAuj4yu9F5WB18E8JaK61F5zUE87rgmfNe2ncxj5z4vMo765QAODgrhtfB6uRIJ9W4CyEE+\r\n7rhduvWSxJ7h/QYPq7apO2QE0DAIhB2Zt27dhtj4RKSmqfn2aOd7wIgVK1asHO0SikEglgA2GDSS\r\n/caU943NeJy6xGVUCTarklBxahNd/8g/H68gUk7z7qWXXe4VrtDxl98kSaAtB1Ycd9zxUq8IIEnH\r\nqHHhVR6UBx9+VBIonmNdEECGkcTpTakK3gQwSw5i0cPPv+CCStLEJuoHH37EK/y/Tz8bUgLIkdgk\r\nfwT7AV59TWDL87GfnyRo4jpGijz+o+FlPOWUU7F4xWqH6KVk4aNPv5B6DwF0+kZyxLM7bqcuzvky\r\njw43AdyybTv6DRyKXv2GoHufQYiK3lARQqHHMIReQ5GUM6LXlGYIj2PFihUrNRSnjKr+A9gSwKMK\r\nniZKNoMSDz3ymMlQ4trrb5B94Ehk2A9Neczue8CblJhGnxJduveWJIHHGz1+YuUDoRPAEWMmVBkl\r\nLAmgJFh1RwBJft1Nz4SbALb6ro1XuE4AORn1/Q8+7BUeagJ4z733y/vEvN6UuE2uduKOawIHpTA9\r\nnsv4SVPl/I9uG85ryHPktZAAvvP+h1LvJoBvvv1elbjqfOsDAdwUl4BFS5cjau06xGyKxfARY+U8\r\ngJ0nbcao5c7EzsGJbyJXXr4ffWZvr9jzyLot2YhPzUfBbmdeQI+Y08rMK8G67bkVe1asWLESuLAc\r\nzMjM9FlSrV4dheIACJwlgEcVGuFvF10sB22w0mdfQM7F56sfoPQiiQpeTX1y1z33ST0nhCYJIykh\r\nYXniqf9UiUtv38RpM2U8eqI4D50Kqw8EkP0TTcvb1TcCyPPnoBeV148/8VSVuJwf8JHH/imXweMk\r\nz9S99+HH8vx5njwPTtLtjnftdTfI9Z6ZNu0efvSfUu8mgG/UcwIYG5+ABYuWImL1GiQkbUbYxMlY\r\nE5+NN/rGISW/HBGxOWg9TthszMHkNSlYvzkb09dkoMOEzZi9PgO/TN6CpfFZ6DI1CeMjnSbkhJ1F\r\n+Dl8M5Yn5IrwzRixNAWRifn4cXwSvhi5BQs35eDH8CRsyS6VS8GFRSRjwKytGLJoOyJi0jByxU7M\r\nXZuBKVE7ZXpTIneh3+xERCRko8+MGEyOSsHY5Tuxz702kxUrVqwIOXjwANau24D09HSsWx+DOXMX\r\niA/ceCwRH7tc/ahP/0GIT9oi9RuEfv78JdgYl4jFS5di1Ngw7EhOw8zZ8xAZFY3ktHS5bJxa/1yJ\r\nJYBHFZyN73/4ETvScipHsnbr3Q8XXHihHFDAcHqGSHw4WpY2rOQ5uTHJEcM51cjUmfMkgSTZ4Rx8\r\nbhL52ONPyD5rJuJy+AlguiCA0fI69bhEfSOAiowxTZ5Tt159veKxmZ6TULMvHs+JcxNSf+NNt1T2\r\nHWSaJIR6PKJD564yTYZzOh0O7qG+wRFAURhOnzUXQ0eOk4Udvc2lovBavCEH7/dPQMshcViVWIgW\r\nIxLRYtxmjF+UIpeC6zR5F7pO24GFiQUYtyhZEMa1aC/IHqXjhG1YtqUQw+cmY2JkNn4N34YPB3NJ\r\nuXx8PXIzXusVixYj12NubJZcCm5qVBYWC4K5SBDD0Ut2CMK5DV2mbcfmrN3IzC3FoEW7sCQmF7Ni\r\n8jBm6S5kFJYLApiC3SKuFStWrJhkzZooTBF17bSp0+WAxDkLFmPewkVYLcq5ufMWYqHYHibKvVmz\r\nF2DajHlYI/Qb45Iwd/5CrIxci7HjwjFdhM2YMVuWjW6xBPCogrPBkamcM44TCJPgkVxERm/EKFFx\r\ncpAIV/4gKVBhHPV6k2sUKed+IzlIrPAe9ew3UDYZkyA99+LLiIhaL/WcKoYjj0/Q5qerHwRwXYMg\r\ngMSHn34u85H3g6S61fdt5MocRNsfO1QSeV4350FkHObpwGEj5T0mCaQX8cNPPsPfLr5Y9tls0/7n\r\nyoE8PC5XQVHHa2gEMC09AzMFAWz1fXvMmDUH4ZMmY1dmMTpNTBQkKwPLBClrNyEBK7cUYKQgeh3C\r\nN2PKmkzMj8lCUkoJfgxPwPJ4QfImJWFxfKZMc/22Ivwk9lcm5OCXSZsxNiIVKzbloXN4EkYs2YVZ\r\n0Zn4ZWoSMovFeYqP6gnLd2DD9gKER+zAyMVb5TJxCzdkIC1vN6K2ZCMsYid+CovDiGXJ6DxpE5Zs\r\nSsF4obNixYoVX5Kya7ucrq0gvwAzZs/Hzp07EbFqNdaui8Gq1VGIi4/H3DkLsW37TmzcFIe8vHxn\r\njeDFy6T3cMbsedi6bQfCJ05GenZ+RaoesQTwqIJnp3nzszF05FhZwRMkLazMCW6TUJA8kOw8/oQz\r\nt5wO9inr2qO3JCa0pTeQhIxzxpEcyfgibNHyVbjMtdoIPZBqBCnnJTQRQMYnOFefmwByRRCGScJT\r\nhQDeLvUMJ1HUCSCnSeG1MswfAeRk1OwTR4JjIoAcQMI0eJ33P1SVAKpjLF8dOAHkoArmF/Oe5Esn\r\ngJysm+Scc/2pvGXfS31yaMb9/of2XmmSIHLZOK5QouyYJ+zXWXmP03LkNC9/+tMJlfE4dyEXEKcN\r\n75GpD6A6Xz4v/QcPP6wEkEL9NlHQFRUVa/1i9OYOU1Or0rnTVHpTHF0OCAvHhqukFJeb+v85WBS9\r\nA4MXbUNB2T4ZkldUiowCZ6k4K1asWDHJmjWrkZ6ZVbEnyhJBtvYfNJWBvlsSMjPTsWrN2oo9b7EE\r\n8KiCt4KTLj//0ivSG8g1bhO2JkuPEOeNU6tN+BrhSzD+x599IckUyQKJBpcaIzGI37pTLvH2939c\r\nUiUe16DlsnEkmBwF7CaAHJiiiCnX6dUJ4FVXXyNXpWAYPVjK46XApeDixXUwnETHiwD+7xl5bgzj\r\nIBCuLqLHJUgAx4ZPkcSI51h1FPCFiIqJl2nwmh94yHsUMKeBUcegFzRQAsg+kmqJttkLlkovnB5+\r\nVuMm+K1XX0mySZ5py/MjQYvemICW335v7MvJkc49+gxAjCCLTJvxCMbjmr5c5s09RQwJINcNpj3v\r\n0VvvvO8VTqjzJSnlCiiHhAAWkABWR8rqp7CQtGLFipXaC8sS00ermQT6K3v44WwJ4FEDo1KSHhIF\r\nTqpMAsX1cwMlLgSnkuFAkC9atMK3bX6Q68+yydg09QhBEsUVLG67405cdsWVVcjDqaedhltvv1Pi\r\nRnFOxx/vTB9DcN5Ckj6G8Vz/cvLJXnG5Cgn1nJuQdjq5OePMs+QxbxNxOWDC9ICyHyQHuUg7cY7n\r\nnX+BVzhJFvvXMX2C6yTr4WeeVf0xTODgHM6vyLjXXHudXJHEbcNzu+a66/HmO++BaxC3aPUdnn/x\r\nZenpc9vqYP7ymthsT48mSR/jXfi3i4z2PDbPwcmDO41TBenne8mll1UJdyMUBLCopAQlu3c7RR0L\r\nHRdYECkEqwvG1qRTevHPS19py3MW/710AsrOlz5QXTC2Jl0wtiZdMLYmXTC2Jl0wtiZdMLYmXTC2\r\nJl0wtiZdMLYmXTC2Jl0wtiZdMLYmXTC2Jl0wtiZdMLYmnU9bUW5U0WlQOl96bjMRt07qhZTsLkVR\r\n8W65rYslgEckjEoLizpHKAggC5rComLk5uUjN98B+7xYWFhYWAQPlqeKDOpiCeARCaPSwqLOEQoC\r\nqITFlftrVhZCGoLVBWNr0gVja9IFY2vSBWNr0gVja9IFY2vSBWNr0gVja9IFY2vSBWNr0gVja9IF\r\nY2vSBWNr0gVja9IFY2vSBWNr0gVja9IFY2vSBWNr0gVjy+39/HWKU6NYAnhEwqi0sKhzhJIAWrFi\r\nxYqVuhNLAI9IGJUWFnUOSwCtWLFipWGIJYBHJIxKC4s6hyWAVqxYsdIwxBLAIxJGpYVFnSPUBJCF\r\nzr59+7B/v1PgWLFixYqV0IglgEckGqFJ02Zympb3P/oU7330SbXgChFPP/dCUDfzlttux0effiHj\r\ncu49NaUJ03jm+RelnqtbXHfDjVXiKpxwgmflEIuGj1ASQE5dUFBUUllIFRQVo3zPnopQK1asWLFS\r\nG7EE8IhEI9x48y1ysmdO8MuJfqtDSla+XJnixBO9Jwv2h6+/a43UnEKkZBdg4rRZcr1a6k866c+Y\r\ns3CpTJPhH2nLjylwBYxPPv9KpuEOs2i4CAUB5OjfouISlJbtQUZmDhYuW4nIqPUoFgVVfnERyspJ\r\nAmlVdVoDK1asWLESmFgCeESikZycmCt9kAQmbEuWq1lwZQkT+SNqQgC//PpbGZerYYwLn2IggAVG\r\nAnjn3fdiyoy5SBXEkcvM6WEWDRuhIIDle/aieHcZkrZsx/CR4xC9fpNcanD46AkoKClBfmEJDhz0\r\nLM9mxYoVK1aCF0sAj0h4E8CknWno1W8g3vvwY3z06edGfPL5l3juhZeCupkkgFxqbKuLAP7f/x0r\r\n02Lz8MeffYnrb7jJKx6XFEvOzJdLqXGpMT3MomEjFASwqKQUpeV7MXJMGGLjk1C2Zx+y8/KwcPFy\r\nLFyyAiViv3yvez1eK1asWLESjFgCeETCmwDS+/foP/9lMgwYZ57VWC4FxiXT1Jq+X7b8RnoA3QTQ\r\nF7hUGckhCSCJ4/bUbHTp3kvq/+BaJ1jHyX/9q1zOjMdv1rx5lTWFdbAfIh9IgkuqUcdl2/5xyaU4\r\n5ZRTq9hXB57bWeLaudYxl2I77fQzjHYSwpbnxqXx9OXxjjvueLkEH9M45dTAzoHL5NGeOP2MqmsZ\r\nK/AaeSxer54vJ554olzGLdBj8ni055rQXMLv5JP/arSrDiEhgMW7UVKyG6PGhGPz1u3Ysn0n1m/c\r\nJMhgIiZNm4XSvQdsX0ArVqxYqaVYAnhEoioB/NeT/zYZVotzzzsfnbp0w4rV0YhJ2IK1GxMwclwY\r\nbrr5Vnz+1dey+ddNAP/0pz/hl996IHzqTNk38N//fVrqr7/hRkyYNA1rNsQicXuKPLdVa2MwYfJ0\r\n9Oo/SPYL1I9NQvLDTx0xb/FyrItNwob4LYiM3ohR4yfKNH9vWEf3i5atMGn6bHnsBx9+FE/8+z9Y\r\nuioKGxO2ymbEBx56pEocX7jvgQcxYMhwce3rxLE3Y33cZiyJWIOuPfrINXTd9lyfuN+gYfLYw8eM\r\nl0Tqvgcekte3blOiPP+Fy1bJfGMzuTs+0bRZM7Rt/7M410hsEMfjcXn+XXv2weVXXFXF/qprrsVY\r\nkffhIp87/vobTvrzn/HCS69g+pwFlXm2UFz3l19/I/K36jFJjH/t1guLVkRifYV99KYEmedtf+wg\r\nCbc7jj+EggAWl5TJZuAJk2Zg7bpN4nc6lorzmz57Ptau3yTj7Nu7r8LaihUrVqzURCwBPCIRGg8g\r\nCRj78u1Mz8GWXenS27crIxdpOYWIionDjLkLJZFzE8CTTjoJs+YvEbZ5sm/hh598JvUPPvyI7BfI\r\ntNgvkeB2Wm4RVkXH4NRTT6s8NonTijXrZTMxvYU703OxUxyb+zwPxiPhIdlUcYi+A4fKvoUkpoOH\r\nj8aa9bFye7Ow37wzTZI63d6E3//+9/iq1bfy/Hgseip5bIL7PIdoQeiefvZ5r3innX66JLS8bpJl\r\nnh/vAftBMt+2pTjnzfgkiswnPf5FF18s8nSRHLjDc2a+y2MKe8aJFGTo3vu9z//Ou++RaTJ9kjY2\r\nqfMcU7MLZZ4xjGA6P3fqgmOO8cSlR3VxxGp5HF4j05DH1I4/ecYcNGna1OuY/hAKArhv/wHkFxYj\r\nv6AIYydMRpgggGME6Z+3aDnK9+5HgQizYsWKFSu1E0sAj0h4E0ASnx59BuDt9z4wTgHDqWLe/eAj\r\nL28Pm2Tp/SIZUd66kWPD8NmXLfFbjz7YlLRdEktngIk3ATxREJtps+fLcBIJ9j1U50TvWNSGOI8H\r\nMHqj1PUZOAR//ovjAaRXamXUBkksSV5IfH7q9Cs+b/E1xoRNFvHSZFwSo29a/1B5zkTPfgMlAeJ5\r\n8Rg8vnOOGZi3ZEVATZuvvPamtOdxeHx601p+8z2+b9teeuYUqaJX8e5776uMd9ppp2PZqrUyv+O3\r\n7pI29JiSeLG5nGSKOp4XCd2nX3xVGfd4QWRHiPylnvFXC+L6Y4fO+Orrb+TxGY/XsnjFajRvfnZl\r\nvDvuvFsei2nGbdkpbUgiSWB/+LGD9LaqZ2BdbKLMWxWXA3BI8hhOwv5dm3ay3+Yvv/WU3kAekwS+\r\n3U8dK+NUh1AQQEppWbmcAob9/1LTs5CTm4dysZ0nSKGdE9CKFStWai+WAB6R8BDAxO3OKOAtgtDQ\r\ny+N4tLxBksfK/tbbbq9MhHP3keSRHJAMdfilq9eNfv6lVyqJR6AEkP3pjj32OKcPYIrjWWMfQNWP\r\nTaXduWuPSiIUsWa9nNJGhfEYJEa8HobT03bNdddXhusEkDbDRo/HzbfehvsffAhPPPWfSjtfaNy4\r\niSRZW3ZlyPMfPGK07B+nwtmXb/qchQ4hE8dhk7byQuoEkPlGL+Hd995fGZd9EEeMnSDTZXweh/0T\r\nGfbIY/+U8Qg2NdMDquKd1bixQx5FPObZ+4K0qzCdADLd0RMm4XStnyIH4zCM4DEf/efjUk+yPXvB\r\nEhmHefXAw95N4y++8po8/whBxIeOHFuled4XQkUAKZwAuri4BIVEUZGw3S1H/wIHxJ8dA2zFihUr\r\ntRFLAI9IVCWArOh9TQNjIoBvvP2eJDgkJGxGJfFRYcSxxx6LsCkzZLqBEkAFNn/KY4vzcY8Cbn72\r\n2ZL08biM+/FnX3iFE42bNJF98WhDokjvnApTBJAEjN63Sy673CtudfjP/56R58347H939TVV+/qx\r\nPyXDCXrdbrrlVqnXCSDzzjTC+Z777peEjXFJyu66x/Eg/ty5i8wPEuNBw0dVicd+fcwPpjt8zITK\r\nSbcVAWR6PO7jTzzlFe/ss8+RHlSG0aOqmq1POPFEcY8WVF7r1Fnz8Na77+NaQabZl5EDSngvThXX\r\ndMIJJ1QOqKkOoSSAvsVSPytWrFiprVgCeETCuwm4+mlgvsAHH3/q1bTIAQAkUiQIHFTBJkoVpvBj\r\nx18qbAIngPQC9hvsIYAcLKLCiDvvukcSVp537OYduPmW27zCFdjXj2mQMA0ZMaaSoCgCyGOzafn4\r\n44+vEtcf2rT7Scant43XQKLktmlOUhW9sZKkvvzaG1JfSQDpHRT6F15+tUrcpk2byeZtFZeeVOo5\r\nsIX7JOJTZs7FO+9/WNE8/4lsuu/SvbfME4ZzYuRTTjlFxlMEkOnFJGyVBE4/HvslLot0zon36dnn\r\nX6oMY7M0+/2pdJmX9PouWBohnxeSxdPP8DPq2YBDQwCtWLFixUptxRLAIxLeBJBkKNhBIM5gAnqk\r\nMjFqXLjxJn9VMRG0exBIbQjgI489LuOx/x1Ho3Kggh6uwCZpxqctR4mqYysCSDLDpuZjAvRcKbBJ\r\n2vHEZco+j3rTtMJfBflavMLpC8jjKC+lIoDU87w4AtkUV/Uj5DHodaO3bbIg2YyjvLVpOUVysI2D\r\nIiRn5cvrImGL3phQ2V9TJ4BssuU0LvrxOLCGAz2cc/ImgH/5y1/wa7eeMj49qTwu06Gtk4eZMu4T\r\nTwU+gtwSQCtWrFhpGLK7rFyUw5YAHmGoSgCDnQbG493LkE29Jk/at23aOTYhJIAc5cpzJmLit+Dq\r\na671Clf4rWffSpJCgqrmwFMEkOjZd0CVeNVBv25O36KuSQf77XFqGMeLlyVJHPVuD6Dy7umgR016\r\n5HY6NvQe0nvJY/GYJF/hU2ZKz5/upZXrKn/yGT4SZPPNd97HX04+WabnRQAFMdQHeRD+CKACnxXe\r\nS3oeOXWMvG8iD9hEzXNkU/pll19RJZ4JwRBADvQo2R1Y4WPFihUrVkIrXG+dJDAQUQTwIFdhkn2x\r\nLQGsp6hKAB9/IjgCyCZhEiESCxIWNVhBx8ChIyUBqkkTMAmGiQBectllkoSoEbj/feY5r3CCfdKm\r\nzpwn02ca7D+nwjwEMFuQxD5e8QIByZzq+8im2mZas7jCTTffUjlAhnjgoYelXu8DyHPgHIbuuJdf\r\ncaUc5MF4tHv4kcekvs+AIRXnnYXuvftXiecLOgEkUaueAL4o9X/4wx+lB5D3VU3zQpLPiaP/9dS/\r\nZZMzr5EkkHn5xtvveqXrC8EQwAMHDiA3Nw9lZc68f5zc2cLCwsKi7sEP8Ny8AjntVmByEPv378Pu\r\n3SUoKSmR27GxsZYA1j9UJYBqMma1SoUvHHOM02R6x113V/bFI7l46dXX9QPI9Nnk6KQfOAEkVP89\r\nNjuyCVIPO/74P8m+e4zH+Bxly0EJus3/nn2u8tyIhypIFOFFAHsETwA5oljlG0nTFy1aeYX/7ve/\r\nQ7defeX5sZ8g++OdUbFSh04ACW5zBRM9fotW30mPKcM51Qsni6ae/fx43tRzTkR30/fHn38p+zpy\r\nUu6nn3tBEmnqa0oAef9mz18iR/nyPG7RBgAR7PM5d9EyGY/n9cHHzlyO1YGDg+Lj4ysKjOqFU7oU\r\nFxejoLBIzv3HOf4sLCwsLOoO+aK8LSwiieN8CoFLQUE+evTojs6dO2PKlClISEgQZb4lgPUM3gSQ\r\nXpy5i5fLOfTGTZxqxHhBtDiFyGVXXCkTOeGEExE2ebqs/JnGmg1xePOd93DFVVfL6VQ46TDDVJ+1\r\nYAggCRQJGsnFtDkLcOttd8j59NR0Kv979nkZpkjYsNHjcO/9D8jm4Pc+/EROQk3CsyMtR5IivZm2\r\nkgAKclkTAshJoNl0rObHi03aLptHuYoJSRI9Y8xPhvHa3njL4xnTCSDzhZ5ENqtyiheu2PHZly3k\r\nQA3G5cjrriItFZdL7HH0M69X5ovIP/bbvOLKq2Rz8KakbfKcOKn0O+9/VBkveALoNAFzaps5guBx\r\nsmjep9kLl+Kp//xPHO9q3HjTLfjm+7bymBxApI9Wrg4cnbxhw4aK4sKKFStWrBwJwiZgyoIFC9C2\r\nbRukpaVh06ZNlTNSWNQbNMINggCyCY/EgBU4K3lJjHyAZIq2+lQwt91xp/TykegwjCSCpJJpcX/i\r\n1JmS6DD++InTvAggJy9mPHr59HnriE8+/1IOZlBEimlwwuLzzj9fhvOB4iTGjK9IJG14PdzneZAM\r\nccJj9/Q0XFKO5Irh3Xr29QoLFGefc64kbkyDx+LxOSJZTbSs8pJNz7r7200AI6LWSzvuq3OX5E/k\r\nCZelc3sHX3z5NRlOO2XL/OY5ONecK+clPPFEzwoiylNLe0707PYckgAuXRlVec7PvuDpA8hVUdgc\r\nTT3DeZ6c3JrXqSbh5jFJevV1hqtD27ZtZUFhxYoVK1aOPMnLy5W/LOtNdYDFYUUjXHf9jXJQAIkH\r\nK/XqQDv2vdMnXSY4KINNgZJACOJC8hIVEy+9gQ8/+k8ZjwSEAzEqCaAgKFwDmJ4phr393odeaXJ9\r\nYXq42H+Q5IMkg56xK6+6utKGhIMDJOYuWi6JkHNsZ4kyrpHLVSxI1PR0CXoXFbF09y8MBk2aNEX7\r\nDp2xev0mee28boKkiCSPK6ewuVOPowggbUim2G+OnjSSR5JSej2pD5sy3etadXDqFU7DQjvay2sW\r\necQ1ejt36VZlWhaSdA6WiduyQ66qwj58evgpp54qV0AhqeO9oHdVD7/rnnvlvWIY7wWPx+vkNdPr\r\n+/0PP1au0BIomC+ffvopxo0bh7FjxxoxZsyYGut86W18Gz8QnS+9jR+6+NwODw+TzYQEy4IxY0bL\r\nX6XTcWSE8/p9g+F6/LCwMJkmwyZNmiR1/HVsR8tw7/S9j2+KryOYcF9Q16TiT548GVOnTpW/n3zy\r\nSZU60KJeoJFsTuXITTYhXn5F9aAdm385wMKVmPQiPfb4E4L0fCybEJXX7cQTT5TxSGZ0Txz7p3Ed\r\nYTYXM+z0ij5yOtgEyUmLSaReef1N2QysN+UqcOm2O+66B6++8ZZsSv7fM89VaebUQVLIYxKcr89k\r\nEwzOOfc8PPavJ2UfPQ4QefjRx+TKHCZbki1FAOlBY5Mq9ZxM+rU335ZEmITalMc6mN/33vcAXn/r\r\nHZnnJG2+psPhPeDAEt4HTgHDlVb08N/97veSFDKc94OrkejhBPtd3nDTzXjuxZfl8d4U1/nYv56Q\r\nRN1ta2FhYWFhYVFPwdGdJ510khzVGSwYj/H//Oc/V4KEheTsOMH2CZJL6vVjKJ0C91UYSQqXEtPD\r\nnTSPlV8QMl2RPtNz2zGufmxCnadupyCPe5w4rgCPwWupKVR6zvkpHCfTdR+X58km7OWro6X3jh40\r\nDpzh9fF8+SuvVcSnrUrfBHd++77mqvfZlId/0sJNx6bueNfxeK3ue1odeGwFpmnhH7zPbpjCdZ3S\r\n+/rV4UtXv+F9vu7zNoVZhA7e98IDk+2hRKjPQU+vrq9Ppc9f93HdOl96k07Xu3X+wnV9baGX+aY6\r\noTbQ62J/9WUgqC4d/+GeMG87j6053J3OoUGjSy65BP/4xz8aHC65xIEp7B//+HsFTGEOnPiXaDDb\r\nmeHkmYrn/q1q6zkGfy+++GLcfMutlat80AvI+fsuvPACGcexc2CK751+YHDSqh6B2vmCJ/7f8fe/\r\ne4PXrXDRRRfhb3/7m8SFF154WHDBBRdInC/IuBsqzGRj2lc6tR0o3GkEh+DiBmJb83M59FB5Z3F4\r\nYLoP+v2pDzCdqzs8kF8F075bp/QmnQ5d72vbbWtCIDa1han8JPyFucGy/qKL/ibK/4sqcLFX/eCu\r\nSwh3vedd/zlh3rbB1I/eaTvn4JyH0uv1mZlX+NLrUOek0gvmHOsOvN5G5557Dixqh3POMet9oXnz\r\nZrj66qslAdyyyxm48u4HH6JJk8ZG+4YElRfnnHM2zj7bA7XfvHlzLzRr1kyiadOmlVA6f3pTuAnK\r\nJhBbi0OLJk2aeMFkEwyqS0eFKTt/tm7otjWJr8NffLfOl50/6PY1iV8dVJqhTtcicJjKP5PODV/h\r\nKq6/+NXZ6OG+wDJfrxc8cOoOBXe9EghqE5cINL6y82Wrh5vs9H13mC+dCe50ggXjNTrvvHNhcWhx\r\n9tnNcfU1V2PpyjWVAy7eee998RI1Mdo3RJx77rmGB87R8YVXOm67yaDa96dT23p8E0zx3Xp3uL5v\r\niqv0pjBTWrrOXzxTmC+9Hq5+Tdv6vjvctO/WqTQUTOFqW9fp9gGDlYisSPxXJmc1boYzzmqGM11o\r\n3KT64zVu2hxnMD7RRMQTcYgzBM4SYaY4bjQW53hGk6bCPrBKr0lTHqdpJRhXgftNpZ25Ig2mcjWh\r\nJvGDvm81hDpOoM+LKVzX6en4gimOW6eH6eE6TDZunT87fzamMH/h6tdko/SmMDcCsfMX7g5z76ty\r\n3yF8njrADVN9cqSBzh46gkjCWO9zm+A2deQI3Oav7hhq3Pgsacfygukwj+lccacfKCwBPAzgjfzb\r\n3y7E/Q88gIcffRSPCNAjSL3JvqHCRAIJvQDgr15IBIvq4tckfb3g8lfgEQx3w1e4ad+tq61eD1d6\r\nt05tm/aVTunVtkmntlU8BRVuClNofNaZEmedeToan3lG5X6TCjRt0sQYr4kgbddc1gR3XN8Yt19H\r\nNJG44/omuOLvjXH6GU2Nx+c2idiVF5yJO/5xBm7/+xm4reKXuOPiM3DVeWcJclf1mApNRaF7mjiv\r\ni5s3xS3nnY2rziF5bIIz/RCsJgIXndMMd1x0Hm7/27m4/fzmuP2CClx4Nm4VuubVEN7awJQX1cFk\r\nr6fjDqsJ9HT0dJXODV9hSqfCq4Nu697W4dbr+2pbD9fh1vuy13W6jQ63rRuBplMfoMp9BXe9QLDO\r\nMNUlRwpYx7PrztNPP43bb79dNok/+eSTuPPOOyQef/xx2Tx+7bXX4j//+TeuuuoqYfs/mS9sPn71\r\n1Vdw880347777sVZopy8++67cOmll9SYO1gCeBihmDxRGxZfX+GPAOrbpsJCh15oKOhhuq3SKb3a\r\n9gV3XHccfd9tVxeoaSEeSDzaVFdhKJ3b1hd8peGGHn7W6afh5mdexVthy/HS8AV4ZsBM3Px5Ozw4\r\najHuGjQfd/RfgLOvvEF+7brjnnp6M4xseybyZv8JqVOOQ9qU45E29USkT/sTtoadhC9eOEWQQEEe\r\nha0et2mz5rjw7MZY+drxyHivEVLfbYSUtxsh7VWxLZD5ciNE/u94adO0medeV16DIHnNxZf455de\r\nhEU3XoaY6y/BqusuQe/LL8XlgjSewXDXuRKnNW6C7vddhaxX7sTOF+/Cri+fxw6B7V89j50tXkDy\r\n6/fg35f/TRDJqnHdqDwXDYGG+9Lr0MN0W7dej2OCO547jq7TbXxBj6ugh/mzOxTQj6+XE4GUGW77\r\nYMsZFUfFc8fXw0x6He4wf7b+oOK5wTBV5qttN0z1SG1xrqhbSZAkqqlnzxEfdayPWTebwivTEVBe\r\nOAXGUfU4w/UwBerZ1//BBx+UK6Tceustggjehnbt2kk88cQTuPHGG9GyZUu8+eab6NKlC7766is8\r\n9dSTuOOOO/DDDz+gdevWGDVqFK677lo51Q+Jo36+9BzSa8jzYxmqH98NSwAt6gy+CCChCgET9ALD\r\nrdfDdTvTttr3Fx4sVHp6uv50elylN227oeLrMNmZUF1ct85kU5c469S/4r5Pvscn60vw1rIMvDJ3\r\nJ27vMBSPROTjnnkZuH1+Ps69+V40E1+47rinnNYMw9ucjqyZf0TyjAuQPPmv2BXeSPz+HzKmHY+s\r\nGSfhrmsb46zGTl9bFa+JIICXntsEm988Fqlfn42d75+EnWI7+bMLsOv9xkh986+If/r/cOk5ovAU\r\ntiqeqthJ8L69/EIk3vAPbLj5EsT97xFseup6xD9yESY9/A+cz3iCCKp4Cqee1RjDH7oOaS/fheTw\r\n4UjdsRXJWxORLH63DeuGjJfvwMtX/w2nNfH2XJoQLMkJFSlSBCdU6TVEqHfEDVOYrtPTUHp92wRf\r\nYe54alvX6+GmfTf0cJWOL7jj6Tp9X23rOjdMdQJhqkdqBUG4uITqkx9/hX9/8iUuuOBvUmeybdy4\r\nMa655mrce+89uO2228R58tybV4arLlokcBz8QhLHd+K8886ThOuVV14R5O0GGef8888T124mkSSJ\r\nn332GR599FFB4q7D+++/j0ceeUQSvw4dOuCBB+7Ht99+i//9779466238Msvv0gCSKLXo0cP6fX7\r\n+OOP0b17N0kiSQzVsXiOjz32GF577VX5+95773ldgxuWAFrUGQIhgPq2L7gLE/e2bqdv6/tunWnb\r\nBLetG7reZO9PZwrXoWx0+LIx6dzQbXSoMP1Xj6N+3dtu6PEUTDaNTzsF93zYGu9FleClRel4duYO\r\n3PLjMNy3tAi3zcrGjbPycc5NggA2dghgZTrilx7AET+cidyZjZARNwgZu9YhOeJ1JE/7K1Kn/BFF\r\n8/+MV/7VDKed4X3cJs3OxiWCACa+fAxyZnVB6vDPkNzpcWQsHIHUSb8gs/8HiP9XI1x2TlM0be66\r\nBvYVvOoCfPnu7YgVBHBy30l4pdc2dAuPRvrSp1A4/+/45PnzxLkJEqfOVYBx6QEcdv/VyPj0GSQv\r\nm4vE957E1tcewrY3HsaOZ29G9it348VrfBPAymvXtt06HW6dyUZBT0Ntu+3d4W5bHbq9gslG17tt\r\nVLhu58vGbe/eVzo33OFuO3e4W6dDD1PbehxfOrVtgr9wd5hpX22b9t3wl5ZJp/bdepOtG6qs1+sB\r\ndx1hqkdqg3PE+Vx+3Y2466lncedTz4jtW6TObcfzfvXVV6UX7pNPPsY333yDVq1ayeZVEjZ67thk\r\n++OPP0ry9dJLL8ntm266ScR1+u7NmzcPnTp1kvE6duyId955B2eeeYbXcZjO3/9+sUzjySefwLXX\r\nXoMPPnhfbj/11FOyaZijj0kCX3/9dUHubsfLL78sCSVt6THkseg1fPzxfwqyei+uvvoqeY4kejff\r\nfJP0GJIkvvbaa2jfvr1fL6AlgBZ1hlARwFDCXwHlqwDzF0fBFFffN4W7oWx0VGdj0uv2JviK694P\r\n1EbXqzC3nR7e5PTTcNML7+G/o1bhnwMW4KEes3DNRz/hpkHLcE2vRbiy53Kcc82tssnVHfeU05pi\r\nVPszkTenETIThiEtbhgyd0YhJzURGQuuQfG84/Di401x2pkiXsWxCUUAN79yDLI73IvMZROQMb0n\r\nkru+hMyJvyKr/6dIfKyR9ADqBJBxm53VFOfccymu6HYvJn/9Jh7vlIKm78Xj3A92YfnCwSia1wRD\r\n21yE005r7BWPOF0Qu5H3Xo3cj55B+oIZ2PHifUj73y1IffpWpD5zO/JfuBsvXfU3aafi6NDTc6cd\r\nqE7t+4KveO64vmxMdkpnCvel92Wnb5vimOIpqHAdJjvCFB5IPMJXXH/h/uDPXoWZwn3FOZTwVc7r\r\nUHWDXkeY6pDagoTrtscexx3/+g9u/9d/cetjT+A8cUy3Dfvdvf32W/j++++lR44E8Msvv8Rtt90q\r\nvXu33HIzvvvuO0nIfv31V3z99ddy/8UXX5Qkj3316I3jCiiUjIwMzJ8/H//5z38EYWtc5XhO9xb2\r\nc+ao+saS1FHHbRI5/hIMZ18/RfC4z/i0J2ijmp0ZRu/l/fffh8GDB0uSSi+gL08kYQmgRZ1DveAm\r\nmAoOt84d5svOl06HL1sdJnu3jQkmu0DjhhJ1UQkEmmYgdk3POA2Xv/A+7hQE8Ma+i3BN17n4+0e/\r\n4opekbjo12U4t3MEml55sySAtGeaKl16AEf/6BDA7M3jkJ26AdnbpiFrzYfInPlXlCw41iGAZ3if\r\nC0ndpec1xfbX/g/ZbxyP3E3LkLNtI3a9fCpyZ/RBzsDPseXRRvjHOaIQdhHA5o2b4ezbLsa5Pe7G\r\n80PexFu9dqDpW0m4pmU61i/phOI5p6Bfq/MEAeRoPs8x6Q2kZ2/0HVej4J2nkTV/JnY9dTvSH74O\r\naY9ej/QnbkPhf+/Bq1dcjNOamvNNXbuCW+e21bfd4UrvL1xBD1fb/uyDQU3TC9Xxa4rDfXzCXZ5w\r\nX9cFUt7ocdS2rvMHt72CCnPb6tv+QCJoqjtqC5Kl575ui/9++Q3++8U3cvtccTy3nSJR9JqRBLZo\r\n0QLXXHONJFkMu/LKK2Wz7DvvvI1OnTqjZcsW0u7ZZ5/FGWecjhtuuAEDBw7E2rVrsX37dqxbt04u\r\njXfTTTeK669KwHhe/CVxZP5wMAg9fPT0XXrppRJsXqae58FmZpJUeg/5e8UVV4h4zcVxr5dzLDIt\r\nNmGzyZgE8Prrr8dDDz2I119/zXoALQ4vTJ5A6kx6QhUaquBwb7tt3FDp+IJu446rwtz7ur17X9eZ\r\ntpWNr31dp/Z1vXvbbecrnjuur3h6mNvOve8Lys5tX2VfoOlpp+Cqj9rh3tX7cfOcQlw9MQsXtZ2A\r\nS6fuwQVjC3HOqFI0u+4+nN3krCppSwL405komn8McqLfR3b0B8iafTKyZp0oCNY5KF7eDC/9qylO\r\nP9P72M3OPkcQwCaCAB6L3BcbIWdMC+TN6IGMxxshd/hXyPvlWWwVBPCyc8XXeHPvY54jCGGzC8/B\r\n39rdifO73IH3wjqi5YRIdJ4+GskzL0Dx3FPx3CONceZZVQnC6U0FAbzlGuS/+CRy1qzCrk6tkdzu\r\na6S0/wbpT/8TRY/ehdcu+zvOaObEdV9vsKjMZ0OYgq/wQI6tbNRxFEx2ut6XXXVwp+HWqX23na7T\r\n95VO6fVf3da9r+vd++547m1l42tf16l9Xe8OV9u+9t06N3ylF0g8t71JZ9pW+wru8l8RolDj7ObN\r\ncMm1N+K5737A8wKXCDJFncmWRI+E74MPPpAEix41FeZcQ3PZt45ePfb/44AMTqisyCO9gewH+MIL\r\nL0jiRRuSL5I6lY4C06YH8a233pYfFmwGZhM0m4//+c9/on37diLtv+P999+TepLPzz//XHomH3ro\r\nIbRp00Z6KklUOQk4849pPvfcs9J29OjRwraVIKjPeF2HG5YAWhwS+CKBbh3hLjCq21b2CircF3Qb\r\n97avMJNO2fvSmfS+4im9/uvWmbZ9hfmCrzhKbwpzhyu47XS9yUbuCzQ7/VRc8cGPuH0FcPWMUlw6\r\nPh/nfzcJF4TvQ9ORu3HG8HI0ue5+nNOUzRuM54l/6unNMaHTmTiw4niUzP89SuY1wm5BBouj7kdx\r\n7HvYt/VtvPqUIIBneZ8XCeBlggCmvX4syl9rhOLnG6HkWRFXoOh/Yvs/jZD61B9x+blNpC3PU49/\r\nTtNmOPeuv+OCznej2S83ofkvt6LPqGY4uPAkDGxxBpqc1RjnVtieLc5XxTtDfMVPuPkGlN99G/Jb\r\nf4fizfEoSkxA0ZYtKJgwHuUP34M3L7kYZ1R4l9QxK49bAdN+MDql18NNOrWvh/kLd+v1X7Xt3lfb\r\nus4Nd7ivbbWvtvVwt42uC2Rb7attE/R4bp3a9hWmhyu9/lvdtslehx5usvWn0+HWVWfj3jbZE94E\r\n0FxvhAJsSfjHVVcLXIVmruZYE5xmWPNoYRJEEiqWSZyWhaSQehIw1WxLkPhx/k13fAVOBdOt22+y\r\nmZmDPTitC4kdPYqcEu6NN17HAw88IL15/P3kk09kky4J6J133ol3330Xd911p2yKZj9ARfJ4XJ4b\r\n+wDy15/3j7AE0OKQwRfhCxSMX9s0qoOvwsoNfwWbL6g4OoIJN9mpfVOYW+/LRg/zFU5UZ6OHu+30\r\n/eZnnYG/P/0erh0eh3/0WocLf43AOe/1wDldY3BWh3U45ce1aHzlHThHkCc9LYJetm4tmiJ27F+x\r\nbvjJWDdMYOhJWDvmcqweexViptyE/z7cDGc2dh1X4Nyzm2LcYych5r/HYu1TxyLqCfH7+HFY+9j/\r\nYf2j/4dxd5+E85rzmD4+TDhVy3UXounr1+L6VldhcpfT8f5/zkTTxqJCaC4qDI2oKpwpiF2LKy7H\r\n+ttvxerrr0Xkjddi5Q3XSUTeejNW3XYzHrjwAjQRFYnKK/28Fdy62tr5g4rjRrA2up2+7y/cH0x2\r\nKr4Of2FumGz1fVM6ehy1HQjc6bjjVxdeG4QyrVCjLsmfgpwKRsAUVlMoz19NQOL4wYcfCAL4BT76\r\n6CPZ5Nu1axc5MpgDNzjwgx6+yy67VE4FQ68gbd977105gIQgOfziiy8E2bsbzZt7k01/Xj8dlgBa\r\nHDKEggCa9A0V9blQVqiuIqrpNZzNKUXE13TzJgLi92xRYDUXX8xnN20mwziAwxSPaCZIGlf0aNzk\r\n7IpVQJrjzDP51c2O1I3RvJk4J9fSUkRzQdK46kZTkTanejlLELqzRBpNmjHNc5z5/wzxvND0bDQT\r\nx+PI4LPOaILTzxLpyji+n80m54hjigKf/RAbN2kqjtlEriLC82gmCu5mIoz9kpR9MHmqbN2/oQLT\r\nC3WadYG6uv66REM617rCoSB/9RH0GCoCeeWVV4iyqZn0CrLPH3Xs68fRvUrPhSNor0A76jkljb9B\r\nHtXBEkCLQ4pDQeJ4jIZCFhvSeYb+XKtWgOf6IVJuNBFk6plnnpVTL9xww41oKsijyU4HiRbXHT3v\r\n/PPRsuXXaNGipXguz69s8q0O7JjNqR86d+qMZ55+RpwDO4mbbXUwfdo+8+yz6CjP9wZJZBvK/W9I\r\nqJtntW7QkM4z1OfK9Ex1xNEGRQT1fpA6QdT1erhbVxNYAmhxyKEKk1AUKKY0gk07FOcRCEzHYX64\r\ndf5wqM7VhGCPXdfnymaUyy67TM59xYlZg/WocBJWLrnEPnumcBN4DB6LJJDNNsEck7aMw7hMg7qG\r\ndP+DxeE6Vx43mGMfzjytj/ff1zGCPbY/e4ap+sDi8MESQIvDCudLp+ZgGiZ9MGBhFGzhFixCdYxQ\r\nXO+hQE2vN/g4nJ6jWVBETB2D3jzC0Qd+XB6L8Th6zxTuD4zDuMGcr44j/f4fDjSkcz0U9z8U+eEv\r\nDep5HRaHG+fi/wGnSGJHisnRwwAAAABJRU5ErkJggg==",
    "RulerGuidesX" : [],
    "RulerGuidesY" : [],
    "RulerShowing" : { "type": "bool", "value" : false},
    "Title" : "How to install using tims new stuff",
    "audioNarrationNotes" : "",
    "calloutStyle" : "Bold"
  }
}
