{
  "title" : "",
  "description" : "",
  "author" : "",
  "targetLoudness" : -18.0,
  "shouldApplyLoudnessNormalization" : true,
  "videoFormatFrameRate" : 30,
  "audioFormatSampleRate" : 44100,
  "allowSubFrameEditing" : false,
  "width" : 1920.0,
  "height" : 1080.0,
  "version" : "9.0",
  "editRate" : 705600000,
  "authoringClientName" :  {
    "name" : "Camtasia",
    "platform" : "Windows",
    "version" : "2025.0.1"
  },
  "sourceBin" : [
    {
      "id" : 1,
      "src" : "triangles.tscshadervid",
      "rect" : [0, 0, 1920, 1080],
      "lastMod" : "20230403T200314",
      "loudnessNormalization" : true,
      "sourceTracks" : [
        {
          "range" : [0, 9223372036854775807],
          "type" : 0,
          "editRate" : 30,
          "trackRect" : [0, 0, 1920, 1080],
          "sampleRate" : 30,
          "bitDepth" : 32,
          "numChannels" : 0,
          "integratedLUFS" : 100.0,
          "peakLevel" : -1.0,
          "metaData" : "triangles.tscshadervid;"
        }
      ],
      "effectDef" : [
        {
          "name" : "Color0",
          "type" : "Color",
          "defaultValue" : [ 0.615686, 0.705882, 0.752941, 1],
          "scalingType" : 3,
          "unitType" : 0,
          "userInterfaceType" : 6
        },
        {
          "name" : "Color1",
          "type" : "Color",
          "defaultValue" : [ 0.878431, 0.984314, 0.988235, 1],
          "scalingType" : 3,
          "unitType" : 0,
          "userInterfaceType" : 6
        },
        {
          "name" : "Size",
          "type" : "double",
          "defaultValue" : 357.9,
          "maxValue" : 500.0,
          "minValue" : 0.5,
          "scalingType" : 0,
          "unitType" : 0,
          "userInterfaceType" : 0
        },
        {
          "name" : "Direction",
          "type" : "double",
          "defaultValue" : 0.7853982,
          "maxValue" : 0.0,
          "minValue" : 0.0,
          "scalingType" : 0,
          "unitType" : 3,
          "userInterfaceType" : 2
        },
        {
          "name" : "sourceFileType",
          "type" : "string",
          "defaultValue" : "tscshadervid",
          "maxValue" : "",
          "minValue" : "",
          "scalingType" : 0,
          "unitType" : 0,
          "userInterfaceType" : 0
        }    ]
,
      "metadata" : {
        "timeAdded" : "20250423T035233.535278"
      }
    },
    {
      "id" : 2,
      "src" : "Rec 4-22-2025-8-51-30-PM.trec",
      "rect" : [0, 0, 3840, 2060],
      "lastMod" : "20250426T232115",
      "loudnessNormalization" : true,
      "sourceTracks" : [
        {
          "range" : [0, 296087926],
          "type" : 0,
          "editRate" : 60000,
          "trackRect" : [0, 0, 3840, 2060],
          "sampleRate" : "30263/2000",
          "bitDepth" : 24,
          "numChannels" : 0,
          "integratedLUFS" : 100.0,
          "peakLevel" : -1.0,
          "metaData" : "Rec 4-22-2025-8-51-30-PM.trec;2b7b6a00-7a1f-11e2-83d0-0017f200be7f;2b7b6aef-7a1f-11e2-83d0-0017f200be7f;2b7b6af0-7a1f-11e2-83d0-0017f200be7f;2b7b6af1-7a1f-11e2-83d0-0017f200be7f;2b7b6af2-7a1f-11e2-83d0-0017f200be7f;2b7b6af3-7a1f-11e2-83d0-0017f200be7f;2b7b6af5-7a1f-11e2-83d0-0017f200be7f;2b7b6af6-7a1f-11e2-83d0-0017f200be7f;2b7b6af7-7a1f-11e2-83d0-0017f200be7f;2b7b6af8-7a1f-11e2-83d0-0017f200be7f;2b7b6af9-7a1f-11e2-83d0-0017f200be7f;2b7b6afa-7a1f-11e2-83d0-0017f200be7f;"
        }
      ],
      "metadata" : {
        "timeAdded" : "20250423T035233.535278"
      }
    }
  ],
  "timeline" : {
    "id" : 3,
    "sceneTrack" : {
      "scenes" : [
        {
          "csml" : {
            "tracks" : [
              {
                "trackIndex" : 0,
                "medias" : [
                  {
                    "id" : 4,
                    "_type" : "StitchedMedia",
                    "minMediaStart" : 0,
                    "attributes" : {
                      "ident" : "Rec 4-22-2025-8-51-30-PM",
                      "gain" : 1.0,
                      "mixToMono" : false,
                      "loudnessNormalization" : true,
                      "sourceFileOffset" : 0
                    },
                    "parameters" : {
                      "translation0" : 6.33786407766917,
                      "translation1" : -2.8421709430404e-14,
                      "scale0" : 0.503300970873786,
                      "scale1" : 0.503300970873786,
                      "geometryCrop0" : 0.0,
                      "geometryCrop1" : 0.0,
                      "geometryCrop2" : 0.0,
                      "geometryCrop3" : 0.0,
                      "cursorOpacity" : 1.0,
                      "cursorTrackLevel" : 0.0,
                      "cursorScale" : 5.0,
                      "smoothCursorAcrossEditDuration" : 0
                    },
                    "medias" : [
                        {
                          "id" : 5,
                          "_type" : "ScreenVMFile",
                          "src" : 2,
                          "trackNumber" : 0,
                          "attributes" : {
                            "ident" : "Rec 4-22-2025-8-51-30-PM"
                          },
                          "parameters" : {
                            "geometryCrop0" : {
                              "type" : "double",
                              "defaultValue" : 0.0,
                              "interp" : "eioe"
                            },
                            "geometryCrop1" : {
                              "type" : "double",
                              "defaultValue" : 0.0,
                              "interp" : "eioe"
                            },
                            "geometryCrop2" : {
                              "type" : "double",
                              "defaultValue" : 0.0,
                              "interp" : "eioe"
                            },
                            "geometryCrop3" : {
                              "type" : "double",
                              "defaultValue" : 0.0,
                              "interp" : "eioe"
                            },
                            "cursorScale" : {
                              "type" : "double",
                              "defaultValue" : 0.0,
                              "interp" : "linr"
                            },
                            "cursorOpacity" : {
                              "type" : "double",
                              "defaultValue" : 0.0,
                              "interp" : "linr"
                            },
                            "cursorTrackLevel" : {
                              "type" : "double",
                              "defaultValue" : 0.0,
                              "interp" : "linr"
                            },
                            "smoothCursorAcrossEditDuration" : 0
                          },
                          "effects" : [

                          ],
                          "start" : 0,
                          "duration" : 15005760000,
                          "mediaStart" : 0,
                          "mediaDuration" : 15005760000,
                          "scalar" : 1,
                          "metadata" : {
                            "AutoAppliedSmartFocus" : "False",
                            "audiateLinkedSession" : "",
                            "clipSpeedAttribute" : { "type": "bool", "value" : false},
                            "colorAttribute" : { "type": "color", "value" : [ 0, 0, 0, 0]},
                            "default-height" : { "type": "double", "value" : 1036.8},
                            "default-translation0" : { "type": "double", "value" : 0.0},
                            "default-translation1" : { "type": "double", "value" : -194.4},
                            "default-translation2" : { "type": "double", "value" : 0.0},
                            "default-width" : { "type": "double", "value" : 1932.67572815534}
                          },
                          "animationTracks" : {

                          }
                        },
                        {
                          "id" : 6,
                          "_type" : "ScreenVMFile",
                          "src" : 2,
                          "trackNumber" : 0,
                          "attributes" : {
                            "ident" : "Rec 4-22-2025-8-51-30-PM"
                          },
                          "parameters" : {
                            "geometryCrop0" : {
                              "type" : "double",
                              "defaultValue" : 0.0,
                              "interp" : "eioe"
                            },
                            "geometryCrop1" : {
                              "type" : "double",
                              "defaultValue" : 0.0,
                              "interp" : "eioe"
                            },
                            "geometryCrop2" : {
                              "type" : "double",
                              "defaultValue" : 0.0,
                              "interp" : "eioe"
                            },
                            "geometryCrop3" : {
                              "type" : "double",
                              "defaultValue" : 0.0,
                              "interp" : "eioe"
                            },
                            "cursorScale" : {
                              "type" : "double",
                              "defaultValue" : 0.0,
                              "interp" : "linr"
                            },
                            "cursorOpacity" : {
                              "type" : "double",
                              "defaultValue" : 0.0,
                              "interp" : "linr"
                            },
                            "cursorTrackLevel" : {
                              "type" : "double",
                              "defaultValue" : 0.0,
                              "interp" : "linr"
                            },
                            "smoothCursorAcrossEditDuration" : 0
                          },
                          "effects" : [

                          ],
                          "start" : 15005760000,
                          "duration" : 3466965600000,
                          "mediaStart" : 15005760000,
                          "mediaDuration" : 3466965600000,
                          "scalar" : 1,
                          "metadata" : {
                            "AutoAppliedSmartFocus" : "False",
                            "audiateLinkedSession" : "",
                            "clipSpeedAttribute" : { "type": "bool", "value" : false},
                            "colorAttribute" : { "type": "color", "value" : [ 0, 0, 0, 0]},
                            "default-height" : { "type": "double", "value" : 1036.8},
                            "default-translation0" : { "type": "double", "value" : 0.0},
                            "default-translation1" : { "type": "double", "value" : -194.4},
                            "default-translation2" : { "type": "double", "value" : 0.0},
                            "default-width" : { "type": "double", "value" : 1932.67572815534}
                          },
                          "animationTracks" : {

                          }
                        }
                    ],
                    "effects" : [

                    ],
                    "start" : 0,
                    "duration" : 1599360000,
                    "mediaStart" : 17922240000,
                    "mediaDuration" : 1599360000,
                    "scalar" : 1,
                    "metadata" : {
                      "AutoAppliedSmartFocus" : "False",
                      "audiateLinkedSession" : "",
                      "clipSpeedAttribute" : { "type": "bool", "value" : false},
                      "colorAttribute" : { "type": "color", "value" : [ 0, 0, 0, 0]},
                      "default-height" : { "type": "double", "value" : 1036.8},
                      "default-translation0" : { "type": "double", "value" : 0.0},
                      "default-translation1" : { "type": "double", "value" : -194.4},
                      "default-translation2" : { "type": "double", "value" : 0.0},
                      "default-width" : { "type": "double", "value" : 1932.67572815534}
                    },
                    "animationTracks" : {

                    }
                  },
                  {
                    "id" : 7,
                    "_type" : "StitchedMedia",
                    "minMediaStart" : 0,
                    "attributes" : {
                      "ident" : "Rec 4-22-2025-8-51-30-PM",
                      "gain" : 1.0,
                      "mixToMono" : false,
                      "loudnessNormalization" : true,
                      "sourceFileOffset" : 0
                    },
                    "parameters" : {
                      "translation0" : 6.33786407766917,
                      "translation1" : -2.8421709430404e-14,
                      "scale0" : 0.503300970873786,
                      "scale1" : 0.503300970873786,
                      "geometryCrop0" : 0.0,
                      "geometryCrop1" : 0.0,
                      "geometryCrop2" : 0.0,
                      "geometryCrop3" : 0.0,
                      "toc" : {
                        "type" : "string",
                        "keyframes" : [
                          {
                            "endTime" : 19521600000,
                            "time" : 19521600000,
                            "value" : "Look for issue",
                            "duration" : 0,
                            "metadata" : {
                              "markerIdentifier" : "D133DEC6-0BEA-4D0B-AAA9-C21FA1505DA9"
                            }
                          }
                        ]
                      },
                      "cursorOpacity" : 1.0,
                      "cursorTrackLevel" : 0.0,
                      "cursorScale" : 5.0,
                      "smoothCursorAcrossEditDuration" : 0
                    },
                    "medias" : [
                        {
                          "id" : 8,
                          "_type" : "ScreenVMFile",
                          "src" : 2,
                          "trackNumber" : 0,
                          "attributes" : {
                            "ident" : "Rec 4-22-2025-8-51-30-PM"
                          },
                          "parameters" : {
                            "geometryCrop0" : {
                              "type" : "double",
                              "defaultValue" : 0.0,
                              "interp" : "eioe"
                            },
                            "geometryCrop1" : {
                              "type" : "double",
                              "defaultValue" : 0.0,
                              "interp" : "eioe"
                            },
                            "geometryCrop2" : {
                              "type" : "double",
                              "defaultValue" : 0.0,
                              "interp" : "eioe"
                            },
                            "geometryCrop3" : {
                              "type" : "double",
                              "defaultValue" : 0.0,
                              "interp" : "eioe"
                            },
                            "cursorScale" : {
                              "type" : "double",
                              "defaultValue" : 0.0,
                              "interp" : "linr"
                            },
                            "cursorOpacity" : {
                              "type" : "double",
                              "defaultValue" : 0.0,
                              "interp" : "linr"
                            },
                            "cursorTrackLevel" : {
                              "type" : "double",
                              "defaultValue" : 0.0,
                              "interp" : "linr"
                            },
                            "smoothCursorAcrossEditDuration" : 0
                          },
                          "effects" : [

                          ],
                          "start" : 0,
                          "duration" : 24413760000,
                          "mediaStart" : 0,
                          "mediaDuration" : 24413760000,
                          "scalar" : 1,
                          "metadata" : {
                            "AutoAppliedSmartFocus" : "False",
                            "audiateLinkedSession" : "",
                            "clipSpeedAttribute" : { "type": "bool", "value" : false},
                            "colorAttribute" : { "type": "color", "value" : [ 0, 0, 0, 0]},
                            "default-height" : { "type": "double", "value" : 1036.8},
                            "default-translation0" : { "type": "double", "value" : 0.0},
                            "default-translation1" : { "type": "double", "value" : -194.4},
                            "default-translation2" : { "type": "double", "value" : 0.0},
                            "default-width" : { "type": "double", "value" : 1932.67572815534}
                          },
                          "animationTracks" : {

                          }
                        },
                        {
                          "id" : 9,
                          "_type" : "ScreenVMFile",
                          "src" : 2,
                          "trackNumber" : 0,
                          "attributes" : {
                            "ident" : "Rec 4-22-2025-8-51-30-PM"
                          },
                          "parameters" : {
                            "geometryCrop0" : {
                              "type" : "double",
                              "defaultValue" : 0.0,
                              "interp" : "eioe"
                            },
                            "geometryCrop1" : {
                              "type" : "double",
                              "defaultValue" : 0.0,
                              "interp" : "eioe"
                            },
                            "geometryCrop2" : {
                              "type" : "double",
                              "defaultValue" : 0.0,
                              "interp" : "eioe"
                            },
                            "geometryCrop3" : {
                              "type" : "double",
                              "defaultValue" : 0.0,
                              "interp" : "eioe"
                            },
                            "cursorScale" : {
                              "type" : "double",
                              "defaultValue" : 0.0,
                              "interp" : "linr"
                            },
                            "cursorOpacity" : {
                              "type" : "double",
                              "defaultValue" : 0.0,
                              "interp" : "linr"
                            },
                            "cursorTrackLevel" : {
                              "type" : "double",
                              "defaultValue" : 0.0,
                              "interp" : "linr"
                            },
                            "smoothCursorAcrossEditDuration" : 0
                          },
                          "effects" : [

                          ],
                          "start" : 24413760000,
                          "duration" : 5668320000,
                          "mediaStart" : 24413760000,
                          "mediaDuration" : 5668320000,
                          "scalar" : 1,
                          "metadata" : {
                            "AutoAppliedSmartFocus" : "False",
                            "audiateLinkedSession" : "",
                            "clipSpeedAttribute" : { "type": "bool", "value" : false},
                            "colorAttribute" : { "type": "color", "value" : [ 0, 0, 0, 0]},
                            "default-height" : { "type": "double", "value" : 1036.8},
                            "default-translation0" : { "type": "double", "value" : 0.0},
                            "default-translation1" : { "type": "double", "value" : -194.4},
                            "default-translation2" : { "type": "double", "value" : 0.0},
                            "default-width" : { "type": "double", "value" : 1932.67572815534}
                          },
                          "animationTracks" : {

                          }
                        },
                        {
                          "id" : 10,
                          "_type" : "ScreenVMFile",
                          "src" : 2,
                          "trackNumber" : 0,
                          "attributes" : {
                            "ident" : "Rec 4-22-2025-8-51-30-PM"
                          },
                          "parameters" : {
                            "geometryCrop0" : {
                              "type" : "double",
                              "defaultValue" : 0.0,
                              "interp" : "eioe"
                            },
                            "geometryCrop1" : {
                              "type" : "double",
                              "defaultValue" : 0.0,
                              "interp" : "eioe"
                            },
                            "geometryCrop2" : {
                              "type" : "double",
                              "defaultValue" : 0.0,
                              "interp" : "eioe"
                            },
                            "geometryCrop3" : {
                              "type" : "double",
                              "defaultValue" : 0.0,
                              "interp" : "eioe"
                            },
                            "cursorScale" : {
                              "type" : "double",
                              "defaultValue" : 0.0,
                              "interp" : "linr"
                            },
                            "cursorOpacity" : {
                              "type" : "double",
                              "defaultValue" : 0.0,
                              "interp" : "linr"
                            },
                            "cursorTrackLevel" : {
                              "type" : "double",
                              "defaultValue" : 0.0,
                              "interp" : "linr"
                            },
                            "smoothCursorAcrossEditDuration" : 0
                          },
                          "effects" : [

                          ],
                          "start" : 30082080000,
                          "duration" : 11219040000,
                          "mediaStart" : 39772320000,
                          "mediaDuration" : 11219040000,
                          "scalar" : 1,
                          "metadata" : {
                            "AutoAppliedSmartFocus" : "False",
                            "audiateLinkedSession" : "",
                            "clipSpeedAttribute" : { "type": "bool", "value" : false},
                            "colorAttribute" : { "type": "color", "value" : [ 0, 0, 0, 0]},
                            "default-height" : { "type": "double", "value" : 1036.8},
                            "default-translation0" : { "type": "double", "value" : 0.0},
                            "default-translation1" : { "type": "double", "value" : -194.4},
                            "default-translation2" : { "type": "double", "value" : 0.0},
                            "default-width" : { "type": "double", "value" : 1932.67572815534}
                          },
                          "animationTracks" : {

                          }
                        },
                        {
                          "id" : 11,
                          "_type" : "ScreenVMFile",
                          "src" : 2,
                          "trackNumber" : 0,
                          "attributes" : {
                            "ident" : "Rec 4-22-2025-8-51-30-PM"
                          },
                          "parameters" : {
                            "geometryCrop0" : {
                              "type" : "double",
                              "defaultValue" : 0.0,
                              "interp" : "eioe"
                            },
                            "geometryCrop1" : {
                              "type" : "double",
                              "defaultValue" : 0.0,
                              "interp" : "eioe"
                            },
                            "geometryCrop2" : {
                              "type" : "double",
                              "defaultValue" : 0.0,
                              "interp" : "eioe"
                            },
                            "geometryCrop3" : {
                              "type" : "double",
                              "defaultValue" : 0.0,
                              "interp" : "eioe"
                            },
                            "cursorScale" : {
                              "type" : "double",
                              "defaultValue" : 0.0,
                              "interp" : "linr"
                            },
                            "cursorOpacity" : {
                              "type" : "double",
                              "defaultValue" : 0.0,
                              "interp" : "linr"
                            },
                            "cursorTrackLevel" : {
                              "type" : "double",
                              "defaultValue" : 0.0,
                              "interp" : "linr"
                            },
                            "smoothCursorAcrossEditDuration" : 0
                          },
                          "effects" : [

                          ],
                          "start" : 41301120000,
                          "duration" : 1764000000,
                          "mediaStart" : 66467520000,
                          "mediaDuration" : 1764000000,
                          "scalar" : 1,
                          "metadata" : {
                            "AutoAppliedSmartFocus" : "False",
                            "audiateLinkedSession" : "",
                            "clipSpeedAttribute" : { "type": "bool", "value" : false},
                            "colorAttribute" : { "type": "color", "value" : [ 0, 0, 0, 0]},
                            "default-height" : { "type": "double", "value" : 1036.8},
                            "default-translation0" : { "type": "double", "value" : 0.0},
                            "default-translation1" : { "type": "double", "value" : -194.4},
                            "default-translation2" : { "type": "double", "value" : 0.0},
                            "default-width" : { "type": "double", "value" : 1932.67572815534}
                          },
                          "animationTracks" : {

                          }
                        },
                        {
                          "id" : 12,
                          "_type" : "ScreenVMFile",
                          "src" : 2,
                          "trackNumber" : 0,
                          "attributes" : {
                            "ident" : "Rec 4-22-2025-8-51-30-PM"
                          },
                          "parameters" : {
                            "geometryCrop0" : {
                              "type" : "double",
                              "defaultValue" : 0.0,
                              "interp" : "eioe"
                            },
                            "geometryCrop1" : {
                              "type" : "double",
                              "defaultValue" : 0.0,
                              "interp" : "eioe"
                            },
                            "geometryCrop2" : {
                              "type" : "double",
                              "defaultValue" : 0.0,
                              "interp" : "eioe"
                            },
                            "geometryCrop3" : {
                              "type" : "double",
                              "defaultValue" : 0.0,
                              "interp" : "eioe"
                            },
                            "cursorScale" : {
                              "type" : "double",
                              "defaultValue" : 0.0,
                              "interp" : "linr"
                            },
                            "cursorOpacity" : {
                              "type" : "double",
                              "defaultValue" : 0.0,
                              "interp" : "linr"
                            },
                            "cursorTrackLevel" : {
                              "type" : "double",
                              "defaultValue" : 0.0,
                              "interp" : "linr"
                            },
                            "smoothCursorAcrossEditDuration" : 0
                          },
                          "effects" : [

                          ],
                          "start" : 43065120000,
                          "duration" : 44899680000,
                          "mediaStart" : 68231520000,
                          "mediaDuration" : 44899680000,
                          "scalar" : 1,
                          "metadata" : {
                            "AutoAppliedSmartFocus" : "False",
                            "audiateLinkedSession" : "",
                            "clipSpeedAttribute" : { "type": "bool", "value" : false},
                            "colorAttribute" : { "type": "color", "value" : [ 0, 0, 0, 0]},
                            "default-height" : { "type": "double", "value" : 1036.8},
                            "default-translation0" : { "type": "double", "value" : 0.0},
                            "default-translation1" : { "type": "double", "value" : -194.4},
                            "default-translation2" : { "type": "double", "value" : 0.0},
                            "default-width" : { "type": "double", "value" : 1932.67572815534}
                          },
                          "animationTracks" : {

                          }
                        },
                        {
                          "id" : 13,
                          "_type" : "ScreenVMFile",
                          "src" : 2,
                          "trackNumber" : 0,
                          "attributes" : {
                            "ident" : "Rec 4-22-2025-8-51-30-PM"
                          },
                          "parameters" : {
                            "geometryCrop0" : {
                              "type" : "double",
                              "defaultValue" : 0.0,
                              "interp" : "eioe"
                            },
                            "geometryCrop1" : {
                              "type" : "double",
                              "defaultValue" : 0.0,
                              "interp" : "eioe"
                            },
                            "geometryCrop2" : {
                              "type" : "double",
                              "defaultValue" : 0.0,
                              "interp" : "eioe"
                            },
                            "geometryCrop3" : {
                              "type" : "double",
                              "defaultValue" : 0.0,
                              "interp" : "eioe"
                            },
                            "cursorScale" : {
                              "type" : "double",
                              "defaultValue" : 0.0,
                              "interp" : "linr"
                            },
                            "cursorOpacity" : {
                              "type" : "double",
                              "defaultValue" : 0.0,
                              "interp" : "linr"
                            },
                            "cursorTrackLevel" : {
                              "type" : "double",
                              "defaultValue" : 0.0,
                              "interp" : "linr"
                            },
                            "smoothCursorAcrossEditDuration" : 0
                          },
                          "effects" : [

                          ],
                          "start" : 87964800000,
                          "duration" : 352282560000,
                          "mediaStart" : 149352000000,
                          "mediaDuration" : 352282560000,
                          "scalar" : 1,
                          "metadata" : {
                            "AutoAppliedSmartFocus" : "False",
                            "audiateLinkedSession" : "",
                            "clipSpeedAttribute" : { "type": "bool", "value" : false},
                            "colorAttribute" : { "type": "color", "value" : [ 0, 0, 0, 0]},
                            "default-height" : { "type": "double", "value" : 1036.8},
                            "default-translation0" : { "type": "double", "value" : 0.0},
                            "default-translation1" : { "type": "double", "value" : -194.4},
                            "default-translation2" : { "type": "double", "value" : 0.0},
                            "default-width" : { "type": "double", "value" : 1932.67572815534}
                          },
                          "animationTracks" : {

                          }
                        },
                        {
                          "id" : 14,
                          "_type" : "ScreenVMFile",
                          "src" : 2,
                          "trackNumber" : 0,
                          "attributes" : {
                            "ident" : "Rec 4-22-2025-8-51-30-PM"
                          },
                          "parameters" : {
                            "geometryCrop0" : {
                              "type" : "double",
                              "defaultValue" : 0.0,
                              "interp" : "eioe"
                            },
                            "geometryCrop1" : {
                              "type" : "double",
                              "defaultValue" : 0.0,
                              "interp" : "eioe"
                            },
                            "geometryCrop2" : {
                              "type" : "double",
                              "defaultValue" : 0.0,
                              "interp" : "eioe"
                            },
                            "geometryCrop3" : {
                              "type" : "double",
                              "defaultValue" : 0.0,
                              "interp" : "eioe"
                            },
                            "cursorScale" : {
                              "type" : "double",
                              "defaultValue" : 0.0,
                              "interp" : "linr"
                            },
                            "cursorOpacity" : {
                              "type" : "double",
                              "defaultValue" : 0.0,
                              "interp" : "linr"
                            },
                            "cursorTrackLevel" : {
                              "type" : "double",
                              "defaultValue" : 0.0,
                              "interp" : "linr"
                            },
                            "smoothCursorAcrossEditDuration" : 0
                          },
                          "effects" : [

                          ],
                          "start" : 440247360000,
                          "duration" : 8961120000,
                          "mediaStart" : 509843040000,
                          "mediaDuration" : 8961120000,
                          "scalar" : 1,
                          "metadata" : {
                            "AutoAppliedSmartFocus" : "False",
                            "audiateLinkedSession" : "",
                            "clipSpeedAttribute" : { "type": "bool", "value" : false},
                            "colorAttribute" : { "type": "color", "value" : [ 0, 0, 0, 0]},
                            "default-height" : { "type": "double", "value" : 1036.8},
                            "default-translation0" : { "type": "double", "value" : 0.0},
                            "default-translation1" : { "type": "double", "value" : -194.4},
                            "default-translation2" : { "type": "double", "value" : 0.0},
                            "default-width" : { "type": "double", "value" : 1932.67572815534}
                          },
                          "animationTracks" : {

                          }
                        },
                        {
                          "id" : 15,
                          "_type" : "ScreenVMFile",
                          "src" : 2,
                          "trackNumber" : 0,
                          "attributes" : {
                            "ident" : "Rec 4-22-2025-8-51-30-PM"
                          },
                          "parameters" : {
                            "geometryCrop0" : {
                              "type" : "double",
                              "defaultValue" : 0.0,
                              "interp" : "eioe"
                            },
                            "geometryCrop1" : {
                              "type" : "double",
                              "defaultValue" : 0.0,
                              "interp" : "eioe"
                            },
                            "geometryCrop2" : {
                              "type" : "double",
                              "defaultValue" : 0.0,
                              "interp" : "eioe"
                            },
                            "geometryCrop3" : {
                              "type" : "double",
                              "defaultValue" : 0.0,
                              "interp" : "eioe"
                            },
                            "cursorScale" : {
                              "type" : "double",
                              "defaultValue" : 0.0,
                              "interp" : "linr"
                            },
                            "cursorOpacity" : {
                              "type" : "double",
                              "defaultValue" : 0.0,
                              "interp" : "linr"
                            },
                            "cursorTrackLevel" : {
                              "type" : "double",
                              "defaultValue" : 0.0,
                              "interp" : "linr"
                            },
                            "smoothCursorAcrossEditDuration" : 0
                          },
                          "effects" : [

                          ],
                          "start" : 449208480000,
                          "duration" : 581226240000,
                          "mediaStart" : 1416350880000,
                          "mediaDuration" : 581226240000,
                          "scalar" : 1,
                          "metadata" : {
                            "AutoAppliedSmartFocus" : "False",
                            "audiateLinkedSession" : "",
                            "clipSpeedAttribute" : { "type": "bool", "value" : false},
                            "colorAttribute" : { "type": "color", "value" : [ 0, 0, 0, 0]},
                            "default-height" : { "type": "double", "value" : 1036.8},
                            "default-translation0" : { "type": "double", "value" : 0.0},
                            "default-translation1" : { "type": "double", "value" : -194.4},
                            "default-translation2" : { "type": "double", "value" : 0.0},
                            "default-width" : { "type": "double", "value" : 1932.67572815534}
                          },
                          "animationTracks" : {

                          }
                        },
                        {
                          "id" : 16,
                          "_type" : "ScreenVMFile",
                          "src" : 2,
                          "trackNumber" : 0,
                          "attributes" : {
                            "ident" : "Rec 4-22-2025-8-51-30-PM"
                          },
                          "parameters" : {
                            "geometryCrop0" : {
                              "type" : "double",
                              "defaultValue" : 0.0,
                              "interp" : "eioe"
                            },
                            "geometryCrop1" : {
                              "type" : "double",
                              "defaultValue" : 0.0,
                              "interp" : "eioe"
                            },
                            "geometryCrop2" : {
                              "type" : "double",
                              "defaultValue" : 0.0,
                              "interp" : "eioe"
                            },
                            "geometryCrop3" : {
                              "type" : "double",
                              "defaultValue" : 0.0,
                              "interp" : "eioe"
                            },
                            "cursorScale" : {
                              "type" : "double",
                              "defaultValue" : 0.0,
                              "interp" : "linr"
                            },
                            "cursorOpacity" : {
                              "type" : "double",
                              "defaultValue" : 0.0,
                              "interp" : "linr"
                            },
                            "cursorTrackLevel" : {
                              "type" : "double",
                              "defaultValue" : 0.0,
                              "interp" : "linr"
                            },
                            "smoothCursorAcrossEditDuration" : 0
                          },
                          "effects" : [

                          ],
                          "start" : 1030434720000,
                          "duration" : 215419680000,
                          "mediaStart" : 2018886240000,
                          "mediaDuration" : 215419680000,
                          "scalar" : 1,
                          "metadata" : {
                            "AutoAppliedSmartFocus" : "False",
                            "audiateLinkedSession" : "",
                            "clipSpeedAttribute" : { "type": "bool", "value" : false},
                            "colorAttribute" : { "type": "color", "value" : [ 0, 0, 0, 0]},
                            "default-height" : { "type": "double", "value" : 1036.8},
                            "default-translation0" : { "type": "double", "value" : 0.0},
                            "default-translation1" : { "type": "double", "value" : -194.4},
                            "default-translation2" : { "type": "double", "value" : 0.0},
                            "default-width" : { "type": "double", "value" : 1932.67572815534}
                          },
                          "animationTracks" : {

                          }
                        },
                        {
                          "id" : 17,
                          "_type" : "ScreenVMFile",
                          "src" : 2,
                          "trackNumber" : 0,
                          "attributes" : {
                            "ident" : "Rec 4-22-2025-8-51-30-PM"
                          },
                          "parameters" : {
                            "geometryCrop0" : {
                              "type" : "double",
                              "defaultValue" : 0.0,
                              "interp" : "eioe"
                            },
                            "geometryCrop1" : {
                              "type" : "double",
                              "defaultValue" : 0.0,
                              "interp" : "eioe"
                            },
                            "geometryCrop2" : {
                              "type" : "double",
                              "defaultValue" : 0.0,
                              "interp" : "eioe"
                            },
                            "geometryCrop3" : {
                              "type" : "double",
                              "defaultValue" : 0.0,
                              "interp" : "eioe"
                            },
                            "cursorScale" : {
                              "type" : "double",
                              "defaultValue" : 0.0,
                              "interp" : "linr"
                            },
                            "cursorOpacity" : {
                              "type" : "double",
                              "defaultValue" : 0.0,
                              "interp" : "linr"
                            },
                            "cursorTrackLevel" : {
                              "type" : "double",
                              "defaultValue" : 0.0,
                              "interp" : "linr"
                            },
                            "smoothCursorAcrossEditDuration" : 0
                          },
                          "effects" : [

                          ],
                          "start" : 1245854400000,
                          "duration" : 786955680000,
                          "mediaStart" : 2257778880000,
                          "mediaDuration" : 786955680000,
                          "scalar" : 1,
                          "metadata" : {
                            "AutoAppliedSmartFocus" : "False",
                            "audiateLinkedSession" : "",
                            "clipSpeedAttribute" : { "type": "bool", "value" : false},
                            "colorAttribute" : { "type": "color", "value" : [ 0, 0, 0, 0]},
                            "default-height" : { "type": "double", "value" : 1036.8},
                            "default-translation0" : { "type": "double", "value" : 0.0},
                            "default-translation1" : { "type": "double", "value" : -194.4},
                            "default-translation2" : { "type": "double", "value" : 0.0},
                            "default-width" : { "type": "double", "value" : 1932.67572815534}
                          },
                          "animationTracks" : {

                          }
                        },
                        {
                          "id" : 18,
                          "_type" : "ScreenVMFile",
                          "src" : 2,
                          "trackNumber" : 0,
                          "attributes" : {
                            "ident" : "Rec 4-22-2025-8-51-30-PM"
                          },
                          "parameters" : {
                            "geometryCrop0" : {
                              "type" : "double",
                              "defaultValue" : 0.0,
                              "interp" : "eioe"
                            },
                            "geometryCrop1" : {
                              "type" : "double",
                              "defaultValue" : 0.0,
                              "interp" : "eioe"
                            },
                            "geometryCrop2" : {
                              "type" : "double",
                              "defaultValue" : 0.0,
                              "interp" : "eioe"
                            },
                            "geometryCrop3" : {
                              "type" : "double",
                              "defaultValue" : 0.0,
                              "interp" : "eioe"
                            },
                            "cursorScale" : {
                              "type" : "double",
                              "defaultValue" : 0.0,
                              "interp" : "linr"
                            },
                            "cursorOpacity" : {
                              "type" : "double",
                              "defaultValue" : 0.0,
                              "interp" : "linr"
                            },
                            "cursorTrackLevel" : {
                              "type" : "double",
                              "defaultValue" : 0.0,
                              "interp" : "linr"
                            },
                            "smoothCursorAcrossEditDuration" : 0
                          },
                          "effects" : [

                          ],
                          "start" : 2032810080000,
                          "duration" : 20768160000,
                          "mediaStart" : 3047580480000,
                          "mediaDuration" : 20768160000,
                          "scalar" : 1,
                          "metadata" : {
                            "AutoAppliedSmartFocus" : "False",
                            "audiateLinkedSession" : "",
                            "clipSpeedAttribute" : { "type": "bool", "value" : false},
                            "colorAttribute" : { "type": "color", "value" : [ 0, 0, 0, 0]},
                            "default-height" : { "type": "double", "value" : 1036.8},
                            "default-translation0" : { "type": "double", "value" : 0.0},
                            "default-translation1" : { "type": "double", "value" : -194.4},
                            "default-translation2" : { "type": "double", "value" : 0.0},
                            "default-width" : { "type": "double", "value" : 1932.67572815534}
                          },
                          "animationTracks" : {

                          }
                        },
                        {
                          "id" : 19,
                          "_type" : "ScreenVMFile",
                          "src" : 2,
                          "trackNumber" : 0,
                          "attributes" : {
                            "ident" : "Rec 4-22-2025-8-51-30-PM"
                          },
                          "parameters" : {
                            "geometryCrop0" : {
                              "type" : "double",
                              "defaultValue" : 0.0,
                              "interp" : "eioe"
                            },
                            "geometryCrop1" : {
                              "type" : "double",
                              "defaultValue" : 0.0,
                              "interp" : "eioe"
                            },
                            "geometryCrop2" : {
                              "type" : "double",
                              "defaultValue" : 0.0,
                              "interp" : "eioe"
                            },
                            "geometryCrop3" : {
                              "type" : "double",
                              "defaultValue" : 0.0,
                              "interp" : "eioe"
                            },
                            "cursorScale" : {
                              "type" : "double",
                              "defaultValue" : 0.0,
                              "interp" : "linr"
                            },
                            "cursorOpacity" : {
                              "type" : "double",
                              "defaultValue" : 0.0,
                              "interp" : "linr"
                            },
                            "cursorTrackLevel" : {
                              "type" : "double",
                              "defaultValue" : 0.0,
                              "interp" : "linr"
                            },
                            "smoothCursorAcrossEditDuration" : 0
                          },
                          "effects" : [

                          ],
                          "start" : 2053578240000,
                          "duration" : 343039200000,
                          "mediaStart" : 3138932160000,
                          "mediaDuration" : 343039200000,
                          "scalar" : 1,
                          "metadata" : {
                            "AutoAppliedSmartFocus" : "False",
                            "audiateLinkedSession" : "",
                            "clipSpeedAttribute" : { "type": "bool", "value" : false},
                            "colorAttribute" : { "type": "color", "value" : [ 0, 0, 0, 0]},
                            "default-height" : { "type": "double", "value" : 1036.8},
                            "default-translation0" : { "type": "double", "value" : 0.0},
                            "default-translation1" : { "type": "double", "value" : -194.4},
                            "default-translation2" : { "type": "double", "value" : 0.0},
                            "default-width" : { "type": "double", "value" : 1932.67572815534}
                          },
                          "animationTracks" : {

                          }
                        }
                    ],
                    "effects" : [

                    ],
                    "start" : 1599360000,
                    "duration" : 2657760000,
                    "mediaStart" : 19521600000,
                    "mediaDuration" : 6844320000,
                    "scalar" : "113/291",
                    "metadata" : {
                      "AutoAppliedSmartFocus" : "False",
                      "audiateLinkedSession" : "",
                      "clipSpeedAttribute" : { "type": "bool", "value" : true},
                      "colorAttribute" : { "type": "color", "value" : [ 0, 0, 0, 0]},
                      "default-height" : { "type": "double", "value" : 1036.8},
                      "default-translation0" : { "type": "double", "value" : 0.0},
                      "default-translation1" : { "type": "double", "value" : -194.4},
                      "default-translation2" : { "type": "double", "value" : 0.0},
                      "default-width" : { "type": "double", "value" : 1932.67572815534}
                    },
                    "animationTracks" : {

                    }
                  },
                  {
                    "id" : 20,
                    "_type" : "StitchedMedia",
                    "minMediaStart" : 0,
                    "attributes" : {
                      "ident" : "Rec 4-22-2025-8-51-30-PM",
                      "gain" : 1.0,
                      "mixToMono" : false,
                      "loudnessNormalization" : true,
                      "sourceFileOffset" : 0
                    },
                    "parameters" : {
                      "translation0" : 6.33786407766917,
                      "translation1" : -2.8421709430404e-14,
                      "scale0" : 0.503300970873786,
                      "scale1" : 0.503300970873786,
                      "geometryCrop0" : 0.0,
                      "geometryCrop1" : 0.0,
                      "geometryCrop2" : 0.0,
                      "geometryCrop3" : 0.0,
                      "cursorOpacity" : 1.0,
                      "cursorTrackLevel" : 0.0,
                      "cursorScale" : 5.0,
                      "smoothCursorAcrossEditDuration" : 0
                    },
                    "medias" : [
                        {
                          "id" : 21,
                          "_type" : "ScreenVMFile",
                          "src" : 2,
                          "trackNumber" : 0,
                          "attributes" : {
                            "ident" : "Rec 4-22-2025-8-51-30-PM"
                          },
                          "parameters" : {
                            "geometryCrop0" : {
                              "type" : "double",
                              "defaultValue" : 0.0,
                              "interp" : "eioe"
                            },
                            "geometryCrop1" : {
                              "type" : "double",
                              "defaultValue" : 0.0,
                              "interp" : "eioe"
                            },
                            "geometryCrop2" : {
                              "type" : "double",
                              "defaultValue" : 0.0,
                              "interp" : "eioe"
                            },
                            "geometryCrop3" : {
                              "type" : "double",
                              "defaultValue" : 0.0,
                              "interp" : "eioe"
                            },
                            "cursorScale" : {
                              "type" : "double",
                              "defaultValue" : 0.0,
                              "interp" : "linr"
                            },
                            "cursorOpacity" : {
                              "type" : "double",
                              "defaultValue" : 0.0,
                              "interp" : "linr"
                            },
                            "cursorTrackLevel" : {
                              "type" : "double",
                              "defaultValue" : 0.0,
                              "interp" : "linr"
                            },
                            "smoothCursorAcrossEditDuration" : 0
                          },
                          "effects" : [

                          ],
                          "start" : 0,
                          "duration" : 15005760000,
                          "mediaStart" : 0,
                          "mediaDuration" : 15005760000,
                          "scalar" : 1,
                          "metadata" : {
                            "AutoAppliedSmartFocus" : "False",
                            "audiateLinkedSession" : "",
                            "clipSpeedAttribute" : { "type": "bool", "value" : false},
                            "colorAttribute" : { "type": "color", "value" : [ 0, 0, 0, 0]},
                            "default-height" : { "type": "double", "value" : 1036.8},
                            "default-translation0" : { "type": "double", "value" : 0.0},
                            "default-translation1" : { "type": "double", "value" : -194.4},
                            "default-translation2" : { "type": "double", "value" : 0.0},
                            "default-width" : { "type": "double", "value" : 1932.67572815534}
                          },
                          "animationTracks" : {

                          }
                        },
                        {
                          "id" : 22,
                          "_type" : "ScreenVMFile",
                          "src" : 2,
                          "trackNumber" : 0,
                          "attributes" : {
                            "ident" : "Rec 4-22-2025-8-51-30-PM"
                          },
                          "parameters" : {
                            "geometryCrop0" : {
                              "type" : "double",
                              "defaultValue" : 0.0,
                              "interp" : "eioe"
                            },
                            "geometryCrop1" : {
                              "type" : "double",
                              "defaultValue" : 0.0,
                              "interp" : "eioe"
                            },
                            "geometryCrop2" : {
                              "type" : "double",
                              "defaultValue" : 0.0,
                              "interp" : "eioe"
                            },
                            "geometryCrop3" : {
                              "type" : "double",
                              "defaultValue" : 0.0,
                              "interp" : "eioe"
                            },
                            "cursorScale" : {
                              "type" : "double",
                              "defaultValue" : 0.0,
                              "interp" : "linr"
                            },
                            "cursorOpacity" : {
                              "type" : "double",
                              "defaultValue" : 0.0,
                              "interp" : "linr"
                            },
                            "cursorTrackLevel" : {
                              "type" : "double",
                              "defaultValue" : 0.0,
                              "interp" : "linr"
                            },
                            "smoothCursorAcrossEditDuration" : 0
                          },
                          "effects" : [

                          ],
                          "start" : 15005760000,
                          "duration" : 4515840000,
                          "mediaStart" : 15005760000,
                          "mediaDuration" : 4515840000,
                          "scalar" : 1,
                          "metadata" : {
                            "AutoAppliedSmartFocus" : "False",
                            "audiateLinkedSession" : "",
                            "clipSpeedAttribute" : { "type": "bool", "value" : false},
                            "colorAttribute" : { "type": "color", "value" : [ 0, 0, 0, 0]},
                            "default-height" : { "type": "double", "value" : 1036.8},
                            "default-translation0" : { "type": "double", "value" : 0.0},
                            "default-translation1" : { "type": "double", "value" : -194.4},
                            "default-translation2" : { "type": "double", "value" : 0.0},
                            "default-width" : { "type": "double", "value" : 1932.67572815534}
                          },
                          "animationTracks" : {

                          }
                        },
                        {
                          "id" : 23,
                          "_type" : "ScreenVMFile",
                          "src" : 2,
                          "trackNumber" : 0,
                          "attributes" : {
                            "ident" : "Rec 4-22-2025-8-51-30-PM"
                          },
                          "parameters" : {
                            "geometryCrop0" : {
                              "type" : "double",
                              "defaultValue" : 0.0,
                              "interp" : "eioe"
                            },
                            "geometryCrop1" : {
                              "type" : "double",
                              "defaultValue" : 0.0,
                              "interp" : "eioe"
                            },
                            "geometryCrop2" : {
                              "type" : "double",
                              "defaultValue" : 0.0,
                              "interp" : "eioe"
                            },
                            "geometryCrop3" : {
                              "type" : "double",
                              "defaultValue" : 0.0,
                              "interp" : "eioe"
                            },
                            "cursorScale" : {
                              "type" : "double",
                              "defaultValue" : 0.0,
                              "interp" : "linr"
                            },
                            "cursorOpacity" : {
                              "type" : "double",
                              "defaultValue" : 0.0,
                              "interp" : "linr"
                            },
                            "cursorTrackLevel" : {
                              "type" : "double",
                              "defaultValue" : 0.0,
                              "interp" : "linr"
                            },
                            "smoothCursorAcrossEditDuration" : 0
                          },
                          "effects" : [

                          ],
                          "start" : 19521600000,
                          "duration" : 4892160000,
                          "mediaStart" : 19521600000,
                          "mediaDuration" : 4892160000,
                          "scalar" : 1,
                          "metadata" : {
                            "AutoAppliedSmartFocus" : "False",
                            "audiateLinkedSession" : "",
                            "clipSpeedAttribute" : { "type": "bool", "value" : false},
                            "colorAttribute" : { "type": "color", "value" : [ 0, 0, 0, 0]},
                            "default-height" : { "type": "double", "value" : 1036.8},
                            "default-translation0" : { "type": "double", "value" : 0.0},
                            "default-translation1" : { "type": "double", "value" : -194.4},
                            "default-translation2" : { "type": "double", "value" : 0.0},
                            "default-width" : { "type": "double", "value" : 1932.67572815534}
                          },
                          "animationTracks" : {

                          }
                        },
                        {
                          "id" : 24,
                          "_type" : "ScreenVMFile",
                          "src" : 2,
                          "trackNumber" : 0,
                          "attributes" : {
                            "ident" : "Rec 4-22-2025-8-51-30-PM"
                          },
                          "parameters" : {
                            "geometryCrop0" : {
                              "type" : "double",
                              "defaultValue" : 0.0,
                              "interp" : "eioe"
                            },
                            "geometryCrop1" : {
                              "type" : "double",
                              "defaultValue" : 0.0,
                              "interp" : "eioe"
                            },
                            "geometryCrop2" : {
                              "type" : "double",
                              "defaultValue" : 0.0,
                              "interp" : "eioe"
                            },
                            "geometryCrop3" : {
                              "type" : "double",
                              "defaultValue" : 0.0,
                              "interp" : "eioe"
                            },
                            "cursorScale" : {
                              "type" : "double",
                              "defaultValue" : 0.0,
                              "interp" : "linr"
                            },
                            "cursorOpacity" : {
                              "type" : "double",
                              "defaultValue" : 0.0,
                              "interp" : "linr"
                            },
                            "cursorTrackLevel" : {
                              "type" : "double",
                              "defaultValue" : 0.0,
                              "interp" : "linr"
                            },
                            "smoothCursorAcrossEditDuration" : 0
                          },
                          "effects" : [

                          ],
                          "start" : 24413760000,
                          "duration" : 5668320000,
                          "mediaStart" : 24413760000,
                          "mediaDuration" : 5668320000,
                          "scalar" : 1,
                          "metadata" : {
                            "AutoAppliedSmartFocus" : "False",
                            "audiateLinkedSession" : "",
                            "clipSpeedAttribute" : { "type": "bool", "value" : false},
                            "colorAttribute" : { "type": "color", "value" : [ 0, 0, 0, 0]},
                            "default-height" : { "type": "double", "value" : 1036.8},
                            "default-translation0" : { "type": "double", "value" : 0.0},
                            "default-translation1" : { "type": "double", "value" : -194.4},
                            "default-translation2" : { "type": "double", "value" : 0.0},
                            "default-width" : { "type": "double", "value" : 1932.67572815534}
                          },
                          "animationTracks" : {

                          }
                        },
                        {
                          "id" : 25,
                          "_type" : "ScreenVMFile",
                          "src" : 2,
                          "trackNumber" : 0,
                          "attributes" : {
                            "ident" : "Rec 4-22-2025-8-51-30-PM"
                          },
                          "parameters" : {
                            "geometryCrop0" : {
                              "type" : "double",
                              "defaultValue" : 0.0,
                              "interp" : "eioe"
                            },
                            "geometryCrop1" : {
                              "type" : "double",
                              "defaultValue" : 0.0,
                              "interp" : "eioe"
                            },
                            "geometryCrop2" : {
                              "type" : "double",
                              "defaultValue" : 0.0,
                              "interp" : "eioe"
                            },
                            "geometryCrop3" : {
                              "type" : "double",
                              "defaultValue" : 0.0,
                              "interp" : "eioe"
                            },
                            "cursorScale" : {
                              "type" : "double",
                              "defaultValue" : 0.0,
                              "interp" : "linr"
                            },
                            "cursorOpacity" : {
                              "type" : "double",
                              "defaultValue" : 0.0,
                              "interp" : "linr"
                            },
                            "cursorTrackLevel" : {
                              "type" : "double",
                              "defaultValue" : 0.0,
                              "interp" : "linr"
                            },
                            "smoothCursorAcrossEditDuration" : 0
                          },
                          "effects" : [

                          ],
                          "start" : 30082080000,
                          "duration" : 11219040000,
                          "mediaStart" : 39772320000,
                          "mediaDuration" : 11219040000,
                          "scalar" : 1,
                          "metadata" : {
                            "AutoAppliedSmartFocus" : "False",
                            "audiateLinkedSession" : "",
                            "clipSpeedAttribute" : { "type": "bool", "value" : false},
                            "colorAttribute" : { "type": "color", "value" : [ 0, 0, 0, 0]},
                            "default-height" : { "type": "double", "value" : 1036.8},
                            "default-translation0" : { "type": "double", "value" : 0.0},
                            "default-translation1" : { "type": "double", "value" : -194.4},
                            "default-translation2" : { "type": "double", "value" : 0.0},
                            "default-width" : { "type": "double", "value" : 1932.67572815534}
                          },
                          "animationTracks" : {

                          }
                        },
                        {
                          "id" : 26,
                          "_type" : "ScreenVMFile",
                          "src" : 2,
                          "trackNumber" : 0,
                          "attributes" : {
                            "ident" : "Rec 4-22-2025-8-51-30-PM"
                          },
                          "parameters" : {
                            "geometryCrop0" : {
                              "type" : "double",
                              "defaultValue" : 0.0,
                              "interp" : "eioe"
                            },
                            "geometryCrop1" : {
                              "type" : "double",
                              "defaultValue" : 0.0,
                              "interp" : "eioe"
                            },
                            "geometryCrop2" : {
                              "type" : "double",
                              "defaultValue" : 0.0,
                              "interp" : "eioe"
                            },
                            "geometryCrop3" : {
                              "type" : "double",
                              "defaultValue" : 0.0,
                              "interp" : "eioe"
                            },
                            "cursorScale" : {
                              "type" : "double",
                              "defaultValue" : 0.0,
                              "interp" : "linr"
                            },
                            "cursorOpacity" : {
                              "type" : "double",
                              "defaultValue" : 0.0,
                              "interp" : "linr"
                            },
                            "cursorTrackLevel" : {
                              "type" : "double",
                              "defaultValue" : 0.0,
                              "interp" : "linr"
                            },
                            "smoothCursorAcrossEditDuration" : 0
                          },
                          "effects" : [

                          ],
                          "start" : 41301120000,
                          "duration" : 1764000000,
                          "mediaStart" : 66467520000,
                          "mediaDuration" : 1764000000,
                          "scalar" : 1,
                          "metadata" : {
                            "AutoAppliedSmartFocus" : "False",
                            "audiateLinkedSession" : "",
                            "clipSpeedAttribute" : { "type": "bool", "value" : false},
                            "colorAttribute" : { "type": "color", "value" : [ 0, 0, 0, 0]},
                            "default-height" : { "type": "double", "value" : 1036.8},
                            "default-translation0" : { "type": "double", "value" : 0.0},
                            "default-translation1" : { "type": "double", "value" : -194.4},
                            "default-translation2" : { "type": "double", "value" : 0.0},
                            "default-width" : { "type": "double", "value" : 1932.67572815534}
                          },
                          "animationTracks" : {

                          }
                        },
                        {
                          "id" : 27,
                          "_type" : "ScreenVMFile",
                          "src" : 2,
                          "trackNumber" : 0,
                          "attributes" : {
                            "ident" : "Rec 4-22-2025-8-51-30-PM"
                          },
                          "parameters" : {
                            "geometryCrop0" : {
                              "type" : "double",
                              "defaultValue" : 0.0,
                              "interp" : "eioe"
                            },
                            "geometryCrop1" : {
                              "type" : "double",
                              "defaultValue" : 0.0,
                              "interp" : "eioe"
                            },
                            "geometryCrop2" : {
                              "type" : "double",
                              "defaultValue" : 0.0,
                              "interp" : "eioe"
                            },
                            "geometryCrop3" : {
                              "type" : "double",
                              "defaultValue" : 0.0,
                              "interp" : "eioe"
                            },
                            "cursorScale" : {
                              "type" : "double",
                              "defaultValue" : 0.0,
                              "interp" : "linr"
                            },
                            "cursorOpacity" : {
                              "type" : "double",
                              "defaultValue" : 0.0,
                              "interp" : "linr"
                            },
                            "cursorTrackLevel" : {
                              "type" : "double",
                              "defaultValue" : 0.0,
                              "interp" : "linr"
                            },
                            "smoothCursorAcrossEditDuration" : 0
                          },
                          "effects" : [

                          ],
                          "start" : 43065120000,
                          "duration" : 44899680000,
                          "mediaStart" : 68231520000,
                          "mediaDuration" : 44899680000,
                          "scalar" : 1,
                          "metadata" : {
                            "AutoAppliedSmartFocus" : "False",
                            "audiateLinkedSession" : "",
                            "clipSpeedAttribute" : { "type": "bool", "value" : false},
                            "colorAttribute" : { "type": "color", "value" : [ 0, 0, 0, 0]},
                            "default-height" : { "type": "double", "value" : 1036.8},
                            "default-translation0" : { "type": "double", "value" : 0.0},
                            "default-translation1" : { "type": "double", "value" : -194.4},
                            "default-translation2" : { "type": "double", "value" : 0.0},
                            "default-width" : { "type": "double", "value" : 1932.67572815534}
                          },
                          "animationTracks" : {

                          }
                        },
                        {
                          "id" : 28,
                          "_type" : "ScreenVMFile",
                          "src" : 2,
                          "trackNumber" : 0,
                          "attributes" : {
                            "ident" : "Rec 4-22-2025-8-51-30-PM"
                          },
                          "parameters" : {
                            "geometryCrop0" : {
                              "type" : "double",
                              "defaultValue" : 0.0,
                              "interp" : "eioe"
                            },
                            "geometryCrop1" : {
                              "type" : "double",
                              "defaultValue" : 0.0,
                              "interp" : "eioe"
                            },
                            "geometryCrop2" : {
                              "type" : "double",
                              "defaultValue" : 0.0,
                              "interp" : "eioe"
                            },
                            "geometryCrop3" : {
                              "type" : "double",
                              "defaultValue" : 0.0,
                              "interp" : "eioe"
                            },
                            "cursorScale" : {
                              "type" : "double",
                              "defaultValue" : 0.0,
                              "interp" : "linr"
                            },
                            "cursorOpacity" : {
                              "type" : "double",
                              "defaultValue" : 0.0,
                              "interp" : "linr"
                            },
                            "cursorTrackLevel" : {
                              "type" : "double",
                              "defaultValue" : 0.0,
                              "interp" : "linr"
                            },
                            "smoothCursorAcrossEditDuration" : 0
                          },
                          "effects" : [

                          ],
                          "start" : 87964800000,
                          "duration" : 352282560000,
                          "mediaStart" : 149352000000,
                          "mediaDuration" : 352282560000,
                          "scalar" : 1,
                          "metadata" : {
                            "AutoAppliedSmartFocus" : "False",
                            "audiateLinkedSession" : "",
                            "clipSpeedAttribute" : { "type": "bool", "value" : false},
                            "colorAttribute" : { "type": "color", "value" : [ 0, 0, 0, 0]},
                            "default-height" : { "type": "double", "value" : 1036.8},
                            "default-translation0" : { "type": "double", "value" : 0.0},
                            "default-translation1" : { "type": "double", "value" : -194.4},
                            "default-translation2" : { "type": "double", "value" : 0.0},
                            "default-width" : { "type": "double", "value" : 1932.67572815534}
                          },
                          "animationTracks" : {

                          }
                        },
                        {
                          "id" : 29,
                          "_type" : "ScreenVMFile",
                          "src" : 2,
                          "trackNumber" : 0,
                          "attributes" : {
                            "ident" : "Rec 4-22-2025-8-51-30-PM"
                          },
                          "parameters" : {
                            "geometryCrop0" : {
                              "type" : "double",
                              "defaultValue" : 0.0,
                              "interp" : "eioe"
                            },
                            "geometryCrop1" : {
                              "type" : "double",
                              "defaultValue" : 0.0,
                              "interp" : "eioe"
                            },
                            "geometryCrop2" : {
                              "type" : "double",
                              "defaultValue" : 0.0,
                              "interp" : "eioe"
                            },
                            "geometryCrop3" : {
                              "type" : "double",
                              "defaultValue" : 0.0,
                              "interp" : "eioe"
                            },
                            "cursorScale" : {
                              "type" : "double",
                              "defaultValue" : 0.0,
                              "interp" : "linr"
                            },
                            "cursorOpacity" : {
                              "type" : "double",
                              "defaultValue" : 0.0,
                              "interp" : "linr"
                            },
                            "cursorTrackLevel" : {
                              "type" : "double",
                              "defaultValue" : 0.0,
                              "interp" : "linr"
                            },
                            "smoothCursorAcrossEditDuration" : 0
                          },
                          "effects" : [

                          ],
                          "start" : 440247360000,
                          "duration" : 8961120000,
                          "mediaStart" : 509843040000,
                          "mediaDuration" : 8961120000,
                          "scalar" : 1,
                          "metadata" : {
                            "AutoAppliedSmartFocus" : "False",
                            "audiateLinkedSession" : "",
                            "clipSpeedAttribute" : { "type": "bool", "value" : false},
                            "colorAttribute" : { "type": "color", "value" : [ 0, 0, 0, 0]},
                            "default-height" : { "type": "double", "value" : 1036.8},
                            "default-translation0" : { "type": "double", "value" : 0.0},
                            "default-translation1" : { "type": "double", "value" : -194.4},
                            "default-translation2" : { "type": "double", "value" : 0.0},
                            "default-width" : { "type": "double", "value" : 1932.67572815534}
                          },
                          "animationTracks" : {

                          }
                        },
                        {
                          "id" : 30,
                          "_type" : "ScreenVMFile",
                          "src" : 2,
                          "trackNumber" : 0,
                          "attributes" : {
                            "ident" : "Rec 4-22-2025-8-51-30-PM"
                          },
                          "parameters" : {
                            "geometryCrop0" : {
                              "type" : "double",
                              "defaultValue" : 0.0,
                              "interp" : "eioe"
                            },
                            "geometryCrop1" : {
                              "type" : "double",
                              "defaultValue" : 0.0,
                              "interp" : "eioe"
                            },
                            "geometryCrop2" : {
                              "type" : "double",
                              "defaultValue" : 0.0,
                              "interp" : "eioe"
                            },
                            "geometryCrop3" : {
                              "type" : "double",
                              "defaultValue" : 0.0,
                              "interp" : "eioe"
                            },
                            "cursorScale" : {
                              "type" : "double",
                              "defaultValue" : 0.0,
                              "interp" : "linr"
                            },
                            "cursorOpacity" : {
                              "type" : "double",
                              "defaultValue" : 0.0,
                              "interp" : "linr"
                            },
                            "cursorTrackLevel" : {
                              "type" : "double",
                              "defaultValue" : 0.0,
                              "interp" : "linr"
                            },
                            "smoothCursorAcrossEditDuration" : 0
                          },
                          "effects" : [

                          ],
                          "start" : 449208480000,
                          "duration" : 581226240000,
                          "mediaStart" : 1416350880000,
                          "mediaDuration" : 581226240000,
                          "scalar" : 1,
                          "metadata" : {
                            "AutoAppliedSmartFocus" : "False",
                            "audiateLinkedSession" : "",
                            "clipSpeedAttribute" : { "type": "bool", "value" : false},
                            "colorAttribute" : { "type": "color", "value" : [ 0, 0, 0, 0]},
                            "default-height" : { "type": "double", "value" : 1036.8},
                            "default-translation0" : { "type": "double", "value" : 0.0},
                            "default-translation1" : { "type": "double", "value" : -194.4},
                            "default-translation2" : { "type": "double", "value" : 0.0},
                            "default-width" : { "type": "double", "value" : 1932.67572815534}
                          },
                          "animationTracks" : {

                          }
                        },
                        {
                          "id" : 31,
                          "_type" : "ScreenVMFile",
                          "src" : 2,
                          "trackNumber" : 0,
                          "attributes" : {
                            "ident" : "Rec 4-22-2025-8-51-30-PM"
                          },
                          "parameters" : {
                            "geometryCrop0" : {
                              "type" : "double",
                              "defaultValue" : 0.0,
                              "interp" : "eioe"
                            },
                            "geometryCrop1" : {
                              "type" : "double",
                              "defaultValue" : 0.0,
                              "interp" : "eioe"
                            },
                            "geometryCrop2" : {
                              "type" : "double",
                              "defaultValue" : 0.0,
                              "interp" : "eioe"
                            },
                            "geometryCrop3" : {
                              "type" : "double",
                              "defaultValue" : 0.0,
                              "interp" : "eioe"
                            },
                            "cursorScale" : {
                              "type" : "double",
                              "defaultValue" : 0.0,
                              "interp" : "linr"
                            },
                            "cursorOpacity" : {
                              "type" : "double",
                              "defaultValue" : 0.0,
                              "interp" : "linr"
                            },
                            "cursorTrackLevel" : {
                              "type" : "double",
                              "defaultValue" : 0.0,
                              "interp" : "linr"
                            },
                            "smoothCursorAcrossEditDuration" : 0
                          },
                          "effects" : [

                          ],
                          "start" : 1030434720000,
                          "duration" : 215419680000,
                          "mediaStart" : 2018886240000,
                          "mediaDuration" : 215419680000,
                          "scalar" : 1,
                          "metadata" : {
                            "AutoAppliedSmartFocus" : "False",
                            "audiateLinkedSession" : "",
                            "clipSpeedAttribute" : { "type": "bool", "value" : false},
                            "colorAttribute" : { "type": "color", "value" : [ 0, 0, 0, 0]},
                            "default-height" : { "type": "double", "value" : 1036.8},
                            "default-translation0" : { "type": "double", "value" : 0.0},
                            "default-translation1" : { "type": "double", "value" : -194.4},
                            "default-translation2" : { "type": "double", "value" : 0.0},
                            "default-width" : { "type": "double", "value" : 1932.67572815534}
                          },
                          "animationTracks" : {

                          }
                        },
                        {
                          "id" : 32,
                          "_type" : "ScreenVMFile",
                          "src" : 2,
                          "trackNumber" : 0,
                          "attributes" : {
                            "ident" : "Rec 4-22-2025-8-51-30-PM"
                          },
                          "parameters" : {
                            "geometryCrop0" : {
                              "type" : "double",
                              "defaultValue" : 0.0,
                              "interp" : "eioe"
                            },
                            "geometryCrop1" : {
                              "type" : "double",
                              "defaultValue" : 0.0,
                              "interp" : "eioe"
                            },
                            "geometryCrop2" : {
                              "type" : "double",
                              "defaultValue" : 0.0,
                              "interp" : "eioe"
                            },
                            "geometryCrop3" : {
                              "type" : "double",
                              "defaultValue" : 0.0,
                              "interp" : "eioe"
                            },
                            "cursorScale" : {
                              "type" : "double",
                              "defaultValue" : 0.0,
                              "interp" : "linr"
                            },
                            "cursorOpacity" : {
                              "type" : "double",
                              "defaultValue" : 0.0,
                              "interp" : "linr"
                            },
                            "cursorTrackLevel" : {
                              "type" : "double",
                              "defaultValue" : 0.0,
                              "interp" : "linr"
                            },
                            "smoothCursorAcrossEditDuration" : 0
                          },
                          "effects" : [

                          ],
                          "start" : 1245854400000,
                          "duration" : 786955680000,
                          "mediaStart" : 2257778880000,
                          "mediaDuration" : 786955680000,
                          "scalar" : 1,
                          "metadata" : {
                            "AutoAppliedSmartFocus" : "False",
                            "audiateLinkedSession" : "",
                            "clipSpeedAttribute" : { "type": "bool", "value" : false},
                            "colorAttribute" : { "type": "color", "value" : [ 0, 0, 0, 0]},
                            "default-height" : { "type": "double", "value" : 1036.8},
                            "default-translation0" : { "type": "double", "value" : 0.0},
                            "default-translation1" : { "type": "double", "value" : -194.4},
                            "default-translation2" : { "type": "double", "value" : 0.0},
                            "default-width" : { "type": "double", "value" : 1932.67572815534}
                          },
                          "animationTracks" : {

                          }
                        },
                        {
                          "id" : 33,
                          "_type" : "ScreenVMFile",
                          "src" : 2,
                          "trackNumber" : 0,
                          "attributes" : {
                            "ident" : "Rec 4-22-2025-8-51-30-PM"
                          },
                          "parameters" : {
                            "geometryCrop0" : {
                              "type" : "double",
                              "defaultValue" : 0.0,
                              "interp" : "eioe"
                            },
                            "geometryCrop1" : {
                              "type" : "double",
                              "defaultValue" : 0.0,
                              "interp" : "eioe"
                            },
                            "geometryCrop2" : {
                              "type" : "double",
                              "defaultValue" : 0.0,
                              "interp" : "eioe"
                            },
                            "geometryCrop3" : {
                              "type" : "double",
                              "defaultValue" : 0.0,
                              "interp" : "eioe"
                            },
                            "cursorScale" : {
                              "type" : "double",
                              "defaultValue" : 0.0,
                              "interp" : "linr"
                            },
                            "cursorOpacity" : {
                              "type" : "double",
                              "defaultValue" : 0.0,
                              "interp" : "linr"
                            },
                            "cursorTrackLevel" : {
                              "type" : "double",
                              "defaultValue" : 0.0,
                              "interp" : "linr"
                            },
                            "smoothCursorAcrossEditDuration" : 0
                          },
                          "effects" : [

                          ],
                          "start" : 2032810080000,
                          "duration" : 20768160000,
                          "mediaStart" : 3047580480000,
                          "mediaDuration" : 20768160000,
                          "scalar" : 1,
                          "metadata" : {
                            "AutoAppliedSmartFocus" : "False",
                            "audiateLinkedSession" : "",
                            "clipSpeedAttribute" : { "type": "bool", "value" : false},
                            "colorAttribute" : { "type": "color", "value" : [ 0, 0, 0, 0]},
                            "default-height" : { "type": "double", "value" : 1036.8},
                            "default-translation0" : { "type": "double", "value" : 0.0},
                            "default-translation1" : { "type": "double", "value" : -194.4},
                            "default-translation2" : { "type": "double", "value" : 0.0},
                            "default-width" : { "type": "double", "value" : 1932.67572815534}
                          },
                          "animationTracks" : {

                          }
                        },
                        {
                          "id" : 34,
                          "_type" : "ScreenVMFile",
                          "src" : 2,
                          "trackNumber" : 0,
                          "attributes" : {
                            "ident" : "Rec 4-22-2025-8-51-30-PM"
                          },
                          "parameters" : {
                            "geometryCrop0" : {
                              "type" : "double",
                              "defaultValue" : 0.0,
                              "interp" : "eioe"
                            },
                            "geometryCrop1" : {
                              "type" : "double",
                              "defaultValue" : 0.0,
                              "interp" : "eioe"
                            },
                            "geometryCrop2" : {
                              "type" : "double",
                              "defaultValue" : 0.0,
                              "interp" : "eioe"
                            },
                            "geometryCrop3" : {
                              "type" : "double",
                              "defaultValue" : 0.0,
                              "interp" : "eioe"
                            },
                            "cursorScale" : {
                              "type" : "double",
                              "defaultValue" : 0.0,
                              "interp" : "linr"
                            },
                            "cursorOpacity" : {
                              "type" : "double",
                              "defaultValue" : 0.0,
                              "interp" : "linr"
                            },
                            "cursorTrackLevel" : {
                              "type" : "double",
                              "defaultValue" : 0.0,
                              "interp" : "linr"
                            },
                            "smoothCursorAcrossEditDuration" : 0
                          },
                          "effects" : [

                          ],
                          "start" : 2053578240000,
                          "duration" : 343039200000,
                          "mediaStart" : 3138932160000,
                          "mediaDuration" : 343039200000,
                          "scalar" : 1,
                          "metadata" : {
                            "AutoAppliedSmartFocus" : "False",
                            "audiateLinkedSession" : "",
                            "clipSpeedAttribute" : { "type": "bool", "value" : false},
                            "colorAttribute" : { "type": "color", "value" : [ 0, 0, 0, 0]},
                            "default-height" : { "type": "double", "value" : 1036.8},
                            "default-translation0" : { "type": "double", "value" : 0.0},
                            "default-translation1" : { "type": "double", "value" : -194.4},
                            "default-translation2" : { "type": "double", "value" : 0.0},
                            "default-width" : { "type": "double", "value" : 1932.67572815534}
                          },
                          "animationTracks" : {

                          }
                        }
                    ],
                    "effects" : [

                    ],
                    "start" : 4257120000,
                    "duration" : 1364160000,
                    "mediaStart" : 26365920000,
                    "mediaDuration" : 2540160000,
                    "scalar" : "29/54",
                    "metadata" : {
                      "AutoAppliedSmartFocus" : "False",
                      "audiateLinkedSession" : "",
                      "clipSpeedAttribute" : { "type": "bool", "value" : true},
                      "colorAttribute" : { "type": "color", "value" : [ 0, 0, 0, 0]},
                      "default-height" : { "type": "double", "value" : 1036.8},
                      "default-translation0" : { "type": "double", "value" : 0.0},
                      "default-translation1" : { "type": "double", "value" : -194.4},
                      "default-translation2" : { "type": "double", "value" : 0.0},
                      "default-width" : { "type": "double", "value" : 1932.67572815534}
                    },
                    "animationTracks" : {

                    }
                  },
                  {
                    "id" : 35,
                    "_type" : "StitchedMedia",
                    "minMediaStart" : 0,
                    "attributes" : {
                      "ident" : "Rec 4-22-2025-8-51-30-PM",
                      "gain" : 1.0,
                      "mixToMono" : false,
                      "loudnessNormalization" : true,
                      "sourceFileOffset" : 0
                    },
                    "parameters" : {
                      "translation0" : 6.33786407766917,
                      "translation1" : -2.8421709430404e-14,
                      "scale0" : 0.503300970873786,
                      "scale1" : 0.503300970873786,
                      "geometryCrop0" : 0.0,
                      "geometryCrop1" : 0.0,
                      "geometryCrop2" : 0.0,
                      "geometryCrop3" : 0.0,
                      "toc" : {
                        "type" : "string",
                        "keyframes" : [
                          {
                            "endTime" : 49650720000,
                            "time" : 49650720000,
                            "value" : "Write to assign issue",
                            "duration" : 0,
                            "metadata" : {
                              "markerIdentifier" : "DE8D173E-649A-4236-8C67-147E46E845D7"
                            }
                          }
                        ]
                      },
                      "cursorOpacity" : 1.0,
                      "cursorTrackLevel" : 0.0,
                      "cursorScale" : 5.0,
                      "smoothCursorAcrossEditDuration" : 0
                    },
                    "medias" : [
                        {
                          "id" : 36,
                          "_type" : "ScreenVMFile",
                          "src" : 2,
                          "trackNumber" : 0,
                          "attributes" : {
                            "ident" : "Rec 4-22-2025-8-51-30-PM"
                          },
                          "parameters" : {
                            "geometryCrop0" : {
                              "type" : "double",
                              "defaultValue" : 0.0,
                              "interp" : "eioe"
                            },
                            "geometryCrop1" : {
                              "type" : "double",
                              "defaultValue" : 0.0,
                              "interp" : "eioe"
                            },
                            "geometryCrop2" : {
                              "type" : "double",
                              "defaultValue" : 0.0,
                              "interp" : "eioe"
                            },
                            "geometryCrop3" : {
                              "type" : "double",
                              "defaultValue" : 0.0,
                              "interp" : "eioe"
                            },
                            "cursorScale" : {
                              "type" : "double",
                              "defaultValue" : 0.0,
                              "interp" : "linr"
                            },
                            "cursorOpacity" : {
                              "type" : "double",
                              "defaultValue" : 0.0,
                              "interp" : "linr"
                            },
                            "cursorTrackLevel" : {
                              "type" : "double",
                              "defaultValue" : 0.0,
                              "interp" : "linr"
                            },
                            "smoothCursorAcrossEditDuration" : 0
                          },
                          "effects" : [

                          ],
                          "start" : 0,
                          "duration" : 15005760000,
                          "mediaStart" : 0,
                          "mediaDuration" : 15005760000,
                          "scalar" : 1,
                          "metadata" : {
                            "AutoAppliedSmartFocus" : "False",
                            "audiateLinkedSession" : "",
                            "clipSpeedAttribute" : { "type": "bool", "value" : false},
                            "colorAttribute" : { "type": "color", "value" : [ 0, 0, 0, 0]},
                            "default-height" : { "type": "double", "value" : 1036.8},
                            "default-translation0" : { "type": "double", "value" : 0.0},
                            "default-translation1" : { "type": "double", "value" : -194.4},
                            "default-translation2" : { "type": "double", "value" : 0.0},
                            "default-width" : { "type": "double", "value" : 1932.67572815534}
                          },
                          "animationTracks" : {

                          }
                        },
                        {
                          "id" : 37,
                          "_type" : "ScreenVMFile",
                          "src" : 2,
                          "trackNumber" : 0,
                          "attributes" : {
                            "ident" : "Rec 4-22-2025-8-51-30-PM"
                          },
                          "parameters" : {
                            "geometryCrop0" : {
                              "type" : "double",
                              "defaultValue" : 0.0,
                              "interp" : "eioe"
                            },
                            "geometryCrop1" : {
                              "type" : "double",
                              "defaultValue" : 0.0,
                              "interp" : "eioe"
                            },
                            "geometryCrop2" : {
                              "type" : "double",
                              "defaultValue" : 0.0,
                              "interp" : "eioe"
                            },
                            "geometryCrop3" : {
                              "type" : "double",
                              "defaultValue" : 0.0,
                              "interp" : "eioe"
                            },
                            "cursorScale" : {
                              "type" : "double",
                              "defaultValue" : 0.0,
                              "interp" : "linr"
                            },
                            "cursorOpacity" : {
                              "type" : "double",
                              "defaultValue" : 0.0,
                              "interp" : "linr"
                            },
                            "cursorTrackLevel" : {
                              "type" : "double",
                              "defaultValue" : 0.0,
                              "interp" : "linr"
                            },
                            "smoothCursorAcrossEditDuration" : 0
                          },
                          "effects" : [

                          ],
                          "start" : 15005760000,
                          "duration" : 4515840000,
                          "mediaStart" : 15005760000,
                          "mediaDuration" : 4515840000,
                          "scalar" : 1,
                          "metadata" : {
                            "AutoAppliedSmartFocus" : "False",
                            "audiateLinkedSession" : "",
                            "clipSpeedAttribute" : { "type": "bool", "value" : false},
                            "colorAttribute" : { "type": "color", "value" : [ 0, 0, 0, 0]},
                            "default-height" : { "type": "double", "value" : 1036.8},
                            "default-translation0" : { "type": "double", "value" : 0.0},
                            "default-translation1" : { "type": "double", "value" : -194.4},
                            "default-translation2" : { "type": "double", "value" : 0.0},
                            "default-width" : { "type": "double", "value" : 1932.67572815534}
                          },
                          "animationTracks" : {

                          }
                        },
                        {
                          "id" : 38,
                          "_type" : "ScreenVMFile",
                          "src" : 2,
                          "trackNumber" : 0,
                          "attributes" : {
                            "ident" : "Rec 4-22-2025-8-51-30-PM"
                          },
                          "parameters" : {
                            "geometryCrop0" : {
                              "type" : "double",
                              "defaultValue" : 0.0,
                              "interp" : "eioe"
                            },
                            "geometryCrop1" : {
                              "type" : "double",
                              "defaultValue" : 0.0,
                              "interp" : "eioe"
                            },
                            "geometryCrop2" : {
                              "type" : "double",
                              "defaultValue" : 0.0,
                              "interp" : "eioe"
                            },
                            "geometryCrop3" : {
                              "type" : "double",
                              "defaultValue" : 0.0,
                              "interp" : "eioe"
                            },
                            "cursorScale" : {
                              "type" : "double",
                              "defaultValue" : 0.0,
                              "interp" : "linr"
                            },
                            "cursorOpacity" : {
                              "type" : "double",
                              "defaultValue" : 0.0,
                              "interp" : "linr"
                            },
                            "cursorTrackLevel" : {
                              "type" : "double",
                              "defaultValue" : 0.0,
                              "interp" : "linr"
                            },
                            "smoothCursorAcrossEditDuration" : 0
                          },
                          "effects" : [

                          ],
                          "start" : 19521600000,
                          "duration" : 4892160000,
                          "mediaStart" : 19521600000,
                          "mediaDuration" : 4892160000,
                          "scalar" : 1,
                          "metadata" : {
                            "AutoAppliedSmartFocus" : "False",
                            "audiateLinkedSession" : "",
                            "clipSpeedAttribute" : { "type": "bool", "value" : false},
                            "colorAttribute" : { "type": "color", "value" : [ 0, 0, 0, 0]},
                            "default-height" : { "type": "double", "value" : 1036.8},
                            "default-translation0" : { "type": "double", "value" : 0.0},
                            "default-translation1" : { "type": "double", "value" : -194.4},
                            "default-translation2" : { "type": "double", "value" : 0.0},
                            "default-width" : { "type": "double", "value" : 1932.67572815534}
                          },
                          "animationTracks" : {

                          }
                        },
                        {
                          "id" : 39,
                          "_type" : "ScreenVMFile",
                          "src" : 2,
                          "trackNumber" : 0,
                          "attributes" : {
                            "ident" : "Rec 4-22-2025-8-51-30-PM"
                          },
                          "parameters" : {
                            "geometryCrop0" : {
                              "type" : "double",
                              "defaultValue" : 0.0,
                              "interp" : "eioe"
                            },
                            "geometryCrop1" : {
                              "type" : "double",
                              "defaultValue" : 0.0,
                              "interp" : "eioe"
                            },
                            "geometryCrop2" : {
                              "type" : "double",
                              "defaultValue" : 0.0,
                              "interp" : "eioe"
                            },
                            "geometryCrop3" : {
                              "type" : "double",
                              "defaultValue" : 0.0,
                              "interp" : "eioe"
                            },
                            "cursorScale" : {
                              "type" : "double",
                              "defaultValue" : 0.0,
                              "interp" : "linr"
                            },
                            "cursorOpacity" : {
                              "type" : "double",
                              "defaultValue" : 0.0,
                              "interp" : "linr"
                            },
                            "cursorTrackLevel" : {
                              "type" : "double",
                              "defaultValue" : 0.0,
                              "interp" : "linr"
                            },
                            "smoothCursorAcrossEditDuration" : 0
                          },
                          "effects" : [

                          ],
                          "start" : 24413760000,
                          "duration" : 5668320000,
                          "mediaStart" : 24413760000,
                          "mediaDuration" : 5668320000,
                          "scalar" : 1,
                          "metadata" : {
                            "AutoAppliedSmartFocus" : "False",
                            "audiateLinkedSession" : "",
                            "clipSpeedAttribute" : { "type": "bool", "value" : false},
                            "colorAttribute" : { "type": "color", "value" : [ 0, 0, 0, 0]},
                            "default-height" : { "type": "double", "value" : 1036.8},
                            "default-translation0" : { "type": "double", "value" : 0.0},
                            "default-translation1" : { "type": "double", "value" : -194.4},
                            "default-translation2" : { "type": "double", "value" : 0.0},
                            "default-width" : { "type": "double", "value" : 1932.67572815534}
                          },
                          "animationTracks" : {

                          }
                        },
                        {
                          "id" : 40,
                          "_type" : "ScreenVMFile",
                          "src" : 2,
                          "trackNumber" : 0,
                          "attributes" : {
                            "ident" : "Rec 4-22-2025-8-51-30-PM"
                          },
                          "parameters" : {
                            "geometryCrop0" : {
                              "type" : "double",
                              "defaultValue" : 0.0,
                              "interp" : "eioe"
                            },
                            "geometryCrop1" : {
                              "type" : "double",
                              "defaultValue" : 0.0,
                              "interp" : "eioe"
                            },
                            "geometryCrop2" : {
                              "type" : "double",
                              "defaultValue" : 0.0,
                              "interp" : "eioe"
                            },
                            "geometryCrop3" : {
                              "type" : "double",
                              "defaultValue" : 0.0,
                              "interp" : "eioe"
                            },
                            "cursorScale" : {
                              "type" : "double",
                              "defaultValue" : 0.0,
                              "interp" : "linr"
                            },
                            "cursorOpacity" : {
                              "type" : "double",
                              "defaultValue" : 0.0,
                              "interp" : "linr"
                            },
                            "cursorTrackLevel" : {
                              "type" : "double",
                              "defaultValue" : 0.0,
                              "interp" : "linr"
                            },
                            "smoothCursorAcrossEditDuration" : 0
                          },
                          "effects" : [

                          ],
                          "start" : 30082080000,
                          "duration" : 11219040000,
                          "mediaStart" : 39772320000,
                          "mediaDuration" : 11219040000,
                          "scalar" : 1,
                          "metadata" : {
                            "AutoAppliedSmartFocus" : "False",
                            "audiateLinkedSession" : "",
                            "clipSpeedAttribute" : { "type": "bool", "value" : false},
                            "colorAttribute" : { "type": "color", "value" : [ 0, 0, 0, 0]},
                            "default-height" : { "type": "double", "value" : 1036.8},
                            "default-translation0" : { "type": "double", "value" : 0.0},
                            "default-translation1" : { "type": "double", "value" : -194.4},
                            "default-translation2" : { "type": "double", "value" : 0.0},
                            "default-width" : { "type": "double", "value" : 1932.67572815534}
                          },
                          "animationTracks" : {

                          }
                        },
                        {
                          "id" : 41,
                          "_type" : "ScreenVMFile",
                          "src" : 2,
                          "trackNumber" : 0,
                          "attributes" : {
                            "ident" : "Rec 4-22-2025-8-51-30-PM"
                          },
                          "parameters" : {
                            "geometryCrop0" : {
                              "type" : "double",
                              "defaultValue" : 0.0,
                              "interp" : "eioe"
                            },
                            "geometryCrop1" : {
                              "type" : "double",
                              "defaultValue" : 0.0,
                              "interp" : "eioe"
                            },
                            "geometryCrop2" : {
                              "type" : "double",
                              "defaultValue" : 0.0,
                              "interp" : "eioe"
                            },
                            "geometryCrop3" : {
                              "type" : "double",
                              "defaultValue" : 0.0,
                              "interp" : "eioe"
                            },
                            "cursorScale" : {
                              "type" : "double",
                              "defaultValue" : 0.0,
                              "interp" : "linr"
                            },
                            "cursorOpacity" : {
                              "type" : "double",
                              "defaultValue" : 0.0,
                              "interp" : "linr"
                            },
                            "cursorTrackLevel" : {
                              "type" : "double",
                              "defaultValue" : 0.0,
                              "interp" : "linr"
                            },
                            "smoothCursorAcrossEditDuration" : 0
                          },
                          "effects" : [

                          ],
                          "start" : 41301120000,
                          "duration" : 1764000000,
                          "mediaStart" : 66467520000,
                          "mediaDuration" : 1764000000,
                          "scalar" : 1,
                          "metadata" : {
                            "AutoAppliedSmartFocus" : "False",
                            "audiateLinkedSession" : "",
                            "clipSpeedAttribute" : { "type": "bool", "value" : false},
                            "colorAttribute" : { "type": "color", "value" : [ 0, 0, 0, 0]},
                            "default-height" : { "type": "double", "value" : 1036.8},
                            "default-translation0" : { "type": "double", "value" : 0.0},
                            "default-translation1" : { "type": "double", "value" : -194.4},
                            "default-translation2" : { "type": "double", "value" : 0.0},
                            "default-width" : { "type": "double", "value" : 1932.67572815534}
                          },
                          "animationTracks" : {

                          }
                        },
                        {
                          "id" : 42,
                          "_type" : "ScreenVMFile",
                          "src" : 2,
                          "trackNumber" : 0,
                          "attributes" : {
                            "ident" : "Rec 4-22-2025-8-51-30-PM"
                          },
                          "parameters" : {
                            "geometryCrop0" : {
                              "type" : "double",
                              "defaultValue" : 0.0,
                              "interp" : "eioe"
                            },
                            "geometryCrop1" : {
                              "type" : "double",
                              "defaultValue" : 0.0,
                              "interp" : "eioe"
                            },
                            "geometryCrop2" : {
                              "type" : "double",
                              "defaultValue" : 0.0,
                              "interp" : "eioe"
                            },
                            "geometryCrop3" : {
                              "type" : "double",
                              "defaultValue" : 0.0,
                              "interp" : "eioe"
                            },
                            "cursorScale" : {
                              "type" : "double",
                              "defaultValue" : 0.0,
                              "interp" : "linr"
                            },
                            "cursorOpacity" : {
                              "type" : "double",
                              "defaultValue" : 0.0,
                              "interp" : "linr"
                            },
                            "cursorTrackLevel" : {
                              "type" : "double",
                              "defaultValue" : 0.0,
                              "interp" : "linr"
                            },
                            "smoothCursorAcrossEditDuration" : 0
                          },
                          "effects" : [

                          ],
                          "start" : 43065120000,
                          "duration" : 44899680000,
                          "mediaStart" : 68231520000,
                          "mediaDuration" : 44899680000,
                          "scalar" : 1,
                          "metadata" : {
                            "AutoAppliedSmartFocus" : "False",
                            "audiateLinkedSession" : "",
                            "clipSpeedAttribute" : { "type": "bool", "value" : false},
                            "colorAttribute" : { "type": "color", "value" : [ 0, 0, 0, 0]},
                            "default-height" : { "type": "double", "value" : 1036.8},
                            "default-translation0" : { "type": "double", "value" : 0.0},
                            "default-translation1" : { "type": "double", "value" : -194.4},
                            "default-translation2" : { "type": "double", "value" : 0.0},
                            "default-width" : { "type": "double", "value" : 1932.67572815534}
                          },
                          "animationTracks" : {

                          }
                        },
                        {
                          "id" : 43,
                          "_type" : "ScreenVMFile",
                          "src" : 2,
                          "trackNumber" : 0,
                          "attributes" : {
                            "ident" : "Rec 4-22-2025-8-51-30-PM"
                          },
                          "parameters" : {
                            "geometryCrop0" : {
                              "type" : "double",
                              "defaultValue" : 0.0,
                              "interp" : "eioe"
                            },
                            "geometryCrop1" : {
                              "type" : "double",
                              "defaultValue" : 0.0,
                              "interp" : "eioe"
                            },
                            "geometryCrop2" : {
                              "type" : "double",
                              "defaultValue" : 0.0,
                              "interp" : "eioe"
                            },
                            "geometryCrop3" : {
                              "type" : "double",
                              "defaultValue" : 0.0,
                              "interp" : "eioe"
                            },
                            "cursorScale" : {
                              "type" : "double",
                              "defaultValue" : 0.0,
                              "interp" : "linr"
                            },
                            "cursorOpacity" : {
                              "type" : "double",
                              "defaultValue" : 0.0,
                              "interp" : "linr"
                            },
                            "cursorTrackLevel" : {
                              "type" : "double",
                              "defaultValue" : 0.0,
                              "interp" : "linr"
                            },
                            "smoothCursorAcrossEditDuration" : 0
                          },
                          "effects" : [

                          ],
                          "start" : 87964800000,
                          "duration" : 352282560000,
                          "mediaStart" : 149352000000,
                          "mediaDuration" : 352282560000,
                          "scalar" : 1,
                          "metadata" : {
                            "AutoAppliedSmartFocus" : "False",
                            "audiateLinkedSession" : "",
                            "clipSpeedAttribute" : { "type": "bool", "value" : false},
                            "colorAttribute" : { "type": "color", "value" : [ 0, 0, 0, 0]},
                            "default-height" : { "type": "double", "value" : 1036.8},
                            "default-translation0" : { "type": "double", "value" : 0.0},
                            "default-translation1" : { "type": "double", "value" : -194.4},
                            "default-translation2" : { "type": "double", "value" : 0.0},
                            "default-width" : { "type": "double", "value" : 1932.67572815534}
                          },
                          "animationTracks" : {

                          }
                        },
                        {
                          "id" : 44,
                          "_type" : "ScreenVMFile",
                          "src" : 2,
                          "trackNumber" : 0,
                          "attributes" : {
                            "ident" : "Rec 4-22-2025-8-51-30-PM"
                          },
                          "parameters" : {
                            "geometryCrop0" : {
                              "type" : "double",
                              "defaultValue" : 0.0,
                              "interp" : "eioe"
                            },
                            "geometryCrop1" : {
                              "type" : "double",
                              "defaultValue" : 0.0,
                              "interp" : "eioe"
                            },
                            "geometryCrop2" : {
                              "type" : "double",
                              "defaultValue" : 0.0,
                              "interp" : "eioe"
                            },
                            "geometryCrop3" : {
                              "type" : "double",
                              "defaultValue" : 0.0,
                              "interp" : "eioe"
                            },
                            "cursorScale" : {
                              "type" : "double",
                              "defaultValue" : 0.0,
                              "interp" : "linr"
                            },
                            "cursorOpacity" : {
                              "type" : "double",
                              "defaultValue" : 0.0,
                              "interp" : "linr"
                            },
                            "cursorTrackLevel" : {
                              "type" : "double",
                              "defaultValue" : 0.0,
                              "interp" : "linr"
                            },
                            "smoothCursorAcrossEditDuration" : 0
                          },
                          "effects" : [

                          ],
                          "start" : 440247360000,
                          "duration" : 8961120000,
                          "mediaStart" : 509843040000,
                          "mediaDuration" : 8961120000,
                          "scalar" : 1,
                          "metadata" : {
                            "AutoAppliedSmartFocus" : "False",
                            "audiateLinkedSession" : "",
                            "clipSpeedAttribute" : { "type": "bool", "value" : false},
                            "colorAttribute" : { "type": "color", "value" : [ 0, 0, 0, 0]},
                            "default-height" : { "type": "double", "value" : 1036.8},
                            "default-translation0" : { "type": "double", "value" : 0.0},
                            "default-translation1" : { "type": "double", "value" : -194.4},
                            "default-translation2" : { "type": "double", "value" : 0.0},
                            "default-width" : { "type": "double", "value" : 1932.67572815534}
                          },
                          "animationTracks" : {

                          }
                        },
                        {
                          "id" : 45,
                          "_type" : "ScreenVMFile",
                          "src" : 2,
                          "trackNumber" : 0,
                          "attributes" : {
                            "ident" : "Rec 4-22-2025-8-51-30-PM"
                          },
                          "parameters" : {
                            "geometryCrop0" : {
                              "type" : "double",
                              "defaultValue" : 0.0,
                              "interp" : "eioe"
                            },
                            "geometryCrop1" : {
                              "type" : "double",
                              "defaultValue" : 0.0,
                              "interp" : "eioe"
                            },
                            "geometryCrop2" : {
                              "type" : "double",
                              "defaultValue" : 0.0,
                              "interp" : "eioe"
                            },
                            "geometryCrop3" : {
                              "type" : "double",
                              "defaultValue" : 0.0,
                              "interp" : "eioe"
                            },
                            "cursorScale" : {
                              "type" : "double",
                              "defaultValue" : 0.0,
                              "interp" : "linr"
                            },
                            "cursorOpacity" : {
                              "type" : "double",
                              "defaultValue" : 0.0,
                              "interp" : "linr"
                            },
                            "cursorTrackLevel" : {
                              "type" : "double",
                              "defaultValue" : 0.0,
                              "interp" : "linr"
                            },
                            "smoothCursorAcrossEditDuration" : 0
                          },
                          "effects" : [

                          ],
                          "start" : 449208480000,
                          "duration" : 581226240000,
                          "mediaStart" : 1416350880000,
                          "mediaDuration" : 581226240000,
                          "scalar" : 1,
                          "metadata" : {
                            "AutoAppliedSmartFocus" : "False",
                            "audiateLinkedSession" : "",
                            "clipSpeedAttribute" : { "type": "bool", "value" : false},
                            "colorAttribute" : { "type": "color", "value" : [ 0, 0, 0, 0]},
                            "default-height" : { "type": "double", "value" : 1036.8},
                            "default-translation0" : { "type": "double", "value" : 0.0},
                            "default-translation1" : { "type": "double", "value" : -194.4},
                            "default-translation2" : { "type": "double", "value" : 0.0},
                            "default-width" : { "type": "double", "value" : 1932.67572815534}
                          },
                          "animationTracks" : {

                          }
                        },
                        {
                          "id" : 46,
                          "_type" : "ScreenVMFile",
                          "src" : 2,
                          "trackNumber" : 0,
                          "attributes" : {
                            "ident" : "Rec 4-22-2025-8-51-30-PM"
                          },
                          "parameters" : {
                            "geometryCrop0" : {
                              "type" : "double",
                              "defaultValue" : 0.0,
                              "interp" : "eioe"
                            },
                            "geometryCrop1" : {
                              "type" : "double",
                              "defaultValue" : 0.0,
                              "interp" : "eioe"
                            },
                            "geometryCrop2" : {
                              "type" : "double",
                              "defaultValue" : 0.0,
                              "interp" : "eioe"
                            },
                            "geometryCrop3" : {
                              "type" : "double",
                              "defaultValue" : 0.0,
                              "interp" : "eioe"
                            },
                            "cursorScale" : {
                              "type" : "double",
                              "defaultValue" : 0.0,
                              "interp" : "linr"
                            },
                            "cursorOpacity" : {
                              "type" : "double",
                              "defaultValue" : 0.0,
                              "interp" : "linr"
                            },
                            "cursorTrackLevel" : {
                              "type" : "double",
                              "defaultValue" : 0.0,
                              "interp" : "linr"
                            },
                            "smoothCursorAcrossEditDuration" : 0
                          },
                          "effects" : [

                          ],
                          "start" : 1030434720000,
                          "duration" : 215419680000,
                          "mediaStart" : 2018886240000,
                          "mediaDuration" : 215419680000,
                          "scalar" : 1,
                          "metadata" : {
                            "AutoAppliedSmartFocus" : "False",
                            "audiateLinkedSession" : "",
                            "clipSpeedAttribute" : { "type": "bool", "value" : false},
                            "colorAttribute" : { "type": "color", "value" : [ 0, 0, 0, 0]},
                            "default-height" : { "type": "double", "value" : 1036.8},
                            "default-translation0" : { "type": "double", "value" : 0.0},
                            "default-translation1" : { "type": "double", "value" : -194.4},
                            "default-translation2" : { "type": "double", "value" : 0.0},
                            "default-width" : { "type": "double", "value" : 1932.67572815534}
                          },
                          "animationTracks" : {

                          }
                        },
                        {
                          "id" : 47,
                          "_type" : "ScreenVMFile",
                          "src" : 2,
                          "trackNumber" : 0,
                          "attributes" : {
                            "ident" : "Rec 4-22-2025-8-51-30-PM"
                          },
                          "parameters" : {
                            "geometryCrop0" : {
                              "type" : "double",
                              "defaultValue" : 0.0,
                              "interp" : "eioe"
                            },
                            "geometryCrop1" : {
                              "type" : "double",
                              "defaultValue" : 0.0,
                              "interp" : "eioe"
                            },
                            "geometryCrop2" : {
                              "type" : "double",
                              "defaultValue" : 0.0,
                              "interp" : "eioe"
                            },
                            "geometryCrop3" : {
                              "type" : "double",
                              "defaultValue" : 0.0,
                              "interp" : "eioe"
                            },
                            "cursorScale" : {
                              "type" : "double",
                              "defaultValue" : 0.0,
                              "interp" : "linr"
                            },
                            "cursorOpacity" : {
                              "type" : "double",
                              "defaultValue" : 0.0,
                              "interp" : "linr"
                            },
                            "cursorTrackLevel" : {
                              "type" : "double",
                              "defaultValue" : 0.0,
                              "interp" : "linr"
                            },
                            "smoothCursorAcrossEditDuration" : 0
                          },
                          "effects" : [

                          ],
                          "start" : 1245854400000,
                          "duration" : 786955680000,
                          "mediaStart" : 2257778880000,
                          "mediaDuration" : 786955680000,
                          "scalar" : 1,
                          "metadata" : {
                            "AutoAppliedSmartFocus" : "False",
                            "audiateLinkedSession" : "",
                            "clipSpeedAttribute" : { "type": "bool", "value" : false},
                            "colorAttribute" : { "type": "color", "value" : [ 0, 0, 0, 0]},
                            "default-height" : { "type": "double", "value" : 1036.8},
                            "default-translation0" : { "type": "double", "value" : 0.0},
                            "default-translation1" : { "type": "double", "value" : -194.4},
                            "default-translation2" : { "type": "double", "value" : 0.0},
                            "default-width" : { "type": "double", "value" : 1932.67572815534}
                          },
                          "animationTracks" : {

                          }
                        },
                        {
                          "id" : 48,
                          "_type" : "ScreenVMFile",
                          "src" : 2,
                          "trackNumber" : 0,
                          "attributes" : {
                            "ident" : "Rec 4-22-2025-8-51-30-PM"
                          },
                          "parameters" : {
                            "geometryCrop0" : {
                              "type" : "double",
                              "defaultValue" : 0.0,
                              "interp" : "eioe"
                            },
                            "geometryCrop1" : {
                              "type" : "double",
                              "defaultValue" : 0.0,
                              "interp" : "eioe"
                            },
                            "geometryCrop2" : {
                              "type" : "double",
                              "defaultValue" : 0.0,
                              "interp" : "eioe"
                            },
                            "geometryCrop3" : {
                              "type" : "double",
                              "defaultValue" : 0.0,
                              "interp" : "eioe"
                            },
                            "cursorScale" : {
                              "type" : "double",
                              "defaultValue" : 0.0,
                              "interp" : "linr"
                            },
                            "cursorOpacity" : {
                              "type" : "double",
                              "defaultValue" : 0.0,
                              "interp" : "linr"
                            },
                            "cursorTrackLevel" : {
                              "type" : "double",
                              "defaultValue" : 0.0,
                              "interp" : "linr"
                            },
                            "smoothCursorAcrossEditDuration" : 0
                          },
                          "effects" : [

                          ],
                          "start" : 2032810080000,
                          "duration" : 20768160000,
                          "mediaStart" : 3047580480000,
                          "mediaDuration" : 20768160000,
                          "scalar" : 1,
                          "metadata" : {
                            "AutoAppliedSmartFocus" : "False",
                            "audiateLinkedSession" : "",
                            "clipSpeedAttribute" : { "type": "bool", "value" : false},
                            "colorAttribute" : { "type": "color", "value" : [ 0, 0, 0, 0]},
                            "default-height" : { "type": "double", "value" : 1036.8},
                            "default-translation0" : { "type": "double", "value" : 0.0},
                            "default-translation1" : { "type": "double", "value" : -194.4},
                            "default-translation2" : { "type": "double", "value" : 0.0},
                            "default-width" : { "type": "double", "value" : 1932.67572815534}
                          },
                          "animationTracks" : {

                          }
                        },
                        {
                          "id" : 49,
                          "_type" : "ScreenVMFile",
                          "src" : 2,
                          "trackNumber" : 0,
                          "attributes" : {
                            "ident" : "Rec 4-22-2025-8-51-30-PM"
                          },
                          "parameters" : {
                            "geometryCrop0" : {
                              "type" : "double",
                              "defaultValue" : 0.0,
                              "interp" : "eioe"
                            },
                            "geometryCrop1" : {
                              "type" : "double",
                              "defaultValue" : 0.0,
                              "interp" : "eioe"
                            },
                            "geometryCrop2" : {
                              "type" : "double",
                              "defaultValue" : 0.0,
                              "interp" : "eioe"
                            },
                            "geometryCrop3" : {
                              "type" : "double",
                              "defaultValue" : 0.0,
                              "interp" : "eioe"
                            },
                            "cursorScale" : {
                              "type" : "double",
                              "defaultValue" : 0.0,
                              "interp" : "linr"
                            },
                            "cursorOpacity" : {
                              "type" : "double",
                              "defaultValue" : 0.0,
                              "interp" : "linr"
                            },
                            "cursorTrackLevel" : {
                              "type" : "double",
                              "defaultValue" : 0.0,
                              "interp" : "linr"
                            },
                            "smoothCursorAcrossEditDuration" : 0
                          },
                          "effects" : [

                          ],
                          "start" : 2053578240000,
                          "duration" : 343039200000,
                          "mediaStart" : 3138932160000,
                          "mediaDuration" : 343039200000,
                          "scalar" : 1,
                          "metadata" : {
                            "AutoAppliedSmartFocus" : "False",
                            "audiateLinkedSession" : "",
                            "clipSpeedAttribute" : { "type": "bool", "value" : false},
                            "colorAttribute" : { "type": "color", "value" : [ 0, 0, 0, 0]},
                            "default-height" : { "type": "double", "value" : 1036.8},
                            "default-translation0" : { "type": "double", "value" : 0.0},
                            "default-translation1" : { "type": "double", "value" : -194.4},
                            "default-translation2" : { "type": "double", "value" : 0.0},
                            "default-width" : { "type": "double", "value" : 1932.67572815534}
                          },
                          "animationTracks" : {

                          }
                        }
                    ],
                    "effects" : [

                    ],
                    "start" : 5621280000,
                    "duration" : 13453440000,
                    "mediaStart" : 28906080000,
                    "mediaDuration" : 28882560000,
                    "scalar" : "143/307",
                    "metadata" : {
                      "AutoAppliedSmartFocus" : "False",
                      "audiateLinkedSession" : "",
                      "clipSpeedAttribute" : { "type": "bool", "value" : true},
                      "colorAttribute" : { "type": "color", "value" : [ 0, 0, 0, 0]},
                      "default-height" : { "type": "double", "value" : 1036.8},
                      "default-translation0" : { "type": "double", "value" : 0.0},
                      "default-translation1" : { "type": "double", "value" : -194.4},
                      "default-translation2" : { "type": "double", "value" : 0.0},
                      "default-width" : { "type": "double", "value" : 1932.67572815534}
                    },
                    "animationTracks" : {

                    }
                  },
                  {
                    "id" : 50,
                    "_type" : "StitchedMedia",
                    "minMediaStart" : 0,
                    "attributes" : {
                      "ident" : "Rec 4-22-2025-8-51-30-PM",
                      "gain" : 1.0,
                      "mixToMono" : false,
                      "loudnessNormalization" : true,
                      "sourceFileOffset" : 0
                    },
                    "parameters" : {
                      "translation0" : 6.33786407766917,
                      "translation1" : -2.8421709430404e-14,
                      "scale0" : 0.503300970873786,
                      "scale1" : 0.503300970873786,
                      "geometryCrop0" : 0.0,
                      "geometryCrop1" : 0.0,
                      "geometryCrop2" : 0.0,
                      "geometryCrop3" : 0.0,
                      "cursorOpacity" : 1.0,
                      "cursorTrackLevel" : 0.0,
                      "cursorScale" : 5.0,
                      "smoothCursorAcrossEditDuration" : 0
                    },
                    "medias" : [
                        {
                          "id" : 51,
                          "_type" : "ScreenVMFile",
                          "src" : 2,
                          "trackNumber" : 0,
                          "attributes" : {
                            "ident" : "Rec 4-22-2025-8-51-30-PM"
                          },
                          "parameters" : {
                            "geometryCrop0" : {
                              "type" : "double",
                              "defaultValue" : 0.0,
                              "interp" : "eioe"
                            },
                            "geometryCrop1" : {
                              "type" : "double",
                              "defaultValue" : 0.0,
                              "interp" : "eioe"
                            },
                            "geometryCrop2" : {
                              "type" : "double",
                              "defaultValue" : 0.0,
                              "interp" : "eioe"
                            },
                            "geometryCrop3" : {
                              "type" : "double",
                              "defaultValue" : 0.0,
                              "interp" : "eioe"
                            },
                            "cursorScale" : {
                              "type" : "double",
                              "defaultValue" : 0.0,
                              "interp" : "linr"
                            },
                            "cursorOpacity" : {
                              "type" : "double",
                              "defaultValue" : 0.0,
                              "interp" : "linr"
                            },
                            "cursorTrackLevel" : {
                              "type" : "double",
                              "defaultValue" : 0.0,
                              "interp" : "linr"
                            },
                            "smoothCursorAcrossEditDuration" : 0
                          },
                          "effects" : [

                          ],
                          "start" : 0,
                          "duration" : 50991360000,
                          "mediaStart" : 0,
                          "mediaDuration" : 50991360000,
                          "scalar" : 1,
                          "metadata" : {
                            "AutoAppliedSmartFocus" : "False",
                            "audiateLinkedSession" : "",
                            "clipSpeedAttribute" : { "type": "bool", "value" : false},
                            "colorAttribute" : { "type": "color", "value" : [ 0, 0, 0, 0]},
                            "default-height" : { "type": "double", "value" : 1036.8},
                            "default-translation0" : { "type": "double", "value" : 0.0},
                            "default-translation1" : { "type": "double", "value" : -194.4},
                            "default-translation2" : { "type": "double", "value" : 0.0},
                            "default-width" : { "type": "double", "value" : 1932.67572815534}
                          },
                          "animationTracks" : {

                          }
                        },
                        {
                          "id" : 52,
                          "_type" : "ScreenVMFile",
                          "src" : 2,
                          "trackNumber" : 0,
                          "attributes" : {
                            "ident" : "Rec 4-22-2025-8-51-30-PM"
                          },
                          "parameters" : {
                            "geometryCrop0" : {
                              "type" : "double",
                              "defaultValue" : 0.0,
                              "interp" : "eioe"
                            },
                            "geometryCrop1" : {
                              "type" : "double",
                              "defaultValue" : 0.0,
                              "interp" : "eioe"
                            },
                            "geometryCrop2" : {
                              "type" : "double",
                              "defaultValue" : 0.0,
                              "interp" : "eioe"
                            },
                            "geometryCrop3" : {
                              "type" : "double",
                              "defaultValue" : 0.0,
                              "interp" : "eioe"
                            },
                            "cursorScale" : {
                              "type" : "double",
                              "defaultValue" : 0.0,
                              "interp" : "linr"
                            },
                            "cursorOpacity" : {
                              "type" : "double",
                              "defaultValue" : 0.0,
                              "interp" : "linr"
                            },
                            "cursorTrackLevel" : {
                              "type" : "double",
                              "defaultValue" : 0.0,
                              "interp" : "linr"
                            },
                            "smoothCursorAcrossEditDuration" : 0
                          },
                          "effects" : [

                          ],
                          "start" : 50991360000,
                          "duration" : 46663680000,
                          "mediaStart" : 66467520000,
                          "mediaDuration" : 46663680000,
                          "scalar" : 1,
                          "metadata" : {
                            "AutoAppliedSmartFocus" : "False",
                            "audiateLinkedSession" : "",
                            "clipSpeedAttribute" : { "type": "bool", "value" : false},
                            "colorAttribute" : { "type": "color", "value" : [ 0, 0, 0, 0]},
                            "default-height" : { "type": "double", "value" : 1036.8},
                            "default-translation0" : { "type": "double", "value" : 0.0},
                            "default-translation1" : { "type": "double", "value" : -194.4},
                            "default-translation2" : { "type": "double", "value" : 0.0},
                            "default-width" : { "type": "double", "value" : 1932.67572815534}
                          },
                          "animationTracks" : {

                          }
                        },
                        {
                          "id" : 53,
                          "_type" : "ScreenVMFile",
                          "src" : 2,
                          "trackNumber" : 0,
                          "attributes" : {
                            "ident" : "Rec 4-22-2025-8-51-30-PM"
                          },
                          "parameters" : {
                            "geometryCrop0" : {
                              "type" : "double",
                              "defaultValue" : 0.0,
                              "interp" : "eioe"
                            },
                            "geometryCrop1" : {
                              "type" : "double",
                              "defaultValue" : 0.0,
                              "interp" : "eioe"
                            },
                            "geometryCrop2" : {
                              "type" : "double",
                              "defaultValue" : 0.0,
                              "interp" : "eioe"
                            },
                            "geometryCrop3" : {
                              "type" : "double",
                              "defaultValue" : 0.0,
                              "interp" : "eioe"
                            },
                            "cursorScale" : {
                              "type" : "double",
                              "defaultValue" : 0.0,
                              "interp" : "linr"
                            },
                            "cursorOpacity" : {
                              "type" : "double",
                              "defaultValue" : 0.0,
                              "interp" : "linr"
                            },
                            "cursorTrackLevel" : {
                              "type" : "double",
                              "defaultValue" : 0.0,
                              "interp" : "linr"
                            },
                            "smoothCursorAcrossEditDuration" : 0
                          },
                          "effects" : [

                          ],
                          "start" : 97655040000,
                          "duration" : 352282560000,
                          "mediaStart" : 149352000000,
                          "mediaDuration" : 352282560000,
                          "scalar" : 1,
                          "metadata" : {
                            "AutoAppliedSmartFocus" : "False",
                            "audiateLinkedSession" : "",
                            "clipSpeedAttribute" : { "type": "bool", "value" : false},
                            "colorAttribute" : { "type": "color", "value" : [ 0, 0, 0, 0]},
                            "default-height" : { "type": "double", "value" : 1036.8},
                            "default-translation0" : { "type": "double", "value" : 0.0},
                            "default-translation1" : { "type": "double", "value" : -194.4},
                            "default-translation2" : { "type": "double", "value" : 0.0},
                            "default-width" : { "type": "double", "value" : 1932.67572815534}
                          },
                          "animationTracks" : {

                          }
                        },
                        {
                          "id" : 54,
                          "_type" : "ScreenVMFile",
                          "src" : 2,
                          "trackNumber" : 0,
                          "attributes" : {
                            "ident" : "Rec 4-22-2025-8-51-30-PM"
                          },
                          "parameters" : {
                            "geometryCrop0" : {
                              "type" : "double",
                              "defaultValue" : 0.0,
                              "interp" : "eioe"
                            },
                            "geometryCrop1" : {
                              "type" : "double",
                              "defaultValue" : 0.0,
                              "interp" : "eioe"
                            },
                            "geometryCrop2" : {
                              "type" : "double",
                              "defaultValue" : 0.0,
                              "interp" : "eioe"
                            },
                            "geometryCrop3" : {
                              "type" : "double",
                              "defaultValue" : 0.0,
                              "interp" : "eioe"
                            },
                            "cursorScale" : {
                              "type" : "double",
                              "defaultValue" : 0.0,
                              "interp" : "linr"
                            },
                            "cursorOpacity" : {
                              "type" : "double",
                              "defaultValue" : 0.0,
                              "interp" : "linr"
                            },
                            "cursorTrackLevel" : {
                              "type" : "double",
                              "defaultValue" : 0.0,
                              "interp" : "linr"
                            },
                            "smoothCursorAcrossEditDuration" : 0
                          },
                          "effects" : [

                          ],
                          "start" : 449937600000,
                          "duration" : 8961120000,
                          "mediaStart" : 509843040000,
                          "mediaDuration" : 8961120000,
                          "scalar" : 1,
                          "metadata" : {
                            "AutoAppliedSmartFocus" : "False",
                            "audiateLinkedSession" : "",
                            "clipSpeedAttribute" : { "type": "bool", "value" : false},
                            "colorAttribute" : { "type": "color", "value" : [ 0, 0, 0, 0]},
                            "default-height" : { "type": "double", "value" : 1036.8},
                            "default-translation0" : { "type": "double", "value" : 0.0},
                            "default-translation1" : { "type": "double", "value" : -194.4},
                            "default-translation2" : { "type": "double", "value" : 0.0},
                            "default-width" : { "type": "double", "value" : 1932.67572815534}
                          },
                          "animationTracks" : {

                          }
                        },
                        {
                          "id" : 55,
                          "_type" : "ScreenVMFile",
                          "src" : 2,
                          "trackNumber" : 0,
                          "attributes" : {
                            "ident" : "Rec 4-22-2025-8-51-30-PM"
                          },
                          "parameters" : {
                            "geometryCrop0" : {
                              "type" : "double",
                              "defaultValue" : 0.0,
                              "interp" : "eioe"
                            },
                            "geometryCrop1" : {
                              "type" : "double",
                              "defaultValue" : 0.0,
                              "interp" : "eioe"
                            },
                            "geometryCrop2" : {
                              "type" : "double",
                              "defaultValue" : 0.0,
                              "interp" : "eioe"
                            },
                            "geometryCrop3" : {
                              "type" : "double",
                              "defaultValue" : 0.0,
                              "interp" : "eioe"
                            },
                            "cursorScale" : {
                              "type" : "double",
                              "defaultValue" : 0.0,
                              "interp" : "linr"
                            },
                            "cursorOpacity" : {
                              "type" : "double",
                              "defaultValue" : 0.0,
                              "interp" : "linr"
                            },
                            "cursorTrackLevel" : {
                              "type" : "double",
                              "defaultValue" : 0.0,
                              "interp" : "linr"
                            },
                            "smoothCursorAcrossEditDuration" : 0
                          },
                          "effects" : [

                          ],
                          "start" : 458898720000,
                          "duration" : 581226240000,
                          "mediaStart" : 1416350880000,
                          "mediaDuration" : 581226240000,
                          "scalar" : 1,
                          "metadata" : {
                            "AutoAppliedSmartFocus" : "False",
                            "audiateLinkedSession" : "",
                            "clipSpeedAttribute" : { "type": "bool", "value" : false},
                            "colorAttribute" : { "type": "color", "value" : [ 0, 0, 0, 0]},
                            "default-height" : { "type": "double", "value" : 1036.8},
                            "default-translation0" : { "type": "double", "value" : 0.0},
                            "default-translation1" : { "type": "double", "value" : -194.4},
                            "default-translation2" : { "type": "double", "value" : 0.0},
                            "default-width" : { "type": "double", "value" : 1932.67572815534}
                          },
                          "animationTracks" : {

                          }
                        },
                        {
                          "id" : 56,
                          "_type" : "ScreenVMFile",
                          "src" : 2,
                          "trackNumber" : 0,
                          "attributes" : {
                            "ident" : "Rec 4-22-2025-8-51-30-PM"
                          },
                          "parameters" : {
                            "geometryCrop0" : {
                              "type" : "double",
                              "defaultValue" : 0.0,
                              "interp" : "eioe"
                            },
                            "geometryCrop1" : {
                              "type" : "double",
                              "defaultValue" : 0.0,
                              "interp" : "eioe"
                            },
                            "geometryCrop2" : {
                              "type" : "double",
                              "defaultValue" : 0.0,
                              "interp" : "eioe"
                            },
                            "geometryCrop3" : {
                              "type" : "double",
                              "defaultValue" : 0.0,
                              "interp" : "eioe"
                            },
                            "cursorScale" : {
                              "type" : "double",
                              "defaultValue" : 0.0,
                              "interp" : "linr"
                            },
                            "cursorOpacity" : {
                              "type" : "double",
                              "defaultValue" : 0.0,
                              "interp" : "linr"
                            },
                            "cursorTrackLevel" : {
                              "type" : "double",
                              "defaultValue" : 0.0,
                              "interp" : "linr"
                            },
                            "smoothCursorAcrossEditDuration" : 0
                          },
                          "effects" : [

                          ],
                          "start" : 1040124960000,
                          "duration" : 215419680000,
                          "mediaStart" : 2018886240000,
                          "mediaDuration" : 215419680000,
                          "scalar" : 1,
                          "metadata" : {
                            "AutoAppliedSmartFocus" : "False",
                            "audiateLinkedSession" : "",
                            "clipSpeedAttribute" : { "type": "bool", "value" : false},
                            "colorAttribute" : { "type": "color", "value" : [ 0, 0, 0, 0]},
                            "default-height" : { "type": "double", "value" : 1036.8},
                            "default-translation0" : { "type": "double", "value" : 0.0},
                            "default-translation1" : { "type": "double", "value" : -194.4},
                            "default-translation2" : { "type": "double", "value" : 0.0},
                            "default-width" : { "type": "double", "value" : 1932.67572815534}
                          },
                          "animationTracks" : {

                          }
                        },
                        {
                          "id" : 57,
                          "_type" : "ScreenVMFile",
                          "src" : 2,
                          "trackNumber" : 0,
                          "attributes" : {
                            "ident" : "Rec 4-22-2025-8-51-30-PM"
                          },
                          "parameters" : {
                            "geometryCrop0" : {
                              "type" : "double",
                              "defaultValue" : 0.0,
                              "interp" : "eioe"
                            },
                            "geometryCrop1" : {
                              "type" : "double",
                              "defaultValue" : 0.0,
                              "interp" : "eioe"
                            },
                            "geometryCrop2" : {
                              "type" : "double",
                              "defaultValue" : 0.0,
                              "interp" : "eioe"
                            },
                            "geometryCrop3" : {
                              "type" : "double",
                              "defaultValue" : 0.0,
                              "interp" : "eioe"
                            },
                            "cursorScale" : {
                              "type" : "double",
                              "defaultValue" : 0.0,
                              "interp" : "linr"
                            },
                            "cursorOpacity" : {
                              "type" : "double",
                              "defaultValue" : 0.0,
                              "interp" : "linr"
                            },
                            "cursorTrackLevel" : {
                              "type" : "double",
                              "defaultValue" : 0.0,
                              "interp" : "linr"
                            },
                            "smoothCursorAcrossEditDuration" : 0
                          },
                          "effects" : [

                          ],
                          "start" : 1255544640000,
                          "duration" : 786955680000,
                          "mediaStart" : 2257778880000,
                          "mediaDuration" : 786955680000,
                          "scalar" : 1,
                          "metadata" : {
                            "AutoAppliedSmartFocus" : "False",
                            "audiateLinkedSession" : "",
                            "clipSpeedAttribute" : { "type": "bool", "value" : false},
                            "colorAttribute" : { "type": "color", "value" : [ 0, 0, 0, 0]},
                            "default-height" : { "type": "double", "value" : 1036.8},
                            "default-translation0" : { "type": "double", "value" : 0.0},
                            "default-translation1" : { "type": "double", "value" : -194.4},
                            "default-translation2" : { "type": "double", "value" : 0.0},
                            "default-width" : { "type": "double", "value" : 1932.67572815534}
                          },
                          "animationTracks" : {

                          }
                        },
                        {
                          "id" : 58,
                          "_type" : "ScreenVMFile",
                          "src" : 2,
                          "trackNumber" : 0,
                          "attributes" : {
                            "ident" : "Rec 4-22-2025-8-51-30-PM"
                          },
                          "parameters" : {
                            "geometryCrop0" : {
                              "type" : "double",
                              "defaultValue" : 0.0,
                              "interp" : "eioe"
                            },
                            "geometryCrop1" : {
                              "type" : "double",
                              "defaultValue" : 0.0,
                              "interp" : "eioe"
                            },
                            "geometryCrop2" : {
                              "type" : "double",
                              "defaultValue" : 0.0,
                              "interp" : "eioe"
                            },
                            "geometryCrop3" : {
                              "type" : "double",
                              "defaultValue" : 0.0,
                              "interp" : "eioe"
                            },
                            "cursorScale" : {
                              "type" : "double",
                              "defaultValue" : 0.0,
                              "interp" : "linr"
                            },
                            "cursorOpacity" : {
                              "type" : "double",
                              "defaultValue" : 0.0,
                              "interp" : "linr"
                            },
                            "cursorTrackLevel" : {
                              "type" : "double",
                              "defaultValue" : 0.0,
                              "interp" : "linr"
                            },
                            "smoothCursorAcrossEditDuration" : 0
                          },
                          "effects" : [

                          ],
                          "start" : 2042500320000,
                          "duration" : 20768160000,
                          "mediaStart" : 3047580480000,
                          "mediaDuration" : 20768160000,
                          "scalar" : 1,
                          "metadata" : {
                            "AutoAppliedSmartFocus" : "False",
                            "audiateLinkedSession" : "",
                            "clipSpeedAttribute" : { "type": "bool", "value" : false},
                            "colorAttribute" : { "type": "color", "value" : [ 0, 0, 0, 0]},
                            "default-height" : { "type": "double", "value" : 1036.8},
                            "default-translation0" : { "type": "double", "value" : 0.0},
                            "default-translation1" : { "type": "double", "value" : -194.4},
                            "default-translation2" : { "type": "double", "value" : 0.0},
                            "default-width" : { "type": "double", "value" : 1932.67572815534}
                          },
                          "animationTracks" : {

                          }
                        },
                        {
                          "id" : 59,
                          "_type" : "ScreenVMFile",
                          "src" : 2,
                          "trackNumber" : 0,
                          "attributes" : {
                            "ident" : "Rec 4-22-2025-8-51-30-PM"
                          },
                          "parameters" : {
                            "geometryCrop0" : {
                              "type" : "double",
                              "defaultValue" : 0.0,
                              "interp" : "eioe"
                            },
                            "geometryCrop1" : {
                              "type" : "double",
                              "defaultValue" : 0.0,
                              "interp" : "eioe"
                            },
                            "geometryCrop2" : {
                              "type" : "double",
                              "defaultValue" : 0.0,
                              "interp" : "eioe"
                            },
                            "geometryCrop3" : {
                              "type" : "double",
                              "defaultValue" : 0.0,
                              "interp" : "eioe"
                            },
                            "cursorScale" : {
                              "type" : "double",
                              "defaultValue" : 0.0,
                              "interp" : "linr"
                            },
                            "cursorOpacity" : {
                              "type" : "double",
                              "defaultValue" : 0.0,
                              "interp" : "linr"
                            },
                            "cursorTrackLevel" : {
                              "type" : "double",
                              "defaultValue" : 0.0,
                              "interp" : "linr"
                            },
                            "smoothCursorAcrossEditDuration" : 0
                          },
                          "effects" : [

                          ],
                          "start" : 2063268480000,
                          "duration" : 343039200000,
                          "mediaStart" : 3138932160000,
                          "mediaDuration" : 343039200000,
                          "scalar" : 1,
                          "metadata" : {
                            "AutoAppliedSmartFocus" : "False",
                            "audiateLinkedSession" : "",
                            "clipSpeedAttribute" : { "type": "bool", "value" : false},
                            "colorAttribute" : { "type": "color", "value" : [ 0, 0, 0, 0]},
                            "default-height" : { "type": "double", "value" : 1036.8},
                            "default-translation0" : { "type": "double", "value" : 0.0},
                            "default-translation1" : { "type": "double", "value" : -194.4},
                            "default-translation2" : { "type": "double", "value" : 0.0},
                            "default-width" : { "type": "double", "value" : 1932.67572815534}
                          },
                          "animationTracks" : {

                          }
                        }
                    ],
                    "effects" : [
                        {
                          "effectName" : "CursorColor",
                          "bypassed" : false,
                          "category" : "categoryCursorEffects",
                          "parameters" : {
                            "intensity" : 1.0,
                            "desaturation" : 0.0,
                            "colorLumaCutoff" : 1.0,
                            "color-alpha" : 1.0,
                            "color-red" : 1.0,
                            "color-green" : 0.8980392157,
                            "color-blue" : 0.1215686275,
                            "secondColor-red" : 0.0,
                            "secondColor-green" : 0.0,
                            "secondColor-blue" : 0.0,
                            "secondColor-alpha" : 1.0,
                            "secondColorLumaCutoff" : 0.0,
                            "channel" : 0,
                            "shadowRampStart" : 0.0,
                            "shadowRampEnd" : 0.0,
                            "highlightRampStart" : 1.0,
                            "highlightRampEnd" : 1.0
                          }
                        },
                        {
                          "effectName" : "CursorShadow",
                          "bypassed" : false,
                          "category" : "categoryCursorEffects",
                          "parameters" : {
                            "angle" : 3.92699081698724,
                            "enabled" : 1,
                            "offset" : 5.0,
                            "blur" : 2.0,
                            "opacity" : 0.25,
                            "color-red" : 0.0,
                            "color-green" : 0.0,
                            "color-blue" : 0.0,
                            "color-alpha" : 1.0
                          }
                        },
                        {
                          "effectName" : "CursorHilight",
                          "bypassed" : false,
                          "category" : "categoryCursorEffects",
                          "parameters" : {
                            "radius" : 50.0,
                            "color-red" : 1.0,
                            "color-green" : 1.0,
                            "color-blue" : 0.0,
                            "color-alpha" : 0.75,
                            "blur" : 0.1
                          }
                        }
                    ],
                    "start" : 19074720000,
                    "duration" : 893760000,
                    "mediaStart" : 67478880000,
                    "mediaDuration" : 8067360000,
                    "scalar" : "38/343",
                    "metadata" : {
                      "AutoAppliedSmartFocus" : "False",
                      "audiateLinkedSession" : "",
                      "clipSpeedAttribute" : { "type": "bool", "value" : true},
                      "colorAttribute" : { "type": "color", "value" : [ 0, 0, 0, 0]},
                      "default-height" : { "type": "double", "value" : 1036.8},
                      "default-translation0" : { "type": "double", "value" : 0.0},
                      "default-translation1" : { "type": "double", "value" : -194.4},
                      "default-translation2" : { "type": "double", "value" : 0.0},
                      "default-width" : { "type": "double", "value" : 1932.67572815534}
                    },
                    "animationTracks" : {

                    }
                  },
                  {
                    "id" : 60,
                    "_type" : "StitchedMedia",
                    "minMediaStart" : 0,
                    "attributes" : {
                      "ident" : "Rec 4-22-2025-8-51-30-PM",
                      "gain" : 1.0,
                      "mixToMono" : false,
                      "loudnessNormalization" : true,
                      "sourceFileOffset" : 0
                    },
                    "parameters" : {
                      "translation0" : 6.33786407766917,
                      "translation1" : -2.8421709430404e-14,
                      "scale0" : 0.503300970873786,
                      "scale1" : 0.503300970873786,
                      "geometryCrop0" : 0.0,
                      "geometryCrop1" : 0.0,
                      "geometryCrop2" : 0.0,
                      "geometryCrop3" : 0.0,
                      "toc" : {
                        "type" : "string",
                        "keyframes" : [
                          {
                            "endTime" : 75546240000,
                            "time" : 75546240000,
                            "value" : "Create branch",
                            "duration" : 0,
                            "metadata" : {
                              "markerIdentifier" : "BEFC783A-D2CE-4AF7-A8A3-73170B547213"
                            }
                          },
                          {
                            "endTime" : 84107520000,
                            "time" : 84107520000,
                            "value" : "Click Create Branch",
                            "duration" : 0,
                            "metadata" : {
                              "markerIdentifier" : "E96AAEB4-CB0F-42C7-9C8D-2B8BCA3667E1"
                            }
                          }
                        ]
                      },
                      "cursorOpacity" : 1.0,
                      "cursorTrackLevel" : 0.0,
                      "cursorScale" : 5.0,
                      "smoothCursorAcrossEditDuration" : 0
                    },
                    "medias" : [
                        {
                          "id" : 61,
                          "_type" : "ScreenVMFile",
                          "src" : 2,
                          "trackNumber" : 0,
                          "attributes" : {
                            "ident" : "Rec 4-22-2025-8-51-30-PM"
                          },
                          "parameters" : {
                            "geometryCrop0" : {
                              "type" : "double",
                              "defaultValue" : 0.0,
                              "interp" : "eioe"
                            },
                            "geometryCrop1" : {
                              "type" : "double",
                              "defaultValue" : 0.0,
                              "interp" : "eioe"
                            },
                            "geometryCrop2" : {
                              "type" : "double",
                              "defaultValue" : 0.0,
                              "interp" : "eioe"
                            },
                            "geometryCrop3" : {
                              "type" : "double",
                              "defaultValue" : 0.0,
                              "interp" : "eioe"
                            },
                            "cursorScale" : {
                              "type" : "double",
                              "defaultValue" : 0.0,
                              "interp" : "linr"
                            },
                            "cursorOpacity" : {
                              "type" : "double",
                              "defaultValue" : 0.0,
                              "interp" : "linr"
                            },
                            "cursorTrackLevel" : {
                              "type" : "double",
                              "defaultValue" : 0.0,
                              "interp" : "linr"
                            },
                            "smoothCursorAcrossEditDuration" : 0
                          },
                          "effects" : [

                          ],
                          "start" : 0,
                          "duration" : 50991360000,
                          "mediaStart" : 0,
                          "mediaDuration" : 50991360000,
                          "scalar" : 1,
                          "metadata" : {
                            "AutoAppliedSmartFocus" : "False",
                            "audiateLinkedSession" : "",
                            "clipSpeedAttribute" : { "type": "bool", "value" : false},
                            "colorAttribute" : { "type": "color", "value" : [ 0, 0, 0, 0]},
                            "default-height" : { "type": "double", "value" : 1036.8},
                            "default-translation0" : { "type": "double", "value" : 0.0},
                            "default-translation1" : { "type": "double", "value" : -194.4},
                            "default-translation2" : { "type": "double", "value" : 0.0},
                            "default-width" : { "type": "double", "value" : 1932.67572815534}
                          },
                          "animationTracks" : {

                          }
                        },
                        {
                          "id" : 62,
                          "_type" : "ScreenVMFile",
                          "src" : 2,
                          "trackNumber" : 0,
                          "attributes" : {
                            "ident" : "Rec 4-22-2025-8-51-30-PM"
                          },
                          "parameters" : {
                            "geometryCrop0" : {
                              "type" : "double",
                              "defaultValue" : 0.0,
                              "interp" : "eioe"
                            },
                            "geometryCrop1" : {
                              "type" : "double",
                              "defaultValue" : 0.0,
                              "interp" : "eioe"
                            },
                            "geometryCrop2" : {
                              "type" : "double",
                              "defaultValue" : 0.0,
                              "interp" : "eioe"
                            },
                            "geometryCrop3" : {
                              "type" : "double",
                              "defaultValue" : 0.0,
                              "interp" : "eioe"
                            },
                            "cursorScale" : {
                              "type" : "double",
                              "defaultValue" : 0.0,
                              "interp" : "linr"
                            },
                            "cursorOpacity" : {
                              "type" : "double",
                              "defaultValue" : 0.0,
                              "interp" : "linr"
                            },
                            "cursorTrackLevel" : {
                              "type" : "double",
                              "defaultValue" : 0.0,
                              "interp" : "linr"
                            },
                            "smoothCursorAcrossEditDuration" : 0
                          },
                          "effects" : [

                          ],
                          "start" : 50991360000,
                          "duration" : 41700960000,
                          "mediaStart" : 66467520000,
                          "mediaDuration" : 41700960000,
                          "scalar" : 1,
                          "metadata" : {
                            "AutoAppliedSmartFocus" : "False",
                            "audiateLinkedSession" : "",
                            "clipSpeedAttribute" : { "type": "bool", "value" : false},
                            "colorAttribute" : { "type": "color", "value" : [ 0, 0, 0, 0]},
                            "default-height" : { "type": "double", "value" : 1036.8},
                            "default-translation0" : { "type": "double", "value" : 0.0},
                            "default-translation1" : { "type": "double", "value" : -194.4},
                            "default-translation2" : { "type": "double", "value" : 0.0},
                            "default-width" : { "type": "double", "value" : 1932.67572815534}
                          },
                          "animationTracks" : {

                          }
                        },
                        {
                          "id" : 63,
                          "_type" : "ScreenVMFile",
                          "src" : 2,
                          "trackNumber" : 0,
                          "attributes" : {
                            "ident" : "Rec 4-22-2025-8-51-30-PM"
                          },
                          "parameters" : {
                            "geometryCrop0" : {
                              "type" : "double",
                              "defaultValue" : 0.0,
                              "interp" : "eioe"
                            },
                            "geometryCrop1" : {
                              "type" : "double",
                              "defaultValue" : 0.0,
                              "interp" : "eioe"
                            },
                            "geometryCrop2" : {
                              "type" : "double",
                              "defaultValue" : 0.0,
                              "interp" : "eioe"
                            },
                            "geometryCrop3" : {
                              "type" : "double",
                              "defaultValue" : 0.0,
                              "interp" : "eioe"
                            },
                            "cursorScale" : {
                              "type" : "double",
                              "defaultValue" : 0.0,
                              "interp" : "linr"
                            },
                            "cursorOpacity" : {
                              "type" : "double",
                              "defaultValue" : 0.0,
                              "interp" : "linr"
                            },
                            "cursorTrackLevel" : {
                              "type" : "double",
                              "defaultValue" : 0.0,
                              "interp" : "linr"
                            },
                            "smoothCursorAcrossEditDuration" : 0
                          },
                          "effects" : [

                          ],
                          "start" : 92692320000,
                          "duration" : 729120000,
                          "mediaStart" : 108168480000,
                          "mediaDuration" : 729120000,
                          "scalar" : 1,
                          "metadata" : {
                            "AutoAppliedSmartFocus" : "False",
                            "audiateLinkedSession" : "",
                            "clipSpeedAttribute" : { "type": "bool", "value" : false},
                            "colorAttribute" : { "type": "color", "value" : [ 0, 0, 0, 0]},
                            "default-height" : { "type": "double", "value" : 1036.8},
                            "default-translation0" : { "type": "double", "value" : 0.0},
                            "default-translation1" : { "type": "double", "value" : -194.4},
                            "default-translation2" : { "type": "double", "value" : 0.0},
                            "default-width" : { "type": "double", "value" : 1932.67572815534}
                          },
                          "animationTracks" : {

                          }
                        },
                        {
                          "id" : 64,
                          "_type" : "ScreenVMFile",
                          "src" : 2,
                          "trackNumber" : 0,
                          "attributes" : {
                            "ident" : "Rec 4-22-2025-8-51-30-PM"
                          },
                          "parameters" : {
                            "geometryCrop0" : {
                              "type" : "double",
                              "defaultValue" : 0.0,
                              "interp" : "eioe"
                            },
                            "geometryCrop1" : {
                              "type" : "double",
                              "defaultValue" : 0.0,
                              "interp" : "eioe"
                            },
                            "geometryCrop2" : {
                              "type" : "double",
                              "defaultValue" : 0.0,
                              "interp" : "eioe"
                            },
                            "geometryCrop3" : {
                              "type" : "double",
                              "defaultValue" : 0.0,
                              "interp" : "eioe"
                            },
                            "cursorScale" : {
                              "type" : "double",
                              "defaultValue" : 0.0,
                              "interp" : "linr"
                            },
                            "cursorOpacity" : {
                              "type" : "double",
                              "defaultValue" : 0.0,
                              "interp" : "linr"
                            },
                            "cursorTrackLevel" : {
                              "type" : "double",
                              "defaultValue" : 0.0,
                              "interp" : "linr"
                            },
                            "smoothCursorAcrossEditDuration" : 0
                          },
                          "effects" : [

                          ],
                          "start" : 93421440000,
                          "duration" : 4233600000,
                          "mediaStart" : 108897600000,
                          "mediaDuration" : 4233600000,
                          "scalar" : 1,
                          "metadata" : {
                            "AutoAppliedSmartFocus" : "False",
                            "audiateLinkedSession" : "",
                            "clipSpeedAttribute" : { "type": "bool", "value" : false},
                            "colorAttribute" : { "type": "color", "value" : [ 0, 0, 0, 0]},
                            "default-height" : { "type": "double", "value" : 1036.8},
                            "default-translation0" : { "type": "double", "value" : 0.0},
                            "default-translation1" : { "type": "double", "value" : -194.4},
                            "default-translation2" : { "type": "double", "value" : 0.0},
                            "default-width" : { "type": "double", "value" : 1932.67572815534}
                          },
                          "animationTracks" : {

                          }
                        },
                        {
                          "id" : 65,
                          "_type" : "ScreenVMFile",
                          "src" : 2,
                          "trackNumber" : 0,
                          "attributes" : {
                            "ident" : "Rec 4-22-2025-8-51-30-PM"
                          },
                          "parameters" : {
                            "geometryCrop0" : {
                              "type" : "double",
                              "defaultValue" : 0.0,
                              "interp" : "eioe"
                            },
                            "geometryCrop1" : {
                              "type" : "double",
                              "defaultValue" : 0.0,
                              "interp" : "eioe"
                            },
                            "geometryCrop2" : {
                              "type" : "double",
                              "defaultValue" : 0.0,
                              "interp" : "eioe"
                            },
                            "geometryCrop3" : {
                              "type" : "double",
                              "defaultValue" : 0.0,
                              "interp" : "eioe"
                            },
                            "cursorScale" : {
                              "type" : "double",
                              "defaultValue" : 0.0,
                              "interp" : "linr"
                            },
                            "cursorOpacity" : {
                              "type" : "double",
                              "defaultValue" : 0.0,
                              "interp" : "linr"
                            },
                            "cursorTrackLevel" : {
                              "type" : "double",
                              "defaultValue" : 0.0,
                              "interp" : "linr"
                            },
                            "smoothCursorAcrossEditDuration" : 0
                          },
                          "effects" : [

                          ],
                          "start" : 97655040000,
                          "duration" : 352282560000,
                          "mediaStart" : 149352000000,
                          "mediaDuration" : 352282560000,
                          "scalar" : 1,
                          "metadata" : {
                            "AutoAppliedSmartFocus" : "False",
                            "audiateLinkedSession" : "",
                            "clipSpeedAttribute" : { "type": "bool", "value" : false},
                            "colorAttribute" : { "type": "color", "value" : [ 0, 0, 0, 0]},
                            "default-height" : { "type": "double", "value" : 1036.8},
                            "default-translation0" : { "type": "double", "value" : 0.0},
                            "default-translation1" : { "type": "double", "value" : -194.4},
                            "default-translation2" : { "type": "double", "value" : 0.0},
                            "default-width" : { "type": "double", "value" : 1932.67572815534}
                          },
                          "animationTracks" : {

                          }
                        },
                        {
                          "id" : 66,
                          "_type" : "ScreenVMFile",
                          "src" : 2,
                          "trackNumber" : 0,
                          "attributes" : {
                            "ident" : "Rec 4-22-2025-8-51-30-PM"
                          },
                          "parameters" : {
                            "geometryCrop0" : {
                              "type" : "double",
                              "defaultValue" : 0.0,
                              "interp" : "eioe"
                            },
                            "geometryCrop1" : {
                              "type" : "double",
                              "defaultValue" : 0.0,
                              "interp" : "eioe"
                            },
                            "geometryCrop2" : {
                              "type" : "double",
                              "defaultValue" : 0.0,
                              "interp" : "eioe"
                            },
                            "geometryCrop3" : {
                              "type" : "double",
                              "defaultValue" : 0.0,
                              "interp" : "eioe"
                            },
                            "cursorScale" : {
                              "type" : "double",
                              "defaultValue" : 0.0,
                              "interp" : "linr"
                            },
                            "cursorOpacity" : {
                              "type" : "double",
                              "defaultValue" : 0.0,
                              "interp" : "linr"
                            },
                            "cursorTrackLevel" : {
                              "type" : "double",
                              "defaultValue" : 0.0,
                              "interp" : "linr"
                            },
                            "smoothCursorAcrossEditDuration" : 0
                          },
                          "effects" : [

                          ],
                          "start" : 449937600000,
                          "duration" : 8961120000,
                          "mediaStart" : 509843040000,
                          "mediaDuration" : 8961120000,
                          "scalar" : 1,
                          "metadata" : {
                            "AutoAppliedSmartFocus" : "False",
                            "audiateLinkedSession" : "",
                            "clipSpeedAttribute" : { "type": "bool", "value" : false},
                            "colorAttribute" : { "type": "color", "value" : [ 0, 0, 0, 0]},
                            "default-height" : { "type": "double", "value" : 1036.8},
                            "default-translation0" : { "type": "double", "value" : 0.0},
                            "default-translation1" : { "type": "double", "value" : -194.4},
                            "default-translation2" : { "type": "double", "value" : 0.0},
                            "default-width" : { "type": "double", "value" : 1932.67572815534}
                          },
                          "animationTracks" : {

                          }
                        },
                        {
                          "id" : 67,
                          "_type" : "ScreenVMFile",
                          "src" : 2,
                          "trackNumber" : 0,
                          "attributes" : {
                            "ident" : "Rec 4-22-2025-8-51-30-PM"
                          },
                          "parameters" : {
                            "geometryCrop0" : {
                              "type" : "double",
                              "defaultValue" : 0.0,
                              "interp" : "eioe"
                            },
                            "geometryCrop1" : {
                              "type" : "double",
                              "defaultValue" : 0.0,
                              "interp" : "eioe"
                            },
                            "geometryCrop2" : {
                              "type" : "double",
                              "defaultValue" : 0.0,
                              "interp" : "eioe"
                            },
                            "geometryCrop3" : {
                              "type" : "double",
                              "defaultValue" : 0.0,
                              "interp" : "eioe"
                            },
                            "cursorScale" : {
                              "type" : "double",
                              "defaultValue" : 0.0,
                              "interp" : "linr"
                            },
                            "cursorOpacity" : {
                              "type" : "double",
                              "defaultValue" : 0.0,
                              "interp" : "linr"
                            },
                            "cursorTrackLevel" : {
                              "type" : "double",
                              "defaultValue" : 0.0,
                              "interp" : "linr"
                            },
                            "smoothCursorAcrossEditDuration" : 0
                          },
                          "effects" : [

                          ],
                          "start" : 458898720000,
                          "duration" : 581226240000,
                          "mediaStart" : 1416350880000,
                          "mediaDuration" : 581226240000,
                          "scalar" : 1,
                          "metadata" : {
                            "AutoAppliedSmartFocus" : "False",
                            "audiateLinkedSession" : "",
                            "clipSpeedAttribute" : { "type": "bool", "value" : false},
                            "colorAttribute" : { "type": "color", "value" : [ 0, 0, 0, 0]},
                            "default-height" : { "type": "double", "value" : 1036.8},
                            "default-translation0" : { "type": "double", "value" : 0.0},
                            "default-translation1" : { "type": "double", "value" : -194.4},
                            "default-translation2" : { "type": "double", "value" : 0.0},
                            "default-width" : { "type": "double", "value" : 1932.67572815534}
                          },
                          "animationTracks" : {

                          }
                        },
                        {
                          "id" : 68,
                          "_type" : "ScreenVMFile",
                          "src" : 2,
                          "trackNumber" : 0,
                          "attributes" : {
                            "ident" : "Rec 4-22-2025-8-51-30-PM"
                          },
                          "parameters" : {
                            "geometryCrop0" : {
                              "type" : "double",
                              "defaultValue" : 0.0,
                              "interp" : "eioe"
                            },
                            "geometryCrop1" : {
                              "type" : "double",
                              "defaultValue" : 0.0,
                              "interp" : "eioe"
                            },
                            "geometryCrop2" : {
                              "type" : "double",
                              "defaultValue" : 0.0,
                              "interp" : "eioe"
                            },
                            "geometryCrop3" : {
                              "type" : "double",
                              "defaultValue" : 0.0,
                              "interp" : "eioe"
                            },
                            "cursorScale" : {
                              "type" : "double",
                              "defaultValue" : 0.0,
                              "interp" : "linr"
                            },
                            "cursorOpacity" : {
                              "type" : "double",
                              "defaultValue" : 0.0,
                              "interp" : "linr"
                            },
                            "cursorTrackLevel" : {
                              "type" : "double",
                              "defaultValue" : 0.0,
                              "interp" : "linr"
                            },
                            "smoothCursorAcrossEditDuration" : 0
                          },
                          "effects" : [

                          ],
                          "start" : 1040124960000,
                          "duration" : 215419680000,
                          "mediaStart" : 2018886240000,
                          "mediaDuration" : 215419680000,
                          "scalar" : 1,
                          "metadata" : {
                            "AutoAppliedSmartFocus" : "False",
                            "audiateLinkedSession" : "",
                            "clipSpeedAttribute" : { "type": "bool", "value" : false},
                            "colorAttribute" : { "type": "color", "value" : [ 0, 0, 0, 0]},
                            "default-height" : { "type": "double", "value" : 1036.8},
                            "default-translation0" : { "type": "double", "value" : 0.0},
                            "default-translation1" : { "type": "double", "value" : -194.4},
                            "default-translation2" : { "type": "double", "value" : 0.0},
                            "default-width" : { "type": "double", "value" : 1932.67572815534}
                          },
                          "animationTracks" : {

                          }
                        },
                        {
                          "id" : 69,
                          "_type" : "ScreenVMFile",
                          "src" : 2,
                          "trackNumber" : 0,
                          "attributes" : {
                            "ident" : "Rec 4-22-2025-8-51-30-PM"
                          },
                          "parameters" : {
                            "geometryCrop0" : {
                              "type" : "double",
                              "defaultValue" : 0.0,
                              "interp" : "eioe"
                            },
                            "geometryCrop1" : {
                              "type" : "double",
                              "defaultValue" : 0.0,
                              "interp" : "eioe"
                            },
                            "geometryCrop2" : {
                              "type" : "double",
                              "defaultValue" : 0.0,
                              "interp" : "eioe"
                            },
                            "geometryCrop3" : {
                              "type" : "double",
                              "defaultValue" : 0.0,
                              "interp" : "eioe"
                            },
                            "cursorScale" : {
                              "type" : "double",
                              "defaultValue" : 0.0,
                              "interp" : "linr"
                            },
                            "cursorOpacity" : {
                              "type" : "double",
                              "defaultValue" : 0.0,
                              "interp" : "linr"
                            },
                            "cursorTrackLevel" : {
                              "type" : "double",
                              "defaultValue" : 0.0,
                              "interp" : "linr"
                            },
                            "smoothCursorAcrossEditDuration" : 0
                          },
                          "effects" : [

                          ],
                          "start" : 1255544640000,
                          "duration" : 786955680000,
                          "mediaStart" : 2257778880000,
                          "mediaDuration" : 786955680000,
                          "scalar" : 1,
                          "metadata" : {
                            "AutoAppliedSmartFocus" : "False",
                            "audiateLinkedSession" : "",
                            "clipSpeedAttribute" : { "type": "bool", "value" : false},
                            "colorAttribute" : { "type": "color", "value" : [ 0, 0, 0, 0]},
                            "default-height" : { "type": "double", "value" : 1036.8},
                            "default-translation0" : { "type": "double", "value" : 0.0},
                            "default-translation1" : { "type": "double", "value" : -194.4},
                            "default-translation2" : { "type": "double", "value" : 0.0},
                            "default-width" : { "type": "double", "value" : 1932.67572815534}
                          },
                          "animationTracks" : {

                          }
                        },
                        {
                          "id" : 70,
                          "_type" : "ScreenVMFile",
                          "src" : 2,
                          "trackNumber" : 0,
                          "attributes" : {
                            "ident" : "Rec 4-22-2025-8-51-30-PM"
                          },
                          "parameters" : {
                            "geometryCrop0" : {
                              "type" : "double",
                              "defaultValue" : 0.0,
                              "interp" : "eioe"
                            },
                            "geometryCrop1" : {
                              "type" : "double",
                              "defaultValue" : 0.0,
                              "interp" : "eioe"
                            },
                            "geometryCrop2" : {
                              "type" : "double",
                              "defaultValue" : 0.0,
                              "interp" : "eioe"
                            },
                            "geometryCrop3" : {
                              "type" : "double",
                              "defaultValue" : 0.0,
                              "interp" : "eioe"
                            },
                            "cursorScale" : {
                              "type" : "double",
                              "defaultValue" : 0.0,
                              "interp" : "linr"
                            },
                            "cursorOpacity" : {
                              "type" : "double",
                              "defaultValue" : 0.0,
                              "interp" : "linr"
                            },
                            "cursorTrackLevel" : {
                              "type" : "double",
                              "defaultValue" : 0.0,
                              "interp" : "linr"
                            },
                            "smoothCursorAcrossEditDuration" : 0
                          },
                          "effects" : [

                          ],
                          "start" : 2042500320000,
                          "duration" : 20768160000,
                          "mediaStart" : 3047580480000,
                          "mediaDuration" : 20768160000,
                          "scalar" : 1,
                          "metadata" : {
                            "AutoAppliedSmartFocus" : "False",
                            "audiateLinkedSession" : "",
                            "clipSpeedAttribute" : { "type": "bool", "value" : false},
                            "colorAttribute" : { "type": "color", "value" : [ 0, 0, 0, 0]},
                            "default-height" : { "type": "double", "value" : 1036.8},
                            "default-translation0" : { "type": "double", "value" : 0.0},
                            "default-translation1" : { "type": "double", "value" : -194.4},
                            "default-translation2" : { "type": "double", "value" : 0.0},
                            "default-width" : { "type": "double", "value" : 1932.67572815534}
                          },
                          "animationTracks" : {

                          }
                        },
                        {
                          "id" : 71,
                          "_type" : "ScreenVMFile",
                          "src" : 2,
                          "trackNumber" : 0,
                          "attributes" : {
                            "ident" : "Rec 4-22-2025-8-51-30-PM"
                          },
                          "parameters" : {
                            "geometryCrop0" : {
                              "type" : "double",
                              "defaultValue" : 0.0,
                              "interp" : "eioe"
                            },
                            "geometryCrop1" : {
                              "type" : "double",
                              "defaultValue" : 0.0,
                              "interp" : "eioe"
                            },
                            "geometryCrop2" : {
                              "type" : "double",
                              "defaultValue" : 0.0,
                              "interp" : "eioe"
                            },
                            "geometryCrop3" : {
                              "type" : "double",
                              "defaultValue" : 0.0,
                              "interp" : "eioe"
                            },
                            "cursorScale" : {
                              "type" : "double",
                              "defaultValue" : 0.0,
                              "interp" : "linr"
                            },
                            "cursorOpacity" : {
                              "type" : "double",
                              "defaultValue" : 0.0,
                              "interp" : "linr"
                            },
                            "cursorTrackLevel" : {
                              "type" : "double",
                              "defaultValue" : 0.0,
                              "interp" : "linr"
                            },
                            "smoothCursorAcrossEditDuration" : 0
                          },
                          "effects" : [

                          ],
                          "start" : 2063268480000,
                          "duration" : 343039200000,
                          "mediaStart" : 3138932160000,
                          "mediaDuration" : 343039200000,
                          "scalar" : 1,
                          "metadata" : {
                            "AutoAppliedSmartFocus" : "False",
                            "audiateLinkedSession" : "",
                            "clipSpeedAttribute" : { "type": "bool", "value" : false},
                            "colorAttribute" : { "type": "color", "value" : [ 0, 0, 0, 0]},
                            "default-height" : { "type": "double", "value" : 1036.8},
                            "default-translation0" : { "type": "double", "value" : 0.0},
                            "default-translation1" : { "type": "double", "value" : -194.4},
                            "default-translation2" : { "type": "double", "value" : 0.0},
                            "default-width" : { "type": "double", "value" : 1932.67572815534}
                          },
                          "animationTracks" : {

                          }
                        }
                    ],
                    "effects" : [
                        {
                          "effectName" : "CursorColor",
                          "bypassed" : false,
                          "category" : "categoryCursorEffects",
                          "parameters" : {
                            "intensity" : 1.0,
                            "desaturation" : 0.0,
                            "colorLumaCutoff" : 1.0,
                            "color-alpha" : 1.0,
                            "color-red" : 1.0,
                            "color-green" : 0.8980392157,
                            "color-blue" : 0.1215686275,
                            "secondColor-red" : 0.0,
                            "secondColor-green" : 0.0,
                            "secondColor-blue" : 0.0,
                            "secondColor-alpha" : 1.0,
                            "secondColorLumaCutoff" : 0.0,
                            "channel" : 0,
                            "shadowRampStart" : 0.0,
                            "shadowRampEnd" : 0.0,
                            "highlightRampStart" : 1.0,
                            "highlightRampEnd" : 1.0
                          }
                        },
                        {
                          "effectName" : "CursorShadow",
                          "bypassed" : false,
                          "category" : "categoryCursorEffects",
                          "parameters" : {
                            "angle" : 3.92699081698724,
                            "enabled" : 1,
                            "offset" : 5.0,
                            "blur" : 2.0,
                            "opacity" : 0.25,
                            "color-red" : 0.0,
                            "color-green" : 0.0,
                            "color-blue" : 0.0,
                            "color-alpha" : 1.0
                          }
                        },
                        {
                          "effectName" : "CursorHilight",
                          "bypassed" : false,
                          "category" : "categoryCursorEffects",
                          "parameters" : {
                            "radius" : 50.0,
                            "color-red" : 1.0,
                            "color-green" : 1.0,
                            "color-blue" : 0.0,
                            "color-alpha" : 0.75,
                            "blur" : 0.1
                          }
                        }
                    ],
                    "start" : 19968480000,
                    "duration" : 4233600000,
                    "mediaStart" : 75546240000,
                    "mediaDuration" : "354352320000/41",
                    "scalar" : "529200000/1080342439",
                    "metadata" : {
                      "AutoAppliedSmartFocus" : "False",
                      "audiateLinkedSession" : "",
                      "clipSpeedAttribute" : { "type": "bool", "value" : true},
                      "colorAttribute" : { "type": "color", "value" : [ 0, 0, 0, 0]},
                      "default-height" : { "type": "double", "value" : 1036.8},
                      "default-translation0" : { "type": "double", "value" : 0.0},
                      "default-translation1" : { "type": "double", "value" : -194.4},
                      "default-translation2" : { "type": "double", "value" : 0.0},
                      "default-width" : { "type": "double", "value" : 1932.67572815534}
                    },
                    "animationTracks" : {

                    }
                  },
                  {
                    "id" : 72,
                    "_type" : "StitchedMedia",
                    "minMediaStart" : 0,
                    "attributes" : {
                      "ident" : "Rec 4-22-2025-8-51-30-PM",
                      "gain" : 1.0,
                      "mixToMono" : false,
                      "loudnessNormalization" : true,
                      "sourceFileOffset" : 0
                    },
                    "parameters" : {
                      "translation0" : 6.33786407766917,
                      "translation1" : -2.8421709430404e-14,
                      "scale0" : 0.503300970873786,
                      "scale1" : 0.503300970873786,
                      "geometryCrop0" : 0.0,
                      "geometryCrop1" : 0.0,
                      "geometryCrop2" : 0.0,
                      "geometryCrop3" : 0.0,
                      "cursorOpacity" : 1.0,
                      "cursorTrackLevel" : 0.0,
                      "cursorScale" : 5.0,
                      "smoothCursorAcrossEditDuration" : 0
                    },
                    "medias" : [
                        {
                          "id" : 73,
                          "_type" : "ScreenVMFile",
                          "src" : 2,
                          "trackNumber" : 0,
                          "attributes" : {
                            "ident" : "Rec 4-22-2025-8-51-30-PM"
                          },
                          "parameters" : {
                            "geometryCrop0" : {
                              "type" : "double",
                              "defaultValue" : 0.0,
                              "interp" : "eioe"
                            },
                            "geometryCrop1" : {
                              "type" : "double",
                              "defaultValue" : 0.0,
                              "interp" : "eioe"
                            },
                            "geometryCrop2" : {
                              "type" : "double",
                              "defaultValue" : 0.0,
                              "interp" : "eioe"
                            },
                            "geometryCrop3" : {
                              "type" : "double",
                              "defaultValue" : 0.0,
                              "interp" : "eioe"
                            },
                            "cursorScale" : {
                              "type" : "double",
                              "defaultValue" : 0.0,
                              "interp" : "linr"
                            },
                            "cursorOpacity" : {
                              "type" : "double",
                              "defaultValue" : 0.0,
                              "interp" : "linr"
                            },
                            "cursorTrackLevel" : {
                              "type" : "double",
                              "defaultValue" : 0.0,
                              "interp" : "linr"
                            },
                            "smoothCursorAcrossEditDuration" : 0
                          },
                          "effects" : [

                          ],
                          "start" : 0,
                          "duration" : 50991360000,
                          "mediaStart" : 0,
                          "mediaDuration" : 50991360000,
                          "scalar" : 1,
                          "metadata" : {
                            "AutoAppliedSmartFocus" : "False",
                            "audiateLinkedSession" : "",
                            "clipSpeedAttribute" : { "type": "bool", "value" : false},
                            "colorAttribute" : { "type": "color", "value" : [ 0, 0, 0, 0]},
                            "default-height" : { "type": "double", "value" : 1036.8},
                            "default-translation0" : { "type": "double", "value" : 0.0},
                            "default-translation1" : { "type": "double", "value" : -194.4},
                            "default-translation2" : { "type": "double", "value" : 0.0},
                            "default-width" : { "type": "double", "value" : 1932.67572815534}
                          },
                          "animationTracks" : {

                          }
                        },
                        {
                          "id" : 74,
                          "_type" : "ScreenVMFile",
                          "src" : 2,
                          "trackNumber" : 0,
                          "attributes" : {
                            "ident" : "Rec 4-22-2025-8-51-30-PM"
                          },
                          "parameters" : {
                            "geometryCrop0" : {
                              "type" : "double",
                              "defaultValue" : 0.0,
                              "interp" : "eioe"
                            },
                            "geometryCrop1" : {
                              "type" : "double",
                              "defaultValue" : 0.0,
                              "interp" : "eioe"
                            },
                            "geometryCrop2" : {
                              "type" : "double",
                              "defaultValue" : 0.0,
                              "interp" : "eioe"
                            },
                            "geometryCrop3" : {
                              "type" : "double",
                              "defaultValue" : 0.0,
                              "interp" : "eioe"
                            },
                            "cursorScale" : {
                              "type" : "double",
                              "defaultValue" : 0.0,
                              "interp" : "linr"
                            },
                            "cursorOpacity" : {
                              "type" : "double",
                              "defaultValue" : 0.0,
                              "interp" : "linr"
                            },
                            "cursorTrackLevel" : {
                              "type" : "double",
                              "defaultValue" : 0.0,
                              "interp" : "linr"
                            },
                            "smoothCursorAcrossEditDuration" : 0
                          },
                          "effects" : [

                          ],
                          "start" : 50991360000,
                          "duration" : 41700960000,
                          "mediaStart" : 66467520000,
                          "mediaDuration" : 41700960000,
                          "scalar" : 1,
                          "metadata" : {
                            "AutoAppliedSmartFocus" : "False",
                            "audiateLinkedSession" : "",
                            "clipSpeedAttribute" : { "type": "bool", "value" : false},
                            "colorAttribute" : { "type": "color", "value" : [ 0, 0, 0, 0]},
                            "default-height" : { "type": "double", "value" : 1036.8},
                            "default-translation0" : { "type": "double", "value" : 0.0},
                            "default-translation1" : { "type": "double", "value" : -194.4},
                            "default-translation2" : { "type": "double", "value" : 0.0},
                            "default-width" : { "type": "double", "value" : 1932.67572815534}
                          },
                          "animationTracks" : {

                          }
                        },
                        {
                          "id" : 75,
                          "_type" : "ScreenVMFile",
                          "src" : 2,
                          "trackNumber" : 0,
                          "attributes" : {
                            "ident" : "Rec 4-22-2025-8-51-30-PM"
                          },
                          "parameters" : {
                            "geometryCrop0" : {
                              "type" : "double",
                              "defaultValue" : 0.0,
                              "interp" : "eioe"
                            },
                            "geometryCrop1" : {
                              "type" : "double",
                              "defaultValue" : 0.0,
                              "interp" : "eioe"
                            },
                            "geometryCrop2" : {
                              "type" : "double",
                              "defaultValue" : 0.0,
                              "interp" : "eioe"
                            },
                            "geometryCrop3" : {
                              "type" : "double",
                              "defaultValue" : 0.0,
                              "interp" : "eioe"
                            },
                            "cursorScale" : {
                              "type" : "double",
                              "defaultValue" : 0.0,
                              "interp" : "linr"
                            },
                            "cursorOpacity" : {
                              "type" : "double",
                              "defaultValue" : 0.0,
                              "interp" : "linr"
                            },
                            "cursorTrackLevel" : {
                              "type" : "double",
                              "defaultValue" : 0.0,
                              "interp" : "linr"
                            },
                            "smoothCursorAcrossEditDuration" : 0
                          },
                          "effects" : [

                          ],
                          "start" : 92692320000,
                          "duration" : 729120000,
                          "mediaStart" : 108168480000,
                          "mediaDuration" : 729120000,
                          "scalar" : 1,
                          "metadata" : {
                            "AutoAppliedSmartFocus" : "False",
                            "audiateLinkedSession" : "",
                            "clipSpeedAttribute" : { "type": "bool", "value" : false},
                            "colorAttribute" : { "type": "color", "value" : [ 0, 0, 0, 0]},
                            "default-height" : { "type": "double", "value" : 1036.8},
                            "default-translation0" : { "type": "double", "value" : 0.0},
                            "default-translation1" : { "type": "double", "value" : -194.4},
                            "default-translation2" : { "type": "double", "value" : 0.0},
                            "default-width" : { "type": "double", "value" : 1932.67572815534}
                          },
                          "animationTracks" : {

                          }
                        },
                        {
                          "id" : 76,
                          "_type" : "ScreenVMFile",
                          "src" : 2,
                          "trackNumber" : 0,
                          "attributes" : {
                            "ident" : "Rec 4-22-2025-8-51-30-PM"
                          },
                          "parameters" : {
                            "geometryCrop0" : {
                              "type" : "double",
                              "defaultValue" : 0.0,
                              "interp" : "eioe"
                            },
                            "geometryCrop1" : {
                              "type" : "double",
                              "defaultValue" : 0.0,
                              "interp" : "eioe"
                            },
                            "geometryCrop2" : {
                              "type" : "double",
                              "defaultValue" : 0.0,
                              "interp" : "eioe"
                            },
                            "geometryCrop3" : {
                              "type" : "double",
                              "defaultValue" : 0.0,
                              "interp" : "eioe"
                            },
                            "cursorScale" : {
                              "type" : "double",
                              "defaultValue" : 0.0,
                              "interp" : "linr"
                            },
                            "cursorOpacity" : {
                              "type" : "double",
                              "defaultValue" : 0.0,
                              "interp" : "linr"
                            },
                            "cursorTrackLevel" : {
                              "type" : "double",
                              "defaultValue" : 0.0,
                              "interp" : "linr"
                            },
                            "smoothCursorAcrossEditDuration" : 0
                          },
                          "effects" : [

                          ],
                          "start" : 93421440000,
                          "duration" : 4233600000,
                          "mediaStart" : 108897600000,
                          "mediaDuration" : 4233600000,
                          "scalar" : 1,
                          "metadata" : {
                            "AutoAppliedSmartFocus" : "False",
                            "audiateLinkedSession" : "",
                            "clipSpeedAttribute" : { "type": "bool", "value" : false},
                            "colorAttribute" : { "type": "color", "value" : [ 0, 0, 0, 0]},
                            "default-height" : { "type": "double", "value" : 1036.8},
                            "default-translation0" : { "type": "double", "value" : 0.0},
                            "default-translation1" : { "type": "double", "value" : -194.4},
                            "default-translation2" : { "type": "double", "value" : 0.0},
                            "default-width" : { "type": "double", "value" : 1932.67572815534}
                          },
                          "animationTracks" : {

                          }
                        },
                        {
                          "id" : 77,
                          "_type" : "ScreenVMFile",
                          "src" : 2,
                          "trackNumber" : 0,
                          "attributes" : {
                            "ident" : "Rec 4-22-2025-8-51-30-PM"
                          },
                          "parameters" : {
                            "geometryCrop0" : {
                              "type" : "double",
                              "defaultValue" : 0.0,
                              "interp" : "eioe"
                            },
                            "geometryCrop1" : {
                              "type" : "double",
                              "defaultValue" : 0.0,
                              "interp" : "eioe"
                            },
                            "geometryCrop2" : {
                              "type" : "double",
                              "defaultValue" : 0.0,
                              "interp" : "eioe"
                            },
                            "geometryCrop3" : {
                              "type" : "double",
                              "defaultValue" : 0.0,
                              "interp" : "eioe"
                            },
                            "cursorScale" : {
                              "type" : "double",
                              "defaultValue" : 0.0,
                              "interp" : "linr"
                            },
                            "cursorOpacity" : {
                              "type" : "double",
                              "defaultValue" : 0.0,
                              "interp" : "linr"
                            },
                            "cursorTrackLevel" : {
                              "type" : "double",
                              "defaultValue" : 0.0,
                              "interp" : "linr"
                            },
                            "smoothCursorAcrossEditDuration" : 0
                          },
                          "effects" : [

                          ],
                          "start" : 97655040000,
                          "duration" : 352282560000,
                          "mediaStart" : 149352000000,
                          "mediaDuration" : 352282560000,
                          "scalar" : 1,
                          "metadata" : {
                            "AutoAppliedSmartFocus" : "False",
                            "audiateLinkedSession" : "",
                            "clipSpeedAttribute" : { "type": "bool", "value" : false},
                            "colorAttribute" : { "type": "color", "value" : [ 0, 0, 0, 0]},
                            "default-height" : { "type": "double", "value" : 1036.8},
                            "default-translation0" : { "type": "double", "value" : 0.0},
                            "default-translation1" : { "type": "double", "value" : -194.4},
                            "default-translation2" : { "type": "double", "value" : 0.0},
                            "default-width" : { "type": "double", "value" : 1932.67572815534}
                          },
                          "animationTracks" : {

                          }
                        },
                        {
                          "id" : 78,
                          "_type" : "ScreenVMFile",
                          "src" : 2,
                          "trackNumber" : 0,
                          "attributes" : {
                            "ident" : "Rec 4-22-2025-8-51-30-PM"
                          },
                          "parameters" : {
                            "geometryCrop0" : {
                              "type" : "double",
                              "defaultValue" : 0.0,
                              "interp" : "eioe"
                            },
                            "geometryCrop1" : {
                              "type" : "double",
                              "defaultValue" : 0.0,
                              "interp" : "eioe"
                            },
                            "geometryCrop2" : {
                              "type" : "double",
                              "defaultValue" : 0.0,
                              "interp" : "eioe"
                            },
                            "geometryCrop3" : {
                              "type" : "double",
                              "defaultValue" : 0.0,
                              "interp" : "eioe"
                            },
                            "cursorScale" : {
                              "type" : "double",
                              "defaultValue" : 0.0,
                              "interp" : "linr"
                            },
                            "cursorOpacity" : {
                              "type" : "double",
                              "defaultValue" : 0.0,
                              "interp" : "linr"
                            },
                            "cursorTrackLevel" : {
                              "type" : "double",
                              "defaultValue" : 0.0,
                              "interp" : "linr"
                            },
                            "smoothCursorAcrossEditDuration" : 0
                          },
                          "effects" : [

                          ],
                          "start" : 449937600000,
                          "duration" : 8961120000,
                          "mediaStart" : 509843040000,
                          "mediaDuration" : 8961120000,
                          "scalar" : 1,
                          "metadata" : {
                            "AutoAppliedSmartFocus" : "False",
                            "audiateLinkedSession" : "",
                            "clipSpeedAttribute" : { "type": "bool", "value" : false},
                            "colorAttribute" : { "type": "color", "value" : [ 0, 0, 0, 0]},
                            "default-height" : { "type": "double", "value" : 1036.8},
                            "default-translation0" : { "type": "double", "value" : 0.0},
                            "default-translation1" : { "type": "double", "value" : -194.4},
                            "default-translation2" : { "type": "double", "value" : 0.0},
                            "default-width" : { "type": "double", "value" : 1932.67572815534}
                          },
                          "animationTracks" : {

                          }
                        },
                        {
                          "id" : 79,
                          "_type" : "ScreenVMFile",
                          "src" : 2,
                          "trackNumber" : 0,
                          "attributes" : {
                            "ident" : "Rec 4-22-2025-8-51-30-PM"
                          },
                          "parameters" : {
                            "geometryCrop0" : {
                              "type" : "double",
                              "defaultValue" : 0.0,
                              "interp" : "eioe"
                            },
                            "geometryCrop1" : {
                              "type" : "double",
                              "defaultValue" : 0.0,
                              "interp" : "eioe"
                            },
                            "geometryCrop2" : {
                              "type" : "double",
                              "defaultValue" : 0.0,
                              "interp" : "eioe"
                            },
                            "geometryCrop3" : {
                              "type" : "double",
                              "defaultValue" : 0.0,
                              "interp" : "eioe"
                            },
                            "cursorScale" : {
                              "type" : "double",
                              "defaultValue" : 0.0,
                              "interp" : "linr"
                            },
                            "cursorOpacity" : {
                              "type" : "double",
                              "defaultValue" : 0.0,
                              "interp" : "linr"
                            },
                            "cursorTrackLevel" : {
                              "type" : "double",
                              "defaultValue" : 0.0,
                              "interp" : "linr"
                            },
                            "smoothCursorAcrossEditDuration" : 0
                          },
                          "effects" : [

                          ],
                          "start" : 458898720000,
                          "duration" : 581226240000,
                          "mediaStart" : 1416350880000,
                          "mediaDuration" : 581226240000,
                          "scalar" : 1,
                          "metadata" : {
                            "AutoAppliedSmartFocus" : "False",
                            "audiateLinkedSession" : "",
                            "clipSpeedAttribute" : { "type": "bool", "value" : false},
                            "colorAttribute" : { "type": "color", "value" : [ 0, 0, 0, 0]},
                            "default-height" : { "type": "double", "value" : 1036.8},
                            "default-translation0" : { "type": "double", "value" : 0.0},
                            "default-translation1" : { "type": "double", "value" : -194.4},
                            "default-translation2" : { "type": "double", "value" : 0.0},
                            "default-width" : { "type": "double", "value" : 1932.67572815534}
                          },
                          "animationTracks" : {

                          }
                        },
                        {
                          "id" : 80,
                          "_type" : "ScreenVMFile",
                          "src" : 2,
                          "trackNumber" : 0,
                          "attributes" : {
                            "ident" : "Rec 4-22-2025-8-51-30-PM"
                          },
                          "parameters" : {
                            "geometryCrop0" : {
                              "type" : "double",
                              "defaultValue" : 0.0,
                              "interp" : "eioe"
                            },
                            "geometryCrop1" : {
                              "type" : "double",
                              "defaultValue" : 0.0,
                              "interp" : "eioe"
                            },
                            "geometryCrop2" : {
                              "type" : "double",
                              "defaultValue" : 0.0,
                              "interp" : "eioe"
                            },
                            "geometryCrop3" : {
                              "type" : "double",
                              "defaultValue" : 0.0,
                              "interp" : "eioe"
                            },
                            "cursorScale" : {
                              "type" : "double",
                              "defaultValue" : 0.0,
                              "interp" : "linr"
                            },
                            "cursorOpacity" : {
                              "type" : "double",
                              "defaultValue" : 0.0,
                              "interp" : "linr"
                            },
                            "cursorTrackLevel" : {
                              "type" : "double",
                              "defaultValue" : 0.0,
                              "interp" : "linr"
                            },
                            "smoothCursorAcrossEditDuration" : 0
                          },
                          "effects" : [

                          ],
                          "start" : 1040124960000,
                          "duration" : 215419680000,
                          "mediaStart" : 2018886240000,
                          "mediaDuration" : 215419680000,
                          "scalar" : 1,
                          "metadata" : {
                            "AutoAppliedSmartFocus" : "False",
                            "audiateLinkedSession" : "",
                            "clipSpeedAttribute" : { "type": "bool", "value" : false},
                            "colorAttribute" : { "type": "color", "value" : [ 0, 0, 0, 0]},
                            "default-height" : { "type": "double", "value" : 1036.8},
                            "default-translation0" : { "type": "double", "value" : 0.0},
                            "default-translation1" : { "type": "double", "value" : -194.4},
                            "default-translation2" : { "type": "double", "value" : 0.0},
                            "default-width" : { "type": "double", "value" : 1932.67572815534}
                          },
                          "animationTracks" : {

                          }
                        },
                        {
                          "id" : 81,
                          "_type" : "ScreenVMFile",
                          "src" : 2,
                          "trackNumber" : 0,
                          "attributes" : {
                            "ident" : "Rec 4-22-2025-8-51-30-PM"
                          },
                          "parameters" : {
                            "geometryCrop0" : {
                              "type" : "double",
                              "defaultValue" : 0.0,
                              "interp" : "eioe"
                            },
                            "geometryCrop1" : {
                              "type" : "double",
                              "defaultValue" : 0.0,
                              "interp" : "eioe"
                            },
                            "geometryCrop2" : {
                              "type" : "double",
                              "defaultValue" : 0.0,
                              "interp" : "eioe"
                            },
                            "geometryCrop3" : {
                              "type" : "double",
                              "defaultValue" : 0.0,
                              "interp" : "eioe"
                            },
                            "cursorScale" : {
                              "type" : "double",
                              "defaultValue" : 0.0,
                              "interp" : "linr"
                            },
                            "cursorOpacity" : {
                              "type" : "double",
                              "defaultValue" : 0.0,
                              "interp" : "linr"
                            },
                            "cursorTrackLevel" : {
                              "type" : "double",
                              "defaultValue" : 0.0,
                              "interp" : "linr"
                            },
                            "smoothCursorAcrossEditDuration" : 0
                          },
                          "effects" : [

                          ],
                          "start" : 1255544640000,
                          "duration" : 786955680000,
                          "mediaStart" : 2257778880000,
                          "mediaDuration" : 786955680000,
                          "scalar" : 1,
                          "metadata" : {
                            "AutoAppliedSmartFocus" : "False",
                            "audiateLinkedSession" : "",
                            "clipSpeedAttribute" : { "type": "bool", "value" : false},
                            "colorAttribute" : { "type": "color", "value" : [ 0, 0, 0, 0]},
                            "default-height" : { "type": "double", "value" : 1036.8},
                            "default-translation0" : { "type": "double", "value" : 0.0},
                            "default-translation1" : { "type": "double", "value" : -194.4},
                            "default-translation2" : { "type": "double", "value" : 0.0},
                            "default-width" : { "type": "double", "value" : 1932.67572815534}
                          },
                          "animationTracks" : {

                          }
                        },
                        {
                          "id" : 82,
                          "_type" : "ScreenVMFile",
                          "src" : 2,
                          "trackNumber" : 0,
                          "attributes" : {
                            "ident" : "Rec 4-22-2025-8-51-30-PM"
                          },
                          "parameters" : {
                            "geometryCrop0" : {
                              "type" : "double",
                              "defaultValue" : 0.0,
                              "interp" : "eioe"
                            },
                            "geometryCrop1" : {
                              "type" : "double",
                              "defaultValue" : 0.0,
                              "interp" : "eioe"
                            },
                            "geometryCrop2" : {
                              "type" : "double",
                              "defaultValue" : 0.0,
                              "interp" : "eioe"
                            },
                            "geometryCrop3" : {
                              "type" : "double",
                              "defaultValue" : 0.0,
                              "interp" : "eioe"
                            },
                            "cursorScale" : {
                              "type" : "double",
                              "defaultValue" : 0.0,
                              "interp" : "linr"
                            },
                            "cursorOpacity" : {
                              "type" : "double",
                              "defaultValue" : 0.0,
                              "interp" : "linr"
                            },
                            "cursorTrackLevel" : {
                              "type" : "double",
                              "defaultValue" : 0.0,
                              "interp" : "linr"
                            },
                            "smoothCursorAcrossEditDuration" : 0
                          },
                          "effects" : [

                          ],
                          "start" : 2042500320000,
                          "duration" : 20768160000,
                          "mediaStart" : 3047580480000,
                          "mediaDuration" : 20768160000,
                          "scalar" : 1,
                          "metadata" : {
                            "AutoAppliedSmartFocus" : "False",
                            "audiateLinkedSession" : "",
                            "clipSpeedAttribute" : { "type": "bool", "value" : false},
                            "colorAttribute" : { "type": "color", "value" : [ 0, 0, 0, 0]},
                            "default-height" : { "type": "double", "value" : 1036.8},
                            "default-translation0" : { "type": "double", "value" : 0.0},
                            "default-translation1" : { "type": "double", "value" : -194.4},
                            "default-translation2" : { "type": "double", "value" : 0.0},
                            "default-width" : { "type": "double", "value" : 1932.67572815534}
                          },
                          "animationTracks" : {

                          }
                        },
                        {
                          "id" : 83,
                          "_type" : "ScreenVMFile",
                          "src" : 2,
                          "trackNumber" : 0,
                          "attributes" : {
                            "ident" : "Rec 4-22-2025-8-51-30-PM"
                          },
                          "parameters" : {
                            "geometryCrop0" : {
                              "type" : "double",
                              "defaultValue" : 0.0,
                              "interp" : "eioe"
                            },
                            "geometryCrop1" : {
                              "type" : "double",
                              "defaultValue" : 0.0,
                              "interp" : "eioe"
                            },
                            "geometryCrop2" : {
                              "type" : "double",
                              "defaultValue" : 0.0,
                              "interp" : "eioe"
                            },
                            "geometryCrop3" : {
                              "type" : "double",
                              "defaultValue" : 0.0,
                              "interp" : "eioe"
                            },
                            "cursorScale" : {
                              "type" : "double",
                              "defaultValue" : 0.0,
                              "interp" : "linr"
                            },
                            "cursorOpacity" : {
                              "type" : "double",
                              "defaultValue" : 0.0,
                              "interp" : "linr"
                            },
                            "cursorTrackLevel" : {
                              "type" : "double",
                              "defaultValue" : 0.0,
                              "interp" : "linr"
                            },
                            "smoothCursorAcrossEditDuration" : 0
                          },
                          "effects" : [

                          ],
                          "start" : 2063268480000,
                          "duration" : 343039200000,
                          "mediaStart" : 3138932160000,
                          "mediaDuration" : 343039200000,
                          "scalar" : 1,
                          "metadata" : {
                            "AutoAppliedSmartFocus" : "False",
                            "audiateLinkedSession" : "",
                            "clipSpeedAttribute" : { "type": "bool", "value" : false},
                            "colorAttribute" : { "type": "color", "value" : [ 0, 0, 0, 0]},
                            "default-height" : { "type": "double", "value" : 1036.8},
                            "default-translation0" : { "type": "double", "value" : 0.0},
                            "default-translation1" : { "type": "double", "value" : -194.4},
                            "default-translation2" : { "type": "double", "value" : 0.0},
                            "default-width" : { "type": "double", "value" : 1932.67572815534}
                          },
                          "animationTracks" : {

                          }
                        }
                    ],
                    "effects" : [
                        {
                          "effectName" : "CursorColor",
                          "bypassed" : false,
                          "category" : "categoryCursorEffects",
                          "parameters" : {
                            "intensity" : 1.0,
                            "desaturation" : 0.0,
                            "colorLumaCutoff" : 1.0,
                            "color-alpha" : 1.0,
                            "color-red" : 1.0,
                            "color-green" : 0.8980392157,
                            "color-blue" : 0.1215686275,
                            "secondColor-red" : 0.0,
                            "secondColor-green" : 0.0,
                            "secondColor-blue" : 0.0,
                            "secondColor-alpha" : 1.0,
                            "secondColorLumaCutoff" : 0.0,
                            "channel" : 0,
                            "shadowRampStart" : 0.0,
                            "shadowRampEnd" : 0.0,
                            "highlightRampStart" : 1.0,
                            "highlightRampEnd" : 1.0
                          }
                        },
                        {
                          "effectName" : "CursorShadow",
                          "bypassed" : false,
                          "category" : "categoryCursorEffects",
                          "parameters" : {
                            "angle" : 3.92699081698724,
                            "enabled" : 1,
                            "offset" : 5.0,
                            "blur" : 2.0,
                            "opacity" : 0.25,
                            "color-red" : 0.0,
                            "color-green" : 0.0,
                            "color-blue" : 0.0,
                            "color-alpha" : 1.0
                          }
                        },
                        {
                          "effectName" : "CursorHilight",
                          "bypassed" : false,
                          "category" : "categoryCursorEffects",
                          "parameters" : {
                            "radius" : 50.0,
                            "color-red" : 1.0,
                            "color-green" : 1.0,
                            "color-blue" : 0.0,
                            "color-alpha" : 0.75,
                            "blur" : 0.1
                          }
                        }
                    ],
                    "start" : 24202080000,
                    "duration" : 1723788387,
                    "mediaStart" : "3451748160000/41",
                    "mediaDuration" : "348446448000/41",
                    "scalar" : "191532043/944299317",
                    "metadata" : {
                      "AutoAppliedSmartFocus" : "False",
                      "audiateLinkedSession" : "",
                      "clipSpeedAttribute" : { "type": "bool", "value" : true},
                      "colorAttribute" : { "type": "color", "value" : [ 0, 0, 0, 0]},
                      "default-height" : { "type": "double", "value" : 1036.8},
                      "default-translation0" : { "type": "double", "value" : 0.0},
                      "default-translation1" : { "type": "double", "value" : -194.4},
                      "default-translation2" : { "type": "double", "value" : 0.0},
                      "default-width" : { "type": "double", "value" : 1932.67572815534}
                    },
                    "animationTracks" : {

                    }
                  },
                  {
                    "id" : 84,
                    "_type" : "StitchedMedia",
                    "minMediaStart" : 0,
                    "attributes" : {
                      "ident" : "Rec 4-22-2025-8-51-30-PM",
                      "gain" : 1.0,
                      "mixToMono" : false,
                      "loudnessNormalization" : true,
                      "sourceFileOffset" : 0
                    },
                    "parameters" : {
                      "translation0" : 6.33786407766917,
                      "translation1" : -2.8421709430404e-14,
                      "scale0" : 0.503300970873786,
                      "scale1" : 0.503300970873786,
                      "geometryCrop0" : 0.0,
                      "geometryCrop1" : 0.0,
                      "geometryCrop2" : 0.0,
                      "geometryCrop3" : 0.0,
                      "toc" : {
                        "type" : "string",
                        "keyframes" : [
                          {
                            "endTime" : 92692320000,
                            "time" : 92692320000,
                            "value" : "Assign issue",
                            "duration" : 0,
                            "metadata" : {
                              "markerIdentifier" : "1C5B964B-36BB-41CE-A5E0-726A8B9BF9BF"
                            }
                          },
                          {
                            "endTime" : 95208960000,
                            "time" : 95208960000,
                            "value" : "Click Assign Issue",
                            "duration" : 0,
                            "metadata" : {
                              "markerIdentifier" : "A9176B47-8B72-44A1-8DD9-E149C94D6583"
                            }
                          }
                        ]
                      },
                      "cursorOpacity" : 1.0,
                      "cursorTrackLevel" : 0.0,
                      "cursorScale" : 5.0,
                      "smoothCursorAcrossEditDuration" : 0
                    },
                    "medias" : [
                        {
                          "id" : 85,
                          "_type" : "ScreenVMFile",
                          "src" : 2,
                          "trackNumber" : 0,
                          "attributes" : {
                            "ident" : "Rec 4-22-2025-8-51-30-PM"
                          },
                          "parameters" : {
                            "geometryCrop0" : {
                              "type" : "double",
                              "defaultValue" : 0.0,
                              "interp" : "eioe"
                            },
                            "geometryCrop1" : {
                              "type" : "double",
                              "defaultValue" : 0.0,
                              "interp" : "eioe"
                            },
                            "geometryCrop2" : {
                              "type" : "double",
                              "defaultValue" : 0.0,
                              "interp" : "eioe"
                            },
                            "geometryCrop3" : {
                              "type" : "double",
                              "defaultValue" : 0.0,
                              "interp" : "eioe"
                            },
                            "cursorScale" : {
                              "type" : "double",
                              "defaultValue" : 0.0,
                              "interp" : "linr"
                            },
                            "cursorOpacity" : {
                              "type" : "double",
                              "defaultValue" : 0.0,
                              "interp" : "linr"
                            },
                            "cursorTrackLevel" : {
                              "type" : "double",
                              "defaultValue" : 0.0,
                              "interp" : "linr"
                            },
                            "smoothCursorAcrossEditDuration" : 0
                          },
                          "effects" : [

                          ],
                          "start" : 0,
                          "duration" : 50991360000,
                          "mediaStart" : 0,
                          "mediaDuration" : 50991360000,
                          "scalar" : 1,
                          "metadata" : {
                            "AutoAppliedSmartFocus" : "False",
                            "audiateLinkedSession" : "",
                            "clipSpeedAttribute" : { "type": "bool", "value" : false},
                            "colorAttribute" : { "type": "color", "value" : [ 0, 0, 0, 0]},
                            "default-height" : { "type": "double", "value" : 1036.8},
                            "default-translation0" : { "type": "double", "value" : 0.0},
                            "default-translation1" : { "type": "double", "value" : -194.4},
                            "default-translation2" : { "type": "double", "value" : 0.0},
                            "default-width" : { "type": "double", "value" : 1932.67572815534}
                          },
                          "animationTracks" : {

                          }
                        },
                        {
                          "id" : 86,
                          "_type" : "ScreenVMFile",
                          "src" : 2,
                          "trackNumber" : 0,
                          "attributes" : {
                            "ident" : "Rec 4-22-2025-8-51-30-PM"
                          },
                          "parameters" : {
                            "geometryCrop0" : {
                              "type" : "double",
                              "defaultValue" : 0.0,
                              "interp" : "eioe"
                            },
                            "geometryCrop1" : {
                              "type" : "double",
                              "defaultValue" : 0.0,
                              "interp" : "eioe"
                            },
                            "geometryCrop2" : {
                              "type" : "double",
                              "defaultValue" : 0.0,
                              "interp" : "eioe"
                            },
                            "geometryCrop3" : {
                              "type" : "double",
                              "defaultValue" : 0.0,
                              "interp" : "eioe"
                            },
                            "cursorScale" : {
                              "type" : "double",
                              "defaultValue" : 0.0,
                              "interp" : "linr"
                            },
                            "cursorOpacity" : {
                              "type" : "double",
                              "defaultValue" : 0.0,
                              "interp" : "linr"
                            },
                            "cursorTrackLevel" : {
                              "type" : "double",
                              "defaultValue" : 0.0,
                              "interp" : "linr"
                            },
                            "smoothCursorAcrossEditDuration" : 0
                          },
                          "effects" : [

                          ],
                          "start" : 50991360000,
                          "duration" : 41700960000,
                          "mediaStart" : 66467520000,
                          "mediaDuration" : 41700960000,
                          "scalar" : 1,
                          "metadata" : {
                            "AutoAppliedSmartFocus" : "False",
                            "audiateLinkedSession" : "",
                            "clipSpeedAttribute" : { "type": "bool", "value" : false},
                            "colorAttribute" : { "type": "color", "value" : [ 0, 0, 0, 0]},
                            "default-height" : { "type": "double", "value" : 1036.8},
                            "default-translation0" : { "type": "double", "value" : 0.0},
                            "default-translation1" : { "type": "double", "value" : -194.4},
                            "default-translation2" : { "type": "double", "value" : 0.0},
                            "default-width" : { "type": "double", "value" : 1932.67572815534}
                          },
                          "animationTracks" : {

                          }
                        },
                        {
                          "id" : 87,
                          "_type" : "ScreenVMFile",
                          "src" : 2,
                          "trackNumber" : 0,
                          "attributes" : {
                            "ident" : "Rec 4-22-2025-8-51-30-PM"
                          },
                          "parameters" : {
                            "geometryCrop0" : {
                              "type" : "double",
                              "defaultValue" : 0.0,
                              "interp" : "eioe"
                            },
                            "geometryCrop1" : {
                              "type" : "double",
                              "defaultValue" : 0.0,
                              "interp" : "eioe"
                            },
                            "geometryCrop2" : {
                              "type" : "double",
                              "defaultValue" : 0.0,
                              "interp" : "eioe"
                            },
                            "geometryCrop3" : {
                              "type" : "double",
                              "defaultValue" : 0.0,
                              "interp" : "eioe"
                            },
                            "cursorScale" : {
                              "type" : "double",
                              "defaultValue" : 0.0,
                              "interp" : "linr"
                            },
                            "cursorOpacity" : {
                              "type" : "double",
                              "defaultValue" : 0.0,
                              "interp" : "linr"
                            },
                            "cursorTrackLevel" : {
                              "type" : "double",
                              "defaultValue" : 0.0,
                              "interp" : "linr"
                            },
                            "smoothCursorAcrossEditDuration" : 0
                          },
                          "effects" : [

                          ],
                          "start" : 92692320000,
                          "duration" : 729120000,
                          "mediaStart" : 108168480000,
                          "mediaDuration" : 729120000,
                          "scalar" : 1,
                          "metadata" : {
                            "AutoAppliedSmartFocus" : "False",
                            "audiateLinkedSession" : "",
                            "clipSpeedAttribute" : { "type": "bool", "value" : false},
                            "colorAttribute" : { "type": "color", "value" : [ 0, 0, 0, 0]},
                            "default-height" : { "type": "double", "value" : 1036.8},
                            "default-translation0" : { "type": "double", "value" : 0.0},
                            "default-translation1" : { "type": "double", "value" : -194.4},
                            "default-translation2" : { "type": "double", "value" : 0.0},
                            "default-width" : { "type": "double", "value" : 1932.67572815534}
                          },
                          "animationTracks" : {

                          }
                        },
                        {
                          "id" : 88,
                          "_type" : "ScreenVMFile",
                          "src" : 2,
                          "trackNumber" : 0,
                          "attributes" : {
                            "ident" : "Rec 4-22-2025-8-51-30-PM"
                          },
                          "parameters" : {
                            "geometryCrop0" : {
                              "type" : "double",
                              "defaultValue" : 0.0,
                              "interp" : "eioe"
                            },
                            "geometryCrop1" : {
                              "type" : "double",
                              "defaultValue" : 0.0,
                              "interp" : "eioe"
                            },
                            "geometryCrop2" : {
                              "type" : "double",
                              "defaultValue" : 0.0,
                              "interp" : "eioe"
                            },
                            "geometryCrop3" : {
                              "type" : "double",
                              "defaultValue" : 0.0,
                              "interp" : "eioe"
                            },
                            "cursorScale" : {
                              "type" : "double",
                              "defaultValue" : 0.0,
                              "interp" : "linr"
                            },
                            "cursorOpacity" : {
                              "type" : "double",
                              "defaultValue" : 0.0,
                              "interp" : "linr"
                            },
                            "cursorTrackLevel" : {
                              "type" : "double",
                              "defaultValue" : 0.0,
                              "interp" : "linr"
                            },
                            "smoothCursorAcrossEditDuration" : 0
                          },
                          "effects" : [

                          ],
                          "start" : 93421440000,
                          "duration" : 4233600000,
                          "mediaStart" : 108897600000,
                          "mediaDuration" : 4233600000,
                          "scalar" : 1,
                          "metadata" : {
                            "AutoAppliedSmartFocus" : "False",
                            "audiateLinkedSession" : "",
                            "clipSpeedAttribute" : { "type": "bool", "value" : false},
                            "colorAttribute" : { "type": "color", "value" : [ 0, 0, 0, 0]},
                            "default-height" : { "type": "double", "value" : 1036.8},
                            "default-translation0" : { "type": "double", "value" : 0.0},
                            "default-translation1" : { "type": "double", "value" : -194.4},
                            "default-translation2" : { "type": "double", "value" : 0.0},
                            "default-width" : { "type": "double", "value" : 1932.67572815534}
                          },
                          "animationTracks" : {

                          }
                        },
                        {
                          "id" : 89,
                          "_type" : "ScreenVMFile",
                          "src" : 2,
                          "trackNumber" : 0,
                          "attributes" : {
                            "ident" : "Rec 4-22-2025-8-51-30-PM"
                          },
                          "parameters" : {
                            "geometryCrop0" : {
                              "type" : "double",
                              "defaultValue" : 0.0,
                              "interp" : "eioe"
                            },
                            "geometryCrop1" : {
                              "type" : "double",
                              "defaultValue" : 0.0,
                              "interp" : "eioe"
                            },
                            "geometryCrop2" : {
                              "type" : "double",
                              "defaultValue" : 0.0,
                              "interp" : "eioe"
                            },
                            "geometryCrop3" : {
                              "type" : "double",
                              "defaultValue" : 0.0,
                              "interp" : "eioe"
                            },
                            "cursorScale" : {
                              "type" : "double",
                              "defaultValue" : 0.0,
                              "interp" : "linr"
                            },
                            "cursorOpacity" : {
                              "type" : "double",
                              "defaultValue" : 0.0,
                              "interp" : "linr"
                            },
                            "cursorTrackLevel" : {
                              "type" : "double",
                              "defaultValue" : 0.0,
                              "interp" : "linr"
                            },
                            "smoothCursorAcrossEditDuration" : 0
                          },
                          "effects" : [

                          ],
                          "start" : 97655040000,
                          "duration" : 352282560000,
                          "mediaStart" : 149352000000,
                          "mediaDuration" : 352282560000,
                          "scalar" : 1,
                          "metadata" : {
                            "AutoAppliedSmartFocus" : "False",
                            "audiateLinkedSession" : "",
                            "clipSpeedAttribute" : { "type": "bool", "value" : false},
                            "colorAttribute" : { "type": "color", "value" : [ 0, 0, 0, 0]},
                            "default-height" : { "type": "double", "value" : 1036.8},
                            "default-translation0" : { "type": "double", "value" : 0.0},
                            "default-translation1" : { "type": "double", "value" : -194.4},
                            "default-translation2" : { "type": "double", "value" : 0.0},
                            "default-width" : { "type": "double", "value" : 1932.67572815534}
                          },
                          "animationTracks" : {

                          }
                        },
                        {
                          "id" : 90,
                          "_type" : "ScreenVMFile",
                          "src" : 2,
                          "trackNumber" : 0,
                          "attributes" : {
                            "ident" : "Rec 4-22-2025-8-51-30-PM"
                          },
                          "parameters" : {
                            "geometryCrop0" : {
                              "type" : "double",
                              "defaultValue" : 0.0,
                              "interp" : "eioe"
                            },
                            "geometryCrop1" : {
                              "type" : "double",
                              "defaultValue" : 0.0,
                              "interp" : "eioe"
                            },
                            "geometryCrop2" : {
                              "type" : "double",
                              "defaultValue" : 0.0,
                              "interp" : "eioe"
                            },
                            "geometryCrop3" : {
                              "type" : "double",
                              "defaultValue" : 0.0,
                              "interp" : "eioe"
                            },
                            "cursorScale" : {
                              "type" : "double",
                              "defaultValue" : 0.0,
                              "interp" : "linr"
                            },
                            "cursorOpacity" : {
                              "type" : "double",
                              "defaultValue" : 0.0,
                              "interp" : "linr"
                            },
                            "cursorTrackLevel" : {
                              "type" : "double",
                              "defaultValue" : 0.0,
                              "interp" : "linr"
                            },
                            "smoothCursorAcrossEditDuration" : 0
                          },
                          "effects" : [

                          ],
                          "start" : 449937600000,
                          "duration" : 8961120000,
                          "mediaStart" : 509843040000,
                          "mediaDuration" : 8961120000,
                          "scalar" : 1,
                          "metadata" : {
                            "AutoAppliedSmartFocus" : "False",
                            "audiateLinkedSession" : "",
                            "clipSpeedAttribute" : { "type": "bool", "value" : false},
                            "colorAttribute" : { "type": "color", "value" : [ 0, 0, 0, 0]},
                            "default-height" : { "type": "double", "value" : 1036.8},
                            "default-translation0" : { "type": "double", "value" : 0.0},
                            "default-translation1" : { "type": "double", "value" : -194.4},
                            "default-translation2" : { "type": "double", "value" : 0.0},
                            "default-width" : { "type": "double", "value" : 1932.67572815534}
                          },
                          "animationTracks" : {

                          }
                        },
                        {
                          "id" : 91,
                          "_type" : "ScreenVMFile",
                          "src" : 2,
                          "trackNumber" : 0,
                          "attributes" : {
                            "ident" : "Rec 4-22-2025-8-51-30-PM"
                          },
                          "parameters" : {
                            "geometryCrop0" : {
                              "type" : "double",
                              "defaultValue" : 0.0,
                              "interp" : "eioe"
                            },
                            "geometryCrop1" : {
                              "type" : "double",
                              "defaultValue" : 0.0,
                              "interp" : "eioe"
                            },
                            "geometryCrop2" : {
                              "type" : "double",
                              "defaultValue" : 0.0,
                              "interp" : "eioe"
                            },
                            "geometryCrop3" : {
                              "type" : "double",
                              "defaultValue" : 0.0,
                              "interp" : "eioe"
                            },
                            "cursorScale" : {
                              "type" : "double",
                              "defaultValue" : 0.0,
                              "interp" : "linr"
                            },
                            "cursorOpacity" : {
                              "type" : "double",
                              "defaultValue" : 0.0,
                              "interp" : "linr"
                            },
                            "cursorTrackLevel" : {
                              "type" : "double",
                              "defaultValue" : 0.0,
                              "interp" : "linr"
                            },
                            "smoothCursorAcrossEditDuration" : 0
                          },
                          "effects" : [

                          ],
                          "start" : 458898720000,
                          "duration" : 581226240000,
                          "mediaStart" : 1416350880000,
                          "mediaDuration" : 581226240000,
                          "scalar" : 1,
                          "metadata" : {
                            "AutoAppliedSmartFocus" : "False",
                            "audiateLinkedSession" : "",
                            "clipSpeedAttribute" : { "type": "bool", "value" : false},
                            "colorAttribute" : { "type": "color", "value" : [ 0, 0, 0, 0]},
                            "default-height" : { "type": "double", "value" : 1036.8},
                            "default-translation0" : { "type": "double", "value" : 0.0},
                            "default-translation1" : { "type": "double", "value" : -194.4},
                            "default-translation2" : { "type": "double", "value" : 0.0},
                            "default-width" : { "type": "double", "value" : 1932.67572815534}
                          },
                          "animationTracks" : {

                          }
                        },
                        {
                          "id" : 92,
                          "_type" : "ScreenVMFile",
                          "src" : 2,
                          "trackNumber" : 0,
                          "attributes" : {
                            "ident" : "Rec 4-22-2025-8-51-30-PM"
                          },
                          "parameters" : {
                            "geometryCrop0" : {
                              "type" : "double",
                              "defaultValue" : 0.0,
                              "interp" : "eioe"
                            },
                            "geometryCrop1" : {
                              "type" : "double",
                              "defaultValue" : 0.0,
                              "interp" : "eioe"
                            },
                            "geometryCrop2" : {
                              "type" : "double",
                              "defaultValue" : 0.0,
                              "interp" : "eioe"
                            },
                            "geometryCrop3" : {
                              "type" : "double",
                              "defaultValue" : 0.0,
                              "interp" : "eioe"
                            },
                            "cursorScale" : {
                              "type" : "double",
                              "defaultValue" : 0.0,
                              "interp" : "linr"
                            },
                            "cursorOpacity" : {
                              "type" : "double",
                              "defaultValue" : 0.0,
                              "interp" : "linr"
                            },
                            "cursorTrackLevel" : {
                              "type" : "double",
                              "defaultValue" : 0.0,
                              "interp" : "linr"
                            },
                            "smoothCursorAcrossEditDuration" : 0
                          },
                          "effects" : [

                          ],
                          "start" : 1040124960000,
                          "duration" : 215419680000,
                          "mediaStart" : 2018886240000,
                          "mediaDuration" : 215419680000,
                          "scalar" : 1,
                          "metadata" : {
                            "AutoAppliedSmartFocus" : "False",
                            "audiateLinkedSession" : "",
                            "clipSpeedAttribute" : { "type": "bool", "value" : false},
                            "colorAttribute" : { "type": "color", "value" : [ 0, 0, 0, 0]},
                            "default-height" : { "type": "double", "value" : 1036.8},
                            "default-translation0" : { "type": "double", "value" : 0.0},
                            "default-translation1" : { "type": "double", "value" : -194.4},
                            "default-translation2" : { "type": "double", "value" : 0.0},
                            "default-width" : { "type": "double", "value" : 1932.67572815534}
                          },
                          "animationTracks" : {

                          }
                        },
                        {
                          "id" : 93,
                          "_type" : "ScreenVMFile",
                          "src" : 2,
                          "trackNumber" : 0,
                          "attributes" : {
                            "ident" : "Rec 4-22-2025-8-51-30-PM"
                          },
                          "parameters" : {
                            "geometryCrop0" : {
                              "type" : "double",
                              "defaultValue" : 0.0,
                              "interp" : "eioe"
                            },
                            "geometryCrop1" : {
                              "type" : "double",
                              "defaultValue" : 0.0,
                              "interp" : "eioe"
                            },
                            "geometryCrop2" : {
                              "type" : "double",
                              "defaultValue" : 0.0,
                              "interp" : "eioe"
                            },
                            "geometryCrop3" : {
                              "type" : "double",
                              "defaultValue" : 0.0,
                              "interp" : "eioe"
                            },
                            "cursorScale" : {
                              "type" : "double",
                              "defaultValue" : 0.0,
                              "interp" : "linr"
                            },
                            "cursorOpacity" : {
                              "type" : "double",
                              "defaultValue" : 0.0,
                              "interp" : "linr"
                            },
                            "cursorTrackLevel" : {
                              "type" : "double",
                              "defaultValue" : 0.0,
                              "interp" : "linr"
                            },
                            "smoothCursorAcrossEditDuration" : 0
                          },
                          "effects" : [

                          ],
                          "start" : 1255544640000,
                          "duration" : 786955680000,
                          "mediaStart" : 2257778880000,
                          "mediaDuration" : 786955680000,
                          "scalar" : 1,
                          "metadata" : {
                            "AutoAppliedSmartFocus" : "False",
                            "audiateLinkedSession" : "",
                            "clipSpeedAttribute" : { "type": "bool", "value" : false},
                            "colorAttribute" : { "type": "color", "value" : [ 0, 0, 0, 0]},
                            "default-height" : { "type": "double", "value" : 1036.8},
                            "default-translation0" : { "type": "double", "value" : 0.0},
                            "default-translation1" : { "type": "double", "value" : -194.4},
                            "default-translation2" : { "type": "double", "value" : 0.0},
                            "default-width" : { "type": "double", "value" : 1932.67572815534}
                          },
                          "animationTracks" : {

                          }
                        },
                        {
                          "id" : 94,
                          "_type" : "ScreenVMFile",
                          "src" : 2,
                          "trackNumber" : 0,
                          "attributes" : {
                            "ident" : "Rec 4-22-2025-8-51-30-PM"
                          },
                          "parameters" : {
                            "geometryCrop0" : {
                              "type" : "double",
                              "defaultValue" : 0.0,
                              "interp" : "eioe"
                            },
                            "geometryCrop1" : {
                              "type" : "double",
                              "defaultValue" : 0.0,
                              "interp" : "eioe"
                            },
                            "geometryCrop2" : {
                              "type" : "double",
                              "defaultValue" : 0.0,
                              "interp" : "eioe"
                            },
                            "geometryCrop3" : {
                              "type" : "double",
                              "defaultValue" : 0.0,
                              "interp" : "eioe"
                            },
                            "cursorScale" : {
                              "type" : "double",
                              "defaultValue" : 0.0,
                              "interp" : "linr"
                            },
                            "cursorOpacity" : {
                              "type" : "double",
                              "defaultValue" : 0.0,
                              "interp" : "linr"
                            },
                            "cursorTrackLevel" : {
                              "type" : "double",
                              "defaultValue" : 0.0,
                              "interp" : "linr"
                            },
                            "smoothCursorAcrossEditDuration" : 0
                          },
                          "effects" : [

                          ],
                          "start" : 2042500320000,
                          "duration" : 20768160000,
                          "mediaStart" : 3047580480000,
                          "mediaDuration" : 20768160000,
                          "scalar" : 1,
                          "metadata" : {
                            "AutoAppliedSmartFocus" : "False",
                            "audiateLinkedSession" : "",
                            "clipSpeedAttribute" : { "type": "bool", "value" : false},
                            "colorAttribute" : { "type": "color", "value" : [ 0, 0, 0, 0]},
                            "default-height" : { "type": "double", "value" : 1036.8},
                            "default-translation0" : { "type": "double", "value" : 0.0},
                            "default-translation1" : { "type": "double", "value" : -194.4},
                            "default-translation2" : { "type": "double", "value" : 0.0},
                            "default-width" : { "type": "double", "value" : 1932.67572815534}
                          },
                          "animationTracks" : {

                          }
                        },
                        {
                          "id" : 95,
                          "_type" : "ScreenVMFile",
                          "src" : 2,
                          "trackNumber" : 0,
                          "attributes" : {
                            "ident" : "Rec 4-22-2025-8-51-30-PM"
                          },
                          "parameters" : {
                            "geometryCrop0" : {
                              "type" : "double",
                              "defaultValue" : 0.0,
                              "interp" : "eioe"
                            },
                            "geometryCrop1" : {
                              "type" : "double",
                              "defaultValue" : 0.0,
                              "interp" : "eioe"
                            },
                            "geometryCrop2" : {
                              "type" : "double",
                              "defaultValue" : 0.0,
                              "interp" : "eioe"
                            },
                            "geometryCrop3" : {
                              "type" : "double",
                              "defaultValue" : 0.0,
                              "interp" : "eioe"
                            },
                            "cursorScale" : {
                              "type" : "double",
                              "defaultValue" : 0.0,
                              "interp" : "linr"
                            },
                            "cursorOpacity" : {
                              "type" : "double",
                              "defaultValue" : 0.0,
                              "interp" : "linr"
                            },
                            "cursorTrackLevel" : {
                              "type" : "double",
                              "defaultValue" : 0.0,
                              "interp" : "linr"
                            },
                            "smoothCursorAcrossEditDuration" : 0
                          },
                          "effects" : [

                          ],
                          "start" : 2063268480000,
                          "duration" : 343039200000,
                          "mediaStart" : 3138932160000,
                          "mediaDuration" : 343039200000,
                          "scalar" : 1,
                          "metadata" : {
                            "AutoAppliedSmartFocus" : "False",
                            "audiateLinkedSession" : "",
                            "clipSpeedAttribute" : { "type": "bool", "value" : false},
                            "colorAttribute" : { "type": "color", "value" : [ 0, 0, 0, 0]},
                            "default-height" : { "type": "double", "value" : 1036.8},
                            "default-translation0" : { "type": "double", "value" : 0.0},
                            "default-translation1" : { "type": "double", "value" : -194.4},
                            "default-translation2" : { "type": "double", "value" : 0.0},
                            "default-width" : { "type": "double", "value" : 1932.67572815534}
                          },
                          "animationTracks" : {

                          }
                        }
                    ],
                    "effects" : [
                        {
                          "effectName" : "CursorColor",
                          "bypassed" : false,
                          "category" : "categoryCursorEffects",
                          "parameters" : {
                            "intensity" : 1.0,
                            "desaturation" : 0.0,
                            "colorLumaCutoff" : 1.0,
                            "color-alpha" : 1.0,
                            "color-red" : 1.0,
                            "color-green" : 0.8980392157,
                            "color-blue" : 0.1215686275,
                            "secondColor-red" : 0.0,
                            "secondColor-green" : 0.0,
                            "secondColor-blue" : 0.0,
                            "secondColor-alpha" : 1.0,
                            "secondColorLumaCutoff" : 0.0,
                            "channel" : 0,
                            "shadowRampStart" : 0.0,
                            "shadowRampEnd" : 0.0,
                            "highlightRampStart" : 1.0,
                            "highlightRampEnd" : 1.0
                          }
                        },
                        {
                          "effectName" : "CursorShadow",
                          "bypassed" : false,
                          "category" : "categoryCursorEffects",
                          "parameters" : {
                            "angle" : 3.92699081698724,
                            "enabled" : 1,
                            "offset" : 5.0,
                            "blur" : 2.0,
                            "opacity" : 0.25,
                            "color-red" : 0.0,
                            "color-green" : 0.0,
                            "color-blue" : 0.0,
                            "color-alpha" : 1.0
                          }
                        },
                        {
                          "effectName" : "CursorHilight",
                          "bypassed" : false,
                          "category" : "categoryCursorEffects",
                          "parameters" : {
                            "radius" : 50.0,
                            "color-red" : 1.0,
                            "color-green" : 1.0,
                            "color-blue" : 0.0,
                            "color-alpha" : 0.75,
                            "blur" : 0.1
                          }
                        }
                    ],
                    "start" : 25925868387,
                    "duration" : 1246560000,
                    "mediaStart" : "3800194608000/41",
                    "mediaDuration" : "104337072000/41",
                    "scalar" : "207760000/424134439",
                    "metadata" : {
                      "AutoAppliedSmartFocus" : "False",
                      "audiateLinkedSession" : "",
                      "clipSpeedAttribute" : { "type": "bool", "value" : true},
                      "colorAttribute" : { "type": "color", "value" : [ 0, 0, 0, 0]},
                      "default-height" : { "type": "double", "value" : 1036.8},
                      "default-translation0" : { "type": "double", "value" : 0.0},
                      "default-translation1" : { "type": "double", "value" : -194.4},
                      "default-translation2" : { "type": "double", "value" : 0.0},
                      "default-width" : { "type": "double", "value" : 1932.67572815534}
                    },
                    "animationTracks" : {

                    }
                  },
                  {
                    "id" : 96,
                    "_type" : "StitchedMedia",
                    "minMediaStart" : 0,
                    "attributes" : {
                      "ident" : "Rec 4-22-2025-8-51-30-PM",
                      "gain" : 1.0,
                      "mixToMono" : false,
                      "loudnessNormalization" : true,
                      "sourceFileOffset" : 0
                    },
                    "parameters" : {
                      "translation0" : 6.33786407766917,
                      "translation1" : -2.8421709430404e-14,
                      "scale0" : 0.503300970873786,
                      "scale1" : 0.503300970873786,
                      "geometryCrop0" : 0.0,
                      "geometryCrop1" : 0.0,
                      "geometryCrop2" : 0.0,
                      "geometryCrop3" : 0.0,
                      "toc" : {
                        "type" : "string",
                        "keyframes" : [
                          {
                            "endTime" : 119081760000,
                            "time" : 119081760000,
                            "value" : "Fork address",
                            "duration" : 0,
                            "metadata" : {
                              "markerIdentifier" : "697079D1-7D4B-445B-83A9-D30AC61C6F1B"
                            }
                          }
                        ]
                      },
                      "cursorOpacity" : 1.0,
                      "cursorTrackLevel" : 0.0,
                      "cursorScale" : 5.0,
                      "smoothCursorAcrossEditDuration" : 0
                    },
                    "medias" : [
                        {
                          "id" : 97,
                          "_type" : "ScreenVMFile",
                          "src" : 2,
                          "trackNumber" : 0,
                          "attributes" : {
                            "ident" : "Rec 4-22-2025-8-51-30-PM"
                          },
                          "parameters" : {
                            "geometryCrop0" : {
                              "type" : "double",
                              "defaultValue" : 0.0,
                              "interp" : "eioe"
                            },
                            "geometryCrop1" : {
                              "type" : "double",
                              "defaultValue" : 0.0,
                              "interp" : "eioe"
                            },
                            "geometryCrop2" : {
                              "type" : "double",
                              "defaultValue" : 0.0,
                              "interp" : "eioe"
                            },
                            "geometryCrop3" : {
                              "type" : "double",
                              "defaultValue" : 0.0,
                              "interp" : "eioe"
                            },
                            "cursorScale" : {
                              "type" : "double",
                              "defaultValue" : 0.0,
                              "interp" : "linr"
                            },
                            "cursorOpacity" : {
                              "type" : "double",
                              "defaultValue" : 0.0,
                              "interp" : "linr"
                            },
                            "cursorTrackLevel" : {
                              "type" : "double",
                              "defaultValue" : 0.0,
                              "interp" : "linr"
                            },
                            "smoothCursorAcrossEditDuration" : 0
                          },
                          "effects" : [

                          ],
                          "start" : 0,
                          "duration" : 50991360000,
                          "mediaStart" : 0,
                          "mediaDuration" : 50991360000,
                          "scalar" : 1,
                          "metadata" : {
                            "AutoAppliedSmartFocus" : "False",
                            "audiateLinkedSession" : "",
                            "clipSpeedAttribute" : { "type": "bool", "value" : false},
                            "colorAttribute" : { "type": "color", "value" : [ 0, 0, 0, 0]},
                            "default-height" : { "type": "double", "value" : 1036.8},
                            "default-translation0" : { "type": "double", "value" : 0.0},
                            "default-translation1" : { "type": "double", "value" : -194.4},
                            "default-translation2" : { "type": "double", "value" : 0.0},
                            "default-width" : { "type": "double", "value" : 1932.67572815534}
                          },
                          "animationTracks" : {

                          }
                        },
                        {
                          "id" : 98,
                          "_type" : "ScreenVMFile",
                          "src" : 2,
                          "trackNumber" : 0,
                          "attributes" : {
                            "ident" : "Rec 4-22-2025-8-51-30-PM"
                          },
                          "parameters" : {
                            "geometryCrop0" : {
                              "type" : "double",
                              "defaultValue" : 0.0,
                              "interp" : "eioe"
                            },
                            "geometryCrop1" : {
                              "type" : "double",
                              "defaultValue" : 0.0,
                              "interp" : "eioe"
                            },
                            "geometryCrop2" : {
                              "type" : "double",
                              "defaultValue" : 0.0,
                              "interp" : "eioe"
                            },
                            "geometryCrop3" : {
                              "type" : "double",
                              "defaultValue" : 0.0,
                              "interp" : "eioe"
                            },
                            "cursorScale" : {
                              "type" : "double",
                              "defaultValue" : 0.0,
                              "interp" : "linr"
                            },
                            "cursorOpacity" : {
                              "type" : "double",
                              "defaultValue" : 0.0,
                              "interp" : "linr"
                            },
                            "cursorTrackLevel" : {
                              "type" : "double",
                              "defaultValue" : 0.0,
                              "interp" : "linr"
                            },
                            "smoothCursorAcrossEditDuration" : 0
                          },
                          "effects" : [

                          ],
                          "start" : 50991360000,
                          "duration" : 46663680000,
                          "mediaStart" : 66467520000,
                          "mediaDuration" : 46663680000,
                          "scalar" : 1,
                          "metadata" : {
                            "AutoAppliedSmartFocus" : "False",
                            "audiateLinkedSession" : "",
                            "clipSpeedAttribute" : { "type": "bool", "value" : false},
                            "colorAttribute" : { "type": "color", "value" : [ 0, 0, 0, 0]},
                            "default-height" : { "type": "double", "value" : 1036.8},
                            "default-translation0" : { "type": "double", "value" : 0.0},
                            "default-translation1" : { "type": "double", "value" : -194.4},
                            "default-translation2" : { "type": "double", "value" : 0.0},
                            "default-width" : { "type": "double", "value" : 1932.67572815534}
                          },
                          "animationTracks" : {

                          }
                        },
                        {
                          "id" : 99,
                          "_type" : "ScreenVMFile",
                          "src" : 2,
                          "trackNumber" : 0,
                          "attributes" : {
                            "ident" : "Rec 4-22-2025-8-51-30-PM"
                          },
                          "parameters" : {
                            "geometryCrop0" : {
                              "type" : "double",
                              "defaultValue" : 0.0,
                              "interp" : "eioe"
                            },
                            "geometryCrop1" : {
                              "type" : "double",
                              "defaultValue" : 0.0,
                              "interp" : "eioe"
                            },
                            "geometryCrop2" : {
                              "type" : "double",
                              "defaultValue" : 0.0,
                              "interp" : "eioe"
                            },
                            "geometryCrop3" : {
                              "type" : "double",
                              "defaultValue" : 0.0,
                              "interp" : "eioe"
                            },
                            "cursorScale" : {
                              "type" : "double",
                              "defaultValue" : 0.0,
                              "interp" : "linr"
                            },
                            "cursorOpacity" : {
                              "type" : "double",
                              "defaultValue" : 0.0,
                              "interp" : "linr"
                            },
                            "cursorTrackLevel" : {
                              "type" : "double",
                              "defaultValue" : 0.0,
                              "interp" : "linr"
                            },
                            "smoothCursorAcrossEditDuration" : 0
                          },
                          "effects" : [

                          ],
                          "start" : 97655040000,
                          "duration" : 21426720000,
                          "mediaStart" : 149352000000,
                          "mediaDuration" : 21426720000,
                          "scalar" : 1,
                          "metadata" : {
                            "AutoAppliedSmartFocus" : "False",
                            "audiateLinkedSession" : "",
                            "clipSpeedAttribute" : { "type": "bool", "value" : false},
                            "colorAttribute" : { "type": "color", "value" : [ 0, 0, 0, 0]},
                            "default-height" : { "type": "double", "value" : 1036.8},
                            "default-translation0" : { "type": "double", "value" : 0.0},
                            "default-translation1" : { "type": "double", "value" : -194.4},
                            "default-translation2" : { "type": "double", "value" : 0.0},
                            "default-width" : { "type": "double", "value" : 1932.67572815534}
                          },
                          "animationTracks" : {

                          }
                        },
                        {
                          "id" : 100,
                          "_type" : "ScreenVMFile",
                          "src" : 2,
                          "trackNumber" : 0,
                          "attributes" : {
                            "ident" : "Rec 4-22-2025-8-51-30-PM"
                          },
                          "parameters" : {
                            "geometryCrop0" : {
                              "type" : "double",
                              "defaultValue" : 0.0,
                              "interp" : "eioe"
                            },
                            "geometryCrop1" : {
                              "type" : "double",
                              "defaultValue" : 0.0,
                              "interp" : "eioe"
                            },
                            "geometryCrop2" : {
                              "type" : "double",
                              "defaultValue" : 0.0,
                              "interp" : "eioe"
                            },
                            "geometryCrop3" : {
                              "type" : "double",
                              "defaultValue" : 0.0,
                              "interp" : "eioe"
                            },
                            "cursorScale" : {
                              "type" : "double",
                              "defaultValue" : 0.0,
                              "interp" : "linr"
                            },
                            "cursorOpacity" : {
                              "type" : "double",
                              "defaultValue" : 0.0,
                              "interp" : "linr"
                            },
                            "cursorTrackLevel" : {
                              "type" : "double",
                              "defaultValue" : 0.0,
                              "interp" : "linr"
                            },
                            "smoothCursorAcrossEditDuration" : 0
                          },
                          "effects" : [

                          ],
                          "start" : 119081760000,
                          "duration" : 5127360000,
                          "mediaStart" : 170778720000,
                          "mediaDuration" : 5127360000,
                          "scalar" : 1,
                          "metadata" : {
                            "AutoAppliedSmartFocus" : "False",
                            "audiateLinkedSession" : "",
                            "clipSpeedAttribute" : { "type": "bool", "value" : false},
                            "colorAttribute" : { "type": "color", "value" : [ 0, 0, 0, 0]},
                            "default-height" : { "type": "double", "value" : 1036.8},
                            "default-translation0" : { "type": "double", "value" : 0.0},
                            "default-translation1" : { "type": "double", "value" : -194.4},
                            "default-translation2" : { "type": "double", "value" : 0.0},
                            "default-width" : { "type": "double", "value" : 1932.67572815534}
                          },
                          "animationTracks" : {

                          }
                        },
                        {
                          "id" : 101,
                          "_type" : "ScreenVMFile",
                          "src" : 2,
                          "trackNumber" : 0,
                          "attributes" : {
                            "ident" : "Rec 4-22-2025-8-51-30-PM"
                          },
                          "parameters" : {
                            "geometryCrop0" : {
                              "type" : "double",
                              "defaultValue" : 0.0,
                              "interp" : "eioe"
                            },
                            "geometryCrop1" : {
                              "type" : "double",
                              "defaultValue" : 0.0,
                              "interp" : "eioe"
                            },
                            "geometryCrop2" : {
                              "type" : "double",
                              "defaultValue" : 0.0,
                              "interp" : "eioe"
                            },
                            "geometryCrop3" : {
                              "type" : "double",
                              "defaultValue" : 0.0,
                              "interp" : "eioe"
                            },
                            "cursorScale" : {
                              "type" : "double",
                              "defaultValue" : 0.0,
                              "interp" : "linr"
                            },
                            "cursorOpacity" : {
                              "type" : "double",
                              "defaultValue" : 0.0,
                              "interp" : "linr"
                            },
                            "cursorTrackLevel" : {
                              "type" : "double",
                              "defaultValue" : 0.0,
                              "interp" : "linr"
                            },
                            "smoothCursorAcrossEditDuration" : 0
                          },
                          "effects" : [

                          ],
                          "start" : 124209120000,
                          "duration" : 9878400000,
                          "mediaStart" : 175906080000,
                          "mediaDuration" : 9878400000,
                          "scalar" : 1,
                          "metadata" : {
                            "AutoAppliedSmartFocus" : "False",
                            "audiateLinkedSession" : "",
                            "clipSpeedAttribute" : { "type": "bool", "value" : false},
                            "colorAttribute" : { "type": "color", "value" : [ 0, 0, 0, 0]},
                            "default-height" : { "type": "double", "value" : 1036.8},
                            "default-translation0" : { "type": "double", "value" : 0.0},
                            "default-translation1" : { "type": "double", "value" : -194.4},
                            "default-translation2" : { "type": "double", "value" : 0.0},
                            "default-width" : { "type": "double", "value" : 1932.67572815534}
                          },
                          "animationTracks" : {

                          }
                        },
                        {
                          "id" : 102,
                          "_type" : "ScreenVMFile",
                          "src" : 2,
                          "trackNumber" : 0,
                          "attributes" : {
                            "ident" : "Rec 4-22-2025-8-51-30-PM"
                          },
                          "parameters" : {
                            "geometryCrop0" : {
                              "type" : "double",
                              "defaultValue" : 0.0,
                              "interp" : "eioe"
                            },
                            "geometryCrop1" : {
                              "type" : "double",
                              "defaultValue" : 0.0,
                              "interp" : "eioe"
                            },
                            "geometryCrop2" : {
                              "type" : "double",
                              "defaultValue" : 0.0,
                              "interp" : "eioe"
                            },
                            "geometryCrop3" : {
                              "type" : "double",
                              "defaultValue" : 0.0,
                              "interp" : "eioe"
                            },
                            "cursorScale" : {
                              "type" : "double",
                              "defaultValue" : 0.0,
                              "interp" : "linr"
                            },
                            "cursorOpacity" : {
                              "type" : "double",
                              "defaultValue" : 0.0,
                              "interp" : "linr"
                            },
                            "cursorTrackLevel" : {
                              "type" : "double",
                              "defaultValue" : 0.0,
                              "interp" : "linr"
                            },
                            "smoothCursorAcrossEditDuration" : 0
                          },
                          "effects" : [

                          ],
                          "start" : 134087520000,
                          "duration" : 17734080000,
                          "mediaStart" : 185784480000,
                          "mediaDuration" : 17734080000,
                          "scalar" : 1,
                          "metadata" : {
                            "AutoAppliedSmartFocus" : "False",
                            "audiateLinkedSession" : "",
                            "clipSpeedAttribute" : { "type": "bool", "value" : false},
                            "colorAttribute" : { "type": "color", "value" : [ 0, 0, 0, 0]},
                            "default-height" : { "type": "double", "value" : 1036.8},
                            "default-translation0" : { "type": "double", "value" : 0.0},
                            "default-translation1" : { "type": "double", "value" : -194.4},
                            "default-translation2" : { "type": "double", "value" : 0.0},
                            "default-width" : { "type": "double", "value" : 1932.67572815534}
                          },
                          "animationTracks" : {

                          }
                        },
                        {
                          "id" : 103,
                          "_type" : "ScreenVMFile",
                          "src" : 2,
                          "trackNumber" : 0,
                          "attributes" : {
                            "ident" : "Rec 4-22-2025-8-51-30-PM"
                          },
                          "parameters" : {
                            "geometryCrop0" : {
                              "type" : "double",
                              "defaultValue" : 0.0,
                              "interp" : "eioe"
                            },
                            "geometryCrop1" : {
                              "type" : "double",
                              "defaultValue" : 0.0,
                              "interp" : "eioe"
                            },
                            "geometryCrop2" : {
                              "type" : "double",
                              "defaultValue" : 0.0,
                              "interp" : "eioe"
                            },
                            "geometryCrop3" : {
                              "type" : "double",
                              "defaultValue" : 0.0,
                              "interp" : "eioe"
                            },
                            "cursorScale" : {
                              "type" : "double",
                              "defaultValue" : 0.0,
                              "interp" : "linr"
                            },
                            "cursorOpacity" : {
                              "type" : "double",
                              "defaultValue" : 0.0,
                              "interp" : "linr"
                            },
                            "cursorTrackLevel" : {
                              "type" : "double",
                              "defaultValue" : 0.0,
                              "interp" : "linr"
                            },
                            "smoothCursorAcrossEditDuration" : 0
                          },
                          "effects" : [

                          ],
                          "start" : 151821600000,
                          "duration" : 2399040000,
                          "mediaStart" : 203518560000,
                          "mediaDuration" : 2399040000,
                          "scalar" : 1,
                          "metadata" : {
                            "AutoAppliedSmartFocus" : "False",
                            "audiateLinkedSession" : "",
                            "clipSpeedAttribute" : { "type": "bool", "value" : false},
                            "colorAttribute" : { "type": "color", "value" : [ 0, 0, 0, 0]},
                            "default-height" : { "type": "double", "value" : 1036.8},
                            "default-translation0" : { "type": "double", "value" : 0.0},
                            "default-translation1" : { "type": "double", "value" : -194.4},
                            "default-translation2" : { "type": "double", "value" : 0.0},
                            "default-width" : { "type": "double", "value" : 1932.67572815534}
                          },
                          "animationTracks" : {

                          }
                        },
                        {
                          "id" : 104,
                          "_type" : "ScreenVMFile",
                          "src" : 2,
                          "trackNumber" : 0,
                          "attributes" : {
                            "ident" : "Rec 4-22-2025-8-51-30-PM"
                          },
                          "parameters" : {
                            "geometryCrop0" : {
                              "type" : "double",
                              "defaultValue" : 0.0,
                              "interp" : "eioe"
                            },
                            "geometryCrop1" : {
                              "type" : "double",
                              "defaultValue" : 0.0,
                              "interp" : "eioe"
                            },
                            "geometryCrop2" : {
                              "type" : "double",
                              "defaultValue" : 0.0,
                              "interp" : "eioe"
                            },
                            "geometryCrop3" : {
                              "type" : "double",
                              "defaultValue" : 0.0,
                              "interp" : "eioe"
                            },
                            "cursorScale" : {
                              "type" : "double",
                              "defaultValue" : 0.0,
                              "interp" : "linr"
                            },
                            "cursorOpacity" : {
                              "type" : "double",
                              "defaultValue" : 0.0,
                              "interp" : "linr"
                            },
                            "cursorTrackLevel" : {
                              "type" : "double",
                              "defaultValue" : 0.0,
                              "interp" : "linr"
                            },
                            "smoothCursorAcrossEditDuration" : 0
                          },
                          "effects" : [

                          ],
                          "start" : 154220640000,
                          "duration" : 3276053760000,
                          "mediaStart" : 205917600000,
                          "mediaDuration" : 3276053760000,
                          "scalar" : 1,
                          "metadata" : {
                            "AutoAppliedSmartFocus" : "False",
                            "audiateLinkedSession" : "",
                            "clipSpeedAttribute" : { "type": "bool", "value" : false},
                            "colorAttribute" : { "type": "color", "value" : [ 0, 0, 0, 0]},
                            "default-height" : { "type": "double", "value" : 1036.8},
                            "default-translation0" : { "type": "double", "value" : 0.0},
                            "default-translation1" : { "type": "double", "value" : -194.4},
                            "default-translation2" : { "type": "double", "value" : 0.0},
                            "default-width" : { "type": "double", "value" : 1932.67572815534}
                          },
                          "animationTracks" : {

                          }
                        }
                    ],
                    "effects" : [
                        {
                          "effectName" : "CursorColor",
                          "bypassed" : false,
                          "category" : "categoryCursorEffects",
                          "parameters" : {
                            "intensity" : 1.0,
                            "desaturation" : 0.0,
                            "colorLumaCutoff" : 1.0,
                            "color-alpha" : 1.0,
                            "color-red" : 1.0,
                            "color-green" : 0.8980392157,
                            "color-blue" : 0.1215686275,
                            "secondColor-red" : 0.0,
                            "secondColor-green" : 0.0,
                            "secondColor-blue" : 0.0,
                            "secondColor-alpha" : 1.0,
                            "secondColorLumaCutoff" : 0.0,
                            "channel" : 0,
                            "shadowRampStart" : 0.0,
                            "shadowRampEnd" : 0.0,
                            "highlightRampStart" : 1.0,
                            "highlightRampEnd" : 1.0
                          }
                        },
                        {
                          "effectName" : "CursorShadow",
                          "bypassed" : false,
                          "category" : "categoryCursorEffects",
                          "parameters" : {
                            "angle" : 3.92699081698724,
                            "enabled" : 1,
                            "offset" : 5.0,
                            "blur" : 2.0,
                            "opacity" : 0.25,
                            "color-red" : 0.0,
                            "color-green" : 0.0,
                            "color-blue" : 0.0,
                            "color-alpha" : 1.0
                          }
                        },
                        {
                          "effectName" : "CursorHilight",
                          "bypassed" : false,
                          "category" : "categoryCursorEffects",
                          "parameters" : {
                            "radius" : 50.0,
                            "color-red" : 1.0,
                            "color-green" : 1.0,
                            "color-blue" : 0.0,
                            "color-alpha" : 0.75,
                            "blur" : 0.1
                          }
                        }
                    ],
                    "start" : 27172428387,
                    "duration" : 3662291613,
                    "mediaStart" : 117270720000,
                    "mediaDuration" : 3662291613,
                    "scalar" : 1,
                    "metadata" : {
                      "AutoAppliedSmartFocus" : "False",
                      "audiateLinkedSession" : "",
                      "clipSpeedAttribute" : { "type": "bool", "value" : false},
                      "colorAttribute" : { "type": "color", "value" : [ 0, 0, 0, 0]},
                      "default-height" : { "type": "double", "value" : 1036.8},
                      "default-translation0" : { "type": "double", "value" : 0.0},
                      "default-translation1" : { "type": "double", "value" : -194.4},
                      "default-translation2" : { "type": "double", "value" : 0.0},
                      "default-width" : { "type": "double", "value" : 1932.67572815534}
                    },
                    "animationTracks" : {

                    }
                  },
                  {
                    "id" : 105,
                    "_type" : "StitchedMedia",
                    "minMediaStart" : 0,
                    "attributes" : {
                      "ident" : "Rec 4-22-2025-8-51-30-PM",
                      "gain" : 1.0,
                      "mixToMono" : false,
                      "loudnessNormalization" : true,
                      "sourceFileOffset" : 0
                    },
                    "parameters" : {
                      "translation0" : 6.33786407766917,
                      "translation1" : -2.8421709430404e-14,
                      "scale0" : 0.503300970873786,
                      "scale1" : 0.503300970873786,
                      "geometryCrop0" : 0.0,
                      "geometryCrop1" : 0.0,
                      "geometryCrop2" : 0.0,
                      "geometryCrop3" : 0.0,
                      "cursorOpacity" : 1.0,
                      "cursorTrackLevel" : 0.0,
                      "cursorScale" : 5.0,
                      "smoothCursorAcrossEditDuration" : 0
                    },
                    "medias" : [
                        {
                          "id" : 106,
                          "_type" : "ScreenVMFile",
                          "src" : 2,
                          "trackNumber" : 0,
                          "attributes" : {
                            "ident" : "Rec 4-22-2025-8-51-30-PM"
                          },
                          "parameters" : {
                            "geometryCrop0" : {
                              "type" : "double",
                              "defaultValue" : 0.0,
                              "interp" : "eioe"
                            },
                            "geometryCrop1" : {
                              "type" : "double",
                              "defaultValue" : 0.0,
                              "interp" : "eioe"
                            },
                            "geometryCrop2" : {
                              "type" : "double",
                              "defaultValue" : 0.0,
                              "interp" : "eioe"
                            },
                            "geometryCrop3" : {
                              "type" : "double",
                              "defaultValue" : 0.0,
                              "interp" : "eioe"
                            },
                            "cursorScale" : {
                              "type" : "double",
                              "defaultValue" : 0.0,
                              "interp" : "linr"
                            },
                            "cursorOpacity" : {
                              "type" : "double",
                              "defaultValue" : 0.0,
                              "interp" : "linr"
                            },
                            "cursorTrackLevel" : {
                              "type" : "double",
                              "defaultValue" : 0.0,
                              "interp" : "linr"
                            },
                            "smoothCursorAcrossEditDuration" : 0
                          },
                          "effects" : [

                          ],
                          "start" : 0,
                          "duration" : 50991360000,
                          "mediaStart" : 0,
                          "mediaDuration" : 50991360000,
                          "scalar" : 1,
                          "metadata" : {
                            "AutoAppliedSmartFocus" : "False",
                            "audiateLinkedSession" : "",
                            "clipSpeedAttribute" : { "type": "bool", "value" : false},
                            "colorAttribute" : { "type": "color", "value" : [ 0, 0, 0, 0]},
                            "default-height" : { "type": "double", "value" : 1036.8},
                            "default-translation0" : { "type": "double", "value" : 0.0},
                            "default-translation1" : { "type": "double", "value" : -194.4},
                            "default-translation2" : { "type": "double", "value" : 0.0},
                            "default-width" : { "type": "double", "value" : 1932.67572815534}
                          },
                          "animationTracks" : {

                          }
                        },
                        {
                          "id" : 107,
                          "_type" : "ScreenVMFile",
                          "src" : 2,
                          "trackNumber" : 0,
                          "attributes" : {
                            "ident" : "Rec 4-22-2025-8-51-30-PM"
                          },
                          "parameters" : {
                            "geometryCrop0" : {
                              "type" : "double",
                              "defaultValue" : 0.0,
                              "interp" : "eioe"
                            },
                            "geometryCrop1" : {
                              "type" : "double",
                              "defaultValue" : 0.0,
                              "interp" : "eioe"
                            },
                            "geometryCrop2" : {
                              "type" : "double",
                              "defaultValue" : 0.0,
                              "interp" : "eioe"
                            },
                            "geometryCrop3" : {
                              "type" : "double",
                              "defaultValue" : 0.0,
                              "interp" : "eioe"
                            },
                            "cursorScale" : {
                              "type" : "double",
                              "defaultValue" : 0.0,
                              "interp" : "linr"
                            },
                            "cursorOpacity" : {
                              "type" : "double",
                              "defaultValue" : 0.0,
                              "interp" : "linr"
                            },
                            "cursorTrackLevel" : {
                              "type" : "double",
                              "defaultValue" : 0.0,
                              "interp" : "linr"
                            },
                            "smoothCursorAcrossEditDuration" : 0
                          },
                          "effects" : [

                          ],
                          "start" : 50991360000,
                          "duration" : 46663680000,
                          "mediaStart" : 66467520000,
                          "mediaDuration" : 46663680000,
                          "scalar" : 1,
                          "metadata" : {
                            "AutoAppliedSmartFocus" : "False",
                            "audiateLinkedSession" : "",
                            "clipSpeedAttribute" : { "type": "bool", "value" : false},
                            "colorAttribute" : { "type": "color", "value" : [ 0, 0, 0, 0]},
                            "default-height" : { "type": "double", "value" : 1036.8},
                            "default-translation0" : { "type": "double", "value" : 0.0},
                            "default-translation1" : { "type": "double", "value" : -194.4},
                            "default-translation2" : { "type": "double", "value" : 0.0},
                            "default-width" : { "type": "double", "value" : 1932.67572815534}
                          },
                          "animationTracks" : {

                          }
                        },
                        {
                          "id" : 108,
                          "_type" : "ScreenVMFile",
                          "src" : 2,
                          "trackNumber" : 0,
                          "attributes" : {
                            "ident" : "Rec 4-22-2025-8-51-30-PM"
                          },
                          "parameters" : {
                            "geometryCrop0" : {
                              "type" : "double",
                              "defaultValue" : 0.0,
                              "interp" : "eioe"
                            },
                            "geometryCrop1" : {
                              "type" : "double",
                              "defaultValue" : 0.0,
                              "interp" : "eioe"
                            },
                            "geometryCrop2" : {
                              "type" : "double",
                              "defaultValue" : 0.0,
                              "interp" : "eioe"
                            },
                            "geometryCrop3" : {
                              "type" : "double",
                              "defaultValue" : 0.0,
                              "interp" : "eioe"
                            },
                            "cursorScale" : {
                              "type" : "double",
                              "defaultValue" : 0.0,
                              "interp" : "linr"
                            },
                            "cursorOpacity" : {
                              "type" : "double",
                              "defaultValue" : 0.0,
                              "interp" : "linr"
                            },
                            "cursorTrackLevel" : {
                              "type" : "double",
                              "defaultValue" : 0.0,
                              "interp" : "linr"
                            },
                            "smoothCursorAcrossEditDuration" : 0
                          },
                          "effects" : [

                          ],
                          "start" : 97655040000,
                          "duration" : 21426720000,
                          "mediaStart" : 149352000000,
                          "mediaDuration" : 21426720000,
                          "scalar" : 1,
                          "metadata" : {
                            "AutoAppliedSmartFocus" : "False",
                            "audiateLinkedSession" : "",
                            "clipSpeedAttribute" : { "type": "bool", "value" : false},
                            "colorAttribute" : { "type": "color", "value" : [ 0, 0, 0, 0]},
                            "default-height" : { "type": "double", "value" : 1036.8},
                            "default-translation0" : { "type": "double", "value" : 0.0},
                            "default-translation1" : { "type": "double", "value" : -194.4},
                            "default-translation2" : { "type": "double", "value" : 0.0},
                            "default-width" : { "type": "double", "value" : 1932.67572815534}
                          },
                          "animationTracks" : {

                          }
                        },
                        {
                          "id" : 109,
                          "_type" : "ScreenVMFile",
                          "src" : 2,
                          "trackNumber" : 0,
                          "attributes" : {
                            "ident" : "Rec 4-22-2025-8-51-30-PM"
                          },
                          "parameters" : {
                            "geometryCrop0" : {
                              "type" : "double",
                              "defaultValue" : 0.0,
                              "interp" : "eioe"
                            },
                            "geometryCrop1" : {
                              "type" : "double",
                              "defaultValue" : 0.0,
                              "interp" : "eioe"
                            },
                            "geometryCrop2" : {
                              "type" : "double",
                              "defaultValue" : 0.0,
                              "interp" : "eioe"
                            },
                            "geometryCrop3" : {
                              "type" : "double",
                              "defaultValue" : 0.0,
                              "interp" : "eioe"
                            },
                            "cursorScale" : {
                              "type" : "double",
                              "defaultValue" : 0.0,
                              "interp" : "linr"
                            },
                            "cursorOpacity" : {
                              "type" : "double",
                              "defaultValue" : 0.0,
                              "interp" : "linr"
                            },
                            "cursorTrackLevel" : {
                              "type" : "double",
                              "defaultValue" : 0.0,
                              "interp" : "linr"
                            },
                            "smoothCursorAcrossEditDuration" : 0
                          },
                          "effects" : [

                          ],
                          "start" : 119081760000,
                          "duration" : 5127360000,
                          "mediaStart" : 170778720000,
                          "mediaDuration" : 5127360000,
                          "scalar" : 1,
                          "metadata" : {
                            "AutoAppliedSmartFocus" : "False",
                            "audiateLinkedSession" : "",
                            "clipSpeedAttribute" : { "type": "bool", "value" : false},
                            "colorAttribute" : { "type": "color", "value" : [ 0, 0, 0, 0]},
                            "default-height" : { "type": "double", "value" : 1036.8},
                            "default-translation0" : { "type": "double", "value" : 0.0},
                            "default-translation1" : { "type": "double", "value" : -194.4},
                            "default-translation2" : { "type": "double", "value" : 0.0},
                            "default-width" : { "type": "double", "value" : 1932.67572815534}
                          },
                          "animationTracks" : {

                          }
                        },
                        {
                          "id" : 110,
                          "_type" : "ScreenVMFile",
                          "src" : 2,
                          "trackNumber" : 0,
                          "attributes" : {
                            "ident" : "Rec 4-22-2025-8-51-30-PM"
                          },
                          "parameters" : {
                            "geometryCrop0" : {
                              "type" : "double",
                              "defaultValue" : 0.0,
                              "interp" : "eioe"
                            },
                            "geometryCrop1" : {
                              "type" : "double",
                              "defaultValue" : 0.0,
                              "interp" : "eioe"
                            },
                            "geometryCrop2" : {
                              "type" : "double",
                              "defaultValue" : 0.0,
                              "interp" : "eioe"
                            },
                            "geometryCrop3" : {
                              "type" : "double",
                              "defaultValue" : 0.0,
                              "interp" : "eioe"
                            },
                            "cursorScale" : {
                              "type" : "double",
                              "defaultValue" : 0.0,
                              "interp" : "linr"
                            },
                            "cursorOpacity" : {
                              "type" : "double",
                              "defaultValue" : 0.0,
                              "interp" : "linr"
                            },
                            "cursorTrackLevel" : {
                              "type" : "double",
                              "defaultValue" : 0.0,
                              "interp" : "linr"
                            },
                            "smoothCursorAcrossEditDuration" : 0
                          },
                          "effects" : [

                          ],
                          "start" : 124209120000,
                          "duration" : 9878400000,
                          "mediaStart" : 175906080000,
                          "mediaDuration" : 9878400000,
                          "scalar" : 1,
                          "metadata" : {
                            "AutoAppliedSmartFocus" : "False",
                            "audiateLinkedSession" : "",
                            "clipSpeedAttribute" : { "type": "bool", "value" : false},
                            "colorAttribute" : { "type": "color", "value" : [ 0, 0, 0, 0]},
                            "default-height" : { "type": "double", "value" : 1036.8},
                            "default-translation0" : { "type": "double", "value" : 0.0},
                            "default-translation1" : { "type": "double", "value" : -194.4},
                            "default-translation2" : { "type": "double", "value" : 0.0},
                            "default-width" : { "type": "double", "value" : 1932.67572815534}
                          },
                          "animationTracks" : {

                          }
                        },
                        {
                          "id" : 111,
                          "_type" : "ScreenVMFile",
                          "src" : 2,
                          "trackNumber" : 0,
                          "attributes" : {
                            "ident" : "Rec 4-22-2025-8-51-30-PM"
                          },
                          "parameters" : {
                            "geometryCrop0" : {
                              "type" : "double",
                              "defaultValue" : 0.0,
                              "interp" : "eioe"
                            },
                            "geometryCrop1" : {
                              "type" : "double",
                              "defaultValue" : 0.0,
                              "interp" : "eioe"
                            },
                            "geometryCrop2" : {
                              "type" : "double",
                              "defaultValue" : 0.0,
                              "interp" : "eioe"
                            },
                            "geometryCrop3" : {
                              "type" : "double",
                              "defaultValue" : 0.0,
                              "interp" : "eioe"
                            },
                            "cursorScale" : {
                              "type" : "double",
                              "defaultValue" : 0.0,
                              "interp" : "linr"
                            },
                            "cursorOpacity" : {
                              "type" : "double",
                              "defaultValue" : 0.0,
                              "interp" : "linr"
                            },
                            "cursorTrackLevel" : {
                              "type" : "double",
                              "defaultValue" : 0.0,
                              "interp" : "linr"
                            },
                            "smoothCursorAcrossEditDuration" : 0
                          },
                          "effects" : [

                          ],
                          "start" : 134087520000,
                          "duration" : 17734080000,
                          "mediaStart" : 185784480000,
                          "mediaDuration" : 17734080000,
                          "scalar" : 1,
                          "metadata" : {
                            "AutoAppliedSmartFocus" : "False",
                            "audiateLinkedSession" : "",
                            "clipSpeedAttribute" : { "type": "bool", "value" : false},
                            "colorAttribute" : { "type": "color", "value" : [ 0, 0, 0, 0]},
                            "default-height" : { "type": "double", "value" : 1036.8},
                            "default-translation0" : { "type": "double", "value" : 0.0},
                            "default-translation1" : { "type": "double", "value" : -194.4},
                            "default-translation2" : { "type": "double", "value" : 0.0},
                            "default-width" : { "type": "double", "value" : 1932.67572815534}
                          },
                          "animationTracks" : {

                          }
                        },
                        {
                          "id" : 112,
                          "_type" : "ScreenVMFile",
                          "src" : 2,
                          "trackNumber" : 0,
                          "attributes" : {
                            "ident" : "Rec 4-22-2025-8-51-30-PM"
                          },
                          "parameters" : {
                            "geometryCrop0" : {
                              "type" : "double",
                              "defaultValue" : 0.0,
                              "interp" : "eioe"
                            },
                            "geometryCrop1" : {
                              "type" : "double",
                              "defaultValue" : 0.0,
                              "interp" : "eioe"
                            },
                            "geometryCrop2" : {
                              "type" : "double",
                              "defaultValue" : 0.0,
                              "interp" : "eioe"
                            },
                            "geometryCrop3" : {
                              "type" : "double",
                              "defaultValue" : 0.0,
                              "interp" : "eioe"
                            },
                            "cursorScale" : {
                              "type" : "double",
                              "defaultValue" : 0.0,
                              "interp" : "linr"
                            },
                            "cursorOpacity" : {
                              "type" : "double",
                              "defaultValue" : 0.0,
                              "interp" : "linr"
                            },
                            "cursorTrackLevel" : {
                              "type" : "double",
                              "defaultValue" : 0.0,
                              "interp" : "linr"
                            },
                            "smoothCursorAcrossEditDuration" : 0
                          },
                          "effects" : [

                          ],
                          "start" : 151821600000,
                          "duration" : 2399040000,
                          "mediaStart" : 203518560000,
                          "mediaDuration" : 2399040000,
                          "scalar" : 1,
                          "metadata" : {
                            "AutoAppliedSmartFocus" : "False",
                            "audiateLinkedSession" : "",
                            "clipSpeedAttribute" : { "type": "bool", "value" : false},
                            "colorAttribute" : { "type": "color", "value" : [ 0, 0, 0, 0]},
                            "default-height" : { "type": "double", "value" : 1036.8},
                            "default-translation0" : { "type": "double", "value" : 0.0},
                            "default-translation1" : { "type": "double", "value" : -194.4},
                            "default-translation2" : { "type": "double", "value" : 0.0},
                            "default-width" : { "type": "double", "value" : 1932.67572815534}
                          },
                          "animationTracks" : {

                          }
                        },
                        {
                          "id" : 113,
                          "_type" : "ScreenVMFile",
                          "src" : 2,
                          "trackNumber" : 0,
                          "attributes" : {
                            "ident" : "Rec 4-22-2025-8-51-30-PM"
                          },
                          "parameters" : {
                            "geometryCrop0" : {
                              "type" : "double",
                              "defaultValue" : 0.0,
                              "interp" : "eioe"
                            },
                            "geometryCrop1" : {
                              "type" : "double",
                              "defaultValue" : 0.0,
                              "interp" : "eioe"
                            },
                            "geometryCrop2" : {
                              "type" : "double",
                              "defaultValue" : 0.0,
                              "interp" : "eioe"
                            },
                            "geometryCrop3" : {
                              "type" : "double",
                              "defaultValue" : 0.0,
                              "interp" : "eioe"
                            },
                            "cursorScale" : {
                              "type" : "double",
                              "defaultValue" : 0.0,
                              "interp" : "linr"
                            },
                            "cursorOpacity" : {
                              "type" : "double",
                              "defaultValue" : 0.0,
                              "interp" : "linr"
                            },
                            "cursorTrackLevel" : {
                              "type" : "double",
                              "defaultValue" : 0.0,
                              "interp" : "linr"
                            },
                            "smoothCursorAcrossEditDuration" : 0
                          },
                          "effects" : [

                          ],
                          "start" : 154220640000,
                          "duration" : 3276053760000,
                          "mediaStart" : 205917600000,
                          "mediaDuration" : 3276053760000,
                          "scalar" : 1,
                          "metadata" : {
                            "AutoAppliedSmartFocus" : "False",
                            "audiateLinkedSession" : "",
                            "clipSpeedAttribute" : { "type": "bool", "value" : false},
                            "colorAttribute" : { "type": "color", "value" : [ 0, 0, 0, 0]},
                            "default-height" : { "type": "double", "value" : 1036.8},
                            "default-translation0" : { "type": "double", "value" : 0.0},
                            "default-translation1" : { "type": "double", "value" : -194.4},
                            "default-translation2" : { "type": "double", "value" : 0.0},
                            "default-width" : { "type": "double", "value" : 1932.67572815534}
                          },
                          "animationTracks" : {

                          }
                        }
                    ],
                    "effects" : [
                        {
                          "effectName" : "CursorColor",
                          "bypassed" : false,
                          "category" : "categoryCursorEffects",
                          "parameters" : {
                            "intensity" : 1.0,
                            "desaturation" : 0.0,
                            "colorLumaCutoff" : 1.0,
                            "color-alpha" : 1.0,
                            "color-red" : 1.0,
                            "color-green" : 0.8980392157,
                            "color-blue" : 0.1215686275,
                            "secondColor-red" : 0.0,
                            "secondColor-green" : 0.0,
                            "secondColor-blue" : 0.0,
                            "secondColor-alpha" : 1.0,
                            "secondColorLumaCutoff" : 0.0,
                            "channel" : 0,
                            "shadowRampStart" : 0.0,
                            "shadowRampEnd" : 0.0,
                            "highlightRampStart" : 1.0,
                            "highlightRampEnd" : 1.0
                          }
                        },
                        {
                          "effectName" : "CursorShadow",
                          "bypassed" : false,
                          "category" : "categoryCursorEffects",
                          "parameters" : {
                            "angle" : 3.92699081698724,
                            "enabled" : 1,
                            "offset" : 5.0,
                            "blur" : 2.0,
                            "opacity" : 0.25,
                            "color-red" : 0.0,
                            "color-green" : 0.0,
                            "color-blue" : 0.0,
                            "color-alpha" : 1.0
                          }
                        },
                        {
                          "effectName" : "CursorHilight",
                          "bypassed" : false,
                          "category" : "categoryCursorEffects",
                          "parameters" : {
                            "radius" : 50.0,
                            "color-red" : 1.0,
                            "color-green" : 1.0,
                            "color-blue" : 0.0,
                            "color-alpha" : 0.75,
                            "blur" : 0.1
                          }
                        }
                    ],
                    "start" : 30834720000,
                    "duration" : 30348387,
                    "mediaStart" : 122156051613,
                    "mediaDuration" : 30348387,
                    "scalar" : 1,
                    "metadata" : {
                      "AutoAppliedSmartFocus" : "False",
                      "audiateLinkedSession" : "",
                      "clipSpeedAttribute" : { "type": "bool", "value" : false},
                      "colorAttribute" : { "type": "color", "value" : [ 0, 0, 0, 0]},
                      "default-height" : { "type": "double", "value" : 1036.8},
                      "default-translation0" : { "type": "double", "value" : 0.0},
                      "default-translation1" : { "type": "double", "value" : -194.4},
                      "default-translation2" : { "type": "double", "value" : 0.0},
                      "default-width" : { "type": "double", "value" : 1932.67572815534}
                    },
                    "animationTracks" : {

                    }
                  },
                  {
                    "id" : 114,
                    "_type" : "StitchedMedia",
                    "minMediaStart" : 0,
                    "attributes" : {
                      "ident" : "Rec 4-22-2025-8-51-30-PM",
                      "gain" : 1.0,
                      "mixToMono" : false,
                      "loudnessNormalization" : true,
                      "sourceFileOffset" : 0
                    },
                    "parameters" : {
                      "translation0" : 6.33786407766917,
                      "translation1" : -2.8421709430404e-14,
                      "scale0" : 0.503300970873786,
                      "scale1" : 0.503300970873786,
                      "geometryCrop0" : 0.0,
                      "geometryCrop1" : 0.0,
                      "geometryCrop2" : 0.0,
                      "geometryCrop3" : 0.0,
                      "cursorOpacity" : 1.0,
                      "cursorTrackLevel" : 0.0,
                      "cursorScale" : 5.0,
                      "smoothCursorAcrossEditDuration" : 0
                    },
                    "medias" : [
                        {
                          "id" : 115,
                          "_type" : "ScreenVMFile",
                          "src" : 2,
                          "trackNumber" : 0,
                          "attributes" : {
                            "ident" : "Rec 4-22-2025-8-51-30-PM"
                          },
                          "parameters" : {
                            "geometryCrop0" : {
                              "type" : "double",
                              "defaultValue" : 0.0,
                              "interp" : "eioe"
                            },
                            "geometryCrop1" : {
                              "type" : "double",
                              "defaultValue" : 0.0,
                              "interp" : "eioe"
                            },
                            "geometryCrop2" : {
                              "type" : "double",
                              "defaultValue" : 0.0,
                              "interp" : "eioe"
                            },
                            "geometryCrop3" : {
                              "type" : "double",
                              "defaultValue" : 0.0,
                              "interp" : "eioe"
                            },
                            "cursorScale" : {
                              "type" : "double",
                              "defaultValue" : 0.0,
                              "interp" : "linr"
                            },
                            "cursorOpacity" : {
                              "type" : "double",
                              "defaultValue" : 0.0,
                              "interp" : "linr"
                            },
                            "cursorTrackLevel" : {
                              "type" : "double",
                              "defaultValue" : 0.0,
                              "interp" : "linr"
                            },
                            "smoothCursorAcrossEditDuration" : 0
                          },
                          "effects" : [

                          ],
                          "start" : 0,
                          "duration" : 50991360000,
                          "mediaStart" : 0,
                          "mediaDuration" : 50991360000,
                          "scalar" : 1,
                          "metadata" : {
                            "AutoAppliedSmartFocus" : "False",
                            "audiateLinkedSession" : "",
                            "clipSpeedAttribute" : { "type": "bool", "value" : false},
                            "colorAttribute" : { "type": "color", "value" : [ 0, 0, 0, 0]},
                            "default-height" : { "type": "double", "value" : 1036.8},
                            "default-translation0" : { "type": "double", "value" : 0.0},
                            "default-translation1" : { "type": "double", "value" : -194.4},
                            "default-translation2" : { "type": "double", "value" : 0.0},
                            "default-width" : { "type": "double", "value" : 1932.67572815534}
                          },
                          "animationTracks" : {

                          }
                        },
                        {
                          "id" : 116,
                          "_type" : "ScreenVMFile",
                          "src" : 2,
                          "trackNumber" : 0,
                          "attributes" : {
                            "ident" : "Rec 4-22-2025-8-51-30-PM"
                          },
                          "parameters" : {
                            "geometryCrop0" : {
                              "type" : "double",
                              "defaultValue" : 0.0,
                              "interp" : "eioe"
                            },
                            "geometryCrop1" : {
                              "type" : "double",
                              "defaultValue" : 0.0,
                              "interp" : "eioe"
                            },
                            "geometryCrop2" : {
                              "type" : "double",
                              "defaultValue" : 0.0,
                              "interp" : "eioe"
                            },
                            "geometryCrop3" : {
                              "type" : "double",
                              "defaultValue" : 0.0,
                              "interp" : "eioe"
                            },
                            "cursorScale" : {
                              "type" : "double",
                              "defaultValue" : 0.0,
                              "interp" : "linr"
                            },
                            "cursorOpacity" : {
                              "type" : "double",
                              "defaultValue" : 0.0,
                              "interp" : "linr"
                            },
                            "cursorTrackLevel" : {
                              "type" : "double",
                              "defaultValue" : 0.0,
                              "interp" : "linr"
                            },
                            "smoothCursorAcrossEditDuration" : 0
                          },
                          "effects" : [

                          ],
                          "start" : 50991360000,
                          "duration" : 46663680000,
                          "mediaStart" : 66467520000,
                          "mediaDuration" : 46663680000,
                          "scalar" : 1,
                          "metadata" : {
                            "AutoAppliedSmartFocus" : "False",
                            "audiateLinkedSession" : "",
                            "clipSpeedAttribute" : { "type": "bool", "value" : false},
                            "colorAttribute" : { "type": "color", "value" : [ 0, 0, 0, 0]},
                            "default-height" : { "type": "double", "value" : 1036.8},
                            "default-translation0" : { "type": "double", "value" : 0.0},
                            "default-translation1" : { "type": "double", "value" : -194.4},
                            "default-translation2" : { "type": "double", "value" : 0.0},
                            "default-width" : { "type": "double", "value" : 1932.67572815534}
                          },
                          "animationTracks" : {

                          }
                        },
                        {
                          "id" : 117,
                          "_type" : "ScreenVMFile",
                          "src" : 2,
                          "trackNumber" : 0,
                          "attributes" : {
                            "ident" : "Rec 4-22-2025-8-51-30-PM"
                          },
                          "parameters" : {
                            "geometryCrop0" : {
                              "type" : "double",
                              "defaultValue" : 0.0,
                              "interp" : "eioe"
                            },
                            "geometryCrop1" : {
                              "type" : "double",
                              "defaultValue" : 0.0,
                              "interp" : "eioe"
                            },
                            "geometryCrop2" : {
                              "type" : "double",
                              "defaultValue" : 0.0,
                              "interp" : "eioe"
                            },
                            "geometryCrop3" : {
                              "type" : "double",
                              "defaultValue" : 0.0,
                              "interp" : "eioe"
                            },
                            "cursorScale" : {
                              "type" : "double",
                              "defaultValue" : 0.0,
                              "interp" : "linr"
                            },
                            "cursorOpacity" : {
                              "type" : "double",
                              "defaultValue" : 0.0,
                              "interp" : "linr"
                            },
                            "cursorTrackLevel" : {
                              "type" : "double",
                              "defaultValue" : 0.0,
                              "interp" : "linr"
                            },
                            "smoothCursorAcrossEditDuration" : 0
                          },
                          "effects" : [

                          ],
                          "start" : 97655040000,
                          "duration" : 21426720000,
                          "mediaStart" : 149352000000,
                          "mediaDuration" : 21426720000,
                          "scalar" : 1,
                          "metadata" : {
                            "AutoAppliedSmartFocus" : "False",
                            "audiateLinkedSession" : "",
                            "clipSpeedAttribute" : { "type": "bool", "value" : false},
                            "colorAttribute" : { "type": "color", "value" : [ 0, 0, 0, 0]},
                            "default-height" : { "type": "double", "value" : 1036.8},
                            "default-translation0" : { "type": "double", "value" : 0.0},
                            "default-translation1" : { "type": "double", "value" : -194.4},
                            "default-translation2" : { "type": "double", "value" : 0.0},
                            "default-width" : { "type": "double", "value" : 1932.67572815534}
                          },
                          "animationTracks" : {

                          }
                        },
                        {
                          "id" : 118,
                          "_type" : "ScreenVMFile",
                          "src" : 2,
                          "trackNumber" : 0,
                          "attributes" : {
                            "ident" : "Rec 4-22-2025-8-51-30-PM"
                          },
                          "parameters" : {
                            "geometryCrop0" : {
                              "type" : "double",
                              "defaultValue" : 0.0,
                              "interp" : "eioe"
                            },
                            "geometryCrop1" : {
                              "type" : "double",
                              "defaultValue" : 0.0,
                              "interp" : "eioe"
                            },
                            "geometryCrop2" : {
                              "type" : "double",
                              "defaultValue" : 0.0,
                              "interp" : "eioe"
                            },
                            "geometryCrop3" : {
                              "type" : "double",
                              "defaultValue" : 0.0,
                              "interp" : "eioe"
                            },
                            "cursorScale" : {
                              "type" : "double",
                              "defaultValue" : 0.0,
                              "interp" : "linr"
                            },
                            "cursorOpacity" : {
                              "type" : "double",
                              "defaultValue" : 0.0,
                              "interp" : "linr"
                            },
                            "cursorTrackLevel" : {
                              "type" : "double",
                              "defaultValue" : 0.0,
                              "interp" : "linr"
                            },
                            "smoothCursorAcrossEditDuration" : 0
                          },
                          "effects" : [

                          ],
                          "start" : 119081760000,
                          "duration" : 5127360000,
                          "mediaStart" : 170778720000,
                          "mediaDuration" : 5127360000,
                          "scalar" : 1,
                          "metadata" : {
                            "AutoAppliedSmartFocus" : "False",
                            "audiateLinkedSession" : "",
                            "clipSpeedAttribute" : { "type": "bool", "value" : false},
                            "colorAttribute" : { "type": "color", "value" : [ 0, 0, 0, 0]},
                            "default-height" : { "type": "double", "value" : 1036.8},
                            "default-translation0" : { "type": "double", "value" : 0.0},
                            "default-translation1" : { "type": "double", "value" : -194.4},
                            "default-translation2" : { "type": "double", "value" : 0.0},
                            "default-width" : { "type": "double", "value" : 1932.67572815534}
                          },
                          "animationTracks" : {

                          }
                        },
                        {
                          "id" : 119,
                          "_type" : "ScreenVMFile",
                          "src" : 2,
                          "trackNumber" : 0,
                          "attributes" : {
                            "ident" : "Rec 4-22-2025-8-51-30-PM"
                          },
                          "parameters" : {
                            "geometryCrop0" : {
                              "type" : "double",
                              "defaultValue" : 0.0,
                              "interp" : "eioe"
                            },
                            "geometryCrop1" : {
                              "type" : "double",
                              "defaultValue" : 0.0,
                              "interp" : "eioe"
                            },
                            "geometryCrop2" : {
                              "type" : "double",
                              "defaultValue" : 0.0,
                              "interp" : "eioe"
                            },
                            "geometryCrop3" : {
                              "type" : "double",
                              "defaultValue" : 0.0,
                              "interp" : "eioe"
                            },
                            "cursorScale" : {
                              "type" : "double",
                              "defaultValue" : 0.0,
                              "interp" : "linr"
                            },
                            "cursorOpacity" : {
                              "type" : "double",
                              "defaultValue" : 0.0,
                              "interp" : "linr"
                            },
                            "cursorTrackLevel" : {
                              "type" : "double",
                              "defaultValue" : 0.0,
                              "interp" : "linr"
                            },
                            "smoothCursorAcrossEditDuration" : 0
                          },
                          "effects" : [

                          ],
                          "start" : 124209120000,
                          "duration" : 9878400000,
                          "mediaStart" : 175906080000,
                          "mediaDuration" : 9878400000,
                          "scalar" : 1,
                          "metadata" : {
                            "AutoAppliedSmartFocus" : "False",
                            "audiateLinkedSession" : "",
                            "clipSpeedAttribute" : { "type": "bool", "value" : false},
                            "colorAttribute" : { "type": "color", "value" : [ 0, 0, 0, 0]},
                            "default-height" : { "type": "double", "value" : 1036.8},
                            "default-translation0" : { "type": "double", "value" : 0.0},
                            "default-translation1" : { "type": "double", "value" : -194.4},
                            "default-translation2" : { "type": "double", "value" : 0.0},
                            "default-width" : { "type": "double", "value" : 1932.67572815534}
                          },
                          "animationTracks" : {

                          }
                        },
                        {
                          "id" : 120,
                          "_type" : "ScreenVMFile",
                          "src" : 2,
                          "trackNumber" : 0,
                          "attributes" : {
                            "ident" : "Rec 4-22-2025-8-51-30-PM"
                          },
                          "parameters" : {
                            "geometryCrop0" : {
                              "type" : "double",
                              "defaultValue" : 0.0,
                              "interp" : "eioe"
                            },
                            "geometryCrop1" : {
                              "type" : "double",
                              "defaultValue" : 0.0,
                              "interp" : "eioe"
                            },
                            "geometryCrop2" : {
                              "type" : "double",
                              "defaultValue" : 0.0,
                              "interp" : "eioe"
                            },
                            "geometryCrop3" : {
                              "type" : "double",
                              "defaultValue" : 0.0,
                              "interp" : "eioe"
                            },
                            "cursorScale" : {
                              "type" : "double",
                              "defaultValue" : 0.0,
                              "interp" : "linr"
                            },
                            "cursorOpacity" : {
                              "type" : "double",
                              "defaultValue" : 0.0,
                              "interp" : "linr"
                            },
                            "cursorTrackLevel" : {
                              "type" : "double",
                              "defaultValue" : 0.0,
                              "interp" : "linr"
                            },
                            "smoothCursorAcrossEditDuration" : 0
                          },
                          "effects" : [

                          ],
                          "start" : 134087520000,
                          "duration" : 17734080000,
                          "mediaStart" : 185784480000,
                          "mediaDuration" : 17734080000,
                          "scalar" : 1,
                          "metadata" : {
                            "AutoAppliedSmartFocus" : "False",
                            "audiateLinkedSession" : "",
                            "clipSpeedAttribute" : { "type": "bool", "value" : false},
                            "colorAttribute" : { "type": "color", "value" : [ 0, 0, 0, 0]},
                            "default-height" : { "type": "double", "value" : 1036.8},
                            "default-translation0" : { "type": "double", "value" : 0.0},
                            "default-translation1" : { "type": "double", "value" : -194.4},
                            "default-translation2" : { "type": "double", "value" : 0.0},
                            "default-width" : { "type": "double", "value" : 1932.67572815534}
                          },
                          "animationTracks" : {

                          }
                        },
                        {
                          "id" : 121,
                          "_type" : "ScreenVMFile",
                          "src" : 2,
                          "trackNumber" : 0,
                          "attributes" : {
                            "ident" : "Rec 4-22-2025-8-51-30-PM"
                          },
                          "parameters" : {
                            "geometryCrop0" : {
                              "type" : "double",
                              "defaultValue" : 0.0,
                              "interp" : "eioe"
                            },
                            "geometryCrop1" : {
                              "type" : "double",
                              "defaultValue" : 0.0,
                              "interp" : "eioe"
                            },
                            "geometryCrop2" : {
                              "type" : "double",
                              "defaultValue" : 0.0,
                              "interp" : "eioe"
                            },
                            "geometryCrop3" : {
                              "type" : "double",
                              "defaultValue" : 0.0,
                              "interp" : "eioe"
                            },
                            "cursorScale" : {
                              "type" : "double",
                              "defaultValue" : 0.0,
                              "interp" : "linr"
                            },
                            "cursorOpacity" : {
                              "type" : "double",
                              "defaultValue" : 0.0,
                              "interp" : "linr"
                            },
                            "cursorTrackLevel" : {
                              "type" : "double",
                              "defaultValue" : 0.0,
                              "interp" : "linr"
                            },
                            "smoothCursorAcrossEditDuration" : 0
                          },
                          "effects" : [

                          ],
                          "start" : 151821600000,
                          "duration" : 2399040000,
                          "mediaStart" : 203518560000,
                          "mediaDuration" : 2399040000,
                          "scalar" : 1,
                          "metadata" : {
                            "AutoAppliedSmartFocus" : "False",
                            "audiateLinkedSession" : "",
                            "clipSpeedAttribute" : { "type": "bool", "value" : false},
                            "colorAttribute" : { "type": "color", "value" : [ 0, 0, 0, 0]},
                            "default-height" : { "type": "double", "value" : 1036.8},
                            "default-translation0" : { "type": "double", "value" : 0.0},
                            "default-translation1" : { "type": "double", "value" : -194.4},
                            "default-translation2" : { "type": "double", "value" : 0.0},
                            "default-width" : { "type": "double", "value" : 1932.67572815534}
                          },
                          "animationTracks" : {

                          }
                        },
                        {
                          "id" : 122,
                          "_type" : "ScreenVMFile",
                          "src" : 2,
                          "trackNumber" : 0,
                          "attributes" : {
                            "ident" : "Rec 4-22-2025-8-51-30-PM"
                          },
                          "parameters" : {
                            "geometryCrop0" : {
                              "type" : "double",
                              "defaultValue" : 0.0,
                              "interp" : "eioe"
                            },
                            "geometryCrop1" : {
                              "type" : "double",
                              "defaultValue" : 0.0,
                              "interp" : "eioe"
                            },
                            "geometryCrop2" : {
                              "type" : "double",
                              "defaultValue" : 0.0,
                              "interp" : "eioe"
                            },
                            "geometryCrop3" : {
                              "type" : "double",
                              "defaultValue" : 0.0,
                              "interp" : "eioe"
                            },
                            "cursorScale" : {
                              "type" : "double",
                              "defaultValue" : 0.0,
                              "interp" : "linr"
                            },
                            "cursorOpacity" : {
                              "type" : "double",
                              "defaultValue" : 0.0,
                              "interp" : "linr"
                            },
                            "cursorTrackLevel" : {
                              "type" : "double",
                              "defaultValue" : 0.0,
                              "interp" : "linr"
                            },
                            "smoothCursorAcrossEditDuration" : 0
                          },
                          "effects" : [

                          ],
                          "start" : 154220640000,
                          "duration" : 3276053760000,
                          "mediaStart" : 205917600000,
                          "mediaDuration" : 3276053760000,
                          "scalar" : 1,
                          "metadata" : {
                            "AutoAppliedSmartFocus" : "False",
                            "audiateLinkedSession" : "",
                            "clipSpeedAttribute" : { "type": "bool", "value" : false},
                            "colorAttribute" : { "type": "color", "value" : [ 0, 0, 0, 0]},
                            "default-height" : { "type": "double", "value" : 1036.8},
                            "default-translation0" : { "type": "double", "value" : 0.0},
                            "default-translation1" : { "type": "double", "value" : -194.4},
                            "default-translation2" : { "type": "double", "value" : 0.0},
                            "default-width" : { "type": "double", "value" : 1932.67572815534}
                          },
                          "animationTracks" : {

                          }
                        }
                    ],
                    "effects" : [
                        {
                          "effectName" : "CursorColor",
                          "bypassed" : false,
                          "category" : "categoryCursorEffects",
                          "parameters" : {
                            "intensity" : 1.0,
                            "desaturation" : 0.0,
                            "colorLumaCutoff" : 1.0,
                            "color-alpha" : 1.0,
                            "color-red" : 1.0,
                            "color-green" : 0.8980392157,
                            "color-blue" : 0.1215686275,
                            "secondColor-red" : 0.0,
                            "secondColor-green" : 0.0,
                            "secondColor-blue" : 0.0,
                            "secondColor-alpha" : 1.0,
                            "secondColorLumaCutoff" : 0.0,
                            "channel" : 0,
                            "shadowRampStart" : 0.0,
                            "shadowRampEnd" : 0.0,
                            "highlightRampStart" : 1.0,
                            "highlightRampEnd" : 1.0
                          }
                        },
                        {
                          "effectName" : "CursorShadow",
                          "bypassed" : false,
                          "category" : "categoryCursorEffects",
                          "parameters" : {
                            "angle" : 3.92699081698724,
                            "enabled" : 1,
                            "offset" : 5.0,
                            "blur" : 2.0,
                            "opacity" : 0.25,
                            "color-red" : 0.0,
                            "color-green" : 0.0,
                            "color-blue" : 0.0,
                            "color-alpha" : 1.0
                          }
                        },
                        {
                          "effectName" : "CursorHilight",
                          "bypassed" : false,
                          "category" : "categoryCursorEffects",
                          "parameters" : {
                            "radius" : 50.0,
                            "color-red" : 1.0,
                            "color-green" : 1.0,
                            "color-blue" : 0.0,
                            "color-alpha" : 0.75,
                            "blur" : 0.1
                          }
                        }
                    ],
                    "start" : 30865068387,
                    "duration" : 1411200000,
                    "mediaStart" : 127102080000,
                    "mediaDuration" : 1411200000,
                    "scalar" : 1,
                    "metadata" : {
                      "AutoAppliedSmartFocus" : "False",
                      "audiateLinkedSession" : "",
                      "clipSpeedAttribute" : { "type": "bool", "value" : false},
                      "colorAttribute" : { "type": "color", "value" : [ 0, 0, 0, 0]},
                      "default-height" : { "type": "double", "value" : 1036.8},
                      "default-translation0" : { "type": "double", "value" : 0.0},
                      "default-translation1" : { "type": "double", "value" : -194.4},
                      "default-translation2" : { "type": "double", "value" : 0.0},
                      "default-width" : { "type": "double", "value" : 1932.67572815534}
                    },
                    "animationTracks" : {

                    }
                  },
                  {
                    "id" : 123,
                    "_type" : "StitchedMedia",
                    "minMediaStart" : 0,
                    "attributes" : {
                      "ident" : "Rec 4-22-2025-8-51-30-PM",
                      "gain" : 1.0,
                      "mixToMono" : false,
                      "loudnessNormalization" : true,
                      "sourceFileOffset" : 0
                    },
                    "parameters" : {
                      "translation0" : 6.33786407766917,
                      "translation1" : -2.8421709430404e-14,
                      "scale0" : 0.503300970873786,
                      "scale1" : 0.503300970873786,
                      "geometryCrop0" : 0.0,
                      "geometryCrop1" : 0.0,
                      "geometryCrop2" : 0.0,
                      "geometryCrop3" : 0.0,
                      "toc" : {
                        "type" : "string",
                        "keyframes" : [
                          {
                            "endTime" : 134087520000,
                            "time" : 134087520000,
                            "value" : "Begin clone",
                            "duration" : 0,
                            "metadata" : {
                              "markerIdentifier" : "6C203281-8292-4299-B424-FEF6162D1BBB"
                            }
                          }
                        ]
                      },
                      "cursorOpacity" : 1.0,
                      "cursorTrackLevel" : 0.0,
                      "cursorScale" : 5.0,
                      "smoothCursorAcrossEditDuration" : 0
                    },
                    "medias" : [
                        {
                          "id" : 124,
                          "_type" : "ScreenVMFile",
                          "src" : 2,
                          "trackNumber" : 0,
                          "attributes" : {
                            "ident" : "Rec 4-22-2025-8-51-30-PM"
                          },
                          "parameters" : {
                            "geometryCrop0" : {
                              "type" : "double",
                              "defaultValue" : 0.0,
                              "interp" : "eioe"
                            },
                            "geometryCrop1" : {
                              "type" : "double",
                              "defaultValue" : 0.0,
                              "interp" : "eioe"
                            },
                            "geometryCrop2" : {
                              "type" : "double",
                              "defaultValue" : 0.0,
                              "interp" : "eioe"
                            },
                            "geometryCrop3" : {
                              "type" : "double",
                              "defaultValue" : 0.0,
                              "interp" : "eioe"
                            },
                            "cursorScale" : {
                              "type" : "double",
                              "defaultValue" : 0.0,
                              "interp" : "linr"
                            },
                            "cursorOpacity" : {
                              "type" : "double",
                              "defaultValue" : 0.0,
                              "interp" : "linr"
                            },
                            "cursorTrackLevel" : {
                              "type" : "double",
                              "defaultValue" : 0.0,
                              "interp" : "linr"
                            },
                            "smoothCursorAcrossEditDuration" : 0
                          },
                          "effects" : [

                          ],
                          "start" : 0,
                          "duration" : 50991360000,
                          "mediaStart" : 0,
                          "mediaDuration" : 50991360000,
                          "scalar" : 1,
                          "metadata" : {
                            "AutoAppliedSmartFocus" : "False",
                            "audiateLinkedSession" : "",
                            "clipSpeedAttribute" : { "type": "bool", "value" : false},
                            "colorAttribute" : { "type": "color", "value" : [ 0, 0, 0, 0]},
                            "default-height" : { "type": "double", "value" : 1036.8},
                            "default-translation0" : { "type": "double", "value" : 0.0},
                            "default-translation1" : { "type": "double", "value" : -194.4},
                            "default-translation2" : { "type": "double", "value" : 0.0},
                            "default-width" : { "type": "double", "value" : 1932.67572815534}
                          },
                          "animationTracks" : {

                          }
                        },
                        {
                          "id" : 125,
                          "_type" : "ScreenVMFile",
                          "src" : 2,
                          "trackNumber" : 0,
                          "attributes" : {
                            "ident" : "Rec 4-22-2025-8-51-30-PM"
                          },
                          "parameters" : {
                            "geometryCrop0" : {
                              "type" : "double",
                              "defaultValue" : 0.0,
                              "interp" : "eioe"
                            },
                            "geometryCrop1" : {
                              "type" : "double",
                              "defaultValue" : 0.0,
                              "interp" : "eioe"
                            },
                            "geometryCrop2" : {
                              "type" : "double",
                              "defaultValue" : 0.0,
                              "interp" : "eioe"
                            },
                            "geometryCrop3" : {
                              "type" : "double",
                              "defaultValue" : 0.0,
                              "interp" : "eioe"
                            },
                            "cursorScale" : {
                              "type" : "double",
                              "defaultValue" : 0.0,
                              "interp" : "linr"
                            },
                            "cursorOpacity" : {
                              "type" : "double",
                              "defaultValue" : 0.0,
                              "interp" : "linr"
                            },
                            "cursorTrackLevel" : {
                              "type" : "double",
                              "defaultValue" : 0.0,
                              "interp" : "linr"
                            },
                            "smoothCursorAcrossEditDuration" : 0
                          },
                          "effects" : [

                          ],
                          "start" : 50991360000,
                          "duration" : 46663680000,
                          "mediaStart" : 66467520000,
                          "mediaDuration" : 46663680000,
                          "scalar" : 1,
                          "metadata" : {
                            "AutoAppliedSmartFocus" : "False",
                            "audiateLinkedSession" : "",
                            "clipSpeedAttribute" : { "type": "bool", "value" : false},
                            "colorAttribute" : { "type": "color", "value" : [ 0, 0, 0, 0]},
                            "default-height" : { "type": "double", "value" : 1036.8},
                            "default-translation0" : { "type": "double", "value" : 0.0},
                            "default-translation1" : { "type": "double", "value" : -194.4},
                            "default-translation2" : { "type": "double", "value" : 0.0},
                            "default-width" : { "type": "double", "value" : 1932.67572815534}
                          },
                          "animationTracks" : {

                          }
                        },
                        {
                          "id" : 126,
                          "_type" : "ScreenVMFile",
                          "src" : 2,
                          "trackNumber" : 0,
                          "attributes" : {
                            "ident" : "Rec 4-22-2025-8-51-30-PM"
                          },
                          "parameters" : {
                            "geometryCrop0" : {
                              "type" : "double",
                              "defaultValue" : 0.0,
                              "interp" : "eioe"
                            },
                            "geometryCrop1" : {
                              "type" : "double",
                              "defaultValue" : 0.0,
                              "interp" : "eioe"
                            },
                            "geometryCrop2" : {
                              "type" : "double",
                              "defaultValue" : 0.0,
                              "interp" : "eioe"
                            },
                            "geometryCrop3" : {
                              "type" : "double",
                              "defaultValue" : 0.0,
                              "interp" : "eioe"
                            },
                            "cursorScale" : {
                              "type" : "double",
                              "defaultValue" : 0.0,
                              "interp" : "linr"
                            },
                            "cursorOpacity" : {
                              "type" : "double",
                              "defaultValue" : 0.0,
                              "interp" : "linr"
                            },
                            "cursorTrackLevel" : {
                              "type" : "double",
                              "defaultValue" : 0.0,
                              "interp" : "linr"
                            },
                            "smoothCursorAcrossEditDuration" : 0
                          },
                          "effects" : [

                          ],
                          "start" : 97655040000,
                          "duration" : 21426720000,
                          "mediaStart" : 149352000000,
                          "mediaDuration" : 21426720000,
                          "scalar" : 1,
                          "metadata" : {
                            "AutoAppliedSmartFocus" : "False",
                            "audiateLinkedSession" : "",
                            "clipSpeedAttribute" : { "type": "bool", "value" : false},
                            "colorAttribute" : { "type": "color", "value" : [ 0, 0, 0, 0]},
                            "default-height" : { "type": "double", "value" : 1036.8},
                            "default-translation0" : { "type": "double", "value" : 0.0},
                            "default-translation1" : { "type": "double", "value" : -194.4},
                            "default-translation2" : { "type": "double", "value" : 0.0},
                            "default-width" : { "type": "double", "value" : 1932.67572815534}
                          },
                          "animationTracks" : {

                          }
                        },
                        {
                          "id" : 127,
                          "_type" : "ScreenVMFile",
                          "src" : 2,
                          "trackNumber" : 0,
                          "attributes" : {
                            "ident" : "Rec 4-22-2025-8-51-30-PM"
                          },
                          "parameters" : {
                            "geometryCrop0" : {
                              "type" : "double",
                              "defaultValue" : 0.0,
                              "interp" : "eioe"
                            },
                            "geometryCrop1" : {
                              "type" : "double",
                              "defaultValue" : 0.0,
                              "interp" : "eioe"
                            },
                            "geometryCrop2" : {
                              "type" : "double",
                              "defaultValue" : 0.0,
                              "interp" : "eioe"
                            },
                            "geometryCrop3" : {
                              "type" : "double",
                              "defaultValue" : 0.0,
                              "interp" : "eioe"
                            },
                            "cursorScale" : {
                              "type" : "double",
                              "defaultValue" : 0.0,
                              "interp" : "linr"
                            },
                            "cursorOpacity" : {
                              "type" : "double",
                              "defaultValue" : 0.0,
                              "interp" : "linr"
                            },
                            "cursorTrackLevel" : {
                              "type" : "double",
                              "defaultValue" : 0.0,
                              "interp" : "linr"
                            },
                            "smoothCursorAcrossEditDuration" : 0
                          },
                          "effects" : [

                          ],
                          "start" : 119081760000,
                          "duration" : 5127360000,
                          "mediaStart" : 170778720000,
                          "mediaDuration" : 5127360000,
                          "scalar" : 1,
                          "metadata" : {
                            "AutoAppliedSmartFocus" : "False",
                            "audiateLinkedSession" : "",
                            "clipSpeedAttribute" : { "type": "bool", "value" : false},
                            "colorAttribute" : { "type": "color", "value" : [ 0, 0, 0, 0]},
                            "default-height" : { "type": "double", "value" : 1036.8},
                            "default-translation0" : { "type": "double", "value" : 0.0},
                            "default-translation1" : { "type": "double", "value" : -194.4},
                            "default-translation2" : { "type": "double", "value" : 0.0},
                            "default-width" : { "type": "double", "value" : 1932.67572815534}
                          },
                          "animationTracks" : {

                          }
                        },
                        {
                          "id" : 128,
                          "_type" : "ScreenVMFile",
                          "src" : 2,
                          "trackNumber" : 0,
                          "attributes" : {
                            "ident" : "Rec 4-22-2025-8-51-30-PM"
                          },
                          "parameters" : {
                            "geometryCrop0" : {
                              "type" : "double",
                              "defaultValue" : 0.0,
                              "interp" : "eioe"
                            },
                            "geometryCrop1" : {
                              "type" : "double",
                              "defaultValue" : 0.0,
                              "interp" : "eioe"
                            },
                            "geometryCrop2" : {
                              "type" : "double",
                              "defaultValue" : 0.0,
                              "interp" : "eioe"
                            },
                            "geometryCrop3" : {
                              "type" : "double",
                              "defaultValue" : 0.0,
                              "interp" : "eioe"
                            },
                            "cursorScale" : {
                              "type" : "double",
                              "defaultValue" : 0.0,
                              "interp" : "linr"
                            },
                            "cursorOpacity" : {
                              "type" : "double",
                              "defaultValue" : 0.0,
                              "interp" : "linr"
                            },
                            "cursorTrackLevel" : {
                              "type" : "double",
                              "defaultValue" : 0.0,
                              "interp" : "linr"
                            },
                            "smoothCursorAcrossEditDuration" : 0
                          },
                          "effects" : [

                          ],
                          "start" : 124209120000,
                          "duration" : 9878400000,
                          "mediaStart" : 175906080000,
                          "mediaDuration" : 9878400000,
                          "scalar" : 1,
                          "metadata" : {
                            "AutoAppliedSmartFocus" : "False",
                            "audiateLinkedSession" : "",
                            "clipSpeedAttribute" : { "type": "bool", "value" : false},
                            "colorAttribute" : { "type": "color", "value" : [ 0, 0, 0, 0]},
                            "default-height" : { "type": "double", "value" : 1036.8},
                            "default-translation0" : { "type": "double", "value" : 0.0},
                            "default-translation1" : { "type": "double", "value" : -194.4},
                            "default-translation2" : { "type": "double", "value" : 0.0},
                            "default-width" : { "type": "double", "value" : 1932.67572815534}
                          },
                          "animationTracks" : {

                          }
                        },
                        {
                          "id" : 129,
                          "_type" : "ScreenVMFile",
                          "src" : 2,
                          "trackNumber" : 0,
                          "attributes" : {
                            "ident" : "Rec 4-22-2025-8-51-30-PM"
                          },
                          "parameters" : {
                            "geometryCrop0" : {
                              "type" : "double",
                              "defaultValue" : 0.0,
                              "interp" : "eioe"
                            },
                            "geometryCrop1" : {
                              "type" : "double",
                              "defaultValue" : 0.0,
                              "interp" : "eioe"
                            },
                            "geometryCrop2" : {
                              "type" : "double",
                              "defaultValue" : 0.0,
                              "interp" : "eioe"
                            },
                            "geometryCrop3" : {
                              "type" : "double",
                              "defaultValue" : 0.0,
                              "interp" : "eioe"
                            },
                            "cursorScale" : {
                              "type" : "double",
                              "defaultValue" : 0.0,
                              "interp" : "linr"
                            },
                            "cursorOpacity" : {
                              "type" : "double",
                              "defaultValue" : 0.0,
                              "interp" : "linr"
                            },
                            "cursorTrackLevel" : {
                              "type" : "double",
                              "defaultValue" : 0.0,
                              "interp" : "linr"
                            },
                            "smoothCursorAcrossEditDuration" : 0
                          },
                          "effects" : [

                          ],
                          "start" : 134087520000,
                          "duration" : 17734080000,
                          "mediaStart" : 185784480000,
                          "mediaDuration" : 17734080000,
                          "scalar" : 1,
                          "metadata" : {
                            "AutoAppliedSmartFocus" : "False",
                            "audiateLinkedSession" : "",
                            "clipSpeedAttribute" : { "type": "bool", "value" : false},
                            "colorAttribute" : { "type": "color", "value" : [ 0, 0, 0, 0]},
                            "default-height" : { "type": "double", "value" : 1036.8},
                            "default-translation0" : { "type": "double", "value" : 0.0},
                            "default-translation1" : { "type": "double", "value" : -194.4},
                            "default-translation2" : { "type": "double", "value" : 0.0},
                            "default-width" : { "type": "double", "value" : 1932.67572815534}
                          },
                          "animationTracks" : {

                          }
                        },
                        {
                          "id" : 130,
                          "_type" : "ScreenVMFile",
                          "src" : 2,
                          "trackNumber" : 0,
                          "attributes" : {
                            "ident" : "Rec 4-22-2025-8-51-30-PM"
                          },
                          "parameters" : {
                            "geometryCrop0" : {
                              "type" : "double",
                              "defaultValue" : 0.0,
                              "interp" : "eioe"
                            },
                            "geometryCrop1" : {
                              "type" : "double",
                              "defaultValue" : 0.0,
                              "interp" : "eioe"
                            },
                            "geometryCrop2" : {
                              "type" : "double",
                              "defaultValue" : 0.0,
                              "interp" : "eioe"
                            },
                            "geometryCrop3" : {
                              "type" : "double",
                              "defaultValue" : 0.0,
                              "interp" : "eioe"
                            },
                            "cursorScale" : {
                              "type" : "double",
                              "defaultValue" : 0.0,
                              "interp" : "linr"
                            },
                            "cursorOpacity" : {
                              "type" : "double",
                              "defaultValue" : 0.0,
                              "interp" : "linr"
                            },
                            "cursorTrackLevel" : {
                              "type" : "double",
                              "defaultValue" : 0.0,
                              "interp" : "linr"
                            },
                            "smoothCursorAcrossEditDuration" : 0
                          },
                          "effects" : [

                          ],
                          "start" : 151821600000,
                          "duration" : 2399040000,
                          "mediaStart" : 203518560000,
                          "mediaDuration" : 2399040000,
                          "scalar" : 1,
                          "metadata" : {
                            "AutoAppliedSmartFocus" : "False",
                            "audiateLinkedSession" : "",
                            "clipSpeedAttribute" : { "type": "bool", "value" : false},
                            "colorAttribute" : { "type": "color", "value" : [ 0, 0, 0, 0]},
                            "default-height" : { "type": "double", "value" : 1036.8},
                            "default-translation0" : { "type": "double", "value" : 0.0},
                            "default-translation1" : { "type": "double", "value" : -194.4},
                            "default-translation2" : { "type": "double", "value" : 0.0},
                            "default-width" : { "type": "double", "value" : 1932.67572815534}
                          },
                          "animationTracks" : {

                          }
                        },
                        {
                          "id" : 131,
                          "_type" : "ScreenVMFile",
                          "src" : 2,
                          "trackNumber" : 0,
                          "attributes" : {
                            "ident" : "Rec 4-22-2025-8-51-30-PM"
                          },
                          "parameters" : {
                            "geometryCrop0" : {
                              "type" : "double",
                              "defaultValue" : 0.0,
                              "interp" : "eioe"
                            },
                            "geometryCrop1" : {
                              "type" : "double",
                              "defaultValue" : 0.0,
                              "interp" : "eioe"
                            },
                            "geometryCrop2" : {
                              "type" : "double",
                              "defaultValue" : 0.0,
                              "interp" : "eioe"
                            },
                            "geometryCrop3" : {
                              "type" : "double",
                              "defaultValue" : 0.0,
                              "interp" : "eioe"
                            },
                            "cursorScale" : {
                              "type" : "double",
                              "defaultValue" : 0.0,
                              "interp" : "linr"
                            },
                            "cursorOpacity" : {
                              "type" : "double",
                              "defaultValue" : 0.0,
                              "interp" : "linr"
                            },
                            "cursorTrackLevel" : {
                              "type" : "double",
                              "defaultValue" : 0.0,
                              "interp" : "linr"
                            },
                            "smoothCursorAcrossEditDuration" : 0
                          },
                          "effects" : [

                          ],
                          "start" : 154220640000,
                          "duration" : 3276053760000,
                          "mediaStart" : 205917600000,
                          "mediaDuration" : 3276053760000,
                          "scalar" : 1,
                          "metadata" : {
                            "AutoAppliedSmartFocus" : "False",
                            "audiateLinkedSession" : "",
                            "clipSpeedAttribute" : { "type": "bool", "value" : false},
                            "colorAttribute" : { "type": "color", "value" : [ 0, 0, 0, 0]},
                            "default-height" : { "type": "double", "value" : 1036.8},
                            "default-translation0" : { "type": "double", "value" : 0.0},
                            "default-translation1" : { "type": "double", "value" : -194.4},
                            "default-translation2" : { "type": "double", "value" : 0.0},
                            "default-width" : { "type": "double", "value" : 1932.67572815534}
                          },
                          "animationTracks" : {

                          }
                        }
                    ],
                    "effects" : [
                        {
                          "effectName" : "CursorColor",
                          "bypassed" : false,
                          "category" : "categoryCursorEffects",
                          "parameters" : {
                            "intensity" : 1.0,
                            "desaturation" : 0.0,
                            "colorLumaCutoff" : 1.0,
                            "color-alpha" : 1.0,
                            "color-red" : 1.0,
                            "color-green" : 0.8980392157,
                            "color-blue" : 0.1215686275,
                            "secondColor-red" : 0.0,
                            "secondColor-green" : 0.0,
                            "secondColor-blue" : 0.0,
                            "secondColor-alpha" : 1.0,
                            "secondColorLumaCutoff" : 0.0,
                            "channel" : 0,
                            "shadowRampStart" : 0.0,
                            "shadowRampEnd" : 0.0,
                            "highlightRampStart" : 1.0,
                            "highlightRampEnd" : 1.0
                          }
                        },
                        {
                          "effectName" : "CursorShadow",
                          "bypassed" : false,
                          "category" : "categoryCursorEffects",
                          "parameters" : {
                            "angle" : 3.92699081698724,
                            "enabled" : 1,
                            "offset" : 5.0,
                            "blur" : 2.0,
                            "opacity" : 0.25,
                            "color-red" : 0.0,
                            "color-green" : 0.0,
                            "color-blue" : 0.0,
                            "color-alpha" : 1.0
                          }
                        },
                        {
                          "effectName" : "CursorHilight",
                          "bypassed" : false,
                          "category" : "categoryCursorEffects",
                          "parameters" : {
                            "radius" : 50.0,
                            "color-red" : 1.0,
                            "color-green" : 1.0,
                            "color-blue" : 0.0,
                            "color-alpha" : 0.75,
                            "blur" : 0.1
                          }
                        }
                    ],
                    "start" : 32276268387,
                    "duration" : 3269280000,
                    "mediaStart" : 134040480000,
                    "mediaDuration" : 3269280000,
                    "scalar" : 1,
                    "metadata" : {
                      "AutoAppliedSmartFocus" : "False",
                      "audiateLinkedSession" : "",
                      "clipSpeedAttribute" : { "type": "bool", "value" : false},
                      "colorAttribute" : { "type": "color", "value" : [ 0, 0, 0, 0]},
                      "default-height" : { "type": "double", "value" : 1036.8},
                      "default-translation0" : { "type": "double", "value" : 0.0},
                      "default-translation1" : { "type": "double", "value" : -194.4},
                      "default-translation2" : { "type": "double", "value" : 0.0},
                      "default-width" : { "type": "double", "value" : 1932.67572815534}
                    },
                    "animationTracks" : {

                    }
                  },
                  {
                    "id" : 132,
                    "_type" : "StitchedMedia",
                    "minMediaStart" : 0,
                    "attributes" : {
                      "ident" : "Rec 4-22-2025-8-51-30-PM",
                      "gain" : 1.0,
                      "mixToMono" : false,
                      "loudnessNormalization" : true,
                      "sourceFileOffset" : 0
                    },
                    "parameters" : {
                      "translation0" : 6.33786407766917,
                      "translation1" : -2.8421709430404e-14,
                      "scale0" : 0.503300970873786,
                      "scale1" : 0.503300970873786,
                      "geometryCrop0" : 0.0,
                      "geometryCrop1" : 0.0,
                      "geometryCrop2" : 0.0,
                      "geometryCrop3" : 0.0,
                      "cursorOpacity" : 1.0,
                      "cursorTrackLevel" : 0.0,
                      "cursorScale" : 5.0,
                      "smoothCursorAcrossEditDuration" : 0
                    },
                    "medias" : [
                        {
                          "id" : 133,
                          "_type" : "ScreenVMFile",
                          "src" : 2,
                          "trackNumber" : 0,
                          "attributes" : {
                            "ident" : "Rec 4-22-2025-8-51-30-PM"
                          },
                          "parameters" : {
                            "geometryCrop0" : {
                              "type" : "double",
                              "defaultValue" : 0.0,
                              "interp" : "eioe"
                            },
                            "geometryCrop1" : {
                              "type" : "double",
                              "defaultValue" : 0.0,
                              "interp" : "eioe"
                            },
                            "geometryCrop2" : {
                              "type" : "double",
                              "defaultValue" : 0.0,
                              "interp" : "eioe"
                            },
                            "geometryCrop3" : {
                              "type" : "double",
                              "defaultValue" : 0.0,
                              "interp" : "eioe"
                            },
                            "cursorScale" : {
                              "type" : "double",
                              "defaultValue" : 0.0,
                              "interp" : "linr"
                            },
                            "cursorOpacity" : {
                              "type" : "double",
                              "defaultValue" : 0.0,
                              "interp" : "linr"
                            },
                            "cursorTrackLevel" : {
                              "type" : "double",
                              "defaultValue" : 0.0,
                              "interp" : "linr"
                            },
                            "smoothCursorAcrossEditDuration" : 0
                          },
                          "effects" : [

                          ],
                          "start" : 0,
                          "duration" : 50991360000,
                          "mediaStart" : 0,
                          "mediaDuration" : 50991360000,
                          "scalar" : 1,
                          "metadata" : {
                            "AutoAppliedSmartFocus" : "False",
                            "audiateLinkedSession" : "",
                            "clipSpeedAttribute" : { "type": "bool", "value" : false},
                            "colorAttribute" : { "type": "color", "value" : [ 0, 0, 0, 0]},
                            "default-height" : { "type": "double", "value" : 1036.8},
                            "default-translation0" : { "type": "double", "value" : 0.0},
                            "default-translation1" : { "type": "double", "value" : -194.4},
                            "default-translation2" : { "type": "double", "value" : 0.0},
                            "default-width" : { "type": "double", "value" : 1932.67572815534}
                          },
                          "animationTracks" : {

                          }
                        },
                        {
                          "id" : 134,
                          "_type" : "ScreenVMFile",
                          "src" : 2,
                          "trackNumber" : 0,
                          "attributes" : {
                            "ident" : "Rec 4-22-2025-8-51-30-PM"
                          },
                          "parameters" : {
                            "geometryCrop0" : {
                              "type" : "double",
                              "defaultValue" : 0.0,
                              "interp" : "eioe"
                            },
                            "geometryCrop1" : {
                              "type" : "double",
                              "defaultValue" : 0.0,
                              "interp" : "eioe"
                            },
                            "geometryCrop2" : {
                              "type" : "double",
                              "defaultValue" : 0.0,
                              "interp" : "eioe"
                            },
                            "geometryCrop3" : {
                              "type" : "double",
                              "defaultValue" : 0.0,
                              "interp" : "eioe"
                            },
                            "cursorScale" : {
                              "type" : "double",
                              "defaultValue" : 0.0,
                              "interp" : "linr"
                            },
                            "cursorOpacity" : {
                              "type" : "double",
                              "defaultValue" : 0.0,
                              "interp" : "linr"
                            },
                            "cursorTrackLevel" : {
                              "type" : "double",
                              "defaultValue" : 0.0,
                              "interp" : "linr"
                            },
                            "smoothCursorAcrossEditDuration" : 0
                          },
                          "effects" : [

                          ],
                          "start" : 50991360000,
                          "duration" : 46663680000,
                          "mediaStart" : 66467520000,
                          "mediaDuration" : 46663680000,
                          "scalar" : 1,
                          "metadata" : {
                            "AutoAppliedSmartFocus" : "False",
                            "audiateLinkedSession" : "",
                            "clipSpeedAttribute" : { "type": "bool", "value" : false},
                            "colorAttribute" : { "type": "color", "value" : [ 0, 0, 0, 0]},
                            "default-height" : { "type": "double", "value" : 1036.8},
                            "default-translation0" : { "type": "double", "value" : 0.0},
                            "default-translation1" : { "type": "double", "value" : -194.4},
                            "default-translation2" : { "type": "double", "value" : 0.0},
                            "default-width" : { "type": "double", "value" : 1932.67572815534}
                          },
                          "animationTracks" : {

                          }
                        },
                        {
                          "id" : 135,
                          "_type" : "ScreenVMFile",
                          "src" : 2,
                          "trackNumber" : 0,
                          "attributes" : {
                            "ident" : "Rec 4-22-2025-8-51-30-PM"
                          },
                          "parameters" : {
                            "geometryCrop0" : {
                              "type" : "double",
                              "defaultValue" : 0.0,
                              "interp" : "eioe"
                            },
                            "geometryCrop1" : {
                              "type" : "double",
                              "defaultValue" : 0.0,
                              "interp" : "eioe"
                            },
                            "geometryCrop2" : {
                              "type" : "double",
                              "defaultValue" : 0.0,
                              "interp" : "eioe"
                            },
                            "geometryCrop3" : {
                              "type" : "double",
                              "defaultValue" : 0.0,
                              "interp" : "eioe"
                            },
                            "cursorScale" : {
                              "type" : "double",
                              "defaultValue" : 0.0,
                              "interp" : "linr"
                            },
                            "cursorOpacity" : {
                              "type" : "double",
                              "defaultValue" : 0.0,
                              "interp" : "linr"
                            },
                            "cursorTrackLevel" : {
                              "type" : "double",
                              "defaultValue" : 0.0,
                              "interp" : "linr"
                            },
                            "smoothCursorAcrossEditDuration" : 0
                          },
                          "effects" : [

                          ],
                          "start" : 97655040000,
                          "duration" : 21426720000,
                          "mediaStart" : 149352000000,
                          "mediaDuration" : 21426720000,
                          "scalar" : 1,
                          "metadata" : {
                            "AutoAppliedSmartFocus" : "False",
                            "audiateLinkedSession" : "",
                            "clipSpeedAttribute" : { "type": "bool", "value" : false},
                            "colorAttribute" : { "type": "color", "value" : [ 0, 0, 0, 0]},
                            "default-height" : { "type": "double", "value" : 1036.8},
                            "default-translation0" : { "type": "double", "value" : 0.0},
                            "default-translation1" : { "type": "double", "value" : -194.4},
                            "default-translation2" : { "type": "double", "value" : 0.0},
                            "default-width" : { "type": "double", "value" : 1932.67572815534}
                          },
                          "animationTracks" : {

                          }
                        },
                        {
                          "id" : 136,
                          "_type" : "ScreenVMFile",
                          "src" : 2,
                          "trackNumber" : 0,
                          "attributes" : {
                            "ident" : "Rec 4-22-2025-8-51-30-PM"
                          },
                          "parameters" : {
                            "geometryCrop0" : {
                              "type" : "double",
                              "defaultValue" : 0.0,
                              "interp" : "eioe"
                            },
                            "geometryCrop1" : {
                              "type" : "double",
                              "defaultValue" : 0.0,
                              "interp" : "eioe"
                            },
                            "geometryCrop2" : {
                              "type" : "double",
                              "defaultValue" : 0.0,
                              "interp" : "eioe"
                            },
                            "geometryCrop3" : {
                              "type" : "double",
                              "defaultValue" : 0.0,
                              "interp" : "eioe"
                            },
                            "cursorScale" : {
                              "type" : "double",
                              "defaultValue" : 0.0,
                              "interp" : "linr"
                            },
                            "cursorOpacity" : {
                              "type" : "double",
                              "defaultValue" : 0.0,
                              "interp" : "linr"
                            },
                            "cursorTrackLevel" : {
                              "type" : "double",
                              "defaultValue" : 0.0,
                              "interp" : "linr"
                            },
                            "smoothCursorAcrossEditDuration" : 0
                          },
                          "effects" : [

                          ],
                          "start" : 119081760000,
                          "duration" : 5127360000,
                          "mediaStart" : 170778720000,
                          "mediaDuration" : 5127360000,
                          "scalar" : 1,
                          "metadata" : {
                            "AutoAppliedSmartFocus" : "False",
                            "audiateLinkedSession" : "",
                            "clipSpeedAttribute" : { "type": "bool", "value" : false},
                            "colorAttribute" : { "type": "color", "value" : [ 0, 0, 0, 0]},
                            "default-height" : { "type": "double", "value" : 1036.8},
                            "default-translation0" : { "type": "double", "value" : 0.0},
                            "default-translation1" : { "type": "double", "value" : -194.4},
                            "default-translation2" : { "type": "double", "value" : 0.0},
                            "default-width" : { "type": "double", "value" : 1932.67572815534}
                          },
                          "animationTracks" : {

                          }
                        },
                        {
                          "id" : 137,
                          "_type" : "ScreenVMFile",
                          "src" : 2,
                          "trackNumber" : 0,
                          "attributes" : {
                            "ident" : "Rec 4-22-2025-8-51-30-PM"
                          },
                          "parameters" : {
                            "geometryCrop0" : {
                              "type" : "double",
                              "defaultValue" : 0.0,
                              "interp" : "eioe"
                            },
                            "geometryCrop1" : {
                              "type" : "double",
                              "defaultValue" : 0.0,
                              "interp" : "eioe"
                            },
                            "geometryCrop2" : {
                              "type" : "double",
                              "defaultValue" : 0.0,
                              "interp" : "eioe"
                            },
                            "geometryCrop3" : {
                              "type" : "double",
                              "defaultValue" : 0.0,
                              "interp" : "eioe"
                            },
                            "cursorScale" : {
                              "type" : "double",
                              "defaultValue" : 0.0,
                              "interp" : "linr"
                            },
                            "cursorOpacity" : {
                              "type" : "double",
                              "defaultValue" : 0.0,
                              "interp" : "linr"
                            },
                            "cursorTrackLevel" : {
                              "type" : "double",
                              "defaultValue" : 0.0,
                              "interp" : "linr"
                            },
                            "smoothCursorAcrossEditDuration" : 0
                          },
                          "effects" : [

                          ],
                          "start" : 124209120000,
                          "duration" : 9878400000,
                          "mediaStart" : 175906080000,
                          "mediaDuration" : 9878400000,
                          "scalar" : 1,
                          "metadata" : {
                            "AutoAppliedSmartFocus" : "False",
                            "audiateLinkedSession" : "",
                            "clipSpeedAttribute" : { "type": "bool", "value" : false},
                            "colorAttribute" : { "type": "color", "value" : [ 0, 0, 0, 0]},
                            "default-height" : { "type": "double", "value" : 1036.8},
                            "default-translation0" : { "type": "double", "value" : 0.0},
                            "default-translation1" : { "type": "double", "value" : -194.4},
                            "default-translation2" : { "type": "double", "value" : 0.0},
                            "default-width" : { "type": "double", "value" : 1932.67572815534}
                          },
                          "animationTracks" : {

                          }
                        },
                        {
                          "id" : 138,
                          "_type" : "ScreenVMFile",
                          "src" : 2,
                          "trackNumber" : 0,
                          "attributes" : {
                            "ident" : "Rec 4-22-2025-8-51-30-PM"
                          },
                          "parameters" : {
                            "geometryCrop0" : {
                              "type" : "double",
                              "defaultValue" : 0.0,
                              "interp" : "eioe"
                            },
                            "geometryCrop1" : {
                              "type" : "double",
                              "defaultValue" : 0.0,
                              "interp" : "eioe"
                            },
                            "geometryCrop2" : {
                              "type" : "double",
                              "defaultValue" : 0.0,
                              "interp" : "eioe"
                            },
                            "geometryCrop3" : {
                              "type" : "double",
                              "defaultValue" : 0.0,
                              "interp" : "eioe"
                            },
                            "cursorScale" : {
                              "type" : "double",
                              "defaultValue" : 0.0,
                              "interp" : "linr"
                            },
                            "cursorOpacity" : {
                              "type" : "double",
                              "defaultValue" : 0.0,
                              "interp" : "linr"
                            },
                            "cursorTrackLevel" : {
                              "type" : "double",
                              "defaultValue" : 0.0,
                              "interp" : "linr"
                            },
                            "smoothCursorAcrossEditDuration" : 0
                          },
                          "effects" : [

                          ],
                          "start" : 134087520000,
                          "duration" : 17734080000,
                          "mediaStart" : 185784480000,
                          "mediaDuration" : 17734080000,
                          "scalar" : 1,
                          "metadata" : {
                            "AutoAppliedSmartFocus" : "False",
                            "audiateLinkedSession" : "",
                            "clipSpeedAttribute" : { "type": "bool", "value" : false},
                            "colorAttribute" : { "type": "color", "value" : [ 0, 0, 0, 0]},
                            "default-height" : { "type": "double", "value" : 1036.8},
                            "default-translation0" : { "type": "double", "value" : 0.0},
                            "default-translation1" : { "type": "double", "value" : -194.4},
                            "default-translation2" : { "type": "double", "value" : 0.0},
                            "default-width" : { "type": "double", "value" : 1932.67572815534}
                          },
                          "animationTracks" : {

                          }
                        },
                        {
                          "id" : 139,
                          "_type" : "ScreenVMFile",
                          "src" : 2,
                          "trackNumber" : 0,
                          "attributes" : {
                            "ident" : "Rec 4-22-2025-8-51-30-PM"
                          },
                          "parameters" : {
                            "geometryCrop0" : {
                              "type" : "double",
                              "defaultValue" : 0.0,
                              "interp" : "eioe"
                            },
                            "geometryCrop1" : {
                              "type" : "double",
                              "defaultValue" : 0.0,
                              "interp" : "eioe"
                            },
                            "geometryCrop2" : {
                              "type" : "double",
                              "defaultValue" : 0.0,
                              "interp" : "eioe"
                            },
                            "geometryCrop3" : {
                              "type" : "double",
                              "defaultValue" : 0.0,
                              "interp" : "eioe"
                            },
                            "cursorScale" : {
                              "type" : "double",
                              "defaultValue" : 0.0,
                              "interp" : "linr"
                            },
                            "cursorOpacity" : {
                              "type" : "double",
                              "defaultValue" : 0.0,
                              "interp" : "linr"
                            },
                            "cursorTrackLevel" : {
                              "type" : "double",
                              "defaultValue" : 0.0,
                              "interp" : "linr"
                            },
                            "smoothCursorAcrossEditDuration" : 0
                          },
                          "effects" : [

                          ],
                          "start" : 151821600000,
                          "duration" : 2399040000,
                          "mediaStart" : 203518560000,
                          "mediaDuration" : 2399040000,
                          "scalar" : 1,
                          "metadata" : {
                            "AutoAppliedSmartFocus" : "False",
                            "audiateLinkedSession" : "",
                            "clipSpeedAttribute" : { "type": "bool", "value" : false},
                            "colorAttribute" : { "type": "color", "value" : [ 0, 0, 0, 0]},
                            "default-height" : { "type": "double", "value" : 1036.8},
                            "default-translation0" : { "type": "double", "value" : 0.0},
                            "default-translation1" : { "type": "double", "value" : -194.4},
                            "default-translation2" : { "type": "double", "value" : 0.0},
                            "default-width" : { "type": "double", "value" : 1932.67572815534}
                          },
                          "animationTracks" : {

                          }
                        },
                        {
                          "id" : 140,
                          "_type" : "ScreenVMFile",
                          "src" : 2,
                          "trackNumber" : 0,
                          "attributes" : {
                            "ident" : "Rec 4-22-2025-8-51-30-PM"
                          },
                          "parameters" : {
                            "geometryCrop0" : {
                              "type" : "double",
                              "defaultValue" : 0.0,
                              "interp" : "eioe"
                            },
                            "geometryCrop1" : {
                              "type" : "double",
                              "defaultValue" : 0.0,
                              "interp" : "eioe"
                            },
                            "geometryCrop2" : {
                              "type" : "double",
                              "defaultValue" : 0.0,
                              "interp" : "eioe"
                            },
                            "geometryCrop3" : {
                              "type" : "double",
                              "defaultValue" : 0.0,
                              "interp" : "eioe"
                            },
                            "cursorScale" : {
                              "type" : "double",
                              "defaultValue" : 0.0,
                              "interp" : "linr"
                            },
                            "cursorOpacity" : {
                              "type" : "double",
                              "defaultValue" : 0.0,
                              "interp" : "linr"
                            },
                            "cursorTrackLevel" : {
                              "type" : "double",
                              "defaultValue" : 0.0,
                              "interp" : "linr"
                            },
                            "smoothCursorAcrossEditDuration" : 0
                          },
                          "effects" : [

                          ],
                          "start" : 154220640000,
                          "duration" : 3276053760000,
                          "mediaStart" : 205917600000,
                          "mediaDuration" : 3276053760000,
                          "scalar" : 1,
                          "metadata" : {
                            "AutoAppliedSmartFocus" : "False",
                            "audiateLinkedSession" : "",
                            "clipSpeedAttribute" : { "type": "bool", "value" : false},
                            "colorAttribute" : { "type": "color", "value" : [ 0, 0, 0, 0]},
                            "default-height" : { "type": "double", "value" : 1036.8},
                            "default-translation0" : { "type": "double", "value" : 0.0},
                            "default-translation1" : { "type": "double", "value" : -194.4},
                            "default-translation2" : { "type": "double", "value" : 0.0},
                            "default-width" : { "type": "double", "value" : 1932.67572815534}
                          },
                          "animationTracks" : {

                          }
                        }
                    ],
                    "effects" : [
                        {
                          "effectName" : "CursorColor",
                          "bypassed" : false,
                          "category" : "categoryCursorEffects",
                          "parameters" : {
                            "intensity" : 1.0,
                            "desaturation" : 0.0,
                            "colorLumaCutoff" : 1.0,
                            "color-alpha" : 1.0,
                            "color-red" : 1.0,
                            "color-green" : 0.8980392157,
                            "color-blue" : 0.1215686275,
                            "secondColor-red" : 0.0,
                            "secondColor-green" : 0.0,
                            "secondColor-blue" : 0.0,
                            "secondColor-alpha" : 1.0,
                            "secondColorLumaCutoff" : 0.0,
                            "channel" : 0,
                            "shadowRampStart" : 0.0,
                            "shadowRampEnd" : 0.0,
                            "highlightRampStart" : 1.0,
                            "highlightRampEnd" : 1.0
                          }
                        },
                        {
                          "effectName" : "CursorShadow",
                          "bypassed" : false,
                          "category" : "categoryCursorEffects",
                          "parameters" : {
                            "angle" : 3.92699081698724,
                            "enabled" : 1,
                            "offset" : 5.0,
                            "blur" : 2.0,
                            "opacity" : 0.25,
                            "color-red" : 0.0,
                            "color-green" : 0.0,
                            "color-blue" : 0.0,
                            "color-alpha" : 1.0
                          }
                        },
                        {
                          "effectName" : "CursorHilight",
                          "bypassed" : false,
                          "category" : "categoryCursorEffects",
                          "parameters" : {
                            "radius" : 50.0,
                            "color-red" : 1.0,
                            "color-green" : 1.0,
                            "color-blue" : 0.0,
                            "color-alpha" : 0.75,
                            "blur" : 0.1
                          }
                        }
                    ],
                    "start" : 35545548387,
                    "duration" : 846720000,
                    "mediaStart" : 137309760000,
                    "mediaDuration" : 846720000,
                    "scalar" : 1,
                    "metadata" : {
                      "AutoAppliedSmartFocus" : "False",
                      "audiateLinkedSession" : "",
                      "clipSpeedAttribute" : { "type": "bool", "value" : false},
                      "colorAttribute" : { "type": "color", "value" : [ 0, 0, 0, 0]},
                      "default-height" : { "type": "double", "value" : 1036.8},
                      "default-translation0" : { "type": "double", "value" : 0.0},
                      "default-translation1" : { "type": "double", "value" : -194.4},
                      "default-translation2" : { "type": "double", "value" : 0.0},
                      "default-width" : { "type": "double", "value" : 1932.67572815534}
                    },
                    "animationTracks" : {

                    }
                  },
                  {
                    "id" : 141,
                    "_type" : "StitchedMedia",
                    "minMediaStart" : 0,
                    "attributes" : {
                      "ident" : "Rec 4-22-2025-8-51-30-PM",
                      "gain" : 1.0,
                      "mixToMono" : false,
                      "loudnessNormalization" : true,
                      "sourceFileOffset" : 0
                    },
                    "parameters" : {
                      "translation0" : 6.33786407766917,
                      "translation1" : -2.8421709430404e-14,
                      "scale0" : 0.503300970873786,
                      "scale1" : 0.503300970873786,
                      "geometryCrop0" : 0.0,
                      "geometryCrop1" : 0.0,
                      "geometryCrop2" : 0.0,
                      "geometryCrop3" : 0.0,
                      "cursorOpacity" : 1.0,
                      "cursorTrackLevel" : 0.0,
                      "cursorScale" : 5.0,
                      "smoothCursorAcrossEditDuration" : 0
                    },
                    "medias" : [
                        {
                          "id" : 142,
                          "_type" : "ScreenVMFile",
                          "src" : 2,
                          "trackNumber" : 0,
                          "attributes" : {
                            "ident" : "Rec 4-22-2025-8-51-30-PM"
                          },
                          "parameters" : {
                            "geometryCrop0" : {
                              "type" : "double",
                              "defaultValue" : 0.0,
                              "interp" : "eioe"
                            },
                            "geometryCrop1" : {
                              "type" : "double",
                              "defaultValue" : 0.0,
                              "interp" : "eioe"
                            },
                            "geometryCrop2" : {
                              "type" : "double",
                              "defaultValue" : 0.0,
                              "interp" : "eioe"
                            },
                            "geometryCrop3" : {
                              "type" : "double",
                              "defaultValue" : 0.0,
                              "interp" : "eioe"
                            },
                            "cursorScale" : {
                              "type" : "double",
                              "defaultValue" : 0.0,
                              "interp" : "linr"
                            },
                            "cursorOpacity" : {
                              "type" : "double",
                              "defaultValue" : 0.0,
                              "interp" : "linr"
                            },
                            "cursorTrackLevel" : {
                              "type" : "double",
                              "defaultValue" : 0.0,
                              "interp" : "linr"
                            },
                            "smoothCursorAcrossEditDuration" : 0
                          },
                          "effects" : [

                          ],
                          "start" : 0,
                          "duration" : 50991360000,
                          "mediaStart" : 0,
                          "mediaDuration" : 50991360000,
                          "scalar" : 1,
                          "metadata" : {
                            "AutoAppliedSmartFocus" : "False",
                            "audiateLinkedSession" : "",
                            "clipSpeedAttribute" : { "type": "bool", "value" : false},
                            "colorAttribute" : { "type": "color", "value" : [ 0, 0, 0, 0]},
                            "default-height" : { "type": "double", "value" : 1036.8},
                            "default-translation0" : { "type": "double", "value" : 0.0},
                            "default-translation1" : { "type": "double", "value" : -194.4},
                            "default-translation2" : { "type": "double", "value" : 0.0},
                            "default-width" : { "type": "double", "value" : 1932.67572815534}
                          },
                          "animationTracks" : {

                          }
                        },
                        {
                          "id" : 143,
                          "_type" : "ScreenVMFile",
                          "src" : 2,
                          "trackNumber" : 0,
                          "attributes" : {
                            "ident" : "Rec 4-22-2025-8-51-30-PM"
                          },
                          "parameters" : {
                            "geometryCrop0" : {
                              "type" : "double",
                              "defaultValue" : 0.0,
                              "interp" : "eioe"
                            },
                            "geometryCrop1" : {
                              "type" : "double",
                              "defaultValue" : 0.0,
                              "interp" : "eioe"
                            },
                            "geometryCrop2" : {
                              "type" : "double",
                              "defaultValue" : 0.0,
                              "interp" : "eioe"
                            },
                            "geometryCrop3" : {
                              "type" : "double",
                              "defaultValue" : 0.0,
                              "interp" : "eioe"
                            },
                            "cursorScale" : {
                              "type" : "double",
                              "defaultValue" : 0.0,
                              "interp" : "linr"
                            },
                            "cursorOpacity" : {
                              "type" : "double",
                              "defaultValue" : 0.0,
                              "interp" : "linr"
                            },
                            "cursorTrackLevel" : {
                              "type" : "double",
                              "defaultValue" : 0.0,
                              "interp" : "linr"
                            },
                            "smoothCursorAcrossEditDuration" : 0
                          },
                          "effects" : [

                          ],
                          "start" : 50991360000,
                          "duration" : 46663680000,
                          "mediaStart" : 66467520000,
                          "mediaDuration" : 46663680000,
                          "scalar" : 1,
                          "metadata" : {
                            "AutoAppliedSmartFocus" : "False",
                            "audiateLinkedSession" : "",
                            "clipSpeedAttribute" : { "type": "bool", "value" : false},
                            "colorAttribute" : { "type": "color", "value" : [ 0, 0, 0, 0]},
                            "default-height" : { "type": "double", "value" : 1036.8},
                            "default-translation0" : { "type": "double", "value" : 0.0},
                            "default-translation1" : { "type": "double", "value" : -194.4},
                            "default-translation2" : { "type": "double", "value" : 0.0},
                            "default-width" : { "type": "double", "value" : 1932.67572815534}
                          },
                          "animationTracks" : {

                          }
                        },
                        {
                          "id" : 144,
                          "_type" : "ScreenVMFile",
                          "src" : 2,
                          "trackNumber" : 0,
                          "attributes" : {
                            "ident" : "Rec 4-22-2025-8-51-30-PM"
                          },
                          "parameters" : {
                            "geometryCrop0" : {
                              "type" : "double",
                              "defaultValue" : 0.0,
                              "interp" : "eioe"
                            },
                            "geometryCrop1" : {
                              "type" : "double",
                              "defaultValue" : 0.0,
                              "interp" : "eioe"
                            },
                            "geometryCrop2" : {
                              "type" : "double",
                              "defaultValue" : 0.0,
                              "interp" : "eioe"
                            },
                            "geometryCrop3" : {
                              "type" : "double",
                              "defaultValue" : 0.0,
                              "interp" : "eioe"
                            },
                            "cursorScale" : {
                              "type" : "double",
                              "defaultValue" : 0.0,
                              "interp" : "linr"
                            },
                            "cursorOpacity" : {
                              "type" : "double",
                              "defaultValue" : 0.0,
                              "interp" : "linr"
                            },
                            "cursorTrackLevel" : {
                              "type" : "double",
                              "defaultValue" : 0.0,
                              "interp" : "linr"
                            },
                            "smoothCursorAcrossEditDuration" : 0
                          },
                          "effects" : [

                          ],
                          "start" : 97655040000,
                          "duration" : 21426720000,
                          "mediaStart" : 149352000000,
                          "mediaDuration" : 21426720000,
                          "scalar" : 1,
                          "metadata" : {
                            "AutoAppliedSmartFocus" : "False",
                            "audiateLinkedSession" : "",
                            "clipSpeedAttribute" : { "type": "bool", "value" : false},
                            "colorAttribute" : { "type": "color", "value" : [ 0, 0, 0, 0]},
                            "default-height" : { "type": "double", "value" : 1036.8},
                            "default-translation0" : { "type": "double", "value" : 0.0},
                            "default-translation1" : { "type": "double", "value" : -194.4},
                            "default-translation2" : { "type": "double", "value" : 0.0},
                            "default-width" : { "type": "double", "value" : 1932.67572815534}
                          },
                          "animationTracks" : {

                          }
                        },
                        {
                          "id" : 145,
                          "_type" : "ScreenVMFile",
                          "src" : 2,
                          "trackNumber" : 0,
                          "attributes" : {
                            "ident" : "Rec 4-22-2025-8-51-30-PM"
                          },
                          "parameters" : {
                            "geometryCrop0" : {
                              "type" : "double",
                              "defaultValue" : 0.0,
                              "interp" : "eioe"
                            },
                            "geometryCrop1" : {
                              "type" : "double",
                              "defaultValue" : 0.0,
                              "interp" : "eioe"
                            },
                            "geometryCrop2" : {
                              "type" : "double",
                              "defaultValue" : 0.0,
                              "interp" : "eioe"
                            },
                            "geometryCrop3" : {
                              "type" : "double",
                              "defaultValue" : 0.0,
                              "interp" : "eioe"
                            },
                            "cursorScale" : {
                              "type" : "double",
                              "defaultValue" : 0.0,
                              "interp" : "linr"
                            },
                            "cursorOpacity" : {
                              "type" : "double",
                              "defaultValue" : 0.0,
                              "interp" : "linr"
                            },
                            "cursorTrackLevel" : {
                              "type" : "double",
                              "defaultValue" : 0.0,
                              "interp" : "linr"
                            },
                            "smoothCursorAcrossEditDuration" : 0
                          },
                          "effects" : [

                          ],
                          "start" : 119081760000,
                          "duration" : 5127360000,
                          "mediaStart" : 170778720000,
                          "mediaDuration" : 5127360000,
                          "scalar" : 1,
                          "metadata" : {
                            "AutoAppliedSmartFocus" : "False",
                            "audiateLinkedSession" : "",
                            "clipSpeedAttribute" : { "type": "bool", "value" : false},
                            "colorAttribute" : { "type": "color", "value" : [ 0, 0, 0, 0]},
                            "default-height" : { "type": "double", "value" : 1036.8},
                            "default-translation0" : { "type": "double", "value" : 0.0},
                            "default-translation1" : { "type": "double", "value" : -194.4},
                            "default-translation2" : { "type": "double", "value" : 0.0},
                            "default-width" : { "type": "double", "value" : 1932.67572815534}
                          },
                          "animationTracks" : {

                          }
                        },
                        {
                          "id" : 146,
                          "_type" : "ScreenVMFile",
                          "src" : 2,
                          "trackNumber" : 0,
                          "attributes" : {
                            "ident" : "Rec 4-22-2025-8-51-30-PM"
                          },
                          "parameters" : {
                            "geometryCrop0" : {
                              "type" : "double",
                              "defaultValue" : 0.0,
                              "interp" : "eioe"
                            },
                            "geometryCrop1" : {
                              "type" : "double",
                              "defaultValue" : 0.0,
                              "interp" : "eioe"
                            },
                            "geometryCrop2" : {
                              "type" : "double",
                              "defaultValue" : 0.0,
                              "interp" : "eioe"
                            },
                            "geometryCrop3" : {
                              "type" : "double",
                              "defaultValue" : 0.0,
                              "interp" : "eioe"
                            },
                            "cursorScale" : {
                              "type" : "double",
                              "defaultValue" : 0.0,
                              "interp" : "linr"
                            },
                            "cursorOpacity" : {
                              "type" : "double",
                              "defaultValue" : 0.0,
                              "interp" : "linr"
                            },
                            "cursorTrackLevel" : {
                              "type" : "double",
                              "defaultValue" : 0.0,
                              "interp" : "linr"
                            },
                            "smoothCursorAcrossEditDuration" : 0
                          },
                          "effects" : [

                          ],
                          "start" : 124209120000,
                          "duration" : 9878400000,
                          "mediaStart" : 175906080000,
                          "mediaDuration" : 9878400000,
                          "scalar" : 1,
                          "metadata" : {
                            "AutoAppliedSmartFocus" : "False",
                            "audiateLinkedSession" : "",
                            "clipSpeedAttribute" : { "type": "bool", "value" : false},
                            "colorAttribute" : { "type": "color", "value" : [ 0, 0, 0, 0]},
                            "default-height" : { "type": "double", "value" : 1036.8},
                            "default-translation0" : { "type": "double", "value" : 0.0},
                            "default-translation1" : { "type": "double", "value" : -194.4},
                            "default-translation2" : { "type": "double", "value" : 0.0},
                            "default-width" : { "type": "double", "value" : 1932.67572815534}
                          },
                          "animationTracks" : {

                          }
                        },
                        {
                          "id" : 147,
                          "_type" : "ScreenVMFile",
                          "src" : 2,
                          "trackNumber" : 0,
                          "attributes" : {
                            "ident" : "Rec 4-22-2025-8-51-30-PM"
                          },
                          "parameters" : {
                            "geometryCrop0" : {
                              "type" : "double",
                              "defaultValue" : 0.0,
                              "interp" : "eioe"
                            },
                            "geometryCrop1" : {
                              "type" : "double",
                              "defaultValue" : 0.0,
                              "interp" : "eioe"
                            },
                            "geometryCrop2" : {
                              "type" : "double",
                              "defaultValue" : 0.0,
                              "interp" : "eioe"
                            },
                            "geometryCrop3" : {
                              "type" : "double",
                              "defaultValue" : 0.0,
                              "interp" : "eioe"
                            },
                            "cursorScale" : {
                              "type" : "double",
                              "defaultValue" : 0.0,
                              "interp" : "linr"
                            },
                            "cursorOpacity" : {
                              "type" : "double",
                              "defaultValue" : 0.0,
                              "interp" : "linr"
                            },
                            "cursorTrackLevel" : {
                              "type" : "double",
                              "defaultValue" : 0.0,
                              "interp" : "linr"
                            },
                            "smoothCursorAcrossEditDuration" : 0
                          },
                          "effects" : [

                          ],
                          "start" : 134087520000,
                          "duration" : 17734080000,
                          "mediaStart" : 185784480000,
                          "mediaDuration" : 17734080000,
                          "scalar" : 1,
                          "metadata" : {
                            "AutoAppliedSmartFocus" : "False",
                            "audiateLinkedSession" : "",
                            "clipSpeedAttribute" : { "type": "bool", "value" : false},
                            "colorAttribute" : { "type": "color", "value" : [ 0, 0, 0, 0]},
                            "default-height" : { "type": "double", "value" : 1036.8},
                            "default-translation0" : { "type": "double", "value" : 0.0},
                            "default-translation1" : { "type": "double", "value" : -194.4},
                            "default-translation2" : { "type": "double", "value" : 0.0},
                            "default-width" : { "type": "double", "value" : 1932.67572815534}
                          },
                          "animationTracks" : {

                          }
                        },
                        {
                          "id" : 148,
                          "_type" : "ScreenVMFile",
                          "src" : 2,
                          "trackNumber" : 0,
                          "attributes" : {
                            "ident" : "Rec 4-22-2025-8-51-30-PM"
                          },
                          "parameters" : {
                            "geometryCrop0" : {
                              "type" : "double",
                              "defaultValue" : 0.0,
                              "interp" : "eioe"
                            },
                            "geometryCrop1" : {
                              "type" : "double",
                              "defaultValue" : 0.0,
                              "interp" : "eioe"
                            },
                            "geometryCrop2" : {
                              "type" : "double",
                              "defaultValue" : 0.0,
                              "interp" : "eioe"
                            },
                            "geometryCrop3" : {
                              "type" : "double",
                              "defaultValue" : 0.0,
                              "interp" : "eioe"
                            },
                            "cursorScale" : {
                              "type" : "double",
                              "defaultValue" : 0.0,
                              "interp" : "linr"
                            },
                            "cursorOpacity" : {
                              "type" : "double",
                              "defaultValue" : 0.0,
                              "interp" : "linr"
                            },
                            "cursorTrackLevel" : {
                              "type" : "double",
                              "defaultValue" : 0.0,
                              "interp" : "linr"
                            },
                            "smoothCursorAcrossEditDuration" : 0
                          },
                          "effects" : [

                          ],
                          "start" : 151821600000,
                          "duration" : 2399040000,
                          "mediaStart" : 203518560000,
                          "mediaDuration" : 2399040000,
                          "scalar" : 1,
                          "metadata" : {
                            "AutoAppliedSmartFocus" : "False",
                            "audiateLinkedSession" : "",
                            "clipSpeedAttribute" : { "type": "bool", "value" : false},
                            "colorAttribute" : { "type": "color", "value" : [ 0, 0, 0, 0]},
                            "default-height" : { "type": "double", "value" : 1036.8},
                            "default-translation0" : { "type": "double", "value" : 0.0},
                            "default-translation1" : { "type": "double", "value" : -194.4},
                            "default-translation2" : { "type": "double", "value" : 0.0},
                            "default-width" : { "type": "double", "value" : 1932.67572815534}
                          },
                          "animationTracks" : {

                          }
                        },
                        {
                          "id" : 149,
                          "_type" : "ScreenVMFile",
                          "src" : 2,
                          "trackNumber" : 0,
                          "attributes" : {
                            "ident" : "Rec 4-22-2025-8-51-30-PM"
                          },
                          "parameters" : {
                            "geometryCrop0" : {
                              "type" : "double",
                              "defaultValue" : 0.0,
                              "interp" : "eioe"
                            },
                            "geometryCrop1" : {
                              "type" : "double",
                              "defaultValue" : 0.0,
                              "interp" : "eioe"
                            },
                            "geometryCrop2" : {
                              "type" : "double",
                              "defaultValue" : 0.0,
                              "interp" : "eioe"
                            },
                            "geometryCrop3" : {
                              "type" : "double",
                              "defaultValue" : 0.0,
                              "interp" : "eioe"
                            },
                            "cursorScale" : {
                              "type" : "double",
                              "defaultValue" : 0.0,
                              "interp" : "linr"
                            },
                            "cursorOpacity" : {
                              "type" : "double",
                              "defaultValue" : 0.0,
                              "interp" : "linr"
                            },
                            "cursorTrackLevel" : {
                              "type" : "double",
                              "defaultValue" : 0.0,
                              "interp" : "linr"
                            },
                            "smoothCursorAcrossEditDuration" : 0
                          },
                          "effects" : [

                          ],
                          "start" : 154220640000,
                          "duration" : 3276053760000,
                          "mediaStart" : 205917600000,
                          "mediaDuration" : 3276053760000,
                          "scalar" : 1,
                          "metadata" : {
                            "AutoAppliedSmartFocus" : "False",
                            "audiateLinkedSession" : "",
                            "clipSpeedAttribute" : { "type": "bool", "value" : false},
                            "colorAttribute" : { "type": "color", "value" : [ 0, 0, 0, 0]},
                            "default-height" : { "type": "double", "value" : 1036.8},
                            "default-translation0" : { "type": "double", "value" : 0.0},
                            "default-translation1" : { "type": "double", "value" : -194.4},
                            "default-translation2" : { "type": "double", "value" : 0.0},
                            "default-width" : { "type": "double", "value" : 1932.67572815534}
                          },
                          "animationTracks" : {

                          }
                        }
                    ],
                    "effects" : [
                        {
                          "effectName" : "CursorColor",
                          "bypassed" : false,
                          "category" : "categoryCursorEffects",
                          "parameters" : {
                            "intensity" : 1.0,
                            "desaturation" : 0.0,
                            "colorLumaCutoff" : 1.0,
                            "color-alpha" : 1.0,
                            "color-red" : 1.0,
                            "color-green" : 0.8980392157,
                            "color-blue" : 0.1215686275,
                            "secondColor-red" : 0.0,
                            "secondColor-green" : 0.0,
                            "secondColor-blue" : 0.0,
                            "secondColor-alpha" : 1.0,
                            "secondColorLumaCutoff" : 0.0,
                            "channel" : 0,
                            "shadowRampStart" : 0.0,
                            "shadowRampEnd" : 0.0,
                            "highlightRampStart" : 1.0,
                            "highlightRampEnd" : 1.0
                          }
                        },
                        {
                          "effectName" : "CursorShadow",
                          "bypassed" : false,
                          "category" : "categoryCursorEffects",
                          "parameters" : {
                            "angle" : 3.92699081698724,
                            "enabled" : 1,
                            "offset" : 5.0,
                            "blur" : 2.0,
                            "opacity" : 0.25,
                            "color-red" : 0.0,
                            "color-green" : 0.0,
                            "color-blue" : 0.0,
                            "color-alpha" : 1.0
                          }
                        },
                        {
                          "effectName" : "CursorHilight",
                          "bypassed" : false,
                          "category" : "categoryCursorEffects",
                          "parameters" : {
                            "radius" : 50.0,
                            "color-red" : 1.0,
                            "color-green" : 1.0,
                            "color-blue" : 0.0,
                            "color-alpha" : 0.75,
                            "blur" : 0.1
                          }
                        }
                    ],
                    "start" : 36392268387,
                    "duration" : 2304960000,
                    "mediaStart" : 138156480000,
                    "mediaDuration" : "256311552000/53",
                    "scalar" : "1152480000/2418033509",
                    "metadata" : {
                      "AutoAppliedSmartFocus" : "False",
                      "audiateLinkedSession" : "",
                      "clipSpeedAttribute" : { "type": "bool", "value" : true},
                      "colorAttribute" : { "type": "color", "value" : [ 0, 0, 0, 0]},
                      "default-height" : { "type": "double", "value" : 1036.8},
                      "default-translation0" : { "type": "double", "value" : 0.0},
                      "default-translation1" : { "type": "double", "value" : -194.4},
                      "default-translation2" : { "type": "double", "value" : 0.0},
                      "default-width" : { "type": "double", "value" : 1932.67572815534}
                    },
                    "animationTracks" : {

                    }
                  },
                  {
                    "id" : 150,
                    "_type" : "StitchedMedia",
                    "minMediaStart" : 0,
                    "attributes" : {
                      "ident" : "Rec 4-22-2025-8-51-30-PM",
                      "gain" : 1.0,
                      "mixToMono" : false,
                      "loudnessNormalization" : true,
                      "sourceFileOffset" : 0
                    },
                    "parameters" : {
                      "translation0" : 6.33786407766917,
                      "translation1" : -2.8421709430404e-14,
                      "scale0" : 0.503300970873786,
                      "scale1" : 0.503300970873786,
                      "geometryCrop0" : 0.0,
                      "geometryCrop1" : 0.0,
                      "geometryCrop2" : 0.0,
                      "geometryCrop3" : 0.0,
                      "cursorOpacity" : 1.0,
                      "cursorTrackLevel" : 0.0,
                      "cursorScale" : 5.0,
                      "smoothCursorAcrossEditDuration" : 0
                    },
                    "medias" : [
                        {
                          "id" : 151,
                          "_type" : "ScreenVMFile",
                          "src" : 2,
                          "trackNumber" : 0,
                          "attributes" : {
                            "ident" : "Rec 4-22-2025-8-51-30-PM"
                          },
                          "parameters" : {
                            "geometryCrop0" : {
                              "type" : "double",
                              "defaultValue" : 0.0,
                              "interp" : "eioe"
                            },
                            "geometryCrop1" : {
                              "type" : "double",
                              "defaultValue" : 0.0,
                              "interp" : "eioe"
                            },
                            "geometryCrop2" : {
                              "type" : "double",
                              "defaultValue" : 0.0,
                              "interp" : "eioe"
                            },
                            "geometryCrop3" : {
                              "type" : "double",
                              "defaultValue" : 0.0,
                              "interp" : "eioe"
                            },
                            "cursorScale" : {
                              "type" : "double",
                              "defaultValue" : 0.0,
                              "interp" : "linr"
                            },
                            "cursorOpacity" : {
                              "type" : "double",
                              "defaultValue" : 0.0,
                              "interp" : "linr"
                            },
                            "cursorTrackLevel" : {
                              "type" : "double",
                              "defaultValue" : 0.0,
                              "interp" : "linr"
                            },
                            "smoothCursorAcrossEditDuration" : 0
                          },
                          "effects" : [

                          ],
                          "start" : 0,
                          "duration" : 50991360000,
                          "mediaStart" : 0,
                          "mediaDuration" : 50991360000,
                          "scalar" : 1,
                          "metadata" : {
                            "AutoAppliedSmartFocus" : "False",
                            "audiateLinkedSession" : "",
                            "clipSpeedAttribute" : { "type": "bool", "value" : false},
                            "colorAttribute" : { "type": "color", "value" : [ 0, 0, 0, 0]},
                            "default-height" : { "type": "double", "value" : 1036.8},
                            "default-translation0" : { "type": "double", "value" : 0.0},
                            "default-translation1" : { "type": "double", "value" : -194.4},
                            "default-translation2" : { "type": "double", "value" : 0.0},
                            "default-width" : { "type": "double", "value" : 1932.67572815534}
                          },
                          "animationTracks" : {

                          }
                        },
                        {
                          "id" : 152,
                          "_type" : "ScreenVMFile",
                          "src" : 2,
                          "trackNumber" : 0,
                          "attributes" : {
                            "ident" : "Rec 4-22-2025-8-51-30-PM"
                          },
                          "parameters" : {
                            "geometryCrop0" : {
                              "type" : "double",
                              "defaultValue" : 0.0,
                              "interp" : "eioe"
                            },
                            "geometryCrop1" : {
                              "type" : "double",
                              "defaultValue" : 0.0,
                              "interp" : "eioe"
                            },
                            "geometryCrop2" : {
                              "type" : "double",
                              "defaultValue" : 0.0,
                              "interp" : "eioe"
                            },
                            "geometryCrop3" : {
                              "type" : "double",
                              "defaultValue" : 0.0,
                              "interp" : "eioe"
                            },
                            "cursorScale" : {
                              "type" : "double",
                              "defaultValue" : 0.0,
                              "interp" : "linr"
                            },
                            "cursorOpacity" : {
                              "type" : "double",
                              "defaultValue" : 0.0,
                              "interp" : "linr"
                            },
                            "cursorTrackLevel" : {
                              "type" : "double",
                              "defaultValue" : 0.0,
                              "interp" : "linr"
                            },
                            "smoothCursorAcrossEditDuration" : 0
                          },
                          "effects" : [

                          ],
                          "start" : 50991360000,
                          "duration" : 46663680000,
                          "mediaStart" : 66467520000,
                          "mediaDuration" : 46663680000,
                          "scalar" : 1,
                          "metadata" : {
                            "AutoAppliedSmartFocus" : "False",
                            "audiateLinkedSession" : "",
                            "clipSpeedAttribute" : { "type": "bool", "value" : false},
                            "colorAttribute" : { "type": "color", "value" : [ 0, 0, 0, 0]},
                            "default-height" : { "type": "double", "value" : 1036.8},
                            "default-translation0" : { "type": "double", "value" : 0.0},
                            "default-translation1" : { "type": "double", "value" : -194.4},
                            "default-translation2" : { "type": "double", "value" : 0.0},
                            "default-width" : { "type": "double", "value" : 1932.67572815534}
                          },
                          "animationTracks" : {

                          }
                        },
                        {
                          "id" : 153,
                          "_type" : "ScreenVMFile",
                          "src" : 2,
                          "trackNumber" : 0,
                          "attributes" : {
                            "ident" : "Rec 4-22-2025-8-51-30-PM"
                          },
                          "parameters" : {
                            "geometryCrop0" : {
                              "type" : "double",
                              "defaultValue" : 0.0,
                              "interp" : "eioe"
                            },
                            "geometryCrop1" : {
                              "type" : "double",
                              "defaultValue" : 0.0,
                              "interp" : "eioe"
                            },
                            "geometryCrop2" : {
                              "type" : "double",
                              "defaultValue" : 0.0,
                              "interp" : "eioe"
                            },
                            "geometryCrop3" : {
                              "type" : "double",
                              "defaultValue" : 0.0,
                              "interp" : "eioe"
                            },
                            "cursorScale" : {
                              "type" : "double",
                              "defaultValue" : 0.0,
                              "interp" : "linr"
                            },
                            "cursorOpacity" : {
                              "type" : "double",
                              "defaultValue" : 0.0,
                              "interp" : "linr"
                            },
                            "cursorTrackLevel" : {
                              "type" : "double",
                              "defaultValue" : 0.0,
                              "interp" : "linr"
                            },
                            "smoothCursorAcrossEditDuration" : 0
                          },
                          "effects" : [

                          ],
                          "start" : 97655040000,
                          "duration" : 21426720000,
                          "mediaStart" : 149352000000,
                          "mediaDuration" : 21426720000,
                          "scalar" : 1,
                          "metadata" : {
                            "AutoAppliedSmartFocus" : "False",
                            "audiateLinkedSession" : "",
                            "clipSpeedAttribute" : { "type": "bool", "value" : false},
                            "colorAttribute" : { "type": "color", "value" : [ 0, 0, 0, 0]},
                            "default-height" : { "type": "double", "value" : 1036.8},
                            "default-translation0" : { "type": "double", "value" : 0.0},
                            "default-translation1" : { "type": "double", "value" : -194.4},
                            "default-translation2" : { "type": "double", "value" : 0.0},
                            "default-width" : { "type": "double", "value" : 1932.67572815534}
                          },
                          "animationTracks" : {

                          }
                        },
                        {
                          "id" : 154,
                          "_type" : "ScreenVMFile",
                          "src" : 2,
                          "trackNumber" : 0,
                          "attributes" : {
                            "ident" : "Rec 4-22-2025-8-51-30-PM"
                          },
                          "parameters" : {
                            "geometryCrop0" : {
                              "type" : "double",
                              "defaultValue" : 0.0,
                              "interp" : "eioe"
                            },
                            "geometryCrop1" : {
                              "type" : "double",
                              "defaultValue" : 0.0,
                              "interp" : "eioe"
                            },
                            "geometryCrop2" : {
                              "type" : "double",
                              "defaultValue" : 0.0,
                              "interp" : "eioe"
                            },
                            "geometryCrop3" : {
                              "type" : "double",
                              "defaultValue" : 0.0,
                              "interp" : "eioe"
                            },
                            "cursorScale" : {
                              "type" : "double",
                              "defaultValue" : 0.0,
                              "interp" : "linr"
                            },
                            "cursorOpacity" : {
                              "type" : "double",
                              "defaultValue" : 0.0,
                              "interp" : "linr"
                            },
                            "cursorTrackLevel" : {
                              "type" : "double",
                              "defaultValue" : 0.0,
                              "interp" : "linr"
                            },
                            "smoothCursorAcrossEditDuration" : 0
                          },
                          "effects" : [

                          ],
                          "start" : 119081760000,
                          "duration" : 5127360000,
                          "mediaStart" : 170778720000,
                          "mediaDuration" : 5127360000,
                          "scalar" : 1,
                          "metadata" : {
                            "AutoAppliedSmartFocus" : "False",
                            "audiateLinkedSession" : "",
                            "clipSpeedAttribute" : { "type": "bool", "value" : false},
                            "colorAttribute" : { "type": "color", "value" : [ 0, 0, 0, 0]},
                            "default-height" : { "type": "double", "value" : 1036.8},
                            "default-translation0" : { "type": "double", "value" : 0.0},
                            "default-translation1" : { "type": "double", "value" : -194.4},
                            "default-translation2" : { "type": "double", "value" : 0.0},
                            "default-width" : { "type": "double", "value" : 1932.67572815534}
                          },
                          "animationTracks" : {

                          }
                        },
                        {
                          "id" : 155,
                          "_type" : "ScreenVMFile",
                          "src" : 2,
                          "trackNumber" : 0,
                          "attributes" : {
                            "ident" : "Rec 4-22-2025-8-51-30-PM"
                          },
                          "parameters" : {
                            "geometryCrop0" : {
                              "type" : "double",
                              "defaultValue" : 0.0,
                              "interp" : "eioe"
                            },
                            "geometryCrop1" : {
                              "type" : "double",
                              "defaultValue" : 0.0,
                              "interp" : "eioe"
                            },
                            "geometryCrop2" : {
                              "type" : "double",
                              "defaultValue" : 0.0,
                              "interp" : "eioe"
                            },
                            "geometryCrop3" : {
                              "type" : "double",
                              "defaultValue" : 0.0,
                              "interp" : "eioe"
                            },
                            "cursorScale" : {
                              "type" : "double",
                              "defaultValue" : 0.0,
                              "interp" : "linr"
                            },
                            "cursorOpacity" : {
                              "type" : "double",
                              "defaultValue" : 0.0,
                              "interp" : "linr"
                            },
                            "cursorTrackLevel" : {
                              "type" : "double",
                              "defaultValue" : 0.0,
                              "interp" : "linr"
                            },
                            "smoothCursorAcrossEditDuration" : 0
                          },
                          "effects" : [

                          ],
                          "start" : 124209120000,
                          "duration" : 9878400000,
                          "mediaStart" : 175906080000,
                          "mediaDuration" : 9878400000,
                          "scalar" : 1,
                          "metadata" : {
                            "AutoAppliedSmartFocus" : "False",
                            "audiateLinkedSession" : "",
                            "clipSpeedAttribute" : { "type": "bool", "value" : false},
                            "colorAttribute" : { "type": "color", "value" : [ 0, 0, 0, 0]},
                            "default-height" : { "type": "double", "value" : 1036.8},
                            "default-translation0" : { "type": "double", "value" : 0.0},
                            "default-translation1" : { "type": "double", "value" : -194.4},
                            "default-translation2" : { "type": "double", "value" : 0.0},
                            "default-width" : { "type": "double", "value" : 1932.67572815534}
                          },
                          "animationTracks" : {

                          }
                        },
                        {
                          "id" : 156,
                          "_type" : "ScreenVMFile",
                          "src" : 2,
                          "trackNumber" : 0,
                          "attributes" : {
                            "ident" : "Rec 4-22-2025-8-51-30-PM"
                          },
                          "parameters" : {
                            "geometryCrop0" : {
                              "type" : "double",
                              "defaultValue" : 0.0,
                              "interp" : "eioe"
                            },
                            "geometryCrop1" : {
                              "type" : "double",
                              "defaultValue" : 0.0,
                              "interp" : "eioe"
                            },
                            "geometryCrop2" : {
                              "type" : "double",
                              "defaultValue" : 0.0,
                              "interp" : "eioe"
                            },
                            "geometryCrop3" : {
                              "type" : "double",
                              "defaultValue" : 0.0,
                              "interp" : "eioe"
                            },
                            "cursorScale" : {
                              "type" : "double",
                              "defaultValue" : 0.0,
                              "interp" : "linr"
                            },
                            "cursorOpacity" : {
                              "type" : "double",
                              "defaultValue" : 0.0,
                              "interp" : "linr"
                            },
                            "cursorTrackLevel" : {
                              "type" : "double",
                              "defaultValue" : 0.0,
                              "interp" : "linr"
                            },
                            "smoothCursorAcrossEditDuration" : 0
                          },
                          "effects" : [

                          ],
                          "start" : 134087520000,
                          "duration" : 17734080000,
                          "mediaStart" : 185784480000,
                          "mediaDuration" : 17734080000,
                          "scalar" : 1,
                          "metadata" : {
                            "AutoAppliedSmartFocus" : "False",
                            "audiateLinkedSession" : "",
                            "clipSpeedAttribute" : { "type": "bool", "value" : false},
                            "colorAttribute" : { "type": "color", "value" : [ 0, 0, 0, 0]},
                            "default-height" : { "type": "double", "value" : 1036.8},
                            "default-translation0" : { "type": "double", "value" : 0.0},
                            "default-translation1" : { "type": "double", "value" : -194.4},
                            "default-translation2" : { "type": "double", "value" : 0.0},
                            "default-width" : { "type": "double", "value" : 1932.67572815534}
                          },
                          "animationTracks" : {

                          }
                        },
                        {
                          "id" : 157,
                          "_type" : "ScreenVMFile",
                          "src" : 2,
                          "trackNumber" : 0,
                          "attributes" : {
                            "ident" : "Rec 4-22-2025-8-51-30-PM"
                          },
                          "parameters" : {
                            "geometryCrop0" : {
                              "type" : "double",
                              "defaultValue" : 0.0,
                              "interp" : "eioe"
                            },
                            "geometryCrop1" : {
                              "type" : "double",
                              "defaultValue" : 0.0,
                              "interp" : "eioe"
                            },
                            "geometryCrop2" : {
                              "type" : "double",
                              "defaultValue" : 0.0,
                              "interp" : "eioe"
                            },
                            "geometryCrop3" : {
                              "type" : "double",
                              "defaultValue" : 0.0,
                              "interp" : "eioe"
                            },
                            "cursorScale" : {
                              "type" : "double",
                              "defaultValue" : 0.0,
                              "interp" : "linr"
                            },
                            "cursorOpacity" : {
                              "type" : "double",
                              "defaultValue" : 0.0,
                              "interp" : "linr"
                            },
                            "cursorTrackLevel" : {
                              "type" : "double",
                              "defaultValue" : 0.0,
                              "interp" : "linr"
                            },
                            "smoothCursorAcrossEditDuration" : 0
                          },
                          "effects" : [

                          ],
                          "start" : 151821600000,
                          "duration" : 2399040000,
                          "mediaStart" : 203518560000,
                          "mediaDuration" : 2399040000,
                          "scalar" : 1,
                          "metadata" : {
                            "AutoAppliedSmartFocus" : "False",
                            "audiateLinkedSession" : "",
                            "clipSpeedAttribute" : { "type": "bool", "value" : false},
                            "colorAttribute" : { "type": "color", "value" : [ 0, 0, 0, 0]},
                            "default-height" : { "type": "double", "value" : 1036.8},
                            "default-translation0" : { "type": "double", "value" : 0.0},
                            "default-translation1" : { "type": "double", "value" : -194.4},
                            "default-translation2" : { "type": "double", "value" : 0.0},
                            "default-width" : { "type": "double", "value" : 1932.67572815534}
                          },
                          "animationTracks" : {

                          }
                        },
                        {
                          "id" : 158,
                          "_type" : "ScreenVMFile",
                          "src" : 2,
                          "trackNumber" : 0,
                          "attributes" : {
                            "ident" : "Rec 4-22-2025-8-51-30-PM"
                          },
                          "parameters" : {
                            "geometryCrop0" : {
                              "type" : "double",
                              "defaultValue" : 0.0,
                              "interp" : "eioe"
                            },
                            "geometryCrop1" : {
                              "type" : "double",
                              "defaultValue" : 0.0,
                              "interp" : "eioe"
                            },
                            "geometryCrop2" : {
                              "type" : "double",
                              "defaultValue" : 0.0,
                              "interp" : "eioe"
                            },
                            "geometryCrop3" : {
                              "type" : "double",
                              "defaultValue" : 0.0,
                              "interp" : "eioe"
                            },
                            "cursorScale" : {
                              "type" : "double",
                              "defaultValue" : 0.0,
                              "interp" : "linr"
                            },
                            "cursorOpacity" : {
                              "type" : "double",
                              "defaultValue" : 0.0,
                              "interp" : "linr"
                            },
                            "cursorTrackLevel" : {
                              "type" : "double",
                              "defaultValue" : 0.0,
                              "interp" : "linr"
                            },
                            "smoothCursorAcrossEditDuration" : 0
                          },
                          "effects" : [

                          ],
                          "start" : 154220640000,
                          "duration" : 3276053760000,
                          "mediaStart" : 205917600000,
                          "mediaDuration" : 3276053760000,
                          "scalar" : 1,
                          "metadata" : {
                            "AutoAppliedSmartFocus" : "False",
                            "audiateLinkedSession" : "",
                            "clipSpeedAttribute" : { "type": "bool", "value" : false},
                            "colorAttribute" : { "type": "color", "value" : [ 0, 0, 0, 0]},
                            "default-height" : { "type": "double", "value" : 1036.8},
                            "default-translation0" : { "type": "double", "value" : 0.0},
                            "default-translation1" : { "type": "double", "value" : -194.4},
                            "default-translation2" : { "type": "double", "value" : 0.0},
                            "default-width" : { "type": "double", "value" : 1932.67572815534}
                          },
                          "animationTracks" : {

                          }
                        }
                    ],
                    "effects" : [
                        {
                          "effectName" : "CursorColor",
                          "bypassed" : false,
                          "category" : "categoryCursorEffects",
                          "parameters" : {
                            "intensity" : 1.0,
                            "desaturation" : 0.0,
                            "colorLumaCutoff" : 1.0,
                            "color-alpha" : 1.0,
                            "color-red" : 1.0,
                            "color-green" : 0.8980392157,
                            "color-blue" : 0.1215686275,
                            "secondColor-red" : 0.0,
                            "secondColor-green" : 0.0,
                            "secondColor-blue" : 0.0,
                            "secondColor-alpha" : 1.0,
                            "secondColorLumaCutoff" : 0.0,
                            "channel" : 0,
                            "shadowRampStart" : 0.0,
                            "shadowRampEnd" : 0.0,
                            "highlightRampStart" : 1.0,
                            "highlightRampEnd" : 1.0
                          }
                        },
                        {
                          "effectName" : "CursorShadow",
                          "bypassed" : false,
                          "category" : "categoryCursorEffects",
                          "parameters" : {
                            "angle" : 3.92699081698724,
                            "enabled" : 1,
                            "offset" : 5.0,
                            "blur" : 2.0,
                            "opacity" : 0.25,
                            "color-red" : 0.0,
                            "color-green" : 0.0,
                            "color-blue" : 0.0,
                            "color-alpha" : 1.0
                          }
                        },
                        {
                          "effectName" : "CursorHilight",
                          "bypassed" : false,
                          "category" : "categoryCursorEffects",
                          "parameters" : {
                            "radius" : 50.0,
                            "color-red" : 1.0,
                            "color-green" : 1.0,
                            "color-blue" : 0.0,
                            "color-alpha" : 0.75,
                            "blur" : 0.1
                          }
                        }
                    ],
                    "start" : 38697228387,
                    "duration" : 1952160000,
                    "mediaStart" : "7798300608000/53",
                    "mediaDuration" : "217080192000/53",
                    "scalar" : "1952160000/4095852679",
                    "metadata" : {
                      "AutoAppliedSmartFocus" : "False",
                      "audiateLinkedSession" : "",
                      "clipSpeedAttribute" : { "type": "bool", "value" : true},
                      "colorAttribute" : { "type": "color", "value" : [ 0, 0, 0, 0]},
                      "default-height" : { "type": "double", "value" : 1036.8},
                      "default-translation0" : { "type": "double", "value" : 0.0},
                      "default-translation1" : { "type": "double", "value" : -194.4},
                      "default-translation2" : { "type": "double", "value" : 0.0},
                      "default-width" : { "type": "double", "value" : 1932.67572815534}
                    },
                    "animationTracks" : {

                    }
                  },
                  {
                    "id" : 159,
                    "_type" : "StitchedMedia",
                    "minMediaStart" : 0,
                    "attributes" : {
                      "ident" : "Rec 4-22-2025-8-51-30-PM",
                      "gain" : 1.0,
                      "mixToMono" : false,
                      "loudnessNormalization" : true,
                      "sourceFileOffset" : 0
                    },
                    "parameters" : {
                      "translation0" : 6.33786407766917,
                      "translation1" : -2.8421709430404e-14,
                      "scale0" : 0.503300970873786,
                      "scale1" : 0.503300970873786,
                      "geometryCrop0" : 0.0,
                      "geometryCrop1" : 0.0,
                      "geometryCrop2" : 0.0,
                      "geometryCrop3" : 0.0,
                      "cursorOpacity" : 1.0,
                      "cursorTrackLevel" : 0.0,
                      "cursorScale" : 5.0,
                      "smoothCursorAcrossEditDuration" : 0
                    },
                    "medias" : [
                        {
                          "id" : 160,
                          "_type" : "ScreenVMFile",
                          "src" : 2,
                          "trackNumber" : 0,
                          "attributes" : {
                            "ident" : "Rec 4-22-2025-8-51-30-PM"
                          },
                          "parameters" : {
                            "geometryCrop0" : {
                              "type" : "double",
                              "defaultValue" : 0.0,
                              "interp" : "eioe"
                            },
                            "geometryCrop1" : {
                              "type" : "double",
                              "defaultValue" : 0.0,
                              "interp" : "eioe"
                            },
                            "geometryCrop2" : {
                              "type" : "double",
                              "defaultValue" : 0.0,
                              "interp" : "eioe"
                            },
                            "geometryCrop3" : {
                              "type" : "double",
                              "defaultValue" : 0.0,
                              "interp" : "eioe"
                            },
                            "cursorScale" : {
                              "type" : "double",
                              "defaultValue" : 0.0,
                              "interp" : "linr"
                            },
                            "cursorOpacity" : {
                              "type" : "double",
                              "defaultValue" : 0.0,
                              "interp" : "linr"
                            },
                            "cursorTrackLevel" : {
                              "type" : "double",
                              "defaultValue" : 0.0,
                              "interp" : "linr"
                            },
                            "smoothCursorAcrossEditDuration" : 0
                          },
                          "effects" : [

                          ],
                          "start" : 0,
                          "duration" : 50991360000,
                          "mediaStart" : 0,
                          "mediaDuration" : 50991360000,
                          "scalar" : 1,
                          "metadata" : {
                            "AutoAppliedSmartFocus" : "False",
                            "audiateLinkedSession" : "",
                            "clipSpeedAttribute" : { "type": "bool", "value" : false},
                            "colorAttribute" : { "type": "color", "value" : [ 0, 0, 0, 0]},
                            "default-height" : { "type": "double", "value" : 1036.8},
                            "default-translation0" : { "type": "double", "value" : 0.0},
                            "default-translation1" : { "type": "double", "value" : -194.4},
                            "default-translation2" : { "type": "double", "value" : 0.0},
                            "default-width" : { "type": "double", "value" : 1932.67572815534}
                          },
                          "animationTracks" : {

                          }
                        },
                        {
                          "id" : 161,
                          "_type" : "ScreenVMFile",
                          "src" : 2,
                          "trackNumber" : 0,
                          "attributes" : {
                            "ident" : "Rec 4-22-2025-8-51-30-PM"
                          },
                          "parameters" : {
                            "geometryCrop0" : {
                              "type" : "double",
                              "defaultValue" : 0.0,
                              "interp" : "eioe"
                            },
                            "geometryCrop1" : {
                              "type" : "double",
                              "defaultValue" : 0.0,
                              "interp" : "eioe"
                            },
                            "geometryCrop2" : {
                              "type" : "double",
                              "defaultValue" : 0.0,
                              "interp" : "eioe"
                            },
                            "geometryCrop3" : {
                              "type" : "double",
                              "defaultValue" : 0.0,
                              "interp" : "eioe"
                            },
                            "cursorScale" : {
                              "type" : "double",
                              "defaultValue" : 0.0,
                              "interp" : "linr"
                            },
                            "cursorOpacity" : {
                              "type" : "double",
                              "defaultValue" : 0.0,
                              "interp" : "linr"
                            },
                            "cursorTrackLevel" : {
                              "type" : "double",
                              "defaultValue" : 0.0,
                              "interp" : "linr"
                            },
                            "smoothCursorAcrossEditDuration" : 0
                          },
                          "effects" : [

                          ],
                          "start" : 50991360000,
                          "duration" : 46663680000,
                          "mediaStart" : 66467520000,
                          "mediaDuration" : 46663680000,
                          "scalar" : 1,
                          "metadata" : {
                            "AutoAppliedSmartFocus" : "False",
                            "audiateLinkedSession" : "",
                            "clipSpeedAttribute" : { "type": "bool", "value" : false},
                            "colorAttribute" : { "type": "color", "value" : [ 0, 0, 0, 0]},
                            "default-height" : { "type": "double", "value" : 1036.8},
                            "default-translation0" : { "type": "double", "value" : 0.0},
                            "default-translation1" : { "type": "double", "value" : -194.4},
                            "default-translation2" : { "type": "double", "value" : 0.0},
                            "default-width" : { "type": "double", "value" : 1932.67572815534}
                          },
                          "animationTracks" : {

                          }
                        },
                        {
                          "id" : 162,
                          "_type" : "ScreenVMFile",
                          "src" : 2,
                          "trackNumber" : 0,
                          "attributes" : {
                            "ident" : "Rec 4-22-2025-8-51-30-PM"
                          },
                          "parameters" : {
                            "geometryCrop0" : {
                              "type" : "double",
                              "defaultValue" : 0.0,
                              "interp" : "eioe"
                            },
                            "geometryCrop1" : {
                              "type" : "double",
                              "defaultValue" : 0.0,
                              "interp" : "eioe"
                            },
                            "geometryCrop2" : {
                              "type" : "double",
                              "defaultValue" : 0.0,
                              "interp" : "eioe"
                            },
                            "geometryCrop3" : {
                              "type" : "double",
                              "defaultValue" : 0.0,
                              "interp" : "eioe"
                            },
                            "cursorScale" : {
                              "type" : "double",
                              "defaultValue" : 0.0,
                              "interp" : "linr"
                            },
                            "cursorOpacity" : {
                              "type" : "double",
                              "defaultValue" : 0.0,
                              "interp" : "linr"
                            },
                            "cursorTrackLevel" : {
                              "type" : "double",
                              "defaultValue" : 0.0,
                              "interp" : "linr"
                            },
                            "smoothCursorAcrossEditDuration" : 0
                          },
                          "effects" : [

                          ],
                          "start" : 97655040000,
                          "duration" : 21426720000,
                          "mediaStart" : 149352000000,
                          "mediaDuration" : 21426720000,
                          "scalar" : 1,
                          "metadata" : {
                            "AutoAppliedSmartFocus" : "False",
                            "audiateLinkedSession" : "",
                            "clipSpeedAttribute" : { "type": "bool", "value" : false},
                            "colorAttribute" : { "type": "color", "value" : [ 0, 0, 0, 0]},
                            "default-height" : { "type": "double", "value" : 1036.8},
                            "default-translation0" : { "type": "double", "value" : 0.0},
                            "default-translation1" : { "type": "double", "value" : -194.4},
                            "default-translation2" : { "type": "double", "value" : 0.0},
                            "default-width" : { "type": "double", "value" : 1932.67572815534}
                          },
                          "animationTracks" : {

                          }
                        },
                        {
                          "id" : 163,
                          "_type" : "ScreenVMFile",
                          "src" : 2,
                          "trackNumber" : 0,
                          "attributes" : {
                            "ident" : "Rec 4-22-2025-8-51-30-PM"
                          },
                          "parameters" : {
                            "geometryCrop0" : {
                              "type" : "double",
                              "defaultValue" : 0.0,
                              "interp" : "eioe"
                            },
                            "geometryCrop1" : {
                              "type" : "double",
                              "defaultValue" : 0.0,
                              "interp" : "eioe"
                            },
                            "geometryCrop2" : {
                              "type" : "double",
                              "defaultValue" : 0.0,
                              "interp" : "eioe"
                            },
                            "geometryCrop3" : {
                              "type" : "double",
                              "defaultValue" : 0.0,
                              "interp" : "eioe"
                            },
                            "cursorScale" : {
                              "type" : "double",
                              "defaultValue" : 0.0,
                              "interp" : "linr"
                            },
                            "cursorOpacity" : {
                              "type" : "double",
                              "defaultValue" : 0.0,
                              "interp" : "linr"
                            },
                            "cursorTrackLevel" : {
                              "type" : "double",
                              "defaultValue" : 0.0,
                              "interp" : "linr"
                            },
                            "smoothCursorAcrossEditDuration" : 0
                          },
                          "effects" : [

                          ],
                          "start" : 119081760000,
                          "duration" : 5127360000,
                          "mediaStart" : 170778720000,
                          "mediaDuration" : 5127360000,
                          "scalar" : 1,
                          "metadata" : {
                            "AutoAppliedSmartFocus" : "False",
                            "audiateLinkedSession" : "",
                            "clipSpeedAttribute" : { "type": "bool", "value" : false},
                            "colorAttribute" : { "type": "color", "value" : [ 0, 0, 0, 0]},
                            "default-height" : { "type": "double", "value" : 1036.8},
                            "default-translation0" : { "type": "double", "value" : 0.0},
                            "default-translation1" : { "type": "double", "value" : -194.4},
                            "default-translation2" : { "type": "double", "value" : 0.0},
                            "default-width" : { "type": "double", "value" : 1932.67572815534}
                          },
                          "animationTracks" : {

                          }
                        },
                        {
                          "id" : 164,
                          "_type" : "ScreenVMFile",
                          "src" : 2,
                          "trackNumber" : 0,
                          "attributes" : {
                            "ident" : "Rec 4-22-2025-8-51-30-PM"
                          },
                          "parameters" : {
                            "geometryCrop0" : {
                              "type" : "double",
                              "defaultValue" : 0.0,
                              "interp" : "eioe"
                            },
                            "geometryCrop1" : {
                              "type" : "double",
                              "defaultValue" : 0.0,
                              "interp" : "eioe"
                            },
                            "geometryCrop2" : {
                              "type" : "double",
                              "defaultValue" : 0.0,
                              "interp" : "eioe"
                            },
                            "geometryCrop3" : {
                              "type" : "double",
                              "defaultValue" : 0.0,
                              "interp" : "eioe"
                            },
                            "cursorScale" : {
                              "type" : "double",
                              "defaultValue" : 0.0,
                              "interp" : "linr"
                            },
                            "cursorOpacity" : {
                              "type" : "double",
                              "defaultValue" : 0.0,
                              "interp" : "linr"
                            },
                            "cursorTrackLevel" : {
                              "type" : "double",
                              "defaultValue" : 0.0,
                              "interp" : "linr"
                            },
                            "smoothCursorAcrossEditDuration" : 0
                          },
                          "effects" : [

                          ],
                          "start" : 124209120000,
                          "duration" : 9878400000,
                          "mediaStart" : 175906080000,
                          "mediaDuration" : 9878400000,
                          "scalar" : 1,
                          "metadata" : {
                            "AutoAppliedSmartFocus" : "False",
                            "audiateLinkedSession" : "",
                            "clipSpeedAttribute" : { "type": "bool", "value" : false},
                            "colorAttribute" : { "type": "color", "value" : [ 0, 0, 0, 0]},
                            "default-height" : { "type": "double", "value" : 1036.8},
                            "default-translation0" : { "type": "double", "value" : 0.0},
                            "default-translation1" : { "type": "double", "value" : -194.4},
                            "default-translation2" : { "type": "double", "value" : 0.0},
                            "default-width" : { "type": "double", "value" : 1932.67572815534}
                          },
                          "animationTracks" : {

                          }
                        },
                        {
                          "id" : 165,
                          "_type" : "ScreenVMFile",
                          "src" : 2,
                          "trackNumber" : 0,
                          "attributes" : {
                            "ident" : "Rec 4-22-2025-8-51-30-PM"
                          },
                          "parameters" : {
                            "geometryCrop0" : {
                              "type" : "double",
                              "defaultValue" : 0.0,
                              "interp" : "eioe"
                            },
                            "geometryCrop1" : {
                              "type" : "double",
                              "defaultValue" : 0.0,
                              "interp" : "eioe"
                            },
                            "geometryCrop2" : {
                              "type" : "double",
                              "defaultValue" : 0.0,
                              "interp" : "eioe"
                            },
                            "geometryCrop3" : {
                              "type" : "double",
                              "defaultValue" : 0.0,
                              "interp" : "eioe"
                            },
                            "cursorScale" : {
                              "type" : "double",
                              "defaultValue" : 0.0,
                              "interp" : "linr"
                            },
                            "cursorOpacity" : {
                              "type" : "double",
                              "defaultValue" : 0.0,
                              "interp" : "linr"
                            },
                            "cursorTrackLevel" : {
                              "type" : "double",
                              "defaultValue" : 0.0,
                              "interp" : "linr"
                            },
                            "smoothCursorAcrossEditDuration" : 0
                          },
                          "effects" : [

                          ],
                          "start" : 134087520000,
                          "duration" : 17734080000,
                          "mediaStart" : 185784480000,
                          "mediaDuration" : 17734080000,
                          "scalar" : 1,
                          "metadata" : {
                            "AutoAppliedSmartFocus" : "False",
                            "audiateLinkedSession" : "",
                            "clipSpeedAttribute" : { "type": "bool", "value" : false},
                            "colorAttribute" : { "type": "color", "value" : [ 0, 0, 0, 0]},
                            "default-height" : { "type": "double", "value" : 1036.8},
                            "default-translation0" : { "type": "double", "value" : 0.0},
                            "default-translation1" : { "type": "double", "value" : -194.4},
                            "default-translation2" : { "type": "double", "value" : 0.0},
                            "default-width" : { "type": "double", "value" : 1932.67572815534}
                          },
                          "animationTracks" : {

                          }
                        },
                        {
                          "id" : 166,
                          "_type" : "ScreenVMFile",
                          "src" : 2,
                          "trackNumber" : 0,
                          "attributes" : {
                            "ident" : "Rec 4-22-2025-8-51-30-PM"
                          },
                          "parameters" : {
                            "geometryCrop0" : {
                              "type" : "double",
                              "defaultValue" : 0.0,
                              "interp" : "eioe"
                            },
                            "geometryCrop1" : {
                              "type" : "double",
                              "defaultValue" : 0.0,
                              "interp" : "eioe"
                            },
                            "geometryCrop2" : {
                              "type" : "double",
                              "defaultValue" : 0.0,
                              "interp" : "eioe"
                            },
                            "geometryCrop3" : {
                              "type" : "double",
                              "defaultValue" : 0.0,
                              "interp" : "eioe"
                            },
                            "cursorScale" : {
                              "type" : "double",
                              "defaultValue" : 0.0,
                              "interp" : "linr"
                            },
                            "cursorOpacity" : {
                              "type" : "double",
                              "defaultValue" : 0.0,
                              "interp" : "linr"
                            },
                            "cursorTrackLevel" : {
                              "type" : "double",
                              "defaultValue" : 0.0,
                              "interp" : "linr"
                            },
                            "smoothCursorAcrossEditDuration" : 0
                          },
                          "effects" : [

                          ],
                          "start" : 151821600000,
                          "duration" : 2399040000,
                          "mediaStart" : 203518560000,
                          "mediaDuration" : 2399040000,
                          "scalar" : 1,
                          "metadata" : {
                            "AutoAppliedSmartFocus" : "False",
                            "audiateLinkedSession" : "",
                            "clipSpeedAttribute" : { "type": "bool", "value" : false},
                            "colorAttribute" : { "type": "color", "value" : [ 0, 0, 0, 0]},
                            "default-height" : { "type": "double", "value" : 1036.8},
                            "default-translation0" : { "type": "double", "value" : 0.0},
                            "default-translation1" : { "type": "double", "value" : -194.4},
                            "default-translation2" : { "type": "double", "value" : 0.0},
                            "default-width" : { "type": "double", "value" : 1932.67572815534}
                          },
                          "animationTracks" : {

                          }
                        },
                        {
                          "id" : 167,
                          "_type" : "ScreenVMFile",
                          "src" : 2,
                          "trackNumber" : 0,
                          "attributes" : {
                            "ident" : "Rec 4-22-2025-8-51-30-PM"
                          },
                          "parameters" : {
                            "geometryCrop0" : {
                              "type" : "double",
                              "defaultValue" : 0.0,
                              "interp" : "eioe"
                            },
                            "geometryCrop1" : {
                              "type" : "double",
                              "defaultValue" : 0.0,
                              "interp" : "eioe"
                            },
                            "geometryCrop2" : {
                              "type" : "double",
                              "defaultValue" : 0.0,
                              "interp" : "eioe"
                            },
                            "geometryCrop3" : {
                              "type" : "double",
                              "defaultValue" : 0.0,
                              "interp" : "eioe"
                            },
                            "cursorScale" : {
                              "type" : "double",
                              "defaultValue" : 0.0,
                              "interp" : "linr"
                            },
                            "cursorOpacity" : {
                              "type" : "double",
                              "defaultValue" : 0.0,
                              "interp" : "linr"
                            },
                            "cursorTrackLevel" : {
                              "type" : "double",
                              "defaultValue" : 0.0,
                              "interp" : "linr"
                            },
                            "smoothCursorAcrossEditDuration" : 0
                          },
                          "effects" : [

                          ],
                          "start" : 154220640000,
                          "duration" : 3276053760000,
                          "mediaStart" : 205917600000,
                          "mediaDuration" : 3276053760000,
                          "scalar" : 1,
                          "metadata" : {
                            "AutoAppliedSmartFocus" : "False",
                            "audiateLinkedSession" : "",
                            "clipSpeedAttribute" : { "type": "bool", "value" : false},
                            "colorAttribute" : { "type": "color", "value" : [ 0, 0, 0, 0]},
                            "default-height" : { "type": "double", "value" : 1036.8},
                            "default-translation0" : { "type": "double", "value" : 0.0},
                            "default-translation1" : { "type": "double", "value" : -194.4},
                            "default-translation2" : { "type": "double", "value" : 0.0},
                            "default-width" : { "type": "double", "value" : 1932.67572815534}
                          },
                          "animationTracks" : {

                          }
                        }
                    ],
                    "effects" : [
                        {
                          "effectName" : "CursorColor",
                          "bypassed" : false,
                          "category" : "categoryCursorEffects",
                          "parameters" : {
                            "intensity" : 1.0,
                            "desaturation" : 0.0,
                            "colorLumaCutoff" : 1.0,
                            "color-alpha" : 1.0,
                            "color-red" : 1.0,
                            "color-green" : 0.8980392157,
                            "color-blue" : 0.1215686275,
                            "secondColor-red" : 0.0,
                            "secondColor-green" : 0.0,
                            "secondColor-blue" : 0.0,
                            "secondColor-alpha" : 1.0,
                            "secondColorLumaCutoff" : 0.0,
                            "channel" : 0,
                            "shadowRampStart" : 0.0,
                            "shadowRampEnd" : 0.0,
                            "highlightRampStart" : 1.0,
                            "highlightRampEnd" : 1.0
                          }
                        },
                        {
                          "effectName" : "CursorShadow",
                          "bypassed" : false,
                          "category" : "categoryCursorEffects",
                          "parameters" : {
                            "angle" : 3.92699081698724,
                            "enabled" : 1,
                            "offset" : 5.0,
                            "blur" : 2.0,
                            "opacity" : 0.25,
                            "color-red" : 0.0,
                            "color-green" : 0.0,
                            "color-blue" : 0.0,
                            "color-alpha" : 1.0
                          }
                        },
                        {
                          "effectName" : "CursorHilight",
                          "bypassed" : false,
                          "category" : "categoryCursorEffects",
                          "parameters" : {
                            "radius" : 50.0,
                            "color-red" : 1.0,
                            "color-green" : 1.0,
                            "color-blue" : 0.0,
                            "color-alpha" : 0.75,
                            "blur" : 0.1
                          }
                        }
                    ],
                    "start" : 40649388387,
                    "duration" : 3410400000,
                    "mediaStart" : 153468000000,
                    "mediaDuration" : 3410400000,
                    "scalar" : 1,
                    "metadata" : {
                      "AutoAppliedSmartFocus" : "False",
                      "audiateLinkedSession" : "",
                      "clipSpeedAttribute" : { "type": "bool", "value" : false},
                      "colorAttribute" : { "type": "color", "value" : [ 0, 0, 0, 0]},
                      "default-height" : { "type": "double", "value" : 1036.8},
                      "default-translation0" : { "type": "double", "value" : 0.0},
                      "default-translation1" : { "type": "double", "value" : -194.4},
                      "default-translation2" : { "type": "double", "value" : 0.0},
                      "default-width" : { "type": "double", "value" : 1932.67572815534}
                    },
                    "animationTracks" : {

                    }
                  },
                  {
                    "id" : 168,
                    "_type" : "StitchedMedia",
                    "minMediaStart" : 0,
                    "attributes" : {
                      "ident" : "Rec 4-22-2025-8-51-30-PM",
                      "gain" : 1.0,
                      "mixToMono" : false,
                      "loudnessNormalization" : true,
                      "sourceFileOffset" : 0
                    },
                    "parameters" : {
                      "translation0" : 6.33786407766917,
                      "translation1" : -2.8421709430404e-14,
                      "scale0" : 0.503300970873786,
                      "scale1" : 0.503300970873786,
                      "geometryCrop0" : 0.0,
                      "geometryCrop1" : 0.0,
                      "geometryCrop2" : 0.0,
                      "geometryCrop3" : 0.0,
                      "cursorOpacity" : 1.0,
                      "cursorTrackLevel" : 0.0,
                      "cursorScale" : 5.0,
                      "smoothCursorAcrossEditDuration" : 0
                    },
                    "medias" : [
                        {
                          "id" : 169,
                          "_type" : "ScreenVMFile",
                          "src" : 2,
                          "trackNumber" : 0,
                          "attributes" : {
                            "ident" : "Rec 4-22-2025-8-51-30-PM"
                          },
                          "parameters" : {
                            "geometryCrop0" : {
                              "type" : "double",
                              "defaultValue" : 0.0,
                              "interp" : "eioe"
                            },
                            "geometryCrop1" : {
                              "type" : "double",
                              "defaultValue" : 0.0,
                              "interp" : "eioe"
                            },
                            "geometryCrop2" : {
                              "type" : "double",
                              "defaultValue" : 0.0,
                              "interp" : "eioe"
                            },
                            "geometryCrop3" : {
                              "type" : "double",
                              "defaultValue" : 0.0,
                              "interp" : "eioe"
                            },
                            "cursorScale" : {
                              "type" : "double",
                              "defaultValue" : 0.0,
                              "interp" : "linr"
                            },
                            "cursorOpacity" : {
                              "type" : "double",
                              "defaultValue" : 0.0,
                              "interp" : "linr"
                            },
                            "cursorTrackLevel" : {
                              "type" : "double",
                              "defaultValue" : 0.0,
                              "interp" : "linr"
                            },
                            "smoothCursorAcrossEditDuration" : 0
                          },
                          "effects" : [

                          ],
                          "start" : 0,
                          "duration" : 50991360000,
                          "mediaStart" : 0,
                          "mediaDuration" : 50991360000,
                          "scalar" : 1,
                          "metadata" : {
                            "AutoAppliedSmartFocus" : "False",
                            "audiateLinkedSession" : "",
                            "clipSpeedAttribute" : { "type": "bool", "value" : false},
                            "colorAttribute" : { "type": "color", "value" : [ 0, 0, 0, 0]},
                            "default-height" : { "type": "double", "value" : 1036.8},
                            "default-translation0" : { "type": "double", "value" : 0.0},
                            "default-translation1" : { "type": "double", "value" : -194.4},
                            "default-translation2" : { "type": "double", "value" : 0.0},
                            "default-width" : { "type": "double", "value" : 1932.67572815534}
                          },
                          "animationTracks" : {

                          }
                        },
                        {
                          "id" : 170,
                          "_type" : "ScreenVMFile",
                          "src" : 2,
                          "trackNumber" : 0,
                          "attributes" : {
                            "ident" : "Rec 4-22-2025-8-51-30-PM"
                          },
                          "parameters" : {
                            "geometryCrop0" : {
                              "type" : "double",
                              "defaultValue" : 0.0,
                              "interp" : "eioe"
                            },
                            "geometryCrop1" : {
                              "type" : "double",
                              "defaultValue" : 0.0,
                              "interp" : "eioe"
                            },
                            "geometryCrop2" : {
                              "type" : "double",
                              "defaultValue" : 0.0,
                              "interp" : "eioe"
                            },
                            "geometryCrop3" : {
                              "type" : "double",
                              "defaultValue" : 0.0,
                              "interp" : "eioe"
                            },
                            "cursorScale" : {
                              "type" : "double",
                              "defaultValue" : 0.0,
                              "interp" : "linr"
                            },
                            "cursorOpacity" : {
                              "type" : "double",
                              "defaultValue" : 0.0,
                              "interp" : "linr"
                            },
                            "cursorTrackLevel" : {
                              "type" : "double",
                              "defaultValue" : 0.0,
                              "interp" : "linr"
                            },
                            "smoothCursorAcrossEditDuration" : 0
                          },
                          "effects" : [

                          ],
                          "start" : 50991360000,
                          "duration" : 46663680000,
                          "mediaStart" : 66467520000,
                          "mediaDuration" : 46663680000,
                          "scalar" : 1,
                          "metadata" : {
                            "AutoAppliedSmartFocus" : "False",
                            "audiateLinkedSession" : "",
                            "clipSpeedAttribute" : { "type": "bool", "value" : false},
                            "colorAttribute" : { "type": "color", "value" : [ 0, 0, 0, 0]},
                            "default-height" : { "type": "double", "value" : 1036.8},
                            "default-translation0" : { "type": "double", "value" : 0.0},
                            "default-translation1" : { "type": "double", "value" : -194.4},
                            "default-translation2" : { "type": "double", "value" : 0.0},
                            "default-width" : { "type": "double", "value" : 1932.67572815534}
                          },
                          "animationTracks" : {

                          }
                        },
                        {
                          "id" : 171,
                          "_type" : "ScreenVMFile",
                          "src" : 2,
                          "trackNumber" : 0,
                          "attributes" : {
                            "ident" : "Rec 4-22-2025-8-51-30-PM"
                          },
                          "parameters" : {
                            "geometryCrop0" : {
                              "type" : "double",
                              "defaultValue" : 0.0,
                              "interp" : "eioe"
                            },
                            "geometryCrop1" : {
                              "type" : "double",
                              "defaultValue" : 0.0,
                              "interp" : "eioe"
                            },
                            "geometryCrop2" : {
                              "type" : "double",
                              "defaultValue" : 0.0,
                              "interp" : "eioe"
                            },
                            "geometryCrop3" : {
                              "type" : "double",
                              "defaultValue" : 0.0,
                              "interp" : "eioe"
                            },
                            "cursorScale" : {
                              "type" : "double",
                              "defaultValue" : 0.0,
                              "interp" : "linr"
                            },
                            "cursorOpacity" : {
                              "type" : "double",
                              "defaultValue" : 0.0,
                              "interp" : "linr"
                            },
                            "cursorTrackLevel" : {
                              "type" : "double",
                              "defaultValue" : 0.0,
                              "interp" : "linr"
                            },
                            "smoothCursorAcrossEditDuration" : 0
                          },
                          "effects" : [

                          ],
                          "start" : 97655040000,
                          "duration" : 64703520000,
                          "mediaStart" : 149352000000,
                          "mediaDuration" : 64703520000,
                          "scalar" : 1,
                          "metadata" : {
                            "AutoAppliedSmartFocus" : "False",
                            "audiateLinkedSession" : "",
                            "clipSpeedAttribute" : { "type": "bool", "value" : false},
                            "colorAttribute" : { "type": "color", "value" : [ 0, 0, 0, 0]},
                            "default-height" : { "type": "double", "value" : 1036.8},
                            "default-translation0" : { "type": "double", "value" : 0.0},
                            "default-translation1" : { "type": "double", "value" : -194.4},
                            "default-translation2" : { "type": "double", "value" : 0.0},
                            "default-width" : { "type": "double", "value" : 1932.67572815534}
                          },
                          "animationTracks" : {

                          }
                        },
                        {
                          "id" : 172,
                          "_type" : "ScreenVMFile",
                          "src" : 2,
                          "trackNumber" : 0,
                          "attributes" : {
                            "ident" : "Rec 4-22-2025-8-51-30-PM"
                          },
                          "parameters" : {
                            "geometryCrop0" : {
                              "type" : "double",
                              "defaultValue" : 0.0,
                              "interp" : "eioe"
                            },
                            "geometryCrop1" : {
                              "type" : "double",
                              "defaultValue" : 0.0,
                              "interp" : "eioe"
                            },
                            "geometryCrop2" : {
                              "type" : "double",
                              "defaultValue" : 0.0,
                              "interp" : "eioe"
                            },
                            "geometryCrop3" : {
                              "type" : "double",
                              "defaultValue" : 0.0,
                              "interp" : "eioe"
                            },
                            "cursorScale" : {
                              "type" : "double",
                              "defaultValue" : 0.0,
                              "interp" : "linr"
                            },
                            "cursorOpacity" : {
                              "type" : "double",
                              "defaultValue" : 0.0,
                              "interp" : "linr"
                            },
                            "cursorTrackLevel" : {
                              "type" : "double",
                              "defaultValue" : 0.0,
                              "interp" : "linr"
                            },
                            "smoothCursorAcrossEditDuration" : 0
                          },
                          "effects" : [

                          ],
                          "start" : 162358560000,
                          "duration" : 212315040000,
                          "mediaStart" : 289319520000,
                          "mediaDuration" : 212315040000,
                          "scalar" : 1,
                          "metadata" : {
                            "AutoAppliedSmartFocus" : "False",
                            "audiateLinkedSession" : "",
                            "clipSpeedAttribute" : { "type": "bool", "value" : false},
                            "colorAttribute" : { "type": "color", "value" : [ 0, 0, 0, 0]},
                            "default-height" : { "type": "double", "value" : 1036.8},
                            "default-translation0" : { "type": "double", "value" : 0.0},
                            "default-translation1" : { "type": "double", "value" : -194.4},
                            "default-translation2" : { "type": "double", "value" : 0.0},
                            "default-width" : { "type": "double", "value" : 1932.67572815534}
                          },
                          "animationTracks" : {

                          }
                        },
                        {
                          "id" : 173,
                          "_type" : "ScreenVMFile",
                          "src" : 2,
                          "trackNumber" : 0,
                          "attributes" : {
                            "ident" : "Rec 4-22-2025-8-51-30-PM"
                          },
                          "parameters" : {
                            "geometryCrop0" : {
                              "type" : "double",
                              "defaultValue" : 0.0,
                              "interp" : "eioe"
                            },
                            "geometryCrop1" : {
                              "type" : "double",
                              "defaultValue" : 0.0,
                              "interp" : "eioe"
                            },
                            "geometryCrop2" : {
                              "type" : "double",
                              "defaultValue" : 0.0,
                              "interp" : "eioe"
                            },
                            "geometryCrop3" : {
                              "type" : "double",
                              "defaultValue" : 0.0,
                              "interp" : "eioe"
                            },
                            "cursorScale" : {
                              "type" : "double",
                              "defaultValue" : 0.0,
                              "interp" : "linr"
                            },
                            "cursorOpacity" : {
                              "type" : "double",
                              "defaultValue" : 0.0,
                              "interp" : "linr"
                            },
                            "cursorTrackLevel" : {
                              "type" : "double",
                              "defaultValue" : 0.0,
                              "interp" : "linr"
                            },
                            "smoothCursorAcrossEditDuration" : 0
                          },
                          "effects" : [

                          ],
                          "start" : 374673600000,
                          "duration" : 8961120000,
                          "mediaStart" : 509843040000,
                          "mediaDuration" : 8961120000,
                          "scalar" : 1,
                          "metadata" : {
                            "AutoAppliedSmartFocus" : "False",
                            "audiateLinkedSession" : "",
                            "clipSpeedAttribute" : { "type": "bool", "value" : false},
                            "colorAttribute" : { "type": "color", "value" : [ 0, 0, 0, 0]},
                            "default-height" : { "type": "double", "value" : 1036.8},
                            "default-translation0" : { "type": "double", "value" : 0.0},
                            "default-translation1" : { "type": "double", "value" : -194.4},
                            "default-translation2" : { "type": "double", "value" : 0.0},
                            "default-width" : { "type": "double", "value" : 1932.67572815534}
                          },
                          "animationTracks" : {

                          }
                        },
                        {
                          "id" : 174,
                          "_type" : "ScreenVMFile",
                          "src" : 2,
                          "trackNumber" : 0,
                          "attributes" : {
                            "ident" : "Rec 4-22-2025-8-51-30-PM"
                          },
                          "parameters" : {
                            "geometryCrop0" : {
                              "type" : "double",
                              "defaultValue" : 0.0,
                              "interp" : "eioe"
                            },
                            "geometryCrop1" : {
                              "type" : "double",
                              "defaultValue" : 0.0,
                              "interp" : "eioe"
                            },
                            "geometryCrop2" : {
                              "type" : "double",
                              "defaultValue" : 0.0,
                              "interp" : "eioe"
                            },
                            "geometryCrop3" : {
                              "type" : "double",
                              "defaultValue" : 0.0,
                              "interp" : "eioe"
                            },
                            "cursorScale" : {
                              "type" : "double",
                              "defaultValue" : 0.0,
                              "interp" : "linr"
                            },
                            "cursorOpacity" : {
                              "type" : "double",
                              "defaultValue" : 0.0,
                              "interp" : "linr"
                            },
                            "cursorTrackLevel" : {
                              "type" : "double",
                              "defaultValue" : 0.0,
                              "interp" : "linr"
                            },
                            "smoothCursorAcrossEditDuration" : 0
                          },
                          "effects" : [

                          ],
                          "start" : 383634720000,
                          "duration" : 581226240000,
                          "mediaStart" : 1416350880000,
                          "mediaDuration" : 581226240000,
                          "scalar" : 1,
                          "metadata" : {
                            "AutoAppliedSmartFocus" : "False",
                            "audiateLinkedSession" : "",
                            "clipSpeedAttribute" : { "type": "bool", "value" : false},
                            "colorAttribute" : { "type": "color", "value" : [ 0, 0, 0, 0]},
                            "default-height" : { "type": "double", "value" : 1036.8},
                            "default-translation0" : { "type": "double", "value" : 0.0},
                            "default-translation1" : { "type": "double", "value" : -194.4},
                            "default-translation2" : { "type": "double", "value" : 0.0},
                            "default-width" : { "type": "double", "value" : 1932.67572815534}
                          },
                          "animationTracks" : {

                          }
                        },
                        {
                          "id" : 175,
                          "_type" : "ScreenVMFile",
                          "src" : 2,
                          "trackNumber" : 0,
                          "attributes" : {
                            "ident" : "Rec 4-22-2025-8-51-30-PM"
                          },
                          "parameters" : {
                            "geometryCrop0" : {
                              "type" : "double",
                              "defaultValue" : 0.0,
                              "interp" : "eioe"
                            },
                            "geometryCrop1" : {
                              "type" : "double",
                              "defaultValue" : 0.0,
                              "interp" : "eioe"
                            },
                            "geometryCrop2" : {
                              "type" : "double",
                              "defaultValue" : 0.0,
                              "interp" : "eioe"
                            },
                            "geometryCrop3" : {
                              "type" : "double",
                              "defaultValue" : 0.0,
                              "interp" : "eioe"
                            },
                            "cursorScale" : {
                              "type" : "double",
                              "defaultValue" : 0.0,
                              "interp" : "linr"
                            },
                            "cursorOpacity" : {
                              "type" : "double",
                              "defaultValue" : 0.0,
                              "interp" : "linr"
                            },
                            "cursorTrackLevel" : {
                              "type" : "double",
                              "defaultValue" : 0.0,
                              "interp" : "linr"
                            },
                            "smoothCursorAcrossEditDuration" : 0
                          },
                          "effects" : [

                          ],
                          "start" : 964860960000,
                          "duration" : 215419680000,
                          "mediaStart" : 2018886240000,
                          "mediaDuration" : 215419680000,
                          "scalar" : 1,
                          "metadata" : {
                            "AutoAppliedSmartFocus" : "False",
                            "audiateLinkedSession" : "",
                            "clipSpeedAttribute" : { "type": "bool", "value" : false},
                            "colorAttribute" : { "type": "color", "value" : [ 0, 0, 0, 0]},
                            "default-height" : { "type": "double", "value" : 1036.8},
                            "default-translation0" : { "type": "double", "value" : 0.0},
                            "default-translation1" : { "type": "double", "value" : -194.4},
                            "default-translation2" : { "type": "double", "value" : 0.0},
                            "default-width" : { "type": "double", "value" : 1932.67572815534}
                          },
                          "animationTracks" : {

                          }
                        },
                        {
                          "id" : 176,
                          "_type" : "ScreenVMFile",
                          "src" : 2,
                          "trackNumber" : 0,
                          "attributes" : {
                            "ident" : "Rec 4-22-2025-8-51-30-PM"
                          },
                          "parameters" : {
                            "geometryCrop0" : {
                              "type" : "double",
                              "defaultValue" : 0.0,
                              "interp" : "eioe"
                            },
                            "geometryCrop1" : {
                              "type" : "double",
                              "defaultValue" : 0.0,
                              "interp" : "eioe"
                            },
                            "geometryCrop2" : {
                              "type" : "double",
                              "defaultValue" : 0.0,
                              "interp" : "eioe"
                            },
                            "geometryCrop3" : {
                              "type" : "double",
                              "defaultValue" : 0.0,
                              "interp" : "eioe"
                            },
                            "cursorScale" : {
                              "type" : "double",
                              "defaultValue" : 0.0,
                              "interp" : "linr"
                            },
                            "cursorOpacity" : {
                              "type" : "double",
                              "defaultValue" : 0.0,
                              "interp" : "linr"
                            },
                            "cursorTrackLevel" : {
                              "type" : "double",
                              "defaultValue" : 0.0,
                              "interp" : "linr"
                            },
                            "smoothCursorAcrossEditDuration" : 0
                          },
                          "effects" : [

                          ],
                          "start" : 1180280640000,
                          "duration" : 786955680000,
                          "mediaStart" : 2257778880000,
                          "mediaDuration" : 786955680000,
                          "scalar" : 1,
                          "metadata" : {
                            "AutoAppliedSmartFocus" : "False",
                            "audiateLinkedSession" : "",
                            "clipSpeedAttribute" : { "type": "bool", "value" : false},
                            "colorAttribute" : { "type": "color", "value" : [ 0, 0, 0, 0]},
                            "default-height" : { "type": "double", "value" : 1036.8},
                            "default-translation0" : { "type": "double", "value" : 0.0},
                            "default-translation1" : { "type": "double", "value" : -194.4},
                            "default-translation2" : { "type": "double", "value" : 0.0},
                            "default-width" : { "type": "double", "value" : 1932.67572815534}
                          },
                          "animationTracks" : {

                          }
                        },
                        {
                          "id" : 177,
                          "_type" : "ScreenVMFile",
                          "src" : 2,
                          "trackNumber" : 0,
                          "attributes" : {
                            "ident" : "Rec 4-22-2025-8-51-30-PM"
                          },
                          "parameters" : {
                            "geometryCrop0" : {
                              "type" : "double",
                              "defaultValue" : 0.0,
                              "interp" : "eioe"
                            },
                            "geometryCrop1" : {
                              "type" : "double",
                              "defaultValue" : 0.0,
                              "interp" : "eioe"
                            },
                            "geometryCrop2" : {
                              "type" : "double",
                              "defaultValue" : 0.0,
                              "interp" : "eioe"
                            },
                            "geometryCrop3" : {
                              "type" : "double",
                              "defaultValue" : 0.0,
                              "interp" : "eioe"
                            },
                            "cursorScale" : {
                              "type" : "double",
                              "defaultValue" : 0.0,
                              "interp" : "linr"
                            },
                            "cursorOpacity" : {
                              "type" : "double",
                              "defaultValue" : 0.0,
                              "interp" : "linr"
                            },
                            "cursorTrackLevel" : {
                              "type" : "double",
                              "defaultValue" : 0.0,
                              "interp" : "linr"
                            },
                            "smoothCursorAcrossEditDuration" : 0
                          },
                          "effects" : [

                          ],
                          "start" : 1967236320000,
                          "duration" : 20768160000,
                          "mediaStart" : 3047580480000,
                          "mediaDuration" : 20768160000,
                          "scalar" : 1,
                          "metadata" : {
                            "AutoAppliedSmartFocus" : "False",
                            "audiateLinkedSession" : "",
                            "clipSpeedAttribute" : { "type": "bool", "value" : false},
                            "colorAttribute" : { "type": "color", "value" : [ 0, 0, 0, 0]},
                            "default-height" : { "type": "double", "value" : 1036.8},
                            "default-translation0" : { "type": "double", "value" : 0.0},
                            "default-translation1" : { "type": "double", "value" : -194.4},
                            "default-translation2" : { "type": "double", "value" : 0.0},
                            "default-width" : { "type": "double", "value" : 1932.67572815534}
                          },
                          "animationTracks" : {

                          }
                        },
                        {
                          "id" : 178,
                          "_type" : "ScreenVMFile",
                          "src" : 2,
                          "trackNumber" : 0,
                          "attributes" : {
                            "ident" : "Rec 4-22-2025-8-51-30-PM"
                          },
                          "parameters" : {
                            "geometryCrop0" : {
                              "type" : "double",
                              "defaultValue" : 0.0,
                              "interp" : "eioe"
                            },
                            "geometryCrop1" : {
                              "type" : "double",
                              "defaultValue" : 0.0,
                              "interp" : "eioe"
                            },
                            "geometryCrop2" : {
                              "type" : "double",
                              "defaultValue" : 0.0,
                              "interp" : "eioe"
                            },
                            "geometryCrop3" : {
                              "type" : "double",
                              "defaultValue" : 0.0,
                              "interp" : "eioe"
                            },
                            "cursorScale" : {
                              "type" : "double",
                              "defaultValue" : 0.0,
                              "interp" : "linr"
                            },
                            "cursorOpacity" : {
                              "type" : "double",
                              "defaultValue" : 0.0,
                              "interp" : "linr"
                            },
                            "cursorTrackLevel" : {
                              "type" : "double",
                              "defaultValue" : 0.0,
                              "interp" : "linr"
                            },
                            "smoothCursorAcrossEditDuration" : 0
                          },
                          "effects" : [

                          ],
                          "start" : 1988004480000,
                          "duration" : 343039200000,
                          "mediaStart" : 3138932160000,
                          "mediaDuration" : 343039200000,
                          "scalar" : 1,
                          "metadata" : {
                            "AutoAppliedSmartFocus" : "False",
                            "audiateLinkedSession" : "",
                            "clipSpeedAttribute" : { "type": "bool", "value" : false},
                            "colorAttribute" : { "type": "color", "value" : [ 0, 0, 0, 0]},
                            "default-height" : { "type": "double", "value" : 1036.8},
                            "default-translation0" : { "type": "double", "value" : 0.0},
                            "default-translation1" : { "type": "double", "value" : -194.4},
                            "default-translation2" : { "type": "double", "value" : 0.0},
                            "default-width" : { "type": "double", "value" : 1932.67572815534}
                          },
                          "animationTracks" : {

                          }
                        }
                    ],
                    "effects" : [
                        {
                          "effectName" : "CursorColor",
                          "bypassed" : false,
                          "category" : "categoryCursorEffects",
                          "parameters" : {
                            "intensity" : 1.0,
                            "desaturation" : 0.0,
                            "colorLumaCutoff" : 1.0,
                            "color-alpha" : 1.0,
                            "color-red" : 1.0,
                            "color-green" : 0.8980392157,
                            "color-blue" : 0.1215686275,
                            "secondColor-red" : 0.0,
                            "secondColor-green" : 0.0,
                            "secondColor-blue" : 0.0,
                            "secondColor-alpha" : 1.0,
                            "secondColorLumaCutoff" : 0.0,
                            "channel" : 0,
                            "shadowRampStart" : 0.0,
                            "shadowRampEnd" : 0.0,
                            "highlightRampStart" : 1.0,
                            "highlightRampEnd" : 1.0
                          }
                        },
                        {
                          "effectName" : "CursorShadow",
                          "bypassed" : false,
                          "category" : "categoryCursorEffects",
                          "parameters" : {
                            "angle" : 3.92699081698724,
                            "enabled" : 1,
                            "offset" : 5.0,
                            "blur" : 2.0,
                            "opacity" : 0.25,
                            "color-red" : 0.0,
                            "color-green" : 0.0,
                            "color-blue" : 0.0,
                            "color-alpha" : 1.0
                          }
                        },
                        {
                          "effectName" : "CursorHilight",
                          "bypassed" : false,
                          "category" : "categoryCursorEffects",
                          "parameters" : {
                            "radius" : 50.0,
                            "color-red" : 1.0,
                            "color-green" : 1.0,
                            "color-blue" : 0.0,
                            "color-alpha" : 0.75,
                            "blur" : 0.1
                          }
                        }
                    ],
                    "start" : 44059788387,
                    "duration" : 1152480000,
                    "mediaStart" : 156878400000,
                    "mediaDuration" : 8326080000,
                    "scalar" : "49/354",
                    "metadata" : {
                      "AutoAppliedSmartFocus" : "False",
                      "audiateLinkedSession" : "",
                      "clipSpeedAttribute" : { "type": "bool", "value" : true},
                      "colorAttribute" : { "type": "color", "value" : [ 0, 0, 0, 0]},
                      "default-height" : { "type": "double", "value" : 1036.8},
                      "default-translation0" : { "type": "double", "value" : 0.0},
                      "default-translation1" : { "type": "double", "value" : -194.4},
                      "default-translation2" : { "type": "double", "value" : 0.0},
                      "default-width" : { "type": "double", "value" : 1932.67572815534}
                    },
                    "animationTracks" : {

                    }
                  },
                  {
                    "id" : 179,
                    "_type" : "StitchedMedia",
                    "minMediaStart" : 0,
                    "attributes" : {
                      "ident" : "Rec 4-22-2025-8-51-30-PM",
                      "gain" : 1.0,
                      "mixToMono" : false,
                      "loudnessNormalization" : true,
                      "sourceFileOffset" : 0
                    },
                    "parameters" : {
                      "translation0" : 6.33786407766917,
                      "translation1" : -2.8421709430404e-14,
                      "scale0" : 0.503300970873786,
                      "scale1" : 0.503300970873786,
                      "geometryCrop0" : 0.0,
                      "geometryCrop1" : 0.0,
                      "geometryCrop2" : 0.0,
                      "geometryCrop3" : 0.0,
                      "cursorOpacity" : 1.0,
                      "cursorTrackLevel" : 0.0,
                      "cursorScale" : 5.0,
                      "smoothCursorAcrossEditDuration" : 0
                    },
                    "medias" : [
                        {
                          "id" : 180,
                          "_type" : "ScreenVMFile",
                          "src" : 2,
                          "trackNumber" : 0,
                          "attributes" : {
                            "ident" : "Rec 4-22-2025-8-51-30-PM"
                          },
                          "parameters" : {
                            "geometryCrop0" : {
                              "type" : "double",
                              "defaultValue" : 0.0,
                              "interp" : "eioe"
                            },
                            "geometryCrop1" : {
                              "type" : "double",
                              "defaultValue" : 0.0,
                              "interp" : "eioe"
                            },
                            "geometryCrop2" : {
                              "type" : "double",
                              "defaultValue" : 0.0,
                              "interp" : "eioe"
                            },
                            "geometryCrop3" : {
                              "type" : "double",
                              "defaultValue" : 0.0,
                              "interp" : "eioe"
                            },
                            "cursorScale" : {
                              "type" : "double",
                              "defaultValue" : 0.0,
                              "interp" : "linr"
                            },
                            "cursorOpacity" : {
                              "type" : "double",
                              "defaultValue" : 0.0,
                              "interp" : "linr"
                            },
                            "cursorTrackLevel" : {
                              "type" : "double",
                              "defaultValue" : 0.0,
                              "interp" : "linr"
                            },
                            "smoothCursorAcrossEditDuration" : 0
                          },
                          "effects" : [

                          ],
                          "start" : 0,
                          "duration" : 50991360000,
                          "mediaStart" : 0,
                          "mediaDuration" : 50991360000,
                          "scalar" : 1,
                          "metadata" : {
                            "AutoAppliedSmartFocus" : "False",
                            "audiateLinkedSession" : "",
                            "clipSpeedAttribute" : { "type": "bool", "value" : false},
                            "colorAttribute" : { "type": "color", "value" : [ 0, 0, 0, 0]},
                            "default-height" : { "type": "double", "value" : 1036.8},
                            "default-translation0" : { "type": "double", "value" : 0.0},
                            "default-translation1" : { "type": "double", "value" : -194.4},
                            "default-translation2" : { "type": "double", "value" : 0.0},
                            "default-width" : { "type": "double", "value" : 1932.67572815534}
                          },
                          "animationTracks" : {

                          }
                        },
                        {
                          "id" : 181,
                          "_type" : "ScreenVMFile",
                          "src" : 2,
                          "trackNumber" : 0,
                          "attributes" : {
                            "ident" : "Rec 4-22-2025-8-51-30-PM"
                          },
                          "parameters" : {
                            "geometryCrop0" : {
                              "type" : "double",
                              "defaultValue" : 0.0,
                              "interp" : "eioe"
                            },
                            "geometryCrop1" : {
                              "type" : "double",
                              "defaultValue" : 0.0,
                              "interp" : "eioe"
                            },
                            "geometryCrop2" : {
                              "type" : "double",
                              "defaultValue" : 0.0,
                              "interp" : "eioe"
                            },
                            "geometryCrop3" : {
                              "type" : "double",
                              "defaultValue" : 0.0,
                              "interp" : "eioe"
                            },
                            "cursorScale" : {
                              "type" : "double",
                              "defaultValue" : 0.0,
                              "interp" : "linr"
                            },
                            "cursorOpacity" : {
                              "type" : "double",
                              "defaultValue" : 0.0,
                              "interp" : "linr"
                            },
                            "cursorTrackLevel" : {
                              "type" : "double",
                              "defaultValue" : 0.0,
                              "interp" : "linr"
                            },
                            "smoothCursorAcrossEditDuration" : 0
                          },
                          "effects" : [

                          ],
                          "start" : 50991360000,
                          "duration" : 46663680000,
                          "mediaStart" : 66467520000,
                          "mediaDuration" : 46663680000,
                          "scalar" : 1,
                          "metadata" : {
                            "AutoAppliedSmartFocus" : "False",
                            "audiateLinkedSession" : "",
                            "clipSpeedAttribute" : { "type": "bool", "value" : false},
                            "colorAttribute" : { "type": "color", "value" : [ 0, 0, 0, 0]},
                            "default-height" : { "type": "double", "value" : 1036.8},
                            "default-translation0" : { "type": "double", "value" : 0.0},
                            "default-translation1" : { "type": "double", "value" : -194.4},
                            "default-translation2" : { "type": "double", "value" : 0.0},
                            "default-width" : { "type": "double", "value" : 1932.67572815534}
                          },
                          "animationTracks" : {

                          }
                        },
                        {
                          "id" : 182,
                          "_type" : "ScreenVMFile",
                          "src" : 2,
                          "trackNumber" : 0,
                          "attributes" : {
                            "ident" : "Rec 4-22-2025-8-51-30-PM"
                          },
                          "parameters" : {
                            "geometryCrop0" : {
                              "type" : "double",
                              "defaultValue" : 0.0,
                              "interp" : "eioe"
                            },
                            "geometryCrop1" : {
                              "type" : "double",
                              "defaultValue" : 0.0,
                              "interp" : "eioe"
                            },
                            "geometryCrop2" : {
                              "type" : "double",
                              "defaultValue" : 0.0,
                              "interp" : "eioe"
                            },
                            "geometryCrop3" : {
                              "type" : "double",
                              "defaultValue" : 0.0,
                              "interp" : "eioe"
                            },
                            "cursorScale" : {
                              "type" : "double",
                              "defaultValue" : 0.0,
                              "interp" : "linr"
                            },
                            "cursorOpacity" : {
                              "type" : "double",
                              "defaultValue" : 0.0,
                              "interp" : "linr"
                            },
                            "cursorTrackLevel" : {
                              "type" : "double",
                              "defaultValue" : 0.0,
                              "interp" : "linr"
                            },
                            "smoothCursorAcrossEditDuration" : 0
                          },
                          "effects" : [

                          ],
                          "start" : 97655040000,
                          "duration" : 352282560000,
                          "mediaStart" : 149352000000,
                          "mediaDuration" : 352282560000,
                          "scalar" : 1,
                          "metadata" : {
                            "AutoAppliedSmartFocus" : "False",
                            "audiateLinkedSession" : "",
                            "clipSpeedAttribute" : { "type": "bool", "value" : false},
                            "colorAttribute" : { "type": "color", "value" : [ 0, 0, 0, 0]},
                            "default-height" : { "type": "double", "value" : 1036.8},
                            "default-translation0" : { "type": "double", "value" : 0.0},
                            "default-translation1" : { "type": "double", "value" : -194.4},
                            "default-translation2" : { "type": "double", "value" : 0.0},
                            "default-width" : { "type": "double", "value" : 1932.67572815534}
                          },
                          "animationTracks" : {

                          }
                        },
                        {
                          "id" : 183,
                          "_type" : "ScreenVMFile",
                          "src" : 2,
                          "trackNumber" : 0,
                          "attributes" : {
                            "ident" : "Rec 4-22-2025-8-51-30-PM"
                          },
                          "parameters" : {
                            "geometryCrop0" : {
                              "type" : "double",
                              "defaultValue" : 0.0,
                              "interp" : "eioe"
                            },
                            "geometryCrop1" : {
                              "type" : "double",
                              "defaultValue" : 0.0,
                              "interp" : "eioe"
                            },
                            "geometryCrop2" : {
                              "type" : "double",
                              "defaultValue" : 0.0,
                              "interp" : "eioe"
                            },
                            "geometryCrop3" : {
                              "type" : "double",
                              "defaultValue" : 0.0,
                              "interp" : "eioe"
                            },
                            "cursorScale" : {
                              "type" : "double",
                              "defaultValue" : 0.0,
                              "interp" : "linr"
                            },
                            "cursorOpacity" : {
                              "type" : "double",
                              "defaultValue" : 0.0,
                              "interp" : "linr"
                            },
                            "cursorTrackLevel" : {
                              "type" : "double",
                              "defaultValue" : 0.0,
                              "interp" : "linr"
                            },
                            "smoothCursorAcrossEditDuration" : 0
                          },
                          "effects" : [

                          ],
                          "start" : 449937600000,
                          "duration" : 8961120000,
                          "mediaStart" : 509843040000,
                          "mediaDuration" : 8961120000,
                          "scalar" : 1,
                          "metadata" : {
                            "AutoAppliedSmartFocus" : "False",
                            "audiateLinkedSession" : "",
                            "clipSpeedAttribute" : { "type": "bool", "value" : false},
                            "colorAttribute" : { "type": "color", "value" : [ 0, 0, 0, 0]},
                            "default-height" : { "type": "double", "value" : 1036.8},
                            "default-translation0" : { "type": "double", "value" : 0.0},
                            "default-translation1" : { "type": "double", "value" : -194.4},
                            "default-translation2" : { "type": "double", "value" : 0.0},
                            "default-width" : { "type": "double", "value" : 1932.67572815534}
                          },
                          "animationTracks" : {

                          }
                        },
                        {
                          "id" : 184,
                          "_type" : "ScreenVMFile",
                          "src" : 2,
                          "trackNumber" : 0,
                          "attributes" : {
                            "ident" : "Rec 4-22-2025-8-51-30-PM"
                          },
                          "parameters" : {
                            "geometryCrop0" : {
                              "type" : "double",
                              "defaultValue" : 0.0,
                              "interp" : "eioe"
                            },
                            "geometryCrop1" : {
                              "type" : "double",
                              "defaultValue" : 0.0,
                              "interp" : "eioe"
                            },
                            "geometryCrop2" : {
                              "type" : "double",
                              "defaultValue" : 0.0,
                              "interp" : "eioe"
                            },
                            "geometryCrop3" : {
                              "type" : "double",
                              "defaultValue" : 0.0,
                              "interp" : "eioe"
                            },
                            "cursorScale" : {
                              "type" : "double",
                              "defaultValue" : 0.0,
                              "interp" : "linr"
                            },
                            "cursorOpacity" : {
                              "type" : "double",
                              "defaultValue" : 0.0,
                              "interp" : "linr"
                            },
                            "cursorTrackLevel" : {
                              "type" : "double",
                              "defaultValue" : 0.0,
                              "interp" : "linr"
                            },
                            "smoothCursorAcrossEditDuration" : 0
                          },
                          "effects" : [

                          ],
                          "start" : 458898720000,
                          "duration" : 581226240000,
                          "mediaStart" : 1416350880000,
                          "mediaDuration" : 581226240000,
                          "scalar" : 1,
                          "metadata" : {
                            "AutoAppliedSmartFocus" : "False",
                            "audiateLinkedSession" : "",
                            "clipSpeedAttribute" : { "type": "bool", "value" : false},
                            "colorAttribute" : { "type": "color", "value" : [ 0, 0, 0, 0]},
                            "default-height" : { "type": "double", "value" : 1036.8},
                            "default-translation0" : { "type": "double", "value" : 0.0},
                            "default-translation1" : { "type": "double", "value" : -194.4},
                            "default-translation2" : { "type": "double", "value" : 0.0},
                            "default-width" : { "type": "double", "value" : 1932.67572815534}
                          },
                          "animationTracks" : {

                          }
                        },
                        {
                          "id" : 185,
                          "_type" : "ScreenVMFile",
                          "src" : 2,
                          "trackNumber" : 0,
                          "attributes" : {
                            "ident" : "Rec 4-22-2025-8-51-30-PM"
                          },
                          "parameters" : {
                            "geometryCrop0" : {
                              "type" : "double",
                              "defaultValue" : 0.0,
                              "interp" : "eioe"
                            },
                            "geometryCrop1" : {
                              "type" : "double",
                              "defaultValue" : 0.0,
                              "interp" : "eioe"
                            },
                            "geometryCrop2" : {
                              "type" : "double",
                              "defaultValue" : 0.0,
                              "interp" : "eioe"
                            },
                            "geometryCrop3" : {
                              "type" : "double",
                              "defaultValue" : 0.0,
                              "interp" : "eioe"
                            },
                            "cursorScale" : {
                              "type" : "double",
                              "defaultValue" : 0.0,
                              "interp" : "linr"
                            },
                            "cursorOpacity" : {
                              "type" : "double",
                              "defaultValue" : 0.0,
                              "interp" : "linr"
                            },
                            "cursorTrackLevel" : {
                              "type" : "double",
                              "defaultValue" : 0.0,
                              "interp" : "linr"
                            },
                            "smoothCursorAcrossEditDuration" : 0
                          },
                          "effects" : [

                          ],
                          "start" : 1040124960000,
                          "duration" : 215419680000,
                          "mediaStart" : 2018886240000,
                          "mediaDuration" : 215419680000,
                          "scalar" : 1,
                          "metadata" : {
                            "AutoAppliedSmartFocus" : "False",
                            "audiateLinkedSession" : "",
                            "clipSpeedAttribute" : { "type": "bool", "value" : false},
                            "colorAttribute" : { "type": "color", "value" : [ 0, 0, 0, 0]},
                            "default-height" : { "type": "double", "value" : 1036.8},
                            "default-translation0" : { "type": "double", "value" : 0.0},
                            "default-translation1" : { "type": "double", "value" : -194.4},
                            "default-translation2" : { "type": "double", "value" : 0.0},
                            "default-width" : { "type": "double", "value" : 1932.67572815534}
                          },
                          "animationTracks" : {

                          }
                        },
                        {
                          "id" : 186,
                          "_type" : "ScreenVMFile",
                          "src" : 2,
                          "trackNumber" : 0,
                          "attributes" : {
                            "ident" : "Rec 4-22-2025-8-51-30-PM"
                          },
                          "parameters" : {
                            "geometryCrop0" : {
                              "type" : "double",
                              "defaultValue" : 0.0,
                              "interp" : "eioe"
                            },
                            "geometryCrop1" : {
                              "type" : "double",
                              "defaultValue" : 0.0,
                              "interp" : "eioe"
                            },
                            "geometryCrop2" : {
                              "type" : "double",
                              "defaultValue" : 0.0,
                              "interp" : "eioe"
                            },
                            "geometryCrop3" : {
                              "type" : "double",
                              "defaultValue" : 0.0,
                              "interp" : "eioe"
                            },
                            "cursorScale" : {
                              "type" : "double",
                              "defaultValue" : 0.0,
                              "interp" : "linr"
                            },
                            "cursorOpacity" : {
                              "type" : "double",
                              "defaultValue" : 0.0,
                              "interp" : "linr"
                            },
                            "cursorTrackLevel" : {
                              "type" : "double",
                              "defaultValue" : 0.0,
                              "interp" : "linr"
                            },
                            "smoothCursorAcrossEditDuration" : 0
                          },
                          "effects" : [

                          ],
                          "start" : 1255544640000,
                          "duration" : 786955680000,
                          "mediaStart" : 2257778880000,
                          "mediaDuration" : 786955680000,
                          "scalar" : 1,
                          "metadata" : {
                            "AutoAppliedSmartFocus" : "False",
                            "audiateLinkedSession" : "",
                            "clipSpeedAttribute" : { "type": "bool", "value" : false},
                            "colorAttribute" : { "type": "color", "value" : [ 0, 0, 0, 0]},
                            "default-height" : { "type": "double", "value" : 1036.8},
                            "default-translation0" : { "type": "double", "value" : 0.0},
                            "default-translation1" : { "type": "double", "value" : -194.4},
                            "default-translation2" : { "type": "double", "value" : 0.0},
                            "default-width" : { "type": "double", "value" : 1932.67572815534}
                          },
                          "animationTracks" : {

                          }
                        },
                        {
                          "id" : 187,
                          "_type" : "ScreenVMFile",
                          "src" : 2,
                          "trackNumber" : 0,
                          "attributes" : {
                            "ident" : "Rec 4-22-2025-8-51-30-PM"
                          },
                          "parameters" : {
                            "geometryCrop0" : {
                              "type" : "double",
                              "defaultValue" : 0.0,
                              "interp" : "eioe"
                            },
                            "geometryCrop1" : {
                              "type" : "double",
                              "defaultValue" : 0.0,
                              "interp" : "eioe"
                            },
                            "geometryCrop2" : {
                              "type" : "double",
                              "defaultValue" : 0.0,
                              "interp" : "eioe"
                            },
                            "geometryCrop3" : {
                              "type" : "double",
                              "defaultValue" : 0.0,
                              "interp" : "eioe"
                            },
                            "cursorScale" : {
                              "type" : "double",
                              "defaultValue" : 0.0,
                              "interp" : "linr"
                            },
                            "cursorOpacity" : {
                              "type" : "double",
                              "defaultValue" : 0.0,
                              "interp" : "linr"
                            },
                            "cursorTrackLevel" : {
                              "type" : "double",
                              "defaultValue" : 0.0,
                              "interp" : "linr"
                            },
                            "smoothCursorAcrossEditDuration" : 0
                          },
                          "effects" : [

                          ],
                          "start" : 2042500320000,
                          "duration" : 20768160000,
                          "mediaStart" : 3047580480000,
                          "mediaDuration" : 20768160000,
                          "scalar" : 1,
                          "metadata" : {
                            "AutoAppliedSmartFocus" : "False",
                            "audiateLinkedSession" : "",
                            "clipSpeedAttribute" : { "type": "bool", "value" : false},
                            "colorAttribute" : { "type": "color", "value" : [ 0, 0, 0, 0]},
                            "default-height" : { "type": "double", "value" : 1036.8},
                            "default-translation0" : { "type": "double", "value" : 0.0},
                            "default-translation1" : { "type": "double", "value" : -194.4},
                            "default-translation2" : { "type": "double", "value" : 0.0},
                            "default-width" : { "type": "double", "value" : 1932.67572815534}
                          },
                          "animationTracks" : {

                          }
                        },
                        {
                          "id" : 188,
                          "_type" : "ScreenVMFile",
                          "src" : 2,
                          "trackNumber" : 0,
                          "attributes" : {
                            "ident" : "Rec 4-22-2025-8-51-30-PM"
                          },
                          "parameters" : {
                            "geometryCrop0" : {
                              "type" : "double",
                              "defaultValue" : 0.0,
                              "interp" : "eioe"
                            },
                            "geometryCrop1" : {
                              "type" : "double",
                              "defaultValue" : 0.0,
                              "interp" : "eioe"
                            },
                            "geometryCrop2" : {
                              "type" : "double",
                              "defaultValue" : 0.0,
                              "interp" : "eioe"
                            },
                            "geometryCrop3" : {
                              "type" : "double",
                              "defaultValue" : 0.0,
                              "interp" : "eioe"
                            },
                            "cursorScale" : {
                              "type" : "double",
                              "defaultValue" : 0.0,
                              "interp" : "linr"
                            },
                            "cursorOpacity" : {
                              "type" : "double",
                              "defaultValue" : 0.0,
                              "interp" : "linr"
                            },
                            "cursorTrackLevel" : {
                              "type" : "double",
                              "defaultValue" : 0.0,
                              "interp" : "linr"
                            },
                            "smoothCursorAcrossEditDuration" : 0
                          },
                          "effects" : [

                          ],
                          "start" : 2063268480000,
                          "duration" : 343039200000,
                          "mediaStart" : 3138932160000,
                          "mediaDuration" : 343039200000,
                          "scalar" : 1,
                          "metadata" : {
                            "AutoAppliedSmartFocus" : "False",
                            "audiateLinkedSession" : "",
                            "clipSpeedAttribute" : { "type": "bool", "value" : false},
                            "colorAttribute" : { "type": "color", "value" : [ 0, 0, 0, 0]},
                            "default-height" : { "type": "double", "value" : 1036.8},
                            "default-translation0" : { "type": "double", "value" : 0.0},
                            "default-translation1" : { "type": "double", "value" : -194.4},
                            "default-translation2" : { "type": "double", "value" : 0.0},
                            "default-width" : { "type": "double", "value" : 1932.67572815534}
                          },
                          "animationTracks" : {

                          }
                        }
                    ],
                    "effects" : [
                        {
                          "effectName" : "CursorColor",
                          "bypassed" : false,
                          "category" : "categoryCursorEffects",
                          "parameters" : {
                            "intensity" : 1.0,
                            "desaturation" : 0.0,
                            "colorLumaCutoff" : 1.0,
                            "color-alpha" : 1.0,
                            "color-red" : 1.0,
                            "color-green" : 0.8980392157,
                            "color-blue" : 0.1215686275,
                            "secondColor-red" : 0.0,
                            "secondColor-green" : 0.0,
                            "secondColor-blue" : 0.0,
                            "secondColor-alpha" : 1.0,
                            "secondColorLumaCutoff" : 0.0,
                            "channel" : 0,
                            "shadowRampStart" : 0.0,
                            "shadowRampEnd" : 0.0,
                            "highlightRampStart" : 1.0,
                            "highlightRampEnd" : 1.0
                          }
                        },
                        {
                          "effectName" : "CursorShadow",
                          "bypassed" : false,
                          "category" : "categoryCursorEffects",
                          "parameters" : {
                            "angle" : 3.92699081698724,
                            "enabled" : 1,
                            "offset" : 5.0,
                            "blur" : 2.0,
                            "opacity" : 0.25,
                            "color-red" : 0.0,
                            "color-green" : 0.0,
                            "color-blue" : 0.0,
                            "color-alpha" : 1.0
                          }
                        },
                        {
                          "effectName" : "CursorHilight",
                          "bypassed" : false,
                          "category" : "categoryCursorEffects",
                          "parameters" : {
                            "radius" : 50.0,
                            "color-red" : 1.0,
                            "color-green" : 1.0,
                            "color-blue" : 0.0,
                            "color-alpha" : 0.75,
                            "blur" : 0.1
                          }
                        }
                    ],
                    "start" : 45212268387,
                    "duration" : 4609920000,
                    "mediaStart" : 249782400000,
                    "mediaDuration" : 9996000000,
                    "scalar" : "196/425",
                    "metadata" : {
                      "AutoAppliedSmartFocus" : "False",
                      "audiateLinkedSession" : "",
                      "clipSpeedAttribute" : { "type": "bool", "value" : true},
                      "colorAttribute" : { "type": "color", "value" : [ 0, 0, 0, 0]},
                      "default-height" : { "type": "double", "value" : 1036.8},
                      "default-translation0" : { "type": "double", "value" : 0.0},
                      "default-translation1" : { "type": "double", "value" : -194.4},
                      "default-translation2" : { "type": "double", "value" : 0.0},
                      "default-width" : { "type": "double", "value" : 1932.67572815534}
                    },
                    "animationTracks" : {

                    }
                  },
                  {
                    "id" : 189,
                    "_type" : "StitchedMedia",
                    "minMediaStart" : 0,
                    "attributes" : {
                      "ident" : "Rec 4-22-2025-8-51-30-PM",
                      "gain" : 1.0,
                      "mixToMono" : false,
                      "loudnessNormalization" : true,
                      "sourceFileOffset" : 0
                    },
                    "parameters" : {
                      "translation0" : 6.33786407766917,
                      "translation1" : -2.8421709430404e-14,
                      "scale0" : 0.503300970873786,
                      "scale1" : 0.503300970873786,
                      "geometryCrop0" : 0.0,
                      "geometryCrop1" : 0.0,
                      "geometryCrop2" : 0.0,
                      "geometryCrop3" : 0.0,
                      "toc" : {
                        "type" : "string",
                        "keyframes" : [
                          {
                            "endTime" : 259778400000,
                            "time" : 259778400000,
                            "value" : "set development mode",
                            "duration" : 0,
                            "metadata" : {
                              "markerIdentifier" : "3E1973D1-D15E-4820-9A0A-FA1DD847551A"
                            }
                          }
                        ]
                      },
                      "cursorOpacity" : 1.0,
                      "cursorTrackLevel" : 0.0,
                      "cursorScale" : 5.0,
                      "smoothCursorAcrossEditDuration" : 0
                    },
                    "medias" : [
                        {
                          "id" : 190,
                          "_type" : "ScreenVMFile",
                          "src" : 2,
                          "trackNumber" : 0,
                          "attributes" : {
                            "ident" : "Rec 4-22-2025-8-51-30-PM"
                          },
                          "parameters" : {
                            "geometryCrop0" : {
                              "type" : "double",
                              "defaultValue" : 0.0,
                              "interp" : "eioe"
                            },
                            "geometryCrop1" : {
                              "type" : "double",
                              "defaultValue" : 0.0,
                              "interp" : "eioe"
                            },
                            "geometryCrop2" : {
                              "type" : "double",
                              "defaultValue" : 0.0,
                              "interp" : "eioe"
                            },
                            "geometryCrop3" : {
                              "type" : "double",
                              "defaultValue" : 0.0,
                              "interp" : "eioe"
                            },
                            "cursorScale" : {
                              "type" : "double",
                              "defaultValue" : 0.0,
                              "interp" : "linr"
                            },
                            "cursorOpacity" : {
                              "type" : "double",
                              "defaultValue" : 0.0,
                              "interp" : "linr"
                            },
                            "cursorTrackLevel" : {
                              "type" : "double",
                              "defaultValue" : 0.0,
                              "interp" : "linr"
                            },
                            "smoothCursorAcrossEditDuration" : 0
                          },
                          "effects" : [

                          ],
                          "start" : 0,
                          "duration" : 50991360000,
                          "mediaStart" : 0,
                          "mediaDuration" : 50991360000,
                          "scalar" : 1,
                          "metadata" : {
                            "AutoAppliedSmartFocus" : "False",
                            "audiateLinkedSession" : "",
                            "clipSpeedAttribute" : { "type": "bool", "value" : false},
                            "colorAttribute" : { "type": "color", "value" : [ 0, 0, 0, 0]},
                            "default-height" : { "type": "double", "value" : 1036.8},
                            "default-translation0" : { "type": "double", "value" : 0.0},
                            "default-translation1" : { "type": "double", "value" : -194.4},
                            "default-translation2" : { "type": "double", "value" : 0.0},
                            "default-width" : { "type": "double", "value" : 1932.67572815534}
                          },
                          "animationTracks" : {

                          }
                        },
                        {
                          "id" : 191,
                          "_type" : "ScreenVMFile",
                          "src" : 2,
                          "trackNumber" : 0,
                          "attributes" : {
                            "ident" : "Rec 4-22-2025-8-51-30-PM"
                          },
                          "parameters" : {
                            "geometryCrop0" : {
                              "type" : "double",
                              "defaultValue" : 0.0,
                              "interp" : "eioe"
                            },
                            "geometryCrop1" : {
                              "type" : "double",
                              "defaultValue" : 0.0,
                              "interp" : "eioe"
                            },
                            "geometryCrop2" : {
                              "type" : "double",
                              "defaultValue" : 0.0,
                              "interp" : "eioe"
                            },
                            "geometryCrop3" : {
                              "type" : "double",
                              "defaultValue" : 0.0,
                              "interp" : "eioe"
                            },
                            "cursorScale" : {
                              "type" : "double",
                              "defaultValue" : 0.0,
                              "interp" : "linr"
                            },
                            "cursorOpacity" : {
                              "type" : "double",
                              "defaultValue" : 0.0,
                              "interp" : "linr"
                            },
                            "cursorTrackLevel" : {
                              "type" : "double",
                              "defaultValue" : 0.0,
                              "interp" : "linr"
                            },
                            "smoothCursorAcrossEditDuration" : 0
                          },
                          "effects" : [

                          ],
                          "start" : 50991360000,
                          "duration" : 46663680000,
                          "mediaStart" : 66467520000,
                          "mediaDuration" : 46663680000,
                          "scalar" : 1,
                          "metadata" : {
                            "AutoAppliedSmartFocus" : "False",
                            "audiateLinkedSession" : "",
                            "clipSpeedAttribute" : { "type": "bool", "value" : false},
                            "colorAttribute" : { "type": "color", "value" : [ 0, 0, 0, 0]},
                            "default-height" : { "type": "double", "value" : 1036.8},
                            "default-translation0" : { "type": "double", "value" : 0.0},
                            "default-translation1" : { "type": "double", "value" : -194.4},
                            "default-translation2" : { "type": "double", "value" : 0.0},
                            "default-width" : { "type": "double", "value" : 1932.67572815534}
                          },
                          "animationTracks" : {

                          }
                        },
                        {
                          "id" : 192,
                          "_type" : "ScreenVMFile",
                          "src" : 2,
                          "trackNumber" : 0,
                          "attributes" : {
                            "ident" : "Rec 4-22-2025-8-51-30-PM"
                          },
                          "parameters" : {
                            "geometryCrop0" : {
                              "type" : "double",
                              "defaultValue" : 0.0,
                              "interp" : "eioe"
                            },
                            "geometryCrop1" : {
                              "type" : "double",
                              "defaultValue" : 0.0,
                              "interp" : "eioe"
                            },
                            "geometryCrop2" : {
                              "type" : "double",
                              "defaultValue" : 0.0,
                              "interp" : "eioe"
                            },
                            "geometryCrop3" : {
                              "type" : "double",
                              "defaultValue" : 0.0,
                              "interp" : "eioe"
                            },
                            "cursorScale" : {
                              "type" : "double",
                              "defaultValue" : 0.0,
                              "interp" : "linr"
                            },
                            "cursorOpacity" : {
                              "type" : "double",
                              "defaultValue" : 0.0,
                              "interp" : "linr"
                            },
                            "cursorTrackLevel" : {
                              "type" : "double",
                              "defaultValue" : 0.0,
                              "interp" : "linr"
                            },
                            "smoothCursorAcrossEditDuration" : 0
                          },
                          "effects" : [

                          ],
                          "start" : 97655040000,
                          "duration" : 352282560000,
                          "mediaStart" : 149352000000,
                          "mediaDuration" : 352282560000,
                          "scalar" : 1,
                          "metadata" : {
                            "AutoAppliedSmartFocus" : "False",
                            "audiateLinkedSession" : "",
                            "clipSpeedAttribute" : { "type": "bool", "value" : false},
                            "colorAttribute" : { "type": "color", "value" : [ 0, 0, 0, 0]},
                            "default-height" : { "type": "double", "value" : 1036.8},
                            "default-translation0" : { "type": "double", "value" : 0.0},
                            "default-translation1" : { "type": "double", "value" : -194.4},
                            "default-translation2" : { "type": "double", "value" : 0.0},
                            "default-width" : { "type": "double", "value" : 1932.67572815534}
                          },
                          "animationTracks" : {

                          }
                        },
                        {
                          "id" : 193,
                          "_type" : "ScreenVMFile",
                          "src" : 2,
                          "trackNumber" : 0,
                          "attributes" : {
                            "ident" : "Rec 4-22-2025-8-51-30-PM"
                          },
                          "parameters" : {
                            "geometryCrop0" : {
                              "type" : "double",
                              "defaultValue" : 0.0,
                              "interp" : "eioe"
                            },
                            "geometryCrop1" : {
                              "type" : "double",
                              "defaultValue" : 0.0,
                              "interp" : "eioe"
                            },
                            "geometryCrop2" : {
                              "type" : "double",
                              "defaultValue" : 0.0,
                              "interp" : "eioe"
                            },
                            "geometryCrop3" : {
                              "type" : "double",
                              "defaultValue" : 0.0,
                              "interp" : "eioe"
                            },
                            "cursorScale" : {
                              "type" : "double",
                              "defaultValue" : 0.0,
                              "interp" : "linr"
                            },
                            "cursorOpacity" : {
                              "type" : "double",
                              "defaultValue" : 0.0,
                              "interp" : "linr"
                            },
                            "cursorTrackLevel" : {
                              "type" : "double",
                              "defaultValue" : 0.0,
                              "interp" : "linr"
                            },
                            "smoothCursorAcrossEditDuration" : 0
                          },
                          "effects" : [

                          ],
                          "start" : 449937600000,
                          "duration" : 8961120000,
                          "mediaStart" : 509843040000,
                          "mediaDuration" : 8961120000,
                          "scalar" : 1,
                          "metadata" : {
                            "AutoAppliedSmartFocus" : "False",
                            "audiateLinkedSession" : "",
                            "clipSpeedAttribute" : { "type": "bool", "value" : false},
                            "colorAttribute" : { "type": "color", "value" : [ 0, 0, 0, 0]},
                            "default-height" : { "type": "double", "value" : 1036.8},
                            "default-translation0" : { "type": "double", "value" : 0.0},
                            "default-translation1" : { "type": "double", "value" : -194.4},
                            "default-translation2" : { "type": "double", "value" : 0.0},
                            "default-width" : { "type": "double", "value" : 1932.67572815534}
                          },
                          "animationTracks" : {

                          }
                        },
                        {
                          "id" : 194,
                          "_type" : "ScreenVMFile",
                          "src" : 2,
                          "trackNumber" : 0,
                          "attributes" : {
                            "ident" : "Rec 4-22-2025-8-51-30-PM"
                          },
                          "parameters" : {
                            "geometryCrop0" : {
                              "type" : "double",
                              "defaultValue" : 0.0,
                              "interp" : "eioe"
                            },
                            "geometryCrop1" : {
                              "type" : "double",
                              "defaultValue" : 0.0,
                              "interp" : "eioe"
                            },
                            "geometryCrop2" : {
                              "type" : "double",
                              "defaultValue" : 0.0,
                              "interp" : "eioe"
                            },
                            "geometryCrop3" : {
                              "type" : "double",
                              "defaultValue" : 0.0,
                              "interp" : "eioe"
                            },
                            "cursorScale" : {
                              "type" : "double",
                              "defaultValue" : 0.0,
                              "interp" : "linr"
                            },
                            "cursorOpacity" : {
                              "type" : "double",
                              "defaultValue" : 0.0,
                              "interp" : "linr"
                            },
                            "cursorTrackLevel" : {
                              "type" : "double",
                              "defaultValue" : 0.0,
                              "interp" : "linr"
                            },
                            "smoothCursorAcrossEditDuration" : 0
                          },
                          "effects" : [

                          ],
                          "start" : 458898720000,
                          "duration" : 581226240000,
                          "mediaStart" : 1416350880000,
                          "mediaDuration" : 581226240000,
                          "scalar" : 1,
                          "metadata" : {
                            "AutoAppliedSmartFocus" : "False",
                            "audiateLinkedSession" : "",
                            "clipSpeedAttribute" : { "type": "bool", "value" : false},
                            "colorAttribute" : { "type": "color", "value" : [ 0, 0, 0, 0]},
                            "default-height" : { "type": "double", "value" : 1036.8},
                            "default-translation0" : { "type": "double", "value" : 0.0},
                            "default-translation1" : { "type": "double", "value" : -194.4},
                            "default-translation2" : { "type": "double", "value" : 0.0},
                            "default-width" : { "type": "double", "value" : 1932.67572815534}
                          },
                          "animationTracks" : {

                          }
                        },
                        {
                          "id" : 195,
                          "_type" : "ScreenVMFile",
                          "src" : 2,
                          "trackNumber" : 0,
                          "attributes" : {
                            "ident" : "Rec 4-22-2025-8-51-30-PM"
                          },
                          "parameters" : {
                            "geometryCrop0" : {
                              "type" : "double",
                              "defaultValue" : 0.0,
                              "interp" : "eioe"
                            },
                            "geometryCrop1" : {
                              "type" : "double",
                              "defaultValue" : 0.0,
                              "interp" : "eioe"
                            },
                            "geometryCrop2" : {
                              "type" : "double",
                              "defaultValue" : 0.0,
                              "interp" : "eioe"
                            },
                            "geometryCrop3" : {
                              "type" : "double",
                              "defaultValue" : 0.0,
                              "interp" : "eioe"
                            },
                            "cursorScale" : {
                              "type" : "double",
                              "defaultValue" : 0.0,
                              "interp" : "linr"
                            },
                            "cursorOpacity" : {
                              "type" : "double",
                              "defaultValue" : 0.0,
                              "interp" : "linr"
                            },
                            "cursorTrackLevel" : {
                              "type" : "double",
                              "defaultValue" : 0.0,
                              "interp" : "linr"
                            },
                            "smoothCursorAcrossEditDuration" : 0
                          },
                          "effects" : [

                          ],
                          "start" : 1040124960000,
                          "duration" : 215419680000,
                          "mediaStart" : 2018886240000,
                          "mediaDuration" : 215419680000,
                          "scalar" : 1,
                          "metadata" : {
                            "AutoAppliedSmartFocus" : "False",
                            "audiateLinkedSession" : "",
                            "clipSpeedAttribute" : { "type": "bool", "value" : false},
                            "colorAttribute" : { "type": "color", "value" : [ 0, 0, 0, 0]},
                            "default-height" : { "type": "double", "value" : 1036.8},
                            "default-translation0" : { "type": "double", "value" : 0.0},
                            "default-translation1" : { "type": "double", "value" : -194.4},
                            "default-translation2" : { "type": "double", "value" : 0.0},
                            "default-width" : { "type": "double", "value" : 1932.67572815534}
                          },
                          "animationTracks" : {

                          }
                        },
                        {
                          "id" : 196,
                          "_type" : "ScreenVMFile",
                          "src" : 2,
                          "trackNumber" : 0,
                          "attributes" : {
                            "ident" : "Rec 4-22-2025-8-51-30-PM"
                          },
                          "parameters" : {
                            "geometryCrop0" : {
                              "type" : "double",
                              "defaultValue" : 0.0,
                              "interp" : "eioe"
                            },
                            "geometryCrop1" : {
                              "type" : "double",
                              "defaultValue" : 0.0,
                              "interp" : "eioe"
                            },
                            "geometryCrop2" : {
                              "type" : "double",
                              "defaultValue" : 0.0,
                              "interp" : "eioe"
                            },
                            "geometryCrop3" : {
                              "type" : "double",
                              "defaultValue" : 0.0,
                              "interp" : "eioe"
                            },
                            "cursorScale" : {
                              "type" : "double",
                              "defaultValue" : 0.0,
                              "interp" : "linr"
                            },
                            "cursorOpacity" : {
                              "type" : "double",
                              "defaultValue" : 0.0,
                              "interp" : "linr"
                            },
                            "cursorTrackLevel" : {
                              "type" : "double",
                              "defaultValue" : 0.0,
                              "interp" : "linr"
                            },
                            "smoothCursorAcrossEditDuration" : 0
                          },
                          "effects" : [

                          ],
                          "start" : 1255544640000,
                          "duration" : 786955680000,
                          "mediaStart" : 2257778880000,
                          "mediaDuration" : 786955680000,
                          "scalar" : 1,
                          "metadata" : {
                            "AutoAppliedSmartFocus" : "False",
                            "audiateLinkedSession" : "",
                            "clipSpeedAttribute" : { "type": "bool", "value" : false},
                            "colorAttribute" : { "type": "color", "value" : [ 0, 0, 0, 0]},
                            "default-height" : { "type": "double", "value" : 1036.8},
                            "default-translation0" : { "type": "double", "value" : 0.0},
                            "default-translation1" : { "type": "double", "value" : -194.4},
                            "default-translation2" : { "type": "double", "value" : 0.0},
                            "default-width" : { "type": "double", "value" : 1932.67572815534}
                          },
                          "animationTracks" : {

                          }
                        },
                        {
                          "id" : 197,
                          "_type" : "ScreenVMFile",
                          "src" : 2,
                          "trackNumber" : 0,
                          "attributes" : {
                            "ident" : "Rec 4-22-2025-8-51-30-PM"
                          },
                          "parameters" : {
                            "geometryCrop0" : {
                              "type" : "double",
                              "defaultValue" : 0.0,
                              "interp" : "eioe"
                            },
                            "geometryCrop1" : {
                              "type" : "double",
                              "defaultValue" : 0.0,
                              "interp" : "eioe"
                            },
                            "geometryCrop2" : {
                              "type" : "double",
                              "defaultValue" : 0.0,
                              "interp" : "eioe"
                            },
                            "geometryCrop3" : {
                              "type" : "double",
                              "defaultValue" : 0.0,
                              "interp" : "eioe"
                            },
                            "cursorScale" : {
                              "type" : "double",
                              "defaultValue" : 0.0,
                              "interp" : "linr"
                            },
                            "cursorOpacity" : {
                              "type" : "double",
                              "defaultValue" : 0.0,
                              "interp" : "linr"
                            },
                            "cursorTrackLevel" : {
                              "type" : "double",
                              "defaultValue" : 0.0,
                              "interp" : "linr"
                            },
                            "smoothCursorAcrossEditDuration" : 0
                          },
                          "effects" : [

                          ],
                          "start" : 2042500320000,
                          "duration" : 20768160000,
                          "mediaStart" : 3047580480000,
                          "mediaDuration" : 20768160000,
                          "scalar" : 1,
                          "metadata" : {
                            "AutoAppliedSmartFocus" : "False",
                            "audiateLinkedSession" : "",
                            "clipSpeedAttribute" : { "type": "bool", "value" : false},
                            "colorAttribute" : { "type": "color", "value" : [ 0, 0, 0, 0]},
                            "default-height" : { "type": "double", "value" : 1036.8},
                            "default-translation0" : { "type": "double", "value" : 0.0},
                            "default-translation1" : { "type": "double", "value" : -194.4},
                            "default-translation2" : { "type": "double", "value" : 0.0},
                            "default-width" : { "type": "double", "value" : 1932.67572815534}
                          },
                          "animationTracks" : {

                          }
                        },
                        {
                          "id" : 198,
                          "_type" : "ScreenVMFile",
                          "src" : 2,
                          "trackNumber" : 0,
                          "attributes" : {
                            "ident" : "Rec 4-22-2025-8-51-30-PM"
                          },
                          "parameters" : {
                            "geometryCrop0" : {
                              "type" : "double",
                              "defaultValue" : 0.0,
                              "interp" : "eioe"
                            },
                            "geometryCrop1" : {
                              "type" : "double",
                              "defaultValue" : 0.0,
                              "interp" : "eioe"
                            },
                            "geometryCrop2" : {
                              "type" : "double",
                              "defaultValue" : 0.0,
                              "interp" : "eioe"
                            },
                            "geometryCrop3" : {
                              "type" : "double",
                              "defaultValue" : 0.0,
                              "interp" : "eioe"
                            },
                            "cursorScale" : {
                              "type" : "double",
                              "defaultValue" : 0.0,
                              "interp" : "linr"
                            },
                            "cursorOpacity" : {
                              "type" : "double",
                              "defaultValue" : 0.0,
                              "interp" : "linr"
                            },
                            "cursorTrackLevel" : {
                              "type" : "double",
                              "defaultValue" : 0.0,
                              "interp" : "linr"
                            },
                            "smoothCursorAcrossEditDuration" : 0
                          },
                          "effects" : [

                          ],
                          "start" : 2063268480000,
                          "duration" : 343039200000,
                          "mediaStart" : 3138932160000,
                          "mediaDuration" : 343039200000,
                          "scalar" : 1,
                          "metadata" : {
                            "AutoAppliedSmartFocus" : "False",
                            "audiateLinkedSession" : "",
                            "clipSpeedAttribute" : { "type": "bool", "value" : false},
                            "colorAttribute" : { "type": "color", "value" : [ 0, 0, 0, 0]},
                            "default-height" : { "type": "double", "value" : 1036.8},
                            "default-translation0" : { "type": "double", "value" : 0.0},
                            "default-translation1" : { "type": "double", "value" : -194.4},
                            "default-translation2" : { "type": "double", "value" : 0.0},
                            "default-width" : { "type": "double", "value" : 1932.67572815534}
                          },
                          "animationTracks" : {

                          }
                        }
                    ],
                    "effects" : [
                        {
                          "effectName" : "CursorColor",
                          "bypassed" : false,
                          "category" : "categoryCursorEffects",
                          "parameters" : {
                            "intensity" : 1.0,
                            "desaturation" : 0.0,
                            "colorLumaCutoff" : 1.0,
                            "color-alpha" : 1.0,
                            "color-red" : 1.0,
                            "color-green" : 0.8980392157,
                            "color-blue" : 0.1215686275,
                            "secondColor-red" : 0.0,
                            "secondColor-green" : 0.0,
                            "secondColor-blue" : 0.0,
                            "secondColor-alpha" : 1.0,
                            "secondColorLumaCutoff" : 0.0,
                            "channel" : 0,
                            "shadowRampStart" : 0.0,
                            "shadowRampEnd" : 0.0,
                            "highlightRampStart" : 1.0,
                            "highlightRampEnd" : 1.0
                          }
                        },
                        {
                          "effectName" : "CursorShadow",
                          "bypassed" : false,
                          "category" : "categoryCursorEffects",
                          "parameters" : {
                            "angle" : 3.92699081698724,
                            "enabled" : 1,
                            "offset" : 5.0,
                            "blur" : 2.0,
                            "opacity" : 0.25,
                            "color-red" : 0.0,
                            "color-green" : 0.0,
                            "color-blue" : 0.0,
                            "color-alpha" : 1.0
                          }
                        },
                        {
                          "effectName" : "CursorHilight",
                          "bypassed" : false,
                          "category" : "categoryCursorEffects",
                          "parameters" : {
                            "radius" : 50.0,
                            "color-red" : 1.0,
                            "color-green" : 1.0,
                            "color-blue" : 0.0,
                            "color-alpha" : 0.75,
                            "blur" : 0.1
                          }
                        }
                    ],
                    "start" : 49822188387,
                    "duration" : 3034080000,
                    "mediaStart" : 259778400000,
                    "mediaDuration" : 14017920000,
                    "scalar" : "129/596",
                    "metadata" : {
                      "AutoAppliedSmartFocus" : "False",
                      "audiateLinkedSession" : "",
                      "clipSpeedAttribute" : { "type": "bool", "value" : true},
                      "colorAttribute" : { "type": "color", "value" : [ 0, 0, 0, 0]},
                      "default-height" : { "type": "double", "value" : 1036.8},
                      "default-translation0" : { "type": "double", "value" : 0.0},
                      "default-translation1" : { "type": "double", "value" : -194.4},
                      "default-translation2" : { "type": "double", "value" : 0.0},
                      "default-width" : { "type": "double", "value" : 1932.67572815534}
                    },
                    "animationTracks" : {

                    }
                  },
                  {
                    "id" : 199,
                    "_type" : "StitchedMedia",
                    "minMediaStart" : 0,
                    "attributes" : {
                      "ident" : "Rec 4-22-2025-8-51-30-PM",
                      "gain" : 1.0,
                      "mixToMono" : false,
                      "loudnessNormalization" : true,
                      "sourceFileOffset" : 0
                    },
                    "parameters" : {
                      "translation0" : 6.33786407766917,
                      "translation1" : -2.8421709430404e-14,
                      "scale0" : 0.503300970873786,
                      "scale1" : 0.503300970873786,
                      "geometryCrop0" : 0.0,
                      "geometryCrop1" : 0.0,
                      "geometryCrop2" : 0.0,
                      "geometryCrop3" : 0.0,
                      "toc" : {
                        "type" : "string",
                        "keyframes" : [
                          {
                            "endTime" : 278006400000,
                            "time" : 278006400000,
                            "value" : "open LabVIEW project",
                            "duration" : 0,
                            "metadata" : {
                              "markerIdentifier" : "25682B13-CA5D-4322-A00B-534ADA02E0EC"
                            }
                          }
                        ]
                      },
                      "cursorOpacity" : 1.0,
                      "cursorTrackLevel" : 0.0,
                      "cursorScale" : 5.0,
                      "smoothCursorAcrossEditDuration" : 0
                    },
                    "medias" : [
                        {
                          "id" : 200,
                          "_type" : "ScreenVMFile",
                          "src" : 2,
                          "trackNumber" : 0,
                          "attributes" : {
                            "ident" : "Rec 4-22-2025-8-51-30-PM"
                          },
                          "parameters" : {
                            "geometryCrop0" : {
                              "type" : "double",
                              "defaultValue" : 0.0,
                              "interp" : "eioe"
                            },
                            "geometryCrop1" : {
                              "type" : "double",
                              "defaultValue" : 0.0,
                              "interp" : "eioe"
                            },
                            "geometryCrop2" : {
                              "type" : "double",
                              "defaultValue" : 0.0,
                              "interp" : "eioe"
                            },
                            "geometryCrop3" : {
                              "type" : "double",
                              "defaultValue" : 0.0,
                              "interp" : "eioe"
                            },
                            "cursorScale" : {
                              "type" : "double",
                              "defaultValue" : 0.0,
                              "interp" : "linr"
                            },
                            "cursorOpacity" : {
                              "type" : "double",
                              "defaultValue" : 0.0,
                              "interp" : "linr"
                            },
                            "cursorTrackLevel" : {
                              "type" : "double",
                              "defaultValue" : 0.0,
                              "interp" : "linr"
                            },
                            "smoothCursorAcrossEditDuration" : 0
                          },
                          "effects" : [

                          ],
                          "start" : 0,
                          "duration" : 50991360000,
                          "mediaStart" : 0,
                          "mediaDuration" : 50991360000,
                          "scalar" : 1,
                          "metadata" : {
                            "AutoAppliedSmartFocus" : "False",
                            "audiateLinkedSession" : "",
                            "clipSpeedAttribute" : { "type": "bool", "value" : false},
                            "colorAttribute" : { "type": "color", "value" : [ 0, 0, 0, 0]},
                            "default-height" : { "type": "double", "value" : 1036.8},
                            "default-translation0" : { "type": "double", "value" : 0.0},
                            "default-translation1" : { "type": "double", "value" : -194.4},
                            "default-translation2" : { "type": "double", "value" : 0.0},
                            "default-width" : { "type": "double", "value" : 1932.67572815534}
                          },
                          "animationTracks" : {

                          }
                        },
                        {
                          "id" : 201,
                          "_type" : "ScreenVMFile",
                          "src" : 2,
                          "trackNumber" : 0,
                          "attributes" : {
                            "ident" : "Rec 4-22-2025-8-51-30-PM"
                          },
                          "parameters" : {
                            "geometryCrop0" : {
                              "type" : "double",
                              "defaultValue" : 0.0,
                              "interp" : "eioe"
                            },
                            "geometryCrop1" : {
                              "type" : "double",
                              "defaultValue" : 0.0,
                              "interp" : "eioe"
                            },
                            "geometryCrop2" : {
                              "type" : "double",
                              "defaultValue" : 0.0,
                              "interp" : "eioe"
                            },
                            "geometryCrop3" : {
                              "type" : "double",
                              "defaultValue" : 0.0,
                              "interp" : "eioe"
                            },
                            "cursorScale" : {
                              "type" : "double",
                              "defaultValue" : 0.0,
                              "interp" : "linr"
                            },
                            "cursorOpacity" : {
                              "type" : "double",
                              "defaultValue" : 0.0,
                              "interp" : "linr"
                            },
                            "cursorTrackLevel" : {
                              "type" : "double",
                              "defaultValue" : 0.0,
                              "interp" : "linr"
                            },
                            "smoothCursorAcrossEditDuration" : 0
                          },
                          "effects" : [

                          ],
                          "start" : 50991360000,
                          "duration" : 46663680000,
                          "mediaStart" : 66467520000,
                          "mediaDuration" : 46663680000,
                          "scalar" : 1,
                          "metadata" : {
                            "AutoAppliedSmartFocus" : "False",
                            "audiateLinkedSession" : "",
                            "clipSpeedAttribute" : { "type": "bool", "value" : false},
                            "colorAttribute" : { "type": "color", "value" : [ 0, 0, 0, 0]},
                            "default-height" : { "type": "double", "value" : 1036.8},
                            "default-translation0" : { "type": "double", "value" : 0.0},
                            "default-translation1" : { "type": "double", "value" : -194.4},
                            "default-translation2" : { "type": "double", "value" : 0.0},
                            "default-width" : { "type": "double", "value" : 1932.67572815534}
                          },
                          "animationTracks" : {

                          }
                        },
                        {
                          "id" : 202,
                          "_type" : "ScreenVMFile",
                          "src" : 2,
                          "trackNumber" : 0,
                          "attributes" : {
                            "ident" : "Rec 4-22-2025-8-51-30-PM"
                          },
                          "parameters" : {
                            "geometryCrop0" : {
                              "type" : "double",
                              "defaultValue" : 0.0,
                              "interp" : "eioe"
                            },
                            "geometryCrop1" : {
                              "type" : "double",
                              "defaultValue" : 0.0,
                              "interp" : "eioe"
                            },
                            "geometryCrop2" : {
                              "type" : "double",
                              "defaultValue" : 0.0,
                              "interp" : "eioe"
                            },
                            "geometryCrop3" : {
                              "type" : "double",
                              "defaultValue" : 0.0,
                              "interp" : "eioe"
                            },
                            "cursorScale" : {
                              "type" : "double",
                              "defaultValue" : 0.0,
                              "interp" : "linr"
                            },
                            "cursorOpacity" : {
                              "type" : "double",
                              "defaultValue" : 0.0,
                              "interp" : "linr"
                            },
                            "cursorTrackLevel" : {
                              "type" : "double",
                              "defaultValue" : 0.0,
                              "interp" : "linr"
                            },
                            "smoothCursorAcrossEditDuration" : 0
                          },
                          "effects" : [

                          ],
                          "start" : 97655040000,
                          "duration" : 352282560000,
                          "mediaStart" : 149352000000,
                          "mediaDuration" : 352282560000,
                          "scalar" : 1,
                          "metadata" : {
                            "AutoAppliedSmartFocus" : "False",
                            "audiateLinkedSession" : "",
                            "clipSpeedAttribute" : { "type": "bool", "value" : false},
                            "colorAttribute" : { "type": "color", "value" : [ 0, 0, 0, 0]},
                            "default-height" : { "type": "double", "value" : 1036.8},
                            "default-translation0" : { "type": "double", "value" : 0.0},
                            "default-translation1" : { "type": "double", "value" : -194.4},
                            "default-translation2" : { "type": "double", "value" : 0.0},
                            "default-width" : { "type": "double", "value" : 1932.67572815534}
                          },
                          "animationTracks" : {

                          }
                        },
                        {
                          "id" : 203,
                          "_type" : "ScreenVMFile",
                          "src" : 2,
                          "trackNumber" : 0,
                          "attributes" : {
                            "ident" : "Rec 4-22-2025-8-51-30-PM"
                          },
                          "parameters" : {
                            "geometryCrop0" : {
                              "type" : "double",
                              "defaultValue" : 0.0,
                              "interp" : "eioe"
                            },
                            "geometryCrop1" : {
                              "type" : "double",
                              "defaultValue" : 0.0,
                              "interp" : "eioe"
                            },
                            "geometryCrop2" : {
                              "type" : "double",
                              "defaultValue" : 0.0,
                              "interp" : "eioe"
                            },
                            "geometryCrop3" : {
                              "type" : "double",
                              "defaultValue" : 0.0,
                              "interp" : "eioe"
                            },
                            "cursorScale" : {
                              "type" : "double",
                              "defaultValue" : 0.0,
                              "interp" : "linr"
                            },
                            "cursorOpacity" : {
                              "type" : "double",
                              "defaultValue" : 0.0,
                              "interp" : "linr"
                            },
                            "cursorTrackLevel" : {
                              "type" : "double",
                              "defaultValue" : 0.0,
                              "interp" : "linr"
                            },
                            "smoothCursorAcrossEditDuration" : 0
                          },
                          "effects" : [

                          ],
                          "start" : 449937600000,
                          "duration" : 8961120000,
                          "mediaStart" : 509843040000,
                          "mediaDuration" : 8961120000,
                          "scalar" : 1,
                          "metadata" : {
                            "AutoAppliedSmartFocus" : "False",
                            "audiateLinkedSession" : "",
                            "clipSpeedAttribute" : { "type": "bool", "value" : false},
                            "colorAttribute" : { "type": "color", "value" : [ 0, 0, 0, 0]},
                            "default-height" : { "type": "double", "value" : 1036.8},
                            "default-translation0" : { "type": "double", "value" : 0.0},
                            "default-translation1" : { "type": "double", "value" : -194.4},
                            "default-translation2" : { "type": "double", "value" : 0.0},
                            "default-width" : { "type": "double", "value" : 1932.67572815534}
                          },
                          "animationTracks" : {

                          }
                        },
                        {
                          "id" : 204,
                          "_type" : "ScreenVMFile",
                          "src" : 2,
                          "trackNumber" : 0,
                          "attributes" : {
                            "ident" : "Rec 4-22-2025-8-51-30-PM"
                          },
                          "parameters" : {
                            "geometryCrop0" : {
                              "type" : "double",
                              "defaultValue" : 0.0,
                              "interp" : "eioe"
                            },
                            "geometryCrop1" : {
                              "type" : "double",
                              "defaultValue" : 0.0,
                              "interp" : "eioe"
                            },
                            "geometryCrop2" : {
                              "type" : "double",
                              "defaultValue" : 0.0,
                              "interp" : "eioe"
                            },
                            "geometryCrop3" : {
                              "type" : "double",
                              "defaultValue" : 0.0,
                              "interp" : "eioe"
                            },
                            "cursorScale" : {
                              "type" : "double",
                              "defaultValue" : 0.0,
                              "interp" : "linr"
                            },
                            "cursorOpacity" : {
                              "type" : "double",
                              "defaultValue" : 0.0,
                              "interp" : "linr"
                            },
                            "cursorTrackLevel" : {
                              "type" : "double",
                              "defaultValue" : 0.0,
                              "interp" : "linr"
                            },
                            "smoothCursorAcrossEditDuration" : 0
                          },
                          "effects" : [

                          ],
                          "start" : 458898720000,
                          "duration" : 581226240000,
                          "mediaStart" : 1416350880000,
                          "mediaDuration" : 581226240000,
                          "scalar" : 1,
                          "metadata" : {
                            "AutoAppliedSmartFocus" : "False",
                            "audiateLinkedSession" : "",
                            "clipSpeedAttribute" : { "type": "bool", "value" : false},
                            "colorAttribute" : { "type": "color", "value" : [ 0, 0, 0, 0]},
                            "default-height" : { "type": "double", "value" : 1036.8},
                            "default-translation0" : { "type": "double", "value" : 0.0},
                            "default-translation1" : { "type": "double", "value" : -194.4},
                            "default-translation2" : { "type": "double", "value" : 0.0},
                            "default-width" : { "type": "double", "value" : 1932.67572815534}
                          },
                          "animationTracks" : {

                          }
                        },
                        {
                          "id" : 205,
                          "_type" : "ScreenVMFile",
                          "src" : 2,
                          "trackNumber" : 0,
                          "attributes" : {
                            "ident" : "Rec 4-22-2025-8-51-30-PM"
                          },
                          "parameters" : {
                            "geometryCrop0" : {
                              "type" : "double",
                              "defaultValue" : 0.0,
                              "interp" : "eioe"
                            },
                            "geometryCrop1" : {
                              "type" : "double",
                              "defaultValue" : 0.0,
                              "interp" : "eioe"
                            },
                            "geometryCrop2" : {
                              "type" : "double",
                              "defaultValue" : 0.0,
                              "interp" : "eioe"
                            },
                            "geometryCrop3" : {
                              "type" : "double",
                              "defaultValue" : 0.0,
                              "interp" : "eioe"
                            },
                            "cursorScale" : {
                              "type" : "double",
                              "defaultValue" : 0.0,
                              "interp" : "linr"
                            },
                            "cursorOpacity" : {
                              "type" : "double",
                              "defaultValue" : 0.0,
                              "interp" : "linr"
                            },
                            "cursorTrackLevel" : {
                              "type" : "double",
                              "defaultValue" : 0.0,
                              "interp" : "linr"
                            },
                            "smoothCursorAcrossEditDuration" : 0
                          },
                          "effects" : [

                          ],
                          "start" : 1040124960000,
                          "duration" : 215419680000,
                          "mediaStart" : 2018886240000,
                          "mediaDuration" : 215419680000,
                          "scalar" : 1,
                          "metadata" : {
                            "AutoAppliedSmartFocus" : "False",
                            "audiateLinkedSession" : "",
                            "clipSpeedAttribute" : { "type": "bool", "value" : false},
                            "colorAttribute" : { "type": "color", "value" : [ 0, 0, 0, 0]},
                            "default-height" : { "type": "double", "value" : 1036.8},
                            "default-translation0" : { "type": "double", "value" : 0.0},
                            "default-translation1" : { "type": "double", "value" : -194.4},
                            "default-translation2" : { "type": "double", "value" : 0.0},
                            "default-width" : { "type": "double", "value" : 1932.67572815534}
                          },
                          "animationTracks" : {

                          }
                        },
                        {
                          "id" : 206,
                          "_type" : "ScreenVMFile",
                          "src" : 2,
                          "trackNumber" : 0,
                          "attributes" : {
                            "ident" : "Rec 4-22-2025-8-51-30-PM"
                          },
                          "parameters" : {
                            "geometryCrop0" : {
                              "type" : "double",
                              "defaultValue" : 0.0,
                              "interp" : "eioe"
                            },
                            "geometryCrop1" : {
                              "type" : "double",
                              "defaultValue" : 0.0,
                              "interp" : "eioe"
                            },
                            "geometryCrop2" : {
                              "type" : "double",
                              "defaultValue" : 0.0,
                              "interp" : "eioe"
                            },
                            "geometryCrop3" : {
                              "type" : "double",
                              "defaultValue" : 0.0,
                              "interp" : "eioe"
                            },
                            "cursorScale" : {
                              "type" : "double",
                              "defaultValue" : 0.0,
                              "interp" : "linr"
                            },
                            "cursorOpacity" : {
                              "type" : "double",
                              "defaultValue" : 0.0,
                              "interp" : "linr"
                            },
                            "cursorTrackLevel" : {
                              "type" : "double",
                              "defaultValue" : 0.0,
                              "interp" : "linr"
                            },
                            "smoothCursorAcrossEditDuration" : 0
                          },
                          "effects" : [

                          ],
                          "start" : 1255544640000,
                          "duration" : 786955680000,
                          "mediaStart" : 2257778880000,
                          "mediaDuration" : 786955680000,
                          "scalar" : 1,
                          "metadata" : {
                            "AutoAppliedSmartFocus" : "False",
                            "audiateLinkedSession" : "",
                            "clipSpeedAttribute" : { "type": "bool", "value" : false},
                            "colorAttribute" : { "type": "color", "value" : [ 0, 0, 0, 0]},
                            "default-height" : { "type": "double", "value" : 1036.8},
                            "default-translation0" : { "type": "double", "value" : 0.0},
                            "default-translation1" : { "type": "double", "value" : -194.4},
                            "default-translation2" : { "type": "double", "value" : 0.0},
                            "default-width" : { "type": "double", "value" : 1932.67572815534}
                          },
                          "animationTracks" : {

                          }
                        },
                        {
                          "id" : 207,
                          "_type" : "ScreenVMFile",
                          "src" : 2,
                          "trackNumber" : 0,
                          "attributes" : {
                            "ident" : "Rec 4-22-2025-8-51-30-PM"
                          },
                          "parameters" : {
                            "geometryCrop0" : {
                              "type" : "double",
                              "defaultValue" : 0.0,
                              "interp" : "eioe"
                            },
                            "geometryCrop1" : {
                              "type" : "double",
                              "defaultValue" : 0.0,
                              "interp" : "eioe"
                            },
                            "geometryCrop2" : {
                              "type" : "double",
                              "defaultValue" : 0.0,
                              "interp" : "eioe"
                            },
                            "geometryCrop3" : {
                              "type" : "double",
                              "defaultValue" : 0.0,
                              "interp" : "eioe"
                            },
                            "cursorScale" : {
                              "type" : "double",
                              "defaultValue" : 0.0,
                              "interp" : "linr"
                            },
                            "cursorOpacity" : {
                              "type" : "double",
                              "defaultValue" : 0.0,
                              "interp" : "linr"
                            },
                            "cursorTrackLevel" : {
                              "type" : "double",
                              "defaultValue" : 0.0,
                              "interp" : "linr"
                            },
                            "smoothCursorAcrossEditDuration" : 0
                          },
                          "effects" : [

                          ],
                          "start" : 2042500320000,
                          "duration" : 20768160000,
                          "mediaStart" : 3047580480000,
                          "mediaDuration" : 20768160000,
                          "scalar" : 1,
                          "metadata" : {
                            "AutoAppliedSmartFocus" : "False",
                            "audiateLinkedSession" : "",
                            "clipSpeedAttribute" : { "type": "bool", "value" : false},
                            "colorAttribute" : { "type": "color", "value" : [ 0, 0, 0, 0]},
                            "default-height" : { "type": "double", "value" : 1036.8},
                            "default-translation0" : { "type": "double", "value" : 0.0},
                            "default-translation1" : { "type": "double", "value" : -194.4},
                            "default-translation2" : { "type": "double", "value" : 0.0},
                            "default-width" : { "type": "double", "value" : 1932.67572815534}
                          },
                          "animationTracks" : {

                          }
                        },
                        {
                          "id" : 208,
                          "_type" : "ScreenVMFile",
                          "src" : 2,
                          "trackNumber" : 0,
                          "attributes" : {
                            "ident" : "Rec 4-22-2025-8-51-30-PM"
                          },
                          "parameters" : {
                            "geometryCrop0" : {
                              "type" : "double",
                              "defaultValue" : 0.0,
                              "interp" : "eioe"
                            },
                            "geometryCrop1" : {
                              "type" : "double",
                              "defaultValue" : 0.0,
                              "interp" : "eioe"
                            },
                            "geometryCrop2" : {
                              "type" : "double",
                              "defaultValue" : 0.0,
                              "interp" : "eioe"
                            },
                            "geometryCrop3" : {
                              "type" : "double",
                              "defaultValue" : 0.0,
                              "interp" : "eioe"
                            },
                            "cursorScale" : {
                              "type" : "double",
                              "defaultValue" : 0.0,
                              "interp" : "linr"
                            },
                            "cursorOpacity" : {
                              "type" : "double",
                              "defaultValue" : 0.0,
                              "interp" : "linr"
                            },
                            "cursorTrackLevel" : {
                              "type" : "double",
                              "defaultValue" : 0.0,
                              "interp" : "linr"
                            },
                            "smoothCursorAcrossEditDuration" : 0
                          },
                          "effects" : [

                          ],
                          "start" : 2063268480000,
                          "duration" : 343039200000,
                          "mediaStart" : 3138932160000,
                          "mediaDuration" : 343039200000,
                          "scalar" : 1,
                          "metadata" : {
                            "AutoAppliedSmartFocus" : "False",
                            "audiateLinkedSession" : "",
                            "clipSpeedAttribute" : { "type": "bool", "value" : false},
                            "colorAttribute" : { "type": "color", "value" : [ 0, 0, 0, 0]},
                            "default-height" : { "type": "double", "value" : 1036.8},
                            "default-translation0" : { "type": "double", "value" : 0.0},
                            "default-translation1" : { "type": "double", "value" : -194.4},
                            "default-translation2" : { "type": "double", "value" : 0.0},
                            "default-width" : { "type": "double", "value" : 1932.67572815534}
                          },
                          "animationTracks" : {

                          }
                        }
                    ],
                    "effects" : [
                        {
                          "effectName" : "CursorColor",
                          "bypassed" : false,
                          "category" : "categoryCursorEffects",
                          "parameters" : {
                            "intensity" : 1.0,
                            "desaturation" : 0.0,
                            "colorLumaCutoff" : 1.0,
                            "color-alpha" : 1.0,
                            "color-red" : 1.0,
                            "color-green" : 0.8980392157,
                            "color-blue" : 0.1215686275,
                            "secondColor-red" : 0.0,
                            "secondColor-green" : 0.0,
                            "secondColor-blue" : 0.0,
                            "secondColor-alpha" : 1.0,
                            "secondColorLumaCutoff" : 0.0,
                            "channel" : 0,
                            "shadowRampStart" : 0.0,
                            "shadowRampEnd" : 0.0,
                            "highlightRampStart" : 1.0,
                            "highlightRampEnd" : 1.0
                          }
                        },
                        {
                          "effectName" : "CursorShadow",
                          "bypassed" : false,
                          "category" : "categoryCursorEffects",
                          "parameters" : {
                            "angle" : 3.92699081698724,
                            "enabled" : 1,
                            "offset" : 5.0,
                            "blur" : 2.0,
                            "opacity" : 0.25,
                            "color-red" : 0.0,
                            "color-green" : 0.0,
                            "color-blue" : 0.0,
                            "color-alpha" : 1.0
                          }
                        },
                        {
                          "effectName" : "CursorHilight",
                          "bypassed" : false,
                          "category" : "categoryCursorEffects",
                          "parameters" : {
                            "radius" : 50.0,
                            "color-red" : 1.0,
                            "color-green" : 1.0,
                            "color-blue" : 0.0,
                            "color-alpha" : 0.75,
                            "blur" : 0.1
                          }
                        }
                    ],
                    "start" : 52856268387,
                    "duration" : 3121331613,
                    "mediaStart" : 273796320000,
                    "mediaDuration" : "1766673692958/133",
                    "scalar" : "3121331613/13283260849",
                    "metadata" : {
                      "AutoAppliedSmartFocus" : "False",
                      "audiateLinkedSession" : "",
                      "clipSpeedAttribute" : { "type": "bool", "value" : true},
                      "colorAttribute" : { "type": "color", "value" : [ 0, 0, 0, 0]},
                      "default-height" : { "type": "double", "value" : 1036.8},
                      "default-translation0" : { "type": "double", "value" : 0.0},
                      "default-translation1" : { "type": "double", "value" : -194.4},
                      "default-translation2" : { "type": "double", "value" : 0.0},
                      "default-width" : { "type": "double", "value" : 1932.67572815534}
                    },
                    "animationTracks" : {

                    }
                  },
                  {
                    "id" : 209,
                    "_type" : "StitchedMedia",
                    "minMediaStart" : 0,
                    "attributes" : {
                      "ident" : "Rec 4-22-2025-8-51-30-PM",
                      "gain" : 1.0,
                      "mixToMono" : false,
                      "loudnessNormalization" : true,
                      "sourceFileOffset" : 0
                    },
                    "parameters" : {
                      "translation0" : 6.33786407766917,
                      "translation1" : -2.8421709430404e-14,
                      "scale0" : 0.503300970873786,
                      "scale1" : 0.503300970873786,
                      "geometryCrop0" : 0.0,
                      "geometryCrop1" : 0.0,
                      "geometryCrop2" : 0.0,
                      "geometryCrop3" : 0.0,
                      "cursorOpacity" : 1.0,
                      "cursorTrackLevel" : 0.0,
                      "cursorScale" : 5.0,
                      "smoothCursorAcrossEditDuration" : 0
                    },
                    "medias" : [
                        {
                          "id" : 210,
                          "_type" : "ScreenVMFile",
                          "src" : 2,
                          "trackNumber" : 0,
                          "attributes" : {
                            "ident" : "Rec 4-22-2025-8-51-30-PM"
                          },
                          "parameters" : {
                            "geometryCrop0" : {
                              "type" : "double",
                              "defaultValue" : 0.0,
                              "interp" : "eioe"
                            },
                            "geometryCrop1" : {
                              "type" : "double",
                              "defaultValue" : 0.0,
                              "interp" : "eioe"
                            },
                            "geometryCrop2" : {
                              "type" : "double",
                              "defaultValue" : 0.0,
                              "interp" : "eioe"
                            },
                            "geometryCrop3" : {
                              "type" : "double",
                              "defaultValue" : 0.0,
                              "interp" : "eioe"
                            },
                            "cursorScale" : {
                              "type" : "double",
                              "defaultValue" : 0.0,
                              "interp" : "linr"
                            },
                            "cursorOpacity" : {
                              "type" : "double",
                              "defaultValue" : 0.0,
                              "interp" : "linr"
                            },
                            "cursorTrackLevel" : {
                              "type" : "double",
                              "defaultValue" : 0.0,
                              "interp" : "linr"
                            },
                            "smoothCursorAcrossEditDuration" : 0
                          },
                          "effects" : [

                          ],
                          "start" : 0,
                          "duration" : 50991360000,
                          "mediaStart" : 0,
                          "mediaDuration" : 50991360000,
                          "scalar" : 1,
                          "metadata" : {
                            "AutoAppliedSmartFocus" : "False",
                            "audiateLinkedSession" : "",
                            "clipSpeedAttribute" : { "type": "bool", "value" : false},
                            "colorAttribute" : { "type": "color", "value" : [ 0, 0, 0, 0]},
                            "default-height" : { "type": "double", "value" : 1036.8},
                            "default-translation0" : { "type": "double", "value" : 0.0},
                            "default-translation1" : { "type": "double", "value" : -194.4},
                            "default-translation2" : { "type": "double", "value" : 0.0},
                            "default-width" : { "type": "double", "value" : 1932.67572815534}
                          },
                          "animationTracks" : {

                          }
                        },
                        {
                          "id" : 211,
                          "_type" : "ScreenVMFile",
                          "src" : 2,
                          "trackNumber" : 0,
                          "attributes" : {
                            "ident" : "Rec 4-22-2025-8-51-30-PM"
                          },
                          "parameters" : {
                            "geometryCrop0" : {
                              "type" : "double",
                              "defaultValue" : 0.0,
                              "interp" : "eioe"
                            },
                            "geometryCrop1" : {
                              "type" : "double",
                              "defaultValue" : 0.0,
                              "interp" : "eioe"
                            },
                            "geometryCrop2" : {
                              "type" : "double",
                              "defaultValue" : 0.0,
                              "interp" : "eioe"
                            },
                            "geometryCrop3" : {
                              "type" : "double",
                              "defaultValue" : 0.0,
                              "interp" : "eioe"
                            },
                            "cursorScale" : {
                              "type" : "double",
                              "defaultValue" : 0.0,
                              "interp" : "linr"
                            },
                            "cursorOpacity" : {
                              "type" : "double",
                              "defaultValue" : 0.0,
                              "interp" : "linr"
                            },
                            "cursorTrackLevel" : {
                              "type" : "double",
                              "defaultValue" : 0.0,
                              "interp" : "linr"
                            },
                            "smoothCursorAcrossEditDuration" : 0
                          },
                          "effects" : [

                          ],
                          "start" : 50991360000,
                          "duration" : 46663680000,
                          "mediaStart" : 66467520000,
                          "mediaDuration" : 46663680000,
                          "scalar" : 1,
                          "metadata" : {
                            "AutoAppliedSmartFocus" : "False",
                            "audiateLinkedSession" : "",
                            "clipSpeedAttribute" : { "type": "bool", "value" : false},
                            "colorAttribute" : { "type": "color", "value" : [ 0, 0, 0, 0]},
                            "default-height" : { "type": "double", "value" : 1036.8},
                            "default-translation0" : { "type": "double", "value" : 0.0},
                            "default-translation1" : { "type": "double", "value" : -194.4},
                            "default-translation2" : { "type": "double", "value" : 0.0},
                            "default-width" : { "type": "double", "value" : 1932.67572815534}
                          },
                          "animationTracks" : {

                          }
                        },
                        {
                          "id" : 212,
                          "_type" : "ScreenVMFile",
                          "src" : 2,
                          "trackNumber" : 0,
                          "attributes" : {
                            "ident" : "Rec 4-22-2025-8-51-30-PM"
                          },
                          "parameters" : {
                            "geometryCrop0" : {
                              "type" : "double",
                              "defaultValue" : 0.0,
                              "interp" : "eioe"
                            },
                            "geometryCrop1" : {
                              "type" : "double",
                              "defaultValue" : 0.0,
                              "interp" : "eioe"
                            },
                            "geometryCrop2" : {
                              "type" : "double",
                              "defaultValue" : 0.0,
                              "interp" : "eioe"
                            },
                            "geometryCrop3" : {
                              "type" : "double",
                              "defaultValue" : 0.0,
                              "interp" : "eioe"
                            },
                            "cursorScale" : {
                              "type" : "double",
                              "defaultValue" : 0.0,
                              "interp" : "linr"
                            },
                            "cursorOpacity" : {
                              "type" : "double",
                              "defaultValue" : 0.0,
                              "interp" : "linr"
                            },
                            "cursorTrackLevel" : {
                              "type" : "double",
                              "defaultValue" : 0.0,
                              "interp" : "linr"
                            },
                            "smoothCursorAcrossEditDuration" : 0
                          },
                          "effects" : [

                          ],
                          "start" : 97655040000,
                          "duration" : 197215200000,
                          "mediaStart" : 149352000000,
                          "mediaDuration" : 197215200000,
                          "scalar" : 1,
                          "metadata" : {
                            "AutoAppliedSmartFocus" : "False",
                            "audiateLinkedSession" : "",
                            "clipSpeedAttribute" : { "type": "bool", "value" : false},
                            "colorAttribute" : { "type": "color", "value" : [ 0, 0, 0, 0]},
                            "default-height" : { "type": "double", "value" : 1036.8},
                            "default-translation0" : { "type": "double", "value" : 0.0},
                            "default-translation1" : { "type": "double", "value" : -194.4},
                            "default-translation2" : { "type": "double", "value" : 0.0},
                            "default-width" : { "type": "double", "value" : 1932.67572815534}
                          },
                          "animationTracks" : {

                          }
                        },
                        {
                          "id" : 213,
                          "_type" : "ScreenVMFile",
                          "src" : 2,
                          "trackNumber" : 0,
                          "attributes" : {
                            "ident" : "Rec 4-22-2025-8-51-30-PM"
                          },
                          "parameters" : {
                            "geometryCrop0" : {
                              "type" : "double",
                              "defaultValue" : 0.0,
                              "interp" : "eioe"
                            },
                            "geometryCrop1" : {
                              "type" : "double",
                              "defaultValue" : 0.0,
                              "interp" : "eioe"
                            },
                            "geometryCrop2" : {
                              "type" : "double",
                              "defaultValue" : 0.0,
                              "interp" : "eioe"
                            },
                            "geometryCrop3" : {
                              "type" : "double",
                              "defaultValue" : 0.0,
                              "interp" : "eioe"
                            },
                            "cursorScale" : {
                              "type" : "double",
                              "defaultValue" : 0.0,
                              "interp" : "linr"
                            },
                            "cursorOpacity" : {
                              "type" : "double",
                              "defaultValue" : 0.0,
                              "interp" : "linr"
                            },
                            "cursorTrackLevel" : {
                              "type" : "double",
                              "defaultValue" : 0.0,
                              "interp" : "linr"
                            },
                            "smoothCursorAcrossEditDuration" : 0
                          },
                          "effects" : [

                          ],
                          "start" : 294870240000,
                          "duration" : 7502880000,
                          "mediaStart" : 346567200000,
                          "mediaDuration" : 7502880000,
                          "scalar" : 1,
                          "metadata" : {
                            "AutoAppliedSmartFocus" : "False",
                            "audiateLinkedSession" : "",
                            "clipSpeedAttribute" : { "type": "bool", "value" : false},
                            "colorAttribute" : { "type": "color", "value" : [ 0, 0, 0, 0]},
                            "default-height" : { "type": "double", "value" : 1036.8},
                            "default-translation0" : { "type": "double", "value" : 0.0},
                            "default-translation1" : { "type": "double", "value" : -194.4},
                            "default-translation2" : { "type": "double", "value" : 0.0},
                            "default-width" : { "type": "double", "value" : 1932.67572815534}
                          },
                          "animationTracks" : {

                          }
                        },
                        {
                          "id" : 214,
                          "_type" : "ScreenVMFile",
                          "src" : 2,
                          "trackNumber" : 0,
                          "attributes" : {
                            "ident" : "Rec 4-22-2025-8-51-30-PM"
                          },
                          "parameters" : {
                            "geometryCrop0" : {
                              "type" : "double",
                              "defaultValue" : 0.0,
                              "interp" : "eioe"
                            },
                            "geometryCrop1" : {
                              "type" : "double",
                              "defaultValue" : 0.0,
                              "interp" : "eioe"
                            },
                            "geometryCrop2" : {
                              "type" : "double",
                              "defaultValue" : 0.0,
                              "interp" : "eioe"
                            },
                            "geometryCrop3" : {
                              "type" : "double",
                              "defaultValue" : 0.0,
                              "interp" : "eioe"
                            },
                            "cursorScale" : {
                              "type" : "double",
                              "defaultValue" : 0.0,
                              "interp" : "linr"
                            },
                            "cursorOpacity" : {
                              "type" : "double",
                              "defaultValue" : 0.0,
                              "interp" : "linr"
                            },
                            "cursorTrackLevel" : {
                              "type" : "double",
                              "defaultValue" : 0.0,
                              "interp" : "linr"
                            },
                            "smoothCursorAcrossEditDuration" : 0
                          },
                          "effects" : [

                          ],
                          "start" : 302373120000,
                          "duration" : 24601920000,
                          "mediaStart" : 354070080000,
                          "mediaDuration" : 24601920000,
                          "scalar" : 1,
                          "metadata" : {
                            "AutoAppliedSmartFocus" : "False",
                            "audiateLinkedSession" : "",
                            "clipSpeedAttribute" : { "type": "bool", "value" : false},
                            "colorAttribute" : { "type": "color", "value" : [ 0, 0, 0, 0]},
                            "default-height" : { "type": "double", "value" : 1036.8},
                            "default-translation0" : { "type": "double", "value" : 0.0},
                            "default-translation1" : { "type": "double", "value" : -194.4},
                            "default-translation2" : { "type": "double", "value" : 0.0},
                            "default-width" : { "type": "double", "value" : 1932.67572815534}
                          },
                          "animationTracks" : {

                          }
                        },
                        {
                          "id" : 215,
                          "_type" : "ScreenVMFile",
                          "src" : 2,
                          "trackNumber" : 0,
                          "attributes" : {
                            "ident" : "Rec 4-22-2025-8-51-30-PM"
                          },
                          "parameters" : {
                            "geometryCrop0" : {
                              "type" : "double",
                              "defaultValue" : 0.0,
                              "interp" : "eioe"
                            },
                            "geometryCrop1" : {
                              "type" : "double",
                              "defaultValue" : 0.0,
                              "interp" : "eioe"
                            },
                            "geometryCrop2" : {
                              "type" : "double",
                              "defaultValue" : 0.0,
                              "interp" : "eioe"
                            },
                            "geometryCrop3" : {
                              "type" : "double",
                              "defaultValue" : 0.0,
                              "interp" : "eioe"
                            },
                            "cursorScale" : {
                              "type" : "double",
                              "defaultValue" : 0.0,
                              "interp" : "linr"
                            },
                            "cursorOpacity" : {
                              "type" : "double",
                              "defaultValue" : 0.0,
                              "interp" : "linr"
                            },
                            "cursorTrackLevel" : {
                              "type" : "double",
                              "defaultValue" : 0.0,
                              "interp" : "linr"
                            },
                            "smoothCursorAcrossEditDuration" : 0
                          },
                          "effects" : [

                          ],
                          "start" : 326975040000,
                          "duration" : 122962560000,
                          "mediaStart" : 378672000000,
                          "mediaDuration" : 122962560000,
                          "scalar" : 1,
                          "metadata" : {
                            "AutoAppliedSmartFocus" : "False",
                            "audiateLinkedSession" : "",
                            "clipSpeedAttribute" : { "type": "bool", "value" : false},
                            "colorAttribute" : { "type": "color", "value" : [ 0, 0, 0, 0]},
                            "default-height" : { "type": "double", "value" : 1036.8},
                            "default-translation0" : { "type": "double", "value" : 0.0},
                            "default-translation1" : { "type": "double", "value" : -194.4},
                            "default-translation2" : { "type": "double", "value" : 0.0},
                            "default-width" : { "type": "double", "value" : 1932.67572815534}
                          },
                          "animationTracks" : {

                          }
                        },
                        {
                          "id" : 216,
                          "_type" : "ScreenVMFile",
                          "src" : 2,
                          "trackNumber" : 0,
                          "attributes" : {
                            "ident" : "Rec 4-22-2025-8-51-30-PM"
                          },
                          "parameters" : {
                            "geometryCrop0" : {
                              "type" : "double",
                              "defaultValue" : 0.0,
                              "interp" : "eioe"
                            },
                            "geometryCrop1" : {
                              "type" : "double",
                              "defaultValue" : 0.0,
                              "interp" : "eioe"
                            },
                            "geometryCrop2" : {
                              "type" : "double",
                              "defaultValue" : 0.0,
                              "interp" : "eioe"
                            },
                            "geometryCrop3" : {
                              "type" : "double",
                              "defaultValue" : 0.0,
                              "interp" : "eioe"
                            },
                            "cursorScale" : {
                              "type" : "double",
                              "defaultValue" : 0.0,
                              "interp" : "linr"
                            },
                            "cursorOpacity" : {
                              "type" : "double",
                              "defaultValue" : 0.0,
                              "interp" : "linr"
                            },
                            "cursorTrackLevel" : {
                              "type" : "double",
                              "defaultValue" : 0.0,
                              "interp" : "linr"
                            },
                            "smoothCursorAcrossEditDuration" : 0
                          },
                          "effects" : [

                          ],
                          "start" : 449937600000,
                          "duration" : 8961120000,
                          "mediaStart" : 509843040000,
                          "mediaDuration" : 8961120000,
                          "scalar" : 1,
                          "metadata" : {
                            "AutoAppliedSmartFocus" : "False",
                            "audiateLinkedSession" : "",
                            "clipSpeedAttribute" : { "type": "bool", "value" : false},
                            "colorAttribute" : { "type": "color", "value" : [ 0, 0, 0, 0]},
                            "default-height" : { "type": "double", "value" : 1036.8},
                            "default-translation0" : { "type": "double", "value" : 0.0},
                            "default-translation1" : { "type": "double", "value" : -194.4},
                            "default-translation2" : { "type": "double", "value" : 0.0},
                            "default-width" : { "type": "double", "value" : 1932.67572815534}
                          },
                          "animationTracks" : {

                          }
                        },
                        {
                          "id" : 217,
                          "_type" : "ScreenVMFile",
                          "src" : 2,
                          "trackNumber" : 0,
                          "attributes" : {
                            "ident" : "Rec 4-22-2025-8-51-30-PM"
                          },
                          "parameters" : {
                            "geometryCrop0" : {
                              "type" : "double",
                              "defaultValue" : 0.0,
                              "interp" : "eioe"
                            },
                            "geometryCrop1" : {
                              "type" : "double",
                              "defaultValue" : 0.0,
                              "interp" : "eioe"
                            },
                            "geometryCrop2" : {
                              "type" : "double",
                              "defaultValue" : 0.0,
                              "interp" : "eioe"
                            },
                            "geometryCrop3" : {
                              "type" : "double",
                              "defaultValue" : 0.0,
                              "interp" : "eioe"
                            },
                            "cursorScale" : {
                              "type" : "double",
                              "defaultValue" : 0.0,
                              "interp" : "linr"
                            },
                            "cursorOpacity" : {
                              "type" : "double",
                              "defaultValue" : 0.0,
                              "interp" : "linr"
                            },
                            "cursorTrackLevel" : {
                              "type" : "double",
                              "defaultValue" : 0.0,
                              "interp" : "linr"
                            },
                            "smoothCursorAcrossEditDuration" : 0
                          },
                          "effects" : [

                          ],
                          "start" : 458898720000,
                          "duration" : 581226240000,
                          "mediaStart" : 1416350880000,
                          "mediaDuration" : 581226240000,
                          "scalar" : 1,
                          "metadata" : {
                            "AutoAppliedSmartFocus" : "False",
                            "audiateLinkedSession" : "",
                            "clipSpeedAttribute" : { "type": "bool", "value" : false},
                            "colorAttribute" : { "type": "color", "value" : [ 0, 0, 0, 0]},
                            "default-height" : { "type": "double", "value" : 1036.8},
                            "default-translation0" : { "type": "double", "value" : 0.0},
                            "default-translation1" : { "type": "double", "value" : -194.4},
                            "default-translation2" : { "type": "double", "value" : 0.0},
                            "default-width" : { "type": "double", "value" : 1932.67572815534}
                          },
                          "animationTracks" : {

                          }
                        },
                        {
                          "id" : 218,
                          "_type" : "ScreenVMFile",
                          "src" : 2,
                          "trackNumber" : 0,
                          "attributes" : {
                            "ident" : "Rec 4-22-2025-8-51-30-PM"
                          },
                          "parameters" : {
                            "geometryCrop0" : {
                              "type" : "double",
                              "defaultValue" : 0.0,
                              "interp" : "eioe"
                            },
                            "geometryCrop1" : {
                              "type" : "double",
                              "defaultValue" : 0.0,
                              "interp" : "eioe"
                            },
                            "geometryCrop2" : {
                              "type" : "double",
                              "defaultValue" : 0.0,
                              "interp" : "eioe"
                            },
                            "geometryCrop3" : {
                              "type" : "double",
                              "defaultValue" : 0.0,
                              "interp" : "eioe"
                            },
                            "cursorScale" : {
                              "type" : "double",
                              "defaultValue" : 0.0,
                              "interp" : "linr"
                            },
                            "cursorOpacity" : {
                              "type" : "double",
                              "defaultValue" : 0.0,
                              "interp" : "linr"
                            },
                            "cursorTrackLevel" : {
                              "type" : "double",
                              "defaultValue" : 0.0,
                              "interp" : "linr"
                            },
                            "smoothCursorAcrossEditDuration" : 0
                          },
                          "effects" : [

                          ],
                          "start" : 1040124960000,
                          "duration" : 215419680000,
                          "mediaStart" : 2018886240000,
                          "mediaDuration" : 215419680000,
                          "scalar" : 1,
                          "metadata" : {
                            "AutoAppliedSmartFocus" : "False",
                            "audiateLinkedSession" : "",
                            "clipSpeedAttribute" : { "type": "bool", "value" : false},
                            "colorAttribute" : { "type": "color", "value" : [ 0, 0, 0, 0]},
                            "default-height" : { "type": "double", "value" : 1036.8},
                            "default-translation0" : { "type": "double", "value" : 0.0},
                            "default-translation1" : { "type": "double", "value" : -194.4},
                            "default-translation2" : { "type": "double", "value" : 0.0},
                            "default-width" : { "type": "double", "value" : 1932.67572815534}
                          },
                          "animationTracks" : {

                          }
                        },
                        {
                          "id" : 219,
                          "_type" : "ScreenVMFile",
                          "src" : 2,
                          "trackNumber" : 0,
                          "attributes" : {
                            "ident" : "Rec 4-22-2025-8-51-30-PM"
                          },
                          "parameters" : {
                            "geometryCrop0" : {
                              "type" : "double",
                              "defaultValue" : 0.0,
                              "interp" : "eioe"
                            },
                            "geometryCrop1" : {
                              "type" : "double",
                              "defaultValue" : 0.0,
                              "interp" : "eioe"
                            },
                            "geometryCrop2" : {
                              "type" : "double",
                              "defaultValue" : 0.0,
                              "interp" : "eioe"
                            },
                            "geometryCrop3" : {
                              "type" : "double",
                              "defaultValue" : 0.0,
                              "interp" : "eioe"
                            },
                            "cursorScale" : {
                              "type" : "double",
                              "defaultValue" : 0.0,
                              "interp" : "linr"
                            },
                            "cursorOpacity" : {
                              "type" : "double",
                              "defaultValue" : 0.0,
                              "interp" : "linr"
                            },
                            "cursorTrackLevel" : {
                              "type" : "double",
                              "defaultValue" : 0.0,
                              "interp" : "linr"
                            },
                            "smoothCursorAcrossEditDuration" : 0
                          },
                          "effects" : [

                          ],
                          "start" : 1255544640000,
                          "duration" : 786955680000,
                          "mediaStart" : 2257778880000,
                          "mediaDuration" : 786955680000,
                          "scalar" : 1,
                          "metadata" : {
                            "AutoAppliedSmartFocus" : "False",
                            "audiateLinkedSession" : "",
                            "clipSpeedAttribute" : { "type": "bool", "value" : false},
                            "colorAttribute" : { "type": "color", "value" : [ 0, 0, 0, 0]},
                            "default-height" : { "type": "double", "value" : 1036.8},
                            "default-translation0" : { "type": "double", "value" : 0.0},
                            "default-translation1" : { "type": "double", "value" : -194.4},
                            "default-translation2" : { "type": "double", "value" : 0.0},
                            "default-width" : { "type": "double", "value" : 1932.67572815534}
                          },
                          "animationTracks" : {

                          }
                        },
                        {
                          "id" : 220,
                          "_type" : "ScreenVMFile",
                          "src" : 2,
                          "trackNumber" : 0,
                          "attributes" : {
                            "ident" : "Rec 4-22-2025-8-51-30-PM"
                          },
                          "parameters" : {
                            "geometryCrop0" : {
                              "type" : "double",
                              "defaultValue" : 0.0,
                              "interp" : "eioe"
                            },
                            "geometryCrop1" : {
                              "type" : "double",
                              "defaultValue" : 0.0,
                              "interp" : "eioe"
                            },
                            "geometryCrop2" : {
                              "type" : "double",
                              "defaultValue" : 0.0,
                              "interp" : "eioe"
                            },
                            "geometryCrop3" : {
                              "type" : "double",
                              "defaultValue" : 0.0,
                              "interp" : "eioe"
                            },
                            "cursorScale" : {
                              "type" : "double",
                              "defaultValue" : 0.0,
                              "interp" : "linr"
                            },
                            "cursorOpacity" : {
                              "type" : "double",
                              "defaultValue" : 0.0,
                              "interp" : "linr"
                            },
                            "cursorTrackLevel" : {
                              "type" : "double",
                              "defaultValue" : 0.0,
                              "interp" : "linr"
                            },
                            "smoothCursorAcrossEditDuration" : 0
                          },
                          "effects" : [

                          ],
                          "start" : 2042500320000,
                          "duration" : 20768160000,
                          "mediaStart" : 3047580480000,
                          "mediaDuration" : 20768160000,
                          "scalar" : 1,
                          "metadata" : {
                            "AutoAppliedSmartFocus" : "False",
                            "audiateLinkedSession" : "",
                            "clipSpeedAttribute" : { "type": "bool", "value" : false},
                            "colorAttribute" : { "type": "color", "value" : [ 0, 0, 0, 0]},
                            "default-height" : { "type": "double", "value" : 1036.8},
                            "default-translation0" : { "type": "double", "value" : 0.0},
                            "default-translation1" : { "type": "double", "value" : -194.4},
                            "default-translation2" : { "type": "double", "value" : 0.0},
                            "default-width" : { "type": "double", "value" : 1932.67572815534}
                          },
                          "animationTracks" : {

                          }
                        },
                        {
                          "id" : 221,
                          "_type" : "ScreenVMFile",
                          "src" : 2,
                          "trackNumber" : 0,
                          "attributes" : {
                            "ident" : "Rec 4-22-2025-8-51-30-PM"
                          },
                          "parameters" : {
                            "geometryCrop0" : {
                              "type" : "double",
                              "defaultValue" : 0.0,
                              "interp" : "eioe"
                            },
                            "geometryCrop1" : {
                              "type" : "double",
                              "defaultValue" : 0.0,
                              "interp" : "eioe"
                            },
                            "geometryCrop2" : {
                              "type" : "double",
                              "defaultValue" : 0.0,
                              "interp" : "eioe"
                            },
                            "geometryCrop3" : {
                              "type" : "double",
                              "defaultValue" : 0.0,
                              "interp" : "eioe"
                            },
                            "cursorScale" : {
                              "type" : "double",
                              "defaultValue" : 0.0,
                              "interp" : "linr"
                            },
                            "cursorOpacity" : {
                              "type" : "double",
                              "defaultValue" : 0.0,
                              "interp" : "linr"
                            },
                            "cursorTrackLevel" : {
                              "type" : "double",
                              "defaultValue" : 0.0,
                              "interp" : "linr"
                            },
                            "smoothCursorAcrossEditDuration" : 0
                          },
                          "effects" : [

                          ],
                          "start" : 2063268480000,
                          "duration" : 343039200000,
                          "mediaStart" : 3138932160000,
                          "mediaDuration" : 343039200000,
                          "scalar" : 1,
                          "metadata" : {
                            "AutoAppliedSmartFocus" : "False",
                            "audiateLinkedSession" : "",
                            "clipSpeedAttribute" : { "type": "bool", "value" : false},
                            "colorAttribute" : { "type": "color", "value" : [ 0, 0, 0, 0]},
                            "default-height" : { "type": "double", "value" : 1036.8},
                            "default-translation0" : { "type": "double", "value" : 0.0},
                            "default-translation1" : { "type": "double", "value" : -194.4},
                            "default-translation2" : { "type": "double", "value" : 0.0},
                            "default-width" : { "type": "double", "value" : 1932.67572815534}
                          },
                          "animationTracks" : {

                          }
                        }
                    ],
                    "effects" : [
                        {
                          "effectName" : "CursorColor",
                          "bypassed" : false,
                          "category" : "categoryCursorEffects",
                          "parameters" : {
                            "intensity" : 1.0,
                            "desaturation" : 0.0,
                            "colorLumaCutoff" : 1.0,
                            "color-alpha" : 1.0,
                            "color-red" : 1.0,
                            "color-green" : 0.8980392157,
                            "color-blue" : 0.1215686275,
                            "secondColor-red" : 0.0,
                            "secondColor-green" : 0.0,
                            "secondColor-blue" : 0.0,
                            "secondColor-alpha" : 1.0,
                            "secondColorLumaCutoff" : 0.0,
                            "channel" : 0,
                            "shadowRampStart" : 0.0,
                            "shadowRampEnd" : 0.0,
                            "highlightRampStart" : 1.0,
                            "highlightRampEnd" : 1.0
                          }
                        },
                        {
                          "effectName" : "CursorShadow",
                          "bypassed" : false,
                          "category" : "categoryCursorEffects",
                          "parameters" : {
                            "angle" : 3.92699081698724,
                            "enabled" : 1,
                            "offset" : 5.0,
                            "blur" : 2.0,
                            "opacity" : 0.25,
                            "color-red" : 0.0,
                            "color-green" : 0.0,
                            "color-blue" : 0.0,
                            "color-alpha" : 1.0
                          }
                        },
                        {
                          "effectName" : "CursorHilight",
                          "bypassed" : false,
                          "category" : "categoryCursorEffects",
                          "parameters" : {
                            "radius" : 50.0,
                            "color-red" : 1.0,
                            "color-green" : 1.0,
                            "color-blue" : 0.0,
                            "color-alpha" : 0.75,
                            "blur" : 0.1
                          }
                        }
                    ],
                    "start" : 55977600000,
                    "duration" : 2116800000,
                    "mediaStart" : 297756371613,
                    "mediaDuration" : 4609920000,
                    "scalar" : "45/98",
                    "metadata" : {
                      "AutoAppliedSmartFocus" : "False",
                      "audiateLinkedSession" : "",
                      "clipSpeedAttribute" : { "type": "bool", "value" : true},
                      "colorAttribute" : { "type": "color", "value" : [ 0, 0, 0, 0]},
                      "default-height" : { "type": "double", "value" : 1036.8},
                      "default-scale0" : { "type": "double", "value" : 0.503300970873786},
                      "default-scale1" : { "type": "double", "value" : 0.503300970873786},
                      "default-translation0" : { "type": "double", "value" : 0.0},
                      "default-translation1" : { "type": "double", "value" : -194.4},
                      "default-translation2" : { "type": "double", "value" : 0.0},
                      "default-width" : { "type": "double", "value" : 1932.67572815534}
                    },
                    "animationTracks" : {

                    }
                  },
                  {
                    "id" : 222,
                    "_type" : "StitchedMedia",
                    "minMediaStart" : 0,
                    "attributes" : {
                      "ident" : "Rec 4-22-2025-8-51-30-PM",
                      "gain" : 1.0,
                      "mixToMono" : false,
                      "loudnessNormalization" : true,
                      "sourceFileOffset" : 0
                    },
                    "parameters" : {
                      "translation0" : 6.33786407766917,
                      "translation1" : -2.8421709430404e-14,
                      "scale0" : 0.503300970873786,
                      "scale1" : 0.503300970873786,
                      "geometryCrop0" : 0.0,
                      "geometryCrop1" : 0.0,
                      "geometryCrop2" : 0.0,
                      "geometryCrop3" : 0.0,
                      "cursorOpacity" : 1.0,
                      "cursorTrackLevel" : 0.0,
                      "cursorScale" : 5.0,
                      "smoothCursorAcrossEditDuration" : 0
                    },
                    "medias" : [
                        {
                          "id" : 223,
                          "_type" : "ScreenVMFile",
                          "src" : 2,
                          "trackNumber" : 0,
                          "attributes" : {
                            "ident" : "Rec 4-22-2025-8-51-30-PM"
                          },
                          "parameters" : {
                            "geometryCrop0" : {
                              "type" : "double",
                              "defaultValue" : 0.0,
                              "interp" : "eioe"
                            },
                            "geometryCrop1" : {
                              "type" : "double",
                              "defaultValue" : 0.0,
                              "interp" : "eioe"
                            },
                            "geometryCrop2" : {
                              "type" : "double",
                              "defaultValue" : 0.0,
                              "interp" : "eioe"
                            },
                            "geometryCrop3" : {
                              "type" : "double",
                              "defaultValue" : 0.0,
                              "interp" : "eioe"
                            },
                            "cursorScale" : {
                              "type" : "double",
                              "defaultValue" : 0.0,
                              "interp" : "linr"
                            },
                            "cursorOpacity" : {
                              "type" : "double",
                              "defaultValue" : 0.0,
                              "interp" : "linr"
                            },
                            "cursorTrackLevel" : {
                              "type" : "double",
                              "defaultValue" : 0.0,
                              "interp" : "linr"
                            },
                            "smoothCursorAcrossEditDuration" : 0
                          },
                          "effects" : [

                          ],
                          "start" : 0,
                          "duration" : 50991360000,
                          "mediaStart" : 0,
                          "mediaDuration" : 50991360000,
                          "scalar" : 1,
                          "metadata" : {
                            "AutoAppliedSmartFocus" : "False",
                            "audiateLinkedSession" : "",
                            "clipSpeedAttribute" : { "type": "bool", "value" : false},
                            "colorAttribute" : { "type": "color", "value" : [ 0, 0, 0, 0]},
                            "default-height" : { "type": "double", "value" : 1036.8},
                            "default-translation0" : { "type": "double", "value" : 0.0},
                            "default-translation1" : { "type": "double", "value" : -194.4},
                            "default-translation2" : { "type": "double", "value" : 0.0},
                            "default-width" : { "type": "double", "value" : 1932.67572815534}
                          },
                          "animationTracks" : {

                          }
                        },
                        {
                          "id" : 224,
                          "_type" : "ScreenVMFile",
                          "src" : 2,
                          "trackNumber" : 0,
                          "attributes" : {
                            "ident" : "Rec 4-22-2025-8-51-30-PM"
                          },
                          "parameters" : {
                            "geometryCrop0" : {
                              "type" : "double",
                              "defaultValue" : 0.0,
                              "interp" : "eioe"
                            },
                            "geometryCrop1" : {
                              "type" : "double",
                              "defaultValue" : 0.0,
                              "interp" : "eioe"
                            },
                            "geometryCrop2" : {
                              "type" : "double",
                              "defaultValue" : 0.0,
                              "interp" : "eioe"
                            },
                            "geometryCrop3" : {
                              "type" : "double",
                              "defaultValue" : 0.0,
                              "interp" : "eioe"
                            },
                            "cursorScale" : {
                              "type" : "double",
                              "defaultValue" : 0.0,
                              "interp" : "linr"
                            },
                            "cursorOpacity" : {
                              "type" : "double",
                              "defaultValue" : 0.0,
                              "interp" : "linr"
                            },
                            "cursorTrackLevel" : {
                              "type" : "double",
                              "defaultValue" : 0.0,
                              "interp" : "linr"
                            },
                            "smoothCursorAcrossEditDuration" : 0
                          },
                          "effects" : [

                          ],
                          "start" : 50991360000,
                          "duration" : 46663680000,
                          "mediaStart" : 66467520000,
                          "mediaDuration" : 46663680000,
                          "scalar" : 1,
                          "metadata" : {
                            "AutoAppliedSmartFocus" : "False",
                            "audiateLinkedSession" : "",
                            "clipSpeedAttribute" : { "type": "bool", "value" : false},
                            "colorAttribute" : { "type": "color", "value" : [ 0, 0, 0, 0]},
                            "default-height" : { "type": "double", "value" : 1036.8},
                            "default-translation0" : { "type": "double", "value" : 0.0},
                            "default-translation1" : { "type": "double", "value" : -194.4},
                            "default-translation2" : { "type": "double", "value" : 0.0},
                            "default-width" : { "type": "double", "value" : 1932.67572815534}
                          },
                          "animationTracks" : {

                          }
                        },
                        {
                          "id" : 225,
                          "_type" : "ScreenVMFile",
                          "src" : 2,
                          "trackNumber" : 0,
                          "attributes" : {
                            "ident" : "Rec 4-22-2025-8-51-30-PM"
                          },
                          "parameters" : {
                            "geometryCrop0" : {
                              "type" : "double",
                              "defaultValue" : 0.0,
                              "interp" : "eioe"
                            },
                            "geometryCrop1" : {
                              "type" : "double",
                              "defaultValue" : 0.0,
                              "interp" : "eioe"
                            },
                            "geometryCrop2" : {
                              "type" : "double",
                              "defaultValue" : 0.0,
                              "interp" : "eioe"
                            },
                            "geometryCrop3" : {
                              "type" : "double",
                              "defaultValue" : 0.0,
                              "interp" : "eioe"
                            },
                            "cursorScale" : {
                              "type" : "double",
                              "defaultValue" : 0.0,
                              "interp" : "linr"
                            },
                            "cursorOpacity" : {
                              "type" : "double",
                              "defaultValue" : 0.0,
                              "interp" : "linr"
                            },
                            "cursorTrackLevel" : {
                              "type" : "double",
                              "defaultValue" : 0.0,
                              "interp" : "linr"
                            },
                            "smoothCursorAcrossEditDuration" : 0
                          },
                          "effects" : [

                          ],
                          "start" : 97655040000,
                          "duration" : 197215200000,
                          "mediaStart" : 149352000000,
                          "mediaDuration" : 197215200000,
                          "scalar" : 1,
                          "metadata" : {
                            "AutoAppliedSmartFocus" : "False",
                            "audiateLinkedSession" : "",
                            "clipSpeedAttribute" : { "type": "bool", "value" : false},
                            "colorAttribute" : { "type": "color", "value" : [ 0, 0, 0, 0]},
                            "default-height" : { "type": "double", "value" : 1036.8},
                            "default-translation0" : { "type": "double", "value" : 0.0},
                            "default-translation1" : { "type": "double", "value" : -194.4},
                            "default-translation2" : { "type": "double", "value" : 0.0},
                            "default-width" : { "type": "double", "value" : 1932.67572815534}
                          },
                          "animationTracks" : {

                          }
                        },
                        {
                          "id" : 226,
                          "_type" : "ScreenVMFile",
                          "src" : 2,
                          "trackNumber" : 0,
                          "attributes" : {
                            "ident" : "Rec 4-22-2025-8-51-30-PM"
                          },
                          "parameters" : {
                            "geometryCrop0" : {
                              "type" : "double",
                              "defaultValue" : 0.0,
                              "interp" : "eioe"
                            },
                            "geometryCrop1" : {
                              "type" : "double",
                              "defaultValue" : 0.0,
                              "interp" : "eioe"
                            },
                            "geometryCrop2" : {
                              "type" : "double",
                              "defaultValue" : 0.0,
                              "interp" : "eioe"
                            },
                            "geometryCrop3" : {
                              "type" : "double",
                              "defaultValue" : 0.0,
                              "interp" : "eioe"
                            },
                            "cursorScale" : {
                              "type" : "double",
                              "defaultValue" : 0.0,
                              "interp" : "linr"
                            },
                            "cursorOpacity" : {
                              "type" : "double",
                              "defaultValue" : 0.0,
                              "interp" : "linr"
                            },
                            "cursorTrackLevel" : {
                              "type" : "double",
                              "defaultValue" : 0.0,
                              "interp" : "linr"
                            },
                            "smoothCursorAcrossEditDuration" : 0
                          },
                          "effects" : [

                          ],
                          "start" : 294870240000,
                          "duration" : 7502880000,
                          "mediaStart" : 346567200000,
                          "mediaDuration" : 7502880000,
                          "scalar" : 1,
                          "metadata" : {
                            "AutoAppliedSmartFocus" : "False",
                            "audiateLinkedSession" : "",
                            "clipSpeedAttribute" : { "type": "bool", "value" : false},
                            "colorAttribute" : { "type": "color", "value" : [ 0, 0, 0, 0]},
                            "default-height" : { "type": "double", "value" : 1036.8},
                            "default-translation0" : { "type": "double", "value" : 0.0},
                            "default-translation1" : { "type": "double", "value" : -194.4},
                            "default-translation2" : { "type": "double", "value" : 0.0},
                            "default-width" : { "type": "double", "value" : 1932.67572815534}
                          },
                          "animationTracks" : {

                          }
                        },
                        {
                          "id" : 227,
                          "_type" : "ScreenVMFile",
                          "src" : 2,
                          "trackNumber" : 0,
                          "attributes" : {
                            "ident" : "Rec 4-22-2025-8-51-30-PM"
                          },
                          "parameters" : {
                            "geometryCrop0" : {
                              "type" : "double",
                              "defaultValue" : 0.0,
                              "interp" : "eioe"
                            },
                            "geometryCrop1" : {
                              "type" : "double",
                              "defaultValue" : 0.0,
                              "interp" : "eioe"
                            },
                            "geometryCrop2" : {
                              "type" : "double",
                              "defaultValue" : 0.0,
                              "interp" : "eioe"
                            },
                            "geometryCrop3" : {
                              "type" : "double",
                              "defaultValue" : 0.0,
                              "interp" : "eioe"
                            },
                            "cursorScale" : {
                              "type" : "double",
                              "defaultValue" : 0.0,
                              "interp" : "linr"
                            },
                            "cursorOpacity" : {
                              "type" : "double",
                              "defaultValue" : 0.0,
                              "interp" : "linr"
                            },
                            "cursorTrackLevel" : {
                              "type" : "double",
                              "defaultValue" : 0.0,
                              "interp" : "linr"
                            },
                            "smoothCursorAcrossEditDuration" : 0
                          },
                          "effects" : [

                          ],
                          "start" : 302373120000,
                          "duration" : 24601920000,
                          "mediaStart" : 354070080000,
                          "mediaDuration" : 24601920000,
                          "scalar" : 1,
                          "metadata" : {
                            "AutoAppliedSmartFocus" : "False",
                            "audiateLinkedSession" : "",
                            "clipSpeedAttribute" : { "type": "bool", "value" : false},
                            "colorAttribute" : { "type": "color", "value" : [ 0, 0, 0, 0]},
                            "default-height" : { "type": "double", "value" : 1036.8},
                            "default-translation0" : { "type": "double", "value" : 0.0},
                            "default-translation1" : { "type": "double", "value" : -194.4},
                            "default-translation2" : { "type": "double", "value" : 0.0},
                            "default-width" : { "type": "double", "value" : 1932.67572815534}
                          },
                          "animationTracks" : {

                          }
                        },
                        {
                          "id" : 228,
                          "_type" : "ScreenVMFile",
                          "src" : 2,
                          "trackNumber" : 0,
                          "attributes" : {
                            "ident" : "Rec 4-22-2025-8-51-30-PM"
                          },
                          "parameters" : {
                            "geometryCrop0" : {
                              "type" : "double",
                              "defaultValue" : 0.0,
                              "interp" : "eioe"
                            },
                            "geometryCrop1" : {
                              "type" : "double",
                              "defaultValue" : 0.0,
                              "interp" : "eioe"
                            },
                            "geometryCrop2" : {
                              "type" : "double",
                              "defaultValue" : 0.0,
                              "interp" : "eioe"
                            },
                            "geometryCrop3" : {
                              "type" : "double",
                              "defaultValue" : 0.0,
                              "interp" : "eioe"
                            },
                            "cursorScale" : {
                              "type" : "double",
                              "defaultValue" : 0.0,
                              "interp" : "linr"
                            },
                            "cursorOpacity" : {
                              "type" : "double",
                              "defaultValue" : 0.0,
                              "interp" : "linr"
                            },
                            "cursorTrackLevel" : {
                              "type" : "double",
                              "defaultValue" : 0.0,
                              "interp" : "linr"
                            },
                            "smoothCursorAcrossEditDuration" : 0
                          },
                          "effects" : [

                          ],
                          "start" : 326975040000,
                          "duration" : 122962560000,
                          "mediaStart" : 378672000000,
                          "mediaDuration" : 122962560000,
                          "scalar" : 1,
                          "metadata" : {
                            "AutoAppliedSmartFocus" : "False",
                            "audiateLinkedSession" : "",
                            "clipSpeedAttribute" : { "type": "bool", "value" : false},
                            "colorAttribute" : { "type": "color", "value" : [ 0, 0, 0, 0]},
                            "default-height" : { "type": "double", "value" : 1036.8},
                            "default-translation0" : { "type": "double", "value" : 0.0},
                            "default-translation1" : { "type": "double", "value" : -194.4},
                            "default-translation2" : { "type": "double", "value" : 0.0},
                            "default-width" : { "type": "double", "value" : 1932.67572815534}
                          },
                          "animationTracks" : {

                          }
                        },
                        {
                          "id" : 229,
                          "_type" : "ScreenVMFile",
                          "src" : 2,
                          "trackNumber" : 0,
                          "attributes" : {
                            "ident" : "Rec 4-22-2025-8-51-30-PM"
                          },
                          "parameters" : {
                            "geometryCrop0" : {
                              "type" : "double",
                              "defaultValue" : 0.0,
                              "interp" : "eioe"
                            },
                            "geometryCrop1" : {
                              "type" : "double",
                              "defaultValue" : 0.0,
                              "interp" : "eioe"
                            },
                            "geometryCrop2" : {
                              "type" : "double",
                              "defaultValue" : 0.0,
                              "interp" : "eioe"
                            },
                            "geometryCrop3" : {
                              "type" : "double",
                              "defaultValue" : 0.0,
                              "interp" : "eioe"
                            },
                            "cursorScale" : {
                              "type" : "double",
                              "defaultValue" : 0.0,
                              "interp" : "linr"
                            },
                            "cursorOpacity" : {
                              "type" : "double",
                              "defaultValue" : 0.0,
                              "interp" : "linr"
                            },
                            "cursorTrackLevel" : {
                              "type" : "double",
                              "defaultValue" : 0.0,
                              "interp" : "linr"
                            },
                            "smoothCursorAcrossEditDuration" : 0
                          },
                          "effects" : [

                          ],
                          "start" : 449937600000,
                          "duration" : 8961120000,
                          "mediaStart" : 509843040000,
                          "mediaDuration" : 8961120000,
                          "scalar" : 1,
                          "metadata" : {
                            "AutoAppliedSmartFocus" : "False",
                            "audiateLinkedSession" : "",
                            "clipSpeedAttribute" : { "type": "bool", "value" : false},
                            "colorAttribute" : { "type": "color", "value" : [ 0, 0, 0, 0]},
                            "default-height" : { "type": "double", "value" : 1036.8},
                            "default-translation0" : { "type": "double", "value" : 0.0},
                            "default-translation1" : { "type": "double", "value" : -194.4},
                            "default-translation2" : { "type": "double", "value" : 0.0},
                            "default-width" : { "type": "double", "value" : 1932.67572815534}
                          },
                          "animationTracks" : {

                          }
                        },
                        {
                          "id" : 230,
                          "_type" : "ScreenVMFile",
                          "src" : 2,
                          "trackNumber" : 0,
                          "attributes" : {
                            "ident" : "Rec 4-22-2025-8-51-30-PM"
                          },
                          "parameters" : {
                            "geometryCrop0" : {
                              "type" : "double",
                              "defaultValue" : 0.0,
                              "interp" : "eioe"
                            },
                            "geometryCrop1" : {
                              "type" : "double",
                              "defaultValue" : 0.0,
                              "interp" : "eioe"
                            },
                            "geometryCrop2" : {
                              "type" : "double",
                              "defaultValue" : 0.0,
                              "interp" : "eioe"
                            },
                            "geometryCrop3" : {
                              "type" : "double",
                              "defaultValue" : 0.0,
                              "interp" : "eioe"
                            },
                            "cursorScale" : {
                              "type" : "double",
                              "defaultValue" : 0.0,
                              "interp" : "linr"
                            },
                            "cursorOpacity" : {
                              "type" : "double",
                              "defaultValue" : 0.0,
                              "interp" : "linr"
                            },
                            "cursorTrackLevel" : {
                              "type" : "double",
                              "defaultValue" : 0.0,
                              "interp" : "linr"
                            },
                            "smoothCursorAcrossEditDuration" : 0
                          },
                          "effects" : [

                          ],
                          "start" : 458898720000,
                          "duration" : 581226240000,
                          "mediaStart" : 1416350880000,
                          "mediaDuration" : 581226240000,
                          "scalar" : 1,
                          "metadata" : {
                            "AutoAppliedSmartFocus" : "False",
                            "audiateLinkedSession" : "",
                            "clipSpeedAttribute" : { "type": "bool", "value" : false},
                            "colorAttribute" : { "type": "color", "value" : [ 0, 0, 0, 0]},
                            "default-height" : { "type": "double", "value" : 1036.8},
                            "default-translation0" : { "type": "double", "value" : 0.0},
                            "default-translation1" : { "type": "double", "value" : -194.4},
                            "default-translation2" : { "type": "double", "value" : 0.0},
                            "default-width" : { "type": "double", "value" : 1932.67572815534}
                          },
                          "animationTracks" : {

                          }
                        },
                        {
                          "id" : 231,
                          "_type" : "ScreenVMFile",
                          "src" : 2,
                          "trackNumber" : 0,
                          "attributes" : {
                            "ident" : "Rec 4-22-2025-8-51-30-PM"
                          },
                          "parameters" : {
                            "geometryCrop0" : {
                              "type" : "double",
                              "defaultValue" : 0.0,
                              "interp" : "eioe"
                            },
                            "geometryCrop1" : {
                              "type" : "double",
                              "defaultValue" : 0.0,
                              "interp" : "eioe"
                            },
                            "geometryCrop2" : {
                              "type" : "double",
                              "defaultValue" : 0.0,
                              "interp" : "eioe"
                            },
                            "geometryCrop3" : {
                              "type" : "double",
                              "defaultValue" : 0.0,
                              "interp" : "eioe"
                            },
                            "cursorScale" : {
                              "type" : "double",
                              "defaultValue" : 0.0,
                              "interp" : "linr"
                            },
                            "cursorOpacity" : {
                              "type" : "double",
                              "defaultValue" : 0.0,
                              "interp" : "linr"
                            },
                            "cursorTrackLevel" : {
                              "type" : "double",
                              "defaultValue" : 0.0,
                              "interp" : "linr"
                            },
                            "smoothCursorAcrossEditDuration" : 0
                          },
                          "effects" : [

                          ],
                          "start" : 1040124960000,
                          "duration" : 215419680000,
                          "mediaStart" : 2018886240000,
                          "mediaDuration" : 215419680000,
                          "scalar" : 1,
                          "metadata" : {
                            "AutoAppliedSmartFocus" : "False",
                            "audiateLinkedSession" : "",
                            "clipSpeedAttribute" : { "type": "bool", "value" : false},
                            "colorAttribute" : { "type": "color", "value" : [ 0, 0, 0, 0]},
                            "default-height" : { "type": "double", "value" : 1036.8},
                            "default-translation0" : { "type": "double", "value" : 0.0},
                            "default-translation1" : { "type": "double", "value" : -194.4},
                            "default-translation2" : { "type": "double", "value" : 0.0},
                            "default-width" : { "type": "double", "value" : 1932.67572815534}
                          },
                          "animationTracks" : {

                          }
                        },
                        {
                          "id" : 232,
                          "_type" : "ScreenVMFile",
                          "src" : 2,
                          "trackNumber" : 0,
                          "attributes" : {
                            "ident" : "Rec 4-22-2025-8-51-30-PM"
                          },
                          "parameters" : {
                            "geometryCrop0" : {
                              "type" : "double",
                              "defaultValue" : 0.0,
                              "interp" : "eioe"
                            },
                            "geometryCrop1" : {
                              "type" : "double",
                              "defaultValue" : 0.0,
                              "interp" : "eioe"
                            },
                            "geometryCrop2" : {
                              "type" : "double",
                              "defaultValue" : 0.0,
                              "interp" : "eioe"
                            },
                            "geometryCrop3" : {
                              "type" : "double",
                              "defaultValue" : 0.0,
                              "interp" : "eioe"
                            },
                            "cursorScale" : {
                              "type" : "double",
                              "defaultValue" : 0.0,
                              "interp" : "linr"
                            },
                            "cursorOpacity" : {
                              "type" : "double",
                              "defaultValue" : 0.0,
                              "interp" : "linr"
                            },
                            "cursorTrackLevel" : {
                              "type" : "double",
                              "defaultValue" : 0.0,
                              "interp" : "linr"
                            },
                            "smoothCursorAcrossEditDuration" : 0
                          },
                          "effects" : [

                          ],
                          "start" : 1255544640000,
                          "duration" : 786955680000,
                          "mediaStart" : 2257778880000,
                          "mediaDuration" : 786955680000,
                          "scalar" : 1,
                          "metadata" : {
                            "AutoAppliedSmartFocus" : "False",
                            "audiateLinkedSession" : "",
                            "clipSpeedAttribute" : { "type": "bool", "value" : false},
                            "colorAttribute" : { "type": "color", "value" : [ 0, 0, 0, 0]},
                            "default-height" : { "type": "double", "value" : 1036.8},
                            "default-translation0" : { "type": "double", "value" : 0.0},
                            "default-translation1" : { "type": "double", "value" : -194.4},
                            "default-translation2" : { "type": "double", "value" : 0.0},
                            "default-width" : { "type": "double", "value" : 1932.67572815534}
                          },
                          "animationTracks" : {

                          }
                        },
                        {
                          "id" : 233,
                          "_type" : "ScreenVMFile",
                          "src" : 2,
                          "trackNumber" : 0,
                          "attributes" : {
                            "ident" : "Rec 4-22-2025-8-51-30-PM"
                          },
                          "parameters" : {
                            "geometryCrop0" : {
                              "type" : "double",
                              "defaultValue" : 0.0,
                              "interp" : "eioe"
                            },
                            "geometryCrop1" : {
                              "type" : "double",
                              "defaultValue" : 0.0,
                              "interp" : "eioe"
                            },
                            "geometryCrop2" : {
                              "type" : "double",
                              "defaultValue" : 0.0,
                              "interp" : "eioe"
                            },
                            "geometryCrop3" : {
                              "type" : "double",
                              "defaultValue" : 0.0,
                              "interp" : "eioe"
                            },
                            "cursorScale" : {
                              "type" : "double",
                              "defaultValue" : 0.0,
                              "interp" : "linr"
                            },
                            "cursorOpacity" : {
                              "type" : "double",
                              "defaultValue" : 0.0,
                              "interp" : "linr"
                            },
                            "cursorTrackLevel" : {
                              "type" : "double",
                              "defaultValue" : 0.0,
                              "interp" : "linr"
                            },
                            "smoothCursorAcrossEditDuration" : 0
                          },
                          "effects" : [

                          ],
                          "start" : 2042500320000,
                          "duration" : 20768160000,
                          "mediaStart" : 3047580480000,
                          "mediaDuration" : 20768160000,
                          "scalar" : 1,
                          "metadata" : {
                            "AutoAppliedSmartFocus" : "False",
                            "audiateLinkedSession" : "",
                            "clipSpeedAttribute" : { "type": "bool", "value" : false},
                            "colorAttribute" : { "type": "color", "value" : [ 0, 0, 0, 0]},
                            "default-height" : { "type": "double", "value" : 1036.8},
                            "default-translation0" : { "type": "double", "value" : 0.0},
                            "default-translation1" : { "type": "double", "value" : -194.4},
                            "default-translation2" : { "type": "double", "value" : 0.0},
                            "default-width" : { "type": "double", "value" : 1932.67572815534}
                          },
                          "animationTracks" : {

                          }
                        },
                        {
                          "id" : 234,
                          "_type" : "ScreenVMFile",
                          "src" : 2,
                          "trackNumber" : 0,
                          "attributes" : {
                            "ident" : "Rec 4-22-2025-8-51-30-PM"
                          },
                          "parameters" : {
                            "geometryCrop0" : {
                              "type" : "double",
                              "defaultValue" : 0.0,
                              "interp" : "eioe"
                            },
                            "geometryCrop1" : {
                              "type" : "double",
                              "defaultValue" : 0.0,
                              "interp" : "eioe"
                            },
                            "geometryCrop2" : {
                              "type" : "double",
                              "defaultValue" : 0.0,
                              "interp" : "eioe"
                            },
                            "geometryCrop3" : {
                              "type" : "double",
                              "defaultValue" : 0.0,
                              "interp" : "eioe"
                            },
                            "cursorScale" : {
                              "type" : "double",
                              "defaultValue" : 0.0,
                              "interp" : "linr"
                            },
                            "cursorOpacity" : {
                              "type" : "double",
                              "defaultValue" : 0.0,
                              "interp" : "linr"
                            },
                            "cursorTrackLevel" : {
                              "type" : "double",
                              "defaultValue" : 0.0,
                              "interp" : "linr"
                            },
                            "smoothCursorAcrossEditDuration" : 0
                          },
                          "effects" : [

                          ],
                          "start" : 2063268480000,
                          "duration" : 343039200000,
                          "mediaStart" : 3138932160000,
                          "mediaDuration" : 343039200000,
                          "scalar" : 1,
                          "metadata" : {
                            "AutoAppliedSmartFocus" : "False",
                            "audiateLinkedSession" : "",
                            "clipSpeedAttribute" : { "type": "bool", "value" : false},
                            "colorAttribute" : { "type": "color", "value" : [ 0, 0, 0, 0]},
                            "default-height" : { "type": "double", "value" : 1036.8},
                            "default-translation0" : { "type": "double", "value" : 0.0},
                            "default-translation1" : { "type": "double", "value" : -194.4},
                            "default-translation2" : { "type": "double", "value" : 0.0},
                            "default-width" : { "type": "double", "value" : 1932.67572815534}
                          },
                          "animationTracks" : {

                          }
                        }
                    ],
                    "effects" : [
                        {
                          "effectName" : "CursorColor",
                          "bypassed" : false,
                          "category" : "categoryCursorEffects",
                          "parameters" : {
                            "intensity" : 1.0,
                            "desaturation" : 0.0,
                            "colorLumaCutoff" : 1.0,
                            "color-alpha" : 1.0,
                            "color-red" : 1.0,
                            "color-green" : 0.8980392157,
                            "color-blue" : 0.1215686275,
                            "secondColor-red" : 0.0,
                            "secondColor-green" : 0.0,
                            "secondColor-blue" : 0.0,
                            "secondColor-alpha" : 1.0,
                            "secondColorLumaCutoff" : 0.0,
                            "channel" : 0,
                            "shadowRampStart" : 0.0,
                            "shadowRampEnd" : 0.0,
                            "highlightRampStart" : 1.0,
                            "highlightRampEnd" : 1.0
                          }
                        },
                        {
                          "effectName" : "CursorShadow",
                          "bypassed" : false,
                          "category" : "categoryCursorEffects",
                          "parameters" : {
                            "angle" : 3.92699081698724,
                            "enabled" : 1,
                            "offset" : 5.0,
                            "blur" : 2.0,
                            "opacity" : 0.25,
                            "color-red" : 0.0,
                            "color-green" : 0.0,
                            "color-blue" : 0.0,
                            "color-alpha" : 1.0
                          }
                        },
                        {
                          "effectName" : "CursorHilight",
                          "bypassed" : false,
                          "category" : "categoryCursorEffects",
                          "parameters" : {
                            "radius" : 50.0,
                            "color-red" : 1.0,
                            "color-green" : 1.0,
                            "color-blue" : 0.0,
                            "color-alpha" : 0.75,
                            "blur" : 0.1
                          }
                        }
                    ],
                    "start" : 58094400000,
                    "duration" : 1622880000,
                    "mediaStart" : 306011891613,
                    "mediaDuration" : 12794880000,
                    "scalar" : "69/544",
                    "metadata" : {
                      "AutoAppliedSmartFocus" : "False",
                      "audiateLinkedSession" : "",
                      "clipSpeedAttribute" : { "type": "bool", "value" : true},
                      "colorAttribute" : { "type": "color", "value" : [ 0, 0, 0, 0]},
                      "default-height" : { "type": "double", "value" : 1036.8},
                      "default-scale0" : { "type": "double", "value" : 0.503300970873786},
                      "default-scale1" : { "type": "double", "value" : 0.503300970873786},
                      "default-translation0" : { "type": "double", "value" : 0.0},
                      "default-translation1" : { "type": "double", "value" : -194.4},
                      "default-translation2" : { "type": "double", "value" : 0.0},
                      "default-width" : { "type": "double", "value" : 1932.67572815534}
                    },
                    "animationTracks" : {

                    }
                  },
                  {
                    "id" : 235,
                    "_type" : "StitchedMedia",
                    "minMediaStart" : 0,
                    "attributes" : {
                      "ident" : "Rec 4-22-2025-8-51-30-PM",
                      "gain" : 1.0,
                      "mixToMono" : false,
                      "loudnessNormalization" : true,
                      "sourceFileOffset" : 0
                    },
                    "parameters" : {
                      "translation0" : 6.33786407766917,
                      "translation1" : -2.8421709430404e-14,
                      "scale0" : 0.503300970873786,
                      "scale1" : 0.503300970873786,
                      "geometryCrop0" : 0.0,
                      "geometryCrop1" : 0.0,
                      "geometryCrop2" : 0.0,
                      "geometryCrop3" : 0.0,
                      "cursorOpacity" : 1.0,
                      "cursorTrackLevel" : 0.0,
                      "cursorScale" : 5.0,
                      "smoothCursorAcrossEditDuration" : 0
                    },
                    "medias" : [
                        {
                          "id" : 236,
                          "_type" : "ScreenVMFile",
                          "src" : 2,
                          "trackNumber" : 0,
                          "attributes" : {
                            "ident" : "Rec 4-22-2025-8-51-30-PM"
                          },
                          "parameters" : {
                            "geometryCrop0" : {
                              "type" : "double",
                              "defaultValue" : 0.0,
                              "interp" : "eioe"
                            },
                            "geometryCrop1" : {
                              "type" : "double",
                              "defaultValue" : 0.0,
                              "interp" : "eioe"
                            },
                            "geometryCrop2" : {
                              "type" : "double",
                              "defaultValue" : 0.0,
                              "interp" : "eioe"
                            },
                            "geometryCrop3" : {
                              "type" : "double",
                              "defaultValue" : 0.0,
                              "interp" : "eioe"
                            },
                            "cursorScale" : {
                              "type" : "double",
                              "defaultValue" : 0.0,
                              "interp" : "linr"
                            },
                            "cursorOpacity" : {
                              "type" : "double",
                              "defaultValue" : 0.0,
                              "interp" : "linr"
                            },
                            "cursorTrackLevel" : {
                              "type" : "double",
                              "defaultValue" : 0.0,
                              "interp" : "linr"
                            },
                            "smoothCursorAcrossEditDuration" : 0
                          },
                          "effects" : [

                          ],
                          "start" : 0,
                          "duration" : 50991360000,
                          "mediaStart" : 0,
                          "mediaDuration" : 50991360000,
                          "scalar" : 1,
                          "metadata" : {
                            "AutoAppliedSmartFocus" : "False",
                            "audiateLinkedSession" : "",
                            "clipSpeedAttribute" : { "type": "bool", "value" : false},
                            "colorAttribute" : { "type": "color", "value" : [ 0, 0, 0, 0]},
                            "default-height" : { "type": "double", "value" : 1036.8},
                            "default-translation0" : { "type": "double", "value" : 0.0},
                            "default-translation1" : { "type": "double", "value" : -194.4},
                            "default-translation2" : { "type": "double", "value" : 0.0},
                            "default-width" : { "type": "double", "value" : 1932.67572815534}
                          },
                          "animationTracks" : {

                          }
                        },
                        {
                          "id" : 237,
                          "_type" : "ScreenVMFile",
                          "src" : 2,
                          "trackNumber" : 0,
                          "attributes" : {
                            "ident" : "Rec 4-22-2025-8-51-30-PM"
                          },
                          "parameters" : {
                            "geometryCrop0" : {
                              "type" : "double",
                              "defaultValue" : 0.0,
                              "interp" : "eioe"
                            },
                            "geometryCrop1" : {
                              "type" : "double",
                              "defaultValue" : 0.0,
                              "interp" : "eioe"
                            },
                            "geometryCrop2" : {
                              "type" : "double",
                              "defaultValue" : 0.0,
                              "interp" : "eioe"
                            },
                            "geometryCrop3" : {
                              "type" : "double",
                              "defaultValue" : 0.0,
                              "interp" : "eioe"
                            },
                            "cursorScale" : {
                              "type" : "double",
                              "defaultValue" : 0.0,
                              "interp" : "linr"
                            },
                            "cursorOpacity" : {
                              "type" : "double",
                              "defaultValue" : 0.0,
                              "interp" : "linr"
                            },
                            "cursorTrackLevel" : {
                              "type" : "double",
                              "defaultValue" : 0.0,
                              "interp" : "linr"
                            },
                            "smoothCursorAcrossEditDuration" : 0
                          },
                          "effects" : [

                          ],
                          "start" : 50991360000,
                          "duration" : 46663680000,
                          "mediaStart" : 66467520000,
                          "mediaDuration" : 46663680000,
                          "scalar" : 1,
                          "metadata" : {
                            "AutoAppliedSmartFocus" : "False",
                            "audiateLinkedSession" : "",
                            "clipSpeedAttribute" : { "type": "bool", "value" : false},
                            "colorAttribute" : { "type": "color", "value" : [ 0, 0, 0, 0]},
                            "default-height" : { "type": "double", "value" : 1036.8},
                            "default-translation0" : { "type": "double", "value" : 0.0},
                            "default-translation1" : { "type": "double", "value" : -194.4},
                            "default-translation2" : { "type": "double", "value" : 0.0},
                            "default-width" : { "type": "double", "value" : 1932.67572815534}
                          },
                          "animationTracks" : {

                          }
                        },
                        {
                          "id" : 238,
                          "_type" : "ScreenVMFile",
                          "src" : 2,
                          "trackNumber" : 0,
                          "attributes" : {
                            "ident" : "Rec 4-22-2025-8-51-30-PM"
                          },
                          "parameters" : {
                            "geometryCrop0" : {
                              "type" : "double",
                              "defaultValue" : 0.0,
                              "interp" : "eioe"
                            },
                            "geometryCrop1" : {
                              "type" : "double",
                              "defaultValue" : 0.0,
                              "interp" : "eioe"
                            },
                            "geometryCrop2" : {
                              "type" : "double",
                              "defaultValue" : 0.0,
                              "interp" : "eioe"
                            },
                            "geometryCrop3" : {
                              "type" : "double",
                              "defaultValue" : 0.0,
                              "interp" : "eioe"
                            },
                            "cursorScale" : {
                              "type" : "double",
                              "defaultValue" : 0.0,
                              "interp" : "linr"
                            },
                            "cursorOpacity" : {
                              "type" : "double",
                              "defaultValue" : 0.0,
                              "interp" : "linr"
                            },
                            "cursorTrackLevel" : {
                              "type" : "double",
                              "defaultValue" : 0.0,
                              "interp" : "linr"
                            },
                            "smoothCursorAcrossEditDuration" : 0
                          },
                          "effects" : [

                          ],
                          "start" : 97655040000,
                          "duration" : 197215200000,
                          "mediaStart" : 149352000000,
                          "mediaDuration" : 197215200000,
                          "scalar" : 1,
                          "metadata" : {
                            "AutoAppliedSmartFocus" : "False",
                            "audiateLinkedSession" : "",
                            "clipSpeedAttribute" : { "type": "bool", "value" : false},
                            "colorAttribute" : { "type": "color", "value" : [ 0, 0, 0, 0]},
                            "default-height" : { "type": "double", "value" : 1036.8},
                            "default-translation0" : { "type": "double", "value" : 0.0},
                            "default-translation1" : { "type": "double", "value" : -194.4},
                            "default-translation2" : { "type": "double", "value" : 0.0},
                            "default-width" : { "type": "double", "value" : 1932.67572815534}
                          },
                          "animationTracks" : {

                          }
                        },
                        {
                          "id" : 239,
                          "_type" : "ScreenVMFile",
                          "src" : 2,
                          "trackNumber" : 0,
                          "attributes" : {
                            "ident" : "Rec 4-22-2025-8-51-30-PM"
                          },
                          "parameters" : {
                            "geometryCrop0" : {
                              "type" : "double",
                              "defaultValue" : 0.0,
                              "interp" : "eioe"
                            },
                            "geometryCrop1" : {
                              "type" : "double",
                              "defaultValue" : 0.0,
                              "interp" : "eioe"
                            },
                            "geometryCrop2" : {
                              "type" : "double",
                              "defaultValue" : 0.0,
                              "interp" : "eioe"
                            },
                            "geometryCrop3" : {
                              "type" : "double",
                              "defaultValue" : 0.0,
                              "interp" : "eioe"
                            },
                            "cursorScale" : {
                              "type" : "double",
                              "defaultValue" : 0.0,
                              "interp" : "linr"
                            },
                            "cursorOpacity" : {
                              "type" : "double",
                              "defaultValue" : 0.0,
                              "interp" : "linr"
                            },
                            "cursorTrackLevel" : {
                              "type" : "double",
                              "defaultValue" : 0.0,
                              "interp" : "linr"
                            },
                            "smoothCursorAcrossEditDuration" : 0
                          },
                          "effects" : [

                          ],
                          "start" : 294870240000,
                          "duration" : 7502880000,
                          "mediaStart" : 346567200000,
                          "mediaDuration" : 7502880000,
                          "scalar" : 1,
                          "metadata" : {
                            "AutoAppliedSmartFocus" : "False",
                            "audiateLinkedSession" : "",
                            "clipSpeedAttribute" : { "type": "bool", "value" : false},
                            "colorAttribute" : { "type": "color", "value" : [ 0, 0, 0, 0]},
                            "default-height" : { "type": "double", "value" : 1036.8},
                            "default-translation0" : { "type": "double", "value" : 0.0},
                            "default-translation1" : { "type": "double", "value" : -194.4},
                            "default-translation2" : { "type": "double", "value" : 0.0},
                            "default-width" : { "type": "double", "value" : 1932.67572815534}
                          },
                          "animationTracks" : {

                          }
                        },
                        {
                          "id" : 240,
                          "_type" : "ScreenVMFile",
                          "src" : 2,
                          "trackNumber" : 0,
                          "attributes" : {
                            "ident" : "Rec 4-22-2025-8-51-30-PM"
                          },
                          "parameters" : {
                            "geometryCrop0" : {
                              "type" : "double",
                              "defaultValue" : 0.0,
                              "interp" : "eioe"
                            },
                            "geometryCrop1" : {
                              "type" : "double",
                              "defaultValue" : 0.0,
                              "interp" : "eioe"
                            },
                            "geometryCrop2" : {
                              "type" : "double",
                              "defaultValue" : 0.0,
                              "interp" : "eioe"
                            },
                            "geometryCrop3" : {
                              "type" : "double",
                              "defaultValue" : 0.0,
                              "interp" : "eioe"
                            },
                            "cursorScale" : {
                              "type" : "double",
                              "defaultValue" : 0.0,
                              "interp" : "linr"
                            },
                            "cursorOpacity" : {
                              "type" : "double",
                              "defaultValue" : 0.0,
                              "interp" : "linr"
                            },
                            "cursorTrackLevel" : {
                              "type" : "double",
                              "defaultValue" : 0.0,
                              "interp" : "linr"
                            },
                            "smoothCursorAcrossEditDuration" : 0
                          },
                          "effects" : [

                          ],
                          "start" : 302373120000,
                          "duration" : 24601920000,
                          "mediaStart" : 354070080000,
                          "mediaDuration" : 24601920000,
                          "scalar" : 1,
                          "metadata" : {
                            "AutoAppliedSmartFocus" : "False",
                            "audiateLinkedSession" : "",
                            "clipSpeedAttribute" : { "type": "bool", "value" : false},
                            "colorAttribute" : { "type": "color", "value" : [ 0, 0, 0, 0]},
                            "default-height" : { "type": "double", "value" : 1036.8},
                            "default-translation0" : { "type": "double", "value" : 0.0},
                            "default-translation1" : { "type": "double", "value" : -194.4},
                            "default-translation2" : { "type": "double", "value" : 0.0},
                            "default-width" : { "type": "double", "value" : 1932.67572815534}
                          },
                          "animationTracks" : {

                          }
                        },
                        {
                          "id" : 241,
                          "_type" : "ScreenVMFile",
                          "src" : 2,
                          "trackNumber" : 0,
                          "attributes" : {
                            "ident" : "Rec 4-22-2025-8-51-30-PM"
                          },
                          "parameters" : {
                            "geometryCrop0" : {
                              "type" : "double",
                              "defaultValue" : 0.0,
                              "interp" : "eioe"
                            },
                            "geometryCrop1" : {
                              "type" : "double",
                              "defaultValue" : 0.0,
                              "interp" : "eioe"
                            },
                            "geometryCrop2" : {
                              "type" : "double",
                              "defaultValue" : 0.0,
                              "interp" : "eioe"
                            },
                            "geometryCrop3" : {
                              "type" : "double",
                              "defaultValue" : 0.0,
                              "interp" : "eioe"
                            },
                            "cursorScale" : {
                              "type" : "double",
                              "defaultValue" : 0.0,
                              "interp" : "linr"
                            },
                            "cursorOpacity" : {
                              "type" : "double",
                              "defaultValue" : 0.0,
                              "interp" : "linr"
                            },
                            "cursorTrackLevel" : {
                              "type" : "double",
                              "defaultValue" : 0.0,
                              "interp" : "linr"
                            },
                            "smoothCursorAcrossEditDuration" : 0
                          },
                          "effects" : [

                          ],
                          "start" : 326975040000,
                          "duration" : 122962560000,
                          "mediaStart" : 378672000000,
                          "mediaDuration" : 122962560000,
                          "scalar" : 1,
                          "metadata" : {
                            "AutoAppliedSmartFocus" : "False",
                            "audiateLinkedSession" : "",
                            "clipSpeedAttribute" : { "type": "bool", "value" : false},
                            "colorAttribute" : { "type": "color", "value" : [ 0, 0, 0, 0]},
                            "default-height" : { "type": "double", "value" : 1036.8},
                            "default-translation0" : { "type": "double", "value" : 0.0},
                            "default-translation1" : { "type": "double", "value" : -194.4},
                            "default-translation2" : { "type": "double", "value" : 0.0},
                            "default-width" : { "type": "double", "value" : 1932.67572815534}
                          },
                          "animationTracks" : {

                          }
                        },
                        {
                          "id" : 242,
                          "_type" : "ScreenVMFile",
                          "src" : 2,
                          "trackNumber" : 0,
                          "attributes" : {
                            "ident" : "Rec 4-22-2025-8-51-30-PM"
                          },
                          "parameters" : {
                            "geometryCrop0" : {
                              "type" : "double",
                              "defaultValue" : 0.0,
                              "interp" : "eioe"
                            },
                            "geometryCrop1" : {
                              "type" : "double",
                              "defaultValue" : 0.0,
                              "interp" : "eioe"
                            },
                            "geometryCrop2" : {
                              "type" : "double",
                              "defaultValue" : 0.0,
                              "interp" : "eioe"
                            },
                            "geometryCrop3" : {
                              "type" : "double",
                              "defaultValue" : 0.0,
                              "interp" : "eioe"
                            },
                            "cursorScale" : {
                              "type" : "double",
                              "defaultValue" : 0.0,
                              "interp" : "linr"
                            },
                            "cursorOpacity" : {
                              "type" : "double",
                              "defaultValue" : 0.0,
                              "interp" : "linr"
                            },
                            "cursorTrackLevel" : {
                              "type" : "double",
                              "defaultValue" : 0.0,
                              "interp" : "linr"
                            },
                            "smoothCursorAcrossEditDuration" : 0
                          },
                          "effects" : [

                          ],
                          "start" : 449937600000,
                          "duration" : 8961120000,
                          "mediaStart" : 509843040000,
                          "mediaDuration" : 8961120000,
                          "scalar" : 1,
                          "metadata" : {
                            "AutoAppliedSmartFocus" : "False",
                            "audiateLinkedSession" : "",
                            "clipSpeedAttribute" : { "type": "bool", "value" : false},
                            "colorAttribute" : { "type": "color", "value" : [ 0, 0, 0, 0]},
                            "default-height" : { "type": "double", "value" : 1036.8},
                            "default-translation0" : { "type": "double", "value" : 0.0},
                            "default-translation1" : { "type": "double", "value" : -194.4},
                            "default-translation2" : { "type": "double", "value" : 0.0},
                            "default-width" : { "type": "double", "value" : 1932.67572815534}
                          },
                          "animationTracks" : {

                          }
                        },
                        {
                          "id" : 243,
                          "_type" : "ScreenVMFile",
                          "src" : 2,
                          "trackNumber" : 0,
                          "attributes" : {
                            "ident" : "Rec 4-22-2025-8-51-30-PM"
                          },
                          "parameters" : {
                            "geometryCrop0" : {
                              "type" : "double",
                              "defaultValue" : 0.0,
                              "interp" : "eioe"
                            },
                            "geometryCrop1" : {
                              "type" : "double",
                              "defaultValue" : 0.0,
                              "interp" : "eioe"
                            },
                            "geometryCrop2" : {
                              "type" : "double",
                              "defaultValue" : 0.0,
                              "interp" : "eioe"
                            },
                            "geometryCrop3" : {
                              "type" : "double",
                              "defaultValue" : 0.0,
                              "interp" : "eioe"
                            },
                            "cursorScale" : {
                              "type" : "double",
                              "defaultValue" : 0.0,
                              "interp" : "linr"
                            },
                            "cursorOpacity" : {
                              "type" : "double",
                              "defaultValue" : 0.0,
                              "interp" : "linr"
                            },
                            "cursorTrackLevel" : {
                              "type" : "double",
                              "defaultValue" : 0.0,
                              "interp" : "linr"
                            },
                            "smoothCursorAcrossEditDuration" : 0
                          },
                          "effects" : [

                          ],
                          "start" : 458898720000,
                          "duration" : 581226240000,
                          "mediaStart" : 1416350880000,
                          "mediaDuration" : 581226240000,
                          "scalar" : 1,
                          "metadata" : {
                            "AutoAppliedSmartFocus" : "False",
                            "audiateLinkedSession" : "",
                            "clipSpeedAttribute" : { "type": "bool", "value" : false},
                            "colorAttribute" : { "type": "color", "value" : [ 0, 0, 0, 0]},
                            "default-height" : { "type": "double", "value" : 1036.8},
                            "default-translation0" : { "type": "double", "value" : 0.0},
                            "default-translation1" : { "type": "double", "value" : -194.4},
                            "default-translation2" : { "type": "double", "value" : 0.0},
                            "default-width" : { "type": "double", "value" : 1932.67572815534}
                          },
                          "animationTracks" : {

                          }
                        },
                        {
                          "id" : 244,
                          "_type" : "ScreenVMFile",
                          "src" : 2,
                          "trackNumber" : 0,
                          "attributes" : {
                            "ident" : "Rec 4-22-2025-8-51-30-PM"
                          },
                          "parameters" : {
                            "geometryCrop0" : {
                              "type" : "double",
                              "defaultValue" : 0.0,
                              "interp" : "eioe"
                            },
                            "geometryCrop1" : {
                              "type" : "double",
                              "defaultValue" : 0.0,
                              "interp" : "eioe"
                            },
                            "geometryCrop2" : {
                              "type" : "double",
                              "defaultValue" : 0.0,
                              "interp" : "eioe"
                            },
                            "geometryCrop3" : {
                              "type" : "double",
                              "defaultValue" : 0.0,
                              "interp" : "eioe"
                            },
                            "cursorScale" : {
                              "type" : "double",
                              "defaultValue" : 0.0,
                              "interp" : "linr"
                            },
                            "cursorOpacity" : {
                              "type" : "double",
                              "defaultValue" : 0.0,
                              "interp" : "linr"
                            },
                            "cursorTrackLevel" : {
                              "type" : "double",
                              "defaultValue" : 0.0,
                              "interp" : "linr"
                            },
                            "smoothCursorAcrossEditDuration" : 0
                          },
                          "effects" : [

                          ],
                          "start" : 1040124960000,
                          "duration" : 215419680000,
                          "mediaStart" : 2018886240000,
                          "mediaDuration" : 215419680000,
                          "scalar" : 1,
                          "metadata" : {
                            "AutoAppliedSmartFocus" : "False",
                            "audiateLinkedSession" : "",
                            "clipSpeedAttribute" : { "type": "bool", "value" : false},
                            "colorAttribute" : { "type": "color", "value" : [ 0, 0, 0, 0]},
                            "default-height" : { "type": "double", "value" : 1036.8},
                            "default-translation0" : { "type": "double", "value" : 0.0},
                            "default-translation1" : { "type": "double", "value" : -194.4},
                            "default-translation2" : { "type": "double", "value" : 0.0},
                            "default-width" : { "type": "double", "value" : 1932.67572815534}
                          },
                          "animationTracks" : {

                          }
                        },
                        {
                          "id" : 245,
                          "_type" : "ScreenVMFile",
                          "src" : 2,
                          "trackNumber" : 0,
                          "attributes" : {
                            "ident" : "Rec 4-22-2025-8-51-30-PM"
                          },
                          "parameters" : {
                            "geometryCrop0" : {
                              "type" : "double",
                              "defaultValue" : 0.0,
                              "interp" : "eioe"
                            },
                            "geometryCrop1" : {
                              "type" : "double",
                              "defaultValue" : 0.0,
                              "interp" : "eioe"
                            },
                            "geometryCrop2" : {
                              "type" : "double",
                              "defaultValue" : 0.0,
                              "interp" : "eioe"
                            },
                            "geometryCrop3" : {
                              "type" : "double",
                              "defaultValue" : 0.0,
                              "interp" : "eioe"
                            },
                            "cursorScale" : {
                              "type" : "double",
                              "defaultValue" : 0.0,
                              "interp" : "linr"
                            },
                            "cursorOpacity" : {
                              "type" : "double",
                              "defaultValue" : 0.0,
                              "interp" : "linr"
                            },
                            "cursorTrackLevel" : {
                              "type" : "double",
                              "defaultValue" : 0.0,
                              "interp" : "linr"
                            },
                            "smoothCursorAcrossEditDuration" : 0
                          },
                          "effects" : [

                          ],
                          "start" : 1255544640000,
                          "duration" : 786955680000,
                          "mediaStart" : 2257778880000,
                          "mediaDuration" : 786955680000,
                          "scalar" : 1,
                          "metadata" : {
                            "AutoAppliedSmartFocus" : "False",
                            "audiateLinkedSession" : "",
                            "clipSpeedAttribute" : { "type": "bool", "value" : false},
                            "colorAttribute" : { "type": "color", "value" : [ 0, 0, 0, 0]},
                            "default-height" : { "type": "double", "value" : 1036.8},
                            "default-translation0" : { "type": "double", "value" : 0.0},
                            "default-translation1" : { "type": "double", "value" : -194.4},
                            "default-translation2" : { "type": "double", "value" : 0.0},
                            "default-width" : { "type": "double", "value" : 1932.67572815534}
                          },
                          "animationTracks" : {

                          }
                        },
                        {
                          "id" : 246,
                          "_type" : "ScreenVMFile",
                          "src" : 2,
                          "trackNumber" : 0,
                          "attributes" : {
                            "ident" : "Rec 4-22-2025-8-51-30-PM"
                          },
                          "parameters" : {
                            "geometryCrop0" : {
                              "type" : "double",
                              "defaultValue" : 0.0,
                              "interp" : "eioe"
                            },
                            "geometryCrop1" : {
                              "type" : "double",
                              "defaultValue" : 0.0,
                              "interp" : "eioe"
                            },
                            "geometryCrop2" : {
                              "type" : "double",
                              "defaultValue" : 0.0,
                              "interp" : "eioe"
                            },
                            "geometryCrop3" : {
                              "type" : "double",
                              "defaultValue" : 0.0,
                              "interp" : "eioe"
                            },
                            "cursorScale" : {
                              "type" : "double",
                              "defaultValue" : 0.0,
                              "interp" : "linr"
                            },
                            "cursorOpacity" : {
                              "type" : "double",
                              "defaultValue" : 0.0,
                              "interp" : "linr"
                            },
                            "cursorTrackLevel" : {
                              "type" : "double",
                              "defaultValue" : 0.0,
                              "interp" : "linr"
                            },
                            "smoothCursorAcrossEditDuration" : 0
                          },
                          "effects" : [

                          ],
                          "start" : 2042500320000,
                          "duration" : 20768160000,
                          "mediaStart" : 3047580480000,
                          "mediaDuration" : 20768160000,
                          "scalar" : 1,
                          "metadata" : {
                            "AutoAppliedSmartFocus" : "False",
                            "audiateLinkedSession" : "",
                            "clipSpeedAttribute" : { "type": "bool", "value" : false},
                            "colorAttribute" : { "type": "color", "value" : [ 0, 0, 0, 0]},
                            "default-height" : { "type": "double", "value" : 1036.8},
                            "default-translation0" : { "type": "double", "value" : 0.0},
                            "default-translation1" : { "type": "double", "value" : -194.4},
                            "default-translation2" : { "type": "double", "value" : 0.0},
                            "default-width" : { "type": "double", "value" : 1932.67572815534}
                          },
                          "animationTracks" : {

                          }
                        },
                        {
                          "id" : 247,
                          "_type" : "ScreenVMFile",
                          "src" : 2,
                          "trackNumber" : 0,
                          "attributes" : {
                            "ident" : "Rec 4-22-2025-8-51-30-PM"
                          },
                          "parameters" : {
                            "geometryCrop0" : {
                              "type" : "double",
                              "defaultValue" : 0.0,
                              "interp" : "eioe"
                            },
                            "geometryCrop1" : {
                              "type" : "double",
                              "defaultValue" : 0.0,
                              "interp" : "eioe"
                            },
                            "geometryCrop2" : {
                              "type" : "double",
                              "defaultValue" : 0.0,
                              "interp" : "eioe"
                            },
                            "geometryCrop3" : {
                              "type" : "double",
                              "defaultValue" : 0.0,
                              "interp" : "eioe"
                            },
                            "cursorScale" : {
                              "type" : "double",
                              "defaultValue" : 0.0,
                              "interp" : "linr"
                            },
                            "cursorOpacity" : {
                              "type" : "double",
                              "defaultValue" : 0.0,
                              "interp" : "linr"
                            },
                            "cursorTrackLevel" : {
                              "type" : "double",
                              "defaultValue" : 0.0,
                              "interp" : "linr"
                            },
                            "smoothCursorAcrossEditDuration" : 0
                          },
                          "effects" : [

                          ],
                          "start" : 2063268480000,
                          "duration" : 343039200000,
                          "mediaStart" : 3138932160000,
                          "mediaDuration" : 343039200000,
                          "scalar" : 1,
                          "metadata" : {
                            "AutoAppliedSmartFocus" : "False",
                            "audiateLinkedSession" : "",
                            "clipSpeedAttribute" : { "type": "bool", "value" : false},
                            "colorAttribute" : { "type": "color", "value" : [ 0, 0, 0, 0]},
                            "default-height" : { "type": "double", "value" : 1036.8},
                            "default-translation0" : { "type": "double", "value" : 0.0},
                            "default-translation1" : { "type": "double", "value" : -194.4},
                            "default-translation2" : { "type": "double", "value" : 0.0},
                            "default-width" : { "type": "double", "value" : 1932.67572815534}
                          },
                          "animationTracks" : {

                          }
                        }
                    ],
                    "effects" : [
                        {
                          "effectName" : "CursorColor",
                          "bypassed" : false,
                          "category" : "categoryCursorEffects",
                          "parameters" : {
                            "intensity" : 1.0,
                            "desaturation" : 0.0,
                            "colorLumaCutoff" : 1.0,
                            "color-alpha" : 1.0,
                            "color-red" : 1.0,
                            "color-green" : 0.8980392157,
                            "color-blue" : 0.1215686275,
                            "secondColor-red" : 0.0,
                            "secondColor-green" : 0.0,
                            "secondColor-blue" : 0.0,
                            "secondColor-alpha" : 1.0,
                            "secondColorLumaCutoff" : 0.0,
                            "channel" : 0,
                            "shadowRampStart" : 0.0,
                            "shadowRampEnd" : 0.0,
                            "highlightRampStart" : 1.0,
                            "highlightRampEnd" : 1.0
                          }
                        },
                        {
                          "effectName" : "CursorShadow",
                          "bypassed" : false,
                          "category" : "categoryCursorEffects",
                          "parameters" : {
                            "angle" : 3.92699081698724,
                            "enabled" : 1,
                            "offset" : 5.0,
                            "blur" : 2.0,
                            "opacity" : 0.25,
                            "color-red" : 0.0,
                            "color-green" : 0.0,
                            "color-blue" : 0.0,
                            "color-alpha" : 1.0
                          }
                        },
                        {
                          "effectName" : "CursorHilight",
                          "bypassed" : false,
                          "category" : "categoryCursorEffects",
                          "parameters" : {
                            "radius" : 50.0,
                            "color-red" : 1.0,
                            "color-green" : 1.0,
                            "color-blue" : 0.0,
                            "color-alpha" : 0.75,
                            "blur" : 0.1
                          }
                        }
                    ],
                    "start" : 59717280000,
                    "duration" : 493920000,
                    "mediaStart" : 318806771613,
                    "mediaDuration" : 1599360000,
                    "scalar" : "21/68",
                    "metadata" : {
                      "AutoAppliedSmartFocus" : "False",
                      "audiateLinkedSession" : "",
                      "clipSpeedAttribute" : { "type": "bool", "value" : true},
                      "colorAttribute" : { "type": "color", "value" : [ 0, 0, 0, 0]},
                      "default-height" : { "type": "double", "value" : 1036.8},
                      "default-scale0" : { "type": "double", "value" : 0.503300970873786},
                      "default-scale1" : { "type": "double", "value" : 0.503300970873786},
                      "default-translation0" : { "type": "double", "value" : 0.0},
                      "default-translation1" : { "type": "double", "value" : -194.4},
                      "default-translation2" : { "type": "double", "value" : 0.0},
                      "default-width" : { "type": "double", "value" : 1932.67572815534}
                    },
                    "animationTracks" : {

                    }
                  },
                  {
                    "id" : 248,
                    "_type" : "StitchedMedia",
                    "minMediaStart" : 0,
                    "attributes" : {
                      "ident" : "Rec 4-22-2025-8-51-30-PM",
                      "gain" : 1.0,
                      "mixToMono" : false,
                      "loudnessNormalization" : true,
                      "sourceFileOffset" : 0
                    },
                    "parameters" : {
                      "translation0" : 6.33786407766917,
                      "translation1" : -2.8421709430404e-14,
                      "scale0" : 0.503300970873786,
                      "scale1" : 0.503300970873786,
                      "geometryCrop0" : 0.0,
                      "geometryCrop1" : 0.0,
                      "geometryCrop2" : 0.0,
                      "geometryCrop3" : 0.0,
                      "cursorOpacity" : 1.0,
                      "cursorTrackLevel" : 0.0,
                      "cursorScale" : 5.0,
                      "smoothCursorAcrossEditDuration" : 0
                    },
                    "medias" : [
                        {
                          "id" : 249,
                          "_type" : "ScreenVMFile",
                          "src" : 2,
                          "trackNumber" : 0,
                          "attributes" : {
                            "ident" : "Rec 4-22-2025-8-51-30-PM"
                          },
                          "parameters" : {
                            "geometryCrop0" : {
                              "type" : "double",
                              "defaultValue" : 0.0,
                              "interp" : "eioe"
                            },
                            "geometryCrop1" : {
                              "type" : "double",
                              "defaultValue" : 0.0,
                              "interp" : "eioe"
                            },
                            "geometryCrop2" : {
                              "type" : "double",
                              "defaultValue" : 0.0,
                              "interp" : "eioe"
                            },
                            "geometryCrop3" : {
                              "type" : "double",
                              "defaultValue" : 0.0,
                              "interp" : "eioe"
                            },
                            "cursorScale" : {
                              "type" : "double",
                              "defaultValue" : 0.0,
                              "interp" : "linr"
                            },
                            "cursorOpacity" : {
                              "type" : "double",
                              "defaultValue" : 0.0,
                              "interp" : "linr"
                            },
                            "cursorTrackLevel" : {
                              "type" : "double",
                              "defaultValue" : 0.0,
                              "interp" : "linr"
                            },
                            "smoothCursorAcrossEditDuration" : 0
                          },
                          "effects" : [

                          ],
                          "start" : 0,
                          "duration" : 50991360000,
                          "mediaStart" : 0,
                          "mediaDuration" : 50991360000,
                          "scalar" : 1,
                          "metadata" : {
                            "AutoAppliedSmartFocus" : "False",
                            "audiateLinkedSession" : "",
                            "clipSpeedAttribute" : { "type": "bool", "value" : false},
                            "colorAttribute" : { "type": "color", "value" : [ 0, 0, 0, 0]},
                            "default-height" : { "type": "double", "value" : 1036.8},
                            "default-translation0" : { "type": "double", "value" : 0.0},
                            "default-translation1" : { "type": "double", "value" : -194.4},
                            "default-translation2" : { "type": "double", "value" : 0.0},
                            "default-width" : { "type": "double", "value" : 1932.67572815534}
                          },
                          "animationTracks" : {

                          }
                        },
                        {
                          "id" : 250,
                          "_type" : "ScreenVMFile",
                          "src" : 2,
                          "trackNumber" : 0,
                          "attributes" : {
                            "ident" : "Rec 4-22-2025-8-51-30-PM"
                          },
                          "parameters" : {
                            "geometryCrop0" : {
                              "type" : "double",
                              "defaultValue" : 0.0,
                              "interp" : "eioe"
                            },
                            "geometryCrop1" : {
                              "type" : "double",
                              "defaultValue" : 0.0,
                              "interp" : "eioe"
                            },
                            "geometryCrop2" : {
                              "type" : "double",
                              "defaultValue" : 0.0,
                              "interp" : "eioe"
                            },
                            "geometryCrop3" : {
                              "type" : "double",
                              "defaultValue" : 0.0,
                              "interp" : "eioe"
                            },
                            "cursorScale" : {
                              "type" : "double",
                              "defaultValue" : 0.0,
                              "interp" : "linr"
                            },
                            "cursorOpacity" : {
                              "type" : "double",
                              "defaultValue" : 0.0,
                              "interp" : "linr"
                            },
                            "cursorTrackLevel" : {
                              "type" : "double",
                              "defaultValue" : 0.0,
                              "interp" : "linr"
                            },
                            "smoothCursorAcrossEditDuration" : 0
                          },
                          "effects" : [

                          ],
                          "start" : 50991360000,
                          "duration" : 46663680000,
                          "mediaStart" : 66467520000,
                          "mediaDuration" : 46663680000,
                          "scalar" : 1,
                          "metadata" : {
                            "AutoAppliedSmartFocus" : "False",
                            "audiateLinkedSession" : "",
                            "clipSpeedAttribute" : { "type": "bool", "value" : false},
                            "colorAttribute" : { "type": "color", "value" : [ 0, 0, 0, 0]},
                            "default-height" : { "type": "double", "value" : 1036.8},
                            "default-translation0" : { "type": "double", "value" : 0.0},
                            "default-translation1" : { "type": "double", "value" : -194.4},
                            "default-translation2" : { "type": "double", "value" : 0.0},
                            "default-width" : { "type": "double", "value" : 1932.67572815534}
                          },
                          "animationTracks" : {

                          }
                        },
                        {
                          "id" : 251,
                          "_type" : "ScreenVMFile",
                          "src" : 2,
                          "trackNumber" : 0,
                          "attributes" : {
                            "ident" : "Rec 4-22-2025-8-51-30-PM"
                          },
                          "parameters" : {
                            "geometryCrop0" : {
                              "type" : "double",
                              "defaultValue" : 0.0,
                              "interp" : "eioe"
                            },
                            "geometryCrop1" : {
                              "type" : "double",
                              "defaultValue" : 0.0,
                              "interp" : "eioe"
                            },
                            "geometryCrop2" : {
                              "type" : "double",
                              "defaultValue" : 0.0,
                              "interp" : "eioe"
                            },
                            "geometryCrop3" : {
                              "type" : "double",
                              "defaultValue" : 0.0,
                              "interp" : "eioe"
                            },
                            "cursorScale" : {
                              "type" : "double",
                              "defaultValue" : 0.0,
                              "interp" : "linr"
                            },
                            "cursorOpacity" : {
                              "type" : "double",
                              "defaultValue" : 0.0,
                              "interp" : "linr"
                            },
                            "cursorTrackLevel" : {
                              "type" : "double",
                              "defaultValue" : 0.0,
                              "interp" : "linr"
                            },
                            "smoothCursorAcrossEditDuration" : 0
                          },
                          "effects" : [

                          ],
                          "start" : 97655040000,
                          "duration" : 197215200000,
                          "mediaStart" : 149352000000,
                          "mediaDuration" : 197215200000,
                          "scalar" : 1,
                          "metadata" : {
                            "AutoAppliedSmartFocus" : "False",
                            "audiateLinkedSession" : "",
                            "clipSpeedAttribute" : { "type": "bool", "value" : false},
                            "colorAttribute" : { "type": "color", "value" : [ 0, 0, 0, 0]},
                            "default-height" : { "type": "double", "value" : 1036.8},
                            "default-translation0" : { "type": "double", "value" : 0.0},
                            "default-translation1" : { "type": "double", "value" : -194.4},
                            "default-translation2" : { "type": "double", "value" : 0.0},
                            "default-width" : { "type": "double", "value" : 1932.67572815534}
                          },
                          "animationTracks" : {

                          }
                        },
                        {
                          "id" : 252,
                          "_type" : "ScreenVMFile",
                          "src" : 2,
                          "trackNumber" : 0,
                          "attributes" : {
                            "ident" : "Rec 4-22-2025-8-51-30-PM"
                          },
                          "parameters" : {
                            "geometryCrop0" : {
                              "type" : "double",
                              "defaultValue" : 0.0,
                              "interp" : "eioe"
                            },
                            "geometryCrop1" : {
                              "type" : "double",
                              "defaultValue" : 0.0,
                              "interp" : "eioe"
                            },
                            "geometryCrop2" : {
                              "type" : "double",
                              "defaultValue" : 0.0,
                              "interp" : "eioe"
                            },
                            "geometryCrop3" : {
                              "type" : "double",
                              "defaultValue" : 0.0,
                              "interp" : "eioe"
                            },
                            "cursorScale" : {
                              "type" : "double",
                              "defaultValue" : 0.0,
                              "interp" : "linr"
                            },
                            "cursorOpacity" : {
                              "type" : "double",
                              "defaultValue" : 0.0,
                              "interp" : "linr"
                            },
                            "cursorTrackLevel" : {
                              "type" : "double",
                              "defaultValue" : 0.0,
                              "interp" : "linr"
                            },
                            "smoothCursorAcrossEditDuration" : 0
                          },
                          "effects" : [

                          ],
                          "start" : 294870240000,
                          "duration" : 7502880000,
                          "mediaStart" : 346567200000,
                          "mediaDuration" : 7502880000,
                          "scalar" : 1,
                          "metadata" : {
                            "AutoAppliedSmartFocus" : "False",
                            "audiateLinkedSession" : "",
                            "clipSpeedAttribute" : { "type": "bool", "value" : false},
                            "colorAttribute" : { "type": "color", "value" : [ 0, 0, 0, 0]},
                            "default-height" : { "type": "double", "value" : 1036.8},
                            "default-translation0" : { "type": "double", "value" : 0.0},
                            "default-translation1" : { "type": "double", "value" : -194.4},
                            "default-translation2" : { "type": "double", "value" : 0.0},
                            "default-width" : { "type": "double", "value" : 1932.67572815534}
                          },
                          "animationTracks" : {

                          }
                        },
                        {
                          "id" : 253,
                          "_type" : "ScreenVMFile",
                          "src" : 2,
                          "trackNumber" : 0,
                          "attributes" : {
                            "ident" : "Rec 4-22-2025-8-51-30-PM"
                          },
                          "parameters" : {
                            "geometryCrop0" : {
                              "type" : "double",
                              "defaultValue" : 0.0,
                              "interp" : "eioe"
                            },
                            "geometryCrop1" : {
                              "type" : "double",
                              "defaultValue" : 0.0,
                              "interp" : "eioe"
                            },
                            "geometryCrop2" : {
                              "type" : "double",
                              "defaultValue" : 0.0,
                              "interp" : "eioe"
                            },
                            "geometryCrop3" : {
                              "type" : "double",
                              "defaultValue" : 0.0,
                              "interp" : "eioe"
                            },
                            "cursorScale" : {
                              "type" : "double",
                              "defaultValue" : 0.0,
                              "interp" : "linr"
                            },
                            "cursorOpacity" : {
                              "type" : "double",
                              "defaultValue" : 0.0,
                              "interp" : "linr"
                            },
                            "cursorTrackLevel" : {
                              "type" : "double",
                              "defaultValue" : 0.0,
                              "interp" : "linr"
                            },
                            "smoothCursorAcrossEditDuration" : 0
                          },
                          "effects" : [

                          ],
                          "start" : 302373120000,
                          "duration" : 24601920000,
                          "mediaStart" : 354070080000,
                          "mediaDuration" : 24601920000,
                          "scalar" : 1,
                          "metadata" : {
                            "AutoAppliedSmartFocus" : "False",
                            "audiateLinkedSession" : "",
                            "clipSpeedAttribute" : { "type": "bool", "value" : false},
                            "colorAttribute" : { "type": "color", "value" : [ 0, 0, 0, 0]},
                            "default-height" : { "type": "double", "value" : 1036.8},
                            "default-translation0" : { "type": "double", "value" : 0.0},
                            "default-translation1" : { "type": "double", "value" : -194.4},
                            "default-translation2" : { "type": "double", "value" : 0.0},
                            "default-width" : { "type": "double", "value" : 1932.67572815534}
                          },
                          "animationTracks" : {

                          }
                        },
                        {
                          "id" : 254,
                          "_type" : "ScreenVMFile",
                          "src" : 2,
                          "trackNumber" : 0,
                          "attributes" : {
                            "ident" : "Rec 4-22-2025-8-51-30-PM"
                          },
                          "parameters" : {
                            "geometryCrop0" : {
                              "type" : "double",
                              "defaultValue" : 0.0,
                              "interp" : "eioe"
                            },
                            "geometryCrop1" : {
                              "type" : "double",
                              "defaultValue" : 0.0,
                              "interp" : "eioe"
                            },
                            "geometryCrop2" : {
                              "type" : "double",
                              "defaultValue" : 0.0,
                              "interp" : "eioe"
                            },
                            "geometryCrop3" : {
                              "type" : "double",
                              "defaultValue" : 0.0,
                              "interp" : "eioe"
                            },
                            "cursorScale" : {
                              "type" : "double",
                              "defaultValue" : 0.0,
                              "interp" : "linr"
                            },
                            "cursorOpacity" : {
                              "type" : "double",
                              "defaultValue" : 0.0,
                              "interp" : "linr"
                            },
                            "cursorTrackLevel" : {
                              "type" : "double",
                              "defaultValue" : 0.0,
                              "interp" : "linr"
                            },
                            "smoothCursorAcrossEditDuration" : 0
                          },
                          "effects" : [

                          ],
                          "start" : 326975040000,
                          "duration" : 122962560000,
                          "mediaStart" : 378672000000,
                          "mediaDuration" : 122962560000,
                          "scalar" : 1,
                          "metadata" : {
                            "AutoAppliedSmartFocus" : "False",
                            "audiateLinkedSession" : "",
                            "clipSpeedAttribute" : { "type": "bool", "value" : false},
                            "colorAttribute" : { "type": "color", "value" : [ 0, 0, 0, 0]},
                            "default-height" : { "type": "double", "value" : 1036.8},
                            "default-translation0" : { "type": "double", "value" : 0.0},
                            "default-translation1" : { "type": "double", "value" : -194.4},
                            "default-translation2" : { "type": "double", "value" : 0.0},
                            "default-width" : { "type": "double", "value" : 1932.67572815534}
                          },
                          "animationTracks" : {

                          }
                        },
                        {
                          "id" : 255,
                          "_type" : "ScreenVMFile",
                          "src" : 2,
                          "trackNumber" : 0,
                          "attributes" : {
                            "ident" : "Rec 4-22-2025-8-51-30-PM"
                          },
                          "parameters" : {
                            "geometryCrop0" : {
                              "type" : "double",
                              "defaultValue" : 0.0,
                              "interp" : "eioe"
                            },
                            "geometryCrop1" : {
                              "type" : "double",
                              "defaultValue" : 0.0,
                              "interp" : "eioe"
                            },
                            "geometryCrop2" : {
                              "type" : "double",
                              "defaultValue" : 0.0,
                              "interp" : "eioe"
                            },
                            "geometryCrop3" : {
                              "type" : "double",
                              "defaultValue" : 0.0,
                              "interp" : "eioe"
                            },
                            "cursorScale" : {
                              "type" : "double",
                              "defaultValue" : 0.0,
                              "interp" : "linr"
                            },
                            "cursorOpacity" : {
                              "type" : "double",
                              "defaultValue" : 0.0,
                              "interp" : "linr"
                            },
                            "cursorTrackLevel" : {
                              "type" : "double",
                              "defaultValue" : 0.0,
                              "interp" : "linr"
                            },
                            "smoothCursorAcrossEditDuration" : 0
                          },
                          "effects" : [

                          ],
                          "start" : 449937600000,
                          "duration" : 8961120000,
                          "mediaStart" : 509843040000,
                          "mediaDuration" : 8961120000,
                          "scalar" : 1,
                          "metadata" : {
                            "AutoAppliedSmartFocus" : "False",
                            "audiateLinkedSession" : "",
                            "clipSpeedAttribute" : { "type": "bool", "value" : false},
                            "colorAttribute" : { "type": "color", "value" : [ 0, 0, 0, 0]},
                            "default-height" : { "type": "double", "value" : 1036.8},
                            "default-translation0" : { "type": "double", "value" : 0.0},
                            "default-translation1" : { "type": "double", "value" : -194.4},
                            "default-translation2" : { "type": "double", "value" : 0.0},
                            "default-width" : { "type": "double", "value" : 1932.67572815534}
                          },
                          "animationTracks" : {

                          }
                        },
                        {
                          "id" : 256,
                          "_type" : "ScreenVMFile",
                          "src" : 2,
                          "trackNumber" : 0,
                          "attributes" : {
                            "ident" : "Rec 4-22-2025-8-51-30-PM"
                          },
                          "parameters" : {
                            "geometryCrop0" : {
                              "type" : "double",
                              "defaultValue" : 0.0,
                              "interp" : "eioe"
                            },
                            "geometryCrop1" : {
                              "type" : "double",
                              "defaultValue" : 0.0,
                              "interp" : "eioe"
                            },
                            "geometryCrop2" : {
                              "type" : "double",
                              "defaultValue" : 0.0,
                              "interp" : "eioe"
                            },
                            "geometryCrop3" : {
                              "type" : "double",
                              "defaultValue" : 0.0,
                              "interp" : "eioe"
                            },
                            "cursorScale" : {
                              "type" : "double",
                              "defaultValue" : 0.0,
                              "interp" : "linr"
                            },
                            "cursorOpacity" : {
                              "type" : "double",
                              "defaultValue" : 0.0,
                              "interp" : "linr"
                            },
                            "cursorTrackLevel" : {
                              "type" : "double",
                              "defaultValue" : 0.0,
                              "interp" : "linr"
                            },
                            "smoothCursorAcrossEditDuration" : 0
                          },
                          "effects" : [

                          ],
                          "start" : 458898720000,
                          "duration" : 581226240000,
                          "mediaStart" : 1416350880000,
                          "mediaDuration" : 581226240000,
                          "scalar" : 1,
                          "metadata" : {
                            "AutoAppliedSmartFocus" : "False",
                            "audiateLinkedSession" : "",
                            "clipSpeedAttribute" : { "type": "bool", "value" : false},
                            "colorAttribute" : { "type": "color", "value" : [ 0, 0, 0, 0]},
                            "default-height" : { "type": "double", "value" : 1036.8},
                            "default-translation0" : { "type": "double", "value" : 0.0},
                            "default-translation1" : { "type": "double", "value" : -194.4},
                            "default-translation2" : { "type": "double", "value" : 0.0},
                            "default-width" : { "type": "double", "value" : 1932.67572815534}
                          },
                          "animationTracks" : {

                          }
                        },
                        {
                          "id" : 257,
                          "_type" : "ScreenVMFile",
                          "src" : 2,
                          "trackNumber" : 0,
                          "attributes" : {
                            "ident" : "Rec 4-22-2025-8-51-30-PM"
                          },
                          "parameters" : {
                            "geometryCrop0" : {
                              "type" : "double",
                              "defaultValue" : 0.0,
                              "interp" : "eioe"
                            },
                            "geometryCrop1" : {
                              "type" : "double",
                              "defaultValue" : 0.0,
                              "interp" : "eioe"
                            },
                            "geometryCrop2" : {
                              "type" : "double",
                              "defaultValue" : 0.0,
                              "interp" : "eioe"
                            },
                            "geometryCrop3" : {
                              "type" : "double",
                              "defaultValue" : 0.0,
                              "interp" : "eioe"
                            },
                            "cursorScale" : {
                              "type" : "double",
                              "defaultValue" : 0.0,
                              "interp" : "linr"
                            },
                            "cursorOpacity" : {
                              "type" : "double",
                              "defaultValue" : 0.0,
                              "interp" : "linr"
                            },
                            "cursorTrackLevel" : {
                              "type" : "double",
                              "defaultValue" : 0.0,
                              "interp" : "linr"
                            },
                            "smoothCursorAcrossEditDuration" : 0
                          },
                          "effects" : [

                          ],
                          "start" : 1040124960000,
                          "duration" : 215419680000,
                          "mediaStart" : 2018886240000,
                          "mediaDuration" : 215419680000,
                          "scalar" : 1,
                          "metadata" : {
                            "AutoAppliedSmartFocus" : "False",
                            "audiateLinkedSession" : "",
                            "clipSpeedAttribute" : { "type": "bool", "value" : false},
                            "colorAttribute" : { "type": "color", "value" : [ 0, 0, 0, 0]},
                            "default-height" : { "type": "double", "value" : 1036.8},
                            "default-translation0" : { "type": "double", "value" : 0.0},
                            "default-translation1" : { "type": "double", "value" : -194.4},
                            "default-translation2" : { "type": "double", "value" : 0.0},
                            "default-width" : { "type": "double", "value" : 1932.67572815534}
                          },
                          "animationTracks" : {

                          }
                        },
                        {
                          "id" : 258,
                          "_type" : "ScreenVMFile",
                          "src" : 2,
                          "trackNumber" : 0,
                          "attributes" : {
                            "ident" : "Rec 4-22-2025-8-51-30-PM"
                          },
                          "parameters" : {
                            "geometryCrop0" : {
                              "type" : "double",
                              "defaultValue" : 0.0,
                              "interp" : "eioe"
                            },
                            "geometryCrop1" : {
                              "type" : "double",
                              "defaultValue" : 0.0,
                              "interp" : "eioe"
                            },
                            "geometryCrop2" : {
                              "type" : "double",
                              "defaultValue" : 0.0,
                              "interp" : "eioe"
                            },
                            "geometryCrop3" : {
                              "type" : "double",
                              "defaultValue" : 0.0,
                              "interp" : "eioe"
                            },
                            "cursorScale" : {
                              "type" : "double",
                              "defaultValue" : 0.0,
                              "interp" : "linr"
                            },
                            "cursorOpacity" : {
                              "type" : "double",
                              "defaultValue" : 0.0,
                              "interp" : "linr"
                            },
                            "cursorTrackLevel" : {
                              "type" : "double",
                              "defaultValue" : 0.0,
                              "interp" : "linr"
                            },
                            "smoothCursorAcrossEditDuration" : 0
                          },
                          "effects" : [

                          ],
                          "start" : 1255544640000,
                          "duration" : 786955680000,
                          "mediaStart" : 2257778880000,
                          "mediaDuration" : 786955680000,
                          "scalar" : 1,
                          "metadata" : {
                            "AutoAppliedSmartFocus" : "False",
                            "audiateLinkedSession" : "",
                            "clipSpeedAttribute" : { "type": "bool", "value" : false},
                            "colorAttribute" : { "type": "color", "value" : [ 0, 0, 0, 0]},
                            "default-height" : { "type": "double", "value" : 1036.8},
                            "default-translation0" : { "type": "double", "value" : 0.0},
                            "default-translation1" : { "type": "double", "value" : -194.4},
                            "default-translation2" : { "type": "double", "value" : 0.0},
                            "default-width" : { "type": "double", "value" : 1932.67572815534}
                          },
                          "animationTracks" : {

                          }
                        },
                        {
                          "id" : 259,
                          "_type" : "ScreenVMFile",
                          "src" : 2,
                          "trackNumber" : 0,
                          "attributes" : {
                            "ident" : "Rec 4-22-2025-8-51-30-PM"
                          },
                          "parameters" : {
                            "geometryCrop0" : {
                              "type" : "double",
                              "defaultValue" : 0.0,
                              "interp" : "eioe"
                            },
                            "geometryCrop1" : {
                              "type" : "double",
                              "defaultValue" : 0.0,
                              "interp" : "eioe"
                            },
                            "geometryCrop2" : {
                              "type" : "double",
                              "defaultValue" : 0.0,
                              "interp" : "eioe"
                            },
                            "geometryCrop3" : {
                              "type" : "double",
                              "defaultValue" : 0.0,
                              "interp" : "eioe"
                            },
                            "cursorScale" : {
                              "type" : "double",
                              "defaultValue" : 0.0,
                              "interp" : "linr"
                            },
                            "cursorOpacity" : {
                              "type" : "double",
                              "defaultValue" : 0.0,
                              "interp" : "linr"
                            },
                            "cursorTrackLevel" : {
                              "type" : "double",
                              "defaultValue" : 0.0,
                              "interp" : "linr"
                            },
                            "smoothCursorAcrossEditDuration" : 0
                          },
                          "effects" : [

                          ],
                          "start" : 2042500320000,
                          "duration" : 20768160000,
                          "mediaStart" : 3047580480000,
                          "mediaDuration" : 20768160000,
                          "scalar" : 1,
                          "metadata" : {
                            "AutoAppliedSmartFocus" : "False",
                            "audiateLinkedSession" : "",
                            "clipSpeedAttribute" : { "type": "bool", "value" : false},
                            "colorAttribute" : { "type": "color", "value" : [ 0, 0, 0, 0]},
                            "default-height" : { "type": "double", "value" : 1036.8},
                            "default-translation0" : { "type": "double", "value" : 0.0},
                            "default-translation1" : { "type": "double", "value" : -194.4},
                            "default-translation2" : { "type": "double", "value" : 0.0},
                            "default-width" : { "type": "double", "value" : 1932.67572815534}
                          },
                          "animationTracks" : {

                          }
                        },
                        {
                          "id" : 260,
                          "_type" : "ScreenVMFile",
                          "src" : 2,
                          "trackNumber" : 0,
                          "attributes" : {
                            "ident" : "Rec 4-22-2025-8-51-30-PM"
                          },
                          "parameters" : {
                            "geometryCrop0" : {
                              "type" : "double",
                              "defaultValue" : 0.0,
                              "interp" : "eioe"
                            },
                            "geometryCrop1" : {
                              "type" : "double",
                              "defaultValue" : 0.0,
                              "interp" : "eioe"
                            },
                            "geometryCrop2" : {
                              "type" : "double",
                              "defaultValue" : 0.0,
                              "interp" : "eioe"
                            },
                            "geometryCrop3" : {
                              "type" : "double",
                              "defaultValue" : 0.0,
                              "interp" : "eioe"
                            },
                            "cursorScale" : {
                              "type" : "double",
                              "defaultValue" : 0.0,
                              "interp" : "linr"
                            },
                            "cursorOpacity" : {
                              "type" : "double",
                              "defaultValue" : 0.0,
                              "interp" : "linr"
                            },
                            "cursorTrackLevel" : {
                              "type" : "double",
                              "defaultValue" : 0.0,
                              "interp" : "linr"
                            },
                            "smoothCursorAcrossEditDuration" : 0
                          },
                          "effects" : [

                          ],
                          "start" : 2063268480000,
                          "duration" : 343039200000,
                          "mediaStart" : 3138932160000,
                          "mediaDuration" : 343039200000,
                          "scalar" : 1,
                          "metadata" : {
                            "AutoAppliedSmartFocus" : "False",
                            "audiateLinkedSession" : "",
                            "clipSpeedAttribute" : { "type": "bool", "value" : false},
                            "colorAttribute" : { "type": "color", "value" : [ 0, 0, 0, 0]},
                            "default-height" : { "type": "double", "value" : 1036.8},
                            "default-translation0" : { "type": "double", "value" : 0.0},
                            "default-translation1" : { "type": "double", "value" : -194.4},
                            "default-translation2" : { "type": "double", "value" : 0.0},
                            "default-width" : { "type": "double", "value" : 1932.67572815534}
                          },
                          "animationTracks" : {

                          }
                        }
                    ],
                    "effects" : [
                        {
                          "effectName" : "CursorColor",
                          "bypassed" : false,
                          "category" : "categoryCursorEffects",
                          "parameters" : {
                            "intensity" : 1.0,
                            "desaturation" : 0.0,
                            "colorLumaCutoff" : 1.0,
                            "color-alpha" : 1.0,
                            "color-red" : 1.0,
                            "color-green" : 0.8980392157,
                            "color-blue" : 0.1215686275,
                            "secondColor-red" : 0.0,
                            "secondColor-green" : 0.0,
                            "secondColor-blue" : 0.0,
                            "secondColor-alpha" : 1.0,
                            "secondColorLumaCutoff" : 0.0,
                            "channel" : 0,
                            "shadowRampStart" : 0.0,
                            "shadowRampEnd" : 0.0,
                            "highlightRampStart" : 1.0,
                            "highlightRampEnd" : 1.0
                          }
                        },
                        {
                          "effectName" : "CursorShadow",
                          "bypassed" : false,
                          "category" : "categoryCursorEffects",
                          "parameters" : {
                            "angle" : 3.92699081698724,
                            "enabled" : 1,
                            "offset" : 5.0,
                            "blur" : 2.0,
                            "opacity" : 0.25,
                            "color-red" : 0.0,
                            "color-green" : 0.0,
                            "color-blue" : 0.0,
                            "color-alpha" : 1.0
                          }
                        },
                        {
                          "effectName" : "CursorHilight",
                          "bypassed" : false,
                          "category" : "categoryCursorEffects",
                          "parameters" : {
                            "radius" : 50.0,
                            "color-red" : 1.0,
                            "color-green" : 1.0,
                            "color-blue" : 0.0,
                            "color-alpha" : 0.75,
                            "blur" : 0.1
                          }
                        }
                    ],
                    "start" : 60211200000,
                    "duration" : 1811040000,
                    "mediaStart" : 320406131613,
                    "mediaDuration" : 3904320000,
                    "scalar" : "77/166",
                    "metadata" : {
                      "AutoAppliedSmartFocus" : "False",
                      "audiateLinkedSession" : "",
                      "clipSpeedAttribute" : { "type": "bool", "value" : true},
                      "colorAttribute" : { "type": "color", "value" : [ 0, 0, 0, 0]},
                      "default-height" : { "type": "double", "value" : 1036.8},
                      "default-scale0" : { "type": "double", "value" : 0.503300970873786},
                      "default-scale1" : { "type": "double", "value" : 0.503300970873786},
                      "default-translation0" : { "type": "double", "value" : 0.0},
                      "default-translation1" : { "type": "double", "value" : -194.4},
                      "default-translation2" : { "type": "double", "value" : 0.0},
                      "default-width" : { "type": "double", "value" : 1932.67572815534}
                    },
                    "animationTracks" : {

                    }
                  },
                  {
                    "id" : 261,
                    "_type" : "StitchedMedia",
                    "minMediaStart" : 0,
                    "attributes" : {
                      "ident" : "Rec 4-22-2025-8-51-30-PM",
                      "gain" : 1.0,
                      "mixToMono" : false,
                      "loudnessNormalization" : true,
                      "sourceFileOffset" : 0
                    },
                    "parameters" : {
                      "translation0" : 6.33786407766917,
                      "translation1" : -2.8421709430404e-14,
                      "scale0" : 0.503300970873786,
                      "scale1" : 0.503300970873786,
                      "geometryCrop0" : 0.0,
                      "geometryCrop1" : 0.0,
                      "geometryCrop2" : 0.0,
                      "geometryCrop3" : 0.0,
                      "toc" : {
                        "type" : "string",
                        "keyframes" : [
                          {
                            "endTime" : 326975040000,
                            "time" : 326975040000,
                            "value" : "Change color",
                            "duration" : 0,
                            "metadata" : {
                              "markerIdentifier" : "F5FE43AB-2585-4DDB-BA5D-56C0D7B1AC13"
                            }
                          }
                        ]
                      },
                      "cursorOpacity" : 1.0,
                      "cursorTrackLevel" : 0.0,
                      "cursorScale" : 5.0,
                      "smoothCursorAcrossEditDuration" : 0
                    },
                    "medias" : [
                        {
                          "id" : 262,
                          "_type" : "ScreenVMFile",
                          "src" : 2,
                          "trackNumber" : 0,
                          "attributes" : {
                            "ident" : "Rec 4-22-2025-8-51-30-PM"
                          },
                          "parameters" : {
                            "geometryCrop0" : {
                              "type" : "double",
                              "defaultValue" : 0.0,
                              "interp" : "eioe"
                            },
                            "geometryCrop1" : {
                              "type" : "double",
                              "defaultValue" : 0.0,
                              "interp" : "eioe"
                            },
                            "geometryCrop2" : {
                              "type" : "double",
                              "defaultValue" : 0.0,
                              "interp" : "eioe"
                            },
                            "geometryCrop3" : {
                              "type" : "double",
                              "defaultValue" : 0.0,
                              "interp" : "eioe"
                            },
                            "cursorScale" : {
                              "type" : "double",
                              "defaultValue" : 0.0,
                              "interp" : "linr"
                            },
                            "cursorOpacity" : {
                              "type" : "double",
                              "defaultValue" : 0.0,
                              "interp" : "linr"
                            },
                            "cursorTrackLevel" : {
                              "type" : "double",
                              "defaultValue" : 0.0,
                              "interp" : "linr"
                            },
                            "smoothCursorAcrossEditDuration" : 0
                          },
                          "effects" : [

                          ],
                          "start" : 0,
                          "duration" : 50991360000,
                          "mediaStart" : 0,
                          "mediaDuration" : 50991360000,
                          "scalar" : 1,
                          "metadata" : {
                            "AutoAppliedSmartFocus" : "False",
                            "audiateLinkedSession" : "",
                            "clipSpeedAttribute" : { "type": "bool", "value" : false},
                            "colorAttribute" : { "type": "color", "value" : [ 0, 0, 0, 0]},
                            "default-height" : { "type": "double", "value" : 1036.8},
                            "default-translation0" : { "type": "double", "value" : 0.0},
                            "default-translation1" : { "type": "double", "value" : -194.4},
                            "default-translation2" : { "type": "double", "value" : 0.0},
                            "default-width" : { "type": "double", "value" : 1932.67572815534}
                          },
                          "animationTracks" : {

                          }
                        },
                        {
                          "id" : 263,
                          "_type" : "ScreenVMFile",
                          "src" : 2,
                          "trackNumber" : 0,
                          "attributes" : {
                            "ident" : "Rec 4-22-2025-8-51-30-PM"
                          },
                          "parameters" : {
                            "geometryCrop0" : {
                              "type" : "double",
                              "defaultValue" : 0.0,
                              "interp" : "eioe"
                            },
                            "geometryCrop1" : {
                              "type" : "double",
                              "defaultValue" : 0.0,
                              "interp" : "eioe"
                            },
                            "geometryCrop2" : {
                              "type" : "double",
                              "defaultValue" : 0.0,
                              "interp" : "eioe"
                            },
                            "geometryCrop3" : {
                              "type" : "double",
                              "defaultValue" : 0.0,
                              "interp" : "eioe"
                            },
                            "cursorScale" : {
                              "type" : "double",
                              "defaultValue" : 0.0,
                              "interp" : "linr"
                            },
                            "cursorOpacity" : {
                              "type" : "double",
                              "defaultValue" : 0.0,
                              "interp" : "linr"
                            },
                            "cursorTrackLevel" : {
                              "type" : "double",
                              "defaultValue" : 0.0,
                              "interp" : "linr"
                            },
                            "smoothCursorAcrossEditDuration" : 0
                          },
                          "effects" : [

                          ],
                          "start" : 50991360000,
                          "duration" : 46663680000,
                          "mediaStart" : 66467520000,
                          "mediaDuration" : 46663680000,
                          "scalar" : 1,
                          "metadata" : {
                            "AutoAppliedSmartFocus" : "False",
                            "audiateLinkedSession" : "",
                            "clipSpeedAttribute" : { "type": "bool", "value" : false},
                            "colorAttribute" : { "type": "color", "value" : [ 0, 0, 0, 0]},
                            "default-height" : { "type": "double", "value" : 1036.8},
                            "default-translation0" : { "type": "double", "value" : 0.0},
                            "default-translation1" : { "type": "double", "value" : -194.4},
                            "default-translation2" : { "type": "double", "value" : 0.0},
                            "default-width" : { "type": "double", "value" : 1932.67572815534}
                          },
                          "animationTracks" : {

                          }
                        },
                        {
                          "id" : 264,
                          "_type" : "ScreenVMFile",
                          "src" : 2,
                          "trackNumber" : 0,
                          "attributes" : {
                            "ident" : "Rec 4-22-2025-8-51-30-PM"
                          },
                          "parameters" : {
                            "geometryCrop0" : {
                              "type" : "double",
                              "defaultValue" : 0.0,
                              "interp" : "eioe"
                            },
                            "geometryCrop1" : {
                              "type" : "double",
                              "defaultValue" : 0.0,
                              "interp" : "eioe"
                            },
                            "geometryCrop2" : {
                              "type" : "double",
                              "defaultValue" : 0.0,
                              "interp" : "eioe"
                            },
                            "geometryCrop3" : {
                              "type" : "double",
                              "defaultValue" : 0.0,
                              "interp" : "eioe"
                            },
                            "cursorScale" : {
                              "type" : "double",
                              "defaultValue" : 0.0,
                              "interp" : "linr"
                            },
                            "cursorOpacity" : {
                              "type" : "double",
                              "defaultValue" : 0.0,
                              "interp" : "linr"
                            },
                            "cursorTrackLevel" : {
                              "type" : "double",
                              "defaultValue" : 0.0,
                              "interp" : "linr"
                            },
                            "smoothCursorAcrossEditDuration" : 0
                          },
                          "effects" : [

                          ],
                          "start" : 97655040000,
                          "duration" : 197215200000,
                          "mediaStart" : 149352000000,
                          "mediaDuration" : 197215200000,
                          "scalar" : 1,
                          "metadata" : {
                            "AutoAppliedSmartFocus" : "False",
                            "audiateLinkedSession" : "",
                            "clipSpeedAttribute" : { "type": "bool", "value" : false},
                            "colorAttribute" : { "type": "color", "value" : [ 0, 0, 0, 0]},
                            "default-height" : { "type": "double", "value" : 1036.8},
                            "default-translation0" : { "type": "double", "value" : 0.0},
                            "default-translation1" : { "type": "double", "value" : -194.4},
                            "default-translation2" : { "type": "double", "value" : 0.0},
                            "default-width" : { "type": "double", "value" : 1932.67572815534}
                          },
                          "animationTracks" : {

                          }
                        },
                        {
                          "id" : 265,
                          "_type" : "ScreenVMFile",
                          "src" : 2,
                          "trackNumber" : 0,
                          "attributes" : {
                            "ident" : "Rec 4-22-2025-8-51-30-PM"
                          },
                          "parameters" : {
                            "geometryCrop0" : {
                              "type" : "double",
                              "defaultValue" : 0.0,
                              "interp" : "eioe"
                            },
                            "geometryCrop1" : {
                              "type" : "double",
                              "defaultValue" : 0.0,
                              "interp" : "eioe"
                            },
                            "geometryCrop2" : {
                              "type" : "double",
                              "defaultValue" : 0.0,
                              "interp" : "eioe"
                            },
                            "geometryCrop3" : {
                              "type" : "double",
                              "defaultValue" : 0.0,
                              "interp" : "eioe"
                            },
                            "cursorScale" : {
                              "type" : "double",
                              "defaultValue" : 0.0,
                              "interp" : "linr"
                            },
                            "cursorOpacity" : {
                              "type" : "double",
                              "defaultValue" : 0.0,
                              "interp" : "linr"
                            },
                            "cursorTrackLevel" : {
                              "type" : "double",
                              "defaultValue" : 0.0,
                              "interp" : "linr"
                            },
                            "smoothCursorAcrossEditDuration" : 0
                          },
                          "effects" : [

                          ],
                          "start" : 294870240000,
                          "duration" : 7502880000,
                          "mediaStart" : 346567200000,
                          "mediaDuration" : 7502880000,
                          "scalar" : 1,
                          "metadata" : {
                            "AutoAppliedSmartFocus" : "False",
                            "audiateLinkedSession" : "",
                            "clipSpeedAttribute" : { "type": "bool", "value" : false},
                            "colorAttribute" : { "type": "color", "value" : [ 0, 0, 0, 0]},
                            "default-height" : { "type": "double", "value" : 1036.8},
                            "default-translation0" : { "type": "double", "value" : 0.0},
                            "default-translation1" : { "type": "double", "value" : -194.4},
                            "default-translation2" : { "type": "double", "value" : 0.0},
                            "default-width" : { "type": "double", "value" : 1932.67572815534}
                          },
                          "animationTracks" : {

                          }
                        },
                        {
                          "id" : 266,
                          "_type" : "ScreenVMFile",
                          "src" : 2,
                          "trackNumber" : 0,
                          "attributes" : {
                            "ident" : "Rec 4-22-2025-8-51-30-PM"
                          },
                          "parameters" : {
                            "geometryCrop0" : {
                              "type" : "double",
                              "defaultValue" : 0.0,
                              "interp" : "eioe"
                            },
                            "geometryCrop1" : {
                              "type" : "double",
                              "defaultValue" : 0.0,
                              "interp" : "eioe"
                            },
                            "geometryCrop2" : {
                              "type" : "double",
                              "defaultValue" : 0.0,
                              "interp" : "eioe"
                            },
                            "geometryCrop3" : {
                              "type" : "double",
                              "defaultValue" : 0.0,
                              "interp" : "eioe"
                            },
                            "cursorScale" : {
                              "type" : "double",
                              "defaultValue" : 0.0,
                              "interp" : "linr"
                            },
                            "cursorOpacity" : {
                              "type" : "double",
                              "defaultValue" : 0.0,
                              "interp" : "linr"
                            },
                            "cursorTrackLevel" : {
                              "type" : "double",
                              "defaultValue" : 0.0,
                              "interp" : "linr"
                            },
                            "smoothCursorAcrossEditDuration" : 0
                          },
                          "effects" : [

                          ],
                          "start" : 302373120000,
                          "duration" : 24601920000,
                          "mediaStart" : 354070080000,
                          "mediaDuration" : 24601920000,
                          "scalar" : 1,
                          "metadata" : {
                            "AutoAppliedSmartFocus" : "False",
                            "audiateLinkedSession" : "",
                            "clipSpeedAttribute" : { "type": "bool", "value" : false},
                            "colorAttribute" : { "type": "color", "value" : [ 0, 0, 0, 0]},
                            "default-height" : { "type": "double", "value" : 1036.8},
                            "default-translation0" : { "type": "double", "value" : 0.0},
                            "default-translation1" : { "type": "double", "value" : -194.4},
                            "default-translation2" : { "type": "double", "value" : 0.0},
                            "default-width" : { "type": "double", "value" : 1932.67572815534}
                          },
                          "animationTracks" : {

                          }
                        },
                        {
                          "id" : 267,
                          "_type" : "ScreenVMFile",
                          "src" : 2,
                          "trackNumber" : 0,
                          "attributes" : {
                            "ident" : "Rec 4-22-2025-8-51-30-PM"
                          },
                          "parameters" : {
                            "geometryCrop0" : {
                              "type" : "double",
                              "defaultValue" : 0.0,
                              "interp" : "eioe"
                            },
                            "geometryCrop1" : {
                              "type" : "double",
                              "defaultValue" : 0.0,
                              "interp" : "eioe"
                            },
                            "geometryCrop2" : {
                              "type" : "double",
                              "defaultValue" : 0.0,
                              "interp" : "eioe"
                            },
                            "geometryCrop3" : {
                              "type" : "double",
                              "defaultValue" : 0.0,
                              "interp" : "eioe"
                            },
                            "cursorScale" : {
                              "type" : "double",
                              "defaultValue" : 0.0,
                              "interp" : "linr"
                            },
                            "cursorOpacity" : {
                              "type" : "double",
                              "defaultValue" : 0.0,
                              "interp" : "linr"
                            },
                            "cursorTrackLevel" : {
                              "type" : "double",
                              "defaultValue" : 0.0,
                              "interp" : "linr"
                            },
                            "smoothCursorAcrossEditDuration" : 0
                          },
                          "effects" : [

                          ],
                          "start" : 326975040000,
                          "duration" : 122962560000,
                          "mediaStart" : 378672000000,
                          "mediaDuration" : 122962560000,
                          "scalar" : 1,
                          "metadata" : {
                            "AutoAppliedSmartFocus" : "False",
                            "audiateLinkedSession" : "",
                            "clipSpeedAttribute" : { "type": "bool", "value" : false},
                            "colorAttribute" : { "type": "color", "value" : [ 0, 0, 0, 0]},
                            "default-height" : { "type": "double", "value" : 1036.8},
                            "default-translation0" : { "type": "double", "value" : 0.0},
                            "default-translation1" : { "type": "double", "value" : -194.4},
                            "default-translation2" : { "type": "double", "value" : 0.0},
                            "default-width" : { "type": "double", "value" : 1932.67572815534}
                          },
                          "animationTracks" : {

                          }
                        },
                        {
                          "id" : 268,
                          "_type" : "ScreenVMFile",
                          "src" : 2,
                          "trackNumber" : 0,
                          "attributes" : {
                            "ident" : "Rec 4-22-2025-8-51-30-PM"
                          },
                          "parameters" : {
                            "geometryCrop0" : {
                              "type" : "double",
                              "defaultValue" : 0.0,
                              "interp" : "eioe"
                            },
                            "geometryCrop1" : {
                              "type" : "double",
                              "defaultValue" : 0.0,
                              "interp" : "eioe"
                            },
                            "geometryCrop2" : {
                              "type" : "double",
                              "defaultValue" : 0.0,
                              "interp" : "eioe"
                            },
                            "geometryCrop3" : {
                              "type" : "double",
                              "defaultValue" : 0.0,
                              "interp" : "eioe"
                            },
                            "cursorScale" : {
                              "type" : "double",
                              "defaultValue" : 0.0,
                              "interp" : "linr"
                            },
                            "cursorOpacity" : {
                              "type" : "double",
                              "defaultValue" : 0.0,
                              "interp" : "linr"
                            },
                            "cursorTrackLevel" : {
                              "type" : "double",
                              "defaultValue" : 0.0,
                              "interp" : "linr"
                            },
                            "smoothCursorAcrossEditDuration" : 0
                          },
                          "effects" : [

                          ],
                          "start" : 449937600000,
                          "duration" : 8961120000,
                          "mediaStart" : 509843040000,
                          "mediaDuration" : 8961120000,
                          "scalar" : 1,
                          "metadata" : {
                            "AutoAppliedSmartFocus" : "False",
                            "audiateLinkedSession" : "",
                            "clipSpeedAttribute" : { "type": "bool", "value" : false},
                            "colorAttribute" : { "type": "color", "value" : [ 0, 0, 0, 0]},
                            "default-height" : { "type": "double", "value" : 1036.8},
                            "default-translation0" : { "type": "double", "value" : 0.0},
                            "default-translation1" : { "type": "double", "value" : -194.4},
                            "default-translation2" : { "type": "double", "value" : 0.0},
                            "default-width" : { "type": "double", "value" : 1932.67572815534}
                          },
                          "animationTracks" : {

                          }
                        },
                        {
                          "id" : 269,
                          "_type" : "ScreenVMFile",
                          "src" : 2,
                          "trackNumber" : 0,
                          "attributes" : {
                            "ident" : "Rec 4-22-2025-8-51-30-PM"
                          },
                          "parameters" : {
                            "geometryCrop0" : {
                              "type" : "double",
                              "defaultValue" : 0.0,
                              "interp" : "eioe"
                            },
                            "geometryCrop1" : {
                              "type" : "double",
                              "defaultValue" : 0.0,
                              "interp" : "eioe"
                            },
                            "geometryCrop2" : {
                              "type" : "double",
                              "defaultValue" : 0.0,
                              "interp" : "eioe"
                            },
                            "geometryCrop3" : {
                              "type" : "double",
                              "defaultValue" : 0.0,
                              "interp" : "eioe"
                            },
                            "cursorScale" : {
                              "type" : "double",
                              "defaultValue" : 0.0,
                              "interp" : "linr"
                            },
                            "cursorOpacity" : {
                              "type" : "double",
                              "defaultValue" : 0.0,
                              "interp" : "linr"
                            },
                            "cursorTrackLevel" : {
                              "type" : "double",
                              "defaultValue" : 0.0,
                              "interp" : "linr"
                            },
                            "smoothCursorAcrossEditDuration" : 0
                          },
                          "effects" : [

                          ],
                          "start" : 458898720000,
                          "duration" : 581226240000,
                          "mediaStart" : 1416350880000,
                          "mediaDuration" : 581226240000,
                          "scalar" : 1,
                          "metadata" : {
                            "AutoAppliedSmartFocus" : "False",
                            "audiateLinkedSession" : "",
                            "clipSpeedAttribute" : { "type": "bool", "value" : false},
                            "colorAttribute" : { "type": "color", "value" : [ 0, 0, 0, 0]},
                            "default-height" : { "type": "double", "value" : 1036.8},
                            "default-translation0" : { "type": "double", "value" : 0.0},
                            "default-translation1" : { "type": "double", "value" : -194.4},
                            "default-translation2" : { "type": "double", "value" : 0.0},
                            "default-width" : { "type": "double", "value" : 1932.67572815534}
                          },
                          "animationTracks" : {

                          }
                        },
                        {
                          "id" : 270,
                          "_type" : "ScreenVMFile",
                          "src" : 2,
                          "trackNumber" : 0,
                          "attributes" : {
                            "ident" : "Rec 4-22-2025-8-51-30-PM"
                          },
                          "parameters" : {
                            "geometryCrop0" : {
                              "type" : "double",
                              "defaultValue" : 0.0,
                              "interp" : "eioe"
                            },
                            "geometryCrop1" : {
                              "type" : "double",
                              "defaultValue" : 0.0,
                              "interp" : "eioe"
                            },
                            "geometryCrop2" : {
                              "type" : "double",
                              "defaultValue" : 0.0,
                              "interp" : "eioe"
                            },
                            "geometryCrop3" : {
                              "type" : "double",
                              "defaultValue" : 0.0,
                              "interp" : "eioe"
                            },
                            "cursorScale" : {
                              "type" : "double",
                              "defaultValue" : 0.0,
                              "interp" : "linr"
                            },
                            "cursorOpacity" : {
                              "type" : "double",
                              "defaultValue" : 0.0,
                              "interp" : "linr"
                            },
                            "cursorTrackLevel" : {
                              "type" : "double",
                              "defaultValue" : 0.0,
                              "interp" : "linr"
                            },
                            "smoothCursorAcrossEditDuration" : 0
                          },
                          "effects" : [

                          ],
                          "start" : 1040124960000,
                          "duration" : 215419680000,
                          "mediaStart" : 2018886240000,
                          "mediaDuration" : 215419680000,
                          "scalar" : 1,
                          "metadata" : {
                            "AutoAppliedSmartFocus" : "False",
                            "audiateLinkedSession" : "",
                            "clipSpeedAttribute" : { "type": "bool", "value" : false},
                            "colorAttribute" : { "type": "color", "value" : [ 0, 0, 0, 0]},
                            "default-height" : { "type": "double", "value" : 1036.8},
                            "default-translation0" : { "type": "double", "value" : 0.0},
                            "default-translation1" : { "type": "double", "value" : -194.4},
                            "default-translation2" : { "type": "double", "value" : 0.0},
                            "default-width" : { "type": "double", "value" : 1932.67572815534}
                          },
                          "animationTracks" : {

                          }
                        },
                        {
                          "id" : 271,
                          "_type" : "ScreenVMFile",
                          "src" : 2,
                          "trackNumber" : 0,
                          "attributes" : {
                            "ident" : "Rec 4-22-2025-8-51-30-PM"
                          },
                          "parameters" : {
                            "geometryCrop0" : {
                              "type" : "double",
                              "defaultValue" : 0.0,
                              "interp" : "eioe"
                            },
                            "geometryCrop1" : {
                              "type" : "double",
                              "defaultValue" : 0.0,
                              "interp" : "eioe"
                            },
                            "geometryCrop2" : {
                              "type" : "double",
                              "defaultValue" : 0.0,
                              "interp" : "eioe"
                            },
                            "geometryCrop3" : {
                              "type" : "double",
                              "defaultValue" : 0.0,
                              "interp" : "eioe"
                            },
                            "cursorScale" : {
                              "type" : "double",
                              "defaultValue" : 0.0,
                              "interp" : "linr"
                            },
                            "cursorOpacity" : {
                              "type" : "double",
                              "defaultValue" : 0.0,
                              "interp" : "linr"
                            },
                            "cursorTrackLevel" : {
                              "type" : "double",
                              "defaultValue" : 0.0,
                              "interp" : "linr"
                            },
                            "smoothCursorAcrossEditDuration" : 0
                          },
                          "effects" : [

                          ],
                          "start" : 1255544640000,
                          "duration" : 786955680000,
                          "mediaStart" : 2257778880000,
                          "mediaDuration" : 786955680000,
                          "scalar" : 1,
                          "metadata" : {
                            "AutoAppliedSmartFocus" : "False",
                            "audiateLinkedSession" : "",
                            "clipSpeedAttribute" : { "type": "bool", "value" : false},
                            "colorAttribute" : { "type": "color", "value" : [ 0, 0, 0, 0]},
                            "default-height" : { "type": "double", "value" : 1036.8},
                            "default-translation0" : { "type": "double", "value" : 0.0},
                            "default-translation1" : { "type": "double", "value" : -194.4},
                            "default-translation2" : { "type": "double", "value" : 0.0},
                            "default-width" : { "type": "double", "value" : 1932.67572815534}
                          },
                          "animationTracks" : {

                          }
                        },
                        {
                          "id" : 272,
                          "_type" : "ScreenVMFile",
                          "src" : 2,
                          "trackNumber" : 0,
                          "attributes" : {
                            "ident" : "Rec 4-22-2025-8-51-30-PM"
                          },
                          "parameters" : {
                            "geometryCrop0" : {
                              "type" : "double",
                              "defaultValue" : 0.0,
                              "interp" : "eioe"
                            },
                            "geometryCrop1" : {
                              "type" : "double",
                              "defaultValue" : 0.0,
                              "interp" : "eioe"
                            },
                            "geometryCrop2" : {
                              "type" : "double",
                              "defaultValue" : 0.0,
                              "interp" : "eioe"
                            },
                            "geometryCrop3" : {
                              "type" : "double",
                              "defaultValue" : 0.0,
                              "interp" : "eioe"
                            },
                            "cursorScale" : {
                              "type" : "double",
                              "defaultValue" : 0.0,
                              "interp" : "linr"
                            },
                            "cursorOpacity" : {
                              "type" : "double",
                              "defaultValue" : 0.0,
                              "interp" : "linr"
                            },
                            "cursorTrackLevel" : {
                              "type" : "double",
                              "defaultValue" : 0.0,
                              "interp" : "linr"
                            },
                            "smoothCursorAcrossEditDuration" : 0
                          },
                          "effects" : [

                          ],
                          "start" : 2042500320000,
                          "duration" : 20768160000,
                          "mediaStart" : 3047580480000,
                          "mediaDuration" : 20768160000,
                          "scalar" : 1,
                          "metadata" : {
                            "AutoAppliedSmartFocus" : "False",
                            "audiateLinkedSession" : "",
                            "clipSpeedAttribute" : { "type": "bool", "value" : false},
                            "colorAttribute" : { "type": "color", "value" : [ 0, 0, 0, 0]},
                            "default-height" : { "type": "double", "value" : 1036.8},
                            "default-translation0" : { "type": "double", "value" : 0.0},
                            "default-translation1" : { "type": "double", "value" : -194.4},
                            "default-translation2" : { "type": "double", "value" : 0.0},
                            "default-width" : { "type": "double", "value" : 1932.67572815534}
                          },
                          "animationTracks" : {

                          }
                        },
                        {
                          "id" : 273,
                          "_type" : "ScreenVMFile",
                          "src" : 2,
                          "trackNumber" : 0,
                          "attributes" : {
                            "ident" : "Rec 4-22-2025-8-51-30-PM"
                          },
                          "parameters" : {
                            "geometryCrop0" : {
                              "type" : "double",
                              "defaultValue" : 0.0,
                              "interp" : "eioe"
                            },
                            "geometryCrop1" : {
                              "type" : "double",
                              "defaultValue" : 0.0,
                              "interp" : "eioe"
                            },
                            "geometryCrop2" : {
                              "type" : "double",
                              "defaultValue" : 0.0,
                              "interp" : "eioe"
                            },
                            "geometryCrop3" : {
                              "type" : "double",
                              "defaultValue" : 0.0,
                              "interp" : "eioe"
                            },
                            "cursorScale" : {
                              "type" : "double",
                              "defaultValue" : 0.0,
                              "interp" : "linr"
                            },
                            "cursorOpacity" : {
                              "type" : "double",
                              "defaultValue" : 0.0,
                              "interp" : "linr"
                            },
                            "cursorTrackLevel" : {
                              "type" : "double",
                              "defaultValue" : 0.0,
                              "interp" : "linr"
                            },
                            "smoothCursorAcrossEditDuration" : 0
                          },
                          "effects" : [

                          ],
                          "start" : 2063268480000,
                          "duration" : 343039200000,
                          "mediaStart" : 3138932160000,
                          "mediaDuration" : 343039200000,
                          "scalar" : 1,
                          "metadata" : {
                            "AutoAppliedSmartFocus" : "False",
                            "audiateLinkedSession" : "",
                            "clipSpeedAttribute" : { "type": "bool", "value" : false},
                            "colorAttribute" : { "type": "color", "value" : [ 0, 0, 0, 0]},
                            "default-height" : { "type": "double", "value" : 1036.8},
                            "default-translation0" : { "type": "double", "value" : 0.0},
                            "default-translation1" : { "type": "double", "value" : -194.4},
                            "default-translation2" : { "type": "double", "value" : 0.0},
                            "default-width" : { "type": "double", "value" : 1932.67572815534}
                          },
                          "animationTracks" : {

                          }
                        }
                    ],
                    "effects" : [
                        {
                          "effectName" : "CursorColor",
                          "bypassed" : false,
                          "category" : "categoryCursorEffects",
                          "parameters" : {
                            "intensity" : 1.0,
                            "desaturation" : 0.0,
                            "colorLumaCutoff" : 1.0,
                            "color-alpha" : 1.0,
                            "color-red" : 1.0,
                            "color-green" : 0.8980392157,
                            "color-blue" : 0.1215686275,
                            "secondColor-red" : 0.0,
                            "secondColor-green" : 0.0,
                            "secondColor-blue" : 0.0,
                            "secondColor-alpha" : 1.0,
                            "secondColorLumaCutoff" : 0.0,
                            "channel" : 0,
                            "shadowRampStart" : 0.0,
                            "shadowRampEnd" : 0.0,
                            "highlightRampStart" : 1.0,
                            "highlightRampEnd" : 1.0
                          }
                        },
                        {
                          "effectName" : "CursorShadow",
                          "bypassed" : false,
                          "category" : "categoryCursorEffects",
                          "parameters" : {
                            "angle" : 3.92699081698724,
                            "enabled" : 1,
                            "offset" : 5.0,
                            "blur" : 2.0,
                            "opacity" : 0.25,
                            "color-red" : 0.0,
                            "color-green" : 0.0,
                            "color-blue" : 0.0,
                            "color-alpha" : 1.0
                          }
                        },
                        {
                          "effectName" : "CursorHilight",
                          "bypassed" : false,
                          "category" : "categoryCursorEffects",
                          "parameters" : {
                            "radius" : 50.0,
                            "color-red" : 1.0,
                            "color-green" : 1.0,
                            "color-blue" : 0.0,
                            "color-alpha" : 0.75,
                            "blur" : 0.1
                          }
                        }
                    ],
                    "start" : 62022240000,
                    "duration" : 6216108387,
                    "mediaStart" : 325321811613,
                    "mediaDuration" : 6216108387,
                    "scalar" : 1,
                    "metadata" : {
                      "AutoAppliedSmartFocus" : "False",
                      "audiateLinkedSession" : "",
                      "clipSpeedAttribute" : { "type": "bool", "value" : false},
                      "colorAttribute" : { "type": "color", "value" : [ 0, 0, 0, 0]},
                      "default-height" : { "type": "double", "value" : 1036.8},
                      "default-scale0" : { "type": "double", "value" : 0.503300970873786},
                      "default-scale1" : { "type": "double", "value" : 0.503300970873786},
                      "default-translation0" : { "type": "double", "value" : 0.0},
                      "default-translation1" : { "type": "double", "value" : -194.4},
                      "default-translation2" : { "type": "double", "value" : 0.0},
                      "default-width" : { "type": "double", "value" : 1932.67572815534}
                    },
                    "animationTracks" : {

                    }
                  },
                  {
                    "id" : 274,
                    "_type" : "StitchedMedia",
                    "minMediaStart" : 0,
                    "attributes" : {
                      "ident" : "Rec 4-22-2025-8-51-30-PM",
                      "gain" : 1.0,
                      "mixToMono" : false,
                      "loudnessNormalization" : true,
                      "sourceFileOffset" : 0
                    },
                    "parameters" : {
                      "translation0" : 6.33786407766917,
                      "translation1" : -2.8421709430404e-14,
                      "scale0" : 0.503300970873786,
                      "scale1" : 0.503300970873786,
                      "geometryCrop0" : 0.0,
                      "geometryCrop1" : 0.0,
                      "geometryCrop2" : 0.0,
                      "geometryCrop3" : 0.0,
                      "cursorOpacity" : 1.0,
                      "cursorTrackLevel" : 0.0,
                      "cursorScale" : 5.0,
                      "smoothCursorAcrossEditDuration" : 0
                    },
                    "medias" : [
                        {
                          "id" : 275,
                          "_type" : "ScreenVMFile",
                          "src" : 2,
                          "trackNumber" : 0,
                          "attributes" : {
                            "ident" : "Rec 4-22-2025-8-51-30-PM"
                          },
                          "parameters" : {
                            "geometryCrop0" : {
                              "type" : "double",
                              "defaultValue" : 0.0,
                              "interp" : "eioe"
                            },
                            "geometryCrop1" : {
                              "type" : "double",
                              "defaultValue" : 0.0,
                              "interp" : "eioe"
                            },
                            "geometryCrop2" : {
                              "type" : "double",
                              "defaultValue" : 0.0,
                              "interp" : "eioe"
                            },
                            "geometryCrop3" : {
                              "type" : "double",
                              "defaultValue" : 0.0,
                              "interp" : "eioe"
                            },
                            "cursorScale" : {
                              "type" : "double",
                              "defaultValue" : 0.0,
                              "interp" : "linr"
                            },
                            "cursorOpacity" : {
                              "type" : "double",
                              "defaultValue" : 0.0,
                              "interp" : "linr"
                            },
                            "cursorTrackLevel" : {
                              "type" : "double",
                              "defaultValue" : 0.0,
                              "interp" : "linr"
                            },
                            "smoothCursorAcrossEditDuration" : 0
                          },
                          "effects" : [

                          ],
                          "start" : 0,
                          "duration" : 50991360000,
                          "mediaStart" : 0,
                          "mediaDuration" : 50991360000,
                          "scalar" : 1,
                          "metadata" : {
                            "AutoAppliedSmartFocus" : "False",
                            "audiateLinkedSession" : "",
                            "clipSpeedAttribute" : { "type": "bool", "value" : false},
                            "colorAttribute" : { "type": "color", "value" : [ 0, 0, 0, 0]},
                            "default-height" : { "type": "double", "value" : 1036.8},
                            "default-translation0" : { "type": "double", "value" : 0.0},
                            "default-translation1" : { "type": "double", "value" : -194.4},
                            "default-translation2" : { "type": "double", "value" : 0.0},
                            "default-width" : { "type": "double", "value" : 1932.67572815534}
                          },
                          "animationTracks" : {

                          }
                        },
                        {
                          "id" : 276,
                          "_type" : "ScreenVMFile",
                          "src" : 2,
                          "trackNumber" : 0,
                          "attributes" : {
                            "ident" : "Rec 4-22-2025-8-51-30-PM"
                          },
                          "parameters" : {
                            "geometryCrop0" : {
                              "type" : "double",
                              "defaultValue" : 0.0,
                              "interp" : "eioe"
                            },
                            "geometryCrop1" : {
                              "type" : "double",
                              "defaultValue" : 0.0,
                              "interp" : "eioe"
                            },
                            "geometryCrop2" : {
                              "type" : "double",
                              "defaultValue" : 0.0,
                              "interp" : "eioe"
                            },
                            "geometryCrop3" : {
                              "type" : "double",
                              "defaultValue" : 0.0,
                              "interp" : "eioe"
                            },
                            "cursorScale" : {
                              "type" : "double",
                              "defaultValue" : 0.0,
                              "interp" : "linr"
                            },
                            "cursorOpacity" : {
                              "type" : "double",
                              "defaultValue" : 0.0,
                              "interp" : "linr"
                            },
                            "cursorTrackLevel" : {
                              "type" : "double",
                              "defaultValue" : 0.0,
                              "interp" : "linr"
                            },
                            "smoothCursorAcrossEditDuration" : 0
                          },
                          "effects" : [

                          ],
                          "start" : 50991360000,
                          "duration" : 46663680000,
                          "mediaStart" : 66467520000,
                          "mediaDuration" : 46663680000,
                          "scalar" : 1,
                          "metadata" : {
                            "AutoAppliedSmartFocus" : "False",
                            "audiateLinkedSession" : "",
                            "clipSpeedAttribute" : { "type": "bool", "value" : false},
                            "colorAttribute" : { "type": "color", "value" : [ 0, 0, 0, 0]},
                            "default-height" : { "type": "double", "value" : 1036.8},
                            "default-translation0" : { "type": "double", "value" : 0.0},
                            "default-translation1" : { "type": "double", "value" : -194.4},
                            "default-translation2" : { "type": "double", "value" : 0.0},
                            "default-width" : { "type": "double", "value" : 1932.67572815534}
                          },
                          "animationTracks" : {

                          }
                        },
                        {
                          "id" : 277,
                          "_type" : "ScreenVMFile",
                          "src" : 2,
                          "trackNumber" : 0,
                          "attributes" : {
                            "ident" : "Rec 4-22-2025-8-51-30-PM"
                          },
                          "parameters" : {
                            "geometryCrop0" : {
                              "type" : "double",
                              "defaultValue" : 0.0,
                              "interp" : "eioe"
                            },
                            "geometryCrop1" : {
                              "type" : "double",
                              "defaultValue" : 0.0,
                              "interp" : "eioe"
                            },
                            "geometryCrop2" : {
                              "type" : "double",
                              "defaultValue" : 0.0,
                              "interp" : "eioe"
                            },
                            "geometryCrop3" : {
                              "type" : "double",
                              "defaultValue" : 0.0,
                              "interp" : "eioe"
                            },
                            "cursorScale" : {
                              "type" : "double",
                              "defaultValue" : 0.0,
                              "interp" : "linr"
                            },
                            "cursorOpacity" : {
                              "type" : "double",
                              "defaultValue" : 0.0,
                              "interp" : "linr"
                            },
                            "cursorTrackLevel" : {
                              "type" : "double",
                              "defaultValue" : 0.0,
                              "interp" : "linr"
                            },
                            "smoothCursorAcrossEditDuration" : 0
                          },
                          "effects" : [

                          ],
                          "start" : 97655040000,
                          "duration" : 352282560000,
                          "mediaStart" : 149352000000,
                          "mediaDuration" : 352282560000,
                          "scalar" : 1,
                          "metadata" : {
                            "AutoAppliedSmartFocus" : "False",
                            "audiateLinkedSession" : "",
                            "clipSpeedAttribute" : { "type": "bool", "value" : false},
                            "colorAttribute" : { "type": "color", "value" : [ 0, 0, 0, 0]},
                            "default-height" : { "type": "double", "value" : 1036.8},
                            "default-translation0" : { "type": "double", "value" : 0.0},
                            "default-translation1" : { "type": "double", "value" : -194.4},
                            "default-translation2" : { "type": "double", "value" : 0.0},
                            "default-width" : { "type": "double", "value" : 1932.67572815534}
                          },
                          "animationTracks" : {

                          }
                        },
                        {
                          "id" : 278,
                          "_type" : "ScreenVMFile",
                          "src" : 2,
                          "trackNumber" : 0,
                          "attributes" : {
                            "ident" : "Rec 4-22-2025-8-51-30-PM"
                          },
                          "parameters" : {
                            "geometryCrop0" : {
                              "type" : "double",
                              "defaultValue" : 0.0,
                              "interp" : "eioe"
                            },
                            "geometryCrop1" : {
                              "type" : "double",
                              "defaultValue" : 0.0,
                              "interp" : "eioe"
                            },
                            "geometryCrop2" : {
                              "type" : "double",
                              "defaultValue" : 0.0,
                              "interp" : "eioe"
                            },
                            "geometryCrop3" : {
                              "type" : "double",
                              "defaultValue" : 0.0,
                              "interp" : "eioe"
                            },
                            "cursorScale" : {
                              "type" : "double",
                              "defaultValue" : 0.0,
                              "interp" : "linr"
                            },
                            "cursorOpacity" : {
                              "type" : "double",
                              "defaultValue" : 0.0,
                              "interp" : "linr"
                            },
                            "cursorTrackLevel" : {
                              "type" : "double",
                              "defaultValue" : 0.0,
                              "interp" : "linr"
                            },
                            "smoothCursorAcrossEditDuration" : 0
                          },
                          "effects" : [

                          ],
                          "start" : 449937600000,
                          "duration" : 8961120000,
                          "mediaStart" : 509843040000,
                          "mediaDuration" : 8961120000,
                          "scalar" : 1,
                          "metadata" : {
                            "AutoAppliedSmartFocus" : "False",
                            "audiateLinkedSession" : "",
                            "clipSpeedAttribute" : { "type": "bool", "value" : false},
                            "colorAttribute" : { "type": "color", "value" : [ 0, 0, 0, 0]},
                            "default-height" : { "type": "double", "value" : 1036.8},
                            "default-translation0" : { "type": "double", "value" : 0.0},
                            "default-translation1" : { "type": "double", "value" : -194.4},
                            "default-translation2" : { "type": "double", "value" : 0.0},
                            "default-width" : { "type": "double", "value" : 1932.67572815534}
                          },
                          "animationTracks" : {

                          }
                        },
                        {
                          "id" : 279,
                          "_type" : "ScreenVMFile",
                          "src" : 2,
                          "trackNumber" : 0,
                          "attributes" : {
                            "ident" : "Rec 4-22-2025-8-51-30-PM"
                          },
                          "parameters" : {
                            "geometryCrop0" : {
                              "type" : "double",
                              "defaultValue" : 0.0,
                              "interp" : "eioe"
                            },
                            "geometryCrop1" : {
                              "type" : "double",
                              "defaultValue" : 0.0,
                              "interp" : "eioe"
                            },
                            "geometryCrop2" : {
                              "type" : "double",
                              "defaultValue" : 0.0,
                              "interp" : "eioe"
                            },
                            "geometryCrop3" : {
                              "type" : "double",
                              "defaultValue" : 0.0,
                              "interp" : "eioe"
                            },
                            "cursorScale" : {
                              "type" : "double",
                              "defaultValue" : 0.0,
                              "interp" : "linr"
                            },
                            "cursorOpacity" : {
                              "type" : "double",
                              "defaultValue" : 0.0,
                              "interp" : "linr"
                            },
                            "cursorTrackLevel" : {
                              "type" : "double",
                              "defaultValue" : 0.0,
                              "interp" : "linr"
                            },
                            "smoothCursorAcrossEditDuration" : 0
                          },
                          "effects" : [

                          ],
                          "start" : 458898720000,
                          "duration" : 581226240000,
                          "mediaStart" : 1416350880000,
                          "mediaDuration" : 581226240000,
                          "scalar" : 1,
                          "metadata" : {
                            "AutoAppliedSmartFocus" : "False",
                            "audiateLinkedSession" : "",
                            "clipSpeedAttribute" : { "type": "bool", "value" : false},
                            "colorAttribute" : { "type": "color", "value" : [ 0, 0, 0, 0]},
                            "default-height" : { "type": "double", "value" : 1036.8},
                            "default-translation0" : { "type": "double", "value" : 0.0},
                            "default-translation1" : { "type": "double", "value" : -194.4},
                            "default-translation2" : { "type": "double", "value" : 0.0},
                            "default-width" : { "type": "double", "value" : 1932.67572815534}
                          },
                          "animationTracks" : {

                          }
                        },
                        {
                          "id" : 280,
                          "_type" : "ScreenVMFile",
                          "src" : 2,
                          "trackNumber" : 0,
                          "attributes" : {
                            "ident" : "Rec 4-22-2025-8-51-30-PM"
                          },
                          "parameters" : {
                            "geometryCrop0" : {
                              "type" : "double",
                              "defaultValue" : 0.0,
                              "interp" : "eioe"
                            },
                            "geometryCrop1" : {
                              "type" : "double",
                              "defaultValue" : 0.0,
                              "interp" : "eioe"
                            },
                            "geometryCrop2" : {
                              "type" : "double",
                              "defaultValue" : 0.0,
                              "interp" : "eioe"
                            },
                            "geometryCrop3" : {
                              "type" : "double",
                              "defaultValue" : 0.0,
                              "interp" : "eioe"
                            },
                            "cursorScale" : {
                              "type" : "double",
                              "defaultValue" : 0.0,
                              "interp" : "linr"
                            },
                            "cursorOpacity" : {
                              "type" : "double",
                              "defaultValue" : 0.0,
                              "interp" : "linr"
                            },
                            "cursorTrackLevel" : {
                              "type" : "double",
                              "defaultValue" : 0.0,
                              "interp" : "linr"
                            },
                            "smoothCursorAcrossEditDuration" : 0
                          },
                          "effects" : [

                          ],
                          "start" : 1040124960000,
                          "duration" : 215419680000,
                          "mediaStart" : 2018886240000,
                          "mediaDuration" : 215419680000,
                          "scalar" : 1,
                          "metadata" : {
                            "AutoAppliedSmartFocus" : "False",
                            "audiateLinkedSession" : "",
                            "clipSpeedAttribute" : { "type": "bool", "value" : false},
                            "colorAttribute" : { "type": "color", "value" : [ 0, 0, 0, 0]},
                            "default-height" : { "type": "double", "value" : 1036.8},
                            "default-translation0" : { "type": "double", "value" : 0.0},
                            "default-translation1" : { "type": "double", "value" : -194.4},
                            "default-translation2" : { "type": "double", "value" : 0.0},
                            "default-width" : { "type": "double", "value" : 1932.67572815534}
                          },
                          "animationTracks" : {

                          }
                        },
                        {
                          "id" : 281,
                          "_type" : "ScreenVMFile",
                          "src" : 2,
                          "trackNumber" : 0,
                          "attributes" : {
                            "ident" : "Rec 4-22-2025-8-51-30-PM"
                          },
                          "parameters" : {
                            "geometryCrop0" : {
                              "type" : "double",
                              "defaultValue" : 0.0,
                              "interp" : "eioe"
                            },
                            "geometryCrop1" : {
                              "type" : "double",
                              "defaultValue" : 0.0,
                              "interp" : "eioe"
                            },
                            "geometryCrop2" : {
                              "type" : "double",
                              "defaultValue" : 0.0,
                              "interp" : "eioe"
                            },
                            "geometryCrop3" : {
                              "type" : "double",
                              "defaultValue" : 0.0,
                              "interp" : "eioe"
                            },
                            "cursorScale" : {
                              "type" : "double",
                              "defaultValue" : 0.0,
                              "interp" : "linr"
                            },
                            "cursorOpacity" : {
                              "type" : "double",
                              "defaultValue" : 0.0,
                              "interp" : "linr"
                            },
                            "cursorTrackLevel" : {
                              "type" : "double",
                              "defaultValue" : 0.0,
                              "interp" : "linr"
                            },
                            "smoothCursorAcrossEditDuration" : 0
                          },
                          "effects" : [

                          ],
                          "start" : 1255544640000,
                          "duration" : 786955680000,
                          "mediaStart" : 2257778880000,
                          "mediaDuration" : 786955680000,
                          "scalar" : 1,
                          "metadata" : {
                            "AutoAppliedSmartFocus" : "False",
                            "audiateLinkedSession" : "",
                            "clipSpeedAttribute" : { "type": "bool", "value" : false},
                            "colorAttribute" : { "type": "color", "value" : [ 0, 0, 0, 0]},
                            "default-height" : { "type": "double", "value" : 1036.8},
                            "default-translation0" : { "type": "double", "value" : 0.0},
                            "default-translation1" : { "type": "double", "value" : -194.4},
                            "default-translation2" : { "type": "double", "value" : 0.0},
                            "default-width" : { "type": "double", "value" : 1932.67572815534}
                          },
                          "animationTracks" : {

                          }
                        },
                        {
                          "id" : 282,
                          "_type" : "ScreenVMFile",
                          "src" : 2,
                          "trackNumber" : 0,
                          "attributes" : {
                            "ident" : "Rec 4-22-2025-8-51-30-PM"
                          },
                          "parameters" : {
                            "geometryCrop0" : {
                              "type" : "double",
                              "defaultValue" : 0.0,
                              "interp" : "eioe"
                            },
                            "geometryCrop1" : {
                              "type" : "double",
                              "defaultValue" : 0.0,
                              "interp" : "eioe"
                            },
                            "geometryCrop2" : {
                              "type" : "double",
                              "defaultValue" : 0.0,
                              "interp" : "eioe"
                            },
                            "geometryCrop3" : {
                              "type" : "double",
                              "defaultValue" : 0.0,
                              "interp" : "eioe"
                            },
                            "cursorScale" : {
                              "type" : "double",
                              "defaultValue" : 0.0,
                              "interp" : "linr"
                            },
                            "cursorOpacity" : {
                              "type" : "double",
                              "defaultValue" : 0.0,
                              "interp" : "linr"
                            },
                            "cursorTrackLevel" : {
                              "type" : "double",
                              "defaultValue" : 0.0,
                              "interp" : "linr"
                            },
                            "smoothCursorAcrossEditDuration" : 0
                          },
                          "effects" : [

                          ],
                          "start" : 2042500320000,
                          "duration" : 20768160000,
                          "mediaStart" : 3047580480000,
                          "mediaDuration" : 20768160000,
                          "scalar" : 1,
                          "metadata" : {
                            "AutoAppliedSmartFocus" : "False",
                            "audiateLinkedSession" : "",
                            "clipSpeedAttribute" : { "type": "bool", "value" : false},
                            "colorAttribute" : { "type": "color", "value" : [ 0, 0, 0, 0]},
                            "default-height" : { "type": "double", "value" : 1036.8},
                            "default-translation0" : { "type": "double", "value" : 0.0},
                            "default-translation1" : { "type": "double", "value" : -194.4},
                            "default-translation2" : { "type": "double", "value" : 0.0},
                            "default-width" : { "type": "double", "value" : 1932.67572815534}
                          },
                          "animationTracks" : {

                          }
                        },
                        {
                          "id" : 283,
                          "_type" : "ScreenVMFile",
                          "src" : 2,
                          "trackNumber" : 0,
                          "attributes" : {
                            "ident" : "Rec 4-22-2025-8-51-30-PM"
                          },
                          "parameters" : {
                            "geometryCrop0" : {
                              "type" : "double",
                              "defaultValue" : 0.0,
                              "interp" : "eioe"
                            },
                            "geometryCrop1" : {
                              "type" : "double",
                              "defaultValue" : 0.0,
                              "interp" : "eioe"
                            },
                            "geometryCrop2" : {
                              "type" : "double",
                              "defaultValue" : 0.0,
                              "interp" : "eioe"
                            },
                            "geometryCrop3" : {
                              "type" : "double",
                              "defaultValue" : 0.0,
                              "interp" : "eioe"
                            },
                            "cursorScale" : {
                              "type" : "double",
                              "defaultValue" : 0.0,
                              "interp" : "linr"
                            },
                            "cursorOpacity" : {
                              "type" : "double",
                              "defaultValue" : 0.0,
                              "interp" : "linr"
                            },
                            "cursorTrackLevel" : {
                              "type" : "double",
                              "defaultValue" : 0.0,
                              "interp" : "linr"
                            },
                            "smoothCursorAcrossEditDuration" : 0
                          },
                          "effects" : [

                          ],
                          "start" : 2063268480000,
                          "duration" : 343039200000,
                          "mediaStart" : 3138932160000,
                          "mediaDuration" : 343039200000,
                          "scalar" : 1,
                          "metadata" : {
                            "AutoAppliedSmartFocus" : "False",
                            "audiateLinkedSession" : "",
                            "clipSpeedAttribute" : { "type": "bool", "value" : false},
                            "colorAttribute" : { "type": "color", "value" : [ 0, 0, 0, 0]},
                            "default-height" : { "type": "double", "value" : 1036.8},
                            "default-translation0" : { "type": "double", "value" : 0.0},
                            "default-translation1" : { "type": "double", "value" : -194.4},
                            "default-translation2" : { "type": "double", "value" : 0.0},
                            "default-width" : { "type": "double", "value" : 1932.67572815534}
                          },
                          "animationTracks" : {

                          }
                        }
                    ],
                    "effects" : [
                        {
                          "effectName" : "CursorColor",
                          "bypassed" : false,
                          "category" : "categoryCursorEffects",
                          "parameters" : {
                            "intensity" : 1.0,
                            "desaturation" : 0.0,
                            "colorLumaCutoff" : 1.0,
                            "color-alpha" : 1.0,
                            "color-red" : 1.0,
                            "color-green" : 0.8980392157,
                            "color-blue" : 0.1215686275,
                            "secondColor-red" : 0.0,
                            "secondColor-green" : 0.0,
                            "secondColor-blue" : 0.0,
                            "secondColor-alpha" : 1.0,
                            "secondColorLumaCutoff" : 0.0,
                            "channel" : 0,
                            "shadowRampStart" : 0.0,
                            "shadowRampEnd" : 0.0,
                            "highlightRampStart" : 1.0,
                            "highlightRampEnd" : 1.0
                          }
                        },
                        {
                          "effectName" : "CursorShadow",
                          "bypassed" : false,
                          "category" : "categoryCursorEffects",
                          "parameters" : {
                            "angle" : 3.92699081698724,
                            "enabled" : 1,
                            "offset" : 5.0,
                            "blur" : 2.0,
                            "opacity" : 0.25,
                            "color-red" : 0.0,
                            "color-green" : 0.0,
                            "color-blue" : 0.0,
                            "color-alpha" : 1.0
                          }
                        },
                        {
                          "effectName" : "CursorHilight",
                          "bypassed" : false,
                          "category" : "categoryCursorEffects",
                          "parameters" : {
                            "radius" : 50.0,
                            "color-red" : 1.0,
                            "color-green" : 1.0,
                            "color-blue" : 0.0,
                            "color-alpha" : 0.75,
                            "blur" : 0.1
                          }
                        }
                    ],
                    "start" : 68238348387,
                    "duration" : 2133491613,
                    "mediaStart" : 331537920000,
                    "mediaDuration" : 10530131613,
                    "scalar" : "711163871/3510043871",
                    "metadata" : {
                      "AutoAppliedSmartFocus" : "False",
                      "audiateLinkedSession" : "",
                      "clipSpeedAttribute" : { "type": "bool", "value" : true},
                      "colorAttribute" : { "type": "color", "value" : [ 0, 0, 0, 0]},
                      "default-height" : { "type": "double", "value" : 1036.8},
                      "default-translation0" : { "type": "double", "value" : 0.0},
                      "default-translation1" : { "type": "double", "value" : -194.4},
                      "default-translation2" : { "type": "double", "value" : 0.0},
                      "default-width" : { "type": "double", "value" : 1932.67572815534}
                    },
                    "animationTracks" : {

                    }
                  },
                  {
                    "id" : 284,
                    "_type" : "StitchedMedia",
                    "minMediaStart" : 0,
                    "attributes" : {
                      "ident" : "Rec 4-22-2025-8-51-30-PM",
                      "gain" : 1.0,
                      "mixToMono" : false,
                      "loudnessNormalization" : true,
                      "sourceFileOffset" : 0
                    },
                    "parameters" : {
                      "translation0" : 6.33786407766917,
                      "translation1" : -2.8421709430404e-14,
                      "scale0" : 0.503300970873786,
                      "scale1" : 0.503300970873786,
                      "geometryCrop0" : 0.0,
                      "geometryCrop1" : 0.0,
                      "geometryCrop2" : 0.0,
                      "geometryCrop3" : 0.0,
                      "cursorOpacity" : 1.0,
                      "cursorTrackLevel" : 0.0,
                      "cursorScale" : 5.0,
                      "smoothCursorAcrossEditDuration" : 0
                    },
                    "medias" : [
                        {
                          "id" : 285,
                          "_type" : "ScreenVMFile",
                          "src" : 2,
                          "trackNumber" : 0,
                          "attributes" : {
                            "ident" : "Rec 4-22-2025-8-51-30-PM"
                          },
                          "parameters" : {
                            "geometryCrop0" : {
                              "type" : "double",
                              "defaultValue" : 0.0,
                              "interp" : "eioe"
                            },
                            "geometryCrop1" : {
                              "type" : "double",
                              "defaultValue" : 0.0,
                              "interp" : "eioe"
                            },
                            "geometryCrop2" : {
                              "type" : "double",
                              "defaultValue" : 0.0,
                              "interp" : "eioe"
                            },
                            "geometryCrop3" : {
                              "type" : "double",
                              "defaultValue" : 0.0,
                              "interp" : "eioe"
                            },
                            "cursorScale" : {
                              "type" : "double",
                              "defaultValue" : 0.0,
                              "interp" : "linr"
                            },
                            "cursorOpacity" : {
                              "type" : "double",
                              "defaultValue" : 0.0,
                              "interp" : "linr"
                            },
                            "cursorTrackLevel" : {
                              "type" : "double",
                              "defaultValue" : 0.0,
                              "interp" : "linr"
                            },
                            "smoothCursorAcrossEditDuration" : 0
                          },
                          "effects" : [

                          ],
                          "start" : 0,
                          "duration" : 50991360000,
                          "mediaStart" : 0,
                          "mediaDuration" : 50991360000,
                          "scalar" : 1,
                          "metadata" : {
                            "AutoAppliedSmartFocus" : "False",
                            "audiateLinkedSession" : "",
                            "clipSpeedAttribute" : { "type": "bool", "value" : false},
                            "colorAttribute" : { "type": "color", "value" : [ 0, 0, 0, 0]},
                            "default-height" : { "type": "double", "value" : 1036.8},
                            "default-translation0" : { "type": "double", "value" : 0.0},
                            "default-translation1" : { "type": "double", "value" : -194.4},
                            "default-translation2" : { "type": "double", "value" : 0.0},
                            "default-width" : { "type": "double", "value" : 1932.67572815534}
                          },
                          "animationTracks" : {

                          }
                        },
                        {
                          "id" : 286,
                          "_type" : "ScreenVMFile",
                          "src" : 2,
                          "trackNumber" : 0,
                          "attributes" : {
                            "ident" : "Rec 4-22-2025-8-51-30-PM"
                          },
                          "parameters" : {
                            "geometryCrop0" : {
                              "type" : "double",
                              "defaultValue" : 0.0,
                              "interp" : "eioe"
                            },
                            "geometryCrop1" : {
                              "type" : "double",
                              "defaultValue" : 0.0,
                              "interp" : "eioe"
                            },
                            "geometryCrop2" : {
                              "type" : "double",
                              "defaultValue" : 0.0,
                              "interp" : "eioe"
                            },
                            "geometryCrop3" : {
                              "type" : "double",
                              "defaultValue" : 0.0,
                              "interp" : "eioe"
                            },
                            "cursorScale" : {
                              "type" : "double",
                              "defaultValue" : 0.0,
                              "interp" : "linr"
                            },
                            "cursorOpacity" : {
                              "type" : "double",
                              "defaultValue" : 0.0,
                              "interp" : "linr"
                            },
                            "cursorTrackLevel" : {
                              "type" : "double",
                              "defaultValue" : 0.0,
                              "interp" : "linr"
                            },
                            "smoothCursorAcrossEditDuration" : 0
                          },
                          "effects" : [

                          ],
                          "start" : 50991360000,
                          "duration" : 46663680000,
                          "mediaStart" : 66467520000,
                          "mediaDuration" : 46663680000,
                          "scalar" : 1,
                          "metadata" : {
                            "AutoAppliedSmartFocus" : "False",
                            "audiateLinkedSession" : "",
                            "clipSpeedAttribute" : { "type": "bool", "value" : false},
                            "colorAttribute" : { "type": "color", "value" : [ 0, 0, 0, 0]},
                            "default-height" : { "type": "double", "value" : 1036.8},
                            "default-translation0" : { "type": "double", "value" : 0.0},
                            "default-translation1" : { "type": "double", "value" : -194.4},
                            "default-translation2" : { "type": "double", "value" : 0.0},
                            "default-width" : { "type": "double", "value" : 1932.67572815534}
                          },
                          "animationTracks" : {

                          }
                        },
                        {
                          "id" : 287,
                          "_type" : "ScreenVMFile",
                          "src" : 2,
                          "trackNumber" : 0,
                          "attributes" : {
                            "ident" : "Rec 4-22-2025-8-51-30-PM"
                          },
                          "parameters" : {
                            "geometryCrop0" : {
                              "type" : "double",
                              "defaultValue" : 0.0,
                              "interp" : "eioe"
                            },
                            "geometryCrop1" : {
                              "type" : "double",
                              "defaultValue" : 0.0,
                              "interp" : "eioe"
                            },
                            "geometryCrop2" : {
                              "type" : "double",
                              "defaultValue" : 0.0,
                              "interp" : "eioe"
                            },
                            "geometryCrop3" : {
                              "type" : "double",
                              "defaultValue" : 0.0,
                              "interp" : "eioe"
                            },
                            "cursorScale" : {
                              "type" : "double",
                              "defaultValue" : 0.0,
                              "interp" : "linr"
                            },
                            "cursorOpacity" : {
                              "type" : "double",
                              "defaultValue" : 0.0,
                              "interp" : "linr"
                            },
                            "cursorTrackLevel" : {
                              "type" : "double",
                              "defaultValue" : 0.0,
                              "interp" : "linr"
                            },
                            "smoothCursorAcrossEditDuration" : 0
                          },
                          "effects" : [

                          ],
                          "start" : 97655040000,
                          "duration" : 352282560000,
                          "mediaStart" : 149352000000,
                          "mediaDuration" : 352282560000,
                          "scalar" : 1,
                          "metadata" : {
                            "AutoAppliedSmartFocus" : "False",
                            "audiateLinkedSession" : "",
                            "clipSpeedAttribute" : { "type": "bool", "value" : false},
                            "colorAttribute" : { "type": "color", "value" : [ 0, 0, 0, 0]},
                            "default-height" : { "type": "double", "value" : 1036.8},
                            "default-translation0" : { "type": "double", "value" : 0.0},
                            "default-translation1" : { "type": "double", "value" : -194.4},
                            "default-translation2" : { "type": "double", "value" : 0.0},
                            "default-width" : { "type": "double", "value" : 1932.67572815534}
                          },
                          "animationTracks" : {

                          }
                        },
                        {
                          "id" : 288,
                          "_type" : "ScreenVMFile",
                          "src" : 2,
                          "trackNumber" : 0,
                          "attributes" : {
                            "ident" : "Rec 4-22-2025-8-51-30-PM"
                          },
                          "parameters" : {
                            "geometryCrop0" : {
                              "type" : "double",
                              "defaultValue" : 0.0,
                              "interp" : "eioe"
                            },
                            "geometryCrop1" : {
                              "type" : "double",
                              "defaultValue" : 0.0,
                              "interp" : "eioe"
                            },
                            "geometryCrop2" : {
                              "type" : "double",
                              "defaultValue" : 0.0,
                              "interp" : "eioe"
                            },
                            "geometryCrop3" : {
                              "type" : "double",
                              "defaultValue" : 0.0,
                              "interp" : "eioe"
                            },
                            "cursorScale" : {
                              "type" : "double",
                              "defaultValue" : 0.0,
                              "interp" : "linr"
                            },
                            "cursorOpacity" : {
                              "type" : "double",
                              "defaultValue" : 0.0,
                              "interp" : "linr"
                            },
                            "cursorTrackLevel" : {
                              "type" : "double",
                              "defaultValue" : 0.0,
                              "interp" : "linr"
                            },
                            "smoothCursorAcrossEditDuration" : 0
                          },
                          "effects" : [

                          ],
                          "start" : 449937600000,
                          "duration" : 8961120000,
                          "mediaStart" : 509843040000,
                          "mediaDuration" : 8961120000,
                          "scalar" : 1,
                          "metadata" : {
                            "AutoAppliedSmartFocus" : "False",
                            "audiateLinkedSession" : "",
                            "clipSpeedAttribute" : { "type": "bool", "value" : false},
                            "colorAttribute" : { "type": "color", "value" : [ 0, 0, 0, 0]},
                            "default-height" : { "type": "double", "value" : 1036.8},
                            "default-translation0" : { "type": "double", "value" : 0.0},
                            "default-translation1" : { "type": "double", "value" : -194.4},
                            "default-translation2" : { "type": "double", "value" : 0.0},
                            "default-width" : { "type": "double", "value" : 1932.67572815534}
                          },
                          "animationTracks" : {

                          }
                        },
                        {
                          "id" : 289,
                          "_type" : "ScreenVMFile",
                          "src" : 2,
                          "trackNumber" : 0,
                          "attributes" : {
                            "ident" : "Rec 4-22-2025-8-51-30-PM"
                          },
                          "parameters" : {
                            "geometryCrop0" : {
                              "type" : "double",
                              "defaultValue" : 0.0,
                              "interp" : "eioe"
                            },
                            "geometryCrop1" : {
                              "type" : "double",
                              "defaultValue" : 0.0,
                              "interp" : "eioe"
                            },
                            "geometryCrop2" : {
                              "type" : "double",
                              "defaultValue" : 0.0,
                              "interp" : "eioe"
                            },
                            "geometryCrop3" : {
                              "type" : "double",
                              "defaultValue" : 0.0,
                              "interp" : "eioe"
                            },
                            "cursorScale" : {
                              "type" : "double",
                              "defaultValue" : 0.0,
                              "interp" : "linr"
                            },
                            "cursorOpacity" : {
                              "type" : "double",
                              "defaultValue" : 0.0,
                              "interp" : "linr"
                            },
                            "cursorTrackLevel" : {
                              "type" : "double",
                              "defaultValue" : 0.0,
                              "interp" : "linr"
                            },
                            "smoothCursorAcrossEditDuration" : 0
                          },
                          "effects" : [

                          ],
                          "start" : 458898720000,
                          "duration" : 581226240000,
                          "mediaStart" : 1416350880000,
                          "mediaDuration" : 581226240000,
                          "scalar" : 1,
                          "metadata" : {
                            "AutoAppliedSmartFocus" : "False",
                            "audiateLinkedSession" : "",
                            "clipSpeedAttribute" : { "type": "bool", "value" : false},
                            "colorAttribute" : { "type": "color", "value" : [ 0, 0, 0, 0]},
                            "default-height" : { "type": "double", "value" : 1036.8},
                            "default-translation0" : { "type": "double", "value" : 0.0},
                            "default-translation1" : { "type": "double", "value" : -194.4},
                            "default-translation2" : { "type": "double", "value" : 0.0},
                            "default-width" : { "type": "double", "value" : 1932.67572815534}
                          },
                          "animationTracks" : {

                          }
                        },
                        {
                          "id" : 290,
                          "_type" : "ScreenVMFile",
                          "src" : 2,
                          "trackNumber" : 0,
                          "attributes" : {
                            "ident" : "Rec 4-22-2025-8-51-30-PM"
                          },
                          "parameters" : {
                            "geometryCrop0" : {
                              "type" : "double",
                              "defaultValue" : 0.0,
                              "interp" : "eioe"
                            },
                            "geometryCrop1" : {
                              "type" : "double",
                              "defaultValue" : 0.0,
                              "interp" : "eioe"
                            },
                            "geometryCrop2" : {
                              "type" : "double",
                              "defaultValue" : 0.0,
                              "interp" : "eioe"
                            },
                            "geometryCrop3" : {
                              "type" : "double",
                              "defaultValue" : 0.0,
                              "interp" : "eioe"
                            },
                            "cursorScale" : {
                              "type" : "double",
                              "defaultValue" : 0.0,
                              "interp" : "linr"
                            },
                            "cursorOpacity" : {
                              "type" : "double",
                              "defaultValue" : 0.0,
                              "interp" : "linr"
                            },
                            "cursorTrackLevel" : {
                              "type" : "double",
                              "defaultValue" : 0.0,
                              "interp" : "linr"
                            },
                            "smoothCursorAcrossEditDuration" : 0
                          },
                          "effects" : [

                          ],
                          "start" : 1040124960000,
                          "duration" : 215419680000,
                          "mediaStart" : 2018886240000,
                          "mediaDuration" : 215419680000,
                          "scalar" : 1,
                          "metadata" : {
                            "AutoAppliedSmartFocus" : "False",
                            "audiateLinkedSession" : "",
                            "clipSpeedAttribute" : { "type": "bool", "value" : false},
                            "colorAttribute" : { "type": "color", "value" : [ 0, 0, 0, 0]},
                            "default-height" : { "type": "double", "value" : 1036.8},
                            "default-translation0" : { "type": "double", "value" : 0.0},
                            "default-translation1" : { "type": "double", "value" : -194.4},
                            "default-translation2" : { "type": "double", "value" : 0.0},
                            "default-width" : { "type": "double", "value" : 1932.67572815534}
                          },
                          "animationTracks" : {

                          }
                        },
                        {
                          "id" : 291,
                          "_type" : "ScreenVMFile",
                          "src" : 2,
                          "trackNumber" : 0,
                          "attributes" : {
                            "ident" : "Rec 4-22-2025-8-51-30-PM"
                          },
                          "parameters" : {
                            "geometryCrop0" : {
                              "type" : "double",
                              "defaultValue" : 0.0,
                              "interp" : "eioe"
                            },
                            "geometryCrop1" : {
                              "type" : "double",
                              "defaultValue" : 0.0,
                              "interp" : "eioe"
                            },
                            "geometryCrop2" : {
                              "type" : "double",
                              "defaultValue" : 0.0,
                              "interp" : "eioe"
                            },
                            "geometryCrop3" : {
                              "type" : "double",
                              "defaultValue" : 0.0,
                              "interp" : "eioe"
                            },
                            "cursorScale" : {
                              "type" : "double",
                              "defaultValue" : 0.0,
                              "interp" : "linr"
                            },
                            "cursorOpacity" : {
                              "type" : "double",
                              "defaultValue" : 0.0,
                              "interp" : "linr"
                            },
                            "cursorTrackLevel" : {
                              "type" : "double",
                              "defaultValue" : 0.0,
                              "interp" : "linr"
                            },
                            "smoothCursorAcrossEditDuration" : 0
                          },
                          "effects" : [

                          ],
                          "start" : 1255544640000,
                          "duration" : 786955680000,
                          "mediaStart" : 2257778880000,
                          "mediaDuration" : 786955680000,
                          "scalar" : 1,
                          "metadata" : {
                            "AutoAppliedSmartFocus" : "False",
                            "audiateLinkedSession" : "",
                            "clipSpeedAttribute" : { "type": "bool", "value" : false},
                            "colorAttribute" : { "type": "color", "value" : [ 0, 0, 0, 0]},
                            "default-height" : { "type": "double", "value" : 1036.8},
                            "default-translation0" : { "type": "double", "value" : 0.0},
                            "default-translation1" : { "type": "double", "value" : -194.4},
                            "default-translation2" : { "type": "double", "value" : 0.0},
                            "default-width" : { "type": "double", "value" : 1932.67572815534}
                          },
                          "animationTracks" : {

                          }
                        },
                        {
                          "id" : 292,
                          "_type" : "ScreenVMFile",
                          "src" : 2,
                          "trackNumber" : 0,
                          "attributes" : {
                            "ident" : "Rec 4-22-2025-8-51-30-PM"
                          },
                          "parameters" : {
                            "geometryCrop0" : {
                              "type" : "double",
                              "defaultValue" : 0.0,
                              "interp" : "eioe"
                            },
                            "geometryCrop1" : {
                              "type" : "double",
                              "defaultValue" : 0.0,
                              "interp" : "eioe"
                            },
                            "geometryCrop2" : {
                              "type" : "double",
                              "defaultValue" : 0.0,
                              "interp" : "eioe"
                            },
                            "geometryCrop3" : {
                              "type" : "double",
                              "defaultValue" : 0.0,
                              "interp" : "eioe"
                            },
                            "cursorScale" : {
                              "type" : "double",
                              "defaultValue" : 0.0,
                              "interp" : "linr"
                            },
                            "cursorOpacity" : {
                              "type" : "double",
                              "defaultValue" : 0.0,
                              "interp" : "linr"
                            },
                            "cursorTrackLevel" : {
                              "type" : "double",
                              "defaultValue" : 0.0,
                              "interp" : "linr"
                            },
                            "smoothCursorAcrossEditDuration" : 0
                          },
                          "effects" : [

                          ],
                          "start" : 2042500320000,
                          "duration" : 20768160000,
                          "mediaStart" : 3047580480000,
                          "mediaDuration" : 20768160000,
                          "scalar" : 1,
                          "metadata" : {
                            "AutoAppliedSmartFocus" : "False",
                            "audiateLinkedSession" : "",
                            "clipSpeedAttribute" : { "type": "bool", "value" : false},
                            "colorAttribute" : { "type": "color", "value" : [ 0, 0, 0, 0]},
                            "default-height" : { "type": "double", "value" : 1036.8},
                            "default-translation0" : { "type": "double", "value" : 0.0},
                            "default-translation1" : { "type": "double", "value" : -194.4},
                            "default-translation2" : { "type": "double", "value" : 0.0},
                            "default-width" : { "type": "double", "value" : 1932.67572815534}
                          },
                          "animationTracks" : {

                          }
                        },
                        {
                          "id" : 293,
                          "_type" : "ScreenVMFile",
                          "src" : 2,
                          "trackNumber" : 0,
                          "attributes" : {
                            "ident" : "Rec 4-22-2025-8-51-30-PM"
                          },
                          "parameters" : {
                            "geometryCrop0" : {
                              "type" : "double",
                              "defaultValue" : 0.0,
                              "interp" : "eioe"
                            },
                            "geometryCrop1" : {
                              "type" : "double",
                              "defaultValue" : 0.0,
                              "interp" : "eioe"
                            },
                            "geometryCrop2" : {
                              "type" : "double",
                              "defaultValue" : 0.0,
                              "interp" : "eioe"
                            },
                            "geometryCrop3" : {
                              "type" : "double",
                              "defaultValue" : 0.0,
                              "interp" : "eioe"
                            },
                            "cursorScale" : {
                              "type" : "double",
                              "defaultValue" : 0.0,
                              "interp" : "linr"
                            },
                            "cursorOpacity" : {
                              "type" : "double",
                              "defaultValue" : 0.0,
                              "interp" : "linr"
                            },
                            "cursorTrackLevel" : {
                              "type" : "double",
                              "defaultValue" : 0.0,
                              "interp" : "linr"
                            },
                            "smoothCursorAcrossEditDuration" : 0
                          },
                          "effects" : [

                          ],
                          "start" : 2063268480000,
                          "duration" : 343039200000,
                          "mediaStart" : 3138932160000,
                          "mediaDuration" : 343039200000,
                          "scalar" : 1,
                          "metadata" : {
                            "AutoAppliedSmartFocus" : "False",
                            "audiateLinkedSession" : "",
                            "clipSpeedAttribute" : { "type": "bool", "value" : false},
                            "colorAttribute" : { "type": "color", "value" : [ 0, 0, 0, 0]},
                            "default-height" : { "type": "double", "value" : 1036.8},
                            "default-translation0" : { "type": "double", "value" : 0.0},
                            "default-translation1" : { "type": "double", "value" : -194.4},
                            "default-translation2" : { "type": "double", "value" : 0.0},
                            "default-width" : { "type": "double", "value" : 1932.67572815534}
                          },
                          "animationTracks" : {

                          }
                        }
                    ],
                    "effects" : [
                        {
                          "effectName" : "CursorColor",
                          "bypassed" : false,
                          "category" : "categoryCursorEffects",
                          "parameters" : {
                            "intensity" : 1.0,
                            "desaturation" : 0.0,
                            "colorLumaCutoff" : 1.0,
                            "color-alpha" : 1.0,
                            "color-red" : 1.0,
                            "color-green" : 0.8980392157,
                            "color-blue" : 0.1215686275,
                            "secondColor-red" : 0.0,
                            "secondColor-green" : 0.0,
                            "secondColor-blue" : 0.0,
                            "secondColor-alpha" : 1.0,
                            "secondColorLumaCutoff" : 0.0,
                            "channel" : 0,
                            "shadowRampStart" : 0.0,
                            "shadowRampEnd" : 0.0,
                            "highlightRampStart" : 1.0,
                            "highlightRampEnd" : 1.0
                          }
                        },
                        {
                          "effectName" : "CursorShadow",
                          "bypassed" : false,
                          "category" : "categoryCursorEffects",
                          "parameters" : {
                            "angle" : 3.92699081698724,
                            "enabled" : 1,
                            "offset" : 5.0,
                            "blur" : 2.0,
                            "opacity" : 0.25,
                            "color-red" : 0.0,
                            "color-green" : 0.0,
                            "color-blue" : 0.0,
                            "color-alpha" : 1.0
                          }
                        },
                        {
                          "effectName" : "CursorHilight",
                          "bypassed" : false,
                          "category" : "categoryCursorEffects",
                          "parameters" : {
                            "radius" : 50.0,
                            "color-red" : 1.0,
                            "color-green" : 1.0,
                            "color-blue" : 0.0,
                            "color-alpha" : 0.75,
                            "blur" : 0.1
                          }
                        }
                    ],
                    "start" : 70371840000,
                    "duration" : 6232800000,
                    "mediaStart" : 342068051613,
                    "mediaDuration" : 12472428387,
                    "scalar" : "2077600000/4157476129",
                    "metadata" : {
                      "AutoAppliedSmartFocus" : "False",
                      "audiateLinkedSession" : "",
                      "clipSpeedAttribute" : { "type": "bool", "value" : true},
                      "colorAttribute" : { "type": "color", "value" : [ 0, 0, 0, 0]},
                      "default-height" : { "type": "double", "value" : 1036.8},
                      "default-translation0" : { "type": "double", "value" : 0.0},
                      "default-translation1" : { "type": "double", "value" : -194.4},
                      "default-translation2" : { "type": "double", "value" : 0.0},
                      "default-width" : { "type": "double", "value" : 1932.67572815534}
                    },
                    "animationTracks" : {

                    }
                  },
                  {
                    "id" : 294,
                    "_type" : "StitchedMedia",
                    "minMediaStart" : 0,
                    "attributes" : {
                      "ident" : "Rec 4-22-2025-8-51-30-PM",
                      "gain" : 1.0,
                      "mixToMono" : false,
                      "loudnessNormalization" : true,
                      "sourceFileOffset" : 0
                    },
                    "parameters" : {
                      "translation0" : 6.33786407766917,
                      "translation1" : -2.8421709430404e-14,
                      "scale0" : 0.503300970873786,
                      "scale1" : 0.503300970873786,
                      "geometryCrop0" : 0.0,
                      "geometryCrop1" : 0.0,
                      "geometryCrop2" : 0.0,
                      "geometryCrop3" : 0.0,
                      "toc" : {
                        "type" : "string",
                        "keyframes" : [
                          {
                            "endTime" : 354540480000,
                            "time" : 354540480000,
                            "value" : "Commit",
                            "duration" : 0,
                            "metadata" : {
                              "markerIdentifier" : "3D303548-56EB-4CC2-BDE6-3F7DF2D5117B"
                            }
                          }
                        ]
                      },
                      "cursorOpacity" : 1.0,
                      "cursorTrackLevel" : 0.0,
                      "cursorScale" : 5.0,
                      "smoothCursorAcrossEditDuration" : 0
                    },
                    "medias" : [
                        {
                          "id" : 295,
                          "_type" : "ScreenVMFile",
                          "src" : 2,
                          "trackNumber" : 0,
                          "attributes" : {
                            "ident" : "Rec 4-22-2025-8-51-30-PM"
                          },
                          "parameters" : {
                            "geometryCrop0" : {
                              "type" : "double",
                              "defaultValue" : 0.0,
                              "interp" : "eioe"
                            },
                            "geometryCrop1" : {
                              "type" : "double",
                              "defaultValue" : 0.0,
                              "interp" : "eioe"
                            },
                            "geometryCrop2" : {
                              "type" : "double",
                              "defaultValue" : 0.0,
                              "interp" : "eioe"
                            },
                            "geometryCrop3" : {
                              "type" : "double",
                              "defaultValue" : 0.0,
                              "interp" : "eioe"
                            },
                            "cursorScale" : {
                              "type" : "double",
                              "defaultValue" : 0.0,
                              "interp" : "linr"
                            },
                            "cursorOpacity" : {
                              "type" : "double",
                              "defaultValue" : 0.0,
                              "interp" : "linr"
                            },
                            "cursorTrackLevel" : {
                              "type" : "double",
                              "defaultValue" : 0.0,
                              "interp" : "linr"
                            },
                            "smoothCursorAcrossEditDuration" : 0
                          },
                          "effects" : [

                          ],
                          "start" : 0,
                          "duration" : 50991360000,
                          "mediaStart" : 0,
                          "mediaDuration" : 50991360000,
                          "scalar" : 1,
                          "metadata" : {
                            "AutoAppliedSmartFocus" : "False",
                            "audiateLinkedSession" : "",
                            "clipSpeedAttribute" : { "type": "bool", "value" : false},
                            "colorAttribute" : { "type": "color", "value" : [ 0, 0, 0, 0]},
                            "default-height" : { "type": "double", "value" : 1036.8},
                            "default-translation0" : { "type": "double", "value" : 0.0},
                            "default-translation1" : { "type": "double", "value" : -194.4},
                            "default-translation2" : { "type": "double", "value" : 0.0},
                            "default-width" : { "type": "double", "value" : 1932.67572815534}
                          },
                          "animationTracks" : {

                          }
                        },
                        {
                          "id" : 296,
                          "_type" : "ScreenVMFile",
                          "src" : 2,
                          "trackNumber" : 0,
                          "attributes" : {
                            "ident" : "Rec 4-22-2025-8-51-30-PM"
                          },
                          "parameters" : {
                            "geometryCrop0" : {
                              "type" : "double",
                              "defaultValue" : 0.0,
                              "interp" : "eioe"
                            },
                            "geometryCrop1" : {
                              "type" : "double",
                              "defaultValue" : 0.0,
                              "interp" : "eioe"
                            },
                            "geometryCrop2" : {
                              "type" : "double",
                              "defaultValue" : 0.0,
                              "interp" : "eioe"
                            },
                            "geometryCrop3" : {
                              "type" : "double",
                              "defaultValue" : 0.0,
                              "interp" : "eioe"
                            },
                            "cursorScale" : {
                              "type" : "double",
                              "defaultValue" : 0.0,
                              "interp" : "linr"
                            },
                            "cursorOpacity" : {
                              "type" : "double",
                              "defaultValue" : 0.0,
                              "interp" : "linr"
                            },
                            "cursorTrackLevel" : {
                              "type" : "double",
                              "defaultValue" : 0.0,
                              "interp" : "linr"
                            },
                            "smoothCursorAcrossEditDuration" : 0
                          },
                          "effects" : [

                          ],
                          "start" : 50991360000,
                          "duration" : 46663680000,
                          "mediaStart" : 66467520000,
                          "mediaDuration" : 46663680000,
                          "scalar" : 1,
                          "metadata" : {
                            "AutoAppliedSmartFocus" : "False",
                            "audiateLinkedSession" : "",
                            "clipSpeedAttribute" : { "type": "bool", "value" : false},
                            "colorAttribute" : { "type": "color", "value" : [ 0, 0, 0, 0]},
                            "default-height" : { "type": "double", "value" : 1036.8},
                            "default-translation0" : { "type": "double", "value" : 0.0},
                            "default-translation1" : { "type": "double", "value" : -194.4},
                            "default-translation2" : { "type": "double", "value" : 0.0},
                            "default-width" : { "type": "double", "value" : 1932.67572815534}
                          },
                          "animationTracks" : {

                          }
                        },
                        {
                          "id" : 297,
                          "_type" : "ScreenVMFile",
                          "src" : 2,
                          "trackNumber" : 0,
                          "attributes" : {
                            "ident" : "Rec 4-22-2025-8-51-30-PM"
                          },
                          "parameters" : {
                            "geometryCrop0" : {
                              "type" : "double",
                              "defaultValue" : 0.0,
                              "interp" : "eioe"
                            },
                            "geometryCrop1" : {
                              "type" : "double",
                              "defaultValue" : 0.0,
                              "interp" : "eioe"
                            },
                            "geometryCrop2" : {
                              "type" : "double",
                              "defaultValue" : 0.0,
                              "interp" : "eioe"
                            },
                            "geometryCrop3" : {
                              "type" : "double",
                              "defaultValue" : 0.0,
                              "interp" : "eioe"
                            },
                            "cursorScale" : {
                              "type" : "double",
                              "defaultValue" : 0.0,
                              "interp" : "linr"
                            },
                            "cursorOpacity" : {
                              "type" : "double",
                              "defaultValue" : 0.0,
                              "interp" : "linr"
                            },
                            "cursorTrackLevel" : {
                              "type" : "double",
                              "defaultValue" : 0.0,
                              "interp" : "linr"
                            },
                            "smoothCursorAcrossEditDuration" : 0
                          },
                          "effects" : [

                          ],
                          "start" : 97655040000,
                          "duration" : 352282560000,
                          "mediaStart" : 149352000000,
                          "mediaDuration" : 352282560000,
                          "scalar" : 1,
                          "metadata" : {
                            "AutoAppliedSmartFocus" : "False",
                            "audiateLinkedSession" : "",
                            "clipSpeedAttribute" : { "type": "bool", "value" : false},
                            "colorAttribute" : { "type": "color", "value" : [ 0, 0, 0, 0]},
                            "default-height" : { "type": "double", "value" : 1036.8},
                            "default-translation0" : { "type": "double", "value" : 0.0},
                            "default-translation1" : { "type": "double", "value" : -194.4},
                            "default-translation2" : { "type": "double", "value" : 0.0},
                            "default-width" : { "type": "double", "value" : 1932.67572815534}
                          },
                          "animationTracks" : {

                          }
                        },
                        {
                          "id" : 298,
                          "_type" : "ScreenVMFile",
                          "src" : 2,
                          "trackNumber" : 0,
                          "attributes" : {
                            "ident" : "Rec 4-22-2025-8-51-30-PM"
                          },
                          "parameters" : {
                            "geometryCrop0" : {
                              "type" : "double",
                              "defaultValue" : 0.0,
                              "interp" : "eioe"
                            },
                            "geometryCrop1" : {
                              "type" : "double",
                              "defaultValue" : 0.0,
                              "interp" : "eioe"
                            },
                            "geometryCrop2" : {
                              "type" : "double",
                              "defaultValue" : 0.0,
                              "interp" : "eioe"
                            },
                            "geometryCrop3" : {
                              "type" : "double",
                              "defaultValue" : 0.0,
                              "interp" : "eioe"
                            },
                            "cursorScale" : {
                              "type" : "double",
                              "defaultValue" : 0.0,
                              "interp" : "linr"
                            },
                            "cursorOpacity" : {
                              "type" : "double",
                              "defaultValue" : 0.0,
                              "interp" : "linr"
                            },
                            "cursorTrackLevel" : {
                              "type" : "double",
                              "defaultValue" : 0.0,
                              "interp" : "linr"
                            },
                            "smoothCursorAcrossEditDuration" : 0
                          },
                          "effects" : [

                          ],
                          "start" : 449937600000,
                          "duration" : 8961120000,
                          "mediaStart" : 509843040000,
                          "mediaDuration" : 8961120000,
                          "scalar" : 1,
                          "metadata" : {
                            "AutoAppliedSmartFocus" : "False",
                            "audiateLinkedSession" : "",
                            "clipSpeedAttribute" : { "type": "bool", "value" : false},
                            "colorAttribute" : { "type": "color", "value" : [ 0, 0, 0, 0]},
                            "default-height" : { "type": "double", "value" : 1036.8},
                            "default-translation0" : { "type": "double", "value" : 0.0},
                            "default-translation1" : { "type": "double", "value" : -194.4},
                            "default-translation2" : { "type": "double", "value" : 0.0},
                            "default-width" : { "type": "double", "value" : 1932.67572815534}
                          },
                          "animationTracks" : {

                          }
                        },
                        {
                          "id" : 299,
                          "_type" : "ScreenVMFile",
                          "src" : 2,
                          "trackNumber" : 0,
                          "attributes" : {
                            "ident" : "Rec 4-22-2025-8-51-30-PM"
                          },
                          "parameters" : {
                            "geometryCrop0" : {
                              "type" : "double",
                              "defaultValue" : 0.0,
                              "interp" : "eioe"
                            },
                            "geometryCrop1" : {
                              "type" : "double",
                              "defaultValue" : 0.0,
                              "interp" : "eioe"
                            },
                            "geometryCrop2" : {
                              "type" : "double",
                              "defaultValue" : 0.0,
                              "interp" : "eioe"
                            },
                            "geometryCrop3" : {
                              "type" : "double",
                              "defaultValue" : 0.0,
                              "interp" : "eioe"
                            },
                            "cursorScale" : {
                              "type" : "double",
                              "defaultValue" : 0.0,
                              "interp" : "linr"
                            },
                            "cursorOpacity" : {
                              "type" : "double",
                              "defaultValue" : 0.0,
                              "interp" : "linr"
                            },
                            "cursorTrackLevel" : {
                              "type" : "double",
                              "defaultValue" : 0.0,
                              "interp" : "linr"
                            },
                            "smoothCursorAcrossEditDuration" : 0
                          },
                          "effects" : [

                          ],
                          "start" : 458898720000,
                          "duration" : 581226240000,
                          "mediaStart" : 1416350880000,
                          "mediaDuration" : 581226240000,
                          "scalar" : 1,
                          "metadata" : {
                            "AutoAppliedSmartFocus" : "False",
                            "audiateLinkedSession" : "",
                            "clipSpeedAttribute" : { "type": "bool", "value" : false},
                            "colorAttribute" : { "type": "color", "value" : [ 0, 0, 0, 0]},
                            "default-height" : { "type": "double", "value" : 1036.8},
                            "default-translation0" : { "type": "double", "value" : 0.0},
                            "default-translation1" : { "type": "double", "value" : -194.4},
                            "default-translation2" : { "type": "double", "value" : 0.0},
                            "default-width" : { "type": "double", "value" : 1932.67572815534}
                          },
                          "animationTracks" : {

                          }
                        },
                        {
                          "id" : 300,
                          "_type" : "ScreenVMFile",
                          "src" : 2,
                          "trackNumber" : 0,
                          "attributes" : {
                            "ident" : "Rec 4-22-2025-8-51-30-PM"
                          },
                          "parameters" : {
                            "geometryCrop0" : {
                              "type" : "double",
                              "defaultValue" : 0.0,
                              "interp" : "eioe"
                            },
                            "geometryCrop1" : {
                              "type" : "double",
                              "defaultValue" : 0.0,
                              "interp" : "eioe"
                            },
                            "geometryCrop2" : {
                              "type" : "double",
                              "defaultValue" : 0.0,
                              "interp" : "eioe"
                            },
                            "geometryCrop3" : {
                              "type" : "double",
                              "defaultValue" : 0.0,
                              "interp" : "eioe"
                            },
                            "cursorScale" : {
                              "type" : "double",
                              "defaultValue" : 0.0,
                              "interp" : "linr"
                            },
                            "cursorOpacity" : {
                              "type" : "double",
                              "defaultValue" : 0.0,
                              "interp" : "linr"
                            },
                            "cursorTrackLevel" : {
                              "type" : "double",
                              "defaultValue" : 0.0,
                              "interp" : "linr"
                            },
                            "smoothCursorAcrossEditDuration" : 0
                          },
                          "effects" : [

                          ],
                          "start" : 1040124960000,
                          "duration" : 215419680000,
                          "mediaStart" : 2018886240000,
                          "mediaDuration" : 215419680000,
                          "scalar" : 1,
                          "metadata" : {
                            "AutoAppliedSmartFocus" : "False",
                            "audiateLinkedSession" : "",
                            "clipSpeedAttribute" : { "type": "bool", "value" : false},
                            "colorAttribute" : { "type": "color", "value" : [ 0, 0, 0, 0]},
                            "default-height" : { "type": "double", "value" : 1036.8},
                            "default-translation0" : { "type": "double", "value" : 0.0},
                            "default-translation1" : { "type": "double", "value" : -194.4},
                            "default-translation2" : { "type": "double", "value" : 0.0},
                            "default-width" : { "type": "double", "value" : 1932.67572815534}
                          },
                          "animationTracks" : {

                          }
                        },
                        {
                          "id" : 301,
                          "_type" : "ScreenVMFile",
                          "src" : 2,
                          "trackNumber" : 0,
                          "attributes" : {
                            "ident" : "Rec 4-22-2025-8-51-30-PM"
                          },
                          "parameters" : {
                            "geometryCrop0" : {
                              "type" : "double",
                              "defaultValue" : 0.0,
                              "interp" : "eioe"
                            },
                            "geometryCrop1" : {
                              "type" : "double",
                              "defaultValue" : 0.0,
                              "interp" : "eioe"
                            },
                            "geometryCrop2" : {
                              "type" : "double",
                              "defaultValue" : 0.0,
                              "interp" : "eioe"
                            },
                            "geometryCrop3" : {
                              "type" : "double",
                              "defaultValue" : 0.0,
                              "interp" : "eioe"
                            },
                            "cursorScale" : {
                              "type" : "double",
                              "defaultValue" : 0.0,
                              "interp" : "linr"
                            },
                            "cursorOpacity" : {
                              "type" : "double",
                              "defaultValue" : 0.0,
                              "interp" : "linr"
                            },
                            "cursorTrackLevel" : {
                              "type" : "double",
                              "defaultValue" : 0.0,
                              "interp" : "linr"
                            },
                            "smoothCursorAcrossEditDuration" : 0
                          },
                          "effects" : [

                          ],
                          "start" : 1255544640000,
                          "duration" : 786955680000,
                          "mediaStart" : 2257778880000,
                          "mediaDuration" : 786955680000,
                          "scalar" : 1,
                          "metadata" : {
                            "AutoAppliedSmartFocus" : "False",
                            "audiateLinkedSession" : "",
                            "clipSpeedAttribute" : { "type": "bool", "value" : false},
                            "colorAttribute" : { "type": "color", "value" : [ 0, 0, 0, 0]},
                            "default-height" : { "type": "double", "value" : 1036.8},
                            "default-translation0" : { "type": "double", "value" : 0.0},
                            "default-translation1" : { "type": "double", "value" : -194.4},
                            "default-translation2" : { "type": "double", "value" : 0.0},
                            "default-width" : { "type": "double", "value" : 1932.67572815534}
                          },
                          "animationTracks" : {

                          }
                        },
                        {
                          "id" : 302,
                          "_type" : "ScreenVMFile",
                          "src" : 2,
                          "trackNumber" : 0,
                          "attributes" : {
                            "ident" : "Rec 4-22-2025-8-51-30-PM"
                          },
                          "parameters" : {
                            "geometryCrop0" : {
                              "type" : "double",
                              "defaultValue" : 0.0,
                              "interp" : "eioe"
                            },
                            "geometryCrop1" : {
                              "type" : "double",
                              "defaultValue" : 0.0,
                              "interp" : "eioe"
                            },
                            "geometryCrop2" : {
                              "type" : "double",
                              "defaultValue" : 0.0,
                              "interp" : "eioe"
                            },
                            "geometryCrop3" : {
                              "type" : "double",
                              "defaultValue" : 0.0,
                              "interp" : "eioe"
                            },
                            "cursorScale" : {
                              "type" : "double",
                              "defaultValue" : 0.0,
                              "interp" : "linr"
                            },
                            "cursorOpacity" : {
                              "type" : "double",
                              "defaultValue" : 0.0,
                              "interp" : "linr"
                            },
                            "cursorTrackLevel" : {
                              "type" : "double",
                              "defaultValue" : 0.0,
                              "interp" : "linr"
                            },
                            "smoothCursorAcrossEditDuration" : 0
                          },
                          "effects" : [

                          ],
                          "start" : 2042500320000,
                          "duration" : 20768160000,
                          "mediaStart" : 3047580480000,
                          "mediaDuration" : 20768160000,
                          "scalar" : 1,
                          "metadata" : {
                            "AutoAppliedSmartFocus" : "False",
                            "audiateLinkedSession" : "",
                            "clipSpeedAttribute" : { "type": "bool", "value" : false},
                            "colorAttribute" : { "type": "color", "value" : [ 0, 0, 0, 0]},
                            "default-height" : { "type": "double", "value" : 1036.8},
                            "default-translation0" : { "type": "double", "value" : 0.0},
                            "default-translation1" : { "type": "double", "value" : -194.4},
                            "default-translation2" : { "type": "double", "value" : 0.0},
                            "default-width" : { "type": "double", "value" : 1932.67572815534}
                          },
                          "animationTracks" : {

                          }
                        },
                        {
                          "id" : 303,
                          "_type" : "ScreenVMFile",
                          "src" : 2,
                          "trackNumber" : 0,
                          "attributes" : {
                            "ident" : "Rec 4-22-2025-8-51-30-PM"
                          },
                          "parameters" : {
                            "geometryCrop0" : {
                              "type" : "double",
                              "defaultValue" : 0.0,
                              "interp" : "eioe"
                            },
                            "geometryCrop1" : {
                              "type" : "double",
                              "defaultValue" : 0.0,
                              "interp" : "eioe"
                            },
                            "geometryCrop2" : {
                              "type" : "double",
                              "defaultValue" : 0.0,
                              "interp" : "eioe"
                            },
                            "geometryCrop3" : {
                              "type" : "double",
                              "defaultValue" : 0.0,
                              "interp" : "eioe"
                            },
                            "cursorScale" : {
                              "type" : "double",
                              "defaultValue" : 0.0,
                              "interp" : "linr"
                            },
                            "cursorOpacity" : {
                              "type" : "double",
                              "defaultValue" : 0.0,
                              "interp" : "linr"
                            },
                            "cursorTrackLevel" : {
                              "type" : "double",
                              "defaultValue" : 0.0,
                              "interp" : "linr"
                            },
                            "smoothCursorAcrossEditDuration" : 0
                          },
                          "effects" : [

                          ],
                          "start" : 2063268480000,
                          "duration" : 343039200000,
                          "mediaStart" : 3138932160000,
                          "mediaDuration" : 343039200000,
                          "scalar" : 1,
                          "metadata" : {
                            "AutoAppliedSmartFocus" : "False",
                            "audiateLinkedSession" : "",
                            "clipSpeedAttribute" : { "type": "bool", "value" : false},
                            "colorAttribute" : { "type": "color", "value" : [ 0, 0, 0, 0]},
                            "default-height" : { "type": "double", "value" : 1036.8},
                            "default-translation0" : { "type": "double", "value" : 0.0},
                            "default-translation1" : { "type": "double", "value" : -194.4},
                            "default-translation2" : { "type": "double", "value" : 0.0},
                            "default-width" : { "type": "double", "value" : 1932.67572815534}
                          },
                          "animationTracks" : {

                          }
                        }
                    ],
                    "effects" : [
                        {
                          "effectName" : "CursorColor",
                          "bypassed" : false,
                          "category" : "categoryCursorEffects",
                          "parameters" : {
                            "intensity" : 1.0,
                            "desaturation" : 0.0,
                            "colorLumaCutoff" : 1.0,
                            "color-alpha" : 1.0,
                            "color-red" : 1.0,
                            "color-green" : 0.8980392157,
                            "color-blue" : 0.1215686275,
                            "secondColor-red" : 0.0,
                            "secondColor-green" : 0.0,
                            "secondColor-blue" : 0.0,
                            "secondColor-alpha" : 1.0,
                            "secondColorLumaCutoff" : 0.0,
                            "channel" : 0,
                            "shadowRampStart" : 0.0,
                            "shadowRampEnd" : 0.0,
                            "highlightRampStart" : 1.0,
                            "highlightRampEnd" : 1.0
                          }
                        },
                        {
                          "effectName" : "CursorShadow",
                          "bypassed" : false,
                          "category" : "categoryCursorEffects",
                          "parameters" : {
                            "angle" : 3.92699081698724,
                            "enabled" : 1,
                            "offset" : 5.0,
                            "blur" : 2.0,
                            "opacity" : 0.25,
                            "color-red" : 0.0,
                            "color-green" : 0.0,
                            "color-blue" : 0.0,
                            "color-alpha" : 1.0
                          }
                        },
                        {
                          "effectName" : "CursorHilight",
                          "bypassed" : false,
                          "category" : "categoryCursorEffects",
                          "parameters" : {
                            "radius" : 50.0,
                            "color-red" : 1.0,
                            "color-green" : 1.0,
                            "color-blue" : 0.0,
                            "color-alpha" : 0.75,
                            "blur" : 0.1
                          }
                        }
                    ],
                    "start" : 76604640000,
                    "duration" : 658560000,
                    "mediaStart" : 354540480000,
                    "mediaDuration" : 8015910000,
                    "scalar" : "64/779",
                    "metadata" : {
                      "AutoAppliedSmartFocus" : "False",
                      "audiateLinkedSession" : "",
                      "clipSpeedAttribute" : { "type": "bool", "value" : true},
                      "colorAttribute" : { "type": "color", "value" : [ 0, 0, 0, 0]},
                      "default-height" : { "type": "double", "value" : 1036.8},
                      "default-translation0" : { "type": "double", "value" : 0.0},
                      "default-translation1" : { "type": "double", "value" : -194.4},
                      "default-translation2" : { "type": "double", "value" : 0.0},
                      "default-width" : { "type": "double", "value" : 1932.67572815534}
                    },
                    "animationTracks" : {

                    }
                  },
                  {
                    "id" : 304,
                    "_type" : "StitchedMedia",
                    "minMediaStart" : 0,
                    "attributes" : {
                      "ident" : "Rec 4-22-2025-8-51-30-PM",
                      "gain" : 1.0,
                      "mixToMono" : false,
                      "loudnessNormalization" : true,
                      "sourceFileOffset" : 0
                    },
                    "parameters" : {
                      "translation0" : 6.33786407766917,
                      "translation1" : -2.8421709430404e-14,
                      "scale0" : 0.503300970873786,
                      "scale1" : 0.503300970873786,
                      "geometryCrop0" : 0.0,
                      "geometryCrop1" : 0.0,
                      "geometryCrop2" : 0.0,
                      "geometryCrop3" : 0.0,
                      "toc" : {
                        "type" : "string",
                        "keyframes" : [
                          {
                            "endTime" : "27365833600000/69",
                            "time" : "27365833600000/69",
                            "value" : "Push",
                            "duration" : 0,
                            "metadata" : {
                              "markerIdentifier" : "BA0028CF-C7DB-4DB5-8209-2C404EF3A213"
                            }
                          }
                        ]
                      },
                      "cursorOpacity" : 1.0,
                      "cursorTrackLevel" : 0.0,
                      "cursorScale" : 5.0,
                      "smoothCursorAcrossEditDuration" : 0
                    },
                    "medias" : [
                        {
                          "id" : 305,
                          "_type" : "ScreenVMFile",
                          "src" : 2,
                          "trackNumber" : 0,
                          "attributes" : {
                            "ident" : "Rec 4-22-2025-8-51-30-PM"
                          },
                          "parameters" : {
                            "geometryCrop0" : {
                              "type" : "double",
                              "defaultValue" : 0.0,
                              "interp" : "eioe"
                            },
                            "geometryCrop1" : {
                              "type" : "double",
                              "defaultValue" : 0.0,
                              "interp" : "eioe"
                            },
                            "geometryCrop2" : {
                              "type" : "double",
                              "defaultValue" : 0.0,
                              "interp" : "eioe"
                            },
                            "geometryCrop3" : {
                              "type" : "double",
                              "defaultValue" : 0.0,
                              "interp" : "eioe"
                            },
                            "cursorScale" : {
                              "type" : "double",
                              "defaultValue" : 0.0,
                              "interp" : "linr"
                            },
                            "cursorOpacity" : {
                              "type" : "double",
                              "defaultValue" : 0.0,
                              "interp" : "linr"
                            },
                            "cursorTrackLevel" : {
                              "type" : "double",
                              "defaultValue" : 0.0,
                              "interp" : "linr"
                            },
                            "smoothCursorAcrossEditDuration" : 0
                          },
                          "effects" : [

                          ],
                          "start" : 0,
                          "duration" : 50991360000,
                          "mediaStart" : 0,
                          "mediaDuration" : 50991360000,
                          "scalar" : 1,
                          "metadata" : {
                            "AutoAppliedSmartFocus" : "False",
                            "audiateLinkedSession" : "",
                            "clipSpeedAttribute" : { "type": "bool", "value" : false},
                            "colorAttribute" : { "type": "color", "value" : [ 0, 0, 0, 0]},
                            "default-height" : { "type": "double", "value" : 1036.8},
                            "default-translation0" : { "type": "double", "value" : 0.0},
                            "default-translation1" : { "type": "double", "value" : -194.4},
                            "default-translation2" : { "type": "double", "value" : 0.0},
                            "default-width" : { "type": "double", "value" : 1932.67572815534}
                          },
                          "animationTracks" : {

                          }
                        },
                        {
                          "id" : 306,
                          "_type" : "ScreenVMFile",
                          "src" : 2,
                          "trackNumber" : 0,
                          "attributes" : {
                            "ident" : "Rec 4-22-2025-8-51-30-PM"
                          },
                          "parameters" : {
                            "geometryCrop0" : {
                              "type" : "double",
                              "defaultValue" : 0.0,
                              "interp" : "eioe"
                            },
                            "geometryCrop1" : {
                              "type" : "double",
                              "defaultValue" : 0.0,
                              "interp" : "eioe"
                            },
                            "geometryCrop2" : {
                              "type" : "double",
                              "defaultValue" : 0.0,
                              "interp" : "eioe"
                            },
                            "geometryCrop3" : {
                              "type" : "double",
                              "defaultValue" : 0.0,
                              "interp" : "eioe"
                            },
                            "cursorScale" : {
                              "type" : "double",
                              "defaultValue" : 0.0,
                              "interp" : "linr"
                            },
                            "cursorOpacity" : {
                              "type" : "double",
                              "defaultValue" : 0.0,
                              "interp" : "linr"
                            },
                            "cursorTrackLevel" : {
                              "type" : "double",
                              "defaultValue" : 0.0,
                              "interp" : "linr"
                            },
                            "smoothCursorAcrossEditDuration" : 0
                          },
                          "effects" : [

                          ],
                          "start" : 50991360000,
                          "duration" : 46663680000,
                          "mediaStart" : 66467520000,
                          "mediaDuration" : 46663680000,
                          "scalar" : 1,
                          "metadata" : {
                            "AutoAppliedSmartFocus" : "False",
                            "audiateLinkedSession" : "",
                            "clipSpeedAttribute" : { "type": "bool", "value" : false},
                            "colorAttribute" : { "type": "color", "value" : [ 0, 0, 0, 0]},
                            "default-height" : { "type": "double", "value" : 1036.8},
                            "default-translation0" : { "type": "double", "value" : 0.0},
                            "default-translation1" : { "type": "double", "value" : -194.4},
                            "default-translation2" : { "type": "double", "value" : 0.0},
                            "default-width" : { "type": "double", "value" : 1932.67572815534}
                          },
                          "animationTracks" : {

                          }
                        },
                        {
                          "id" : 307,
                          "_type" : "ScreenVMFile",
                          "src" : 2,
                          "trackNumber" : 0,
                          "attributes" : {
                            "ident" : "Rec 4-22-2025-8-51-30-PM"
                          },
                          "parameters" : {
                            "geometryCrop0" : {
                              "type" : "double",
                              "defaultValue" : 0.0,
                              "interp" : "eioe"
                            },
                            "geometryCrop1" : {
                              "type" : "double",
                              "defaultValue" : 0.0,
                              "interp" : "eioe"
                            },
                            "geometryCrop2" : {
                              "type" : "double",
                              "defaultValue" : 0.0,
                              "interp" : "eioe"
                            },
                            "geometryCrop3" : {
                              "type" : "double",
                              "defaultValue" : 0.0,
                              "interp" : "eioe"
                            },
                            "cursorScale" : {
                              "type" : "double",
                              "defaultValue" : 0.0,
                              "interp" : "linr"
                            },
                            "cursorOpacity" : {
                              "type" : "double",
                              "defaultValue" : 0.0,
                              "interp" : "linr"
                            },
                            "cursorTrackLevel" : {
                              "type" : "double",
                              "defaultValue" : 0.0,
                              "interp" : "linr"
                            },
                            "smoothCursorAcrossEditDuration" : 0
                          },
                          "effects" : [

                          ],
                          "start" : 97655040000,
                          "duration" : 352282560000,
                          "mediaStart" : 149352000000,
                          "mediaDuration" : 352282560000,
                          "scalar" : 1,
                          "metadata" : {
                            "AutoAppliedSmartFocus" : "False",
                            "audiateLinkedSession" : "",
                            "clipSpeedAttribute" : { "type": "bool", "value" : false},
                            "colorAttribute" : { "type": "color", "value" : [ 0, 0, 0, 0]},
                            "default-height" : { "type": "double", "value" : 1036.8},
                            "default-translation0" : { "type": "double", "value" : 0.0},
                            "default-translation1" : { "type": "double", "value" : -194.4},
                            "default-translation2" : { "type": "double", "value" : 0.0},
                            "default-width" : { "type": "double", "value" : 1932.67572815534}
                          },
                          "animationTracks" : {

                          }
                        },
                        {
                          "id" : 308,
                          "_type" : "ScreenVMFile",
                          "src" : 2,
                          "trackNumber" : 0,
                          "attributes" : {
                            "ident" : "Rec 4-22-2025-8-51-30-PM"
                          },
                          "parameters" : {
                            "geometryCrop0" : {
                              "type" : "double",
                              "defaultValue" : 0.0,
                              "interp" : "eioe"
                            },
                            "geometryCrop1" : {
                              "type" : "double",
                              "defaultValue" : 0.0,
                              "interp" : "eioe"
                            },
                            "geometryCrop2" : {
                              "type" : "double",
                              "defaultValue" : 0.0,
                              "interp" : "eioe"
                            },
                            "geometryCrop3" : {
                              "type" : "double",
                              "defaultValue" : 0.0,
                              "interp" : "eioe"
                            },
                            "cursorScale" : {
                              "type" : "double",
                              "defaultValue" : 0.0,
                              "interp" : "linr"
                            },
                            "cursorOpacity" : {
                              "type" : "double",
                              "defaultValue" : 0.0,
                              "interp" : "linr"
                            },
                            "cursorTrackLevel" : {
                              "type" : "double",
                              "defaultValue" : 0.0,
                              "interp" : "linr"
                            },
                            "smoothCursorAcrossEditDuration" : 0
                          },
                          "effects" : [

                          ],
                          "start" : 449937600000,
                          "duration" : 8961120000,
                          "mediaStart" : 509843040000,
                          "mediaDuration" : 8961120000,
                          "scalar" : 1,
                          "metadata" : {
                            "AutoAppliedSmartFocus" : "False",
                            "audiateLinkedSession" : "",
                            "clipSpeedAttribute" : { "type": "bool", "value" : false},
                            "colorAttribute" : { "type": "color", "value" : [ 0, 0, 0, 0]},
                            "default-height" : { "type": "double", "value" : 1036.8},
                            "default-translation0" : { "type": "double", "value" : 0.0},
                            "default-translation1" : { "type": "double", "value" : -194.4},
                            "default-translation2" : { "type": "double", "value" : 0.0},
                            "default-width" : { "type": "double", "value" : 1932.67572815534}
                          },
                          "animationTracks" : {

                          }
                        },
                        {
                          "id" : 309,
                          "_type" : "ScreenVMFile",
                          "src" : 2,
                          "trackNumber" : 0,
                          "attributes" : {
                            "ident" : "Rec 4-22-2025-8-51-30-PM"
                          },
                          "parameters" : {
                            "geometryCrop0" : {
                              "type" : "double",
                              "defaultValue" : 0.0,
                              "interp" : "eioe"
                            },
                            "geometryCrop1" : {
                              "type" : "double",
                              "defaultValue" : 0.0,
                              "interp" : "eioe"
                            },
                            "geometryCrop2" : {
                              "type" : "double",
                              "defaultValue" : 0.0,
                              "interp" : "eioe"
                            },
                            "geometryCrop3" : {
                              "type" : "double",
                              "defaultValue" : 0.0,
                              "interp" : "eioe"
                            },
                            "cursorScale" : {
                              "type" : "double",
                              "defaultValue" : 0.0,
                              "interp" : "linr"
                            },
                            "cursorOpacity" : {
                              "type" : "double",
                              "defaultValue" : 0.0,
                              "interp" : "linr"
                            },
                            "cursorTrackLevel" : {
                              "type" : "double",
                              "defaultValue" : 0.0,
                              "interp" : "linr"
                            },
                            "smoothCursorAcrossEditDuration" : 0
                          },
                          "effects" : [

                          ],
                          "start" : 458898720000,
                          "duration" : 581226240000,
                          "mediaStart" : 1416350880000,
                          "mediaDuration" : 581226240000,
                          "scalar" : 1,
                          "metadata" : {
                            "AutoAppliedSmartFocus" : "False",
                            "audiateLinkedSession" : "",
                            "clipSpeedAttribute" : { "type": "bool", "value" : false},
                            "colorAttribute" : { "type": "color", "value" : [ 0, 0, 0, 0]},
                            "default-height" : { "type": "double", "value" : 1036.8},
                            "default-translation0" : { "type": "double", "value" : 0.0},
                            "default-translation1" : { "type": "double", "value" : -194.4},
                            "default-translation2" : { "type": "double", "value" : 0.0},
                            "default-width" : { "type": "double", "value" : 1932.67572815534}
                          },
                          "animationTracks" : {

                          }
                        },
                        {
                          "id" : 310,
                          "_type" : "ScreenVMFile",
                          "src" : 2,
                          "trackNumber" : 0,
                          "attributes" : {
                            "ident" : "Rec 4-22-2025-8-51-30-PM"
                          },
                          "parameters" : {
                            "geometryCrop0" : {
                              "type" : "double",
                              "defaultValue" : 0.0,
                              "interp" : "eioe"
                            },
                            "geometryCrop1" : {
                              "type" : "double",
                              "defaultValue" : 0.0,
                              "interp" : "eioe"
                            },
                            "geometryCrop2" : {
                              "type" : "double",
                              "defaultValue" : 0.0,
                              "interp" : "eioe"
                            },
                            "geometryCrop3" : {
                              "type" : "double",
                              "defaultValue" : 0.0,
                              "interp" : "eioe"
                            },
                            "cursorScale" : {
                              "type" : "double",
                              "defaultValue" : 0.0,
                              "interp" : "linr"
                            },
                            "cursorOpacity" : {
                              "type" : "double",
                              "defaultValue" : 0.0,
                              "interp" : "linr"
                            },
                            "cursorTrackLevel" : {
                              "type" : "double",
                              "defaultValue" : 0.0,
                              "interp" : "linr"
                            },
                            "smoothCursorAcrossEditDuration" : 0
                          },
                          "effects" : [

                          ],
                          "start" : 1040124960000,
                          "duration" : 215419680000,
                          "mediaStart" : 2018886240000,
                          "mediaDuration" : 215419680000,
                          "scalar" : 1,
                          "metadata" : {
                            "AutoAppliedSmartFocus" : "False",
                            "audiateLinkedSession" : "",
                            "clipSpeedAttribute" : { "type": "bool", "value" : false},
                            "colorAttribute" : { "type": "color", "value" : [ 0, 0, 0, 0]},
                            "default-height" : { "type": "double", "value" : 1036.8},
                            "default-translation0" : { "type": "double", "value" : 0.0},
                            "default-translation1" : { "type": "double", "value" : -194.4},
                            "default-translation2" : { "type": "double", "value" : 0.0},
                            "default-width" : { "type": "double", "value" : 1932.67572815534}
                          },
                          "animationTracks" : {

                          }
                        },
                        {
                          "id" : 311,
                          "_type" : "ScreenVMFile",
                          "src" : 2,
                          "trackNumber" : 0,
                          "attributes" : {
                            "ident" : "Rec 4-22-2025-8-51-30-PM"
                          },
                          "parameters" : {
                            "geometryCrop0" : {
                              "type" : "double",
                              "defaultValue" : 0.0,
                              "interp" : "eioe"
                            },
                            "geometryCrop1" : {
                              "type" : "double",
                              "defaultValue" : 0.0,
                              "interp" : "eioe"
                            },
                            "geometryCrop2" : {
                              "type" : "double",
                              "defaultValue" : 0.0,
                              "interp" : "eioe"
                            },
                            "geometryCrop3" : {
                              "type" : "double",
                              "defaultValue" : 0.0,
                              "interp" : "eioe"
                            },
                            "cursorScale" : {
                              "type" : "double",
                              "defaultValue" : 0.0,
                              "interp" : "linr"
                            },
                            "cursorOpacity" : {
                              "type" : "double",
                              "defaultValue" : 0.0,
                              "interp" : "linr"
                            },
                            "cursorTrackLevel" : {
                              "type" : "double",
                              "defaultValue" : 0.0,
                              "interp" : "linr"
                            },
                            "smoothCursorAcrossEditDuration" : 0
                          },
                          "effects" : [

                          ],
                          "start" : 1255544640000,
                          "duration" : 786955680000,
                          "mediaStart" : 2257778880000,
                          "mediaDuration" : 786955680000,
                          "scalar" : 1,
                          "metadata" : {
                            "AutoAppliedSmartFocus" : "False",
                            "audiateLinkedSession" : "",
                            "clipSpeedAttribute" : { "type": "bool", "value" : false},
                            "colorAttribute" : { "type": "color", "value" : [ 0, 0, 0, 0]},
                            "default-height" : { "type": "double", "value" : 1036.8},
                            "default-translation0" : { "type": "double", "value" : 0.0},
                            "default-translation1" : { "type": "double", "value" : -194.4},
                            "default-translation2" : { "type": "double", "value" : 0.0},
                            "default-width" : { "type": "double", "value" : 1932.67572815534}
                          },
                          "animationTracks" : {

                          }
                        },
                        {
                          "id" : 312,
                          "_type" : "ScreenVMFile",
                          "src" : 2,
                          "trackNumber" : 0,
                          "attributes" : {
                            "ident" : "Rec 4-22-2025-8-51-30-PM"
                          },
                          "parameters" : {
                            "geometryCrop0" : {
                              "type" : "double",
                              "defaultValue" : 0.0,
                              "interp" : "eioe"
                            },
                            "geometryCrop1" : {
                              "type" : "double",
                              "defaultValue" : 0.0,
                              "interp" : "eioe"
                            },
                            "geometryCrop2" : {
                              "type" : "double",
                              "defaultValue" : 0.0,
                              "interp" : "eioe"
                            },
                            "geometryCrop3" : {
                              "type" : "double",
                              "defaultValue" : 0.0,
                              "interp" : "eioe"
                            },
                            "cursorScale" : {
                              "type" : "double",
                              "defaultValue" : 0.0,
                              "interp" : "linr"
                            },
                            "cursorOpacity" : {
                              "type" : "double",
                              "defaultValue" : 0.0,
                              "interp" : "linr"
                            },
                            "cursorTrackLevel" : {
                              "type" : "double",
                              "defaultValue" : 0.0,
                              "interp" : "linr"
                            },
                            "smoothCursorAcrossEditDuration" : 0
                          },
                          "effects" : [

                          ],
                          "start" : 2042500320000,
                          "duration" : 20768160000,
                          "mediaStart" : 3047580480000,
                          "mediaDuration" : 20768160000,
                          "scalar" : 1,
                          "metadata" : {
                            "AutoAppliedSmartFocus" : "False",
                            "audiateLinkedSession" : "",
                            "clipSpeedAttribute" : { "type": "bool", "value" : false},
                            "colorAttribute" : { "type": "color", "value" : [ 0, 0, 0, 0]},
                            "default-height" : { "type": "double", "value" : 1036.8},
                            "default-translation0" : { "type": "double", "value" : 0.0},
                            "default-translation1" : { "type": "double", "value" : -194.4},
                            "default-translation2" : { "type": "double", "value" : 0.0},
                            "default-width" : { "type": "double", "value" : 1932.67572815534}
                          },
                          "animationTracks" : {

                          }
                        },
                        {
                          "id" : 313,
                          "_type" : "ScreenVMFile",
                          "src" : 2,
                          "trackNumber" : 0,
                          "attributes" : {
                            "ident" : "Rec 4-22-2025-8-51-30-PM"
                          },
                          "parameters" : {
                            "geometryCrop0" : {
                              "type" : "double",
                              "defaultValue" : 0.0,
                              "interp" : "eioe"
                            },
                            "geometryCrop1" : {
                              "type" : "double",
                              "defaultValue" : 0.0,
                              "interp" : "eioe"
                            },
                            "geometryCrop2" : {
                              "type" : "double",
                              "defaultValue" : 0.0,
                              "interp" : "eioe"
                            },
                            "geometryCrop3" : {
                              "type" : "double",
                              "defaultValue" : 0.0,
                              "interp" : "eioe"
                            },
                            "cursorScale" : {
                              "type" : "double",
                              "defaultValue" : 0.0,
                              "interp" : "linr"
                            },
                            "cursorOpacity" : {
                              "type" : "double",
                              "defaultValue" : 0.0,
                              "interp" : "linr"
                            },
                            "cursorTrackLevel" : {
                              "type" : "double",
                              "defaultValue" : 0.0,
                              "interp" : "linr"
                            },
                            "smoothCursorAcrossEditDuration" : 0
                          },
                          "effects" : [

                          ],
                          "start" : 2063268480000,
                          "duration" : 343039200000,
                          "mediaStart" : 3138932160000,
                          "mediaDuration" : 343039200000,
                          "scalar" : 1,
                          "metadata" : {
                            "AutoAppliedSmartFocus" : "False",
                            "audiateLinkedSession" : "",
                            "clipSpeedAttribute" : { "type": "bool", "value" : false},
                            "colorAttribute" : { "type": "color", "value" : [ 0, 0, 0, 0]},
                            "default-height" : { "type": "double", "value" : 1036.8},
                            "default-translation0" : { "type": "double", "value" : 0.0},
                            "default-translation1" : { "type": "double", "value" : -194.4},
                            "default-translation2" : { "type": "double", "value" : 0.0},
                            "default-width" : { "type": "double", "value" : 1932.67572815534}
                          },
                          "animationTracks" : {

                          }
                        }
                    ],
                    "effects" : [
                        {
                          "effectName" : "CursorColor",
                          "bypassed" : false,
                          "category" : "categoryCursorEffects",
                          "parameters" : {
                            "intensity" : 1.0,
                            "desaturation" : 0.0,
                            "colorLumaCutoff" : 1.0,
                            "color-alpha" : 1.0,
                            "color-red" : 1.0,
                            "color-green" : 0.8980392157,
                            "color-blue" : 0.1215686275,
                            "secondColor-red" : 0.0,
                            "secondColor-green" : 0.0,
                            "secondColor-blue" : 0.0,
                            "secondColor-alpha" : 1.0,
                            "secondColorLumaCutoff" : 0.0,
                            "channel" : 0,
                            "shadowRampStart" : 0.0,
                            "shadowRampEnd" : 0.0,
                            "highlightRampStart" : 1.0,
                            "highlightRampEnd" : 1.0
                          }
                        },
                        {
                          "effectName" : "CursorShadow",
                          "bypassed" : false,
                          "category" : "categoryCursorEffects",
                          "parameters" : {
                            "angle" : 3.92699081698724,
                            "enabled" : 1,
                            "offset" : 5.0,
                            "blur" : 2.0,
                            "opacity" : 0.25,
                            "color-red" : 0.0,
                            "color-green" : 0.0,
                            "color-blue" : 0.0,
                            "color-alpha" : 1.0
                          }
                        },
                        {
                          "effectName" : "CursorHilight",
                          "bypassed" : false,
                          "category" : "categoryCursorEffects",
                          "parameters" : {
                            "radius" : 50.0,
                            "color-red" : 1.0,
                            "color-green" : 1.0,
                            "color-blue" : 0.0,
                            "color-alpha" : 0.75,
                            "blur" : 0.1
                          }
                        }
                    ],
                    "start" : 77263200000,
                    "duration" : 611520000,
                    "mediaStart" : "9082483200000/23",
                    "mediaDuration" : "123119360000/69",
                    "scalar" : "12230400/35686771",
                    "metadata" : {
                      "AutoAppliedSmartFocus" : "False",
                      "audiateLinkedSession" : "",
                      "clipSpeedAttribute" : { "type": "bool", "value" : true},
                      "colorAttribute" : { "type": "color", "value" : [ 0, 0, 0, 0]},
                      "default-height" : { "type": "double", "value" : 1036.8},
                      "default-translation0" : { "type": "double", "value" : 0.0},
                      "default-translation1" : { "type": "double", "value" : -194.4},
                      "default-translation2" : { "type": "double", "value" : 0.0},
                      "default-width" : { "type": "double", "value" : 1932.67572815534}
                    },
                    "animationTracks" : {

                    }
                  },
                  {
                    "id" : 314,
                    "_type" : "StitchedMedia",
                    "minMediaStart" : 0,
                    "attributes" : {
                      "ident" : "Rec 4-22-2025-8-51-30-PM",
                      "gain" : 1.0,
                      "mixToMono" : false,
                      "loudnessNormalization" : true,
                      "sourceFileOffset" : 0
                    },
                    "parameters" : {
                      "translation0" : 6.33786407766917,
                      "translation1" : -2.8421709430404e-14,
                      "scale0" : 0.503300970873786,
                      "scale1" : 0.503300970873786,
                      "geometryCrop0" : 0.0,
                      "geometryCrop1" : 0.0,
                      "geometryCrop2" : 0.0,
                      "geometryCrop3" : 0.0,
                      "cursorOpacity" : 1.0,
                      "cursorTrackLevel" : 0.0,
                      "cursorScale" : 5.0,
                      "smoothCursorAcrossEditDuration" : 0
                    },
                    "medias" : [
                        {
                          "id" : 315,
                          "_type" : "ScreenVMFile",
                          "src" : 2,
                          "trackNumber" : 0,
                          "attributes" : {
                            "ident" : "Rec 4-22-2025-8-51-30-PM"
                          },
                          "parameters" : {
                            "geometryCrop0" : {
                              "type" : "double",
                              "defaultValue" : 0.0,
                              "interp" : "eioe"
                            },
                            "geometryCrop1" : {
                              "type" : "double",
                              "defaultValue" : 0.0,
                              "interp" : "eioe"
                            },
                            "geometryCrop2" : {
                              "type" : "double",
                              "defaultValue" : 0.0,
                              "interp" : "eioe"
                            },
                            "geometryCrop3" : {
                              "type" : "double",
                              "defaultValue" : 0.0,
                              "interp" : "eioe"
                            },
                            "cursorScale" : {
                              "type" : "double",
                              "defaultValue" : 0.0,
                              "interp" : "linr"
                            },
                            "cursorOpacity" : {
                              "type" : "double",
                              "defaultValue" : 0.0,
                              "interp" : "linr"
                            },
                            "cursorTrackLevel" : {
                              "type" : "double",
                              "defaultValue" : 0.0,
                              "interp" : "linr"
                            },
                            "smoothCursorAcrossEditDuration" : 0
                          },
                          "effects" : [

                          ],
                          "start" : 0,
                          "duration" : 50991360000,
                          "mediaStart" : 0,
                          "mediaDuration" : 50991360000,
                          "scalar" : 1,
                          "metadata" : {
                            "AutoAppliedSmartFocus" : "False",
                            "audiateLinkedSession" : "",
                            "clipSpeedAttribute" : { "type": "bool", "value" : false},
                            "colorAttribute" : { "type": "color", "value" : [ 0, 0, 0, 0]},
                            "default-height" : { "type": "double", "value" : 1036.8},
                            "default-translation0" : { "type": "double", "value" : 0.0},
                            "default-translation1" : { "type": "double", "value" : -194.4},
                            "default-translation2" : { "type": "double", "value" : 0.0},
                            "default-width" : { "type": "double", "value" : 1932.67572815534}
                          },
                          "animationTracks" : {

                          }
                        },
                        {
                          "id" : 316,
                          "_type" : "ScreenVMFile",
                          "src" : 2,
                          "trackNumber" : 0,
                          "attributes" : {
                            "ident" : "Rec 4-22-2025-8-51-30-PM"
                          },
                          "parameters" : {
                            "geometryCrop0" : {
                              "type" : "double",
                              "defaultValue" : 0.0,
                              "interp" : "eioe"
                            },
                            "geometryCrop1" : {
                              "type" : "double",
                              "defaultValue" : 0.0,
                              "interp" : "eioe"
                            },
                            "geometryCrop2" : {
                              "type" : "double",
                              "defaultValue" : 0.0,
                              "interp" : "eioe"
                            },
                            "geometryCrop3" : {
                              "type" : "double",
                              "defaultValue" : 0.0,
                              "interp" : "eioe"
                            },
                            "cursorScale" : {
                              "type" : "double",
                              "defaultValue" : 0.0,
                              "interp" : "linr"
                            },
                            "cursorOpacity" : {
                              "type" : "double",
                              "defaultValue" : 0.0,
                              "interp" : "linr"
                            },
                            "cursorTrackLevel" : {
                              "type" : "double",
                              "defaultValue" : 0.0,
                              "interp" : "linr"
                            },
                            "smoothCursorAcrossEditDuration" : 0
                          },
                          "effects" : [

                          ],
                          "start" : 50991360000,
                          "duration" : 46663680000,
                          "mediaStart" : 66467520000,
                          "mediaDuration" : 46663680000,
                          "scalar" : 1,
                          "metadata" : {
                            "AutoAppliedSmartFocus" : "False",
                            "audiateLinkedSession" : "",
                            "clipSpeedAttribute" : { "type": "bool", "value" : false},
                            "colorAttribute" : { "type": "color", "value" : [ 0, 0, 0, 0]},
                            "default-height" : { "type": "double", "value" : 1036.8},
                            "default-translation0" : { "type": "double", "value" : 0.0},
                            "default-translation1" : { "type": "double", "value" : -194.4},
                            "default-translation2" : { "type": "double", "value" : 0.0},
                            "default-width" : { "type": "double", "value" : 1932.67572815534}
                          },
                          "animationTracks" : {

                          }
                        },
                        {
                          "id" : 317,
                          "_type" : "ScreenVMFile",
                          "src" : 2,
                          "trackNumber" : 0,
                          "attributes" : {
                            "ident" : "Rec 4-22-2025-8-51-30-PM"
                          },
                          "parameters" : {
                            "geometryCrop0" : {
                              "type" : "double",
                              "defaultValue" : 0.0,
                              "interp" : "eioe"
                            },
                            "geometryCrop1" : {
                              "type" : "double",
                              "defaultValue" : 0.0,
                              "interp" : "eioe"
                            },
                            "geometryCrop2" : {
                              "type" : "double",
                              "defaultValue" : 0.0,
                              "interp" : "eioe"
                            },
                            "geometryCrop3" : {
                              "type" : "double",
                              "defaultValue" : 0.0,
                              "interp" : "eioe"
                            },
                            "cursorScale" : {
                              "type" : "double",
                              "defaultValue" : 0.0,
                              "interp" : "linr"
                            },
                            "cursorOpacity" : {
                              "type" : "double",
                              "defaultValue" : 0.0,
                              "interp" : "linr"
                            },
                            "cursorTrackLevel" : {
                              "type" : "double",
                              "defaultValue" : 0.0,
                              "interp" : "linr"
                            },
                            "smoothCursorAcrossEditDuration" : 0
                          },
                          "effects" : [

                          ],
                          "start" : 97655040000,
                          "duration" : 352282560000,
                          "mediaStart" : 149352000000,
                          "mediaDuration" : 352282560000,
                          "scalar" : 1,
                          "metadata" : {
                            "AutoAppliedSmartFocus" : "False",
                            "audiateLinkedSession" : "",
                            "clipSpeedAttribute" : { "type": "bool", "value" : false},
                            "colorAttribute" : { "type": "color", "value" : [ 0, 0, 0, 0]},
                            "default-height" : { "type": "double", "value" : 1036.8},
                            "default-translation0" : { "type": "double", "value" : 0.0},
                            "default-translation1" : { "type": "double", "value" : -194.4},
                            "default-translation2" : { "type": "double", "value" : 0.0},
                            "default-width" : { "type": "double", "value" : 1932.67572815534}
                          },
                          "animationTracks" : {

                          }
                        },
                        {
                          "id" : 318,
                          "_type" : "ScreenVMFile",
                          "src" : 2,
                          "trackNumber" : 0,
                          "attributes" : {
                            "ident" : "Rec 4-22-2025-8-51-30-PM"
                          },
                          "parameters" : {
                            "geometryCrop0" : {
                              "type" : "double",
                              "defaultValue" : 0.0,
                              "interp" : "eioe"
                            },
                            "geometryCrop1" : {
                              "type" : "double",
                              "defaultValue" : 0.0,
                              "interp" : "eioe"
                            },
                            "geometryCrop2" : {
                              "type" : "double",
                              "defaultValue" : 0.0,
                              "interp" : "eioe"
                            },
                            "geometryCrop3" : {
                              "type" : "double",
                              "defaultValue" : 0.0,
                              "interp" : "eioe"
                            },
                            "cursorScale" : {
                              "type" : "double",
                              "defaultValue" : 0.0,
                              "interp" : "linr"
                            },
                            "cursorOpacity" : {
                              "type" : "double",
                              "defaultValue" : 0.0,
                              "interp" : "linr"
                            },
                            "cursorTrackLevel" : {
                              "type" : "double",
                              "defaultValue" : 0.0,
                              "interp" : "linr"
                            },
                            "smoothCursorAcrossEditDuration" : 0
                          },
                          "effects" : [

                          ],
                          "start" : 449937600000,
                          "duration" : 8961120000,
                          "mediaStart" : 509843040000,
                          "mediaDuration" : 8961120000,
                          "scalar" : 1,
                          "metadata" : {
                            "AutoAppliedSmartFocus" : "False",
                            "audiateLinkedSession" : "",
                            "clipSpeedAttribute" : { "type": "bool", "value" : false},
                            "colorAttribute" : { "type": "color", "value" : [ 0, 0, 0, 0]},
                            "default-height" : { "type": "double", "value" : 1036.8},
                            "default-translation0" : { "type": "double", "value" : 0.0},
                            "default-translation1" : { "type": "double", "value" : -194.4},
                            "default-translation2" : { "type": "double", "value" : 0.0},
                            "default-width" : { "type": "double", "value" : 1932.67572815534}
                          },
                          "animationTracks" : {

                          }
                        },
                        {
                          "id" : 319,
                          "_type" : "ScreenVMFile",
                          "src" : 2,
                          "trackNumber" : 0,
                          "attributes" : {
                            "ident" : "Rec 4-22-2025-8-51-30-PM"
                          },
                          "parameters" : {
                            "geometryCrop0" : {
                              "type" : "double",
                              "defaultValue" : 0.0,
                              "interp" : "eioe"
                            },
                            "geometryCrop1" : {
                              "type" : "double",
                              "defaultValue" : 0.0,
                              "interp" : "eioe"
                            },
                            "geometryCrop2" : {
                              "type" : "double",
                              "defaultValue" : 0.0,
                              "interp" : "eioe"
                            },
                            "geometryCrop3" : {
                              "type" : "double",
                              "defaultValue" : 0.0,
                              "interp" : "eioe"
                            },
                            "cursorScale" : {
                              "type" : "double",
                              "defaultValue" : 0.0,
                              "interp" : "linr"
                            },
                            "cursorOpacity" : {
                              "type" : "double",
                              "defaultValue" : 0.0,
                              "interp" : "linr"
                            },
                            "cursorTrackLevel" : {
                              "type" : "double",
                              "defaultValue" : 0.0,
                              "interp" : "linr"
                            },
                            "smoothCursorAcrossEditDuration" : 0
                          },
                          "effects" : [

                          ],
                          "start" : 458898720000,
                          "duration" : 581226240000,
                          "mediaStart" : 1416350880000,
                          "mediaDuration" : 581226240000,
                          "scalar" : 1,
                          "metadata" : {
                            "AutoAppliedSmartFocus" : "False",
                            "audiateLinkedSession" : "",
                            "clipSpeedAttribute" : { "type": "bool", "value" : false},
                            "colorAttribute" : { "type": "color", "value" : [ 0, 0, 0, 0]},
                            "default-height" : { "type": "double", "value" : 1036.8},
                            "default-translation0" : { "type": "double", "value" : 0.0},
                            "default-translation1" : { "type": "double", "value" : -194.4},
                            "default-translation2" : { "type": "double", "value" : 0.0},
                            "default-width" : { "type": "double", "value" : 1932.67572815534}
                          },
                          "animationTracks" : {

                          }
                        },
                        {
                          "id" : 320,
                          "_type" : "ScreenVMFile",
                          "src" : 2,
                          "trackNumber" : 0,
                          "attributes" : {
                            "ident" : "Rec 4-22-2025-8-51-30-PM"
                          },
                          "parameters" : {
                            "geometryCrop0" : {
                              "type" : "double",
                              "defaultValue" : 0.0,
                              "interp" : "eioe"
                            },
                            "geometryCrop1" : {
                              "type" : "double",
                              "defaultValue" : 0.0,
                              "interp" : "eioe"
                            },
                            "geometryCrop2" : {
                              "type" : "double",
                              "defaultValue" : 0.0,
                              "interp" : "eioe"
                            },
                            "geometryCrop3" : {
                              "type" : "double",
                              "defaultValue" : 0.0,
                              "interp" : "eioe"
                            },
                            "cursorScale" : {
                              "type" : "double",
                              "defaultValue" : 0.0,
                              "interp" : "linr"
                            },
                            "cursorOpacity" : {
                              "type" : "double",
                              "defaultValue" : 0.0,
                              "interp" : "linr"
                            },
                            "cursorTrackLevel" : {
                              "type" : "double",
                              "defaultValue" : 0.0,
                              "interp" : "linr"
                            },
                            "smoothCursorAcrossEditDuration" : 0
                          },
                          "effects" : [

                          ],
                          "start" : 1040124960000,
                          "duration" : 215419680000,
                          "mediaStart" : 2018886240000,
                          "mediaDuration" : 215419680000,
                          "scalar" : 1,
                          "metadata" : {
                            "AutoAppliedSmartFocus" : "False",
                            "audiateLinkedSession" : "",
                            "clipSpeedAttribute" : { "type": "bool", "value" : false},
                            "colorAttribute" : { "type": "color", "value" : [ 0, 0, 0, 0]},
                            "default-height" : { "type": "double", "value" : 1036.8},
                            "default-translation0" : { "type": "double", "value" : 0.0},
                            "default-translation1" : { "type": "double", "value" : -194.4},
                            "default-translation2" : { "type": "double", "value" : 0.0},
                            "default-width" : { "type": "double", "value" : 1932.67572815534}
                          },
                          "animationTracks" : {

                          }
                        },
                        {
                          "id" : 321,
                          "_type" : "ScreenVMFile",
                          "src" : 2,
                          "trackNumber" : 0,
                          "attributes" : {
                            "ident" : "Rec 4-22-2025-8-51-30-PM"
                          },
                          "parameters" : {
                            "geometryCrop0" : {
                              "type" : "double",
                              "defaultValue" : 0.0,
                              "interp" : "eioe"
                            },
                            "geometryCrop1" : {
                              "type" : "double",
                              "defaultValue" : 0.0,
                              "interp" : "eioe"
                            },
                            "geometryCrop2" : {
                              "type" : "double",
                              "defaultValue" : 0.0,
                              "interp" : "eioe"
                            },
                            "geometryCrop3" : {
                              "type" : "double",
                              "defaultValue" : 0.0,
                              "interp" : "eioe"
                            },
                            "cursorScale" : {
                              "type" : "double",
                              "defaultValue" : 0.0,
                              "interp" : "linr"
                            },
                            "cursorOpacity" : {
                              "type" : "double",
                              "defaultValue" : 0.0,
                              "interp" : "linr"
                            },
                            "cursorTrackLevel" : {
                              "type" : "double",
                              "defaultValue" : 0.0,
                              "interp" : "linr"
                            },
                            "smoothCursorAcrossEditDuration" : 0
                          },
                          "effects" : [

                          ],
                          "start" : 1255544640000,
                          "duration" : 786955680000,
                          "mediaStart" : 2257778880000,
                          "mediaDuration" : 786955680000,
                          "scalar" : 1,
                          "metadata" : {
                            "AutoAppliedSmartFocus" : "False",
                            "audiateLinkedSession" : "",
                            "clipSpeedAttribute" : { "type": "bool", "value" : false},
                            "colorAttribute" : { "type": "color", "value" : [ 0, 0, 0, 0]},
                            "default-height" : { "type": "double", "value" : 1036.8},
                            "default-translation0" : { "type": "double", "value" : 0.0},
                            "default-translation1" : { "type": "double", "value" : -194.4},
                            "default-translation2" : { "type": "double", "value" : 0.0},
                            "default-width" : { "type": "double", "value" : 1932.67572815534}
                          },
                          "animationTracks" : {

                          }
                        },
                        {
                          "id" : 322,
                          "_type" : "ScreenVMFile",
                          "src" : 2,
                          "trackNumber" : 0,
                          "attributes" : {
                            "ident" : "Rec 4-22-2025-8-51-30-PM"
                          },
                          "parameters" : {
                            "geometryCrop0" : {
                              "type" : "double",
                              "defaultValue" : 0.0,
                              "interp" : "eioe"
                            },
                            "geometryCrop1" : {
                              "type" : "double",
                              "defaultValue" : 0.0,
                              "interp" : "eioe"
                            },
                            "geometryCrop2" : {
                              "type" : "double",
                              "defaultValue" : 0.0,
                              "interp" : "eioe"
                            },
                            "geometryCrop3" : {
                              "type" : "double",
                              "defaultValue" : 0.0,
                              "interp" : "eioe"
                            },
                            "cursorScale" : {
                              "type" : "double",
                              "defaultValue" : 0.0,
                              "interp" : "linr"
                            },
                            "cursorOpacity" : {
                              "type" : "double",
                              "defaultValue" : 0.0,
                              "interp" : "linr"
                            },
                            "cursorTrackLevel" : {
                              "type" : "double",
                              "defaultValue" : 0.0,
                              "interp" : "linr"
                            },
                            "smoothCursorAcrossEditDuration" : 0
                          },
                          "effects" : [

                          ],
                          "start" : 2042500320000,
                          "duration" : 20768160000,
                          "mediaStart" : 3047580480000,
                          "mediaDuration" : 20768160000,
                          "scalar" : 1,
                          "metadata" : {
                            "AutoAppliedSmartFocus" : "False",
                            "audiateLinkedSession" : "",
                            "clipSpeedAttribute" : { "type": "bool", "value" : false},
                            "colorAttribute" : { "type": "color", "value" : [ 0, 0, 0, 0]},
                            "default-height" : { "type": "double", "value" : 1036.8},
                            "default-translation0" : { "type": "double", "value" : 0.0},
                            "default-translation1" : { "type": "double", "value" : -194.4},
                            "default-translation2" : { "type": "double", "value" : 0.0},
                            "default-width" : { "type": "double", "value" : 1932.67572815534}
                          },
                          "animationTracks" : {

                          }
                        },
                        {
                          "id" : 323,
                          "_type" : "ScreenVMFile",
                          "src" : 2,
                          "trackNumber" : 0,
                          "attributes" : {
                            "ident" : "Rec 4-22-2025-8-51-30-PM"
                          },
                          "parameters" : {
                            "geometryCrop0" : {
                              "type" : "double",
                              "defaultValue" : 0.0,
                              "interp" : "eioe"
                            },
                            "geometryCrop1" : {
                              "type" : "double",
                              "defaultValue" : 0.0,
                              "interp" : "eioe"
                            },
                            "geometryCrop2" : {
                              "type" : "double",
                              "defaultValue" : 0.0,
                              "interp" : "eioe"
                            },
                            "geometryCrop3" : {
                              "type" : "double",
                              "defaultValue" : 0.0,
                              "interp" : "eioe"
                            },
                            "cursorScale" : {
                              "type" : "double",
                              "defaultValue" : 0.0,
                              "interp" : "linr"
                            },
                            "cursorOpacity" : {
                              "type" : "double",
                              "defaultValue" : 0.0,
                              "interp" : "linr"
                            },
                            "cursorTrackLevel" : {
                              "type" : "double",
                              "defaultValue" : 0.0,
                              "interp" : "linr"
                            },
                            "smoothCursorAcrossEditDuration" : 0
                          },
                          "effects" : [

                          ],
                          "start" : 2063268480000,
                          "duration" : 343039200000,
                          "mediaStart" : 3138932160000,
                          "mediaDuration" : 343039200000,
                          "scalar" : 1,
                          "metadata" : {
                            "AutoAppliedSmartFocus" : "False",
                            "audiateLinkedSession" : "",
                            "clipSpeedAttribute" : { "type": "bool", "value" : false},
                            "colorAttribute" : { "type": "color", "value" : [ 0, 0, 0, 0]},
                            "default-height" : { "type": "double", "value" : 1036.8},
                            "default-translation0" : { "type": "double", "value" : 0.0},
                            "default-translation1" : { "type": "double", "value" : -194.4},
                            "default-translation2" : { "type": "double", "value" : 0.0},
                            "default-width" : { "type": "double", "value" : 1932.67572815534}
                          },
                          "animationTracks" : {

                          }
                        }
                    ],
                    "effects" : [
                        {
                          "effectName" : "CursorColor",
                          "bypassed" : false,
                          "category" : "categoryCursorEffects",
                          "parameters" : {
                            "intensity" : 1.0,
                            "desaturation" : 0.0,
                            "colorLumaCutoff" : 1.0,
                            "color-alpha" : 1.0,
                            "color-red" : 1.0,
                            "color-green" : 0.8980392157,
                            "color-blue" : 0.1215686275,
                            "secondColor-red" : 0.0,
                            "secondColor-green" : 0.0,
                            "secondColor-blue" : 0.0,
                            "secondColor-alpha" : 1.0,
                            "secondColorLumaCutoff" : 0.0,
                            "channel" : 0,
                            "shadowRampStart" : 0.0,
                            "shadowRampEnd" : 0.0,
                            "highlightRampStart" : 1.0,
                            "highlightRampEnd" : 1.0
                          }
                        },
                        {
                          "effectName" : "CursorShadow",
                          "bypassed" : false,
                          "category" : "categoryCursorEffects",
                          "parameters" : {
                            "angle" : 3.92699081698724,
                            "enabled" : 1,
                            "offset" : 5.0,
                            "blur" : 2.0,
                            "opacity" : 0.25,
                            "color-red" : 0.0,
                            "color-green" : 0.0,
                            "color-blue" : 0.0,
                            "color-alpha" : 1.0
                          }
                        },
                        {
                          "effectName" : "CursorHilight",
                          "bypassed" : false,
                          "category" : "categoryCursorEffects",
                          "parameters" : {
                            "radius" : 50.0,
                            "color-red" : 1.0,
                            "color-green" : 1.0,
                            "color-blue" : 0.0,
                            "color-alpha" : 0.75,
                            "blur" : 0.1
                          }
                        }
                    ],
                    "start" : 77874720000,
                    "duration" : 5550720000,
                    "mediaStart" : "9766957536000/19",
                    "mediaDuration" : "273095424000/19",
                    "scalar" : "693840000/1796680421",
                    "metadata" : {
                      "AutoAppliedSmartFocus" : "False",
                      "audiateLinkedSession" : "",
                      "clipSpeedAttribute" : { "type": "bool", "value" : true},
                      "colorAttribute" : { "type": "color", "value" : [ 0, 0, 0, 0]},
                      "default-height" : { "type": "double", "value" : 1036.8},
                      "default-translation0" : { "type": "double", "value" : 0.0},
                      "default-translation1" : { "type": "double", "value" : -194.4},
                      "default-translation2" : { "type": "double", "value" : 0.0},
                      "default-width" : { "type": "double", "value" : 1932.67572815534}
                    },
                    "animationTracks" : {

                    }
                  },
                  {
                    "id" : 324,
                    "_type" : "StitchedMedia",
                    "minMediaStart" : 0,
                    "attributes" : {
                      "ident" : "Rec 4-22-2025-8-51-30-PM",
                      "gain" : 1.0,
                      "mixToMono" : false,
                      "loudnessNormalization" : true,
                      "sourceFileOffset" : 0
                    },
                    "parameters" : {
                      "translation0" : 6.33786407766917,
                      "translation1" : -2.8421709430404e-14,
                      "scale0" : 0.503300970873786,
                      "scale1" : 0.503300970873786,
                      "geometryCrop0" : 0.0,
                      "geometryCrop1" : 0.0,
                      "geometryCrop2" : 0.0,
                      "geometryCrop3" : 0.0,
                      "toc" : {
                        "type" : "string",
                        "keyframes" : [
                          {
                            "endTime" : 528423840000,
                            "time" : 528423840000,
                            "value" : "unit test pass",
                            "duration" : 0,
                            "metadata" : {
                              "markerIdentifier" : "C5CCFEC5-4AE2-432B-AA54-91629D0D81AF"
                            }
                          }
                        ]
                      },
                      "cursorOpacity" : 1.0,
                      "cursorTrackLevel" : 0.0,
                      "cursorScale" : 5.0,
                      "smoothCursorAcrossEditDuration" : 0
                    },
                    "medias" : [
                        {
                          "id" : 325,
                          "_type" : "ScreenVMFile",
                          "src" : 2,
                          "trackNumber" : 0,
                          "attributes" : {
                            "ident" : "Rec 4-22-2025-8-51-30-PM"
                          },
                          "parameters" : {
                            "geometryCrop0" : {
                              "type" : "double",
                              "defaultValue" : 0.0,
                              "interp" : "eioe"
                            },
                            "geometryCrop1" : {
                              "type" : "double",
                              "defaultValue" : 0.0,
                              "interp" : "eioe"
                            },
                            "geometryCrop2" : {
                              "type" : "double",
                              "defaultValue" : 0.0,
                              "interp" : "eioe"
                            },
                            "geometryCrop3" : {
                              "type" : "double",
                              "defaultValue" : 0.0,
                              "interp" : "eioe"
                            },
                            "cursorScale" : {
                              "type" : "double",
                              "defaultValue" : 0.0,
                              "interp" : "linr"
                            },
                            "cursorOpacity" : {
                              "type" : "double",
                              "defaultValue" : 0.0,
                              "interp" : "linr"
                            },
                            "cursorTrackLevel" : {
                              "type" : "double",
                              "defaultValue" : 0.0,
                              "interp" : "linr"
                            },
                            "smoothCursorAcrossEditDuration" : 0
                          },
                          "effects" : [

                          ],
                          "start" : 0,
                          "duration" : 50991360000,
                          "mediaStart" : 0,
                          "mediaDuration" : 50991360000,
                          "scalar" : 1,
                          "metadata" : {
                            "AutoAppliedSmartFocus" : "False",
                            "audiateLinkedSession" : "",
                            "clipSpeedAttribute" : { "type": "bool", "value" : false},
                            "colorAttribute" : { "type": "color", "value" : [ 0, 0, 0, 0]},
                            "default-height" : { "type": "double", "value" : 1036.8},
                            "default-translation0" : { "type": "double", "value" : 0.0},
                            "default-translation1" : { "type": "double", "value" : -194.4},
                            "default-translation2" : { "type": "double", "value" : 0.0},
                            "default-width" : { "type": "double", "value" : 1932.67572815534}
                          },
                          "animationTracks" : {

                          }
                        },
                        {
                          "id" : 326,
                          "_type" : "ScreenVMFile",
                          "src" : 2,
                          "trackNumber" : 0,
                          "attributes" : {
                            "ident" : "Rec 4-22-2025-8-51-30-PM"
                          },
                          "parameters" : {
                            "geometryCrop0" : {
                              "type" : "double",
                              "defaultValue" : 0.0,
                              "interp" : "eioe"
                            },
                            "geometryCrop1" : {
                              "type" : "double",
                              "defaultValue" : 0.0,
                              "interp" : "eioe"
                            },
                            "geometryCrop2" : {
                              "type" : "double",
                              "defaultValue" : 0.0,
                              "interp" : "eioe"
                            },
                            "geometryCrop3" : {
                              "type" : "double",
                              "defaultValue" : 0.0,
                              "interp" : "eioe"
                            },
                            "cursorScale" : {
                              "type" : "double",
                              "defaultValue" : 0.0,
                              "interp" : "linr"
                            },
                            "cursorOpacity" : {
                              "type" : "double",
                              "defaultValue" : 0.0,
                              "interp" : "linr"
                            },
                            "cursorTrackLevel" : {
                              "type" : "double",
                              "defaultValue" : 0.0,
                              "interp" : "linr"
                            },
                            "smoothCursorAcrossEditDuration" : 0
                          },
                          "effects" : [

                          ],
                          "start" : 50991360000,
                          "duration" : 46663680000,
                          "mediaStart" : 66467520000,
                          "mediaDuration" : 46663680000,
                          "scalar" : 1,
                          "metadata" : {
                            "AutoAppliedSmartFocus" : "False",
                            "audiateLinkedSession" : "",
                            "clipSpeedAttribute" : { "type": "bool", "value" : false},
                            "colorAttribute" : { "type": "color", "value" : [ 0, 0, 0, 0]},
                            "default-height" : { "type": "double", "value" : 1036.8},
                            "default-translation0" : { "type": "double", "value" : 0.0},
                            "default-translation1" : { "type": "double", "value" : -194.4},
                            "default-translation2" : { "type": "double", "value" : 0.0},
                            "default-width" : { "type": "double", "value" : 1932.67572815534}
                          },
                          "animationTracks" : {

                          }
                        },
                        {
                          "id" : 327,
                          "_type" : "ScreenVMFile",
                          "src" : 2,
                          "trackNumber" : 0,
                          "attributes" : {
                            "ident" : "Rec 4-22-2025-8-51-30-PM"
                          },
                          "parameters" : {
                            "geometryCrop0" : {
                              "type" : "double",
                              "defaultValue" : 0.0,
                              "interp" : "eioe"
                            },
                            "geometryCrop1" : {
                              "type" : "double",
                              "defaultValue" : 0.0,
                              "interp" : "eioe"
                            },
                            "geometryCrop2" : {
                              "type" : "double",
                              "defaultValue" : 0.0,
                              "interp" : "eioe"
                            },
                            "geometryCrop3" : {
                              "type" : "double",
                              "defaultValue" : 0.0,
                              "interp" : "eioe"
                            },
                            "cursorScale" : {
                              "type" : "double",
                              "defaultValue" : 0.0,
                              "interp" : "linr"
                            },
                            "cursorOpacity" : {
                              "type" : "double",
                              "defaultValue" : 0.0,
                              "interp" : "linr"
                            },
                            "cursorTrackLevel" : {
                              "type" : "double",
                              "defaultValue" : 0.0,
                              "interp" : "linr"
                            },
                            "smoothCursorAcrossEditDuration" : 0
                          },
                          "effects" : [

                          ],
                          "start" : 97655040000,
                          "duration" : 352282560000,
                          "mediaStart" : 149352000000,
                          "mediaDuration" : 352282560000,
                          "scalar" : 1,
                          "metadata" : {
                            "AutoAppliedSmartFocus" : "False",
                            "audiateLinkedSession" : "",
                            "clipSpeedAttribute" : { "type": "bool", "value" : false},
                            "colorAttribute" : { "type": "color", "value" : [ 0, 0, 0, 0]},
                            "default-height" : { "type": "double", "value" : 1036.8},
                            "default-translation0" : { "type": "double", "value" : 0.0},
                            "default-translation1" : { "type": "double", "value" : -194.4},
                            "default-translation2" : { "type": "double", "value" : 0.0},
                            "default-width" : { "type": "double", "value" : 1932.67572815534}
                          },
                          "animationTracks" : {

                          }
                        },
                        {
                          "id" : 328,
                          "_type" : "ScreenVMFile",
                          "src" : 2,
                          "trackNumber" : 0,
                          "attributes" : {
                            "ident" : "Rec 4-22-2025-8-51-30-PM"
                          },
                          "parameters" : {
                            "geometryCrop0" : {
                              "type" : "double",
                              "defaultValue" : 0.0,
                              "interp" : "eioe"
                            },
                            "geometryCrop1" : {
                              "type" : "double",
                              "defaultValue" : 0.0,
                              "interp" : "eioe"
                            },
                            "geometryCrop2" : {
                              "type" : "double",
                              "defaultValue" : 0.0,
                              "interp" : "eioe"
                            },
                            "geometryCrop3" : {
                              "type" : "double",
                              "defaultValue" : 0.0,
                              "interp" : "eioe"
                            },
                            "cursorScale" : {
                              "type" : "double",
                              "defaultValue" : 0.0,
                              "interp" : "linr"
                            },
                            "cursorOpacity" : {
                              "type" : "double",
                              "defaultValue" : 0.0,
                              "interp" : "linr"
                            },
                            "cursorTrackLevel" : {
                              "type" : "double",
                              "defaultValue" : 0.0,
                              "interp" : "linr"
                            },
                            "smoothCursorAcrossEditDuration" : 0
                          },
                          "effects" : [

                          ],
                          "start" : 449937600000,
                          "duration" : 8961120000,
                          "mediaStart" : 509843040000,
                          "mediaDuration" : 8961120000,
                          "scalar" : 1,
                          "metadata" : {
                            "AutoAppliedSmartFocus" : "False",
                            "audiateLinkedSession" : "",
                            "clipSpeedAttribute" : { "type": "bool", "value" : false},
                            "colorAttribute" : { "type": "color", "value" : [ 0, 0, 0, 0]},
                            "default-height" : { "type": "double", "value" : 1036.8},
                            "default-translation0" : { "type": "double", "value" : 0.0},
                            "default-translation1" : { "type": "double", "value" : -194.4},
                            "default-translation2" : { "type": "double", "value" : 0.0},
                            "default-width" : { "type": "double", "value" : 1932.67572815534}
                          },
                          "animationTracks" : {

                          }
                        },
                        {
                          "id" : 329,
                          "_type" : "ScreenVMFile",
                          "src" : 2,
                          "trackNumber" : 0,
                          "attributes" : {
                            "ident" : "Rec 4-22-2025-8-51-30-PM"
                          },
                          "parameters" : {
                            "geometryCrop0" : {
                              "type" : "double",
                              "defaultValue" : 0.0,
                              "interp" : "eioe"
                            },
                            "geometryCrop1" : {
                              "type" : "double",
                              "defaultValue" : 0.0,
                              "interp" : "eioe"
                            },
                            "geometryCrop2" : {
                              "type" : "double",
                              "defaultValue" : 0.0,
                              "interp" : "eioe"
                            },
                            "geometryCrop3" : {
                              "type" : "double",
                              "defaultValue" : 0.0,
                              "interp" : "eioe"
                            },
                            "cursorScale" : {
                              "type" : "double",
                              "defaultValue" : 0.0,
                              "interp" : "linr"
                            },
                            "cursorOpacity" : {
                              "type" : "double",
                              "defaultValue" : 0.0,
                              "interp" : "linr"
                            },
                            "cursorTrackLevel" : {
                              "type" : "double",
                              "defaultValue" : 0.0,
                              "interp" : "linr"
                            },
                            "smoothCursorAcrossEditDuration" : 0
                          },
                          "effects" : [

                          ],
                          "start" : 458898720000,
                          "duration" : 581226240000,
                          "mediaStart" : 1416350880000,
                          "mediaDuration" : 581226240000,
                          "scalar" : 1,
                          "metadata" : {
                            "AutoAppliedSmartFocus" : "False",
                            "audiateLinkedSession" : "",
                            "clipSpeedAttribute" : { "type": "bool", "value" : false},
                            "colorAttribute" : { "type": "color", "value" : [ 0, 0, 0, 0]},
                            "default-height" : { "type": "double", "value" : 1036.8},
                            "default-translation0" : { "type": "double", "value" : 0.0},
                            "default-translation1" : { "type": "double", "value" : -194.4},
                            "default-translation2" : { "type": "double", "value" : 0.0},
                            "default-width" : { "type": "double", "value" : 1932.67572815534}
                          },
                          "animationTracks" : {

                          }
                        },
                        {
                          "id" : 330,
                          "_type" : "ScreenVMFile",
                          "src" : 2,
                          "trackNumber" : 0,
                          "attributes" : {
                            "ident" : "Rec 4-22-2025-8-51-30-PM"
                          },
                          "parameters" : {
                            "geometryCrop0" : {
                              "type" : "double",
                              "defaultValue" : 0.0,
                              "interp" : "eioe"
                            },
                            "geometryCrop1" : {
                              "type" : "double",
                              "defaultValue" : 0.0,
                              "interp" : "eioe"
                            },
                            "geometryCrop2" : {
                              "type" : "double",
                              "defaultValue" : 0.0,
                              "interp" : "eioe"
                            },
                            "geometryCrop3" : {
                              "type" : "double",
                              "defaultValue" : 0.0,
                              "interp" : "eioe"
                            },
                            "cursorScale" : {
                              "type" : "double",
                              "defaultValue" : 0.0,
                              "interp" : "linr"
                            },
                            "cursorOpacity" : {
                              "type" : "double",
                              "defaultValue" : 0.0,
                              "interp" : "linr"
                            },
                            "cursorTrackLevel" : {
                              "type" : "double",
                              "defaultValue" : 0.0,
                              "interp" : "linr"
                            },
                            "smoothCursorAcrossEditDuration" : 0
                          },
                          "effects" : [

                          ],
                          "start" : 1040124960000,
                          "duration" : 215419680000,
                          "mediaStart" : 2018886240000,
                          "mediaDuration" : 215419680000,
                          "scalar" : 1,
                          "metadata" : {
                            "AutoAppliedSmartFocus" : "False",
                            "audiateLinkedSession" : "",
                            "clipSpeedAttribute" : { "type": "bool", "value" : false},
                            "colorAttribute" : { "type": "color", "value" : [ 0, 0, 0, 0]},
                            "default-height" : { "type": "double", "value" : 1036.8},
                            "default-translation0" : { "type": "double", "value" : 0.0},
                            "default-translation1" : { "type": "double", "value" : -194.4},
                            "default-translation2" : { "type": "double", "value" : 0.0},
                            "default-width" : { "type": "double", "value" : 1932.67572815534}
                          },
                          "animationTracks" : {

                          }
                        },
                        {
                          "id" : 331,
                          "_type" : "ScreenVMFile",
                          "src" : 2,
                          "trackNumber" : 0,
                          "attributes" : {
                            "ident" : "Rec 4-22-2025-8-51-30-PM"
                          },
                          "parameters" : {
                            "geometryCrop0" : {
                              "type" : "double",
                              "defaultValue" : 0.0,
                              "interp" : "eioe"
                            },
                            "geometryCrop1" : {
                              "type" : "double",
                              "defaultValue" : 0.0,
                              "interp" : "eioe"
                            },
                            "geometryCrop2" : {
                              "type" : "double",
                              "defaultValue" : 0.0,
                              "interp" : "eioe"
                            },
                            "geometryCrop3" : {
                              "type" : "double",
                              "defaultValue" : 0.0,
                              "interp" : "eioe"
                            },
                            "cursorScale" : {
                              "type" : "double",
                              "defaultValue" : 0.0,
                              "interp" : "linr"
                            },
                            "cursorOpacity" : {
                              "type" : "double",
                              "defaultValue" : 0.0,
                              "interp" : "linr"
                            },
                            "cursorTrackLevel" : {
                              "type" : "double",
                              "defaultValue" : 0.0,
                              "interp" : "linr"
                            },
                            "smoothCursorAcrossEditDuration" : 0
                          },
                          "effects" : [

                          ],
                          "start" : 1255544640000,
                          "duration" : 786955680000,
                          "mediaStart" : 2257778880000,
                          "mediaDuration" : 786955680000,
                          "scalar" : 1,
                          "metadata" : {
                            "AutoAppliedSmartFocus" : "False",
                            "audiateLinkedSession" : "",
                            "clipSpeedAttribute" : { "type": "bool", "value" : false},
                            "colorAttribute" : { "type": "color", "value" : [ 0, 0, 0, 0]},
                            "default-height" : { "type": "double", "value" : 1036.8},
                            "default-translation0" : { "type": "double", "value" : 0.0},
                            "default-translation1" : { "type": "double", "value" : -194.4},
                            "default-translation2" : { "type": "double", "value" : 0.0},
                            "default-width" : { "type": "double", "value" : 1932.67572815534}
                          },
                          "animationTracks" : {

                          }
                        },
                        {
                          "id" : 332,
                          "_type" : "ScreenVMFile",
                          "src" : 2,
                          "trackNumber" : 0,
                          "attributes" : {
                            "ident" : "Rec 4-22-2025-8-51-30-PM"
                          },
                          "parameters" : {
                            "geometryCrop0" : {
                              "type" : "double",
                              "defaultValue" : 0.0,
                              "interp" : "eioe"
                            },
                            "geometryCrop1" : {
                              "type" : "double",
                              "defaultValue" : 0.0,
                              "interp" : "eioe"
                            },
                            "geometryCrop2" : {
                              "type" : "double",
                              "defaultValue" : 0.0,
                              "interp" : "eioe"
                            },
                            "geometryCrop3" : {
                              "type" : "double",
                              "defaultValue" : 0.0,
                              "interp" : "eioe"
                            },
                            "cursorScale" : {
                              "type" : "double",
                              "defaultValue" : 0.0,
                              "interp" : "linr"
                            },
                            "cursorOpacity" : {
                              "type" : "double",
                              "defaultValue" : 0.0,
                              "interp" : "linr"
                            },
                            "cursorTrackLevel" : {
                              "type" : "double",
                              "defaultValue" : 0.0,
                              "interp" : "linr"
                            },
                            "smoothCursorAcrossEditDuration" : 0
                          },
                          "effects" : [

                          ],
                          "start" : 2042500320000,
                          "duration" : 20768160000,
                          "mediaStart" : 3047580480000,
                          "mediaDuration" : 20768160000,
                          "scalar" : 1,
                          "metadata" : {
                            "AutoAppliedSmartFocus" : "False",
                            "audiateLinkedSession" : "",
                            "clipSpeedAttribute" : { "type": "bool", "value" : false},
                            "colorAttribute" : { "type": "color", "value" : [ 0, 0, 0, 0]},
                            "default-height" : { "type": "double", "value" : 1036.8},
                            "default-translation0" : { "type": "double", "value" : 0.0},
                            "default-translation1" : { "type": "double", "value" : -194.4},
                            "default-translation2" : { "type": "double", "value" : 0.0},
                            "default-width" : { "type": "double", "value" : 1932.67572815534}
                          },
                          "animationTracks" : {

                          }
                        },
                        {
                          "id" : 333,
                          "_type" : "ScreenVMFile",
                          "src" : 2,
                          "trackNumber" : 0,
                          "attributes" : {
                            "ident" : "Rec 4-22-2025-8-51-30-PM"
                          },
                          "parameters" : {
                            "geometryCrop0" : {
                              "type" : "double",
                              "defaultValue" : 0.0,
                              "interp" : "eioe"
                            },
                            "geometryCrop1" : {
                              "type" : "double",
                              "defaultValue" : 0.0,
                              "interp" : "eioe"
                            },
                            "geometryCrop2" : {
                              "type" : "double",
                              "defaultValue" : 0.0,
                              "interp" : "eioe"
                            },
                            "geometryCrop3" : {
                              "type" : "double",
                              "defaultValue" : 0.0,
                              "interp" : "eioe"
                            },
                            "cursorScale" : {
                              "type" : "double",
                              "defaultValue" : 0.0,
                              "interp" : "linr"
                            },
                            "cursorOpacity" : {
                              "type" : "double",
                              "defaultValue" : 0.0,
                              "interp" : "linr"
                            },
                            "cursorTrackLevel" : {
                              "type" : "double",
                              "defaultValue" : 0.0,
                              "interp" : "linr"
                            },
                            "smoothCursorAcrossEditDuration" : 0
                          },
                          "effects" : [

                          ],
                          "start" : 2063268480000,
                          "duration" : 343039200000,
                          "mediaStart" : 3138932160000,
                          "mediaDuration" : 343039200000,
                          "scalar" : 1,
                          "metadata" : {
                            "AutoAppliedSmartFocus" : "False",
                            "audiateLinkedSession" : "",
                            "clipSpeedAttribute" : { "type": "bool", "value" : false},
                            "colorAttribute" : { "type": "color", "value" : [ 0, 0, 0, 0]},
                            "default-height" : { "type": "double", "value" : 1036.8},
                            "default-translation0" : { "type": "double", "value" : 0.0},
                            "default-translation1" : { "type": "double", "value" : -194.4},
                            "default-translation2" : { "type": "double", "value" : 0.0},
                            "default-width" : { "type": "double", "value" : 1932.67572815534}
                          },
                          "animationTracks" : {

                          }
                        }
                    ],
                    "effects" : [
                        {
                          "effectName" : "CursorColor",
                          "bypassed" : false,
                          "category" : "categoryCursorEffects",
                          "parameters" : {
                            "intensity" : 1.0,
                            "desaturation" : 0.0,
                            "colorLumaCutoff" : 1.0,
                            "color-alpha" : 1.0,
                            "color-red" : 1.0,
                            "color-green" : 0.8980392157,
                            "color-blue" : 0.1215686275,
                            "secondColor-red" : 0.0,
                            "secondColor-green" : 0.0,
                            "secondColor-blue" : 0.0,
                            "secondColor-alpha" : 1.0,
                            "secondColorLumaCutoff" : 0.0,
                            "channel" : 0,
                            "shadowRampStart" : 0.0,
                            "shadowRampEnd" : 0.0,
                            "highlightRampStart" : 1.0,
                            "highlightRampEnd" : 1.0
                          }
                        },
                        {
                          "effectName" : "CursorShadow",
                          "bypassed" : false,
                          "category" : "categoryCursorEffects",
                          "parameters" : {
                            "angle" : 3.92699081698724,
                            "enabled" : 1,
                            "offset" : 5.0,
                            "blur" : 2.0,
                            "opacity" : 0.25,
                            "color-red" : 0.0,
                            "color-green" : 0.0,
                            "color-blue" : 0.0,
                            "color-alpha" : 1.0
                          }
                        },
                        {
                          "effectName" : "CursorHilight",
                          "bypassed" : false,
                          "category" : "categoryCursorEffects",
                          "parameters" : {
                            "radius" : 50.0,
                            "color-red" : 1.0,
                            "color-green" : 1.0,
                            "color-blue" : 0.0,
                            "color-alpha" : 0.75,
                            "blur" : 0.1
                          }
                        }
                    ],
                    "start" : 83425440000,
                    "duration" : 5738880000,
                    "mediaStart" : 528423840000,
                    "mediaDuration" : 5738880000,
                    "scalar" : 1,
                    "metadata" : {
                      "AutoAppliedSmartFocus" : "False",
                      "audiateLinkedSession" : "",
                      "clipSpeedAttribute" : { "type": "bool", "value" : false},
                      "colorAttribute" : { "type": "color", "value" : [ 0, 0, 0, 0]},
                      "default-height" : { "type": "double", "value" : 1036.8},
                      "default-translation0" : { "type": "double", "value" : 0.0},
                      "default-translation1" : { "type": "double", "value" : -194.4},
                      "default-translation2" : { "type": "double", "value" : 0.0},
                      "default-width" : { "type": "double", "value" : 1932.67572815534}
                    },
                    "animationTracks" : {

                    }
                  },
                  {
                    "id" : 334,
                    "_type" : "StitchedMedia",
                    "minMediaStart" : 0,
                    "attributes" : {
                      "ident" : "Rec 4-22-2025-8-51-30-PM",
                      "gain" : 1.0,
                      "mixToMono" : false,
                      "loudnessNormalization" : true,
                      "sourceFileOffset" : 0
                    },
                    "parameters" : {
                      "translation0" : 6.33786407766917,
                      "translation1" : -2.8421709430404e-14,
                      "scale0" : 0.503300970873786,
                      "scale1" : 0.503300970873786,
                      "geometryCrop0" : 0.0,
                      "geometryCrop1" : 0.0,
                      "geometryCrop2" : 0.0,
                      "geometryCrop3" : 0.0,
                      "toc" : {
                        "type" : "string",
                        "keyframes" : [
                          {
                            "endTime" : 534162720000,
                            "time" : 534162720000,
                            "value" : "Build VI Package action",
                            "duration" : 0,
                            "metadata" : {
                              "markerIdentifier" : "C919FDAC-AF8E-4E1C-ABD2-A85CE7262DF4"
                            }
                          }
                        ]
                      },
                      "cursorOpacity" : 1.0,
                      "cursorTrackLevel" : 0.0,
                      "cursorScale" : 5.0,
                      "smoothCursorAcrossEditDuration" : 0
                    },
                    "medias" : [
                        {
                          "id" : 335,
                          "_type" : "ScreenVMFile",
                          "src" : 2,
                          "trackNumber" : 0,
                          "attributes" : {
                            "ident" : "Rec 4-22-2025-8-51-30-PM"
                          },
                          "parameters" : {
                            "geometryCrop0" : {
                              "type" : "double",
                              "defaultValue" : 0.0,
                              "interp" : "eioe"
                            },
                            "geometryCrop1" : {
                              "type" : "double",
                              "defaultValue" : 0.0,
                              "interp" : "eioe"
                            },
                            "geometryCrop2" : {
                              "type" : "double",
                              "defaultValue" : 0.0,
                              "interp" : "eioe"
                            },
                            "geometryCrop3" : {
                              "type" : "double",
                              "defaultValue" : 0.0,
                              "interp" : "eioe"
                            },
                            "cursorScale" : {
                              "type" : "double",
                              "defaultValue" : 0.0,
                              "interp" : "linr"
                            },
                            "cursorOpacity" : {
                              "type" : "double",
                              "defaultValue" : 0.0,
                              "interp" : "linr"
                            },
                            "cursorTrackLevel" : {
                              "type" : "double",
                              "defaultValue" : 0.0,
                              "interp" : "linr"
                            },
                            "smoothCursorAcrossEditDuration" : 0
                          },
                          "effects" : [

                          ],
                          "start" : 0,
                          "duration" : 50991360000,
                          "mediaStart" : 0,
                          "mediaDuration" : 50991360000,
                          "scalar" : 1,
                          "metadata" : {
                            "AutoAppliedSmartFocus" : "False",
                            "audiateLinkedSession" : "",
                            "clipSpeedAttribute" : { "type": "bool", "value" : false},
                            "colorAttribute" : { "type": "color", "value" : [ 0, 0, 0, 0]},
                            "default-height" : { "type": "double", "value" : 1036.8},
                            "default-translation0" : { "type": "double", "value" : 0.0},
                            "default-translation1" : { "type": "double", "value" : -194.4},
                            "default-translation2" : { "type": "double", "value" : 0.0},
                            "default-width" : { "type": "double", "value" : 1932.67572815534}
                          },
                          "animationTracks" : {

                          }
                        },
                        {
                          "id" : 336,
                          "_type" : "ScreenVMFile",
                          "src" : 2,
                          "trackNumber" : 0,
                          "attributes" : {
                            "ident" : "Rec 4-22-2025-8-51-30-PM"
                          },
                          "parameters" : {
                            "geometryCrop0" : {
                              "type" : "double",
                              "defaultValue" : 0.0,
                              "interp" : "eioe"
                            },
                            "geometryCrop1" : {
                              "type" : "double",
                              "defaultValue" : 0.0,
                              "interp" : "eioe"
                            },
                            "geometryCrop2" : {
                              "type" : "double",
                              "defaultValue" : 0.0,
                              "interp" : "eioe"
                            },
                            "geometryCrop3" : {
                              "type" : "double",
                              "defaultValue" : 0.0,
                              "interp" : "eioe"
                            },
                            "cursorScale" : {
                              "type" : "double",
                              "defaultValue" : 0.0,
                              "interp" : "linr"
                            },
                            "cursorOpacity" : {
                              "type" : "double",
                              "defaultValue" : 0.0,
                              "interp" : "linr"
                            },
                            "cursorTrackLevel" : {
                              "type" : "double",
                              "defaultValue" : 0.0,
                              "interp" : "linr"
                            },
                            "smoothCursorAcrossEditDuration" : 0
                          },
                          "effects" : [

                          ],
                          "start" : 50991360000,
                          "duration" : 46663680000,
                          "mediaStart" : 66467520000,
                          "mediaDuration" : 46663680000,
                          "scalar" : 1,
                          "metadata" : {
                            "AutoAppliedSmartFocus" : "False",
                            "audiateLinkedSession" : "",
                            "clipSpeedAttribute" : { "type": "bool", "value" : false},
                            "colorAttribute" : { "type": "color", "value" : [ 0, 0, 0, 0]},
                            "default-height" : { "type": "double", "value" : 1036.8},
                            "default-translation0" : { "type": "double", "value" : 0.0},
                            "default-translation1" : { "type": "double", "value" : -194.4},
                            "default-translation2" : { "type": "double", "value" : 0.0},
                            "default-width" : { "type": "double", "value" : 1932.67572815534}
                          },
                          "animationTracks" : {

                          }
                        },
                        {
                          "id" : 337,
                          "_type" : "ScreenVMFile",
                          "src" : 2,
                          "trackNumber" : 0,
                          "attributes" : {
                            "ident" : "Rec 4-22-2025-8-51-30-PM"
                          },
                          "parameters" : {
                            "geometryCrop0" : {
                              "type" : "double",
                              "defaultValue" : 0.0,
                              "interp" : "eioe"
                            },
                            "geometryCrop1" : {
                              "type" : "double",
                              "defaultValue" : 0.0,
                              "interp" : "eioe"
                            },
                            "geometryCrop2" : {
                              "type" : "double",
                              "defaultValue" : 0.0,
                              "interp" : "eioe"
                            },
                            "geometryCrop3" : {
                              "type" : "double",
                              "defaultValue" : 0.0,
                              "interp" : "eioe"
                            },
                            "cursorScale" : {
                              "type" : "double",
                              "defaultValue" : 0.0,
                              "interp" : "linr"
                            },
                            "cursorOpacity" : {
                              "type" : "double",
                              "defaultValue" : 0.0,
                              "interp" : "linr"
                            },
                            "cursorTrackLevel" : {
                              "type" : "double",
                              "defaultValue" : 0.0,
                              "interp" : "linr"
                            },
                            "smoothCursorAcrossEditDuration" : 0
                          },
                          "effects" : [

                          ],
                          "start" : 97655040000,
                          "duration" : 352282560000,
                          "mediaStart" : 149352000000,
                          "mediaDuration" : 352282560000,
                          "scalar" : 1,
                          "metadata" : {
                            "AutoAppliedSmartFocus" : "False",
                            "audiateLinkedSession" : "",
                            "clipSpeedAttribute" : { "type": "bool", "value" : false},
                            "colorAttribute" : { "type": "color", "value" : [ 0, 0, 0, 0]},
                            "default-height" : { "type": "double", "value" : 1036.8},
                            "default-translation0" : { "type": "double", "value" : 0.0},
                            "default-translation1" : { "type": "double", "value" : -194.4},
                            "default-translation2" : { "type": "double", "value" : 0.0},
                            "default-width" : { "type": "double", "value" : 1932.67572815534}
                          },
                          "animationTracks" : {

                          }
                        },
                        {
                          "id" : 338,
                          "_type" : "ScreenVMFile",
                          "src" : 2,
                          "trackNumber" : 0,
                          "attributes" : {
                            "ident" : "Rec 4-22-2025-8-51-30-PM"
                          },
                          "parameters" : {
                            "geometryCrop0" : {
                              "type" : "double",
                              "defaultValue" : 0.0,
                              "interp" : "eioe"
                            },
                            "geometryCrop1" : {
                              "type" : "double",
                              "defaultValue" : 0.0,
                              "interp" : "eioe"
                            },
                            "geometryCrop2" : {
                              "type" : "double",
                              "defaultValue" : 0.0,
                              "interp" : "eioe"
                            },
                            "geometryCrop3" : {
                              "type" : "double",
                              "defaultValue" : 0.0,
                              "interp" : "eioe"
                            },
                            "cursorScale" : {
                              "type" : "double",
                              "defaultValue" : 0.0,
                              "interp" : "linr"
                            },
                            "cursorOpacity" : {
                              "type" : "double",
                              "defaultValue" : 0.0,
                              "interp" : "linr"
                            },
                            "cursorTrackLevel" : {
                              "type" : "double",
                              "defaultValue" : 0.0,
                              "interp" : "linr"
                            },
                            "smoothCursorAcrossEditDuration" : 0
                          },
                          "effects" : [

                          ],
                          "start" : 449937600000,
                          "duration" : 8961120000,
                          "mediaStart" : 509843040000,
                          "mediaDuration" : 8961120000,
                          "scalar" : 1,
                          "metadata" : {
                            "AutoAppliedSmartFocus" : "False",
                            "audiateLinkedSession" : "",
                            "clipSpeedAttribute" : { "type": "bool", "value" : false},
                            "colorAttribute" : { "type": "color", "value" : [ 0, 0, 0, 0]},
                            "default-height" : { "type": "double", "value" : 1036.8},
                            "default-translation0" : { "type": "double", "value" : 0.0},
                            "default-translation1" : { "type": "double", "value" : -194.4},
                            "default-translation2" : { "type": "double", "value" : 0.0},
                            "default-width" : { "type": "double", "value" : 1932.67572815534}
                          },
                          "animationTracks" : {

                          }
                        },
                        {
                          "id" : 339,
                          "_type" : "ScreenVMFile",
                          "src" : 2,
                          "trackNumber" : 0,
                          "attributes" : {
                            "ident" : "Rec 4-22-2025-8-51-30-PM"
                          },
                          "parameters" : {
                            "geometryCrop0" : {
                              "type" : "double",
                              "defaultValue" : 0.0,
                              "interp" : "eioe"
                            },
                            "geometryCrop1" : {
                              "type" : "double",
                              "defaultValue" : 0.0,
                              "interp" : "eioe"
                            },
                            "geometryCrop2" : {
                              "type" : "double",
                              "defaultValue" : 0.0,
                              "interp" : "eioe"
                            },
                            "geometryCrop3" : {
                              "type" : "double",
                              "defaultValue" : 0.0,
                              "interp" : "eioe"
                            },
                            "cursorScale" : {
                              "type" : "double",
                              "defaultValue" : 0.0,
                              "interp" : "linr"
                            },
                            "cursorOpacity" : {
                              "type" : "double",
                              "defaultValue" : 0.0,
                              "interp" : "linr"
                            },
                            "cursorTrackLevel" : {
                              "type" : "double",
                              "defaultValue" : 0.0,
                              "interp" : "linr"
                            },
                            "smoothCursorAcrossEditDuration" : 0
                          },
                          "effects" : [

                          ],
                          "start" : 458898720000,
                          "duration" : 84651221596,
                          "mediaStart" : 1416350880000,
                          "mediaDuration" : 84651221596,
                          "scalar" : 1,
                          "metadata" : {
                            "AutoAppliedSmartFocus" : "False",
                            "audiateLinkedSession" : "",
                            "clipSpeedAttribute" : { "type": "bool", "value" : false},
                            "colorAttribute" : { "type": "color", "value" : [ 0, 0, 0, 0]},
                            "default-height" : { "type": "double", "value" : 1036.8},
                            "default-translation0" : { "type": "double", "value" : 0.0},
                            "default-translation1" : { "type": "double", "value" : -194.4},
                            "default-translation2" : { "type": "double", "value" : 0.0},
                            "default-width" : { "type": "double", "value" : 1932.67572815534}
                          },
                          "animationTracks" : {

                          }
                        },
                        {
                          "id" : 340,
                          "_type" : "ScreenVMFile",
                          "src" : 2,
                          "trackNumber" : 0,
                          "attributes" : {
                            "ident" : "Rec 4-22-2025-8-51-30-PM"
                          },
                          "parameters" : {
                            "geometryCrop0" : {
                              "type" : "double",
                              "defaultValue" : 0.0,
                              "interp" : "eioe"
                            },
                            "geometryCrop1" : {
                              "type" : "double",
                              "defaultValue" : 0.0,
                              "interp" : "eioe"
                            },
                            "geometryCrop2" : {
                              "type" : "double",
                              "defaultValue" : 0.0,
                              "interp" : "eioe"
                            },
                            "geometryCrop3" : {
                              "type" : "double",
                              "defaultValue" : 0.0,
                              "interp" : "eioe"
                            },
                            "cursorScale" : {
                              "type" : "double",
                              "defaultValue" : 0.0,
                              "interp" : "linr"
                            },
                            "cursorOpacity" : {
                              "type" : "double",
                              "defaultValue" : 0.0,
                              "interp" : "linr"
                            },
                            "cursorTrackLevel" : {
                              "type" : "double",
                              "defaultValue" : 0.0,
                              "interp" : "linr"
                            },
                            "smoothCursorAcrossEditDuration" : 0
                          },
                          "effects" : [

                          ],
                          "start" : 543549941596,
                          "duration" : 426170856469,
                          "mediaStart" : 1571406263531,
                          "mediaDuration" : 426170856469,
                          "scalar" : 1,
                          "metadata" : {
                            "AutoAppliedSmartFocus" : "False",
                            "audiateLinkedSession" : "",
                            "clipSpeedAttribute" : { "type": "bool", "value" : false},
                            "colorAttribute" : { "type": "color", "value" : [ 0, 0, 0, 0]},
                            "default-height" : { "type": "double", "value" : 1036.8},
                            "default-translation0" : { "type": "double", "value" : 0.0},
                            "default-translation1" : { "type": "double", "value" : -194.4},
                            "default-translation2" : { "type": "double", "value" : 0.0},
                            "default-width" : { "type": "double", "value" : 1932.67572815534}
                          },
                          "animationTracks" : {

                          }
                        },
                        {
                          "id" : 341,
                          "_type" : "ScreenVMFile",
                          "src" : 2,
                          "trackNumber" : 0,
                          "attributes" : {
                            "ident" : "Rec 4-22-2025-8-51-30-PM"
                          },
                          "parameters" : {
                            "geometryCrop0" : {
                              "type" : "double",
                              "defaultValue" : 0.0,
                              "interp" : "eioe"
                            },
                            "geometryCrop1" : {
                              "type" : "double",
                              "defaultValue" : 0.0,
                              "interp" : "eioe"
                            },
                            "geometryCrop2" : {
                              "type" : "double",
                              "defaultValue" : 0.0,
                              "interp" : "eioe"
                            },
                            "geometryCrop3" : {
                              "type" : "double",
                              "defaultValue" : 0.0,
                              "interp" : "eioe"
                            },
                            "cursorScale" : {
                              "type" : "double",
                              "defaultValue" : 0.0,
                              "interp" : "linr"
                            },
                            "cursorOpacity" : {
                              "type" : "double",
                              "defaultValue" : 0.0,
                              "interp" : "linr"
                            },
                            "cursorTrackLevel" : {
                              "type" : "double",
                              "defaultValue" : 0.0,
                              "interp" : "linr"
                            },
                            "smoothCursorAcrossEditDuration" : 0
                          },
                          "effects" : [

                          ],
                          "start" : 969720798065,
                          "duration" : 215419680000,
                          "mediaStart" : 2018886240000,
                          "mediaDuration" : 215419680000,
                          "scalar" : 1,
                          "metadata" : {
                            "AutoAppliedSmartFocus" : "False",
                            "audiateLinkedSession" : "",
                            "clipSpeedAttribute" : { "type": "bool", "value" : false},
                            "colorAttribute" : { "type": "color", "value" : [ 0, 0, 0, 0]},
                            "default-height" : { "type": "double", "value" : 1036.8},
                            "default-translation0" : { "type": "double", "value" : 0.0},
                            "default-translation1" : { "type": "double", "value" : -194.4},
                            "default-translation2" : { "type": "double", "value" : 0.0},
                            "default-width" : { "type": "double", "value" : 1932.67572815534}
                          },
                          "animationTracks" : {

                          }
                        },
                        {
                          "id" : 342,
                          "_type" : "ScreenVMFile",
                          "src" : 2,
                          "trackNumber" : 0,
                          "attributes" : {
                            "ident" : "Rec 4-22-2025-8-51-30-PM"
                          },
                          "parameters" : {
                            "geometryCrop0" : {
                              "type" : "double",
                              "defaultValue" : 0.0,
                              "interp" : "eioe"
                            },
                            "geometryCrop1" : {
                              "type" : "double",
                              "defaultValue" : 0.0,
                              "interp" : "eioe"
                            },
                            "geometryCrop2" : {
                              "type" : "double",
                              "defaultValue" : 0.0,
                              "interp" : "eioe"
                            },
                            "geometryCrop3" : {
                              "type" : "double",
                              "defaultValue" : 0.0,
                              "interp" : "eioe"
                            },
                            "cursorScale" : {
                              "type" : "double",
                              "defaultValue" : 0.0,
                              "interp" : "linr"
                            },
                            "cursorOpacity" : {
                              "type" : "double",
                              "defaultValue" : 0.0,
                              "interp" : "linr"
                            },
                            "cursorTrackLevel" : {
                              "type" : "double",
                              "defaultValue" : 0.0,
                              "interp" : "linr"
                            },
                            "smoothCursorAcrossEditDuration" : 0
                          },
                          "effects" : [

                          ],
                          "start" : 1185140478065,
                          "duration" : 786955680000,
                          "mediaStart" : 2257778880000,
                          "mediaDuration" : 786955680000,
                          "scalar" : 1,
                          "metadata" : {
                            "AutoAppliedSmartFocus" : "False",
                            "audiateLinkedSession" : "",
                            "clipSpeedAttribute" : { "type": "bool", "value" : false},
                            "colorAttribute" : { "type": "color", "value" : [ 0, 0, 0, 0]},
                            "default-height" : { "type": "double", "value" : 1036.8},
                            "default-translation0" : { "type": "double", "value" : 0.0},
                            "default-translation1" : { "type": "double", "value" : -194.4},
                            "default-translation2" : { "type": "double", "value" : 0.0},
                            "default-width" : { "type": "double", "value" : 1932.67572815534}
                          },
                          "animationTracks" : {

                          }
                        },
                        {
                          "id" : 343,
                          "_type" : "ScreenVMFile",
                          "src" : 2,
                          "trackNumber" : 0,
                          "attributes" : {
                            "ident" : "Rec 4-22-2025-8-51-30-PM"
                          },
                          "parameters" : {
                            "geometryCrop0" : {
                              "type" : "double",
                              "defaultValue" : 0.0,
                              "interp" : "eioe"
                            },
                            "geometryCrop1" : {
                              "type" : "double",
                              "defaultValue" : 0.0,
                              "interp" : "eioe"
                            },
                            "geometryCrop2" : {
                              "type" : "double",
                              "defaultValue" : 0.0,
                              "interp" : "eioe"
                            },
                            "geometryCrop3" : {
                              "type" : "double",
                              "defaultValue" : 0.0,
                              "interp" : "eioe"
                            },
                            "cursorScale" : {
                              "type" : "double",
                              "defaultValue" : 0.0,
                              "interp" : "linr"
                            },
                            "cursorOpacity" : {
                              "type" : "double",
                              "defaultValue" : 0.0,
                              "interp" : "linr"
                            },
                            "cursorTrackLevel" : {
                              "type" : "double",
                              "defaultValue" : 0.0,
                              "interp" : "linr"
                            },
                            "smoothCursorAcrossEditDuration" : 0
                          },
                          "effects" : [

                          ],
                          "start" : 1972096158065,
                          "duration" : 20768160000,
                          "mediaStart" : 3047580480000,
                          "mediaDuration" : 20768160000,
                          "scalar" : 1,
                          "metadata" : {
                            "AutoAppliedSmartFocus" : "False",
                            "audiateLinkedSession" : "",
                            "clipSpeedAttribute" : { "type": "bool", "value" : false},
                            "colorAttribute" : { "type": "color", "value" : [ 0, 0, 0, 0]},
                            "default-height" : { "type": "double", "value" : 1036.8},
                            "default-translation0" : { "type": "double", "value" : 0.0},
                            "default-translation1" : { "type": "double", "value" : -194.4},
                            "default-translation2" : { "type": "double", "value" : 0.0},
                            "default-width" : { "type": "double", "value" : 1932.67572815534}
                          },
                          "animationTracks" : {

                          }
                        },
                        {
                          "id" : 344,
                          "_type" : "ScreenVMFile",
                          "src" : 2,
                          "trackNumber" : 0,
                          "attributes" : {
                            "ident" : "Rec 4-22-2025-8-51-30-PM"
                          },
                          "parameters" : {
                            "geometryCrop0" : {
                              "type" : "double",
                              "defaultValue" : 0.0,
                              "interp" : "eioe"
                            },
                            "geometryCrop1" : {
                              "type" : "double",
                              "defaultValue" : 0.0,
                              "interp" : "eioe"
                            },
                            "geometryCrop2" : {
                              "type" : "double",
                              "defaultValue" : 0.0,
                              "interp" : "eioe"
                            },
                            "geometryCrop3" : {
                              "type" : "double",
                              "defaultValue" : 0.0,
                              "interp" : "eioe"
                            },
                            "cursorScale" : {
                              "type" : "double",
                              "defaultValue" : 0.0,
                              "interp" : "linr"
                            },
                            "cursorOpacity" : {
                              "type" : "double",
                              "defaultValue" : 0.0,
                              "interp" : "linr"
                            },
                            "cursorTrackLevel" : {
                              "type" : "double",
                              "defaultValue" : 0.0,
                              "interp" : "linr"
                            },
                            "smoothCursorAcrossEditDuration" : 0
                          },
                          "effects" : [

                          ],
                          "start" : 1992864318065,
                          "duration" : 343039200000,
                          "mediaStart" : 3138932160000,
                          "mediaDuration" : 343039200000,
                          "scalar" : 1,
                          "metadata" : {
                            "AutoAppliedSmartFocus" : "False",
                            "audiateLinkedSession" : "",
                            "clipSpeedAttribute" : { "type": "bool", "value" : false},
                            "colorAttribute" : { "type": "color", "value" : [ 0, 0, 0, 0]},
                            "default-height" : { "type": "double", "value" : 1036.8},
                            "default-translation0" : { "type": "double", "value" : 0.0},
                            "default-translation1" : { "type": "double", "value" : -194.4},
                            "default-translation2" : { "type": "double", "value" : 0.0},
                            "default-width" : { "type": "double", "value" : 1932.67572815534}
                          },
                          "animationTracks" : {

                          }
                        }
                    ],
                    "effects" : [
                        {
                          "effectName" : "CursorColor",
                          "bypassed" : false,
                          "category" : "categoryCursorEffects",
                          "parameters" : {
                            "intensity" : 1.0,
                            "desaturation" : 0.0,
                            "colorLumaCutoff" : 1.0,
                            "color-alpha" : 1.0,
                            "color-red" : 1.0,
                            "color-green" : 0.8980392157,
                            "color-blue" : 0.1215686275,
                            "secondColor-red" : 0.0,
                            "secondColor-green" : 0.0,
                            "secondColor-blue" : 0.0,
                            "secondColor-alpha" : 1.0,
                            "secondColorLumaCutoff" : 0.0,
                            "channel" : 0,
                            "shadowRampStart" : 0.0,
                            "shadowRampEnd" : 0.0,
                            "highlightRampStart" : 1.0,
                            "highlightRampEnd" : 1.0
                          }
                        },
                        {
                          "effectName" : "CursorShadow",
                          "bypassed" : false,
                          "category" : "categoryCursorEffects",
                          "parameters" : {
                            "angle" : 3.92699081698724,
                            "enabled" : 1,
                            "offset" : 5.0,
                            "blur" : 2.0,
                            "opacity" : 0.25,
                            "color-red" : 0.0,
                            "color-green" : 0.0,
                            "color-blue" : 0.0,
                            "color-alpha" : 1.0
                          }
                        },
                        {
                          "effectName" : "CursorHilight",
                          "bypassed" : false,
                          "category" : "categoryCursorEffects",
                          "parameters" : {
                            "radius" : 50.0,
                            "color-red" : 1.0,
                            "color-green" : 1.0,
                            "color-blue" : 0.0,
                            "color-alpha" : 0.75,
                            "blur" : 0.1
                          }
                        }
                    ],
                    "start" : 89164320000,
                    "duration" : 3081120000,
                    "mediaStart" : "8346292500001438/15625",
                    "mediaDuration" : "51500644475775/266",
                    "scalar" : "3081120000/193611445397",
                    "metadata" : {
                      "AutoAppliedSmartFocus" : "False",
                      "audiateLinkedSession" : "",
                      "clipSpeedAttribute" : { "type": "bool", "value" : true},
                      "colorAttribute" : { "type": "color", "value" : [ 0, 0, 0, 0]},
                      "default-height" : { "type": "double", "value" : 1036.8},
                      "default-translation0" : { "type": "double", "value" : 0.0},
                      "default-translation1" : { "type": "double", "value" : -194.4},
                      "default-translation2" : { "type": "double", "value" : 0.0},
                      "default-width" : { "type": "double", "value" : 1932.67572815534}
                    },
                    "animationTracks" : {

                    }
                  },
                  {
                    "id" : 345,
                    "_type" : "StitchedMedia",
                    "minMediaStart" : 0,
                    "attributes" : {
                      "ident" : "Rec 4-22-2025-8-51-30-PM",
                      "gain" : 1.0,
                      "mixToMono" : false,
                      "loudnessNormalization" : true,
                      "sourceFileOffset" : 0
                    },
                    "parameters" : {
                      "translation0" : 6.33786407766917,
                      "translation1" : -2.8421709430404e-14,
                      "scale0" : 0.503300970873786,
                      "scale1" : 0.503300970873786,
                      "geometryCrop0" : 0.0,
                      "geometryCrop1" : 0.0,
                      "geometryCrop2" : 0.0,
                      "geometryCrop3" : 0.0,
                      "toc" : {
                        "type" : "string",
                        "keyframes" : [
                          {
                            "endTime" : "2154071482499883637/2546875",
                            "time" : "2154071482499883637/2546875",
                            "value" : "Package built",
                            "duration" : 0,
                            "metadata" : {
                              "markerIdentifier" : "874276D2-4E2A-47D9-BC16-3A1B80409C08"
                            }
                          }
                        ]
                      },
                      "cursorOpacity" : 1.0,
                      "cursorTrackLevel" : 0.0,
                      "cursorScale" : 5.0,
                      "smoothCursorAcrossEditDuration" : 0
                    },
                    "medias" : [
                        {
                          "id" : 346,
                          "_type" : "ScreenVMFile",
                          "src" : 2,
                          "trackNumber" : 0,
                          "attributes" : {
                            "ident" : "Rec 4-22-2025-8-51-30-PM"
                          },
                          "parameters" : {
                            "geometryCrop0" : {
                              "type" : "double",
                              "defaultValue" : 0.0,
                              "interp" : "eioe"
                            },
                            "geometryCrop1" : {
                              "type" : "double",
                              "defaultValue" : 0.0,
                              "interp" : "eioe"
                            },
                            "geometryCrop2" : {
                              "type" : "double",
                              "defaultValue" : 0.0,
                              "interp" : "eioe"
                            },
                            "geometryCrop3" : {
                              "type" : "double",
                              "defaultValue" : 0.0,
                              "interp" : "eioe"
                            },
                            "cursorScale" : {
                              "type" : "double",
                              "defaultValue" : 0.0,
                              "interp" : "linr"
                            },
                            "cursorOpacity" : {
                              "type" : "double",
                              "defaultValue" : 0.0,
                              "interp" : "linr"
                            },
                            "cursorTrackLevel" : {
                              "type" : "double",
                              "defaultValue" : 0.0,
                              "interp" : "linr"
                            },
                            "smoothCursorAcrossEditDuration" : 0
                          },
                          "effects" : [

                          ],
                          "start" : 0,
                          "duration" : 50991360000,
                          "mediaStart" : 0,
                          "mediaDuration" : 50991360000,
                          "scalar" : 1,
                          "metadata" : {
                            "AutoAppliedSmartFocus" : "False",
                            "audiateLinkedSession" : "",
                            "clipSpeedAttribute" : { "type": "bool", "value" : false},
                            "colorAttribute" : { "type": "color", "value" : [ 0, 0, 0, 0]},
                            "default-height" : { "type": "double", "value" : 1036.8},
                            "default-translation0" : { "type": "double", "value" : 0.0},
                            "default-translation1" : { "type": "double", "value" : -194.4},
                            "default-translation2" : { "type": "double", "value" : 0.0},
                            "default-width" : { "type": "double", "value" : 1932.67572815534}
                          },
                          "animationTracks" : {

                          }
                        },
                        {
                          "id" : 347,
                          "_type" : "ScreenVMFile",
                          "src" : 2,
                          "trackNumber" : 0,
                          "attributes" : {
                            "ident" : "Rec 4-22-2025-8-51-30-PM"
                          },
                          "parameters" : {
                            "geometryCrop0" : {
                              "type" : "double",
                              "defaultValue" : 0.0,
                              "interp" : "eioe"
                            },
                            "geometryCrop1" : {
                              "type" : "double",
                              "defaultValue" : 0.0,
                              "interp" : "eioe"
                            },
                            "geometryCrop2" : {
                              "type" : "double",
                              "defaultValue" : 0.0,
                              "interp" : "eioe"
                            },
                            "geometryCrop3" : {
                              "type" : "double",
                              "defaultValue" : 0.0,
                              "interp" : "eioe"
                            },
                            "cursorScale" : {
                              "type" : "double",
                              "defaultValue" : 0.0,
                              "interp" : "linr"
                            },
                            "cursorOpacity" : {
                              "type" : "double",
                              "defaultValue" : 0.0,
                              "interp" : "linr"
                            },
                            "cursorTrackLevel" : {
                              "type" : "double",
                              "defaultValue" : 0.0,
                              "interp" : "linr"
                            },
                            "smoothCursorAcrossEditDuration" : 0
                          },
                          "effects" : [

                          ],
                          "start" : 50991360000,
                          "duration" : 46663680000,
                          "mediaStart" : 66467520000,
                          "mediaDuration" : 46663680000,
                          "scalar" : 1,
                          "metadata" : {
                            "AutoAppliedSmartFocus" : "False",
                            "audiateLinkedSession" : "",
                            "clipSpeedAttribute" : { "type": "bool", "value" : false},
                            "colorAttribute" : { "type": "color", "value" : [ 0, 0, 0, 0]},
                            "default-height" : { "type": "double", "value" : 1036.8},
                            "default-translation0" : { "type": "double", "value" : 0.0},
                            "default-translation1" : { "type": "double", "value" : -194.4},
                            "default-translation2" : { "type": "double", "value" : 0.0},
                            "default-width" : { "type": "double", "value" : 1932.67572815534}
                          },
                          "animationTracks" : {

                          }
                        },
                        {
                          "id" : 348,
                          "_type" : "ScreenVMFile",
                          "src" : 2,
                          "trackNumber" : 0,
                          "attributes" : {
                            "ident" : "Rec 4-22-2025-8-51-30-PM"
                          },
                          "parameters" : {
                            "geometryCrop0" : {
                              "type" : "double",
                              "defaultValue" : 0.0,
                              "interp" : "eioe"
                            },
                            "geometryCrop1" : {
                              "type" : "double",
                              "defaultValue" : 0.0,
                              "interp" : "eioe"
                            },
                            "geometryCrop2" : {
                              "type" : "double",
                              "defaultValue" : 0.0,
                              "interp" : "eioe"
                            },
                            "geometryCrop3" : {
                              "type" : "double",
                              "defaultValue" : 0.0,
                              "interp" : "eioe"
                            },
                            "cursorScale" : {
                              "type" : "double",
                              "defaultValue" : 0.0,
                              "interp" : "linr"
                            },
                            "cursorOpacity" : {
                              "type" : "double",
                              "defaultValue" : 0.0,
                              "interp" : "linr"
                            },
                            "cursorTrackLevel" : {
                              "type" : "double",
                              "defaultValue" : 0.0,
                              "interp" : "linr"
                            },
                            "smoothCursorAcrossEditDuration" : 0
                          },
                          "effects" : [

                          ],
                          "start" : 97655040000,
                          "duration" : 352282560000,
                          "mediaStart" : 149352000000,
                          "mediaDuration" : 352282560000,
                          "scalar" : 1,
                          "metadata" : {
                            "AutoAppliedSmartFocus" : "False",
                            "audiateLinkedSession" : "",
                            "clipSpeedAttribute" : { "type": "bool", "value" : false},
                            "colorAttribute" : { "type": "color", "value" : [ 0, 0, 0, 0]},
                            "default-height" : { "type": "double", "value" : 1036.8},
                            "default-translation0" : { "type": "double", "value" : 0.0},
                            "default-translation1" : { "type": "double", "value" : -194.4},
                            "default-translation2" : { "type": "double", "value" : 0.0},
                            "default-width" : { "type": "double", "value" : 1932.67572815534}
                          },
                          "animationTracks" : {

                          }
                        },
                        {
                          "id" : 349,
                          "_type" : "ScreenVMFile",
                          "src" : 2,
                          "trackNumber" : 0,
                          "attributes" : {
                            "ident" : "Rec 4-22-2025-8-51-30-PM"
                          },
                          "parameters" : {
                            "geometryCrop0" : {
                              "type" : "double",
                              "defaultValue" : 0.0,
                              "interp" : "eioe"
                            },
                            "geometryCrop1" : {
                              "type" : "double",
                              "defaultValue" : 0.0,
                              "interp" : "eioe"
                            },
                            "geometryCrop2" : {
                              "type" : "double",
                              "defaultValue" : 0.0,
                              "interp" : "eioe"
                            },
                            "geometryCrop3" : {
                              "type" : "double",
                              "defaultValue" : 0.0,
                              "interp" : "eioe"
                            },
                            "cursorScale" : {
                              "type" : "double",
                              "defaultValue" : 0.0,
                              "interp" : "linr"
                            },
                            "cursorOpacity" : {
                              "type" : "double",
                              "defaultValue" : 0.0,
                              "interp" : "linr"
                            },
                            "cursorTrackLevel" : {
                              "type" : "double",
                              "defaultValue" : 0.0,
                              "interp" : "linr"
                            },
                            "smoothCursorAcrossEditDuration" : 0
                          },
                          "effects" : [

                          ],
                          "start" : 449937600000,
                          "duration" : 8961120000,
                          "mediaStart" : 509843040000,
                          "mediaDuration" : 8961120000,
                          "scalar" : 1,
                          "metadata" : {
                            "AutoAppliedSmartFocus" : "False",
                            "audiateLinkedSession" : "",
                            "clipSpeedAttribute" : { "type": "bool", "value" : false},
                            "colorAttribute" : { "type": "color", "value" : [ 0, 0, 0, 0]},
                            "default-height" : { "type": "double", "value" : 1036.8},
                            "default-translation0" : { "type": "double", "value" : 0.0},
                            "default-translation1" : { "type": "double", "value" : -194.4},
                            "default-translation2" : { "type": "double", "value" : 0.0},
                            "default-width" : { "type": "double", "value" : 1932.67572815534}
                          },
                          "animationTracks" : {

                          }
                        },
                        {
                          "id" : 350,
                          "_type" : "ScreenVMFile",
                          "src" : 2,
                          "trackNumber" : 0,
                          "attributes" : {
                            "ident" : "Rec 4-22-2025-8-51-30-PM"
                          },
                          "parameters" : {
                            "geometryCrop0" : {
                              "type" : "double",
                              "defaultValue" : 0.0,
                              "interp" : "eioe"
                            },
                            "geometryCrop1" : {
                              "type" : "double",
                              "defaultValue" : 0.0,
                              "interp" : "eioe"
                            },
                            "geometryCrop2" : {
                              "type" : "double",
                              "defaultValue" : 0.0,
                              "interp" : "eioe"
                            },
                            "geometryCrop3" : {
                              "type" : "double",
                              "defaultValue" : 0.0,
                              "interp" : "eioe"
                            },
                            "cursorScale" : {
                              "type" : "double",
                              "defaultValue" : 0.0,
                              "interp" : "linr"
                            },
                            "cursorOpacity" : {
                              "type" : "double",
                              "defaultValue" : 0.0,
                              "interp" : "linr"
                            },
                            "cursorTrackLevel" : {
                              "type" : "double",
                              "defaultValue" : 0.0,
                              "interp" : "linr"
                            },
                            "smoothCursorAcrossEditDuration" : 0
                          },
                          "effects" : [

                          ],
                          "start" : 458898720000,
                          "duration" : 84651221596,
                          "mediaStart" : 1416350880000,
                          "mediaDuration" : 84651221596,
                          "scalar" : 1,
                          "metadata" : {
                            "AutoAppliedSmartFocus" : "False",
                            "audiateLinkedSession" : "",
                            "clipSpeedAttribute" : { "type": "bool", "value" : false},
                            "colorAttribute" : { "type": "color", "value" : [ 0, 0, 0, 0]},
                            "default-height" : { "type": "double", "value" : 1036.8},
                            "default-translation0" : { "type": "double", "value" : 0.0},
                            "default-translation1" : { "type": "double", "value" : -194.4},
                            "default-translation2" : { "type": "double", "value" : 0.0},
                            "default-width" : { "type": "double", "value" : 1932.67572815534}
                          },
                          "animationTracks" : {

                          }
                        },
                        {
                          "id" : 351,
                          "_type" : "ScreenVMFile",
                          "src" : 2,
                          "trackNumber" : 0,
                          "attributes" : {
                            "ident" : "Rec 4-22-2025-8-51-30-PM"
                          },
                          "parameters" : {
                            "geometryCrop0" : {
                              "type" : "double",
                              "defaultValue" : 0.0,
                              "interp" : "eioe"
                            },
                            "geometryCrop1" : {
                              "type" : "double",
                              "defaultValue" : 0.0,
                              "interp" : "eioe"
                            },
                            "geometryCrop2" : {
                              "type" : "double",
                              "defaultValue" : 0.0,
                              "interp" : "eioe"
                            },
                            "geometryCrop3" : {
                              "type" : "double",
                              "defaultValue" : 0.0,
                              "interp" : "eioe"
                            },
                            "cursorScale" : {
                              "type" : "double",
                              "defaultValue" : 0.0,
                              "interp" : "linr"
                            },
                            "cursorOpacity" : {
                              "type" : "double",
                              "defaultValue" : 0.0,
                              "interp" : "linr"
                            },
                            "cursorTrackLevel" : {
                              "type" : "double",
                              "defaultValue" : 0.0,
                              "interp" : "linr"
                            },
                            "smoothCursorAcrossEditDuration" : 0
                          },
                          "effects" : [

                          ],
                          "start" : 543549941596,
                          "duration" : 426170856469,
                          "mediaStart" : 1571406263531,
                          "mediaDuration" : 426170856469,
                          "scalar" : 1,
                          "metadata" : {
                            "AutoAppliedSmartFocus" : "False",
                            "audiateLinkedSession" : "",
                            "clipSpeedAttribute" : { "type": "bool", "value" : false},
                            "colorAttribute" : { "type": "color", "value" : [ 0, 0, 0, 0]},
                            "default-height" : { "type": "double", "value" : 1036.8},
                            "default-translation0" : { "type": "double", "value" : 0.0},
                            "default-translation1" : { "type": "double", "value" : -194.4},
                            "default-translation2" : { "type": "double", "value" : 0.0},
                            "default-width" : { "type": "double", "value" : 1932.67572815534}
                          },
                          "animationTracks" : {

                          }
                        },
                        {
                          "id" : 352,
                          "_type" : "ScreenVMFile",
                          "src" : 2,
                          "trackNumber" : 0,
                          "attributes" : {
                            "ident" : "Rec 4-22-2025-8-51-30-PM"
                          },
                          "parameters" : {
                            "geometryCrop0" : {
                              "type" : "double",
                              "defaultValue" : 0.0,
                              "interp" : "eioe"
                            },
                            "geometryCrop1" : {
                              "type" : "double",
                              "defaultValue" : 0.0,
                              "interp" : "eioe"
                            },
                            "geometryCrop2" : {
                              "type" : "double",
                              "defaultValue" : 0.0,
                              "interp" : "eioe"
                            },
                            "geometryCrop3" : {
                              "type" : "double",
                              "defaultValue" : 0.0,
                              "interp" : "eioe"
                            },
                            "cursorScale" : {
                              "type" : "double",
                              "defaultValue" : 0.0,
                              "interp" : "linr"
                            },
                            "cursorOpacity" : {
                              "type" : "double",
                              "defaultValue" : 0.0,
                              "interp" : "linr"
                            },
                            "cursorTrackLevel" : {
                              "type" : "double",
                              "defaultValue" : 0.0,
                              "interp" : "linr"
                            },
                            "smoothCursorAcrossEditDuration" : 0
                          },
                          "effects" : [

                          ],
                          "start" : 969720798065,
                          "duration" : 215419680000,
                          "mediaStart" : 2018886240000,
                          "mediaDuration" : 215419680000,
                          "scalar" : 1,
                          "metadata" : {
                            "AutoAppliedSmartFocus" : "False",
                            "audiateLinkedSession" : "",
                            "clipSpeedAttribute" : { "type": "bool", "value" : false},
                            "colorAttribute" : { "type": "color", "value" : [ 0, 0, 0, 0]},
                            "default-height" : { "type": "double", "value" : 1036.8},
                            "default-translation0" : { "type": "double", "value" : 0.0},
                            "default-translation1" : { "type": "double", "value" : -194.4},
                            "default-translation2" : { "type": "double", "value" : 0.0},
                            "default-width" : { "type": "double", "value" : 1932.67572815534}
                          },
                          "animationTracks" : {

                          }
                        },
                        {
                          "id" : 353,
                          "_type" : "ScreenVMFile",
                          "src" : 2,
                          "trackNumber" : 0,
                          "attributes" : {
                            "ident" : "Rec 4-22-2025-8-51-30-PM"
                          },
                          "parameters" : {
                            "geometryCrop0" : {
                              "type" : "double",
                              "defaultValue" : 0.0,
                              "interp" : "eioe"
                            },
                            "geometryCrop1" : {
                              "type" : "double",
                              "defaultValue" : 0.0,
                              "interp" : "eioe"
                            },
                            "geometryCrop2" : {
                              "type" : "double",
                              "defaultValue" : 0.0,
                              "interp" : "eioe"
                            },
                            "geometryCrop3" : {
                              "type" : "double",
                              "defaultValue" : 0.0,
                              "interp" : "eioe"
                            },
                            "cursorScale" : {
                              "type" : "double",
                              "defaultValue" : 0.0,
                              "interp" : "linr"
                            },
                            "cursorOpacity" : {
                              "type" : "double",
                              "defaultValue" : 0.0,
                              "interp" : "linr"
                            },
                            "cursorTrackLevel" : {
                              "type" : "double",
                              "defaultValue" : 0.0,
                              "interp" : "linr"
                            },
                            "smoothCursorAcrossEditDuration" : 0
                          },
                          "effects" : [

                          ],
                          "start" : 1185140478065,
                          "duration" : 786955680000,
                          "mediaStart" : 2257778880000,
                          "mediaDuration" : 786955680000,
                          "scalar" : 1,
                          "metadata" : {
                            "AutoAppliedSmartFocus" : "False",
                            "audiateLinkedSession" : "",
                            "clipSpeedAttribute" : { "type": "bool", "value" : false},
                            "colorAttribute" : { "type": "color", "value" : [ 0, 0, 0, 0]},
                            "default-height" : { "type": "double", "value" : 1036.8},
                            "default-translation0" : { "type": "double", "value" : 0.0},
                            "default-translation1" : { "type": "double", "value" : -194.4},
                            "default-translation2" : { "type": "double", "value" : 0.0},
                            "default-width" : { "type": "double", "value" : 1932.67572815534}
                          },
                          "animationTracks" : {

                          }
                        },
                        {
                          "id" : 354,
                          "_type" : "ScreenVMFile",
                          "src" : 2,
                          "trackNumber" : 0,
                          "attributes" : {
                            "ident" : "Rec 4-22-2025-8-51-30-PM"
                          },
                          "parameters" : {
                            "geometryCrop0" : {
                              "type" : "double",
                              "defaultValue" : 0.0,
                              "interp" : "eioe"
                            },
                            "geometryCrop1" : {
                              "type" : "double",
                              "defaultValue" : 0.0,
                              "interp" : "eioe"
                            },
                            "geometryCrop2" : {
                              "type" : "double",
                              "defaultValue" : 0.0,
                              "interp" : "eioe"
                            },
                            "geometryCrop3" : {
                              "type" : "double",
                              "defaultValue" : 0.0,
                              "interp" : "eioe"
                            },
                            "cursorScale" : {
                              "type" : "double",
                              "defaultValue" : 0.0,
                              "interp" : "linr"
                            },
                            "cursorOpacity" : {
                              "type" : "double",
                              "defaultValue" : 0.0,
                              "interp" : "linr"
                            },
                            "cursorTrackLevel" : {
                              "type" : "double",
                              "defaultValue" : 0.0,
                              "interp" : "linr"
                            },
                            "smoothCursorAcrossEditDuration" : 0
                          },
                          "effects" : [

                          ],
                          "start" : 1972096158065,
                          "duration" : 20768160000,
                          "mediaStart" : 3047580480000,
                          "mediaDuration" : 20768160000,
                          "scalar" : 1,
                          "metadata" : {
                            "AutoAppliedSmartFocus" : "False",
                            "audiateLinkedSession" : "",
                            "clipSpeedAttribute" : { "type": "bool", "value" : false},
                            "colorAttribute" : { "type": "color", "value" : [ 0, 0, 0, 0]},
                            "default-height" : { "type": "double", "value" : 1036.8},
                            "default-translation0" : { "type": "double", "value" : 0.0},
                            "default-translation1" : { "type": "double", "value" : -194.4},
                            "default-translation2" : { "type": "double", "value" : 0.0},
                            "default-width" : { "type": "double", "value" : 1932.67572815534}
                          },
                          "animationTracks" : {

                          }
                        },
                        {
                          "id" : 355,
                          "_type" : "ScreenVMFile",
                          "src" : 2,
                          "trackNumber" : 0,
                          "attributes" : {
                            "ident" : "Rec 4-22-2025-8-51-30-PM"
                          },
                          "parameters" : {
                            "geometryCrop0" : {
                              "type" : "double",
                              "defaultValue" : 0.0,
                              "interp" : "eioe"
                            },
                            "geometryCrop1" : {
                              "type" : "double",
                              "defaultValue" : 0.0,
                              "interp" : "eioe"
                            },
                            "geometryCrop2" : {
                              "type" : "double",
                              "defaultValue" : 0.0,
                              "interp" : "eioe"
                            },
                            "geometryCrop3" : {
                              "type" : "double",
                              "defaultValue" : 0.0,
                              "interp" : "eioe"
                            },
                            "cursorScale" : {
                              "type" : "double",
                              "defaultValue" : 0.0,
                              "interp" : "linr"
                            },
                            "cursorOpacity" : {
                              "type" : "double",
                              "defaultValue" : 0.0,
                              "interp" : "linr"
                            },
                            "cursorTrackLevel" : {
                              "type" : "double",
                              "defaultValue" : 0.0,
                              "interp" : "linr"
                            },
                            "smoothCursorAcrossEditDuration" : 0
                          },
                          "effects" : [

                          ],
                          "start" : 1992864318065,
                          "duration" : 343039200000,
                          "mediaStart" : 3138932160000,
                          "mediaDuration" : 343039200000,
                          "scalar" : 1,
                          "metadata" : {
                            "AutoAppliedSmartFocus" : "False",
                            "audiateLinkedSession" : "",
                            "clipSpeedAttribute" : { "type": "bool", "value" : false},
                            "colorAttribute" : { "type": "color", "value" : [ 0, 0, 0, 0]},
                            "default-height" : { "type": "double", "value" : 1036.8},
                            "default-translation0" : { "type": "double", "value" : 0.0},
                            "default-translation1" : { "type": "double", "value" : -194.4},
                            "default-translation2" : { "type": "double", "value" : 0.0},
                            "default-width" : { "type": "double", "value" : 1932.67572815534}
                          },
                          "animationTracks" : {

                          }
                        }
                    ],
                    "effects" : [
                        {
                          "effectName" : "CursorColor",
                          "bypassed" : false,
                          "category" : "categoryCursorEffects",
                          "parameters" : {
                            "intensity" : 1.0,
                            "desaturation" : 0.0,
                            "colorLumaCutoff" : 1.0,
                            "color-alpha" : 1.0,
                            "color-red" : 1.0,
                            "color-green" : 0.8980392157,
                            "color-blue" : 0.1215686275,
                            "secondColor-red" : 0.0,
                            "secondColor-green" : 0.0,
                            "secondColor-blue" : 0.0,
                            "secondColor-alpha" : 1.0,
                            "secondColorLumaCutoff" : 0.0,
                            "channel" : 0,
                            "shadowRampStart" : 0.0,
                            "shadowRampEnd" : 0.0,
                            "highlightRampStart" : 1.0,
                            "highlightRampEnd" : 1.0
                          }
                        },
                        {
                          "effectName" : "CursorShadow",
                          "bypassed" : false,
                          "category" : "categoryCursorEffects",
                          "parameters" : {
                            "angle" : 3.92699081698724,
                            "enabled" : 1,
                            "offset" : 5.0,
                            "blur" : 2.0,
                            "opacity" : 0.25,
                            "color-red" : 0.0,
                            "color-green" : 0.0,
                            "color-blue" : 0.0,
                            "color-alpha" : 1.0
                          }
                        },
                        {
                          "effectName" : "CursorHilight",
                          "bypassed" : false,
                          "category" : "categoryCursorEffects",
                          "parameters" : {
                            "radius" : 50.0,
                            "color-red" : 1.0,
                            "color-green" : 1.0,
                            "color-blue" : 0.0,
                            "color-alpha" : 0.75,
                            "blur" : 0.1
                          }
                        }
                    ],
                    "start" : 92245440000,
                    "duration" : 1552320000,
                    "mediaStart" : "255640383909201033/332500",
                    "mediaDuration" : "309778312635/4",
                    "scalar" : "258720000/12907429693",
                    "metadata" : {
                      "AutoAppliedSmartFocus" : "False",
                      "audiateLinkedSession" : "",
                      "clipSpeedAttribute" : { "type": "bool", "value" : true},
                      "colorAttribute" : { "type": "color", "value" : [ 0, 0, 0, 0]},
                      "default-height" : { "type": "double", "value" : 1036.8},
                      "default-translation0" : { "type": "double", "value" : 0.0},
                      "default-translation1" : { "type": "double", "value" : -194.4},
                      "default-translation2" : { "type": "double", "value" : 0.0},
                      "default-width" : { "type": "double", "value" : 1932.67572815534}
                    },
                    "animationTracks" : {

                    }
                  },
                  {
                    "id" : 356,
                    "_type" : "StitchedMedia",
                    "minMediaStart" : 0,
                    "attributes" : {
                      "ident" : "Rec 4-22-2025-8-51-30-PM",
                      "gain" : 1.0,
                      "mixToMono" : false,
                      "loudnessNormalization" : true,
                      "sourceFileOffset" : 0
                    },
                    "parameters" : {
                      "translation0" : 6.33786407766917,
                      "translation1" : -2.8421709430404e-14,
                      "scale0" : 0.503300970873786,
                      "scale1" : 0.503300970873786,
                      "geometryCrop0" : 0.0,
                      "geometryCrop1" : 0.0,
                      "geometryCrop2" : 0.0,
                      "geometryCrop3" : 0.0,
                      "cursorOpacity" : 1.0,
                      "cursorTrackLevel" : 0.0,
                      "cursorScale" : 5.0,
                      "smoothCursorAcrossEditDuration" : 0
                    },
                    "medias" : [
                        {
                          "id" : 357,
                          "_type" : "ScreenVMFile",
                          "src" : 2,
                          "trackNumber" : 0,
                          "attributes" : {
                            "ident" : "Rec 4-22-2025-8-51-30-PM"
                          },
                          "parameters" : {
                            "geometryCrop0" : {
                              "type" : "double",
                              "defaultValue" : 0.0,
                              "interp" : "eioe"
                            },
                            "geometryCrop1" : {
                              "type" : "double",
                              "defaultValue" : 0.0,
                              "interp" : "eioe"
                            },
                            "geometryCrop2" : {
                              "type" : "double",
                              "defaultValue" : 0.0,
                              "interp" : "eioe"
                            },
                            "geometryCrop3" : {
                              "type" : "double",
                              "defaultValue" : 0.0,
                              "interp" : "eioe"
                            },
                            "cursorScale" : {
                              "type" : "double",
                              "defaultValue" : 0.0,
                              "interp" : "linr"
                            },
                            "cursorOpacity" : {
                              "type" : "double",
                              "defaultValue" : 0.0,
                              "interp" : "linr"
                            },
                            "cursorTrackLevel" : {
                              "type" : "double",
                              "defaultValue" : 0.0,
                              "interp" : "linr"
                            },
                            "smoothCursorAcrossEditDuration" : 0
                          },
                          "effects" : [

                          ],
                          "start" : 0,
                          "duration" : 50991360000,
                          "mediaStart" : 0,
                          "mediaDuration" : 50991360000,
                          "scalar" : 1,
                          "metadata" : {
                            "AutoAppliedSmartFocus" : "False",
                            "audiateLinkedSession" : "",
                            "clipSpeedAttribute" : { "type": "bool", "value" : false},
                            "colorAttribute" : { "type": "color", "value" : [ 0, 0, 0, 0]},
                            "default-height" : { "type": "double", "value" : 1036.8},
                            "default-translation0" : { "type": "double", "value" : 0.0},
                            "default-translation1" : { "type": "double", "value" : -194.4},
                            "default-translation2" : { "type": "double", "value" : 0.0},
                            "default-width" : { "type": "double", "value" : 1932.67572815534}
                          },
                          "animationTracks" : {

                          }
                        },
                        {
                          "id" : 358,
                          "_type" : "ScreenVMFile",
                          "src" : 2,
                          "trackNumber" : 0,
                          "attributes" : {
                            "ident" : "Rec 4-22-2025-8-51-30-PM"
                          },
                          "parameters" : {
                            "geometryCrop0" : {
                              "type" : "double",
                              "defaultValue" : 0.0,
                              "interp" : "eioe"
                            },
                            "geometryCrop1" : {
                              "type" : "double",
                              "defaultValue" : 0.0,
                              "interp" : "eioe"
                            },
                            "geometryCrop2" : {
                              "type" : "double",
                              "defaultValue" : 0.0,
                              "interp" : "eioe"
                            },
                            "geometryCrop3" : {
                              "type" : "double",
                              "defaultValue" : 0.0,
                              "interp" : "eioe"
                            },
                            "cursorScale" : {
                              "type" : "double",
                              "defaultValue" : 0.0,
                              "interp" : "linr"
                            },
                            "cursorOpacity" : {
                              "type" : "double",
                              "defaultValue" : 0.0,
                              "interp" : "linr"
                            },
                            "cursorTrackLevel" : {
                              "type" : "double",
                              "defaultValue" : 0.0,
                              "interp" : "linr"
                            },
                            "smoothCursorAcrossEditDuration" : 0
                          },
                          "effects" : [

                          ],
                          "start" : 50991360000,
                          "duration" : 46663680000,
                          "mediaStart" : 66467520000,
                          "mediaDuration" : 46663680000,
                          "scalar" : 1,
                          "metadata" : {
                            "AutoAppliedSmartFocus" : "False",
                            "audiateLinkedSession" : "",
                            "clipSpeedAttribute" : { "type": "bool", "value" : false},
                            "colorAttribute" : { "type": "color", "value" : [ 0, 0, 0, 0]},
                            "default-height" : { "type": "double", "value" : 1036.8},
                            "default-translation0" : { "type": "double", "value" : 0.0},
                            "default-translation1" : { "type": "double", "value" : -194.4},
                            "default-translation2" : { "type": "double", "value" : 0.0},
                            "default-width" : { "type": "double", "value" : 1932.67572815534}
                          },
                          "animationTracks" : {

                          }
                        },
                        {
                          "id" : 359,
                          "_type" : "ScreenVMFile",
                          "src" : 2,
                          "trackNumber" : 0,
                          "attributes" : {
                            "ident" : "Rec 4-22-2025-8-51-30-PM"
                          },
                          "parameters" : {
                            "geometryCrop0" : {
                              "type" : "double",
                              "defaultValue" : 0.0,
                              "interp" : "eioe"
                            },
                            "geometryCrop1" : {
                              "type" : "double",
                              "defaultValue" : 0.0,
                              "interp" : "eioe"
                            },
                            "geometryCrop2" : {
                              "type" : "double",
                              "defaultValue" : 0.0,
                              "interp" : "eioe"
                            },
                            "geometryCrop3" : {
                              "type" : "double",
                              "defaultValue" : 0.0,
                              "interp" : "eioe"
                            },
                            "cursorScale" : {
                              "type" : "double",
                              "defaultValue" : 0.0,
                              "interp" : "linr"
                            },
                            "cursorOpacity" : {
                              "type" : "double",
                              "defaultValue" : 0.0,
                              "interp" : "linr"
                            },
                            "cursorTrackLevel" : {
                              "type" : "double",
                              "defaultValue" : 0.0,
                              "interp" : "linr"
                            },
                            "smoothCursorAcrossEditDuration" : 0
                          },
                          "effects" : [

                          ],
                          "start" : 97655040000,
                          "duration" : 352282560000,
                          "mediaStart" : 149352000000,
                          "mediaDuration" : 352282560000,
                          "scalar" : 1,
                          "metadata" : {
                            "AutoAppliedSmartFocus" : "False",
                            "audiateLinkedSession" : "",
                            "clipSpeedAttribute" : { "type": "bool", "value" : false},
                            "colorAttribute" : { "type": "color", "value" : [ 0, 0, 0, 0]},
                            "default-height" : { "type": "double", "value" : 1036.8},
                            "default-translation0" : { "type": "double", "value" : 0.0},
                            "default-translation1" : { "type": "double", "value" : -194.4},
                            "default-translation2" : { "type": "double", "value" : 0.0},
                            "default-width" : { "type": "double", "value" : 1932.67572815534}
                          },
                          "animationTracks" : {

                          }
                        },
                        {
                          "id" : 360,
                          "_type" : "ScreenVMFile",
                          "src" : 2,
                          "trackNumber" : 0,
                          "attributes" : {
                            "ident" : "Rec 4-22-2025-8-51-30-PM"
                          },
                          "parameters" : {
                            "geometryCrop0" : {
                              "type" : "double",
                              "defaultValue" : 0.0,
                              "interp" : "eioe"
                            },
                            "geometryCrop1" : {
                              "type" : "double",
                              "defaultValue" : 0.0,
                              "interp" : "eioe"
                            },
                            "geometryCrop2" : {
                              "type" : "double",
                              "defaultValue" : 0.0,
                              "interp" : "eioe"
                            },
                            "geometryCrop3" : {
                              "type" : "double",
                              "defaultValue" : 0.0,
                              "interp" : "eioe"
                            },
                            "cursorScale" : {
                              "type" : "double",
                              "defaultValue" : 0.0,
                              "interp" : "linr"
                            },
                            "cursorOpacity" : {
                              "type" : "double",
                              "defaultValue" : 0.0,
                              "interp" : "linr"
                            },
                            "cursorTrackLevel" : {
                              "type" : "double",
                              "defaultValue" : 0.0,
                              "interp" : "linr"
                            },
                            "smoothCursorAcrossEditDuration" : 0
                          },
                          "effects" : [

                          ],
                          "start" : 449937600000,
                          "duration" : 8961120000,
                          "mediaStart" : 509843040000,
                          "mediaDuration" : 8961120000,
                          "scalar" : 1,
                          "metadata" : {
                            "AutoAppliedSmartFocus" : "False",
                            "audiateLinkedSession" : "",
                            "clipSpeedAttribute" : { "type": "bool", "value" : false},
                            "colorAttribute" : { "type": "color", "value" : [ 0, 0, 0, 0]},
                            "default-height" : { "type": "double", "value" : 1036.8},
                            "default-translation0" : { "type": "double", "value" : 0.0},
                            "default-translation1" : { "type": "double", "value" : -194.4},
                            "default-translation2" : { "type": "double", "value" : 0.0},
                            "default-width" : { "type": "double", "value" : 1932.67572815534}
                          },
                          "animationTracks" : {

                          }
                        },
                        {
                          "id" : 361,
                          "_type" : "ScreenVMFile",
                          "src" : 2,
                          "trackNumber" : 0,
                          "attributes" : {
                            "ident" : "Rec 4-22-2025-8-51-30-PM"
                          },
                          "parameters" : {
                            "geometryCrop0" : {
                              "type" : "double",
                              "defaultValue" : 0.0,
                              "interp" : "eioe"
                            },
                            "geometryCrop1" : {
                              "type" : "double",
                              "defaultValue" : 0.0,
                              "interp" : "eioe"
                            },
                            "geometryCrop2" : {
                              "type" : "double",
                              "defaultValue" : 0.0,
                              "interp" : "eioe"
                            },
                            "geometryCrop3" : {
                              "type" : "double",
                              "defaultValue" : 0.0,
                              "interp" : "eioe"
                            },
                            "cursorScale" : {
                              "type" : "double",
                              "defaultValue" : 0.0,
                              "interp" : "linr"
                            },
                            "cursorOpacity" : {
                              "type" : "double",
                              "defaultValue" : 0.0,
                              "interp" : "linr"
                            },
                            "cursorTrackLevel" : {
                              "type" : "double",
                              "defaultValue" : 0.0,
                              "interp" : "linr"
                            },
                            "smoothCursorAcrossEditDuration" : 0
                          },
                          "effects" : [

                          ],
                          "start" : 458898720000,
                          "duration" : 472399200000,
                          "mediaStart" : 1416350880000,
                          "mediaDuration" : 472399200000,
                          "scalar" : 1,
                          "metadata" : {
                            "AutoAppliedSmartFocus" : "False",
                            "audiateLinkedSession" : "",
                            "clipSpeedAttribute" : { "type": "bool", "value" : false},
                            "colorAttribute" : { "type": "color", "value" : [ 0, 0, 0, 0]},
                            "default-height" : { "type": "double", "value" : 1036.8},
                            "default-translation0" : { "type": "double", "value" : 0.0},
                            "default-translation1" : { "type": "double", "value" : -194.4},
                            "default-translation2" : { "type": "double", "value" : 0.0},
                            "default-width" : { "type": "double", "value" : 1932.67572815534}
                          },
                          "animationTracks" : {

                          }
                        },
                        {
                          "id" : 362,
                          "_type" : "ScreenVMFile",
                          "src" : 2,
                          "trackNumber" : 0,
                          "attributes" : {
                            "ident" : "Rec 4-22-2025-8-51-30-PM"
                          },
                          "parameters" : {
                            "geometryCrop0" : {
                              "type" : "double",
                              "defaultValue" : 0.0,
                              "interp" : "eioe"
                            },
                            "geometryCrop1" : {
                              "type" : "double",
                              "defaultValue" : 0.0,
                              "interp" : "eioe"
                            },
                            "geometryCrop2" : {
                              "type" : "double",
                              "defaultValue" : 0.0,
                              "interp" : "eioe"
                            },
                            "geometryCrop3" : {
                              "type" : "double",
                              "defaultValue" : 0.0,
                              "interp" : "eioe"
                            },
                            "cursorScale" : {
                              "type" : "double",
                              "defaultValue" : 0.0,
                              "interp" : "linr"
                            },
                            "cursorOpacity" : {
                              "type" : "double",
                              "defaultValue" : 0.0,
                              "interp" : "linr"
                            },
                            "cursorTrackLevel" : {
                              "type" : "double",
                              "defaultValue" : 0.0,
                              "interp" : "linr"
                            },
                            "smoothCursorAcrossEditDuration" : 0
                          },
                          "effects" : [

                          ],
                          "start" : 931297920000,
                          "duration" : 15781920000,
                          "mediaStart" : 1888750080000,
                          "mediaDuration" : 15781920000,
                          "scalar" : 1,
                          "metadata" : {
                            "AutoAppliedSmartFocus" : "False",
                            "audiateLinkedSession" : "",
                            "clipSpeedAttribute" : { "type": "bool", "value" : false},
                            "colorAttribute" : { "type": "color", "value" : [ 0, 0, 0, 0]},
                            "default-height" : { "type": "double", "value" : 1036.8},
                            "default-translation0" : { "type": "double", "value" : 0.0},
                            "default-translation1" : { "type": "double", "value" : -194.4},
                            "default-translation2" : { "type": "double", "value" : 0.0},
                            "default-width" : { "type": "double", "value" : 1932.67572815534}
                          },
                          "animationTracks" : {

                          }
                        },
                        {
                          "id" : 363,
                          "_type" : "ScreenVMFile",
                          "src" : 2,
                          "trackNumber" : 0,
                          "attributes" : {
                            "ident" : "Rec 4-22-2025-8-51-30-PM"
                          },
                          "parameters" : {
                            "geometryCrop0" : {
                              "type" : "double",
                              "defaultValue" : 0.0,
                              "interp" : "eioe"
                            },
                            "geometryCrop1" : {
                              "type" : "double",
                              "defaultValue" : 0.0,
                              "interp" : "eioe"
                            },
                            "geometryCrop2" : {
                              "type" : "double",
                              "defaultValue" : 0.0,
                              "interp" : "eioe"
                            },
                            "geometryCrop3" : {
                              "type" : "double",
                              "defaultValue" : 0.0,
                              "interp" : "eioe"
                            },
                            "cursorScale" : {
                              "type" : "double",
                              "defaultValue" : 0.0,
                              "interp" : "linr"
                            },
                            "cursorOpacity" : {
                              "type" : "double",
                              "defaultValue" : 0.0,
                              "interp" : "linr"
                            },
                            "cursorTrackLevel" : {
                              "type" : "double",
                              "defaultValue" : 0.0,
                              "interp" : "linr"
                            },
                            "smoothCursorAcrossEditDuration" : 0
                          },
                          "effects" : [

                          ],
                          "start" : 947079840000,
                          "duration" : 7502880000,
                          "mediaStart" : 1904532000000,
                          "mediaDuration" : 7502880000,
                          "scalar" : 1,
                          "metadata" : {
                            "AutoAppliedSmartFocus" : "False",
                            "audiateLinkedSession" : "",
                            "clipSpeedAttribute" : { "type": "bool", "value" : false},
                            "colorAttribute" : { "type": "color", "value" : [ 0, 0, 0, 0]},
                            "default-height" : { "type": "double", "value" : 1036.8},
                            "default-translation0" : { "type": "double", "value" : 0.0},
                            "default-translation1" : { "type": "double", "value" : -194.4},
                            "default-translation2" : { "type": "double", "value" : 0.0},
                            "default-width" : { "type": "double", "value" : 1932.67572815534}
                          },
                          "animationTracks" : {

                          }
                        },
                        {
                          "id" : 364,
                          "_type" : "ScreenVMFile",
                          "src" : 2,
                          "trackNumber" : 0,
                          "attributes" : {
                            "ident" : "Rec 4-22-2025-8-51-30-PM"
                          },
                          "parameters" : {
                            "geometryCrop0" : {
                              "type" : "double",
                              "defaultValue" : 0.0,
                              "interp" : "eioe"
                            },
                            "geometryCrop1" : {
                              "type" : "double",
                              "defaultValue" : 0.0,
                              "interp" : "eioe"
                            },
                            "geometryCrop2" : {
                              "type" : "double",
                              "defaultValue" : 0.0,
                              "interp" : "eioe"
                            },
                            "geometryCrop3" : {
                              "type" : "double",
                              "defaultValue" : 0.0,
                              "interp" : "eioe"
                            },
                            "cursorScale" : {
                              "type" : "double",
                              "defaultValue" : 0.0,
                              "interp" : "linr"
                            },
                            "cursorOpacity" : {
                              "type" : "double",
                              "defaultValue" : 0.0,
                              "interp" : "linr"
                            },
                            "cursorTrackLevel" : {
                              "type" : "double",
                              "defaultValue" : 0.0,
                              "interp" : "linr"
                            },
                            "smoothCursorAcrossEditDuration" : 0
                          },
                          "effects" : [

                          ],
                          "start" : 954582720000,
                          "duration" : 13053600000,
                          "mediaStart" : 1912034880000,
                          "mediaDuration" : 13053600000,
                          "scalar" : 1,
                          "metadata" : {
                            "AutoAppliedSmartFocus" : "False",
                            "audiateLinkedSession" : "",
                            "clipSpeedAttribute" : { "type": "bool", "value" : false},
                            "colorAttribute" : { "type": "color", "value" : [ 0, 0, 0, 0]},
                            "default-height" : { "type": "double", "value" : 1036.8},
                            "default-translation0" : { "type": "double", "value" : 0.0},
                            "default-translation1" : { "type": "double", "value" : -194.4},
                            "default-translation2" : { "type": "double", "value" : 0.0},
                            "default-width" : { "type": "double", "value" : 1932.67572815534}
                          },
                          "animationTracks" : {

                          }
                        },
                        {
                          "id" : 365,
                          "_type" : "ScreenVMFile",
                          "src" : 2,
                          "trackNumber" : 0,
                          "attributes" : {
                            "ident" : "Rec 4-22-2025-8-51-30-PM"
                          },
                          "parameters" : {
                            "geometryCrop0" : {
                              "type" : "double",
                              "defaultValue" : 0.0,
                              "interp" : "eioe"
                            },
                            "geometryCrop1" : {
                              "type" : "double",
                              "defaultValue" : 0.0,
                              "interp" : "eioe"
                            },
                            "geometryCrop2" : {
                              "type" : "double",
                              "defaultValue" : 0.0,
                              "interp" : "eioe"
                            },
                            "geometryCrop3" : {
                              "type" : "double",
                              "defaultValue" : 0.0,
                              "interp" : "eioe"
                            },
                            "cursorScale" : {
                              "type" : "double",
                              "defaultValue" : 0.0,
                              "interp" : "linr"
                            },
                            "cursorOpacity" : {
                              "type" : "double",
                              "defaultValue" : 0.0,
                              "interp" : "linr"
                            },
                            "cursorTrackLevel" : {
                              "type" : "double",
                              "defaultValue" : 0.0,
                              "interp" : "linr"
                            },
                            "smoothCursorAcrossEditDuration" : 0
                          },
                          "effects" : [

                          ],
                          "start" : 967636320000,
                          "duration" : 7691040000,
                          "mediaStart" : 1925088480000,
                          "mediaDuration" : 7691040000,
                          "scalar" : 1,
                          "metadata" : {
                            "AutoAppliedSmartFocus" : "False",
                            "audiateLinkedSession" : "",
                            "clipSpeedAttribute" : { "type": "bool", "value" : false},
                            "colorAttribute" : { "type": "color", "value" : [ 0, 0, 0, 0]},
                            "default-height" : { "type": "double", "value" : 1036.8},
                            "default-translation0" : { "type": "double", "value" : 0.0},
                            "default-translation1" : { "type": "double", "value" : -194.4},
                            "default-translation2" : { "type": "double", "value" : 0.0},
                            "default-width" : { "type": "double", "value" : 1932.67572815534}
                          },
                          "animationTracks" : {

                          }
                        },
                        {
                          "id" : 366,
                          "_type" : "ScreenVMFile",
                          "src" : 2,
                          "trackNumber" : 0,
                          "attributes" : {
                            "ident" : "Rec 4-22-2025-8-51-30-PM"
                          },
                          "parameters" : {
                            "geometryCrop0" : {
                              "type" : "double",
                              "defaultValue" : 0.0,
                              "interp" : "eioe"
                            },
                            "geometryCrop1" : {
                              "type" : "double",
                              "defaultValue" : 0.0,
                              "interp" : "eioe"
                            },
                            "geometryCrop2" : {
                              "type" : "double",
                              "defaultValue" : 0.0,
                              "interp" : "eioe"
                            },
                            "geometryCrop3" : {
                              "type" : "double",
                              "defaultValue" : 0.0,
                              "interp" : "eioe"
                            },
                            "cursorScale" : {
                              "type" : "double",
                              "defaultValue" : 0.0,
                              "interp" : "linr"
                            },
                            "cursorOpacity" : {
                              "type" : "double",
                              "defaultValue" : 0.0,
                              "interp" : "linr"
                            },
                            "cursorTrackLevel" : {
                              "type" : "double",
                              "defaultValue" : 0.0,
                              "interp" : "linr"
                            },
                            "smoothCursorAcrossEditDuration" : 0
                          },
                          "effects" : [

                          ],
                          "start" : 975327360000,
                          "duration" : 9807840000,
                          "mediaStart" : 1932779520000,
                          "mediaDuration" : 9807840000,
                          "scalar" : 1,
                          "metadata" : {
                            "AutoAppliedSmartFocus" : "False",
                            "audiateLinkedSession" : "",
                            "clipSpeedAttribute" : { "type": "bool", "value" : false},
                            "colorAttribute" : { "type": "color", "value" : [ 0, 0, 0, 0]},
                            "default-height" : { "type": "double", "value" : 1036.8},
                            "default-translation0" : { "type": "double", "value" : 0.0},
                            "default-translation1" : { "type": "double", "value" : -194.4},
                            "default-translation2" : { "type": "double", "value" : 0.0},
                            "default-width" : { "type": "double", "value" : 1932.67572815534}
                          },
                          "animationTracks" : {

                          }
                        },
                        {
                          "id" : 367,
                          "_type" : "ScreenVMFile",
                          "src" : 2,
                          "trackNumber" : 0,
                          "attributes" : {
                            "ident" : "Rec 4-22-2025-8-51-30-PM"
                          },
                          "parameters" : {
                            "geometryCrop0" : {
                              "type" : "double",
                              "defaultValue" : 0.0,
                              "interp" : "eioe"
                            },
                            "geometryCrop1" : {
                              "type" : "double",
                              "defaultValue" : 0.0,
                              "interp" : "eioe"
                            },
                            "geometryCrop2" : {
                              "type" : "double",
                              "defaultValue" : 0.0,
                              "interp" : "eioe"
                            },
                            "geometryCrop3" : {
                              "type" : "double",
                              "defaultValue" : 0.0,
                              "interp" : "eioe"
                            },
                            "cursorScale" : {
                              "type" : "double",
                              "defaultValue" : 0.0,
                              "interp" : "linr"
                            },
                            "cursorOpacity" : {
                              "type" : "double",
                              "defaultValue" : 0.0,
                              "interp" : "linr"
                            },
                            "cursorTrackLevel" : {
                              "type" : "double",
                              "defaultValue" : 0.0,
                              "interp" : "linr"
                            },
                            "smoothCursorAcrossEditDuration" : 0
                          },
                          "effects" : [

                          ],
                          "start" : 985135200000,
                          "duration" : 20391840000,
                          "mediaStart" : 1942587360000,
                          "mediaDuration" : 20391840000,
                          "scalar" : 1,
                          "metadata" : {
                            "AutoAppliedSmartFocus" : "False",
                            "audiateLinkedSession" : "",
                            "clipSpeedAttribute" : { "type": "bool", "value" : false},
                            "colorAttribute" : { "type": "color", "value" : [ 0, 0, 0, 0]},
                            "default-height" : { "type": "double", "value" : 1036.8},
                            "default-translation0" : { "type": "double", "value" : 0.0},
                            "default-translation1" : { "type": "double", "value" : -194.4},
                            "default-translation2" : { "type": "double", "value" : 0.0},
                            "default-width" : { "type": "double", "value" : 1932.67572815534}
                          },
                          "animationTracks" : {

                          }
                        },
                        {
                          "id" : 368,
                          "_type" : "ScreenVMFile",
                          "src" : 2,
                          "trackNumber" : 0,
                          "attributes" : {
                            "ident" : "Rec 4-22-2025-8-51-30-PM"
                          },
                          "parameters" : {
                            "geometryCrop0" : {
                              "type" : "double",
                              "defaultValue" : 0.0,
                              "interp" : "eioe"
                            },
                            "geometryCrop1" : {
                              "type" : "double",
                              "defaultValue" : 0.0,
                              "interp" : "eioe"
                            },
                            "geometryCrop2" : {
                              "type" : "double",
                              "defaultValue" : 0.0,
                              "interp" : "eioe"
                            },
                            "geometryCrop3" : {
                              "type" : "double",
                              "defaultValue" : 0.0,
                              "interp" : "eioe"
                            },
                            "cursorScale" : {
                              "type" : "double",
                              "defaultValue" : 0.0,
                              "interp" : "linr"
                            },
                            "cursorOpacity" : {
                              "type" : "double",
                              "defaultValue" : 0.0,
                              "interp" : "linr"
                            },
                            "cursorTrackLevel" : {
                              "type" : "double",
                              "defaultValue" : 0.0,
                              "interp" : "linr"
                            },
                            "smoothCursorAcrossEditDuration" : 0
                          },
                          "effects" : [

                          ],
                          "start" : 1005527040000,
                          "duration" : 8914080000,
                          "mediaStart" : 1962979200000,
                          "mediaDuration" : 8914080000,
                          "scalar" : 1,
                          "metadata" : {
                            "AutoAppliedSmartFocus" : "False",
                            "audiateLinkedSession" : "",
                            "clipSpeedAttribute" : { "type": "bool", "value" : false},
                            "colorAttribute" : { "type": "color", "value" : [ 0, 0, 0, 0]},
                            "default-height" : { "type": "double", "value" : 1036.8},
                            "default-translation0" : { "type": "double", "value" : 0.0},
                            "default-translation1" : { "type": "double", "value" : -194.4},
                            "default-translation2" : { "type": "double", "value" : 0.0},
                            "default-width" : { "type": "double", "value" : 1932.67572815534}
                          },
                          "animationTracks" : {

                          }
                        },
                        {
                          "id" : 369,
                          "_type" : "ScreenVMFile",
                          "src" : 2,
                          "trackNumber" : 0,
                          "attributes" : {
                            "ident" : "Rec 4-22-2025-8-51-30-PM"
                          },
                          "parameters" : {
                            "geometryCrop0" : {
                              "type" : "double",
                              "defaultValue" : 0.0,
                              "interp" : "eioe"
                            },
                            "geometryCrop1" : {
                              "type" : "double",
                              "defaultValue" : 0.0,
                              "interp" : "eioe"
                            },
                            "geometryCrop2" : {
                              "type" : "double",
                              "defaultValue" : 0.0,
                              "interp" : "eioe"
                            },
                            "geometryCrop3" : {
                              "type" : "double",
                              "defaultValue" : 0.0,
                              "interp" : "eioe"
                            },
                            "cursorScale" : {
                              "type" : "double",
                              "defaultValue" : 0.0,
                              "interp" : "linr"
                            },
                            "cursorOpacity" : {
                              "type" : "double",
                              "defaultValue" : 0.0,
                              "interp" : "linr"
                            },
                            "cursorTrackLevel" : {
                              "type" : "double",
                              "defaultValue" : 0.0,
                              "interp" : "linr"
                            },
                            "smoothCursorAcrossEditDuration" : 0
                          },
                          "effects" : [

                          ],
                          "start" : 1014441120000,
                          "duration" : 3034080000,
                          "mediaStart" : 1971893280000,
                          "mediaDuration" : 3034080000,
                          "scalar" : 1,
                          "metadata" : {
                            "AutoAppliedSmartFocus" : "False",
                            "audiateLinkedSession" : "",
                            "clipSpeedAttribute" : { "type": "bool", "value" : false},
                            "colorAttribute" : { "type": "color", "value" : [ 0, 0, 0, 0]},
                            "default-height" : { "type": "double", "value" : 1036.8},
                            "default-translation0" : { "type": "double", "value" : 0.0},
                            "default-translation1" : { "type": "double", "value" : -194.4},
                            "default-translation2" : { "type": "double", "value" : 0.0},
                            "default-width" : { "type": "double", "value" : 1932.67572815534}
                          },
                          "animationTracks" : {

                          }
                        },
                        {
                          "id" : 370,
                          "_type" : "ScreenVMFile",
                          "src" : 2,
                          "trackNumber" : 0,
                          "attributes" : {
                            "ident" : "Rec 4-22-2025-8-51-30-PM"
                          },
                          "parameters" : {
                            "geometryCrop0" : {
                              "type" : "double",
                              "defaultValue" : 0.0,
                              "interp" : "eioe"
                            },
                            "geometryCrop1" : {
                              "type" : "double",
                              "defaultValue" : 0.0,
                              "interp" : "eioe"
                            },
                            "geometryCrop2" : {
                              "type" : "double",
                              "defaultValue" : 0.0,
                              "interp" : "eioe"
                            },
                            "geometryCrop3" : {
                              "type" : "double",
                              "defaultValue" : 0.0,
                              "interp" : "eioe"
                            },
                            "cursorScale" : {
                              "type" : "double",
                              "defaultValue" : 0.0,
                              "interp" : "linr"
                            },
                            "cursorOpacity" : {
                              "type" : "double",
                              "defaultValue" : 0.0,
                              "interp" : "linr"
                            },
                            "cursorTrackLevel" : {
                              "type" : "double",
                              "defaultValue" : 0.0,
                              "interp" : "linr"
                            },
                            "smoothCursorAcrossEditDuration" : 0
                          },
                          "effects" : [

                          ],
                          "start" : 1017475200000,
                          "duration" : 22649760000,
                          "mediaStart" : 1974927360000,
                          "mediaDuration" : 22649760000,
                          "scalar" : 1,
                          "metadata" : {
                            "AutoAppliedSmartFocus" : "False",
                            "audiateLinkedSession" : "",
                            "clipSpeedAttribute" : { "type": "bool", "value" : false},
                            "colorAttribute" : { "type": "color", "value" : [ 0, 0, 0, 0]},
                            "default-height" : { "type": "double", "value" : 1036.8},
                            "default-translation0" : { "type": "double", "value" : 0.0},
                            "default-translation1" : { "type": "double", "value" : -194.4},
                            "default-translation2" : { "type": "double", "value" : 0.0},
                            "default-width" : { "type": "double", "value" : 1932.67572815534}
                          },
                          "animationTracks" : {

                          }
                        },
                        {
                          "id" : 371,
                          "_type" : "ScreenVMFile",
                          "src" : 2,
                          "trackNumber" : 0,
                          "attributes" : {
                            "ident" : "Rec 4-22-2025-8-51-30-PM"
                          },
                          "parameters" : {
                            "geometryCrop0" : {
                              "type" : "double",
                              "defaultValue" : 0.0,
                              "interp" : "eioe"
                            },
                            "geometryCrop1" : {
                              "type" : "double",
                              "defaultValue" : 0.0,
                              "interp" : "eioe"
                            },
                            "geometryCrop2" : {
                              "type" : "double",
                              "defaultValue" : 0.0,
                              "interp" : "eioe"
                            },
                            "geometryCrop3" : {
                              "type" : "double",
                              "defaultValue" : 0.0,
                              "interp" : "eioe"
                            },
                            "cursorScale" : {
                              "type" : "double",
                              "defaultValue" : 0.0,
                              "interp" : "linr"
                            },
                            "cursorOpacity" : {
                              "type" : "double",
                              "defaultValue" : 0.0,
                              "interp" : "linr"
                            },
                            "cursorTrackLevel" : {
                              "type" : "double",
                              "defaultValue" : 0.0,
                              "interp" : "linr"
                            },
                            "smoothCursorAcrossEditDuration" : 0
                          },
                          "effects" : [

                          ],
                          "start" : 1040124960000,
                          "duration" : 215419680000,
                          "mediaStart" : 2018886240000,
                          "mediaDuration" : 215419680000,
                          "scalar" : 1,
                          "metadata" : {
                            "AutoAppliedSmartFocus" : "False",
                            "audiateLinkedSession" : "",
                            "clipSpeedAttribute" : { "type": "bool", "value" : false},
                            "colorAttribute" : { "type": "color", "value" : [ 0, 0, 0, 0]},
                            "default-height" : { "type": "double", "value" : 1036.8},
                            "default-translation0" : { "type": "double", "value" : 0.0},
                            "default-translation1" : { "type": "double", "value" : -194.4},
                            "default-translation2" : { "type": "double", "value" : 0.0},
                            "default-width" : { "type": "double", "value" : 1932.67572815534}
                          },
                          "animationTracks" : {

                          }
                        },
                        {
                          "id" : 372,
                          "_type" : "ScreenVMFile",
                          "src" : 2,
                          "trackNumber" : 0,
                          "attributes" : {
                            "ident" : "Rec 4-22-2025-8-51-30-PM"
                          },
                          "parameters" : {
                            "geometryCrop0" : {
                              "type" : "double",
                              "defaultValue" : 0.0,
                              "interp" : "eioe"
                            },
                            "geometryCrop1" : {
                              "type" : "double",
                              "defaultValue" : 0.0,
                              "interp" : "eioe"
                            },
                            "geometryCrop2" : {
                              "type" : "double",
                              "defaultValue" : 0.0,
                              "interp" : "eioe"
                            },
                            "geometryCrop3" : {
                              "type" : "double",
                              "defaultValue" : 0.0,
                              "interp" : "eioe"
                            },
                            "cursorScale" : {
                              "type" : "double",
                              "defaultValue" : 0.0,
                              "interp" : "linr"
                            },
                            "cursorOpacity" : {
                              "type" : "double",
                              "defaultValue" : 0.0,
                              "interp" : "linr"
                            },
                            "cursorTrackLevel" : {
                              "type" : "double",
                              "defaultValue" : 0.0,
                              "interp" : "linr"
                            },
                            "smoothCursorAcrossEditDuration" : 0
                          },
                          "effects" : [

                          ],
                          "start" : 1255544640000,
                          "duration" : 786955680000,
                          "mediaStart" : 2257778880000,
                          "mediaDuration" : 786955680000,
                          "scalar" : 1,
                          "metadata" : {
                            "AutoAppliedSmartFocus" : "False",
                            "audiateLinkedSession" : "",
                            "clipSpeedAttribute" : { "type": "bool", "value" : false},
                            "colorAttribute" : { "type": "color", "value" : [ 0, 0, 0, 0]},
                            "default-height" : { "type": "double", "value" : 1036.8},
                            "default-translation0" : { "type": "double", "value" : 0.0},
                            "default-translation1" : { "type": "double", "value" : -194.4},
                            "default-translation2" : { "type": "double", "value" : 0.0},
                            "default-width" : { "type": "double", "value" : 1932.67572815534}
                          },
                          "animationTracks" : {

                          }
                        },
                        {
                          "id" : 373,
                          "_type" : "ScreenVMFile",
                          "src" : 2,
                          "trackNumber" : 0,
                          "attributes" : {
                            "ident" : "Rec 4-22-2025-8-51-30-PM"
                          },
                          "parameters" : {
                            "geometryCrop0" : {
                              "type" : "double",
                              "defaultValue" : 0.0,
                              "interp" : "eioe"
                            },
                            "geometryCrop1" : {
                              "type" : "double",
                              "defaultValue" : 0.0,
                              "interp" : "eioe"
                            },
                            "geometryCrop2" : {
                              "type" : "double",
                              "defaultValue" : 0.0,
                              "interp" : "eioe"
                            },
                            "geometryCrop3" : {
                              "type" : "double",
                              "defaultValue" : 0.0,
                              "interp" : "eioe"
                            },
                            "cursorScale" : {
                              "type" : "double",
                              "defaultValue" : 0.0,
                              "interp" : "linr"
                            },
                            "cursorOpacity" : {
                              "type" : "double",
                              "defaultValue" : 0.0,
                              "interp" : "linr"
                            },
                            "cursorTrackLevel" : {
                              "type" : "double",
                              "defaultValue" : 0.0,
                              "interp" : "linr"
                            },
                            "smoothCursorAcrossEditDuration" : 0
                          },
                          "effects" : [

                          ],
                          "start" : 2042500320000,
                          "duration" : 20768160000,
                          "mediaStart" : 3047580480000,
                          "mediaDuration" : 20768160000,
                          "scalar" : 1,
                          "metadata" : {
                            "AutoAppliedSmartFocus" : "False",
                            "audiateLinkedSession" : "",
                            "clipSpeedAttribute" : { "type": "bool", "value" : false},
                            "colorAttribute" : { "type": "color", "value" : [ 0, 0, 0, 0]},
                            "default-height" : { "type": "double", "value" : 1036.8},
                            "default-translation0" : { "type": "double", "value" : 0.0},
                            "default-translation1" : { "type": "double", "value" : -194.4},
                            "default-translation2" : { "type": "double", "value" : 0.0},
                            "default-width" : { "type": "double", "value" : 1932.67572815534}
                          },
                          "animationTracks" : {

                          }
                        },
                        {
                          "id" : 374,
                          "_type" : "ScreenVMFile",
                          "src" : 2,
                          "trackNumber" : 0,
                          "attributes" : {
                            "ident" : "Rec 4-22-2025-8-51-30-PM"
                          },
                          "parameters" : {
                            "geometryCrop0" : {
                              "type" : "double",
                              "defaultValue" : 0.0,
                              "interp" : "eioe"
                            },
                            "geometryCrop1" : {
                              "type" : "double",
                              "defaultValue" : 0.0,
                              "interp" : "eioe"
                            },
                            "geometryCrop2" : {
                              "type" : "double",
                              "defaultValue" : 0.0,
                              "interp" : "eioe"
                            },
                            "geometryCrop3" : {
                              "type" : "double",
                              "defaultValue" : 0.0,
                              "interp" : "eioe"
                            },
                            "cursorScale" : {
                              "type" : "double",
                              "defaultValue" : 0.0,
                              "interp" : "linr"
                            },
                            "cursorOpacity" : {
                              "type" : "double",
                              "defaultValue" : 0.0,
                              "interp" : "linr"
                            },
                            "cursorTrackLevel" : {
                              "type" : "double",
                              "defaultValue" : 0.0,
                              "interp" : "linr"
                            },
                            "smoothCursorAcrossEditDuration" : 0
                          },
                          "effects" : [

                          ],
                          "start" : 2063268480000,
                          "duration" : 343039200000,
                          "mediaStart" : 3138932160000,
                          "mediaDuration" : 343039200000,
                          "scalar" : 1,
                          "metadata" : {
                            "AutoAppliedSmartFocus" : "False",
                            "audiateLinkedSession" : "",
                            "clipSpeedAttribute" : { "type": "bool", "value" : false},
                            "colorAttribute" : { "type": "color", "value" : [ 0, 0, 0, 0]},
                            "default-height" : { "type": "double", "value" : 1036.8},
                            "default-translation0" : { "type": "double", "value" : 0.0},
                            "default-translation1" : { "type": "double", "value" : -194.4},
                            "default-translation2" : { "type": "double", "value" : 0.0},
                            "default-width" : { "type": "double", "value" : 1932.67572815534}
                          },
                          "animationTracks" : {

                          }
                        }
                    ],
                    "effects" : [
                        {
                          "effectName" : "CursorColor",
                          "bypassed" : false,
                          "category" : "categoryCursorEffects",
                          "parameters" : {
                            "intensity" : 1.0,
                            "desaturation" : 0.0,
                            "colorLumaCutoff" : 1.0,
                            "color-alpha" : 1.0,
                            "color-red" : 1.0,
                            "color-green" : 0.8980392157,
                            "color-blue" : 0.1215686275,
                            "secondColor-red" : 0.0,
                            "secondColor-green" : 0.0,
                            "secondColor-blue" : 0.0,
                            "secondColor-alpha" : 1.0,
                            "secondColorLumaCutoff" : 0.0,
                            "channel" : 0,
                            "shadowRampStart" : 0.0,
                            "shadowRampEnd" : 0.0,
                            "highlightRampStart" : 1.0,
                            "highlightRampEnd" : 1.0
                          }
                        },
                        {
                          "effectName" : "CursorShadow",
                          "bypassed" : false,
                          "category" : "categoryCursorEffects",
                          "parameters" : {
                            "angle" : 3.92699081698724,
                            "enabled" : 1,
                            "offset" : 5.0,
                            "blur" : 2.0,
                            "opacity" : 0.25,
                            "color-red" : 0.0,
                            "color-green" : 0.0,
                            "color-blue" : 0.0,
                            "color-alpha" : 1.0
                          }
                        },
                        {
                          "effectName" : "CursorHilight",
                          "bypassed" : false,
                          "category" : "categoryCursorEffects",
                          "parameters" : {
                            "radius" : 50.0,
                            "color-red" : 1.0,
                            "color-green" : 1.0,
                            "color-blue" : 0.0,
                            "color-alpha" : 0.75,
                            "blur" : 0.1
                          }
                        }
                    ],
                    "start" : 93797760000,
                    "duration" : 705600000,
                    "mediaStart" : 916692000000,
                    "mediaDuration" : 7120680000,
                    "scalar" : "120/1211",
                    "metadata" : {
                      "AutoAppliedSmartFocus" : "False",
                      "audiateLinkedSession" : "",
                      "clipSpeedAttribute" : { "type": "bool", "value" : true},
                      "colorAttribute" : { "type": "color", "value" : [ 0, 0, 0, 0]},
                      "default-anchor0" : { "type": "double", "value" : 0.0},
                      "default-anchor1" : { "type": "double", "value" : 0.0},
                      "default-anchor2" : { "type": "double", "value" : 0.0},
                      "default-height" : { "type": "double", "value" : 1036.8},
                      "default-rotation0" : { "type": "double", "value" : 0.0},
                      "default-rotation1" : { "type": "double", "value" : 0.0},
                      "default-rotation2" : { "type": "double", "value" : 0.0},
                      "default-scale0" : { "type": "double", "value" : 0.503300970873786},
                      "default-scale1" : { "type": "double", "value" : 0.503300970873786},
                      "default-scale2" : { "type": "double", "value" : 1.0},
                      "default-shear0" : { "type": "double", "value" : 0.0},
                      "default-shear1" : { "type": "double", "value" : 0.0},
                      "default-shear2" : { "type": "double", "value" : 0.0},
                      "default-translation0" : { "type": "double", "value" : 0.0},
                      "default-translation1" : { "type": "double", "value" : -194.4},
                      "default-translation2" : { "type": "double", "value" : 0.0},
                      "default-width" : { "type": "double", "value" : 1932.67572815534}
                    },
                    "animationTracks" : {

                    }
                  },
                  {
                    "id" : 375,
                    "_type" : "StitchedMedia",
                    "minMediaStart" : 0,
                    "attributes" : {
                      "ident" : "Rec 4-22-2025-8-51-30-PM",
                      "gain" : 1.0,
                      "mixToMono" : false,
                      "loudnessNormalization" : true,
                      "sourceFileOffset" : 0
                    },
                    "parameters" : {
                      "translation0" : {
                        "type" : "double",
                        "defaultValue" : 6.33786407766917,
                        "keyframes" : [
                          {
                            "endTime" : 946350720000,
                            "time" : 945645120000,
                            "value" : 1529.54135844084,
                            "duration" : 705600000
                          },
                          {
                            "endTime" : 946938720000,
                            "time" : 946350720000,
                            "value" : 2.8421709430404e-14,
                            "duration" : 588000000
                          },
                          {
                            "endTime" : 950208000000,
                            "time" : 949502400000,
                            "value" : 1769.53733046201,
                            "duration" : 705600000
                          },
                          {
                            "endTime" : 951572160000,
                            "time" : 950866560000,
                            "value" : 0.0,
                            "duration" : 705600000
                          }
                        ]
                      },
                      "translation1" : {
                        "type" : "double",
                        "defaultValue" : -2.8421709430404e-14,
                        "keyframes" : [
                          {
                            "endTime" : 946350720000,
                            "time" : 945645120000,
                            "value" : 1155.43533032585,
                            "duration" : 705600000
                          },
                          {
                            "endTime" : 946938720000,
                            "time" : 946350720000,
                            "value" : 4.2632564145606e-14,
                            "duration" : 588000000
                          },
                          {
                            "endTime" : 950208000000,
                            "time" : 949502400000,
                            "value" : 1222.37766654561,
                            "duration" : 705600000
                          },
                          {
                            "endTime" : 951572160000,
                            "time" : 950866560000,
                            "value" : -5.6843418860808e-14,
                            "duration" : 705600000
                          }
                        ]
                      },
                      "scale0" : {
                        "type" : "double",
                        "defaultValue" : 0.503300970873786,
                        "keyframes" : [
                          {
                            "endTime" : 946350720000,
                            "time" : 945645120000,
                            "value" : 2.23861295044012,
                            "duration" : 705600000
                          },
                          {
                            "endTime" : 946938720000,
                            "time" : 946350720000,
                            "value" : 0.5,
                            "duration" : 588000000
                          },
                          {
                            "endTime" : 950208000000,
                            "time" : 949502400000,
                            "value" : 2.05000008547071,
                            "duration" : 705600000
                          },
                          {
                            "endTime" : 951572160000,
                            "time" : 950866560000,
                            "value" : 0.5,
                            "duration" : 705600000
                          }
                        ]
                      },
                      "scale1" : {
                        "type" : "double",
                        "defaultValue" : 0.503300970873786,
                        "keyframes" : [
                          {
                            "endTime" : 946350720000,
                            "time" : 945645120000,
                            "value" : 2.23861378180461,
                            "duration" : 705600000
                          },
                          {
                            "endTime" : 946938720000,
                            "time" : 946350720000,
                            "value" : 0.5,
                            "duration" : 588000000
                          },
                          {
                            "endTime" : 950208000000,
                            "time" : 949502400000,
                            "value" : 2.05000025406246,
                            "duration" : 705600000
                          },
                          {
                            "endTime" : 951572160000,
                            "time" : 950866560000,
                            "value" : 0.500000041119937,
                            "duration" : 705600000
                          }
                        ]
                      },
                      "scale2" : {
                        "type" : "double",
                        "defaultValue" : 1.0,
                        "keyframes" : [
                          {
                            "endTime" : 946938720000,
                            "time" : 946350720000,
                            "value" : 0.5,
                            "duration" : 588000000
                          },
                          {
                            "endTime" : 951572160000,
                            "time" : 950866560000,
                            "value" : 0.121951214427679,
                            "duration" : 705600000
                          }
                        ]
                      },
                      "geometryCrop0" : 0.0,
                      "geometryCrop1" : 0.0,
                      "geometryCrop2" : 0.0,
                      "geometryCrop3" : 0.0,
                      "cursorOpacity" : 1.0,
                      "cursorTrackLevel" : 0.0,
                      "cursorScale" : {
                        "type" : "double",
                        "defaultValue" : 5.0,
                        "keyframes" : [
                          {
                            "endTime" : 946350720000,
                            "time" : 945645120000,
                            "value" : 5.0,
                            "duration" : 705600000
                          },
                          {
                            "endTime" : 946938720000,
                            "time" : 946350720000,
                            "value" : 5.0,
                            "duration" : 588000000
                          },
                          {
                            "endTime" : 950208000000,
                            "time" : 949502400000,
                            "value" : 5.0,
                            "duration" : 705600000
                          },
                          {
                            "endTime" : 951572160000,
                            "time" : 950866560000,
                            "value" : 5.0,
                            "duration" : 705600000
                          }
                        ]
                      },
                      "smoothCursorAcrossEditDuration" : 0
                    },
                    "medias" : [
                        {
                          "id" : 376,
                          "_type" : "ScreenVMFile",
                          "src" : 2,
                          "trackNumber" : 0,
                          "attributes" : {
                            "ident" : "Rec 4-22-2025-8-51-30-PM"
                          },
                          "parameters" : {
                            "geometryCrop0" : {
                              "type" : "double",
                              "defaultValue" : 0.0,
                              "interp" : "eioe"
                            },
                            "geometryCrop1" : {
                              "type" : "double",
                              "defaultValue" : 0.0,
                              "interp" : "eioe"
                            },
                            "geometryCrop2" : {
                              "type" : "double",
                              "defaultValue" : 0.0,
                              "interp" : "eioe"
                            },
                            "geometryCrop3" : {
                              "type" : "double",
                              "defaultValue" : 0.0,
                              "interp" : "eioe"
                            },
                            "cursorScale" : {
                              "type" : "double",
                              "defaultValue" : 0.0,
                              "interp" : "linr"
                            },
                            "cursorOpacity" : {
                              "type" : "double",
                              "defaultValue" : 0.0,
                              "interp" : "linr"
                            },
                            "cursorTrackLevel" : {
                              "type" : "double",
                              "defaultValue" : 0.0,
                              "interp" : "linr"
                            },
                            "smoothCursorAcrossEditDuration" : 0
                          },
                          "effects" : [

                          ],
                          "start" : 0,
                          "duration" : 50991360000,
                          "mediaStart" : 0,
                          "mediaDuration" : 50991360000,
                          "scalar" : 1,
                          "metadata" : {
                            "AutoAppliedSmartFocus" : "False",
                            "audiateLinkedSession" : "",
                            "clipSpeedAttribute" : { "type": "bool", "value" : false},
                            "colorAttribute" : { "type": "color", "value" : [ 0, 0, 0, 0]},
                            "default-height" : { "type": "double", "value" : 1036.8},
                            "default-translation0" : { "type": "double", "value" : 0.0},
                            "default-translation1" : { "type": "double", "value" : -194.4},
                            "default-translation2" : { "type": "double", "value" : 0.0},
                            "default-width" : { "type": "double", "value" : 1932.67572815534}
                          },
                          "animationTracks" : {

                          }
                        },
                        {
                          "id" : 377,
                          "_type" : "ScreenVMFile",
                          "src" : 2,
                          "trackNumber" : 0,
                          "attributes" : {
                            "ident" : "Rec 4-22-2025-8-51-30-PM"
                          },
                          "parameters" : {
                            "geometryCrop0" : {
                              "type" : "double",
                              "defaultValue" : 0.0,
                              "interp" : "eioe"
                            },
                            "geometryCrop1" : {
                              "type" : "double",
                              "defaultValue" : 0.0,
                              "interp" : "eioe"
                            },
                            "geometryCrop2" : {
                              "type" : "double",
                              "defaultValue" : 0.0,
                              "interp" : "eioe"
                            },
                            "geometryCrop3" : {
                              "type" : "double",
                              "defaultValue" : 0.0,
                              "interp" : "eioe"
                            },
                            "cursorScale" : {
                              "type" : "double",
                              "defaultValue" : 0.0,
                              "interp" : "linr"
                            },
                            "cursorOpacity" : {
                              "type" : "double",
                              "defaultValue" : 0.0,
                              "interp" : "linr"
                            },
                            "cursorTrackLevel" : {
                              "type" : "double",
                              "defaultValue" : 0.0,
                              "interp" : "linr"
                            },
                            "smoothCursorAcrossEditDuration" : 0
                          },
                          "effects" : [

                          ],
                          "start" : 50991360000,
                          "duration" : 46663680000,
                          "mediaStart" : 66467520000,
                          "mediaDuration" : 46663680000,
                          "scalar" : 1,
                          "metadata" : {
                            "AutoAppliedSmartFocus" : "False",
                            "audiateLinkedSession" : "",
                            "clipSpeedAttribute" : { "type": "bool", "value" : false},
                            "colorAttribute" : { "type": "color", "value" : [ 0, 0, 0, 0]},
                            "default-height" : { "type": "double", "value" : 1036.8},
                            "default-translation0" : { "type": "double", "value" : 0.0},
                            "default-translation1" : { "type": "double", "value" : -194.4},
                            "default-translation2" : { "type": "double", "value" : 0.0},
                            "default-width" : { "type": "double", "value" : 1932.67572815534}
                          },
                          "animationTracks" : {

                          }
                        },
                        {
                          "id" : 378,
                          "_type" : "ScreenVMFile",
                          "src" : 2,
                          "trackNumber" : 0,
                          "attributes" : {
                            "ident" : "Rec 4-22-2025-8-51-30-PM"
                          },
                          "parameters" : {
                            "geometryCrop0" : {
                              "type" : "double",
                              "defaultValue" : 0.0,
                              "interp" : "eioe"
                            },
                            "geometryCrop1" : {
                              "type" : "double",
                              "defaultValue" : 0.0,
                              "interp" : "eioe"
                            },
                            "geometryCrop2" : {
                              "type" : "double",
                              "defaultValue" : 0.0,
                              "interp" : "eioe"
                            },
                            "geometryCrop3" : {
                              "type" : "double",
                              "defaultValue" : 0.0,
                              "interp" : "eioe"
                            },
                            "cursorScale" : {
                              "type" : "double",
                              "defaultValue" : 0.0,
                              "interp" : "linr"
                            },
                            "cursorOpacity" : {
                              "type" : "double",
                              "defaultValue" : 0.0,
                              "interp" : "linr"
                            },
                            "cursorTrackLevel" : {
                              "type" : "double",
                              "defaultValue" : 0.0,
                              "interp" : "linr"
                            },
                            "smoothCursorAcrossEditDuration" : 0
                          },
                          "effects" : [

                          ],
                          "start" : 97655040000,
                          "duration" : 352282560000,
                          "mediaStart" : 149352000000,
                          "mediaDuration" : 352282560000,
                          "scalar" : 1,
                          "metadata" : {
                            "AutoAppliedSmartFocus" : "False",
                            "audiateLinkedSession" : "",
                            "clipSpeedAttribute" : { "type": "bool", "value" : false},
                            "colorAttribute" : { "type": "color", "value" : [ 0, 0, 0, 0]},
                            "default-height" : { "type": "double", "value" : 1036.8},
                            "default-translation0" : { "type": "double", "value" : 0.0},
                            "default-translation1" : { "type": "double", "value" : -194.4},
                            "default-translation2" : { "type": "double", "value" : 0.0},
                            "default-width" : { "type": "double", "value" : 1932.67572815534}
                          },
                          "animationTracks" : {

                          }
                        },
                        {
                          "id" : 379,
                          "_type" : "ScreenVMFile",
                          "src" : 2,
                          "trackNumber" : 0,
                          "attributes" : {
                            "ident" : "Rec 4-22-2025-8-51-30-PM"
                          },
                          "parameters" : {
                            "geometryCrop0" : {
                              "type" : "double",
                              "defaultValue" : 0.0,
                              "interp" : "eioe"
                            },
                            "geometryCrop1" : {
                              "type" : "double",
                              "defaultValue" : 0.0,
                              "interp" : "eioe"
                            },
                            "geometryCrop2" : {
                              "type" : "double",
                              "defaultValue" : 0.0,
                              "interp" : "eioe"
                            },
                            "geometryCrop3" : {
                              "type" : "double",
                              "defaultValue" : 0.0,
                              "interp" : "eioe"
                            },
                            "cursorScale" : {
                              "type" : "double",
                              "defaultValue" : 0.0,
                              "interp" : "linr"
                            },
                            "cursorOpacity" : {
                              "type" : "double",
                              "defaultValue" : 0.0,
                              "interp" : "linr"
                            },
                            "cursorTrackLevel" : {
                              "type" : "double",
                              "defaultValue" : 0.0,
                              "interp" : "linr"
                            },
                            "smoothCursorAcrossEditDuration" : 0
                          },
                          "effects" : [

                          ],
                          "start" : 449937600000,
                          "duration" : 8961120000,
                          "mediaStart" : 509843040000,
                          "mediaDuration" : 8961120000,
                          "scalar" : 1,
                          "metadata" : {
                            "AutoAppliedSmartFocus" : "False",
                            "audiateLinkedSession" : "",
                            "clipSpeedAttribute" : { "type": "bool", "value" : false},
                            "colorAttribute" : { "type": "color", "value" : [ 0, 0, 0, 0]},
                            "default-height" : { "type": "double", "value" : 1036.8},
                            "default-translation0" : { "type": "double", "value" : 0.0},
                            "default-translation1" : { "type": "double", "value" : -194.4},
                            "default-translation2" : { "type": "double", "value" : 0.0},
                            "default-width" : { "type": "double", "value" : 1932.67572815534}
                          },
                          "animationTracks" : {

                          }
                        },
                        {
                          "id" : 380,
                          "_type" : "ScreenVMFile",
                          "src" : 2,
                          "trackNumber" : 0,
                          "attributes" : {
                            "ident" : "Rec 4-22-2025-8-51-30-PM"
                          },
                          "parameters" : {
                            "geometryCrop0" : {
                              "type" : "double",
                              "defaultValue" : 0.0,
                              "interp" : "eioe"
                            },
                            "geometryCrop1" : {
                              "type" : "double",
                              "defaultValue" : 0.0,
                              "interp" : "eioe"
                            },
                            "geometryCrop2" : {
                              "type" : "double",
                              "defaultValue" : 0.0,
                              "interp" : "eioe"
                            },
                            "geometryCrop3" : {
                              "type" : "double",
                              "defaultValue" : 0.0,
                              "interp" : "eioe"
                            },
                            "cursorScale" : {
                              "type" : "double",
                              "defaultValue" : 0.0,
                              "interp" : "linr"
                            },
                            "cursorOpacity" : {
                              "type" : "double",
                              "defaultValue" : 0.0,
                              "interp" : "linr"
                            },
                            "cursorTrackLevel" : {
                              "type" : "double",
                              "defaultValue" : 0.0,
                              "interp" : "linr"
                            },
                            "smoothCursorAcrossEditDuration" : 0
                          },
                          "effects" : [

                          ],
                          "start" : 458898720000,
                          "duration" : 472399200000,
                          "mediaStart" : 1416350880000,
                          "mediaDuration" : 472399200000,
                          "scalar" : 1,
                          "metadata" : {
                            "AutoAppliedSmartFocus" : "False",
                            "audiateLinkedSession" : "",
                            "clipSpeedAttribute" : { "type": "bool", "value" : false},
                            "colorAttribute" : { "type": "color", "value" : [ 0, 0, 0, 0]},
                            "default-height" : { "type": "double", "value" : 1036.8},
                            "default-translation0" : { "type": "double", "value" : 0.0},
                            "default-translation1" : { "type": "double", "value" : -194.4},
                            "default-translation2" : { "type": "double", "value" : 0.0},
                            "default-width" : { "type": "double", "value" : 1932.67572815534}
                          },
                          "animationTracks" : {

                          }
                        },
                        {
                          "id" : 381,
                          "_type" : "ScreenVMFile",
                          "src" : 2,
                          "trackNumber" : 0,
                          "attributes" : {
                            "ident" : "Rec 4-22-2025-8-51-30-PM"
                          },
                          "parameters" : {
                            "geometryCrop0" : {
                              "type" : "double",
                              "defaultValue" : 0.0,
                              "interp" : "eioe"
                            },
                            "geometryCrop1" : {
                              "type" : "double",
                              "defaultValue" : 0.0,
                              "interp" : "eioe"
                            },
                            "geometryCrop2" : {
                              "type" : "double",
                              "defaultValue" : 0.0,
                              "interp" : "eioe"
                            },
                            "geometryCrop3" : {
                              "type" : "double",
                              "defaultValue" : 0.0,
                              "interp" : "eioe"
                            },
                            "cursorScale" : {
                              "type" : "double",
                              "defaultValue" : 0.0,
                              "interp" : "linr"
                            },
                            "cursorOpacity" : {
                              "type" : "double",
                              "defaultValue" : 0.0,
                              "interp" : "linr"
                            },
                            "cursorTrackLevel" : {
                              "type" : "double",
                              "defaultValue" : 0.0,
                              "interp" : "linr"
                            },
                            "smoothCursorAcrossEditDuration" : 0
                          },
                          "effects" : [

                          ],
                          "start" : 931297920000,
                          "duration" : 15781920000,
                          "mediaStart" : 1888750080000,
                          "mediaDuration" : 15781920000,
                          "scalar" : 1,
                          "metadata" : {
                            "AutoAppliedSmartFocus" : "False",
                            "audiateLinkedSession" : "",
                            "clipSpeedAttribute" : { "type": "bool", "value" : false},
                            "colorAttribute" : { "type": "color", "value" : [ 0, 0, 0, 0]},
                            "default-height" : { "type": "double", "value" : 1036.8},
                            "default-translation0" : { "type": "double", "value" : 0.0},
                            "default-translation1" : { "type": "double", "value" : -194.4},
                            "default-translation2" : { "type": "double", "value" : 0.0},
                            "default-width" : { "type": "double", "value" : 1932.67572815534}
                          },
                          "animationTracks" : {

                          }
                        },
                        {
                          "id" : 382,
                          "_type" : "ScreenVMFile",
                          "src" : 2,
                          "trackNumber" : 0,
                          "attributes" : {
                            "ident" : "Rec 4-22-2025-8-51-30-PM"
                          },
                          "parameters" : {
                            "geometryCrop0" : {
                              "type" : "double",
                              "defaultValue" : 0.0,
                              "interp" : "eioe"
                            },
                            "geometryCrop1" : {
                              "type" : "double",
                              "defaultValue" : 0.0,
                              "interp" : "eioe"
                            },
                            "geometryCrop2" : {
                              "type" : "double",
                              "defaultValue" : 0.0,
                              "interp" : "eioe"
                            },
                            "geometryCrop3" : {
                              "type" : "double",
                              "defaultValue" : 0.0,
                              "interp" : "eioe"
                            },
                            "cursorScale" : {
                              "type" : "double",
                              "defaultValue" : 0.0,
                              "interp" : "linr"
                            },
                            "cursorOpacity" : {
                              "type" : "double",
                              "defaultValue" : 0.0,
                              "interp" : "linr"
                            },
                            "cursorTrackLevel" : {
                              "type" : "double",
                              "defaultValue" : 0.0,
                              "interp" : "linr"
                            },
                            "smoothCursorAcrossEditDuration" : 0
                          },
                          "effects" : [

                          ],
                          "start" : 947079840000,
                          "duration" : 1577439360000,
                          "mediaStart" : 1904532000000,
                          "mediaDuration" : 1577439360000,
                          "scalar" : 1,
                          "metadata" : {
                            "AutoAppliedSmartFocus" : "False",
                            "audiateLinkedSession" : "",
                            "clipSpeedAttribute" : { "type": "bool", "value" : false},
                            "colorAttribute" : { "type": "color", "value" : [ 0, 0, 0, 0]},
                            "default-height" : { "type": "double", "value" : 1036.8},
                            "default-translation0" : { "type": "double", "value" : 0.0},
                            "default-translation1" : { "type": "double", "value" : -194.4},
                            "default-translation2" : { "type": "double", "value" : 0.0},
                            "default-width" : { "type": "double", "value" : 1932.67572815534}
                          },
                          "animationTracks" : {

                          }
                        }
                    ],
                    "effects" : [
                        {
                          "effectName" : "CursorColor",
                          "bypassed" : false,
                          "category" : "categoryCursorEffects",
                          "parameters" : {
                            "intensity" : 1.0,
                            "desaturation" : 0.0,
                            "colorLumaCutoff" : 1.0,
                            "color-alpha" : 1.0,
                            "color-red" : 1.0,
                            "color-green" : 0.8980392157,
                            "color-blue" : 0.1215686275,
                            "secondColor-red" : 0.0,
                            "secondColor-green" : 0.0,
                            "secondColor-blue" : 0.0,
                            "secondColor-alpha" : 1.0,
                            "secondColorLumaCutoff" : 0.0,
                            "channel" : 0,
                            "shadowRampStart" : 0.0,
                            "shadowRampEnd" : 0.0,
                            "highlightRampStart" : 1.0,
                            "highlightRampEnd" : 1.0
                          }
                        },
                        {
                          "effectName" : "CursorShadow",
                          "bypassed" : false,
                          "category" : "categoryCursorEffects",
                          "parameters" : {
                            "angle" : 3.92699081698724,
                            "enabled" : 1,
                            "offset" : 5.0,
                            "blur" : 2.0,
                            "opacity" : 0.25,
                            "color-red" : 0.0,
                            "color-green" : 0.0,
                            "color-blue" : 0.0,
                            "color-alpha" : 1.0
                          }
                        },
                        {
                          "effectName" : "CursorHilight",
                          "bypassed" : false,
                          "category" : "categoryCursorEffects",
                          "parameters" : {
                            "radius" : 50.0,
                            "color-red" : 1.0,
                            "color-green" : 1.0,
                            "color-blue" : 0.0,
                            "color-alpha" : 0.75,
                            "blur" : 0.1
                          }
                        }
                    ],
                    "start" : 94503360000,
                    "duration" : 2234400000,
                    "mediaStart" : 949431840000,
                    "mediaDuration" : 2234400000,
                    "scalar" : 1,
                    "metadata" : {
                      "AutoAppliedSmartFocus" : "False",
                      "audiateLinkedSession" : "",
                      "clipSpeedAttribute" : { "type": "bool", "value" : true},
                      "colorAttribute" : { "type": "color", "value" : [ 0, 0, 0, 0]},
                      "default-anchor0" : { "type": "double", "value" : 0.0},
                      "default-anchor1" : { "type": "double", "value" : 0.0},
                      "default-anchor2" : { "type": "double", "value" : 0.0},
                      "default-height" : { "type": "double", "value" : 1036.8},
                      "default-rotation0" : { "type": "double", "value" : 0.0},
                      "default-rotation1" : { "type": "double", "value" : 0.0},
                      "default-rotation2" : { "type": "double", "value" : 0.0},
                      "default-scale0" : { "type": "double", "value" : 0.503300970873786},
                      "default-scale1" : { "type": "double", "value" : 0.503300970873786},
                      "default-scale2" : { "type": "double", "value" : 1.0},
                      "default-shear0" : { "type": "double", "value" : 0.0},
                      "default-shear1" : { "type": "double", "value" : 0.0},
                      "default-shear2" : { "type": "double", "value" : 0.0},
                      "default-translation0" : { "type": "double", "value" : 0.0},
                      "default-translation1" : { "type": "double", "value" : -194.4},
                      "default-translation2" : { "type": "double", "value" : 0.0},
                      "default-width" : { "type": "double", "value" : 1932.67572815534}
                    },
                    "animationTracks" : {
                      "visual" : [
                        {
                          "endTime" : 946350720000,
                          "duration" : 705600000,
                          "range" : [ 945645120000, 705600000]
                        },
                        {
                          "endTime" : 946938720000,
                          "duration" : 588000000,
                          "range" : [ 946350720000, 588000000]
                        },
                        {
                          "endTime" : 950208000000,
                          "duration" : 705600000,
                          "range" : [ 949502400000, 705600000]
                        },
                        {
                          "endTime" : 951572160000,
                          "duration" : 705600000,
                          "range" : [ 950866560000, 705600000]
                        }
                      ]
                    }
                  },
                  {
                    "id" : 383,
                    "_type" : "StitchedMedia",
                    "minMediaStart" : 0,
                    "attributes" : {
                      "ident" : "Rec 4-22-2025-8-51-30-PM",
                      "gain" : 1.0,
                      "mixToMono" : false,
                      "loudnessNormalization" : true,
                      "sourceFileOffset" : 0
                    },
                    "parameters" : {
                      "translation0" : {
                        "type" : "double",
                        "defaultValue" : 6.33786407766917,
                        "keyframes" : [
                          {
                            "endTime" : 946350720000,
                            "time" : 945645120000,
                            "value" : 1529.54135844084,
                            "duration" : 705600000
                          },
                          {
                            "endTime" : 946938720000,
                            "time" : 946350720000,
                            "value" : 2.8421709430404e-14,
                            "duration" : 588000000
                          },
                          {
                            "endTime" : 950208000000,
                            "time" : 949502400000,
                            "value" : 1769.53733046201,
                            "duration" : 705600000
                          },
                          {
                            "endTime" : 951572160000,
                            "time" : 950866560000,
                            "value" : 0.0,
                            "duration" : 705600000
                          }
                        ]
                      },
                      "translation1" : {
                        "type" : "double",
                        "defaultValue" : -2.8421709430404e-14,
                        "keyframes" : [
                          {
                            "endTime" : 946350720000,
                            "time" : 945645120000,
                            "value" : 1155.43533032585,
                            "duration" : 705600000
                          },
                          {
                            "endTime" : 946938720000,
                            "time" : 946350720000,
                            "value" : 4.2632564145606e-14,
                            "duration" : 588000000
                          },
                          {
                            "endTime" : 950208000000,
                            "time" : 949502400000,
                            "value" : 1222.37766654561,
                            "duration" : 705600000
                          },
                          {
                            "endTime" : 951572160000,
                            "time" : 950866560000,
                            "value" : -5.6843418860808e-14,
                            "duration" : 705600000
                          }
                        ]
                      },
                      "scale0" : {
                        "type" : "double",
                        "defaultValue" : 0.503300970873786,
                        "keyframes" : [
                          {
                            "endTime" : 946350720000,
                            "time" : 945645120000,
                            "value" : 2.23861295044012,
                            "duration" : 705600000
                          },
                          {
                            "endTime" : 946938720000,
                            "time" : 946350720000,
                            "value" : 0.5,
                            "duration" : 588000000
                          },
                          {
                            "endTime" : 950208000000,
                            "time" : 949502400000,
                            "value" : 2.05000008547071,
                            "duration" : 705600000
                          },
                          {
                            "endTime" : 951572160000,
                            "time" : 950866560000,
                            "value" : 0.5,
                            "duration" : 705600000
                          }
                        ]
                      },
                      "scale1" : {
                        "type" : "double",
                        "defaultValue" : 0.503300970873786,
                        "keyframes" : [
                          {
                            "endTime" : 946350720000,
                            "time" : 945645120000,
                            "value" : 2.23861378180461,
                            "duration" : 705600000
                          },
                          {
                            "endTime" : 946938720000,
                            "time" : 946350720000,
                            "value" : 0.5,
                            "duration" : 588000000
                          },
                          {
                            "endTime" : 950208000000,
                            "time" : 949502400000,
                            "value" : 2.05000025406246,
                            "duration" : 705600000
                          },
                          {
                            "endTime" : 951572160000,
                            "time" : 950866560000,
                            "value" : 0.500000041119937,
                            "duration" : 705600000
                          }
                        ]
                      },
                      "scale2" : {
                        "type" : "double",
                        "defaultValue" : 1.0,
                        "keyframes" : [
                          {
                            "endTime" : 946938720000,
                            "time" : 946350720000,
                            "value" : 0.5,
                            "duration" : 588000000
                          },
                          {
                            "endTime" : 951572160000,
                            "time" : 950866560000,
                            "value" : 0.121951214427679,
                            "duration" : 705600000
                          }
                        ]
                      },
                      "geometryCrop0" : 0.0,
                      "geometryCrop1" : 0.0,
                      "geometryCrop2" : 0.0,
                      "geometryCrop3" : 0.0,
                      "cursorOpacity" : 1.0,
                      "cursorTrackLevel" : 0.0,
                      "cursorScale" : 5.0,
                      "smoothCursorAcrossEditDuration" : 0
                    },
                    "medias" : [
                        {
                          "id" : 384,
                          "_type" : "ScreenVMFile",
                          "src" : 2,
                          "trackNumber" : 0,
                          "attributes" : {
                            "ident" : "Rec 4-22-2025-8-51-30-PM"
                          },
                          "parameters" : {
                            "geometryCrop0" : {
                              "type" : "double",
                              "defaultValue" : 0.0,
                              "interp" : "eioe"
                            },
                            "geometryCrop1" : {
                              "type" : "double",
                              "defaultValue" : 0.0,
                              "interp" : "eioe"
                            },
                            "geometryCrop2" : {
                              "type" : "double",
                              "defaultValue" : 0.0,
                              "interp" : "eioe"
                            },
                            "geometryCrop3" : {
                              "type" : "double",
                              "defaultValue" : 0.0,
                              "interp" : "eioe"
                            },
                            "cursorScale" : {
                              "type" : "double",
                              "defaultValue" : 0.0,
                              "interp" : "linr"
                            },
                            "cursorOpacity" : {
                              "type" : "double",
                              "defaultValue" : 0.0,
                              "interp" : "linr"
                            },
                            "cursorTrackLevel" : {
                              "type" : "double",
                              "defaultValue" : 0.0,
                              "interp" : "linr"
                            },
                            "smoothCursorAcrossEditDuration" : 0
                          },
                          "effects" : [

                          ],
                          "start" : 0,
                          "duration" : 50991360000,
                          "mediaStart" : 0,
                          "mediaDuration" : 50991360000,
                          "scalar" : 1,
                          "metadata" : {
                            "AutoAppliedSmartFocus" : "False",
                            "audiateLinkedSession" : "",
                            "clipSpeedAttribute" : { "type": "bool", "value" : false},
                            "colorAttribute" : { "type": "color", "value" : [ 0, 0, 0, 0]},
                            "default-height" : { "type": "double", "value" : 1036.8},
                            "default-translation0" : { "type": "double", "value" : 0.0},
                            "default-translation1" : { "type": "double", "value" : -194.4},
                            "default-translation2" : { "type": "double", "value" : 0.0},
                            "default-width" : { "type": "double", "value" : 1932.67572815534}
                          },
                          "animationTracks" : {

                          }
                        },
                        {
                          "id" : 385,
                          "_type" : "ScreenVMFile",
                          "src" : 2,
                          "trackNumber" : 0,
                          "attributes" : {
                            "ident" : "Rec 4-22-2025-8-51-30-PM"
                          },
                          "parameters" : {
                            "geometryCrop0" : {
                              "type" : "double",
                              "defaultValue" : 0.0,
                              "interp" : "eioe"
                            },
                            "geometryCrop1" : {
                              "type" : "double",
                              "defaultValue" : 0.0,
                              "interp" : "eioe"
                            },
                            "geometryCrop2" : {
                              "type" : "double",
                              "defaultValue" : 0.0,
                              "interp" : "eioe"
                            },
                            "geometryCrop3" : {
                              "type" : "double",
                              "defaultValue" : 0.0,
                              "interp" : "eioe"
                            },
                            "cursorScale" : {
                              "type" : "double",
                              "defaultValue" : 0.0,
                              "interp" : "linr"
                            },
                            "cursorOpacity" : {
                              "type" : "double",
                              "defaultValue" : 0.0,
                              "interp" : "linr"
                            },
                            "cursorTrackLevel" : {
                              "type" : "double",
                              "defaultValue" : 0.0,
                              "interp" : "linr"
                            },
                            "smoothCursorAcrossEditDuration" : 0
                          },
                          "effects" : [

                          ],
                          "start" : 50991360000,
                          "duration" : 46663680000,
                          "mediaStart" : 66467520000,
                          "mediaDuration" : 46663680000,
                          "scalar" : 1,
                          "metadata" : {
                            "AutoAppliedSmartFocus" : "False",
                            "audiateLinkedSession" : "",
                            "clipSpeedAttribute" : { "type": "bool", "value" : false},
                            "colorAttribute" : { "type": "color", "value" : [ 0, 0, 0, 0]},
                            "default-height" : { "type": "double", "value" : 1036.8},
                            "default-translation0" : { "type": "double", "value" : 0.0},
                            "default-translation1" : { "type": "double", "value" : -194.4},
                            "default-translation2" : { "type": "double", "value" : 0.0},
                            "default-width" : { "type": "double", "value" : 1932.67572815534}
                          },
                          "animationTracks" : {

                          }
                        },
                        {
                          "id" : 386,
                          "_type" : "ScreenVMFile",
                          "src" : 2,
                          "trackNumber" : 0,
                          "attributes" : {
                            "ident" : "Rec 4-22-2025-8-51-30-PM"
                          },
                          "parameters" : {
                            "geometryCrop0" : {
                              "type" : "double",
                              "defaultValue" : 0.0,
                              "interp" : "eioe"
                            },
                            "geometryCrop1" : {
                              "type" : "double",
                              "defaultValue" : 0.0,
                              "interp" : "eioe"
                            },
                            "geometryCrop2" : {
                              "type" : "double",
                              "defaultValue" : 0.0,
                              "interp" : "eioe"
                            },
                            "geometryCrop3" : {
                              "type" : "double",
                              "defaultValue" : 0.0,
                              "interp" : "eioe"
                            },
                            "cursorScale" : {
                              "type" : "double",
                              "defaultValue" : 0.0,
                              "interp" : "linr"
                            },
                            "cursorOpacity" : {
                              "type" : "double",
                              "defaultValue" : 0.0,
                              "interp" : "linr"
                            },
                            "cursorTrackLevel" : {
                              "type" : "double",
                              "defaultValue" : 0.0,
                              "interp" : "linr"
                            },
                            "smoothCursorAcrossEditDuration" : 0
                          },
                          "effects" : [

                          ],
                          "start" : 97655040000,
                          "duration" : 352282560000,
                          "mediaStart" : 149352000000,
                          "mediaDuration" : 352282560000,
                          "scalar" : 1,
                          "metadata" : {
                            "AutoAppliedSmartFocus" : "False",
                            "audiateLinkedSession" : "",
                            "clipSpeedAttribute" : { "type": "bool", "value" : false},
                            "colorAttribute" : { "type": "color", "value" : [ 0, 0, 0, 0]},
                            "default-height" : { "type": "double", "value" : 1036.8},
                            "default-translation0" : { "type": "double", "value" : 0.0},
                            "default-translation1" : { "type": "double", "value" : -194.4},
                            "default-translation2" : { "type": "double", "value" : 0.0},
                            "default-width" : { "type": "double", "value" : 1932.67572815534}
                          },
                          "animationTracks" : {

                          }
                        },
                        {
                          "id" : 387,
                          "_type" : "ScreenVMFile",
                          "src" : 2,
                          "trackNumber" : 0,
                          "attributes" : {
                            "ident" : "Rec 4-22-2025-8-51-30-PM"
                          },
                          "parameters" : {
                            "geometryCrop0" : {
                              "type" : "double",
                              "defaultValue" : 0.0,
                              "interp" : "eioe"
                            },
                            "geometryCrop1" : {
                              "type" : "double",
                              "defaultValue" : 0.0,
                              "interp" : "eioe"
                            },
                            "geometryCrop2" : {
                              "type" : "double",
                              "defaultValue" : 0.0,
                              "interp" : "eioe"
                            },
                            "geometryCrop3" : {
                              "type" : "double",
                              "defaultValue" : 0.0,
                              "interp" : "eioe"
                            },
                            "cursorScale" : {
                              "type" : "double",
                              "defaultValue" : 0.0,
                              "interp" : "linr"
                            },
                            "cursorOpacity" : {
                              "type" : "double",
                              "defaultValue" : 0.0,
                              "interp" : "linr"
                            },
                            "cursorTrackLevel" : {
                              "type" : "double",
                              "defaultValue" : 0.0,
                              "interp" : "linr"
                            },
                            "smoothCursorAcrossEditDuration" : 0
                          },
                          "effects" : [

                          ],
                          "start" : 449937600000,
                          "duration" : 8961120000,
                          "mediaStart" : 509843040000,
                          "mediaDuration" : 8961120000,
                          "scalar" : 1,
                          "metadata" : {
                            "AutoAppliedSmartFocus" : "False",
                            "audiateLinkedSession" : "",
                            "clipSpeedAttribute" : { "type": "bool", "value" : false},
                            "colorAttribute" : { "type": "color", "value" : [ 0, 0, 0, 0]},
                            "default-height" : { "type": "double", "value" : 1036.8},
                            "default-translation0" : { "type": "double", "value" : 0.0},
                            "default-translation1" : { "type": "double", "value" : -194.4},
                            "default-translation2" : { "type": "double", "value" : 0.0},
                            "default-width" : { "type": "double", "value" : 1932.67572815534}
                          },
                          "animationTracks" : {

                          }
                        },
                        {
                          "id" : 388,
                          "_type" : "ScreenVMFile",
                          "src" : 2,
                          "trackNumber" : 0,
                          "attributes" : {
                            "ident" : "Rec 4-22-2025-8-51-30-PM"
                          },
                          "parameters" : {
                            "geometryCrop0" : {
                              "type" : "double",
                              "defaultValue" : 0.0,
                              "interp" : "eioe"
                            },
                            "geometryCrop1" : {
                              "type" : "double",
                              "defaultValue" : 0.0,
                              "interp" : "eioe"
                            },
                            "geometryCrop2" : {
                              "type" : "double",
                              "defaultValue" : 0.0,
                              "interp" : "eioe"
                            },
                            "geometryCrop3" : {
                              "type" : "double",
                              "defaultValue" : 0.0,
                              "interp" : "eioe"
                            },
                            "cursorScale" : {
                              "type" : "double",
                              "defaultValue" : 0.0,
                              "interp" : "linr"
                            },
                            "cursorOpacity" : {
                              "type" : "double",
                              "defaultValue" : 0.0,
                              "interp" : "linr"
                            },
                            "cursorTrackLevel" : {
                              "type" : "double",
                              "defaultValue" : 0.0,
                              "interp" : "linr"
                            },
                            "smoothCursorAcrossEditDuration" : 0
                          },
                          "effects" : [

                          ],
                          "start" : 458898720000,
                          "duration" : 472399200000,
                          "mediaStart" : 1416350880000,
                          "mediaDuration" : 472399200000,
                          "scalar" : 1,
                          "metadata" : {
                            "AutoAppliedSmartFocus" : "False",
                            "audiateLinkedSession" : "",
                            "clipSpeedAttribute" : { "type": "bool", "value" : false},
                            "colorAttribute" : { "type": "color", "value" : [ 0, 0, 0, 0]},
                            "default-height" : { "type": "double", "value" : 1036.8},
                            "default-translation0" : { "type": "double", "value" : 0.0},
                            "default-translation1" : { "type": "double", "value" : -194.4},
                            "default-translation2" : { "type": "double", "value" : 0.0},
                            "default-width" : { "type": "double", "value" : 1932.67572815534}
                          },
                          "animationTracks" : {

                          }
                        },
                        {
                          "id" : 389,
                          "_type" : "ScreenVMFile",
                          "src" : 2,
                          "trackNumber" : 0,
                          "attributes" : {
                            "ident" : "Rec 4-22-2025-8-51-30-PM"
                          },
                          "parameters" : {
                            "geometryCrop0" : {
                              "type" : "double",
                              "defaultValue" : 0.0,
                              "interp" : "eioe"
                            },
                            "geometryCrop1" : {
                              "type" : "double",
                              "defaultValue" : 0.0,
                              "interp" : "eioe"
                            },
                            "geometryCrop2" : {
                              "type" : "double",
                              "defaultValue" : 0.0,
                              "interp" : "eioe"
                            },
                            "geometryCrop3" : {
                              "type" : "double",
                              "defaultValue" : 0.0,
                              "interp" : "eioe"
                            },
                            "cursorScale" : {
                              "type" : "double",
                              "defaultValue" : 0.0,
                              "interp" : "linr"
                            },
                            "cursorOpacity" : {
                              "type" : "double",
                              "defaultValue" : 0.0,
                              "interp" : "linr"
                            },
                            "cursorTrackLevel" : {
                              "type" : "double",
                              "defaultValue" : 0.0,
                              "interp" : "linr"
                            },
                            "smoothCursorAcrossEditDuration" : 0
                          },
                          "effects" : [

                          ],
                          "start" : 931297920000,
                          "duration" : 15781920000,
                          "mediaStart" : 1888750080000,
                          "mediaDuration" : 15781920000,
                          "scalar" : 1,
                          "metadata" : {
                            "AutoAppliedSmartFocus" : "False",
                            "audiateLinkedSession" : "",
                            "clipSpeedAttribute" : { "type": "bool", "value" : false},
                            "colorAttribute" : { "type": "color", "value" : [ 0, 0, 0, 0]},
                            "default-height" : { "type": "double", "value" : 1036.8},
                            "default-translation0" : { "type": "double", "value" : 0.0},
                            "default-translation1" : { "type": "double", "value" : -194.4},
                            "default-translation2" : { "type": "double", "value" : 0.0},
                            "default-width" : { "type": "double", "value" : 1932.67572815534}
                          },
                          "animationTracks" : {

                          }
                        },
                        {
                          "id" : 390,
                          "_type" : "ScreenVMFile",
                          "src" : 2,
                          "trackNumber" : 0,
                          "attributes" : {
                            "ident" : "Rec 4-22-2025-8-51-30-PM"
                          },
                          "parameters" : {
                            "geometryCrop0" : {
                              "type" : "double",
                              "defaultValue" : 0.0,
                              "interp" : "eioe"
                            },
                            "geometryCrop1" : {
                              "type" : "double",
                              "defaultValue" : 0.0,
                              "interp" : "eioe"
                            },
                            "geometryCrop2" : {
                              "type" : "double",
                              "defaultValue" : 0.0,
                              "interp" : "eioe"
                            },
                            "geometryCrop3" : {
                              "type" : "double",
                              "defaultValue" : 0.0,
                              "interp" : "eioe"
                            },
                            "cursorScale" : {
                              "type" : "double",
                              "defaultValue" : 0.0,
                              "interp" : "linr"
                            },
                            "cursorOpacity" : {
                              "type" : "double",
                              "defaultValue" : 0.0,
                              "interp" : "linr"
                            },
                            "cursorTrackLevel" : {
                              "type" : "double",
                              "defaultValue" : 0.0,
                              "interp" : "linr"
                            },
                            "smoothCursorAcrossEditDuration" : 0
                          },
                          "effects" : [

                          ],
                          "start" : 947079840000,
                          "duration" : 1577439360000,
                          "mediaStart" : 1904532000000,
                          "mediaDuration" : 1577439360000,
                          "scalar" : 1,
                          "metadata" : {
                            "AutoAppliedSmartFocus" : "False",
                            "audiateLinkedSession" : "",
                            "clipSpeedAttribute" : { "type": "bool", "value" : false},
                            "colorAttribute" : { "type": "color", "value" : [ 0, 0, 0, 0]},
                            "default-height" : { "type": "double", "value" : 1036.8},
                            "default-translation0" : { "type": "double", "value" : 0.0},
                            "default-translation1" : { "type": "double", "value" : -194.4},
                            "default-translation2" : { "type": "double", "value" : 0.0},
                            "default-width" : { "type": "double", "value" : 1932.67572815534}
                          },
                          "animationTracks" : {

                          }
                        }
                    ],
                    "effects" : [
                        {
                          "effectName" : "CursorColor",
                          "bypassed" : false,
                          "category" : "categoryCursorEffects",
                          "parameters" : {
                            "intensity" : 1.0,
                            "desaturation" : 0.0,
                            "colorLumaCutoff" : 1.0,
                            "color-alpha" : 1.0,
                            "color-red" : 1.0,
                            "color-green" : 0.8980392157,
                            "color-blue" : 0.1215686275,
                            "secondColor-red" : 0.0,
                            "secondColor-green" : 0.0,
                            "secondColor-blue" : 0.0,
                            "secondColor-alpha" : 1.0,
                            "secondColorLumaCutoff" : 0.0,
                            "channel" : 0,
                            "shadowRampStart" : 0.0,
                            "shadowRampEnd" : 0.0,
                            "highlightRampStart" : 1.0,
                            "highlightRampEnd" : 1.0
                          }
                        },
                        {
                          "effectName" : "CursorShadow",
                          "bypassed" : false,
                          "category" : "categoryCursorEffects",
                          "parameters" : {
                            "angle" : 3.92699081698724,
                            "enabled" : 1,
                            "offset" : 5.0,
                            "blur" : 2.0,
                            "opacity" : 0.25,
                            "color-red" : 0.0,
                            "color-green" : 0.0,
                            "color-blue" : 0.0,
                            "color-alpha" : 1.0
                          }
                        },
                        {
                          "effectName" : "CursorHilight",
                          "bypassed" : false,
                          "category" : "categoryCursorEffects",
                          "parameters" : {
                            "radius" : 50.0,
                            "color-red" : 1.0,
                            "color-green" : 1.0,
                            "color-blue" : 0.0,
                            "color-alpha" : 0.75,
                            "blur" : 0.1
                          }
                        }
                    ],
                    "start" : 96737760000,
                    "duration" : 987840000,
                    "mediaStart" : 951666240000,
                    "mediaDuration" : 2916480000,
                    "scalar" : "21/62",
                    "metadata" : {
                      "AutoAppliedSmartFocus" : "False",
                      "audiateLinkedSession" : "",
                      "clipSpeedAttribute" : { "type": "bool", "value" : true},
                      "colorAttribute" : { "type": "color", "value" : [ 0, 0, 0, 0]},
                      "default-anchor0" : { "type": "double", "value" : 0.0},
                      "default-anchor1" : { "type": "double", "value" : 0.0},
                      "default-anchor2" : { "type": "double", "value" : 0.0},
                      "default-height" : { "type": "double", "value" : 1036.8},
                      "default-rotation0" : { "type": "double", "value" : 0.0},
                      "default-rotation1" : { "type": "double", "value" : 0.0},
                      "default-rotation2" : { "type": "double", "value" : 0.0},
                      "default-scale0" : { "type": "double", "value" : 0.503300970873786},
                      "default-scale1" : { "type": "double", "value" : 0.503300970873786},
                      "default-scale2" : { "type": "double", "value" : 1.0},
                      "default-shear0" : { "type": "double", "value" : 0.0},
                      "default-shear1" : { "type": "double", "value" : 0.0},
                      "default-shear2" : { "type": "double", "value" : 0.0},
                      "default-translation0" : { "type": "double", "value" : 0.0},
                      "default-translation1" : { "type": "double", "value" : -194.4},
                      "default-translation2" : { "type": "double", "value" : 0.0},
                      "default-width" : { "type": "double", "value" : 1932.67572815534}
                    },
                    "animationTracks" : {
                      "visual" : [
                        {
                          "endTime" : 946350720000,
                          "duration" : 705600000,
                          "range" : [ 945645120000, 705600000]
                        },
                        {
                          "endTime" : 946938720000,
                          "duration" : 588000000,
                          "range" : [ 946350720000, 588000000]
                        },
                        {
                          "endTime" : 950208000000,
                          "duration" : 705600000,
                          "range" : [ 949502400000, 705600000]
                        },
                        {
                          "endTime" : 951572160000,
                          "duration" : 705600000,
                          "range" : [ 950866560000, 705600000]
                        }
                      ]
                    }
                  },
                  {
                    "id" : 391,
                    "_type" : "StitchedMedia",
                    "minMediaStart" : 0,
                    "attributes" : {
                      "ident" : "Rec 4-22-2025-8-51-30-PM",
                      "gain" : 1.0,
                      "mixToMono" : false,
                      "loudnessNormalization" : true,
                      "sourceFileOffset" : 0
                    },
                    "parameters" : {
                      "translation1" : -5.6843418860808e-14,
                      "scale0" : 0.5,
                      "scale1" : 0.500000041119937,
                      "scale2" : 0.121951214427679,
                      "geometryCrop0" : 0.0,
                      "geometryCrop1" : 0.0,
                      "geometryCrop2" : 0.0,
                      "geometryCrop3" : 0.0,
                      "toc" : {
                        "type" : "string",
                        "keyframes" : [
                          {
                            "endTime" : 1912034880000,
                            "time" : 1912034880000,
                            "value" : "Download artifact",
                            "duration" : 0,
                            "metadata" : {
                              "markerIdentifier" : "444B83EB-16A3-4FC0-9A9B-7C6FDBC47D78"
                            }
                          }
                        ]
                      },
                      "cursorOpacity" : 1.0,
                      "cursorTrackLevel" : 0.0,
                      "cursorScale" : 5.0,
                      "smoothCursorAcrossEditDuration" : 0
                    },
                    "medias" : [
                        {
                          "id" : 392,
                          "_type" : "ScreenVMFile",
                          "src" : 2,
                          "trackNumber" : 0,
                          "attributes" : {
                            "ident" : "Rec 4-22-2025-8-51-30-PM"
                          },
                          "parameters" : {
                            "geometryCrop0" : {
                              "type" : "double",
                              "defaultValue" : 0.0,
                              "interp" : "eioe"
                            },
                            "geometryCrop1" : {
                              "type" : "double",
                              "defaultValue" : 0.0,
                              "interp" : "eioe"
                            },
                            "geometryCrop2" : {
                              "type" : "double",
                              "defaultValue" : 0.0,
                              "interp" : "eioe"
                            },
                            "geometryCrop3" : {
                              "type" : "double",
                              "defaultValue" : 0.0,
                              "interp" : "eioe"
                            },
                            "cursorScale" : {
                              "type" : "double",
                              "defaultValue" : 0.0,
                              "interp" : "linr"
                            },
                            "cursorOpacity" : {
                              "type" : "double",
                              "defaultValue" : 0.0,
                              "interp" : "linr"
                            },
                            "cursorTrackLevel" : {
                              "type" : "double",
                              "defaultValue" : 0.0,
                              "interp" : "linr"
                            },
                            "smoothCursorAcrossEditDuration" : 0
                          },
                          "effects" : [

                          ],
                          "start" : 0,
                          "duration" : 1925088480000,
                          "mediaStart" : 0,
                          "mediaDuration" : 1925088480000,
                          "scalar" : 1,
                          "metadata" : {
                            "AutoAppliedSmartFocus" : "False",
                            "audiateLinkedSession" : "",
                            "clipSpeedAttribute" : { "type": "bool", "value" : false},
                            "colorAttribute" : { "type": "color", "value" : [ 0, 0, 0, 0]},
                            "default-height" : { "type": "double", "value" : 1036.8},
                            "default-translation0" : { "type": "double", "value" : 0.0},
                            "default-translation1" : { "type": "double", "value" : -194.4},
                            "default-translation2" : { "type": "double", "value" : 0.0},
                            "default-width" : { "type": "double", "value" : 1932.67572815534}
                          },
                          "animationTracks" : {

                          }
                        },
                        {
                          "id" : 393,
                          "_type" : "ScreenVMFile",
                          "src" : 2,
                          "trackNumber" : 0,
                          "attributes" : {
                            "ident" : "Rec 4-22-2025-8-51-30-PM"
                          },
                          "parameters" : {
                            "geometryCrop0" : {
                              "type" : "double",
                              "defaultValue" : 0.0,
                              "interp" : "eioe"
                            },
                            "geometryCrop1" : {
                              "type" : "double",
                              "defaultValue" : 0.0,
                              "interp" : "eioe"
                            },
                            "geometryCrop2" : {
                              "type" : "double",
                              "defaultValue" : 0.0,
                              "interp" : "eioe"
                            },
                            "geometryCrop3" : {
                              "type" : "double",
                              "defaultValue" : 0.0,
                              "interp" : "eioe"
                            },
                            "cursorScale" : {
                              "type" : "double",
                              "defaultValue" : 0.0,
                              "interp" : "linr"
                            },
                            "cursorOpacity" : {
                              "type" : "double",
                              "defaultValue" : 0.0,
                              "interp" : "linr"
                            },
                            "cursorTrackLevel" : {
                              "type" : "double",
                              "defaultValue" : 0.0,
                              "interp" : "linr"
                            },
                            "smoothCursorAcrossEditDuration" : 0
                          },
                          "effects" : [

                          ],
                          "start" : 1925088480000,
                          "duration" : 7691040000,
                          "mediaStart" : 1925088480000,
                          "mediaDuration" : 7691040000,
                          "scalar" : 1,
                          "metadata" : {
                            "AutoAppliedSmartFocus" : "False",
                            "audiateLinkedSession" : "",
                            "clipSpeedAttribute" : { "type": "bool", "value" : false},
                            "colorAttribute" : { "type": "color", "value" : [ 0, 0, 0, 0]},
                            "default-height" : { "type": "double", "value" : 1036.8},
                            "default-translation0" : { "type": "double", "value" : 0.0},
                            "default-translation1" : { "type": "double", "value" : -194.4},
                            "default-translation2" : { "type": "double", "value" : 0.0},
                            "default-width" : { "type": "double", "value" : 1932.67572815534}
                          },
                          "animationTracks" : {

                          }
                        },
                        {
                          "id" : 394,
                          "_type" : "ScreenVMFile",
                          "src" : 2,
                          "trackNumber" : 0,
                          "attributes" : {
                            "ident" : "Rec 4-22-2025-8-51-30-PM"
                          },
                          "parameters" : {
                            "geometryCrop0" : {
                              "type" : "double",
                              "defaultValue" : 0.0,
                              "interp" : "eioe"
                            },
                            "geometryCrop1" : {
                              "type" : "double",
                              "defaultValue" : 0.0,
                              "interp" : "eioe"
                            },
                            "geometryCrop2" : {
                              "type" : "double",
                              "defaultValue" : 0.0,
                              "interp" : "eioe"
                            },
                            "geometryCrop3" : {
                              "type" : "double",
                              "defaultValue" : 0.0,
                              "interp" : "eioe"
                            },
                            "cursorScale" : {
                              "type" : "double",
                              "defaultValue" : 0.0,
                              "interp" : "linr"
                            },
                            "cursorOpacity" : {
                              "type" : "double",
                              "defaultValue" : 0.0,
                              "interp" : "linr"
                            },
                            "cursorTrackLevel" : {
                              "type" : "double",
                              "defaultValue" : 0.0,
                              "interp" : "linr"
                            },
                            "smoothCursorAcrossEditDuration" : 0
                          },
                          "effects" : [

                          ],
                          "start" : 1932779520000,
                          "duration" : 9807840000,
                          "mediaStart" : 1932779520000,
                          "mediaDuration" : 9807840000,
                          "scalar" : 1,
                          "metadata" : {
                            "AutoAppliedSmartFocus" : "False",
                            "audiateLinkedSession" : "",
                            "clipSpeedAttribute" : { "type": "bool", "value" : false},
                            "colorAttribute" : { "type": "color", "value" : [ 0, 0, 0, 0]},
                            "default-height" : { "type": "double", "value" : 1036.8},
                            "default-translation0" : { "type": "double", "value" : 0.0},
                            "default-translation1" : { "type": "double", "value" : -194.4},
                            "default-translation2" : { "type": "double", "value" : 0.0},
                            "default-width" : { "type": "double", "value" : 1932.67572815534}
                          },
                          "animationTracks" : {

                          }
                        },
                        {
                          "id" : 395,
                          "_type" : "ScreenVMFile",
                          "src" : 2,
                          "trackNumber" : 0,
                          "attributes" : {
                            "ident" : "Rec 4-22-2025-8-51-30-PM"
                          },
                          "parameters" : {
                            "geometryCrop0" : {
                              "type" : "double",
                              "defaultValue" : 0.0,
                              "interp" : "eioe"
                            },
                            "geometryCrop1" : {
                              "type" : "double",
                              "defaultValue" : 0.0,
                              "interp" : "eioe"
                            },
                            "geometryCrop2" : {
                              "type" : "double",
                              "defaultValue" : 0.0,
                              "interp" : "eioe"
                            },
                            "geometryCrop3" : {
                              "type" : "double",
                              "defaultValue" : 0.0,
                              "interp" : "eioe"
                            },
                            "cursorScale" : {
                              "type" : "double",
                              "defaultValue" : 0.0,
                              "interp" : "linr"
                            },
                            "cursorOpacity" : {
                              "type" : "double",
                              "defaultValue" : 0.0,
                              "interp" : "linr"
                            },
                            "cursorTrackLevel" : {
                              "type" : "double",
                              "defaultValue" : 0.0,
                              "interp" : "linr"
                            },
                            "smoothCursorAcrossEditDuration" : 0
                          },
                          "effects" : [

                          ],
                          "start" : 1942587360000,
                          "duration" : 20391840000,
                          "mediaStart" : 1942587360000,
                          "mediaDuration" : 20391840000,
                          "scalar" : 1,
                          "metadata" : {
                            "AutoAppliedSmartFocus" : "False",
                            "audiateLinkedSession" : "",
                            "clipSpeedAttribute" : { "type": "bool", "value" : false},
                            "colorAttribute" : { "type": "color", "value" : [ 0, 0, 0, 0]},
                            "default-height" : { "type": "double", "value" : 1036.8},
                            "default-translation0" : { "type": "double", "value" : 0.0},
                            "default-translation1" : { "type": "double", "value" : -194.4},
                            "default-translation2" : { "type": "double", "value" : 0.0},
                            "default-width" : { "type": "double", "value" : 1932.67572815534}
                          },
                          "animationTracks" : {

                          }
                        },
                        {
                          "id" : 396,
                          "_type" : "ScreenVMFile",
                          "src" : 2,
                          "trackNumber" : 0,
                          "attributes" : {
                            "ident" : "Rec 4-22-2025-8-51-30-PM"
                          },
                          "parameters" : {
                            "geometryCrop0" : {
                              "type" : "double",
                              "defaultValue" : 0.0,
                              "interp" : "eioe"
                            },
                            "geometryCrop1" : {
                              "type" : "double",
                              "defaultValue" : 0.0,
                              "interp" : "eioe"
                            },
                            "geometryCrop2" : {
                              "type" : "double",
                              "defaultValue" : 0.0,
                              "interp" : "eioe"
                            },
                            "geometryCrop3" : {
                              "type" : "double",
                              "defaultValue" : 0.0,
                              "interp" : "eioe"
                            },
                            "cursorScale" : {
                              "type" : "double",
                              "defaultValue" : 0.0,
                              "interp" : "linr"
                            },
                            "cursorOpacity" : {
                              "type" : "double",
                              "defaultValue" : 0.0,
                              "interp" : "linr"
                            },
                            "cursorTrackLevel" : {
                              "type" : "double",
                              "defaultValue" : 0.0,
                              "interp" : "linr"
                            },
                            "smoothCursorAcrossEditDuration" : 0
                          },
                          "effects" : [

                          ],
                          "start" : 1962979200000,
                          "duration" : 8914080000,
                          "mediaStart" : 1962979200000,
                          "mediaDuration" : 8914080000,
                          "scalar" : 1,
                          "metadata" : {
                            "AutoAppliedSmartFocus" : "False",
                            "audiateLinkedSession" : "",
                            "clipSpeedAttribute" : { "type": "bool", "value" : false},
                            "colorAttribute" : { "type": "color", "value" : [ 0, 0, 0, 0]},
                            "default-height" : { "type": "double", "value" : 1036.8},
                            "default-translation0" : { "type": "double", "value" : 0.0},
                            "default-translation1" : { "type": "double", "value" : -194.4},
                            "default-translation2" : { "type": "double", "value" : 0.0},
                            "default-width" : { "type": "double", "value" : 1932.67572815534}
                          },
                          "animationTracks" : {

                          }
                        },
                        {
                          "id" : 397,
                          "_type" : "ScreenVMFile",
                          "src" : 2,
                          "trackNumber" : 0,
                          "attributes" : {
                            "ident" : "Rec 4-22-2025-8-51-30-PM"
                          },
                          "parameters" : {
                            "geometryCrop0" : {
                              "type" : "double",
                              "defaultValue" : 0.0,
                              "interp" : "eioe"
                            },
                            "geometryCrop1" : {
                              "type" : "double",
                              "defaultValue" : 0.0,
                              "interp" : "eioe"
                            },
                            "geometryCrop2" : {
                              "type" : "double",
                              "defaultValue" : 0.0,
                              "interp" : "eioe"
                            },
                            "geometryCrop3" : {
                              "type" : "double",
                              "defaultValue" : 0.0,
                              "interp" : "eioe"
                            },
                            "cursorScale" : {
                              "type" : "double",
                              "defaultValue" : 0.0,
                              "interp" : "linr"
                            },
                            "cursorOpacity" : {
                              "type" : "double",
                              "defaultValue" : 0.0,
                              "interp" : "linr"
                            },
                            "cursorTrackLevel" : {
                              "type" : "double",
                              "defaultValue" : 0.0,
                              "interp" : "linr"
                            },
                            "smoothCursorAcrossEditDuration" : 0
                          },
                          "effects" : [

                          ],
                          "start" : 1971893280000,
                          "duration" : 3034080000,
                          "mediaStart" : 1971893280000,
                          "mediaDuration" : 3034080000,
                          "scalar" : 1,
                          "metadata" : {
                            "AutoAppliedSmartFocus" : "False",
                            "audiateLinkedSession" : "",
                            "clipSpeedAttribute" : { "type": "bool", "value" : false},
                            "colorAttribute" : { "type": "color", "value" : [ 0, 0, 0, 0]},
                            "default-height" : { "type": "double", "value" : 1036.8},
                            "default-translation0" : { "type": "double", "value" : 0.0},
                            "default-translation1" : { "type": "double", "value" : -194.4},
                            "default-translation2" : { "type": "double", "value" : 0.0},
                            "default-width" : { "type": "double", "value" : 1932.67572815534}
                          },
                          "animationTracks" : {

                          }
                        },
                        {
                          "id" : 398,
                          "_type" : "ScreenVMFile",
                          "src" : 2,
                          "trackNumber" : 0,
                          "attributes" : {
                            "ident" : "Rec 4-22-2025-8-51-30-PM"
                          },
                          "parameters" : {
                            "geometryCrop0" : {
                              "type" : "double",
                              "defaultValue" : 0.0,
                              "interp" : "eioe"
                            },
                            "geometryCrop1" : {
                              "type" : "double",
                              "defaultValue" : 0.0,
                              "interp" : "eioe"
                            },
                            "geometryCrop2" : {
                              "type" : "double",
                              "defaultValue" : 0.0,
                              "interp" : "eioe"
                            },
                            "geometryCrop3" : {
                              "type" : "double",
                              "defaultValue" : 0.0,
                              "interp" : "eioe"
                            },
                            "cursorScale" : {
                              "type" : "double",
                              "defaultValue" : 0.0,
                              "interp" : "linr"
                            },
                            "cursorOpacity" : {
                              "type" : "double",
                              "defaultValue" : 0.0,
                              "interp" : "linr"
                            },
                            "cursorTrackLevel" : {
                              "type" : "double",
                              "defaultValue" : 0.0,
                              "interp" : "linr"
                            },
                            "smoothCursorAcrossEditDuration" : 0
                          },
                          "effects" : [

                          ],
                          "start" : 1974927360000,
                          "duration" : 22649760000,
                          "mediaStart" : 1974927360000,
                          "mediaDuration" : 22649760000,
                          "scalar" : 1,
                          "metadata" : {
                            "AutoAppliedSmartFocus" : "False",
                            "audiateLinkedSession" : "",
                            "clipSpeedAttribute" : { "type": "bool", "value" : false},
                            "colorAttribute" : { "type": "color", "value" : [ 0, 0, 0, 0]},
                            "default-height" : { "type": "double", "value" : 1036.8},
                            "default-translation0" : { "type": "double", "value" : 0.0},
                            "default-translation1" : { "type": "double", "value" : -194.4},
                            "default-translation2" : { "type": "double", "value" : 0.0},
                            "default-width" : { "type": "double", "value" : 1932.67572815534}
                          },
                          "animationTracks" : {

                          }
                        },
                        {
                          "id" : 399,
                          "_type" : "ScreenVMFile",
                          "src" : 2,
                          "trackNumber" : 0,
                          "attributes" : {
                            "ident" : "Rec 4-22-2025-8-51-30-PM"
                          },
                          "parameters" : {
                            "geometryCrop0" : {
                              "type" : "double",
                              "defaultValue" : 0.0,
                              "interp" : "eioe"
                            },
                            "geometryCrop1" : {
                              "type" : "double",
                              "defaultValue" : 0.0,
                              "interp" : "eioe"
                            },
                            "geometryCrop2" : {
                              "type" : "double",
                              "defaultValue" : 0.0,
                              "interp" : "eioe"
                            },
                            "geometryCrop3" : {
                              "type" : "double",
                              "defaultValue" : 0.0,
                              "interp" : "eioe"
                            },
                            "cursorScale" : {
                              "type" : "double",
                              "defaultValue" : 0.0,
                              "interp" : "linr"
                            },
                            "cursorOpacity" : {
                              "type" : "double",
                              "defaultValue" : 0.0,
                              "interp" : "linr"
                            },
                            "cursorTrackLevel" : {
                              "type" : "double",
                              "defaultValue" : 0.0,
                              "interp" : "linr"
                            },
                            "smoothCursorAcrossEditDuration" : 0
                          },
                          "effects" : [

                          ],
                          "start" : 1997577120000,
                          "duration" : 215419680000,
                          "mediaStart" : 2018886240000,
                          "mediaDuration" : 215419680000,
                          "scalar" : 1,
                          "metadata" : {
                            "AutoAppliedSmartFocus" : "False",
                            "audiateLinkedSession" : "",
                            "clipSpeedAttribute" : { "type": "bool", "value" : false},
                            "colorAttribute" : { "type": "color", "value" : [ 0, 0, 0, 0]},
                            "default-height" : { "type": "double", "value" : 1036.8},
                            "default-translation0" : { "type": "double", "value" : 0.0},
                            "default-translation1" : { "type": "double", "value" : -194.4},
                            "default-translation2" : { "type": "double", "value" : 0.0},
                            "default-width" : { "type": "double", "value" : 1932.67572815534}
                          },
                          "animationTracks" : {

                          }
                        },
                        {
                          "id" : 400,
                          "_type" : "ScreenVMFile",
                          "src" : 2,
                          "trackNumber" : 0,
                          "attributes" : {
                            "ident" : "Rec 4-22-2025-8-51-30-PM"
                          },
                          "parameters" : {
                            "geometryCrop0" : {
                              "type" : "double",
                              "defaultValue" : 0.0,
                              "interp" : "eioe"
                            },
                            "geometryCrop1" : {
                              "type" : "double",
                              "defaultValue" : 0.0,
                              "interp" : "eioe"
                            },
                            "geometryCrop2" : {
                              "type" : "double",
                              "defaultValue" : 0.0,
                              "interp" : "eioe"
                            },
                            "geometryCrop3" : {
                              "type" : "double",
                              "defaultValue" : 0.0,
                              "interp" : "eioe"
                            },
                            "cursorScale" : {
                              "type" : "double",
                              "defaultValue" : 0.0,
                              "interp" : "linr"
                            },
                            "cursorOpacity" : {
                              "type" : "double",
                              "defaultValue" : 0.0,
                              "interp" : "linr"
                            },
                            "cursorTrackLevel" : {
                              "type" : "double",
                              "defaultValue" : 0.0,
                              "interp" : "linr"
                            },
                            "smoothCursorAcrossEditDuration" : 0
                          },
                          "effects" : [

                          ],
                          "start" : 2212996800000,
                          "duration" : 786955680000,
                          "mediaStart" : 2257778880000,
                          "mediaDuration" : 786955680000,
                          "scalar" : 1,
                          "metadata" : {
                            "AutoAppliedSmartFocus" : "False",
                            "audiateLinkedSession" : "",
                            "clipSpeedAttribute" : { "type": "bool", "value" : false},
                            "colorAttribute" : { "type": "color", "value" : [ 0, 0, 0, 0]},
                            "default-height" : { "type": "double", "value" : 1036.8},
                            "default-translation0" : { "type": "double", "value" : 0.0},
                            "default-translation1" : { "type": "double", "value" : -194.4},
                            "default-translation2" : { "type": "double", "value" : 0.0},
                            "default-width" : { "type": "double", "value" : 1932.67572815534}
                          },
                          "animationTracks" : {

                          }
                        },
                        {
                          "id" : 401,
                          "_type" : "ScreenVMFile",
                          "src" : 2,
                          "trackNumber" : 0,
                          "attributes" : {
                            "ident" : "Rec 4-22-2025-8-51-30-PM"
                          },
                          "parameters" : {
                            "geometryCrop0" : {
                              "type" : "double",
                              "defaultValue" : 0.0,
                              "interp" : "eioe"
                            },
                            "geometryCrop1" : {
                              "type" : "double",
                              "defaultValue" : 0.0,
                              "interp" : "eioe"
                            },
                            "geometryCrop2" : {
                              "type" : "double",
                              "defaultValue" : 0.0,
                              "interp" : "eioe"
                            },
                            "geometryCrop3" : {
                              "type" : "double",
                              "defaultValue" : 0.0,
                              "interp" : "eioe"
                            },
                            "cursorScale" : {
                              "type" : "double",
                              "defaultValue" : 0.0,
                              "interp" : "linr"
                            },
                            "cursorOpacity" : {
                              "type" : "double",
                              "defaultValue" : 0.0,
                              "interp" : "linr"
                            },
                            "cursorTrackLevel" : {
                              "type" : "double",
                              "defaultValue" : 0.0,
                              "interp" : "linr"
                            },
                            "smoothCursorAcrossEditDuration" : 0
                          },
                          "effects" : [

                          ],
                          "start" : 2999952480000,
                          "duration" : 20768160000,
                          "mediaStart" : 3047580480000,
                          "mediaDuration" : 20768160000,
                          "scalar" : 1,
                          "metadata" : {
                            "AutoAppliedSmartFocus" : "False",
                            "audiateLinkedSession" : "",
                            "clipSpeedAttribute" : { "type": "bool", "value" : false},
                            "colorAttribute" : { "type": "color", "value" : [ 0, 0, 0, 0]},
                            "default-height" : { "type": "double", "value" : 1036.8},
                            "default-translation0" : { "type": "double", "value" : 0.0},
                            "default-translation1" : { "type": "double", "value" : -194.4},
                            "default-translation2" : { "type": "double", "value" : 0.0},
                            "default-width" : { "type": "double", "value" : 1932.67572815534}
                          },
                          "animationTracks" : {

                          }
                        },
                        {
                          "id" : 402,
                          "_type" : "ScreenVMFile",
                          "src" : 2,
                          "trackNumber" : 0,
                          "attributes" : {
                            "ident" : "Rec 4-22-2025-8-51-30-PM"
                          },
                          "parameters" : {
                            "geometryCrop0" : {
                              "type" : "double",
                              "defaultValue" : 0.0,
                              "interp" : "eioe"
                            },
                            "geometryCrop1" : {
                              "type" : "double",
                              "defaultValue" : 0.0,
                              "interp" : "eioe"
                            },
                            "geometryCrop2" : {
                              "type" : "double",
                              "defaultValue" : 0.0,
                              "interp" : "eioe"
                            },
                            "geometryCrop3" : {
                              "type" : "double",
                              "defaultValue" : 0.0,
                              "interp" : "eioe"
                            },
                            "cursorScale" : {
                              "type" : "double",
                              "defaultValue" : 0.0,
                              "interp" : "linr"
                            },
                            "cursorOpacity" : {
                              "type" : "double",
                              "defaultValue" : 0.0,
                              "interp" : "linr"
                            },
                            "cursorTrackLevel" : {
                              "type" : "double",
                              "defaultValue" : 0.0,
                              "interp" : "linr"
                            },
                            "smoothCursorAcrossEditDuration" : 0
                          },
                          "effects" : [

                          ],
                          "start" : 3020720640000,
                          "duration" : 343039200000,
                          "mediaStart" : 3138932160000,
                          "mediaDuration" : 343039200000,
                          "scalar" : 1,
                          "metadata" : {
                            "AutoAppliedSmartFocus" : "False",
                            "audiateLinkedSession" : "",
                            "clipSpeedAttribute" : { "type": "bool", "value" : false},
                            "colorAttribute" : { "type": "color", "value" : [ 0, 0, 0, 0]},
                            "default-height" : { "type": "double", "value" : 1036.8},
                            "default-translation0" : { "type": "double", "value" : 0.0},
                            "default-translation1" : { "type": "double", "value" : -194.4},
                            "default-translation2" : { "type": "double", "value" : 0.0},
                            "default-width" : { "type": "double", "value" : 1932.67572815534}
                          },
                          "animationTracks" : {

                          }
                        }
                    ],
                    "effects" : [
                        {
                          "effectName" : "CursorColor",
                          "bypassed" : false,
                          "category" : "categoryCursorEffects",
                          "parameters" : {
                            "intensity" : 1.0,
                            "desaturation" : 0.0,
                            "colorLumaCutoff" : 1.0,
                            "color-alpha" : 1.0,
                            "color-red" : 1.0,
                            "color-green" : 0.8980392157,
                            "color-blue" : 0.1215686275,
                            "secondColor-red" : 0.0,
                            "secondColor-green" : 0.0,
                            "secondColor-blue" : 0.0,
                            "secondColor-alpha" : 1.0,
                            "secondColorLumaCutoff" : 0.0,
                            "channel" : 0,
                            "shadowRampStart" : 0.0,
                            "shadowRampEnd" : 0.0,
                            "highlightRampStart" : 1.0,
                            "highlightRampEnd" : 1.0
                          }
                        },
                        {
                          "effectName" : "CursorShadow",
                          "bypassed" : false,
                          "category" : "categoryCursorEffects",
                          "parameters" : {
                            "angle" : 3.92699081698724,
                            "enabled" : 1,
                            "offset" : 5.0,
                            "blur" : 2.0,
                            "opacity" : 0.25,
                            "color-red" : 0.0,
                            "color-green" : 0.0,
                            "color-blue" : 0.0,
                            "color-alpha" : 1.0
                          }
                        },
                        {
                          "effectName" : "CursorHilight",
                          "bypassed" : false,
                          "category" : "categoryCursorEffects",
                          "parameters" : {
                            "radius" : 50.0,
                            "color-red" : 1.0,
                            "color-green" : 1.0,
                            "color-blue" : 0.0,
                            "color-alpha" : 0.75,
                            "blur" : 0.1
                          }
                        }
                    ],
                    "start" : 97725600000,
                    "duration" : 5197920000,
                    "mediaStart" : 1912034880000,
                    "mediaDuration" : 12559680000,
                    "scalar" : "221/534",
                    "metadata" : {
                      "AutoAppliedSmartFocus" : "False",
                      "audiateLinkedSession" : "",
                      "clipSpeedAttribute" : { "type": "bool", "value" : true},
                      "colorAttribute" : { "type": "color", "value" : [ 0, 0, 0, 0]},
                      "default-anchor0" : { "type": "double", "value" : 0.0},
                      "default-anchor1" : { "type": "double", "value" : 0.0},
                      "default-anchor2" : { "type": "double", "value" : 0.0},
                      "default-height" : { "type": "double", "value" : 1036.8},
                      "default-rotation0" : { "type": "double", "value" : 0.0},
                      "default-rotation1" : { "type": "double", "value" : 0.0},
                      "default-rotation2" : { "type": "double", "value" : 0.0},
                      "default-scale0" : { "type": "double", "value" : 0.503300970873786},
                      "default-scale1" : { "type": "double", "value" : 0.503300970873786},
                      "default-scale2" : { "type": "double", "value" : 1.0},
                      "default-shear0" : { "type": "double", "value" : 0.0},
                      "default-shear1" : { "type": "double", "value" : 0.0},
                      "default-shear2" : { "type": "double", "value" : 0.0},
                      "default-translation0" : { "type": "double", "value" : 0.0},
                      "default-translation1" : { "type": "double", "value" : -194.4},
                      "default-translation2" : { "type": "double", "value" : 0.0},
                      "default-width" : { "type": "double", "value" : 1932.67572815534}
                    },
                    "animationTracks" : {

                    }
                  },
                  {
                    "id" : 403,
                    "_type" : "StitchedMedia",
                    "minMediaStart" : 0,
                    "attributes" : {
                      "ident" : "Rec 4-22-2025-8-51-30-PM",
                      "gain" : 1.0,
                      "mixToMono" : false,
                      "loudnessNormalization" : true,
                      "sourceFileOffset" : 0
                    },
                    "parameters" : {
                      "translation0" : {
                        "type" : "double",
                        "defaultValue" : 6.33786407766917,
                        "keyframes" : [
                          {
                            "endTime" : 946350720000,
                            "time" : 945645120000,
                            "value" : 1529.54135844084,
                            "duration" : 705600000
                          },
                          {
                            "endTime" : 946938720000,
                            "time" : 946350720000,
                            "value" : 2.8421709430404e-14,
                            "duration" : 588000000
                          },
                          {
                            "endTime" : 950208000000,
                            "time" : 949502400000,
                            "value" : 1769.53733046201,
                            "duration" : 705600000
                          },
                          {
                            "endTime" : 951572160000,
                            "time" : 950866560000,
                            "value" : 0.0,
                            "duration" : 705600000
                          }
                        ]
                      },
                      "translation1" : {
                        "type" : "double",
                        "defaultValue" : -2.8421709430404e-14,
                        "keyframes" : [
                          {
                            "endTime" : 946350720000,
                            "time" : 945645120000,
                            "value" : 1155.43533032585,
                            "duration" : 705600000
                          },
                          {
                            "endTime" : 946938720000,
                            "time" : 946350720000,
                            "value" : 4.2632564145606e-14,
                            "duration" : 588000000
                          },
                          {
                            "endTime" : 950208000000,
                            "time" : 949502400000,
                            "value" : 1222.37766654561,
                            "duration" : 705600000
                          },
                          {
                            "endTime" : 951572160000,
                            "time" : 950866560000,
                            "value" : -5.6843418860808e-14,
                            "duration" : 705600000
                          }
                        ]
                      },
                      "scale0" : {
                        "type" : "double",
                        "defaultValue" : 0.503300970873786,
                        "keyframes" : [
                          {
                            "endTime" : 946350720000,
                            "time" : 945645120000,
                            "value" : 2.23861295044012,
                            "duration" : 705600000
                          },
                          {
                            "endTime" : 946938720000,
                            "time" : 946350720000,
                            "value" : 0.5,
                            "duration" : 588000000
                          },
                          {
                            "endTime" : 950208000000,
                            "time" : 949502400000,
                            "value" : 2.05000008547071,
                            "duration" : 705600000
                          },
                          {
                            "endTime" : 951572160000,
                            "time" : 950866560000,
                            "value" : 0.5,
                            "duration" : 705600000
                          }
                        ]
                      },
                      "scale1" : {
                        "type" : "double",
                        "defaultValue" : 0.503300970873786,
                        "keyframes" : [
                          {
                            "endTime" : 946350720000,
                            "time" : 945645120000,
                            "value" : 2.23861378180461,
                            "duration" : 705600000
                          },
                          {
                            "endTime" : 946938720000,
                            "time" : 946350720000,
                            "value" : 0.5,
                            "duration" : 588000000
                          },
                          {
                            "endTime" : 950208000000,
                            "time" : 949502400000,
                            "value" : 2.05000025406246,
                            "duration" : 705600000
                          },
                          {
                            "endTime" : 951572160000,
                            "time" : 950866560000,
                            "value" : 0.500000041119937,
                            "duration" : 705600000
                          }
                        ]
                      },
                      "scale2" : {
                        "type" : "double",
                        "defaultValue" : 1.0,
                        "keyframes" : [
                          {
                            "endTime" : 946938720000,
                            "time" : 946350720000,
                            "value" : 0.5,
                            "duration" : 588000000
                          },
                          {
                            "endTime" : 951572160000,
                            "time" : 950866560000,
                            "value" : 0.121951214427679,
                            "duration" : 705600000
                          }
                        ]
                      },
                      "geometryCrop0" : 0.0,
                      "geometryCrop1" : 0.0,
                      "geometryCrop2" : 0.0,
                      "geometryCrop3" : 0.0,
                      "toc" : {
                        "type" : "string",
                        "keyframes" : [
                          {
                            "endTime" : 967636320000,
                            "time" : 967636320000,
                            "value" : "Add to VIPM Library",
                            "duration" : 0,
                            "metadata" : {
                              "markerIdentifier" : "C68DD123-A009-48AC-BCAA-426935C70773"
                            }
                          }
                        ]
                      },
                      "cursorOpacity" : 1.0,
                      "cursorTrackLevel" : 0.0,
                      "cursorScale" : 5.0,
                      "smoothCursorAcrossEditDuration" : 0
                    },
                    "medias" : [
                        {
                          "id" : 404,
                          "_type" : "ScreenVMFile",
                          "src" : 2,
                          "trackNumber" : 0,
                          "attributes" : {
                            "ident" : "Rec 4-22-2025-8-51-30-PM"
                          },
                          "parameters" : {
                            "geometryCrop0" : {
                              "type" : "double",
                              "defaultValue" : 0.0,
                              "interp" : "eioe"
                            },
                            "geometryCrop1" : {
                              "type" : "double",
                              "defaultValue" : 0.0,
                              "interp" : "eioe"
                            },
                            "geometryCrop2" : {
                              "type" : "double",
                              "defaultValue" : 0.0,
                              "interp" : "eioe"
                            },
                            "geometryCrop3" : {
                              "type" : "double",
                              "defaultValue" : 0.0,
                              "interp" : "eioe"
                            },
                            "cursorScale" : {
                              "type" : "double",
                              "defaultValue" : 0.0,
                              "interp" : "linr"
                            },
                            "cursorOpacity" : {
                              "type" : "double",
                              "defaultValue" : 0.0,
                              "interp" : "linr"
                            },
                            "cursorTrackLevel" : {
                              "type" : "double",
                              "defaultValue" : 0.0,
                              "interp" : "linr"
                            },
                            "smoothCursorAcrossEditDuration" : 0
                          },
                          "effects" : [

                          ],
                          "start" : 0,
                          "duration" : 50991360000,
                          "mediaStart" : 0,
                          "mediaDuration" : 50991360000,
                          "scalar" : 1,
                          "metadata" : {
                            "AutoAppliedSmartFocus" : "False",
                            "audiateLinkedSession" : "",
                            "clipSpeedAttribute" : { "type": "bool", "value" : false},
                            "colorAttribute" : { "type": "color", "value" : [ 0, 0, 0, 0]},
                            "default-height" : { "type": "double", "value" : 1036.8},
                            "default-translation0" : { "type": "double", "value" : 0.0},
                            "default-translation1" : { "type": "double", "value" : -194.4},
                            "default-translation2" : { "type": "double", "value" : 0.0},
                            "default-width" : { "type": "double", "value" : 1932.67572815534}
                          },
                          "animationTracks" : {

                          }
                        },
                        {
                          "id" : 405,
                          "_type" : "ScreenVMFile",
                          "src" : 2,
                          "trackNumber" : 0,
                          "attributes" : {
                            "ident" : "Rec 4-22-2025-8-51-30-PM"
                          },
                          "parameters" : {
                            "geometryCrop0" : {
                              "type" : "double",
                              "defaultValue" : 0.0,
                              "interp" : "eioe"
                            },
                            "geometryCrop1" : {
                              "type" : "double",
                              "defaultValue" : 0.0,
                              "interp" : "eioe"
                            },
                            "geometryCrop2" : {
                              "type" : "double",
                              "defaultValue" : 0.0,
                              "interp" : "eioe"
                            },
                            "geometryCrop3" : {
                              "type" : "double",
                              "defaultValue" : 0.0,
                              "interp" : "eioe"
                            },
                            "cursorScale" : {
                              "type" : "double",
                              "defaultValue" : 0.0,
                              "interp" : "linr"
                            },
                            "cursorOpacity" : {
                              "type" : "double",
                              "defaultValue" : 0.0,
                              "interp" : "linr"
                            },
                            "cursorTrackLevel" : {
                              "type" : "double",
                              "defaultValue" : 0.0,
                              "interp" : "linr"
                            },
                            "smoothCursorAcrossEditDuration" : 0
                          },
                          "effects" : [

                          ],
                          "start" : 50991360000,
                          "duration" : 46663680000,
                          "mediaStart" : 66467520000,
                          "mediaDuration" : 46663680000,
                          "scalar" : 1,
                          "metadata" : {
                            "AutoAppliedSmartFocus" : "False",
                            "audiateLinkedSession" : "",
                            "clipSpeedAttribute" : { "type": "bool", "value" : false},
                            "colorAttribute" : { "type": "color", "value" : [ 0, 0, 0, 0]},
                            "default-height" : { "type": "double", "value" : 1036.8},
                            "default-translation0" : { "type": "double", "value" : 0.0},
                            "default-translation1" : { "type": "double", "value" : -194.4},
                            "default-translation2" : { "type": "double", "value" : 0.0},
                            "default-width" : { "type": "double", "value" : 1932.67572815534}
                          },
                          "animationTracks" : {

                          }
                        },
                        {
                          "id" : 406,
                          "_type" : "ScreenVMFile",
                          "src" : 2,
                          "trackNumber" : 0,
                          "attributes" : {
                            "ident" : "Rec 4-22-2025-8-51-30-PM"
                          },
                          "parameters" : {
                            "geometryCrop0" : {
                              "type" : "double",
                              "defaultValue" : 0.0,
                              "interp" : "eioe"
                            },
                            "geometryCrop1" : {
                              "type" : "double",
                              "defaultValue" : 0.0,
                              "interp" : "eioe"
                            },
                            "geometryCrop2" : {
                              "type" : "double",
                              "defaultValue" : 0.0,
                              "interp" : "eioe"
                            },
                            "geometryCrop3" : {
                              "type" : "double",
                              "defaultValue" : 0.0,
                              "interp" : "eioe"
                            },
                            "cursorScale" : {
                              "type" : "double",
                              "defaultValue" : 0.0,
                              "interp" : "linr"
                            },
                            "cursorOpacity" : {
                              "type" : "double",
                              "defaultValue" : 0.0,
                              "interp" : "linr"
                            },
                            "cursorTrackLevel" : {
                              "type" : "double",
                              "defaultValue" : 0.0,
                              "interp" : "linr"
                            },
                            "smoothCursorAcrossEditDuration" : 0
                          },
                          "effects" : [

                          ],
                          "start" : 97655040000,
                          "duration" : 352282560000,
                          "mediaStart" : 149352000000,
                          "mediaDuration" : 352282560000,
                          "scalar" : 1,
                          "metadata" : {
                            "AutoAppliedSmartFocus" : "False",
                            "audiateLinkedSession" : "",
                            "clipSpeedAttribute" : { "type": "bool", "value" : false},
                            "colorAttribute" : { "type": "color", "value" : [ 0, 0, 0, 0]},
                            "default-height" : { "type": "double", "value" : 1036.8},
                            "default-translation0" : { "type": "double", "value" : 0.0},
                            "default-translation1" : { "type": "double", "value" : -194.4},
                            "default-translation2" : { "type": "double", "value" : 0.0},
                            "default-width" : { "type": "double", "value" : 1932.67572815534}
                          },
                          "animationTracks" : {

                          }
                        },
                        {
                          "id" : 407,
                          "_type" : "ScreenVMFile",
                          "src" : 2,
                          "trackNumber" : 0,
                          "attributes" : {
                            "ident" : "Rec 4-22-2025-8-51-30-PM"
                          },
                          "parameters" : {
                            "geometryCrop0" : {
                              "type" : "double",
                              "defaultValue" : 0.0,
                              "interp" : "eioe"
                            },
                            "geometryCrop1" : {
                              "type" : "double",
                              "defaultValue" : 0.0,
                              "interp" : "eioe"
                            },
                            "geometryCrop2" : {
                              "type" : "double",
                              "defaultValue" : 0.0,
                              "interp" : "eioe"
                            },
                            "geometryCrop3" : {
                              "type" : "double",
                              "defaultValue" : 0.0,
                              "interp" : "eioe"
                            },
                            "cursorScale" : {
                              "type" : "double",
                              "defaultValue" : 0.0,
                              "interp" : "linr"
                            },
                            "cursorOpacity" : {
                              "type" : "double",
                              "defaultValue" : 0.0,
                              "interp" : "linr"
                            },
                            "cursorTrackLevel" : {
                              "type" : "double",
                              "defaultValue" : 0.0,
                              "interp" : "linr"
                            },
                            "smoothCursorAcrossEditDuration" : 0
                          },
                          "effects" : [

                          ],
                          "start" : 449937600000,
                          "duration" : 8961120000,
                          "mediaStart" : 509843040000,
                          "mediaDuration" : 8961120000,
                          "scalar" : 1,
                          "metadata" : {
                            "AutoAppliedSmartFocus" : "False",
                            "audiateLinkedSession" : "",
                            "clipSpeedAttribute" : { "type": "bool", "value" : false},
                            "colorAttribute" : { "type": "color", "value" : [ 0, 0, 0, 0]},
                            "default-height" : { "type": "double", "value" : 1036.8},
                            "default-translation0" : { "type": "double", "value" : 0.0},
                            "default-translation1" : { "type": "double", "value" : -194.4},
                            "default-translation2" : { "type": "double", "value" : 0.0},
                            "default-width" : { "type": "double", "value" : 1932.67572815534}
                          },
                          "animationTracks" : {

                          }
                        },
                        {
                          "id" : 408,
                          "_type" : "ScreenVMFile",
                          "src" : 2,
                          "trackNumber" : 0,
                          "attributes" : {
                            "ident" : "Rec 4-22-2025-8-51-30-PM"
                          },
                          "parameters" : {
                            "geometryCrop0" : {
                              "type" : "double",
                              "defaultValue" : 0.0,
                              "interp" : "eioe"
                            },
                            "geometryCrop1" : {
                              "type" : "double",
                              "defaultValue" : 0.0,
                              "interp" : "eioe"
                            },
                            "geometryCrop2" : {
                              "type" : "double",
                              "defaultValue" : 0.0,
                              "interp" : "eioe"
                            },
                            "geometryCrop3" : {
                              "type" : "double",
                              "defaultValue" : 0.0,
                              "interp" : "eioe"
                            },
                            "cursorScale" : {
                              "type" : "double",
                              "defaultValue" : 0.0,
                              "interp" : "linr"
                            },
                            "cursorOpacity" : {
                              "type" : "double",
                              "defaultValue" : 0.0,
                              "interp" : "linr"
                            },
                            "cursorTrackLevel" : {
                              "type" : "double",
                              "defaultValue" : 0.0,
                              "interp" : "linr"
                            },
                            "smoothCursorAcrossEditDuration" : 0
                          },
                          "effects" : [

                          ],
                          "start" : 458898720000,
                          "duration" : 472399200000,
                          "mediaStart" : 1416350880000,
                          "mediaDuration" : 472399200000,
                          "scalar" : 1,
                          "metadata" : {
                            "AutoAppliedSmartFocus" : "False",
                            "audiateLinkedSession" : "",
                            "clipSpeedAttribute" : { "type": "bool", "value" : false},
                            "colorAttribute" : { "type": "color", "value" : [ 0, 0, 0, 0]},
                            "default-height" : { "type": "double", "value" : 1036.8},
                            "default-translation0" : { "type": "double", "value" : 0.0},
                            "default-translation1" : { "type": "double", "value" : -194.4},
                            "default-translation2" : { "type": "double", "value" : 0.0},
                            "default-width" : { "type": "double", "value" : 1932.67572815534}
                          },
                          "animationTracks" : {

                          }
                        },
                        {
                          "id" : 409,
                          "_type" : "ScreenVMFile",
                          "src" : 2,
                          "trackNumber" : 0,
                          "attributes" : {
                            "ident" : "Rec 4-22-2025-8-51-30-PM"
                          },
                          "parameters" : {
                            "geometryCrop0" : {
                              "type" : "double",
                              "defaultValue" : 0.0,
                              "interp" : "eioe"
                            },
                            "geometryCrop1" : {
                              "type" : "double",
                              "defaultValue" : 0.0,
                              "interp" : "eioe"
                            },
                            "geometryCrop2" : {
                              "type" : "double",
                              "defaultValue" : 0.0,
                              "interp" : "eioe"
                            },
                            "geometryCrop3" : {
                              "type" : "double",
                              "defaultValue" : 0.0,
                              "interp" : "eioe"
                            },
                            "cursorScale" : {
                              "type" : "double",
                              "defaultValue" : 0.0,
                              "interp" : "linr"
                            },
                            "cursorOpacity" : {
                              "type" : "double",
                              "defaultValue" : 0.0,
                              "interp" : "linr"
                            },
                            "cursorTrackLevel" : {
                              "type" : "double",
                              "defaultValue" : 0.0,
                              "interp" : "linr"
                            },
                            "smoothCursorAcrossEditDuration" : 0
                          },
                          "effects" : [

                          ],
                          "start" : 931297920000,
                          "duration" : 15781920000,
                          "mediaStart" : 1888750080000,
                          "mediaDuration" : 15781920000,
                          "scalar" : 1,
                          "metadata" : {
                            "AutoAppliedSmartFocus" : "False",
                            "audiateLinkedSession" : "",
                            "clipSpeedAttribute" : { "type": "bool", "value" : false},
                            "colorAttribute" : { "type": "color", "value" : [ 0, 0, 0, 0]},
                            "default-height" : { "type": "double", "value" : 1036.8},
                            "default-translation0" : { "type": "double", "value" : 0.0},
                            "default-translation1" : { "type": "double", "value" : -194.4},
                            "default-translation2" : { "type": "double", "value" : 0.0},
                            "default-width" : { "type": "double", "value" : 1932.67572815534}
                          },
                          "animationTracks" : {

                          }
                        },
                        {
                          "id" : 410,
                          "_type" : "ScreenVMFile",
                          "src" : 2,
                          "trackNumber" : 0,
                          "attributes" : {
                            "ident" : "Rec 4-22-2025-8-51-30-PM"
                          },
                          "parameters" : {
                            "geometryCrop0" : {
                              "type" : "double",
                              "defaultValue" : 0.0,
                              "interp" : "eioe"
                            },
                            "geometryCrop1" : {
                              "type" : "double",
                              "defaultValue" : 0.0,
                              "interp" : "eioe"
                            },
                            "geometryCrop2" : {
                              "type" : "double",
                              "defaultValue" : 0.0,
                              "interp" : "eioe"
                            },
                            "geometryCrop3" : {
                              "type" : "double",
                              "defaultValue" : 0.0,
                              "interp" : "eioe"
                            },
                            "cursorScale" : {
                              "type" : "double",
                              "defaultValue" : 0.0,
                              "interp" : "linr"
                            },
                            "cursorOpacity" : {
                              "type" : "double",
                              "defaultValue" : 0.0,
                              "interp" : "linr"
                            },
                            "cursorTrackLevel" : {
                              "type" : "double",
                              "defaultValue" : 0.0,
                              "interp" : "linr"
                            },
                            "smoothCursorAcrossEditDuration" : 0
                          },
                          "effects" : [

                          ],
                          "start" : 947079840000,
                          "duration" : 7502880000,
                          "mediaStart" : 1904532000000,
                          "mediaDuration" : 7502880000,
                          "scalar" : 1,
                          "metadata" : {
                            "AutoAppliedSmartFocus" : "False",
                            "audiateLinkedSession" : "",
                            "clipSpeedAttribute" : { "type": "bool", "value" : false},
                            "colorAttribute" : { "type": "color", "value" : [ 0, 0, 0, 0]},
                            "default-height" : { "type": "double", "value" : 1036.8},
                            "default-translation0" : { "type": "double", "value" : 0.0},
                            "default-translation1" : { "type": "double", "value" : -194.4},
                            "default-translation2" : { "type": "double", "value" : 0.0},
                            "default-width" : { "type": "double", "value" : 1932.67572815534}
                          },
                          "animationTracks" : {

                          }
                        },
                        {
                          "id" : 411,
                          "_type" : "ScreenVMFile",
                          "src" : 2,
                          "trackNumber" : 0,
                          "attributes" : {
                            "ident" : "Rec 4-22-2025-8-51-30-PM"
                          },
                          "parameters" : {
                            "geometryCrop0" : {
                              "type" : "double",
                              "defaultValue" : 0.0,
                              "interp" : "eioe"
                            },
                            "geometryCrop1" : {
                              "type" : "double",
                              "defaultValue" : 0.0,
                              "interp" : "eioe"
                            },
                            "geometryCrop2" : {
                              "type" : "double",
                              "defaultValue" : 0.0,
                              "interp" : "eioe"
                            },
                            "geometryCrop3" : {
                              "type" : "double",
                              "defaultValue" : 0.0,
                              "interp" : "eioe"
                            },
                            "cursorScale" : {
                              "type" : "double",
                              "defaultValue" : 0.0,
                              "interp" : "linr"
                            },
                            "cursorOpacity" : {
                              "type" : "double",
                              "defaultValue" : 0.0,
                              "interp" : "linr"
                            },
                            "cursorTrackLevel" : {
                              "type" : "double",
                              "defaultValue" : 0.0,
                              "interp" : "linr"
                            },
                            "smoothCursorAcrossEditDuration" : 0
                          },
                          "effects" : [

                          ],
                          "start" : 954582720000,
                          "duration" : 13053600000,
                          "mediaStart" : 1912034880000,
                          "mediaDuration" : 13053600000,
                          "scalar" : 1,
                          "metadata" : {
                            "AutoAppliedSmartFocus" : "False",
                            "audiateLinkedSession" : "",
                            "clipSpeedAttribute" : { "type": "bool", "value" : false},
                            "colorAttribute" : { "type": "color", "value" : [ 0, 0, 0, 0]},
                            "default-height" : { "type": "double", "value" : 1036.8},
                            "default-translation0" : { "type": "double", "value" : 0.0},
                            "default-translation1" : { "type": "double", "value" : -194.4},
                            "default-translation2" : { "type": "double", "value" : 0.0},
                            "default-width" : { "type": "double", "value" : 1932.67572815534}
                          },
                          "animationTracks" : {

                          }
                        },
                        {
                          "id" : 412,
                          "_type" : "ScreenVMFile",
                          "src" : 2,
                          "trackNumber" : 0,
                          "attributes" : {
                            "ident" : "Rec 4-22-2025-8-51-30-PM"
                          },
                          "parameters" : {
                            "geometryCrop0" : {
                              "type" : "double",
                              "defaultValue" : 0.0,
                              "interp" : "eioe"
                            },
                            "geometryCrop1" : {
                              "type" : "double",
                              "defaultValue" : 0.0,
                              "interp" : "eioe"
                            },
                            "geometryCrop2" : {
                              "type" : "double",
                              "defaultValue" : 0.0,
                              "interp" : "eioe"
                            },
                            "geometryCrop3" : {
                              "type" : "double",
                              "defaultValue" : 0.0,
                              "interp" : "eioe"
                            },
                            "cursorScale" : {
                              "type" : "double",
                              "defaultValue" : 0.0,
                              "interp" : "linr"
                            },
                            "cursorOpacity" : {
                              "type" : "double",
                              "defaultValue" : 0.0,
                              "interp" : "linr"
                            },
                            "cursorTrackLevel" : {
                              "type" : "double",
                              "defaultValue" : 0.0,
                              "interp" : "linr"
                            },
                            "smoothCursorAcrossEditDuration" : 0
                          },
                          "effects" : [

                          ],
                          "start" : 967636320000,
                          "duration" : 7691040000,
                          "mediaStart" : 1925088480000,
                          "mediaDuration" : 7691040000,
                          "scalar" : 1,
                          "metadata" : {
                            "AutoAppliedSmartFocus" : "False",
                            "audiateLinkedSession" : "",
                            "clipSpeedAttribute" : { "type": "bool", "value" : false},
                            "colorAttribute" : { "type": "color", "value" : [ 0, 0, 0, 0]},
                            "default-height" : { "type": "double", "value" : 1036.8},
                            "default-translation0" : { "type": "double", "value" : 0.0},
                            "default-translation1" : { "type": "double", "value" : -194.4},
                            "default-translation2" : { "type": "double", "value" : 0.0},
                            "default-width" : { "type": "double", "value" : 1932.67572815534}
                          },
                          "animationTracks" : {

                          }
                        },
                        {
                          "id" : 413,
                          "_type" : "ScreenVMFile",
                          "src" : 2,
                          "trackNumber" : 0,
                          "attributes" : {
                            "ident" : "Rec 4-22-2025-8-51-30-PM"
                          },
                          "parameters" : {
                            "geometryCrop0" : {
                              "type" : "double",
                              "defaultValue" : 0.0,
                              "interp" : "eioe"
                            },
                            "geometryCrop1" : {
                              "type" : "double",
                              "defaultValue" : 0.0,
                              "interp" : "eioe"
                            },
                            "geometryCrop2" : {
                              "type" : "double",
                              "defaultValue" : 0.0,
                              "interp" : "eioe"
                            },
                            "geometryCrop3" : {
                              "type" : "double",
                              "defaultValue" : 0.0,
                              "interp" : "eioe"
                            },
                            "cursorScale" : {
                              "type" : "double",
                              "defaultValue" : 0.0,
                              "interp" : "linr"
                            },
                            "cursorOpacity" : {
                              "type" : "double",
                              "defaultValue" : 0.0,
                              "interp" : "linr"
                            },
                            "cursorTrackLevel" : {
                              "type" : "double",
                              "defaultValue" : 0.0,
                              "interp" : "linr"
                            },
                            "smoothCursorAcrossEditDuration" : 0
                          },
                          "effects" : [

                          ],
                          "start" : 975327360000,
                          "duration" : 9807840000,
                          "mediaStart" : 1932779520000,
                          "mediaDuration" : 9807840000,
                          "scalar" : 1,
                          "metadata" : {
                            "AutoAppliedSmartFocus" : "False",
                            "audiateLinkedSession" : "",
                            "clipSpeedAttribute" : { "type": "bool", "value" : false},
                            "colorAttribute" : { "type": "color", "value" : [ 0, 0, 0, 0]},
                            "default-height" : { "type": "double", "value" : 1036.8},
                            "default-translation0" : { "type": "double", "value" : 0.0},
                            "default-translation1" : { "type": "double", "value" : -194.4},
                            "default-translation2" : { "type": "double", "value" : 0.0},
                            "default-width" : { "type": "double", "value" : 1932.67572815534}
                          },
                          "animationTracks" : {

                          }
                        },
                        {
                          "id" : 414,
                          "_type" : "ScreenVMFile",
                          "src" : 2,
                          "trackNumber" : 0,
                          "attributes" : {
                            "ident" : "Rec 4-22-2025-8-51-30-PM"
                          },
                          "parameters" : {
                            "geometryCrop0" : {
                              "type" : "double",
                              "defaultValue" : 0.0,
                              "interp" : "eioe"
                            },
                            "geometryCrop1" : {
                              "type" : "double",
                              "defaultValue" : 0.0,
                              "interp" : "eioe"
                            },
                            "geometryCrop2" : {
                              "type" : "double",
                              "defaultValue" : 0.0,
                              "interp" : "eioe"
                            },
                            "geometryCrop3" : {
                              "type" : "double",
                              "defaultValue" : 0.0,
                              "interp" : "eioe"
                            },
                            "cursorScale" : {
                              "type" : "double",
                              "defaultValue" : 0.0,
                              "interp" : "linr"
                            },
                            "cursorOpacity" : {
                              "type" : "double",
                              "defaultValue" : 0.0,
                              "interp" : "linr"
                            },
                            "cursorTrackLevel" : {
                              "type" : "double",
                              "defaultValue" : 0.0,
                              "interp" : "linr"
                            },
                            "smoothCursorAcrossEditDuration" : 0
                          },
                          "effects" : [

                          ],
                          "start" : 985135200000,
                          "duration" : 20391840000,
                          "mediaStart" : 1942587360000,
                          "mediaDuration" : 20391840000,
                          "scalar" : 1,
                          "metadata" : {
                            "AutoAppliedSmartFocus" : "False",
                            "audiateLinkedSession" : "",
                            "clipSpeedAttribute" : { "type": "bool", "value" : false},
                            "colorAttribute" : { "type": "color", "value" : [ 0, 0, 0, 0]},
                            "default-height" : { "type": "double", "value" : 1036.8},
                            "default-translation0" : { "type": "double", "value" : 0.0},
                            "default-translation1" : { "type": "double", "value" : -194.4},
                            "default-translation2" : { "type": "double", "value" : 0.0},
                            "default-width" : { "type": "double", "value" : 1932.67572815534}
                          },
                          "animationTracks" : {

                          }
                        },
                        {
                          "id" : 415,
                          "_type" : "ScreenVMFile",
                          "src" : 2,
                          "trackNumber" : 0,
                          "attributes" : {
                            "ident" : "Rec 4-22-2025-8-51-30-PM"
                          },
                          "parameters" : {
                            "geometryCrop0" : {
                              "type" : "double",
                              "defaultValue" : 0.0,
                              "interp" : "eioe"
                            },
                            "geometryCrop1" : {
                              "type" : "double",
                              "defaultValue" : 0.0,
                              "interp" : "eioe"
                            },
                            "geometryCrop2" : {
                              "type" : "double",
                              "defaultValue" : 0.0,
                              "interp" : "eioe"
                            },
                            "geometryCrop3" : {
                              "type" : "double",
                              "defaultValue" : 0.0,
                              "interp" : "eioe"
                            },
                            "cursorScale" : {
                              "type" : "double",
                              "defaultValue" : 0.0,
                              "interp" : "linr"
                            },
                            "cursorOpacity" : {
                              "type" : "double",
                              "defaultValue" : 0.0,
                              "interp" : "linr"
                            },
                            "cursorTrackLevel" : {
                              "type" : "double",
                              "defaultValue" : 0.0,
                              "interp" : "linr"
                            },
                            "smoothCursorAcrossEditDuration" : 0
                          },
                          "effects" : [

                          ],
                          "start" : 1005527040000,
                          "duration" : 8914080000,
                          "mediaStart" : 1962979200000,
                          "mediaDuration" : 8914080000,
                          "scalar" : 1,
                          "metadata" : {
                            "AutoAppliedSmartFocus" : "False",
                            "audiateLinkedSession" : "",
                            "clipSpeedAttribute" : { "type": "bool", "value" : false},
                            "colorAttribute" : { "type": "color", "value" : [ 0, 0, 0, 0]},
                            "default-height" : { "type": "double", "value" : 1036.8},
                            "default-translation0" : { "type": "double", "value" : 0.0},
                            "default-translation1" : { "type": "double", "value" : -194.4},
                            "default-translation2" : { "type": "double", "value" : 0.0},
                            "default-width" : { "type": "double", "value" : 1932.67572815534}
                          },
                          "animationTracks" : {

                          }
                        },
                        {
                          "id" : 416,
                          "_type" : "ScreenVMFile",
                          "src" : 2,
                          "trackNumber" : 0,
                          "attributes" : {
                            "ident" : "Rec 4-22-2025-8-51-30-PM"
                          },
                          "parameters" : {
                            "geometryCrop0" : {
                              "type" : "double",
                              "defaultValue" : 0.0,
                              "interp" : "eioe"
                            },
                            "geometryCrop1" : {
                              "type" : "double",
                              "defaultValue" : 0.0,
                              "interp" : "eioe"
                            },
                            "geometryCrop2" : {
                              "type" : "double",
                              "defaultValue" : 0.0,
                              "interp" : "eioe"
                            },
                            "geometryCrop3" : {
                              "type" : "double",
                              "defaultValue" : 0.0,
                              "interp" : "eioe"
                            },
                            "cursorScale" : {
                              "type" : "double",
                              "defaultValue" : 0.0,
                              "interp" : "linr"
                            },
                            "cursorOpacity" : {
                              "type" : "double",
                              "defaultValue" : 0.0,
                              "interp" : "linr"
                            },
                            "cursorTrackLevel" : {
                              "type" : "double",
                              "defaultValue" : 0.0,
                              "interp" : "linr"
                            },
                            "smoothCursorAcrossEditDuration" : 0
                          },
                          "effects" : [

                          ],
                          "start" : 1014441120000,
                          "duration" : 3034080000,
                          "mediaStart" : 1971893280000,
                          "mediaDuration" : 3034080000,
                          "scalar" : 1,
                          "metadata" : {
                            "AutoAppliedSmartFocus" : "False",
                            "audiateLinkedSession" : "",
                            "clipSpeedAttribute" : { "type": "bool", "value" : false},
                            "colorAttribute" : { "type": "color", "value" : [ 0, 0, 0, 0]},
                            "default-height" : { "type": "double", "value" : 1036.8},
                            "default-translation0" : { "type": "double", "value" : 0.0},
                            "default-translation1" : { "type": "double", "value" : -194.4},
                            "default-translation2" : { "type": "double", "value" : 0.0},
                            "default-width" : { "type": "double", "value" : 1932.67572815534}
                          },
                          "animationTracks" : {

                          }
                        },
                        {
                          "id" : 417,
                          "_type" : "ScreenVMFile",
                          "src" : 2,
                          "trackNumber" : 0,
                          "attributes" : {
                            "ident" : "Rec 4-22-2025-8-51-30-PM"
                          },
                          "parameters" : {
                            "geometryCrop0" : {
                              "type" : "double",
                              "defaultValue" : 0.0,
                              "interp" : "eioe"
                            },
                            "geometryCrop1" : {
                              "type" : "double",
                              "defaultValue" : 0.0,
                              "interp" : "eioe"
                            },
                            "geometryCrop2" : {
                              "type" : "double",
                              "defaultValue" : 0.0,
                              "interp" : "eioe"
                            },
                            "geometryCrop3" : {
                              "type" : "double",
                              "defaultValue" : 0.0,
                              "interp" : "eioe"
                            },
                            "cursorScale" : {
                              "type" : "double",
                              "defaultValue" : 0.0,
                              "interp" : "linr"
                            },
                            "cursorOpacity" : {
                              "type" : "double",
                              "defaultValue" : 0.0,
                              "interp" : "linr"
                            },
                            "cursorTrackLevel" : {
                              "type" : "double",
                              "defaultValue" : 0.0,
                              "interp" : "linr"
                            },
                            "smoothCursorAcrossEditDuration" : 0
                          },
                          "effects" : [

                          ],
                          "start" : 1017475200000,
                          "duration" : 22649760000,
                          "mediaStart" : 1974927360000,
                          "mediaDuration" : 22649760000,
                          "scalar" : 1,
                          "metadata" : {
                            "AutoAppliedSmartFocus" : "False",
                            "audiateLinkedSession" : "",
                            "clipSpeedAttribute" : { "type": "bool", "value" : false},
                            "colorAttribute" : { "type": "color", "value" : [ 0, 0, 0, 0]},
                            "default-height" : { "type": "double", "value" : 1036.8},
                            "default-translation0" : { "type": "double", "value" : 0.0},
                            "default-translation1" : { "type": "double", "value" : -194.4},
                            "default-translation2" : { "type": "double", "value" : 0.0},
                            "default-width" : { "type": "double", "value" : 1932.67572815534}
                          },
                          "animationTracks" : {

                          }
                        },
                        {
                          "id" : 418,
                          "_type" : "ScreenVMFile",
                          "src" : 2,
                          "trackNumber" : 0,
                          "attributes" : {
                            "ident" : "Rec 4-22-2025-8-51-30-PM"
                          },
                          "parameters" : {
                            "geometryCrop0" : {
                              "type" : "double",
                              "defaultValue" : 0.0,
                              "interp" : "eioe"
                            },
                            "geometryCrop1" : {
                              "type" : "double",
                              "defaultValue" : 0.0,
                              "interp" : "eioe"
                            },
                            "geometryCrop2" : {
                              "type" : "double",
                              "defaultValue" : 0.0,
                              "interp" : "eioe"
                            },
                            "geometryCrop3" : {
                              "type" : "double",
                              "defaultValue" : 0.0,
                              "interp" : "eioe"
                            },
                            "cursorScale" : {
                              "type" : "double",
                              "defaultValue" : 0.0,
                              "interp" : "linr"
                            },
                            "cursorOpacity" : {
                              "type" : "double",
                              "defaultValue" : 0.0,
                              "interp" : "linr"
                            },
                            "cursorTrackLevel" : {
                              "type" : "double",
                              "defaultValue" : 0.0,
                              "interp" : "linr"
                            },
                            "smoothCursorAcrossEditDuration" : 0
                          },
                          "effects" : [

                          ],
                          "start" : 1040124960000,
                          "duration" : 215419680000,
                          "mediaStart" : 2018886240000,
                          "mediaDuration" : 215419680000,
                          "scalar" : 1,
                          "metadata" : {
                            "AutoAppliedSmartFocus" : "False",
                            "audiateLinkedSession" : "",
                            "clipSpeedAttribute" : { "type": "bool", "value" : false},
                            "colorAttribute" : { "type": "color", "value" : [ 0, 0, 0, 0]},
                            "default-height" : { "type": "double", "value" : 1036.8},
                            "default-translation0" : { "type": "double", "value" : 0.0},
                            "default-translation1" : { "type": "double", "value" : -194.4},
                            "default-translation2" : { "type": "double", "value" : 0.0},
                            "default-width" : { "type": "double", "value" : 1932.67572815534}
                          },
                          "animationTracks" : {

                          }
                        },
                        {
                          "id" : 419,
                          "_type" : "ScreenVMFile",
                          "src" : 2,
                          "trackNumber" : 0,
                          "attributes" : {
                            "ident" : "Rec 4-22-2025-8-51-30-PM"
                          },
                          "parameters" : {
                            "geometryCrop0" : {
                              "type" : "double",
                              "defaultValue" : 0.0,
                              "interp" : "eioe"
                            },
                            "geometryCrop1" : {
                              "type" : "double",
                              "defaultValue" : 0.0,
                              "interp" : "eioe"
                            },
                            "geometryCrop2" : {
                              "type" : "double",
                              "defaultValue" : 0.0,
                              "interp" : "eioe"
                            },
                            "geometryCrop3" : {
                              "type" : "double",
                              "defaultValue" : 0.0,
                              "interp" : "eioe"
                            },
                            "cursorScale" : {
                              "type" : "double",
                              "defaultValue" : 0.0,
                              "interp" : "linr"
                            },
                            "cursorOpacity" : {
                              "type" : "double",
                              "defaultValue" : 0.0,
                              "interp" : "linr"
                            },
                            "cursorTrackLevel" : {
                              "type" : "double",
                              "defaultValue" : 0.0,
                              "interp" : "linr"
                            },
                            "smoothCursorAcrossEditDuration" : 0
                          },
                          "effects" : [

                          ],
                          "start" : 1255544640000,
                          "duration" : 786955680000,
                          "mediaStart" : 2257778880000,
                          "mediaDuration" : 786955680000,
                          "scalar" : 1,
                          "metadata" : {
                            "AutoAppliedSmartFocus" : "False",
                            "audiateLinkedSession" : "",
                            "clipSpeedAttribute" : { "type": "bool", "value" : false},
                            "colorAttribute" : { "type": "color", "value" : [ 0, 0, 0, 0]},
                            "default-height" : { "type": "double", "value" : 1036.8},
                            "default-translation0" : { "type": "double", "value" : 0.0},
                            "default-translation1" : { "type": "double", "value" : -194.4},
                            "default-translation2" : { "type": "double", "value" : 0.0},
                            "default-width" : { "type": "double", "value" : 1932.67572815534}
                          },
                          "animationTracks" : {

                          }
                        },
                        {
                          "id" : 420,
                          "_type" : "ScreenVMFile",
                          "src" : 2,
                          "trackNumber" : 0,
                          "attributes" : {
                            "ident" : "Rec 4-22-2025-8-51-30-PM"
                          },
                          "parameters" : {
                            "geometryCrop0" : {
                              "type" : "double",
                              "defaultValue" : 0.0,
                              "interp" : "eioe"
                            },
                            "geometryCrop1" : {
                              "type" : "double",
                              "defaultValue" : 0.0,
                              "interp" : "eioe"
                            },
                            "geometryCrop2" : {
                              "type" : "double",
                              "defaultValue" : 0.0,
                              "interp" : "eioe"
                            },
                            "geometryCrop3" : {
                              "type" : "double",
                              "defaultValue" : 0.0,
                              "interp" : "eioe"
                            },
                            "cursorScale" : {
                              "type" : "double",
                              "defaultValue" : 0.0,
                              "interp" : "linr"
                            },
                            "cursorOpacity" : {
                              "type" : "double",
                              "defaultValue" : 0.0,
                              "interp" : "linr"
                            },
                            "cursorTrackLevel" : {
                              "type" : "double",
                              "defaultValue" : 0.0,
                              "interp" : "linr"
                            },
                            "smoothCursorAcrossEditDuration" : 0
                          },
                          "effects" : [

                          ],
                          "start" : 2042500320000,
                          "duration" : 20768160000,
                          "mediaStart" : 3047580480000,
                          "mediaDuration" : 20768160000,
                          "scalar" : 1,
                          "metadata" : {
                            "AutoAppliedSmartFocus" : "False",
                            "audiateLinkedSession" : "",
                            "clipSpeedAttribute" : { "type": "bool", "value" : false},
                            "colorAttribute" : { "type": "color", "value" : [ 0, 0, 0, 0]},
                            "default-height" : { "type": "double", "value" : 1036.8},
                            "default-translation0" : { "type": "double", "value" : 0.0},
                            "default-translation1" : { "type": "double", "value" : -194.4},
                            "default-translation2" : { "type": "double", "value" : 0.0},
                            "default-width" : { "type": "double", "value" : 1932.67572815534}
                          },
                          "animationTracks" : {

                          }
                        },
                        {
                          "id" : 421,
                          "_type" : "ScreenVMFile",
                          "src" : 2,
                          "trackNumber" : 0,
                          "attributes" : {
                            "ident" : "Rec 4-22-2025-8-51-30-PM"
                          },
                          "parameters" : {
                            "geometryCrop0" : {
                              "type" : "double",
                              "defaultValue" : 0.0,
                              "interp" : "eioe"
                            },
                            "geometryCrop1" : {
                              "type" : "double",
                              "defaultValue" : 0.0,
                              "interp" : "eioe"
                            },
                            "geometryCrop2" : {
                              "type" : "double",
                              "defaultValue" : 0.0,
                              "interp" : "eioe"
                            },
                            "geometryCrop3" : {
                              "type" : "double",
                              "defaultValue" : 0.0,
                              "interp" : "eioe"
                            },
                            "cursorScale" : {
                              "type" : "double",
                              "defaultValue" : 0.0,
                              "interp" : "linr"
                            },
                            "cursorOpacity" : {
                              "type" : "double",
                              "defaultValue" : 0.0,
                              "interp" : "linr"
                            },
                            "cursorTrackLevel" : {
                              "type" : "double",
                              "defaultValue" : 0.0,
                              "interp" : "linr"
                            },
                            "smoothCursorAcrossEditDuration" : 0
                          },
                          "effects" : [

                          ],
                          "start" : 2063268480000,
                          "duration" : 343039200000,
                          "mediaStart" : 3138932160000,
                          "mediaDuration" : 343039200000,
                          "scalar" : 1,
                          "metadata" : {
                            "AutoAppliedSmartFocus" : "False",
                            "audiateLinkedSession" : "",
                            "clipSpeedAttribute" : { "type": "bool", "value" : false},
                            "colorAttribute" : { "type": "color", "value" : [ 0, 0, 0, 0]},
                            "default-height" : { "type": "double", "value" : 1036.8},
                            "default-translation0" : { "type": "double", "value" : 0.0},
                            "default-translation1" : { "type": "double", "value" : -194.4},
                            "default-translation2" : { "type": "double", "value" : 0.0},
                            "default-width" : { "type": "double", "value" : 1932.67572815534}
                          },
                          "animationTracks" : {

                          }
                        }
                    ],
                    "effects" : [
                        {
                          "effectName" : "CursorColor",
                          "bypassed" : false,
                          "category" : "categoryCursorEffects",
                          "parameters" : {
                            "intensity" : 1.0,
                            "desaturation" : 0.0,
                            "colorLumaCutoff" : 1.0,
                            "color-alpha" : 1.0,
                            "color-red" : 1.0,
                            "color-green" : 0.8980392157,
                            "color-blue" : 0.1215686275,
                            "secondColor-red" : 0.0,
                            "secondColor-green" : 0.0,
                            "secondColor-blue" : 0.0,
                            "secondColor-alpha" : 1.0,
                            "secondColorLumaCutoff" : 0.0,
                            "channel" : 0,
                            "shadowRampStart" : 0.0,
                            "shadowRampEnd" : 0.0,
                            "highlightRampStart" : 1.0,
                            "highlightRampEnd" : 1.0
                          }
                        },
                        {
                          "effectName" : "CursorShadow",
                          "bypassed" : false,
                          "category" : "categoryCursorEffects",
                          "parameters" : {
                            "angle" : 3.92699081698724,
                            "enabled" : 1,
                            "offset" : 5.0,
                            "blur" : 2.0,
                            "opacity" : 0.25,
                            "color-red" : 0.0,
                            "color-green" : 0.0,
                            "color-blue" : 0.0,
                            "color-alpha" : 1.0
                          }
                        },
                        {
                          "effectName" : "CursorHilight",
                          "bypassed" : false,
                          "category" : "categoryCursorEffects",
                          "parameters" : {
                            "radius" : 50.0,
                            "color-red" : 1.0,
                            "color-green" : 1.0,
                            "color-blue" : 0.0,
                            "color-alpha" : 0.75,
                            "blur" : 0.1
                          }
                        }
                    ],
                    "start" : 102923520000,
                    "duration" : 964320000,
                    "mediaStart" : 967142400000,
                    "mediaDuration" : 964320000,
                    "scalar" : 1,
                    "metadata" : {
                      "AutoAppliedSmartFocus" : "False",
                      "audiateLinkedSession" : "",
                      "clipSpeedAttribute" : { "type": "bool", "value" : true},
                      "colorAttribute" : { "type": "color", "value" : [ 0, 0, 0, 0]},
                      "default-anchor0" : { "type": "double", "value" : 0.0},
                      "default-anchor1" : { "type": "double", "value" : 0.0},
                      "default-anchor2" : { "type": "double", "value" : 0.0},
                      "default-height" : { "type": "double", "value" : 1036.8},
                      "default-rotation0" : { "type": "double", "value" : 0.0},
                      "default-rotation1" : { "type": "double", "value" : 0.0},
                      "default-rotation2" : { "type": "double", "value" : 0.0},
                      "default-scale0" : { "type": "double", "value" : 0.503300970873786},
                      "default-scale1" : { "type": "double", "value" : 0.503300970873786},
                      "default-scale2" : { "type": "double", "value" : 1.0},
                      "default-shear0" : { "type": "double", "value" : 0.0},
                      "default-shear1" : { "type": "double", "value" : 0.0},
                      "default-shear2" : { "type": "double", "value" : 0.0},
                      "default-translation0" : { "type": "double", "value" : 0.0},
                      "default-translation1" : { "type": "double", "value" : -194.4},
                      "default-translation2" : { "type": "double", "value" : 0.0},
                      "default-width" : { "type": "double", "value" : 1932.67572815534}
                    },
                    "animationTracks" : {
                      "visual" : [
                        {
                          "endTime" : 946350720000,
                          "duration" : 705600000,
                          "range" : [ 945645120000, 705600000]
                        },
                        {
                          "endTime" : 946938720000,
                          "duration" : 588000000,
                          "range" : [ 946350720000, 588000000]
                        },
                        {
                          "endTime" : 950208000000,
                          "duration" : 705600000,
                          "range" : [ 949502400000, 705600000]
                        },
                        {
                          "endTime" : 951572160000,
                          "duration" : 705600000,
                          "range" : [ 950866560000, 705600000]
                        }
                      ]
                    }
                  },
                  {
                    "id" : 422,
                    "_type" : "StitchedMedia",
                    "minMediaStart" : 0,
                    "attributes" : {
                      "ident" : "Rec 4-22-2025-8-51-30-PM",
                      "gain" : 1.0,
                      "mixToMono" : false,
                      "loudnessNormalization" : true,
                      "sourceFileOffset" : 0
                    },
                    "parameters" : {
                      "translation0" : {
                        "type" : "double",
                        "defaultValue" : 6.33786407766917,
                        "keyframes" : [
                          {
                            "endTime" : 946350720000,
                            "time" : 945645120000,
                            "value" : 1529.54135844084,
                            "duration" : 705600000
                          },
                          {
                            "endTime" : 946938720000,
                            "time" : 946350720000,
                            "value" : 2.8421709430404e-14,
                            "duration" : 588000000
                          },
                          {
                            "endTime" : 950208000000,
                            "time" : 949502400000,
                            "value" : 1769.53733046201,
                            "duration" : 705600000
                          },
                          {
                            "endTime" : 951572160000,
                            "time" : 950866560000,
                            "value" : 0.0,
                            "duration" : 705600000
                          }
                        ]
                      },
                      "translation1" : {
                        "type" : "double",
                        "defaultValue" : -2.8421709430404e-14,
                        "keyframes" : [
                          {
                            "endTime" : 946350720000,
                            "time" : 945645120000,
                            "value" : 1155.43533032585,
                            "duration" : 705600000
                          },
                          {
                            "endTime" : 946938720000,
                            "time" : 946350720000,
                            "value" : 4.2632564145606e-14,
                            "duration" : 588000000
                          },
                          {
                            "endTime" : 950208000000,
                            "time" : 949502400000,
                            "value" : 1222.37766654561,
                            "duration" : 705600000
                          },
                          {
                            "endTime" : 951572160000,
                            "time" : 950866560000,
                            "value" : -5.6843418860808e-14,
                            "duration" : 705600000
                          }
                        ]
                      },
                      "scale0" : {
                        "type" : "double",
                        "defaultValue" : 0.503300970873786,
                        "keyframes" : [
                          {
                            "endTime" : 946350720000,
                            "time" : 945645120000,
                            "value" : 2.23861295044012,
                            "duration" : 705600000
                          },
                          {
                            "endTime" : 946938720000,
                            "time" : 946350720000,
                            "value" : 0.5,
                            "duration" : 588000000
                          },
                          {
                            "endTime" : 950208000000,
                            "time" : 949502400000,
                            "value" : 2.05000008547071,
                            "duration" : 705600000
                          },
                          {
                            "endTime" : 951572160000,
                            "time" : 950866560000,
                            "value" : 0.5,
                            "duration" : 705600000
                          }
                        ]
                      },
                      "scale1" : {
                        "type" : "double",
                        "defaultValue" : 0.503300970873786,
                        "keyframes" : [
                          {
                            "endTime" : 946350720000,
                            "time" : 945645120000,
                            "value" : 2.23861378180461,
                            "duration" : 705600000
                          },
                          {
                            "endTime" : 946938720000,
                            "time" : 946350720000,
                            "value" : 0.5,
                            "duration" : 588000000
                          },
                          {
                            "endTime" : 950208000000,
                            "time" : 949502400000,
                            "value" : 2.05000025406246,
                            "duration" : 705600000
                          },
                          {
                            "endTime" : 951572160000,
                            "time" : 950866560000,
                            "value" : 0.500000041119937,
                            "duration" : 705600000
                          }
                        ]
                      },
                      "scale2" : {
                        "type" : "double",
                        "defaultValue" : 1.0,
                        "keyframes" : [
                          {
                            "endTime" : 946938720000,
                            "time" : 946350720000,
                            "value" : 0.5,
                            "duration" : 588000000
                          },
                          {
                            "endTime" : 951572160000,
                            "time" : 950866560000,
                            "value" : 0.121951214427679,
                            "duration" : 705600000
                          }
                        ]
                      },
                      "geometryCrop0" : 0.0,
                      "geometryCrop1" : 0.0,
                      "geometryCrop2" : 0.0,
                      "geometryCrop3" : 0.0,
                      "cursorOpacity" : 1.0,
                      "cursorTrackLevel" : 0.0,
                      "cursorScale" : 5.0,
                      "smoothCursorAcrossEditDuration" : 0
                    },
                    "medias" : [
                        {
                          "id" : 423,
                          "_type" : "ScreenVMFile",
                          "src" : 2,
                          "trackNumber" : 0,
                          "attributes" : {
                            "ident" : "Rec 4-22-2025-8-51-30-PM"
                          },
                          "parameters" : {
                            "geometryCrop0" : {
                              "type" : "double",
                              "defaultValue" : 0.0,
                              "interp" : "eioe"
                            },
                            "geometryCrop1" : {
                              "type" : "double",
                              "defaultValue" : 0.0,
                              "interp" : "eioe"
                            },
                            "geometryCrop2" : {
                              "type" : "double",
                              "defaultValue" : 0.0,
                              "interp" : "eioe"
                            },
                            "geometryCrop3" : {
                              "type" : "double",
                              "defaultValue" : 0.0,
                              "interp" : "eioe"
                            },
                            "cursorScale" : {
                              "type" : "double",
                              "defaultValue" : 0.0,
                              "interp" : "linr"
                            },
                            "cursorOpacity" : {
                              "type" : "double",
                              "defaultValue" : 0.0,
                              "interp" : "linr"
                            },
                            "cursorTrackLevel" : {
                              "type" : "double",
                              "defaultValue" : 0.0,
                              "interp" : "linr"
                            },
                            "smoothCursorAcrossEditDuration" : 0
                          },
                          "effects" : [

                          ],
                          "start" : 0,
                          "duration" : 50991360000,
                          "mediaStart" : 0,
                          "mediaDuration" : 50991360000,
                          "scalar" : 1,
                          "metadata" : {
                            "AutoAppliedSmartFocus" : "False",
                            "audiateLinkedSession" : "",
                            "clipSpeedAttribute" : { "type": "bool", "value" : false},
                            "colorAttribute" : { "type": "color", "value" : [ 0, 0, 0, 0]},
                            "default-height" : { "type": "double", "value" : 1036.8},
                            "default-translation0" : { "type": "double", "value" : 0.0},
                            "default-translation1" : { "type": "double", "value" : -194.4},
                            "default-translation2" : { "type": "double", "value" : 0.0},
                            "default-width" : { "type": "double", "value" : 1932.67572815534}
                          },
                          "animationTracks" : {

                          }
                        },
                        {
                          "id" : 424,
                          "_type" : "ScreenVMFile",
                          "src" : 2,
                          "trackNumber" : 0,
                          "attributes" : {
                            "ident" : "Rec 4-22-2025-8-51-30-PM"
                          },
                          "parameters" : {
                            "geometryCrop0" : {
                              "type" : "double",
                              "defaultValue" : 0.0,
                              "interp" : "eioe"
                            },
                            "geometryCrop1" : {
                              "type" : "double",
                              "defaultValue" : 0.0,
                              "interp" : "eioe"
                            },
                            "geometryCrop2" : {
                              "type" : "double",
                              "defaultValue" : 0.0,
                              "interp" : "eioe"
                            },
                            "geometryCrop3" : {
                              "type" : "double",
                              "defaultValue" : 0.0,
                              "interp" : "eioe"
                            },
                            "cursorScale" : {
                              "type" : "double",
                              "defaultValue" : 0.0,
                              "interp" : "linr"
                            },
                            "cursorOpacity" : {
                              "type" : "double",
                              "defaultValue" : 0.0,
                              "interp" : "linr"
                            },
                            "cursorTrackLevel" : {
                              "type" : "double",
                              "defaultValue" : 0.0,
                              "interp" : "linr"
                            },
                            "smoothCursorAcrossEditDuration" : 0
                          },
                          "effects" : [

                          ],
                          "start" : 50991360000,
                          "duration" : 46663680000,
                          "mediaStart" : 66467520000,
                          "mediaDuration" : 46663680000,
                          "scalar" : 1,
                          "metadata" : {
                            "AutoAppliedSmartFocus" : "False",
                            "audiateLinkedSession" : "",
                            "clipSpeedAttribute" : { "type": "bool", "value" : false},
                            "colorAttribute" : { "type": "color", "value" : [ 0, 0, 0, 0]},
                            "default-height" : { "type": "double", "value" : 1036.8},
                            "default-translation0" : { "type": "double", "value" : 0.0},
                            "default-translation1" : { "type": "double", "value" : -194.4},
                            "default-translation2" : { "type": "double", "value" : 0.0},
                            "default-width" : { "type": "double", "value" : 1932.67572815534}
                          },
                          "animationTracks" : {

                          }
                        },
                        {
                          "id" : 425,
                          "_type" : "ScreenVMFile",
                          "src" : 2,
                          "trackNumber" : 0,
                          "attributes" : {
                            "ident" : "Rec 4-22-2025-8-51-30-PM"
                          },
                          "parameters" : {
                            "geometryCrop0" : {
                              "type" : "double",
                              "defaultValue" : 0.0,
                              "interp" : "eioe"
                            },
                            "geometryCrop1" : {
                              "type" : "double",
                              "defaultValue" : 0.0,
                              "interp" : "eioe"
                            },
                            "geometryCrop2" : {
                              "type" : "double",
                              "defaultValue" : 0.0,
                              "interp" : "eioe"
                            },
                            "geometryCrop3" : {
                              "type" : "double",
                              "defaultValue" : 0.0,
                              "interp" : "eioe"
                            },
                            "cursorScale" : {
                              "type" : "double",
                              "defaultValue" : 0.0,
                              "interp" : "linr"
                            },
                            "cursorOpacity" : {
                              "type" : "double",
                              "defaultValue" : 0.0,
                              "interp" : "linr"
                            },
                            "cursorTrackLevel" : {
                              "type" : "double",
                              "defaultValue" : 0.0,
                              "interp" : "linr"
                            },
                            "smoothCursorAcrossEditDuration" : 0
                          },
                          "effects" : [

                          ],
                          "start" : 97655040000,
                          "duration" : 352282560000,
                          "mediaStart" : 149352000000,
                          "mediaDuration" : 352282560000,
                          "scalar" : 1,
                          "metadata" : {
                            "AutoAppliedSmartFocus" : "False",
                            "audiateLinkedSession" : "",
                            "clipSpeedAttribute" : { "type": "bool", "value" : false},
                            "colorAttribute" : { "type": "color", "value" : [ 0, 0, 0, 0]},
                            "default-height" : { "type": "double", "value" : 1036.8},
                            "default-translation0" : { "type": "double", "value" : 0.0},
                            "default-translation1" : { "type": "double", "value" : -194.4},
                            "default-translation2" : { "type": "double", "value" : 0.0},
                            "default-width" : { "type": "double", "value" : 1932.67572815534}
                          },
                          "animationTracks" : {

                          }
                        },
                        {
                          "id" : 426,
                          "_type" : "ScreenVMFile",
                          "src" : 2,
                          "trackNumber" : 0,
                          "attributes" : {
                            "ident" : "Rec 4-22-2025-8-51-30-PM"
                          },
                          "parameters" : {
                            "geometryCrop0" : {
                              "type" : "double",
                              "defaultValue" : 0.0,
                              "interp" : "eioe"
                            },
                            "geometryCrop1" : {
                              "type" : "double",
                              "defaultValue" : 0.0,
                              "interp" : "eioe"
                            },
                            "geometryCrop2" : {
                              "type" : "double",
                              "defaultValue" : 0.0,
                              "interp" : "eioe"
                            },
                            "geometryCrop3" : {
                              "type" : "double",
                              "defaultValue" : 0.0,
                              "interp" : "eioe"
                            },
                            "cursorScale" : {
                              "type" : "double",
                              "defaultValue" : 0.0,
                              "interp" : "linr"
                            },
                            "cursorOpacity" : {
                              "type" : "double",
                              "defaultValue" : 0.0,
                              "interp" : "linr"
                            },
                            "cursorTrackLevel" : {
                              "type" : "double",
                              "defaultValue" : 0.0,
                              "interp" : "linr"
                            },
                            "smoothCursorAcrossEditDuration" : 0
                          },
                          "effects" : [

                          ],
                          "start" : 449937600000,
                          "duration" : 8961120000,
                          "mediaStart" : 509843040000,
                          "mediaDuration" : 8961120000,
                          "scalar" : 1,
                          "metadata" : {
                            "AutoAppliedSmartFocus" : "False",
                            "audiateLinkedSession" : "",
                            "clipSpeedAttribute" : { "type": "bool", "value" : false},
                            "colorAttribute" : { "type": "color", "value" : [ 0, 0, 0, 0]},
                            "default-height" : { "type": "double", "value" : 1036.8},
                            "default-translation0" : { "type": "double", "value" : 0.0},
                            "default-translation1" : { "type": "double", "value" : -194.4},
                            "default-translation2" : { "type": "double", "value" : 0.0},
                            "default-width" : { "type": "double", "value" : 1932.67572815534}
                          },
                          "animationTracks" : {

                          }
                        },
                        {
                          "id" : 427,
                          "_type" : "ScreenVMFile",
                          "src" : 2,
                          "trackNumber" : 0,
                          "attributes" : {
                            "ident" : "Rec 4-22-2025-8-51-30-PM"
                          },
                          "parameters" : {
                            "geometryCrop0" : {
                              "type" : "double",
                              "defaultValue" : 0.0,
                              "interp" : "eioe"
                            },
                            "geometryCrop1" : {
                              "type" : "double",
                              "defaultValue" : 0.0,
                              "interp" : "eioe"
                            },
                            "geometryCrop2" : {
                              "type" : "double",
                              "defaultValue" : 0.0,
                              "interp" : "eioe"
                            },
                            "geometryCrop3" : {
                              "type" : "double",
                              "defaultValue" : 0.0,
                              "interp" : "eioe"
                            },
                            "cursorScale" : {
                              "type" : "double",
                              "defaultValue" : 0.0,
                              "interp" : "linr"
                            },
                            "cursorOpacity" : {
                              "type" : "double",
                              "defaultValue" : 0.0,
                              "interp" : "linr"
                            },
                            "cursorTrackLevel" : {
                              "type" : "double",
                              "defaultValue" : 0.0,
                              "interp" : "linr"
                            },
                            "smoothCursorAcrossEditDuration" : 0
                          },
                          "effects" : [

                          ],
                          "start" : 458898720000,
                          "duration" : 472399200000,
                          "mediaStart" : 1416350880000,
                          "mediaDuration" : 472399200000,
                          "scalar" : 1,
                          "metadata" : {
                            "AutoAppliedSmartFocus" : "False",
                            "audiateLinkedSession" : "",
                            "clipSpeedAttribute" : { "type": "bool", "value" : false},
                            "colorAttribute" : { "type": "color", "value" : [ 0, 0, 0, 0]},
                            "default-height" : { "type": "double", "value" : 1036.8},
                            "default-translation0" : { "type": "double", "value" : 0.0},
                            "default-translation1" : { "type": "double", "value" : -194.4},
                            "default-translation2" : { "type": "double", "value" : 0.0},
                            "default-width" : { "type": "double", "value" : 1932.67572815534}
                          },
                          "animationTracks" : {

                          }
                        },
                        {
                          "id" : 428,
                          "_type" : "ScreenVMFile",
                          "src" : 2,
                          "trackNumber" : 0,
                          "attributes" : {
                            "ident" : "Rec 4-22-2025-8-51-30-PM"
                          },
                          "parameters" : {
                            "geometryCrop0" : {
                              "type" : "double",
                              "defaultValue" : 0.0,
                              "interp" : "eioe"
                            },
                            "geometryCrop1" : {
                              "type" : "double",
                              "defaultValue" : 0.0,
                              "interp" : "eioe"
                            },
                            "geometryCrop2" : {
                              "type" : "double",
                              "defaultValue" : 0.0,
                              "interp" : "eioe"
                            },
                            "geometryCrop3" : {
                              "type" : "double",
                              "defaultValue" : 0.0,
                              "interp" : "eioe"
                            },
                            "cursorScale" : {
                              "type" : "double",
                              "defaultValue" : 0.0,
                              "interp" : "linr"
                            },
                            "cursorOpacity" : {
                              "type" : "double",
                              "defaultValue" : 0.0,
                              "interp" : "linr"
                            },
                            "cursorTrackLevel" : {
                              "type" : "double",
                              "defaultValue" : 0.0,
                              "interp" : "linr"
                            },
                            "smoothCursorAcrossEditDuration" : 0
                          },
                          "effects" : [

                          ],
                          "start" : 931297920000,
                          "duration" : 15781920000,
                          "mediaStart" : 1888750080000,
                          "mediaDuration" : 15781920000,
                          "scalar" : 1,
                          "metadata" : {
                            "AutoAppliedSmartFocus" : "False",
                            "audiateLinkedSession" : "",
                            "clipSpeedAttribute" : { "type": "bool", "value" : false},
                            "colorAttribute" : { "type": "color", "value" : [ 0, 0, 0, 0]},
                            "default-height" : { "type": "double", "value" : 1036.8},
                            "default-translation0" : { "type": "double", "value" : 0.0},
                            "default-translation1" : { "type": "double", "value" : -194.4},
                            "default-translation2" : { "type": "double", "value" : 0.0},
                            "default-width" : { "type": "double", "value" : 1932.67572815534}
                          },
                          "animationTracks" : {

                          }
                        },
                        {
                          "id" : 429,
                          "_type" : "ScreenVMFile",
                          "src" : 2,
                          "trackNumber" : 0,
                          "attributes" : {
                            "ident" : "Rec 4-22-2025-8-51-30-PM"
                          },
                          "parameters" : {
                            "geometryCrop0" : {
                              "type" : "double",
                              "defaultValue" : 0.0,
                              "interp" : "eioe"
                            },
                            "geometryCrop1" : {
                              "type" : "double",
                              "defaultValue" : 0.0,
                              "interp" : "eioe"
                            },
                            "geometryCrop2" : {
                              "type" : "double",
                              "defaultValue" : 0.0,
                              "interp" : "eioe"
                            },
                            "geometryCrop3" : {
                              "type" : "double",
                              "defaultValue" : 0.0,
                              "interp" : "eioe"
                            },
                            "cursorScale" : {
                              "type" : "double",
                              "defaultValue" : 0.0,
                              "interp" : "linr"
                            },
                            "cursorOpacity" : {
                              "type" : "double",
                              "defaultValue" : 0.0,
                              "interp" : "linr"
                            },
                            "cursorTrackLevel" : {
                              "type" : "double",
                              "defaultValue" : 0.0,
                              "interp" : "linr"
                            },
                            "smoothCursorAcrossEditDuration" : 0
                          },
                          "effects" : [

                          ],
                          "start" : 947079840000,
                          "duration" : 7502880000,
                          "mediaStart" : 1904532000000,
                          "mediaDuration" : 7502880000,
                          "scalar" : 1,
                          "metadata" : {
                            "AutoAppliedSmartFocus" : "False",
                            "audiateLinkedSession" : "",
                            "clipSpeedAttribute" : { "type": "bool", "value" : false},
                            "colorAttribute" : { "type": "color", "value" : [ 0, 0, 0, 0]},
                            "default-height" : { "type": "double", "value" : 1036.8},
                            "default-translation0" : { "type": "double", "value" : 0.0},
                            "default-translation1" : { "type": "double", "value" : -194.4},
                            "default-translation2" : { "type": "double", "value" : 0.0},
                            "default-width" : { "type": "double", "value" : 1932.67572815534}
                          },
                          "animationTracks" : {

                          }
                        },
                        {
                          "id" : 430,
                          "_type" : "ScreenVMFile",
                          "src" : 2,
                          "trackNumber" : 0,
                          "attributes" : {
                            "ident" : "Rec 4-22-2025-8-51-30-PM"
                          },
                          "parameters" : {
                            "geometryCrop0" : {
                              "type" : "double",
                              "defaultValue" : 0.0,
                              "interp" : "eioe"
                            },
                            "geometryCrop1" : {
                              "type" : "double",
                              "defaultValue" : 0.0,
                              "interp" : "eioe"
                            },
                            "geometryCrop2" : {
                              "type" : "double",
                              "defaultValue" : 0.0,
                              "interp" : "eioe"
                            },
                            "geometryCrop3" : {
                              "type" : "double",
                              "defaultValue" : 0.0,
                              "interp" : "eioe"
                            },
                            "cursorScale" : {
                              "type" : "double",
                              "defaultValue" : 0.0,
                              "interp" : "linr"
                            },
                            "cursorOpacity" : {
                              "type" : "double",
                              "defaultValue" : 0.0,
                              "interp" : "linr"
                            },
                            "cursorTrackLevel" : {
                              "type" : "double",
                              "defaultValue" : 0.0,
                              "interp" : "linr"
                            },
                            "smoothCursorAcrossEditDuration" : 0
                          },
                          "effects" : [

                          ],
                          "start" : 954582720000,
                          "duration" : 13053600000,
                          "mediaStart" : 1912034880000,
                          "mediaDuration" : 13053600000,
                          "scalar" : 1,
                          "metadata" : {
                            "AutoAppliedSmartFocus" : "False",
                            "audiateLinkedSession" : "",
                            "clipSpeedAttribute" : { "type": "bool", "value" : false},
                            "colorAttribute" : { "type": "color", "value" : [ 0, 0, 0, 0]},
                            "default-height" : { "type": "double", "value" : 1036.8},
                            "default-translation0" : { "type": "double", "value" : 0.0},
                            "default-translation1" : { "type": "double", "value" : -194.4},
                            "default-translation2" : { "type": "double", "value" : 0.0},
                            "default-width" : { "type": "double", "value" : 1932.67572815534}
                          },
                          "animationTracks" : {

                          }
                        },
                        {
                          "id" : 431,
                          "_type" : "ScreenVMFile",
                          "src" : 2,
                          "trackNumber" : 0,
                          "attributes" : {
                            "ident" : "Rec 4-22-2025-8-51-30-PM"
                          },
                          "parameters" : {
                            "geometryCrop0" : {
                              "type" : "double",
                              "defaultValue" : 0.0,
                              "interp" : "eioe"
                            },
                            "geometryCrop1" : {
                              "type" : "double",
                              "defaultValue" : 0.0,
                              "interp" : "eioe"
                            },
                            "geometryCrop2" : {
                              "type" : "double",
                              "defaultValue" : 0.0,
                              "interp" : "eioe"
                            },
                            "geometryCrop3" : {
                              "type" : "double",
                              "defaultValue" : 0.0,
                              "interp" : "eioe"
                            },
                            "cursorScale" : {
                              "type" : "double",
                              "defaultValue" : 0.0,
                              "interp" : "linr"
                            },
                            "cursorOpacity" : {
                              "type" : "double",
                              "defaultValue" : 0.0,
                              "interp" : "linr"
                            },
                            "cursorTrackLevel" : {
                              "type" : "double",
                              "defaultValue" : 0.0,
                              "interp" : "linr"
                            },
                            "smoothCursorAcrossEditDuration" : 0
                          },
                          "effects" : [

                          ],
                          "start" : 967636320000,
                          "duration" : 7691040000,
                          "mediaStart" : 1925088480000,
                          "mediaDuration" : 7691040000,
                          "scalar" : 1,
                          "metadata" : {
                            "AutoAppliedSmartFocus" : "False",
                            "audiateLinkedSession" : "",
                            "clipSpeedAttribute" : { "type": "bool", "value" : false},
                            "colorAttribute" : { "type": "color", "value" : [ 0, 0, 0, 0]},
                            "default-height" : { "type": "double", "value" : 1036.8},
                            "default-translation0" : { "type": "double", "value" : 0.0},
                            "default-translation1" : { "type": "double", "value" : -194.4},
                            "default-translation2" : { "type": "double", "value" : 0.0},
                            "default-width" : { "type": "double", "value" : 1932.67572815534}
                          },
                          "animationTracks" : {

                          }
                        },
                        {
                          "id" : 432,
                          "_type" : "ScreenVMFile",
                          "src" : 2,
                          "trackNumber" : 0,
                          "attributes" : {
                            "ident" : "Rec 4-22-2025-8-51-30-PM"
                          },
                          "parameters" : {
                            "geometryCrop0" : {
                              "type" : "double",
                              "defaultValue" : 0.0,
                              "interp" : "eioe"
                            },
                            "geometryCrop1" : {
                              "type" : "double",
                              "defaultValue" : 0.0,
                              "interp" : "eioe"
                            },
                            "geometryCrop2" : {
                              "type" : "double",
                              "defaultValue" : 0.0,
                              "interp" : "eioe"
                            },
                            "geometryCrop3" : {
                              "type" : "double",
                              "defaultValue" : 0.0,
                              "interp" : "eioe"
                            },
                            "cursorScale" : {
                              "type" : "double",
                              "defaultValue" : 0.0,
                              "interp" : "linr"
                            },
                            "cursorOpacity" : {
                              "type" : "double",
                              "defaultValue" : 0.0,
                              "interp" : "linr"
                            },
                            "cursorTrackLevel" : {
                              "type" : "double",
                              "defaultValue" : 0.0,
                              "interp" : "linr"
                            },
                            "smoothCursorAcrossEditDuration" : 0
                          },
                          "effects" : [

                          ],
                          "start" : 975327360000,
                          "duration" : 9807840000,
                          "mediaStart" : 1932779520000,
                          "mediaDuration" : 9807840000,
                          "scalar" : 1,
                          "metadata" : {
                            "AutoAppliedSmartFocus" : "False",
                            "audiateLinkedSession" : "",
                            "clipSpeedAttribute" : { "type": "bool", "value" : false},
                            "colorAttribute" : { "type": "color", "value" : [ 0, 0, 0, 0]},
                            "default-height" : { "type": "double", "value" : 1036.8},
                            "default-translation0" : { "type": "double", "value" : 0.0},
                            "default-translation1" : { "type": "double", "value" : -194.4},
                            "default-translation2" : { "type": "double", "value" : 0.0},
                            "default-width" : { "type": "double", "value" : 1932.67572815534}
                          },
                          "animationTracks" : {

                          }
                        },
                        {
                          "id" : 433,
                          "_type" : "ScreenVMFile",
                          "src" : 2,
                          "trackNumber" : 0,
                          "attributes" : {
                            "ident" : "Rec 4-22-2025-8-51-30-PM"
                          },
                          "parameters" : {
                            "geometryCrop0" : {
                              "type" : "double",
                              "defaultValue" : 0.0,
                              "interp" : "eioe"
                            },
                            "geometryCrop1" : {
                              "type" : "double",
                              "defaultValue" : 0.0,
                              "interp" : "eioe"
                            },
                            "geometryCrop2" : {
                              "type" : "double",
                              "defaultValue" : 0.0,
                              "interp" : "eioe"
                            },
                            "geometryCrop3" : {
                              "type" : "double",
                              "defaultValue" : 0.0,
                              "interp" : "eioe"
                            },
                            "cursorScale" : {
                              "type" : "double",
                              "defaultValue" : 0.0,
                              "interp" : "linr"
                            },
                            "cursorOpacity" : {
                              "type" : "double",
                              "defaultValue" : 0.0,
                              "interp" : "linr"
                            },
                            "cursorTrackLevel" : {
                              "type" : "double",
                              "defaultValue" : 0.0,
                              "interp" : "linr"
                            },
                            "smoothCursorAcrossEditDuration" : 0
                          },
                          "effects" : [

                          ],
                          "start" : 985135200000,
                          "duration" : 20391840000,
                          "mediaStart" : 1942587360000,
                          "mediaDuration" : 20391840000,
                          "scalar" : 1,
                          "metadata" : {
                            "AutoAppliedSmartFocus" : "False",
                            "audiateLinkedSession" : "",
                            "clipSpeedAttribute" : { "type": "bool", "value" : false},
                            "colorAttribute" : { "type": "color", "value" : [ 0, 0, 0, 0]},
                            "default-height" : { "type": "double", "value" : 1036.8},
                            "default-translation0" : { "type": "double", "value" : 0.0},
                            "default-translation1" : { "type": "double", "value" : -194.4},
                            "default-translation2" : { "type": "double", "value" : 0.0},
                            "default-width" : { "type": "double", "value" : 1932.67572815534}
                          },
                          "animationTracks" : {

                          }
                        },
                        {
                          "id" : 434,
                          "_type" : "ScreenVMFile",
                          "src" : 2,
                          "trackNumber" : 0,
                          "attributes" : {
                            "ident" : "Rec 4-22-2025-8-51-30-PM"
                          },
                          "parameters" : {
                            "geometryCrop0" : {
                              "type" : "double",
                              "defaultValue" : 0.0,
                              "interp" : "eioe"
                            },
                            "geometryCrop1" : {
                              "type" : "double",
                              "defaultValue" : 0.0,
                              "interp" : "eioe"
                            },
                            "geometryCrop2" : {
                              "type" : "double",
                              "defaultValue" : 0.0,
                              "interp" : "eioe"
                            },
                            "geometryCrop3" : {
                              "type" : "double",
                              "defaultValue" : 0.0,
                              "interp" : "eioe"
                            },
                            "cursorScale" : {
                              "type" : "double",
                              "defaultValue" : 0.0,
                              "interp" : "linr"
                            },
                            "cursorOpacity" : {
                              "type" : "double",
                              "defaultValue" : 0.0,
                              "interp" : "linr"
                            },
                            "cursorTrackLevel" : {
                              "type" : "double",
                              "defaultValue" : 0.0,
                              "interp" : "linr"
                            },
                            "smoothCursorAcrossEditDuration" : 0
                          },
                          "effects" : [

                          ],
                          "start" : 1005527040000,
                          "duration" : 8914080000,
                          "mediaStart" : 1962979200000,
                          "mediaDuration" : 8914080000,
                          "scalar" : 1,
                          "metadata" : {
                            "AutoAppliedSmartFocus" : "False",
                            "audiateLinkedSession" : "",
                            "clipSpeedAttribute" : { "type": "bool", "value" : false},
                            "colorAttribute" : { "type": "color", "value" : [ 0, 0, 0, 0]},
                            "default-height" : { "type": "double", "value" : 1036.8},
                            "default-translation0" : { "type": "double", "value" : 0.0},
                            "default-translation1" : { "type": "double", "value" : -194.4},
                            "default-translation2" : { "type": "double", "value" : 0.0},
                            "default-width" : { "type": "double", "value" : 1932.67572815534}
                          },
                          "animationTracks" : {

                          }
                        },
                        {
                          "id" : 435,
                          "_type" : "ScreenVMFile",
                          "src" : 2,
                          "trackNumber" : 0,
                          "attributes" : {
                            "ident" : "Rec 4-22-2025-8-51-30-PM"
                          },
                          "parameters" : {
                            "geometryCrop0" : {
                              "type" : "double",
                              "defaultValue" : 0.0,
                              "interp" : "eioe"
                            },
                            "geometryCrop1" : {
                              "type" : "double",
                              "defaultValue" : 0.0,
                              "interp" : "eioe"
                            },
                            "geometryCrop2" : {
                              "type" : "double",
                              "defaultValue" : 0.0,
                              "interp" : "eioe"
                            },
                            "geometryCrop3" : {
                              "type" : "double",
                              "defaultValue" : 0.0,
                              "interp" : "eioe"
                            },
                            "cursorScale" : {
                              "type" : "double",
                              "defaultValue" : 0.0,
                              "interp" : "linr"
                            },
                            "cursorOpacity" : {
                              "type" : "double",
                              "defaultValue" : 0.0,
                              "interp" : "linr"
                            },
                            "cursorTrackLevel" : {
                              "type" : "double",
                              "defaultValue" : 0.0,
                              "interp" : "linr"
                            },
                            "smoothCursorAcrossEditDuration" : 0
                          },
                          "effects" : [

                          ],
                          "start" : 1014441120000,
                          "duration" : 3034080000,
                          "mediaStart" : 1971893280000,
                          "mediaDuration" : 3034080000,
                          "scalar" : 1,
                          "metadata" : {
                            "AutoAppliedSmartFocus" : "False",
                            "audiateLinkedSession" : "",
                            "clipSpeedAttribute" : { "type": "bool", "value" : false},
                            "colorAttribute" : { "type": "color", "value" : [ 0, 0, 0, 0]},
                            "default-height" : { "type": "double", "value" : 1036.8},
                            "default-translation0" : { "type": "double", "value" : 0.0},
                            "default-translation1" : { "type": "double", "value" : -194.4},
                            "default-translation2" : { "type": "double", "value" : 0.0},
                            "default-width" : { "type": "double", "value" : 1932.67572815534}
                          },
                          "animationTracks" : {

                          }
                        },
                        {
                          "id" : 436,
                          "_type" : "ScreenVMFile",
                          "src" : 2,
                          "trackNumber" : 0,
                          "attributes" : {
                            "ident" : "Rec 4-22-2025-8-51-30-PM"
                          },
                          "parameters" : {
                            "geometryCrop0" : {
                              "type" : "double",
                              "defaultValue" : 0.0,
                              "interp" : "eioe"
                            },
                            "geometryCrop1" : {
                              "type" : "double",
                              "defaultValue" : 0.0,
                              "interp" : "eioe"
                            },
                            "geometryCrop2" : {
                              "type" : "double",
                              "defaultValue" : 0.0,
                              "interp" : "eioe"
                            },
                            "geometryCrop3" : {
                              "type" : "double",
                              "defaultValue" : 0.0,
                              "interp" : "eioe"
                            },
                            "cursorScale" : {
                              "type" : "double",
                              "defaultValue" : 0.0,
                              "interp" : "linr"
                            },
                            "cursorOpacity" : {
                              "type" : "double",
                              "defaultValue" : 0.0,
                              "interp" : "linr"
                            },
                            "cursorTrackLevel" : {
                              "type" : "double",
                              "defaultValue" : 0.0,
                              "interp" : "linr"
                            },
                            "smoothCursorAcrossEditDuration" : 0
                          },
                          "effects" : [

                          ],
                          "start" : 1017475200000,
                          "duration" : 22649760000,
                          "mediaStart" : 1974927360000,
                          "mediaDuration" : 22649760000,
                          "scalar" : 1,
                          "metadata" : {
                            "AutoAppliedSmartFocus" : "False",
                            "audiateLinkedSession" : "",
                            "clipSpeedAttribute" : { "type": "bool", "value" : false},
                            "colorAttribute" : { "type": "color", "value" : [ 0, 0, 0, 0]},
                            "default-height" : { "type": "double", "value" : 1036.8},
                            "default-translation0" : { "type": "double", "value" : 0.0},
                            "default-translation1" : { "type": "double", "value" : -194.4},
                            "default-translation2" : { "type": "double", "value" : 0.0},
                            "default-width" : { "type": "double", "value" : 1932.67572815534}
                          },
                          "animationTracks" : {

                          }
                        },
                        {
                          "id" : 437,
                          "_type" : "ScreenVMFile",
                          "src" : 2,
                          "trackNumber" : 0,
                          "attributes" : {
                            "ident" : "Rec 4-22-2025-8-51-30-PM"
                          },
                          "parameters" : {
                            "geometryCrop0" : {
                              "type" : "double",
                              "defaultValue" : 0.0,
                              "interp" : "eioe"
                            },
                            "geometryCrop1" : {
                              "type" : "double",
                              "defaultValue" : 0.0,
                              "interp" : "eioe"
                            },
                            "geometryCrop2" : {
                              "type" : "double",
                              "defaultValue" : 0.0,
                              "interp" : "eioe"
                            },
                            "geometryCrop3" : {
                              "type" : "double",
                              "defaultValue" : 0.0,
                              "interp" : "eioe"
                            },
                            "cursorScale" : {
                              "type" : "double",
                              "defaultValue" : 0.0,
                              "interp" : "linr"
                            },
                            "cursorOpacity" : {
                              "type" : "double",
                              "defaultValue" : 0.0,
                              "interp" : "linr"
                            },
                            "cursorTrackLevel" : {
                              "type" : "double",
                              "defaultValue" : 0.0,
                              "interp" : "linr"
                            },
                            "smoothCursorAcrossEditDuration" : 0
                          },
                          "effects" : [

                          ],
                          "start" : 1040124960000,
                          "duration" : 215419680000,
                          "mediaStart" : 2018886240000,
                          "mediaDuration" : 215419680000,
                          "scalar" : 1,
                          "metadata" : {
                            "AutoAppliedSmartFocus" : "False",
                            "audiateLinkedSession" : "",
                            "clipSpeedAttribute" : { "type": "bool", "value" : false},
                            "colorAttribute" : { "type": "color", "value" : [ 0, 0, 0, 0]},
                            "default-height" : { "type": "double", "value" : 1036.8},
                            "default-translation0" : { "type": "double", "value" : 0.0},
                            "default-translation1" : { "type": "double", "value" : -194.4},
                            "default-translation2" : { "type": "double", "value" : 0.0},
                            "default-width" : { "type": "double", "value" : 1932.67572815534}
                          },
                          "animationTracks" : {

                          }
                        },
                        {
                          "id" : 438,
                          "_type" : "ScreenVMFile",
                          "src" : 2,
                          "trackNumber" : 0,
                          "attributes" : {
                            "ident" : "Rec 4-22-2025-8-51-30-PM"
                          },
                          "parameters" : {
                            "geometryCrop0" : {
                              "type" : "double",
                              "defaultValue" : 0.0,
                              "interp" : "eioe"
                            },
                            "geometryCrop1" : {
                              "type" : "double",
                              "defaultValue" : 0.0,
                              "interp" : "eioe"
                            },
                            "geometryCrop2" : {
                              "type" : "double",
                              "defaultValue" : 0.0,
                              "interp" : "eioe"
                            },
                            "geometryCrop3" : {
                              "type" : "double",
                              "defaultValue" : 0.0,
                              "interp" : "eioe"
                            },
                            "cursorScale" : {
                              "type" : "double",
                              "defaultValue" : 0.0,
                              "interp" : "linr"
                            },
                            "cursorOpacity" : {
                              "type" : "double",
                              "defaultValue" : 0.0,
                              "interp" : "linr"
                            },
                            "cursorTrackLevel" : {
                              "type" : "double",
                              "defaultValue" : 0.0,
                              "interp" : "linr"
                            },
                            "smoothCursorAcrossEditDuration" : 0
                          },
                          "effects" : [

                          ],
                          "start" : 1255544640000,
                          "duration" : 786955680000,
                          "mediaStart" : 2257778880000,
                          "mediaDuration" : 786955680000,
                          "scalar" : 1,
                          "metadata" : {
                            "AutoAppliedSmartFocus" : "False",
                            "audiateLinkedSession" : "",
                            "clipSpeedAttribute" : { "type": "bool", "value" : false},
                            "colorAttribute" : { "type": "color", "value" : [ 0, 0, 0, 0]},
                            "default-height" : { "type": "double", "value" : 1036.8},
                            "default-translation0" : { "type": "double", "value" : 0.0},
                            "default-translation1" : { "type": "double", "value" : -194.4},
                            "default-translation2" : { "type": "double", "value" : 0.0},
                            "default-width" : { "type": "double", "value" : 1932.67572815534}
                          },
                          "animationTracks" : {

                          }
                        },
                        {
                          "id" : 439,
                          "_type" : "ScreenVMFile",
                          "src" : 2,
                          "trackNumber" : 0,
                          "attributes" : {
                            "ident" : "Rec 4-22-2025-8-51-30-PM"
                          },
                          "parameters" : {
                            "geometryCrop0" : {
                              "type" : "double",
                              "defaultValue" : 0.0,
                              "interp" : "eioe"
                            },
                            "geometryCrop1" : {
                              "type" : "double",
                              "defaultValue" : 0.0,
                              "interp" : "eioe"
                            },
                            "geometryCrop2" : {
                              "type" : "double",
                              "defaultValue" : 0.0,
                              "interp" : "eioe"
                            },
                            "geometryCrop3" : {
                              "type" : "double",
                              "defaultValue" : 0.0,
                              "interp" : "eioe"
                            },
                            "cursorScale" : {
                              "type" : "double",
                              "defaultValue" : 0.0,
                              "interp" : "linr"
                            },
                            "cursorOpacity" : {
                              "type" : "double",
                              "defaultValue" : 0.0,
                              "interp" : "linr"
                            },
                            "cursorTrackLevel" : {
                              "type" : "double",
                              "defaultValue" : 0.0,
                              "interp" : "linr"
                            },
                            "smoothCursorAcrossEditDuration" : 0
                          },
                          "effects" : [

                          ],
                          "start" : 2042500320000,
                          "duration" : 20768160000,
                          "mediaStart" : 3047580480000,
                          "mediaDuration" : 20768160000,
                          "scalar" : 1,
                          "metadata" : {
                            "AutoAppliedSmartFocus" : "False",
                            "audiateLinkedSession" : "",
                            "clipSpeedAttribute" : { "type": "bool", "value" : false},
                            "colorAttribute" : { "type": "color", "value" : [ 0, 0, 0, 0]},
                            "default-height" : { "type": "double", "value" : 1036.8},
                            "default-translation0" : { "type": "double", "value" : 0.0},
                            "default-translation1" : { "type": "double", "value" : -194.4},
                            "default-translation2" : { "type": "double", "value" : 0.0},
                            "default-width" : { "type": "double", "value" : 1932.67572815534}
                          },
                          "animationTracks" : {

                          }
                        },
                        {
                          "id" : 440,
                          "_type" : "ScreenVMFile",
                          "src" : 2,
                          "trackNumber" : 0,
                          "attributes" : {
                            "ident" : "Rec 4-22-2025-8-51-30-PM"
                          },
                          "parameters" : {
                            "geometryCrop0" : {
                              "type" : "double",
                              "defaultValue" : 0.0,
                              "interp" : "eioe"
                            },
                            "geometryCrop1" : {
                              "type" : "double",
                              "defaultValue" : 0.0,
                              "interp" : "eioe"
                            },
                            "geometryCrop2" : {
                              "type" : "double",
                              "defaultValue" : 0.0,
                              "interp" : "eioe"
                            },
                            "geometryCrop3" : {
                              "type" : "double",
                              "defaultValue" : 0.0,
                              "interp" : "eioe"
                            },
                            "cursorScale" : {
                              "type" : "double",
                              "defaultValue" : 0.0,
                              "interp" : "linr"
                            },
                            "cursorOpacity" : {
                              "type" : "double",
                              "defaultValue" : 0.0,
                              "interp" : "linr"
                            },
                            "cursorTrackLevel" : {
                              "type" : "double",
                              "defaultValue" : 0.0,
                              "interp" : "linr"
                            },
                            "smoothCursorAcrossEditDuration" : 0
                          },
                          "effects" : [

                          ],
                          "start" : 2063268480000,
                          "duration" : 343039200000,
                          "mediaStart" : 3138932160000,
                          "mediaDuration" : 343039200000,
                          "scalar" : 1,
                          "metadata" : {
                            "AutoAppliedSmartFocus" : "False",
                            "audiateLinkedSession" : "",
                            "clipSpeedAttribute" : { "type": "bool", "value" : false},
                            "colorAttribute" : { "type": "color", "value" : [ 0, 0, 0, 0]},
                            "default-height" : { "type": "double", "value" : 1036.8},
                            "default-translation0" : { "type": "double", "value" : 0.0},
                            "default-translation1" : { "type": "double", "value" : -194.4},
                            "default-translation2" : { "type": "double", "value" : 0.0},
                            "default-width" : { "type": "double", "value" : 1932.67572815534}
                          },
                          "animationTracks" : {

                          }
                        }
                    ],
                    "effects" : [
                        {
                          "effectName" : "CursorColor",
                          "bypassed" : false,
                          "category" : "categoryCursorEffects",
                          "parameters" : {
                            "intensity" : 1.0,
                            "desaturation" : 0.0,
                            "colorLumaCutoff" : 1.0,
                            "color-alpha" : 1.0,
                            "color-red" : 1.0,
                            "color-green" : 0.8980392157,
                            "color-blue" : 0.1215686275,
                            "secondColor-red" : 0.0,
                            "secondColor-green" : 0.0,
                            "secondColor-blue" : 0.0,
                            "secondColor-alpha" : 1.0,
                            "secondColorLumaCutoff" : 0.0,
                            "channel" : 0,
                            "shadowRampStart" : 0.0,
                            "shadowRampEnd" : 0.0,
                            "highlightRampStart" : 1.0,
                            "highlightRampEnd" : 1.0
                          }
                        },
                        {
                          "effectName" : "CursorShadow",
                          "bypassed" : false,
                          "category" : "categoryCursorEffects",
                          "parameters" : {
                            "angle" : 3.92699081698724,
                            "enabled" : 1,
                            "offset" : 5.0,
                            "blur" : 2.0,
                            "opacity" : 0.25,
                            "color-red" : 0.0,
                            "color-green" : 0.0,
                            "color-blue" : 0.0,
                            "color-alpha" : 1.0
                          }
                        },
                        {
                          "effectName" : "CursorHilight",
                          "bypassed" : false,
                          "category" : "categoryCursorEffects",
                          "parameters" : {
                            "radius" : 50.0,
                            "color-red" : 1.0,
                            "color-green" : 1.0,
                            "color-blue" : 0.0,
                            "color-alpha" : 0.75,
                            "blur" : 0.1
                          }
                        }
                    ],
                    "start" : 103887840000,
                    "duration" : 2093280000,
                    "mediaStart" : 968106720000,
                    "mediaDuration" : 5527200000,
                    "scalar" : "89/235",
                    "metadata" : {
                      "AutoAppliedSmartFocus" : "False",
                      "audiateLinkedSession" : "",
                      "clipSpeedAttribute" : { "type": "bool", "value" : true},
                      "colorAttribute" : { "type": "color", "value" : [ 0, 0, 0, 0]},
                      "default-anchor0" : { "type": "double", "value" : 0.0},
                      "default-anchor1" : { "type": "double", "value" : 0.0},
                      "default-anchor2" : { "type": "double", "value" : 0.0},
                      "default-height" : { "type": "double", "value" : 1036.8},
                      "default-rotation0" : { "type": "double", "value" : 0.0},
                      "default-rotation1" : { "type": "double", "value" : 0.0},
                      "default-rotation2" : { "type": "double", "value" : 0.0},
                      "default-scale0" : { "type": "double", "value" : 0.503300970873786},
                      "default-scale1" : { "type": "double", "value" : 0.503300970873786},
                      "default-scale2" : { "type": "double", "value" : 1.0},
                      "default-shear0" : { "type": "double", "value" : 0.0},
                      "default-shear1" : { "type": "double", "value" : 0.0},
                      "default-shear2" : { "type": "double", "value" : 0.0},
                      "default-translation0" : { "type": "double", "value" : 0.0},
                      "default-translation1" : { "type": "double", "value" : -194.4},
                      "default-translation2" : { "type": "double", "value" : 0.0},
                      "default-width" : { "type": "double", "value" : 1932.67572815534}
                    },
                    "animationTracks" : {
                      "visual" : [
                        {
                          "endTime" : 946350720000,
                          "duration" : 705600000,
                          "range" : [ 945645120000, 705600000]
                        },
                        {
                          "endTime" : 946938720000,
                          "duration" : 588000000,
                          "range" : [ 946350720000, 588000000]
                        },
                        {
                          "endTime" : 950208000000,
                          "duration" : 705600000,
                          "range" : [ 949502400000, 705600000]
                        },
                        {
                          "endTime" : 951572160000,
                          "duration" : 705600000,
                          "range" : [ 950866560000, 705600000]
                        }
                      ]
                    }
                  },
                  {
                    "id" : 441,
                    "_type" : "StitchedMedia",
                    "minMediaStart" : 0,
                    "attributes" : {
                      "ident" : "Rec 4-22-2025-8-51-30-PM",
                      "gain" : 1.0,
                      "mixToMono" : false,
                      "loudnessNormalization" : true,
                      "sourceFileOffset" : 0
                    },
                    "parameters" : {
                      "translation0" : {
                        "type" : "double",
                        "defaultValue" : 6.33786407766917,
                        "keyframes" : [
                          {
                            "endTime" : 946350720000,
                            "time" : 945645120000,
                            "value" : 1529.54135844084,
                            "duration" : 705600000
                          },
                          {
                            "endTime" : 946938720000,
                            "time" : 946350720000,
                            "value" : 2.8421709430404e-14,
                            "duration" : 588000000
                          },
                          {
                            "endTime" : 950208000000,
                            "time" : 949502400000,
                            "value" : 1769.53733046201,
                            "duration" : 705600000
                          },
                          {
                            "endTime" : 951572160000,
                            "time" : 950866560000,
                            "value" : 0.0,
                            "duration" : 705600000
                          }
                        ]
                      },
                      "translation1" : {
                        "type" : "double",
                        "defaultValue" : -2.8421709430404e-14,
                        "keyframes" : [
                          {
                            "endTime" : 946350720000,
                            "time" : 945645120000,
                            "value" : 1155.43533032585,
                            "duration" : 705600000
                          },
                          {
                            "endTime" : 946938720000,
                            "time" : 946350720000,
                            "value" : 4.2632564145606e-14,
                            "duration" : 588000000
                          },
                          {
                            "endTime" : 950208000000,
                            "time" : 949502400000,
                            "value" : 1222.37766654561,
                            "duration" : 705600000
                          },
                          {
                            "endTime" : 951572160000,
                            "time" : 950866560000,
                            "value" : -5.6843418860808e-14,
                            "duration" : 705600000
                          }
                        ]
                      },
                      "scale0" : {
                        "type" : "double",
                        "defaultValue" : 0.503300970873786,
                        "keyframes" : [
                          {
                            "endTime" : 946350720000,
                            "time" : 945645120000,
                            "value" : 2.23861295044012,
                            "duration" : 705600000
                          },
                          {
                            "endTime" : 946938720000,
                            "time" : 946350720000,
                            "value" : 0.5,
                            "duration" : 588000000
                          },
                          {
                            "endTime" : 950208000000,
                            "time" : 949502400000,
                            "value" : 2.05000008547071,
                            "duration" : 705600000
                          },
                          {
                            "endTime" : 951572160000,
                            "time" : 950866560000,
                            "value" : 0.5,
                            "duration" : 705600000
                          }
                        ]
                      },
                      "scale1" : {
                        "type" : "double",
                        "defaultValue" : 0.503300970873786,
                        "keyframes" : [
                          {
                            "endTime" : 946350720000,
                            "time" : 945645120000,
                            "value" : 2.23861378180461,
                            "duration" : 705600000
                          },
                          {
                            "endTime" : 946938720000,
                            "time" : 946350720000,
                            "value" : 0.5,
                            "duration" : 588000000
                          },
                          {
                            "endTime" : 950208000000,
                            "time" : 949502400000,
                            "value" : 2.05000025406246,
                            "duration" : 705600000
                          },
                          {
                            "endTime" : 951572160000,
                            "time" : 950866560000,
                            "value" : 0.500000041119937,
                            "duration" : 705600000
                          }
                        ]
                      },
                      "scale2" : {
                        "type" : "double",
                        "defaultValue" : 1.0,
                        "keyframes" : [
                          {
                            "endTime" : 946938720000,
                            "time" : 946350720000,
                            "value" : 0.5,
                            "duration" : 588000000
                          },
                          {
                            "endTime" : 951572160000,
                            "time" : 950866560000,
                            "value" : 0.121951214427679,
                            "duration" : 705600000
                          }
                        ]
                      },
                      "geometryCrop0" : 0.0,
                      "geometryCrop1" : 0.0,
                      "geometryCrop2" : 0.0,
                      "geometryCrop3" : 0.0,
                      "toc" : {
                        "type" : "string",
                        "keyframes" : [
                          {
                            "endTime" : 975327360000,
                            "time" : 975327360000,
                            "value" : "Add to library and install",
                            "duration" : 0,
                            "metadata" : {
                              "markerIdentifier" : "28508F69-B888-4D10-A605-69CE5FA57F43"
                            }
                          }
                        ]
                      },
                      "cursorOpacity" : 1.0,
                      "cursorTrackLevel" : 0.0,
                      "cursorScale" : 5.0,
                      "smoothCursorAcrossEditDuration" : 0
                    },
                    "medias" : [
                        {
                          "id" : 442,
                          "_type" : "ScreenVMFile",
                          "src" : 2,
                          "trackNumber" : 0,
                          "attributes" : {
                            "ident" : "Rec 4-22-2025-8-51-30-PM"
                          },
                          "parameters" : {
                            "geometryCrop0" : {
                              "type" : "double",
                              "defaultValue" : 0.0,
                              "interp" : "eioe"
                            },
                            "geometryCrop1" : {
                              "type" : "double",
                              "defaultValue" : 0.0,
                              "interp" : "eioe"
                            },
                            "geometryCrop2" : {
                              "type" : "double",
                              "defaultValue" : 0.0,
                              "interp" : "eioe"
                            },
                            "geometryCrop3" : {
                              "type" : "double",
                              "defaultValue" : 0.0,
                              "interp" : "eioe"
                            },
                            "cursorScale" : {
                              "type" : "double",
                              "defaultValue" : 0.0,
                              "interp" : "linr"
                            },
                            "cursorOpacity" : {
                              "type" : "double",
                              "defaultValue" : 0.0,
                              "interp" : "linr"
                            },
                            "cursorTrackLevel" : {
                              "type" : "double",
                              "defaultValue" : 0.0,
                              "interp" : "linr"
                            },
                            "smoothCursorAcrossEditDuration" : 0
                          },
                          "effects" : [

                          ],
                          "start" : 0,
                          "duration" : 50991360000,
                          "mediaStart" : 0,
                          "mediaDuration" : 50991360000,
                          "scalar" : 1,
                          "metadata" : {
                            "AutoAppliedSmartFocus" : "False",
                            "audiateLinkedSession" : "",
                            "clipSpeedAttribute" : { "type": "bool", "value" : false},
                            "colorAttribute" : { "type": "color", "value" : [ 0, 0, 0, 0]},
                            "default-height" : { "type": "double", "value" : 1036.8},
                            "default-translation0" : { "type": "double", "value" : 0.0},
                            "default-translation1" : { "type": "double", "value" : -194.4},
                            "default-translation2" : { "type": "double", "value" : 0.0},
                            "default-width" : { "type": "double", "value" : 1932.67572815534}
                          },
                          "animationTracks" : {

                          }
                        },
                        {
                          "id" : 443,
                          "_type" : "ScreenVMFile",
                          "src" : 2,
                          "trackNumber" : 0,
                          "attributes" : {
                            "ident" : "Rec 4-22-2025-8-51-30-PM"
                          },
                          "parameters" : {
                            "geometryCrop0" : {
                              "type" : "double",
                              "defaultValue" : 0.0,
                              "interp" : "eioe"
                            },
                            "geometryCrop1" : {
                              "type" : "double",
                              "defaultValue" : 0.0,
                              "interp" : "eioe"
                            },
                            "geometryCrop2" : {
                              "type" : "double",
                              "defaultValue" : 0.0,
                              "interp" : "eioe"
                            },
                            "geometryCrop3" : {
                              "type" : "double",
                              "defaultValue" : 0.0,
                              "interp" : "eioe"
                            },
                            "cursorScale" : {
                              "type" : "double",
                              "defaultValue" : 0.0,
                              "interp" : "linr"
                            },
                            "cursorOpacity" : {
                              "type" : "double",
                              "defaultValue" : 0.0,
                              "interp" : "linr"
                            },
                            "cursorTrackLevel" : {
                              "type" : "double",
                              "defaultValue" : 0.0,
                              "interp" : "linr"
                            },
                            "smoothCursorAcrossEditDuration" : 0
                          },
                          "effects" : [

                          ],
                          "start" : 50991360000,
                          "duration" : 46663680000,
                          "mediaStart" : 66467520000,
                          "mediaDuration" : 46663680000,
                          "scalar" : 1,
                          "metadata" : {
                            "AutoAppliedSmartFocus" : "False",
                            "audiateLinkedSession" : "",
                            "clipSpeedAttribute" : { "type": "bool", "value" : false},
                            "colorAttribute" : { "type": "color", "value" : [ 0, 0, 0, 0]},
                            "default-height" : { "type": "double", "value" : 1036.8},
                            "default-translation0" : { "type": "double", "value" : 0.0},
                            "default-translation1" : { "type": "double", "value" : -194.4},
                            "default-translation2" : { "type": "double", "value" : 0.0},
                            "default-width" : { "type": "double", "value" : 1932.67572815534}
                          },
                          "animationTracks" : {

                          }
                        },
                        {
                          "id" : 444,
                          "_type" : "ScreenVMFile",
                          "src" : 2,
                          "trackNumber" : 0,
                          "attributes" : {
                            "ident" : "Rec 4-22-2025-8-51-30-PM"
                          },
                          "parameters" : {
                            "geometryCrop0" : {
                              "type" : "double",
                              "defaultValue" : 0.0,
                              "interp" : "eioe"
                            },
                            "geometryCrop1" : {
                              "type" : "double",
                              "defaultValue" : 0.0,
                              "interp" : "eioe"
                            },
                            "geometryCrop2" : {
                              "type" : "double",
                              "defaultValue" : 0.0,
                              "interp" : "eioe"
                            },
                            "geometryCrop3" : {
                              "type" : "double",
                              "defaultValue" : 0.0,
                              "interp" : "eioe"
                            },
                            "cursorScale" : {
                              "type" : "double",
                              "defaultValue" : 0.0,
                              "interp" : "linr"
                            },
                            "cursorOpacity" : {
                              "type" : "double",
                              "defaultValue" : 0.0,
                              "interp" : "linr"
                            },
                            "cursorTrackLevel" : {
                              "type" : "double",
                              "defaultValue" : 0.0,
                              "interp" : "linr"
                            },
                            "smoothCursorAcrossEditDuration" : 0
                          },
                          "effects" : [

                          ],
                          "start" : 97655040000,
                          "duration" : 352282560000,
                          "mediaStart" : 149352000000,
                          "mediaDuration" : 352282560000,
                          "scalar" : 1,
                          "metadata" : {
                            "AutoAppliedSmartFocus" : "False",
                            "audiateLinkedSession" : "",
                            "clipSpeedAttribute" : { "type": "bool", "value" : false},
                            "colorAttribute" : { "type": "color", "value" : [ 0, 0, 0, 0]},
                            "default-height" : { "type": "double", "value" : 1036.8},
                            "default-translation0" : { "type": "double", "value" : 0.0},
                            "default-translation1" : { "type": "double", "value" : -194.4},
                            "default-translation2" : { "type": "double", "value" : 0.0},
                            "default-width" : { "type": "double", "value" : 1932.67572815534}
                          },
                          "animationTracks" : {

                          }
                        },
                        {
                          "id" : 445,
                          "_type" : "ScreenVMFile",
                          "src" : 2,
                          "trackNumber" : 0,
                          "attributes" : {
                            "ident" : "Rec 4-22-2025-8-51-30-PM"
                          },
                          "parameters" : {
                            "geometryCrop0" : {
                              "type" : "double",
                              "defaultValue" : 0.0,
                              "interp" : "eioe"
                            },
                            "geometryCrop1" : {
                              "type" : "double",
                              "defaultValue" : 0.0,
                              "interp" : "eioe"
                            },
                            "geometryCrop2" : {
                              "type" : "double",
                              "defaultValue" : 0.0,
                              "interp" : "eioe"
                            },
                            "geometryCrop3" : {
                              "type" : "double",
                              "defaultValue" : 0.0,
                              "interp" : "eioe"
                            },
                            "cursorScale" : {
                              "type" : "double",
                              "defaultValue" : 0.0,
                              "interp" : "linr"
                            },
                            "cursorOpacity" : {
                              "type" : "double",
                              "defaultValue" : 0.0,
                              "interp" : "linr"
                            },
                            "cursorTrackLevel" : {
                              "type" : "double",
                              "defaultValue" : 0.0,
                              "interp" : "linr"
                            },
                            "smoothCursorAcrossEditDuration" : 0
                          },
                          "effects" : [

                          ],
                          "start" : 449937600000,
                          "duration" : 8961120000,
                          "mediaStart" : 509843040000,
                          "mediaDuration" : 8961120000,
                          "scalar" : 1,
                          "metadata" : {
                            "AutoAppliedSmartFocus" : "False",
                            "audiateLinkedSession" : "",
                            "clipSpeedAttribute" : { "type": "bool", "value" : false},
                            "colorAttribute" : { "type": "color", "value" : [ 0, 0, 0, 0]},
                            "default-height" : { "type": "double", "value" : 1036.8},
                            "default-translation0" : { "type": "double", "value" : 0.0},
                            "default-translation1" : { "type": "double", "value" : -194.4},
                            "default-translation2" : { "type": "double", "value" : 0.0},
                            "default-width" : { "type": "double", "value" : 1932.67572815534}
                          },
                          "animationTracks" : {

                          }
                        },
                        {
                          "id" : 446,
                          "_type" : "ScreenVMFile",
                          "src" : 2,
                          "trackNumber" : 0,
                          "attributes" : {
                            "ident" : "Rec 4-22-2025-8-51-30-PM"
                          },
                          "parameters" : {
                            "geometryCrop0" : {
                              "type" : "double",
                              "defaultValue" : 0.0,
                              "interp" : "eioe"
                            },
                            "geometryCrop1" : {
                              "type" : "double",
                              "defaultValue" : 0.0,
                              "interp" : "eioe"
                            },
                            "geometryCrop2" : {
                              "type" : "double",
                              "defaultValue" : 0.0,
                              "interp" : "eioe"
                            },
                            "geometryCrop3" : {
                              "type" : "double",
                              "defaultValue" : 0.0,
                              "interp" : "eioe"
                            },
                            "cursorScale" : {
                              "type" : "double",
                              "defaultValue" : 0.0,
                              "interp" : "linr"
                            },
                            "cursorOpacity" : {
                              "type" : "double",
                              "defaultValue" : 0.0,
                              "interp" : "linr"
                            },
                            "cursorTrackLevel" : {
                              "type" : "double",
                              "defaultValue" : 0.0,
                              "interp" : "linr"
                            },
                            "smoothCursorAcrossEditDuration" : 0
                          },
                          "effects" : [

                          ],
                          "start" : 458898720000,
                          "duration" : 472399200000,
                          "mediaStart" : 1416350880000,
                          "mediaDuration" : 472399200000,
                          "scalar" : 1,
                          "metadata" : {
                            "AutoAppliedSmartFocus" : "False",
                            "audiateLinkedSession" : "",
                            "clipSpeedAttribute" : { "type": "bool", "value" : false},
                            "colorAttribute" : { "type": "color", "value" : [ 0, 0, 0, 0]},
                            "default-height" : { "type": "double", "value" : 1036.8},
                            "default-translation0" : { "type": "double", "value" : 0.0},
                            "default-translation1" : { "type": "double", "value" : -194.4},
                            "default-translation2" : { "type": "double", "value" : 0.0},
                            "default-width" : { "type": "double", "value" : 1932.67572815534}
                          },
                          "animationTracks" : {

                          }
                        },
                        {
                          "id" : 447,
                          "_type" : "ScreenVMFile",
                          "src" : 2,
                          "trackNumber" : 0,
                          "attributes" : {
                            "ident" : "Rec 4-22-2025-8-51-30-PM"
                          },
                          "parameters" : {
                            "geometryCrop0" : {
                              "type" : "double",
                              "defaultValue" : 0.0,
                              "interp" : "eioe"
                            },
                            "geometryCrop1" : {
                              "type" : "double",
                              "defaultValue" : 0.0,
                              "interp" : "eioe"
                            },
                            "geometryCrop2" : {
                              "type" : "double",
                              "defaultValue" : 0.0,
                              "interp" : "eioe"
                            },
                            "geometryCrop3" : {
                              "type" : "double",
                              "defaultValue" : 0.0,
                              "interp" : "eioe"
                            },
                            "cursorScale" : {
                              "type" : "double",
                              "defaultValue" : 0.0,
                              "interp" : "linr"
                            },
                            "cursorOpacity" : {
                              "type" : "double",
                              "defaultValue" : 0.0,
                              "interp" : "linr"
                            },
                            "cursorTrackLevel" : {
                              "type" : "double",
                              "defaultValue" : 0.0,
                              "interp" : "linr"
                            },
                            "smoothCursorAcrossEditDuration" : 0
                          },
                          "effects" : [

                          ],
                          "start" : 931297920000,
                          "duration" : 15781920000,
                          "mediaStart" : 1888750080000,
                          "mediaDuration" : 15781920000,
                          "scalar" : 1,
                          "metadata" : {
                            "AutoAppliedSmartFocus" : "False",
                            "audiateLinkedSession" : "",
                            "clipSpeedAttribute" : { "type": "bool", "value" : false},
                            "colorAttribute" : { "type": "color", "value" : [ 0, 0, 0, 0]},
                            "default-height" : { "type": "double", "value" : 1036.8},
                            "default-translation0" : { "type": "double", "value" : 0.0},
                            "default-translation1" : { "type": "double", "value" : -194.4},
                            "default-translation2" : { "type": "double", "value" : 0.0},
                            "default-width" : { "type": "double", "value" : 1932.67572815534}
                          },
                          "animationTracks" : {

                          }
                        },
                        {
                          "id" : 448,
                          "_type" : "ScreenVMFile",
                          "src" : 2,
                          "trackNumber" : 0,
                          "attributes" : {
                            "ident" : "Rec 4-22-2025-8-51-30-PM"
                          },
                          "parameters" : {
                            "geometryCrop0" : {
                              "type" : "double",
                              "defaultValue" : 0.0,
                              "interp" : "eioe"
                            },
                            "geometryCrop1" : {
                              "type" : "double",
                              "defaultValue" : 0.0,
                              "interp" : "eioe"
                            },
                            "geometryCrop2" : {
                              "type" : "double",
                              "defaultValue" : 0.0,
                              "interp" : "eioe"
                            },
                            "geometryCrop3" : {
                              "type" : "double",
                              "defaultValue" : 0.0,
                              "interp" : "eioe"
                            },
                            "cursorScale" : {
                              "type" : "double",
                              "defaultValue" : 0.0,
                              "interp" : "linr"
                            },
                            "cursorOpacity" : {
                              "type" : "double",
                              "defaultValue" : 0.0,
                              "interp" : "linr"
                            },
                            "cursorTrackLevel" : {
                              "type" : "double",
                              "defaultValue" : 0.0,
                              "interp" : "linr"
                            },
                            "smoothCursorAcrossEditDuration" : 0
                          },
                          "effects" : [

                          ],
                          "start" : 947079840000,
                          "duration" : 7502880000,
                          "mediaStart" : 1904532000000,
                          "mediaDuration" : 7502880000,
                          "scalar" : 1,
                          "metadata" : {
                            "AutoAppliedSmartFocus" : "False",
                            "audiateLinkedSession" : "",
                            "clipSpeedAttribute" : { "type": "bool", "value" : false},
                            "colorAttribute" : { "type": "color", "value" : [ 0, 0, 0, 0]},
                            "default-height" : { "type": "double", "value" : 1036.8},
                            "default-translation0" : { "type": "double", "value" : 0.0},
                            "default-translation1" : { "type": "double", "value" : -194.4},
                            "default-translation2" : { "type": "double", "value" : 0.0},
                            "default-width" : { "type": "double", "value" : 1932.67572815534}
                          },
                          "animationTracks" : {

                          }
                        },
                        {
                          "id" : 449,
                          "_type" : "ScreenVMFile",
                          "src" : 2,
                          "trackNumber" : 0,
                          "attributes" : {
                            "ident" : "Rec 4-22-2025-8-51-30-PM"
                          },
                          "parameters" : {
                            "geometryCrop0" : {
                              "type" : "double",
                              "defaultValue" : 0.0,
                              "interp" : "eioe"
                            },
                            "geometryCrop1" : {
                              "type" : "double",
                              "defaultValue" : 0.0,
                              "interp" : "eioe"
                            },
                            "geometryCrop2" : {
                              "type" : "double",
                              "defaultValue" : 0.0,
                              "interp" : "eioe"
                            },
                            "geometryCrop3" : {
                              "type" : "double",
                              "defaultValue" : 0.0,
                              "interp" : "eioe"
                            },
                            "cursorScale" : {
                              "type" : "double",
                              "defaultValue" : 0.0,
                              "interp" : "linr"
                            },
                            "cursorOpacity" : {
                              "type" : "double",
                              "defaultValue" : 0.0,
                              "interp" : "linr"
                            },
                            "cursorTrackLevel" : {
                              "type" : "double",
                              "defaultValue" : 0.0,
                              "interp" : "linr"
                            },
                            "smoothCursorAcrossEditDuration" : 0
                          },
                          "effects" : [

                          ],
                          "start" : 954582720000,
                          "duration" : 13053600000,
                          "mediaStart" : 1912034880000,
                          "mediaDuration" : 13053600000,
                          "scalar" : 1,
                          "metadata" : {
                            "AutoAppliedSmartFocus" : "False",
                            "audiateLinkedSession" : "",
                            "clipSpeedAttribute" : { "type": "bool", "value" : false},
                            "colorAttribute" : { "type": "color", "value" : [ 0, 0, 0, 0]},
                            "default-height" : { "type": "double", "value" : 1036.8},
                            "default-translation0" : { "type": "double", "value" : 0.0},
                            "default-translation1" : { "type": "double", "value" : -194.4},
                            "default-translation2" : { "type": "double", "value" : 0.0},
                            "default-width" : { "type": "double", "value" : 1932.67572815534}
                          },
                          "animationTracks" : {

                          }
                        },
                        {
                          "id" : 450,
                          "_type" : "ScreenVMFile",
                          "src" : 2,
                          "trackNumber" : 0,
                          "attributes" : {
                            "ident" : "Rec 4-22-2025-8-51-30-PM"
                          },
                          "parameters" : {
                            "geometryCrop0" : {
                              "type" : "double",
                              "defaultValue" : 0.0,
                              "interp" : "eioe"
                            },
                            "geometryCrop1" : {
                              "type" : "double",
                              "defaultValue" : 0.0,
                              "interp" : "eioe"
                            },
                            "geometryCrop2" : {
                              "type" : "double",
                              "defaultValue" : 0.0,
                              "interp" : "eioe"
                            },
                            "geometryCrop3" : {
                              "type" : "double",
                              "defaultValue" : 0.0,
                              "interp" : "eioe"
                            },
                            "cursorScale" : {
                              "type" : "double",
                              "defaultValue" : 0.0,
                              "interp" : "linr"
                            },
                            "cursorOpacity" : {
                              "type" : "double",
                              "defaultValue" : 0.0,
                              "interp" : "linr"
                            },
                            "cursorTrackLevel" : {
                              "type" : "double",
                              "defaultValue" : 0.0,
                              "interp" : "linr"
                            },
                            "smoothCursorAcrossEditDuration" : 0
                          },
                          "effects" : [

                          ],
                          "start" : 967636320000,
                          "duration" : 7691040000,
                          "mediaStart" : 1925088480000,
                          "mediaDuration" : 7691040000,
                          "scalar" : 1,
                          "metadata" : {
                            "AutoAppliedSmartFocus" : "False",
                            "audiateLinkedSession" : "",
                            "clipSpeedAttribute" : { "type": "bool", "value" : false},
                            "colorAttribute" : { "type": "color", "value" : [ 0, 0, 0, 0]},
                            "default-height" : { "type": "double", "value" : 1036.8},
                            "default-translation0" : { "type": "double", "value" : 0.0},
                            "default-translation1" : { "type": "double", "value" : -194.4},
                            "default-translation2" : { "type": "double", "value" : 0.0},
                            "default-width" : { "type": "double", "value" : 1932.67572815534}
                          },
                          "animationTracks" : {

                          }
                        },
                        {
                          "id" : 451,
                          "_type" : "ScreenVMFile",
                          "src" : 2,
                          "trackNumber" : 0,
                          "attributes" : {
                            "ident" : "Rec 4-22-2025-8-51-30-PM"
                          },
                          "parameters" : {
                            "geometryCrop0" : {
                              "type" : "double",
                              "defaultValue" : 0.0,
                              "interp" : "eioe"
                            },
                            "geometryCrop1" : {
                              "type" : "double",
                              "defaultValue" : 0.0,
                              "interp" : "eioe"
                            },
                            "geometryCrop2" : {
                              "type" : "double",
                              "defaultValue" : 0.0,
                              "interp" : "eioe"
                            },
                            "geometryCrop3" : {
                              "type" : "double",
                              "defaultValue" : 0.0,
                              "interp" : "eioe"
                            },
                            "cursorScale" : {
                              "type" : "double",
                              "defaultValue" : 0.0,
                              "interp" : "linr"
                            },
                            "cursorOpacity" : {
                              "type" : "double",
                              "defaultValue" : 0.0,
                              "interp" : "linr"
                            },
                            "cursorTrackLevel" : {
                              "type" : "double",
                              "defaultValue" : 0.0,
                              "interp" : "linr"
                            },
                            "smoothCursorAcrossEditDuration" : 0
                          },
                          "effects" : [

                          ],
                          "start" : 975327360000,
                          "duration" : 9807840000,
                          "mediaStart" : 1932779520000,
                          "mediaDuration" : 9807840000,
                          "scalar" : 1,
                          "metadata" : {
                            "AutoAppliedSmartFocus" : "False",
                            "audiateLinkedSession" : "",
                            "clipSpeedAttribute" : { "type": "bool", "value" : false},
                            "colorAttribute" : { "type": "color", "value" : [ 0, 0, 0, 0]},
                            "default-height" : { "type": "double", "value" : 1036.8},
                            "default-translation0" : { "type": "double", "value" : 0.0},
                            "default-translation1" : { "type": "double", "value" : -194.4},
                            "default-translation2" : { "type": "double", "value" : 0.0},
                            "default-width" : { "type": "double", "value" : 1932.67572815534}
                          },
                          "animationTracks" : {

                          }
                        },
                        {
                          "id" : 452,
                          "_type" : "ScreenVMFile",
                          "src" : 2,
                          "trackNumber" : 0,
                          "attributes" : {
                            "ident" : "Rec 4-22-2025-8-51-30-PM"
                          },
                          "parameters" : {
                            "geometryCrop0" : {
                              "type" : "double",
                              "defaultValue" : 0.0,
                              "interp" : "eioe"
                            },
                            "geometryCrop1" : {
                              "type" : "double",
                              "defaultValue" : 0.0,
                              "interp" : "eioe"
                            },
                            "geometryCrop2" : {
                              "type" : "double",
                              "defaultValue" : 0.0,
                              "interp" : "eioe"
                            },
                            "geometryCrop3" : {
                              "type" : "double",
                              "defaultValue" : 0.0,
                              "interp" : "eioe"
                            },
                            "cursorScale" : {
                              "type" : "double",
                              "defaultValue" : 0.0,
                              "interp" : "linr"
                            },
                            "cursorOpacity" : {
                              "type" : "double",
                              "defaultValue" : 0.0,
                              "interp" : "linr"
                            },
                            "cursorTrackLevel" : {
                              "type" : "double",
                              "defaultValue" : 0.0,
                              "interp" : "linr"
                            },
                            "smoothCursorAcrossEditDuration" : 0
                          },
                          "effects" : [

                          ],
                          "start" : 985135200000,
                          "duration" : 20391840000,
                          "mediaStart" : 1942587360000,
                          "mediaDuration" : 20391840000,
                          "scalar" : 1,
                          "metadata" : {
                            "AutoAppliedSmartFocus" : "False",
                            "audiateLinkedSession" : "",
                            "clipSpeedAttribute" : { "type": "bool", "value" : false},
                            "colorAttribute" : { "type": "color", "value" : [ 0, 0, 0, 0]},
                            "default-height" : { "type": "double", "value" : 1036.8},
                            "default-translation0" : { "type": "double", "value" : 0.0},
                            "default-translation1" : { "type": "double", "value" : -194.4},
                            "default-translation2" : { "type": "double", "value" : 0.0},
                            "default-width" : { "type": "double", "value" : 1932.67572815534}
                          },
                          "animationTracks" : {

                          }
                        },
                        {
                          "id" : 453,
                          "_type" : "ScreenVMFile",
                          "src" : 2,
                          "trackNumber" : 0,
                          "attributes" : {
                            "ident" : "Rec 4-22-2025-8-51-30-PM"
                          },
                          "parameters" : {
                            "geometryCrop0" : {
                              "type" : "double",
                              "defaultValue" : 0.0,
                              "interp" : "eioe"
                            },
                            "geometryCrop1" : {
                              "type" : "double",
                              "defaultValue" : 0.0,
                              "interp" : "eioe"
                            },
                            "geometryCrop2" : {
                              "type" : "double",
                              "defaultValue" : 0.0,
                              "interp" : "eioe"
                            },
                            "geometryCrop3" : {
                              "type" : "double",
                              "defaultValue" : 0.0,
                              "interp" : "eioe"
                            },
                            "cursorScale" : {
                              "type" : "double",
                              "defaultValue" : 0.0,
                              "interp" : "linr"
                            },
                            "cursorOpacity" : {
                              "type" : "double",
                              "defaultValue" : 0.0,
                              "interp" : "linr"
                            },
                            "cursorTrackLevel" : {
                              "type" : "double",
                              "defaultValue" : 0.0,
                              "interp" : "linr"
                            },
                            "smoothCursorAcrossEditDuration" : 0
                          },
                          "effects" : [

                          ],
                          "start" : 1005527040000,
                          "duration" : 8914080000,
                          "mediaStart" : 1962979200000,
                          "mediaDuration" : 8914080000,
                          "scalar" : 1,
                          "metadata" : {
                            "AutoAppliedSmartFocus" : "False",
                            "audiateLinkedSession" : "",
                            "clipSpeedAttribute" : { "type": "bool", "value" : false},
                            "colorAttribute" : { "type": "color", "value" : [ 0, 0, 0, 0]},
                            "default-height" : { "type": "double", "value" : 1036.8},
                            "default-translation0" : { "type": "double", "value" : 0.0},
                            "default-translation1" : { "type": "double", "value" : -194.4},
                            "default-translation2" : { "type": "double", "value" : 0.0},
                            "default-width" : { "type": "double", "value" : 1932.67572815534}
                          },
                          "animationTracks" : {

                          }
                        },
                        {
                          "id" : 454,
                          "_type" : "ScreenVMFile",
                          "src" : 2,
                          "trackNumber" : 0,
                          "attributes" : {
                            "ident" : "Rec 4-22-2025-8-51-30-PM"
                          },
                          "parameters" : {
                            "geometryCrop0" : {
                              "type" : "double",
                              "defaultValue" : 0.0,
                              "interp" : "eioe"
                            },
                            "geometryCrop1" : {
                              "type" : "double",
                              "defaultValue" : 0.0,
                              "interp" : "eioe"
                            },
                            "geometryCrop2" : {
                              "type" : "double",
                              "defaultValue" : 0.0,
                              "interp" : "eioe"
                            },
                            "geometryCrop3" : {
                              "type" : "double",
                              "defaultValue" : 0.0,
                              "interp" : "eioe"
                            },
                            "cursorScale" : {
                              "type" : "double",
                              "defaultValue" : 0.0,
                              "interp" : "linr"
                            },
                            "cursorOpacity" : {
                              "type" : "double",
                              "defaultValue" : 0.0,
                              "interp" : "linr"
                            },
                            "cursorTrackLevel" : {
                              "type" : "double",
                              "defaultValue" : 0.0,
                              "interp" : "linr"
                            },
                            "smoothCursorAcrossEditDuration" : 0
                          },
                          "effects" : [

                          ],
                          "start" : 1014441120000,
                          "duration" : 3034080000,
                          "mediaStart" : 1971893280000,
                          "mediaDuration" : 3034080000,
                          "scalar" : 1,
                          "metadata" : {
                            "AutoAppliedSmartFocus" : "False",
                            "audiateLinkedSession" : "",
                            "clipSpeedAttribute" : { "type": "bool", "value" : false},
                            "colorAttribute" : { "type": "color", "value" : [ 0, 0, 0, 0]},
                            "default-height" : { "type": "double", "value" : 1036.8},
                            "default-translation0" : { "type": "double", "value" : 0.0},
                            "default-translation1" : { "type": "double", "value" : -194.4},
                            "default-translation2" : { "type": "double", "value" : 0.0},
                            "default-width" : { "type": "double", "value" : 1932.67572815534}
                          },
                          "animationTracks" : {

                          }
                        },
                        {
                          "id" : 455,
                          "_type" : "ScreenVMFile",
                          "src" : 2,
                          "trackNumber" : 0,
                          "attributes" : {
                            "ident" : "Rec 4-22-2025-8-51-30-PM"
                          },
                          "parameters" : {
                            "geometryCrop0" : {
                              "type" : "double",
                              "defaultValue" : 0.0,
                              "interp" : "eioe"
                            },
                            "geometryCrop1" : {
                              "type" : "double",
                              "defaultValue" : 0.0,
                              "interp" : "eioe"
                            },
                            "geometryCrop2" : {
                              "type" : "double",
                              "defaultValue" : 0.0,
                              "interp" : "eioe"
                            },
                            "geometryCrop3" : {
                              "type" : "double",
                              "defaultValue" : 0.0,
                              "interp" : "eioe"
                            },
                            "cursorScale" : {
                              "type" : "double",
                              "defaultValue" : 0.0,
                              "interp" : "linr"
                            },
                            "cursorOpacity" : {
                              "type" : "double",
                              "defaultValue" : 0.0,
                              "interp" : "linr"
                            },
                            "cursorTrackLevel" : {
                              "type" : "double",
                              "defaultValue" : 0.0,
                              "interp" : "linr"
                            },
                            "smoothCursorAcrossEditDuration" : 0
                          },
                          "effects" : [

                          ],
                          "start" : 1017475200000,
                          "duration" : 22649760000,
                          "mediaStart" : 1974927360000,
                          "mediaDuration" : 22649760000,
                          "scalar" : 1,
                          "metadata" : {
                            "AutoAppliedSmartFocus" : "False",
                            "audiateLinkedSession" : "",
                            "clipSpeedAttribute" : { "type": "bool", "value" : false},
                            "colorAttribute" : { "type": "color", "value" : [ 0, 0, 0, 0]},
                            "default-height" : { "type": "double", "value" : 1036.8},
                            "default-translation0" : { "type": "double", "value" : 0.0},
                            "default-translation1" : { "type": "double", "value" : -194.4},
                            "default-translation2" : { "type": "double", "value" : 0.0},
                            "default-width" : { "type": "double", "value" : 1932.67572815534}
                          },
                          "animationTracks" : {

                          }
                        },
                        {
                          "id" : 456,
                          "_type" : "ScreenVMFile",
                          "src" : 2,
                          "trackNumber" : 0,
                          "attributes" : {
                            "ident" : "Rec 4-22-2025-8-51-30-PM"
                          },
                          "parameters" : {
                            "geometryCrop0" : {
                              "type" : "double",
                              "defaultValue" : 0.0,
                              "interp" : "eioe"
                            },
                            "geometryCrop1" : {
                              "type" : "double",
                              "defaultValue" : 0.0,
                              "interp" : "eioe"
                            },
                            "geometryCrop2" : {
                              "type" : "double",
                              "defaultValue" : 0.0,
                              "interp" : "eioe"
                            },
                            "geometryCrop3" : {
                              "type" : "double",
                              "defaultValue" : 0.0,
                              "interp" : "eioe"
                            },
                            "cursorScale" : {
                              "type" : "double",
                              "defaultValue" : 0.0,
                              "interp" : "linr"
                            },
                            "cursorOpacity" : {
                              "type" : "double",
                              "defaultValue" : 0.0,
                              "interp" : "linr"
                            },
                            "cursorTrackLevel" : {
                              "type" : "double",
                              "defaultValue" : 0.0,
                              "interp" : "linr"
                            },
                            "smoothCursorAcrossEditDuration" : 0
                          },
                          "effects" : [

                          ],
                          "start" : 1040124960000,
                          "duration" : 215419680000,
                          "mediaStart" : 2018886240000,
                          "mediaDuration" : 215419680000,
                          "scalar" : 1,
                          "metadata" : {
                            "AutoAppliedSmartFocus" : "False",
                            "audiateLinkedSession" : "",
                            "clipSpeedAttribute" : { "type": "bool", "value" : false},
                            "colorAttribute" : { "type": "color", "value" : [ 0, 0, 0, 0]},
                            "default-height" : { "type": "double", "value" : 1036.8},
                            "default-translation0" : { "type": "double", "value" : 0.0},
                            "default-translation1" : { "type": "double", "value" : -194.4},
                            "default-translation2" : { "type": "double", "value" : 0.0},
                            "default-width" : { "type": "double", "value" : 1932.67572815534}
                          },
                          "animationTracks" : {

                          }
                        },
                        {
                          "id" : 457,
                          "_type" : "ScreenVMFile",
                          "src" : 2,
                          "trackNumber" : 0,
                          "attributes" : {
                            "ident" : "Rec 4-22-2025-8-51-30-PM"
                          },
                          "parameters" : {
                            "geometryCrop0" : {
                              "type" : "double",
                              "defaultValue" : 0.0,
                              "interp" : "eioe"
                            },
                            "geometryCrop1" : {
                              "type" : "double",
                              "defaultValue" : 0.0,
                              "interp" : "eioe"
                            },
                            "geometryCrop2" : {
                              "type" : "double",
                              "defaultValue" : 0.0,
                              "interp" : "eioe"
                            },
                            "geometryCrop3" : {
                              "type" : "double",
                              "defaultValue" : 0.0,
                              "interp" : "eioe"
                            },
                            "cursorScale" : {
                              "type" : "double",
                              "defaultValue" : 0.0,
                              "interp" : "linr"
                            },
                            "cursorOpacity" : {
                              "type" : "double",
                              "defaultValue" : 0.0,
                              "interp" : "linr"
                            },
                            "cursorTrackLevel" : {
                              "type" : "double",
                              "defaultValue" : 0.0,
                              "interp" : "linr"
                            },
                            "smoothCursorAcrossEditDuration" : 0
                          },
                          "effects" : [

                          ],
                          "start" : 1255544640000,
                          "duration" : 786955680000,
                          "mediaStart" : 2257778880000,
                          "mediaDuration" : 786955680000,
                          "scalar" : 1,
                          "metadata" : {
                            "AutoAppliedSmartFocus" : "False",
                            "audiateLinkedSession" : "",
                            "clipSpeedAttribute" : { "type": "bool", "value" : false},
                            "colorAttribute" : { "type": "color", "value" : [ 0, 0, 0, 0]},
                            "default-height" : { "type": "double", "value" : 1036.8},
                            "default-translation0" : { "type": "double", "value" : 0.0},
                            "default-translation1" : { "type": "double", "value" : -194.4},
                            "default-translation2" : { "type": "double", "value" : 0.0},
                            "default-width" : { "type": "double", "value" : 1932.67572815534}
                          },
                          "animationTracks" : {

                          }
                        },
                        {
                          "id" : 458,
                          "_type" : "ScreenVMFile",
                          "src" : 2,
                          "trackNumber" : 0,
                          "attributes" : {
                            "ident" : "Rec 4-22-2025-8-51-30-PM"
                          },
                          "parameters" : {
                            "geometryCrop0" : {
                              "type" : "double",
                              "defaultValue" : 0.0,
                              "interp" : "eioe"
                            },
                            "geometryCrop1" : {
                              "type" : "double",
                              "defaultValue" : 0.0,
                              "interp" : "eioe"
                            },
                            "geometryCrop2" : {
                              "type" : "double",
                              "defaultValue" : 0.0,
                              "interp" : "eioe"
                            },
                            "geometryCrop3" : {
                              "type" : "double",
                              "defaultValue" : 0.0,
                              "interp" : "eioe"
                            },
                            "cursorScale" : {
                              "type" : "double",
                              "defaultValue" : 0.0,
                              "interp" : "linr"
                            },
                            "cursorOpacity" : {
                              "type" : "double",
                              "defaultValue" : 0.0,
                              "interp" : "linr"
                            },
                            "cursorTrackLevel" : {
                              "type" : "double",
                              "defaultValue" : 0.0,
                              "interp" : "linr"
                            },
                            "smoothCursorAcrossEditDuration" : 0
                          },
                          "effects" : [

                          ],
                          "start" : 2042500320000,
                          "duration" : 20768160000,
                          "mediaStart" : 3047580480000,
                          "mediaDuration" : 20768160000,
                          "scalar" : 1,
                          "metadata" : {
                            "AutoAppliedSmartFocus" : "False",
                            "audiateLinkedSession" : "",
                            "clipSpeedAttribute" : { "type": "bool", "value" : false},
                            "colorAttribute" : { "type": "color", "value" : [ 0, 0, 0, 0]},
                            "default-height" : { "type": "double", "value" : 1036.8},
                            "default-translation0" : { "type": "double", "value" : 0.0},
                            "default-translation1" : { "type": "double", "value" : -194.4},
                            "default-translation2" : { "type": "double", "value" : 0.0},
                            "default-width" : { "type": "double", "value" : 1932.67572815534}
                          },
                          "animationTracks" : {

                          }
                        },
                        {
                          "id" : 459,
                          "_type" : "ScreenVMFile",
                          "src" : 2,
                          "trackNumber" : 0,
                          "attributes" : {
                            "ident" : "Rec 4-22-2025-8-51-30-PM"
                          },
                          "parameters" : {
                            "geometryCrop0" : {
                              "type" : "double",
                              "defaultValue" : 0.0,
                              "interp" : "eioe"
                            },
                            "geometryCrop1" : {
                              "type" : "double",
                              "defaultValue" : 0.0,
                              "interp" : "eioe"
                            },
                            "geometryCrop2" : {
                              "type" : "double",
                              "defaultValue" : 0.0,
                              "interp" : "eioe"
                            },
                            "geometryCrop3" : {
                              "type" : "double",
                              "defaultValue" : 0.0,
                              "interp" : "eioe"
                            },
                            "cursorScale" : {
                              "type" : "double",
                              "defaultValue" : 0.0,
                              "interp" : "linr"
                            },
                            "cursorOpacity" : {
                              "type" : "double",
                              "defaultValue" : 0.0,
                              "interp" : "linr"
                            },
                            "cursorTrackLevel" : {
                              "type" : "double",
                              "defaultValue" : 0.0,
                              "interp" : "linr"
                            },
                            "smoothCursorAcrossEditDuration" : 0
                          },
                          "effects" : [

                          ],
                          "start" : 2063268480000,
                          "duration" : 343039200000,
                          "mediaStart" : 3138932160000,
                          "mediaDuration" : 343039200000,
                          "scalar" : 1,
                          "metadata" : {
                            "AutoAppliedSmartFocus" : "False",
                            "audiateLinkedSession" : "",
                            "clipSpeedAttribute" : { "type": "bool", "value" : false},
                            "colorAttribute" : { "type": "color", "value" : [ 0, 0, 0, 0]},
                            "default-height" : { "type": "double", "value" : 1036.8},
                            "default-translation0" : { "type": "double", "value" : 0.0},
                            "default-translation1" : { "type": "double", "value" : -194.4},
                            "default-translation2" : { "type": "double", "value" : 0.0},
                            "default-width" : { "type": "double", "value" : 1932.67572815534}
                          },
                          "animationTracks" : {

                          }
                        }
                    ],
                    "effects" : [
                        {
                          "effectName" : "CursorColor",
                          "bypassed" : false,
                          "category" : "categoryCursorEffects",
                          "parameters" : {
                            "intensity" : 1.0,
                            "desaturation" : 0.0,
                            "colorLumaCutoff" : 1.0,
                            "color-alpha" : 1.0,
                            "color-red" : 1.0,
                            "color-green" : 0.8980392157,
                            "color-blue" : 0.1215686275,
                            "secondColor-red" : 0.0,
                            "secondColor-green" : 0.0,
                            "secondColor-blue" : 0.0,
                            "secondColor-alpha" : 1.0,
                            "secondColorLumaCutoff" : 0.0,
                            "channel" : 0,
                            "shadowRampStart" : 0.0,
                            "shadowRampEnd" : 0.0,
                            "highlightRampStart" : 1.0,
                            "highlightRampEnd" : 1.0
                          }
                        },
                        {
                          "effectName" : "CursorShadow",
                          "bypassed" : false,
                          "category" : "categoryCursorEffects",
                          "parameters" : {
                            "angle" : 3.92699081698724,
                            "enabled" : 1,
                            "offset" : 5.0,
                            "blur" : 2.0,
                            "opacity" : 0.25,
                            "color-red" : 0.0,
                            "color-green" : 0.0,
                            "color-blue" : 0.0,
                            "color-alpha" : 1.0
                          }
                        },
                        {
                          "effectName" : "CursorHilight",
                          "bypassed" : false,
                          "category" : "categoryCursorEffects",
                          "parameters" : {
                            "radius" : 50.0,
                            "color-red" : 1.0,
                            "color-green" : 1.0,
                            "color-blue" : 0.0,
                            "color-alpha" : 0.75,
                            "blur" : 0.1
                          }
                        }
                    ],
                    "start" : 105981120000,
                    "duration" : 940800000,
                    "mediaStart" : 975021600000,
                    "mediaDuration" : 940800000,
                    "scalar" : 1,
                    "metadata" : {
                      "AutoAppliedSmartFocus" : "False",
                      "audiateLinkedSession" : "",
                      "clipSpeedAttribute" : { "type": "bool", "value" : true},
                      "colorAttribute" : { "type": "color", "value" : [ 0, 0, 0, 0]},
                      "default-anchor0" : { "type": "double", "value" : 0.0},
                      "default-anchor1" : { "type": "double", "value" : 0.0},
                      "default-anchor2" : { "type": "double", "value" : 0.0},
                      "default-height" : { "type": "double", "value" : 1036.8},
                      "default-rotation0" : { "type": "double", "value" : 0.0},
                      "default-rotation1" : { "type": "double", "value" : 0.0},
                      "default-rotation2" : { "type": "double", "value" : 0.0},
                      "default-scale0" : { "type": "double", "value" : 0.503300970873786},
                      "default-scale1" : { "type": "double", "value" : 0.503300970873786},
                      "default-scale2" : { "type": "double", "value" : 1.0},
                      "default-shear0" : { "type": "double", "value" : 0.0},
                      "default-shear1" : { "type": "double", "value" : 0.0},
                      "default-shear2" : { "type": "double", "value" : 0.0},
                      "default-translation0" : { "type": "double", "value" : 0.0},
                      "default-translation1" : { "type": "double", "value" : -194.4},
                      "default-translation2" : { "type": "double", "value" : 0.0},
                      "default-width" : { "type": "double", "value" : 1932.67572815534}
                    },
                    "animationTracks" : {
                      "visual" : [
                        {
                          "endTime" : 946350720000,
                          "duration" : 705600000,
                          "range" : [ 945645120000, 705600000]
                        },
                        {
                          "endTime" : 946938720000,
                          "duration" : 588000000,
                          "range" : [ 946350720000, 588000000]
                        },
                        {
                          "endTime" : 950208000000,
                          "duration" : 705600000,
                          "range" : [ 949502400000, 705600000]
                        },
                        {
                          "endTime" : 951572160000,
                          "duration" : 705600000,
                          "range" : [ 950866560000, 705600000]
                        }
                      ]
                    }
                  },
                  {
                    "id" : 460,
                    "_type" : "StitchedMedia",
                    "minMediaStart" : 0,
                    "attributes" : {
                      "ident" : "Rec 4-22-2025-8-51-30-PM",
                      "gain" : 1.0,
                      "mixToMono" : false,
                      "loudnessNormalization" : true,
                      "sourceFileOffset" : 0
                    },
                    "parameters" : {
                      "translation0" : {
                        "type" : "double",
                        "defaultValue" : 6.33786407766917,
                        "keyframes" : [
                          {
                            "endTime" : 946350720000,
                            "time" : 945645120000,
                            "value" : 1529.54135844084,
                            "duration" : 705600000
                          },
                          {
                            "endTime" : 946938720000,
                            "time" : 946350720000,
                            "value" : 2.8421709430404e-14,
                            "duration" : 588000000
                          },
                          {
                            "endTime" : 950208000000,
                            "time" : 949502400000,
                            "value" : 1769.53733046201,
                            "duration" : 705600000
                          },
                          {
                            "endTime" : 951572160000,
                            "time" : 950866560000,
                            "value" : 0.0,
                            "duration" : 705600000
                          }
                        ]
                      },
                      "translation1" : {
                        "type" : "double",
                        "defaultValue" : -2.8421709430404e-14,
                        "keyframes" : [
                          {
                            "endTime" : 946350720000,
                            "time" : 945645120000,
                            "value" : 1155.43533032585,
                            "duration" : 705600000
                          },
                          {
                            "endTime" : 946938720000,
                            "time" : 946350720000,
                            "value" : 4.2632564145606e-14,
                            "duration" : 588000000
                          },
                          {
                            "endTime" : 950208000000,
                            "time" : 949502400000,
                            "value" : 1222.37766654561,
                            "duration" : 705600000
                          },
                          {
                            "endTime" : 951572160000,
                            "time" : 950866560000,
                            "value" : -5.6843418860808e-14,
                            "duration" : 705600000
                          }
                        ]
                      },
                      "scale0" : {
                        "type" : "double",
                        "defaultValue" : 0.503300970873786,
                        "keyframes" : [
                          {
                            "endTime" : 946350720000,
                            "time" : 945645120000,
                            "value" : 2.23861295044012,
                            "duration" : 705600000
                          },
                          {
                            "endTime" : 946938720000,
                            "time" : 946350720000,
                            "value" : 0.5,
                            "duration" : 588000000
                          },
                          {
                            "endTime" : 950208000000,
                            "time" : 949502400000,
                            "value" : 2.05000008547071,
                            "duration" : 705600000
                          },
                          {
                            "endTime" : 951572160000,
                            "time" : 950866560000,
                            "value" : 0.5,
                            "duration" : 705600000
                          }
                        ]
                      },
                      "scale1" : {
                        "type" : "double",
                        "defaultValue" : 0.503300970873786,
                        "keyframes" : [
                          {
                            "endTime" : 946350720000,
                            "time" : 945645120000,
                            "value" : 2.23861378180461,
                            "duration" : 705600000
                          },
                          {
                            "endTime" : 946938720000,
                            "time" : 946350720000,
                            "value" : 0.5,
                            "duration" : 588000000
                          },
                          {
                            "endTime" : 950208000000,
                            "time" : 949502400000,
                            "value" : 2.05000025406246,
                            "duration" : 705600000
                          },
                          {
                            "endTime" : 951572160000,
                            "time" : 950866560000,
                            "value" : 0.500000041119937,
                            "duration" : 705600000
                          }
                        ]
                      },
                      "scale2" : {
                        "type" : "double",
                        "defaultValue" : 1.0,
                        "keyframes" : [
                          {
                            "endTime" : 946938720000,
                            "time" : 946350720000,
                            "value" : 0.5,
                            "duration" : 588000000
                          },
                          {
                            "endTime" : 951572160000,
                            "time" : 950866560000,
                            "value" : 0.121951214427679,
                            "duration" : 705600000
                          }
                        ]
                      },
                      "geometryCrop0" : 0.0,
                      "geometryCrop1" : 0.0,
                      "geometryCrop2" : 0.0,
                      "geometryCrop3" : 0.0,
                      "toc" : {
                        "type" : "string",
                        "keyframes" : [
                          {
                            "endTime" : 985135200000,
                            "time" : 985135200000,
                            "value" : "Click on close labview",
                            "duration" : 0,
                            "metadata" : {
                              "markerIdentifier" : "C67C42BD-1AAA-43BC-B7E8-4FE6E48988CD"
                            }
                          }
                        ]
                      },
                      "cursorOpacity" : 1.0,
                      "cursorTrackLevel" : 0.0,
                      "cursorScale" : 5.0,
                      "smoothCursorAcrossEditDuration" : 0
                    },
                    "medias" : [
                        {
                          "id" : 461,
                          "_type" : "ScreenVMFile",
                          "src" : 2,
                          "trackNumber" : 0,
                          "attributes" : {
                            "ident" : "Rec 4-22-2025-8-51-30-PM"
                          },
                          "parameters" : {
                            "geometryCrop0" : {
                              "type" : "double",
                              "defaultValue" : 0.0,
                              "interp" : "eioe"
                            },
                            "geometryCrop1" : {
                              "type" : "double",
                              "defaultValue" : 0.0,
                              "interp" : "eioe"
                            },
                            "geometryCrop2" : {
                              "type" : "double",
                              "defaultValue" : 0.0,
                              "interp" : "eioe"
                            },
                            "geometryCrop3" : {
                              "type" : "double",
                              "defaultValue" : 0.0,
                              "interp" : "eioe"
                            },
                            "cursorScale" : {
                              "type" : "double",
                              "defaultValue" : 0.0,
                              "interp" : "linr"
                            },
                            "cursorOpacity" : {
                              "type" : "double",
                              "defaultValue" : 0.0,
                              "interp" : "linr"
                            },
                            "cursorTrackLevel" : {
                              "type" : "double",
                              "defaultValue" : 0.0,
                              "interp" : "linr"
                            },
                            "smoothCursorAcrossEditDuration" : 0
                          },
                          "effects" : [

                          ],
                          "start" : 0,
                          "duration" : 50991360000,
                          "mediaStart" : 0,
                          "mediaDuration" : 50991360000,
                          "scalar" : 1,
                          "metadata" : {
                            "AutoAppliedSmartFocus" : "False",
                            "audiateLinkedSession" : "",
                            "clipSpeedAttribute" : { "type": "bool", "value" : false},
                            "colorAttribute" : { "type": "color", "value" : [ 0, 0, 0, 0]},
                            "default-height" : { "type": "double", "value" : 1036.8},
                            "default-translation0" : { "type": "double", "value" : 0.0},
                            "default-translation1" : { "type": "double", "value" : -194.4},
                            "default-translation2" : { "type": "double", "value" : 0.0},
                            "default-width" : { "type": "double", "value" : 1932.67572815534}
                          },
                          "animationTracks" : {

                          }
                        },
                        {
                          "id" : 462,
                          "_type" : "ScreenVMFile",
                          "src" : 2,
                          "trackNumber" : 0,
                          "attributes" : {
                            "ident" : "Rec 4-22-2025-8-51-30-PM"
                          },
                          "parameters" : {
                            "geometryCrop0" : {
                              "type" : "double",
                              "defaultValue" : 0.0,
                              "interp" : "eioe"
                            },
                            "geometryCrop1" : {
                              "type" : "double",
                              "defaultValue" : 0.0,
                              "interp" : "eioe"
                            },
                            "geometryCrop2" : {
                              "type" : "double",
                              "defaultValue" : 0.0,
                              "interp" : "eioe"
                            },
                            "geometryCrop3" : {
                              "type" : "double",
                              "defaultValue" : 0.0,
                              "interp" : "eioe"
                            },
                            "cursorScale" : {
                              "type" : "double",
                              "defaultValue" : 0.0,
                              "interp" : "linr"
                            },
                            "cursorOpacity" : {
                              "type" : "double",
                              "defaultValue" : 0.0,
                              "interp" : "linr"
                            },
                            "cursorTrackLevel" : {
                              "type" : "double",
                              "defaultValue" : 0.0,
                              "interp" : "linr"
                            },
                            "smoothCursorAcrossEditDuration" : 0
                          },
                          "effects" : [

                          ],
                          "start" : 50991360000,
                          "duration" : 46663680000,
                          "mediaStart" : 66467520000,
                          "mediaDuration" : 46663680000,
                          "scalar" : 1,
                          "metadata" : {
                            "AutoAppliedSmartFocus" : "False",
                            "audiateLinkedSession" : "",
                            "clipSpeedAttribute" : { "type": "bool", "value" : false},
                            "colorAttribute" : { "type": "color", "value" : [ 0, 0, 0, 0]},
                            "default-height" : { "type": "double", "value" : 1036.8},
                            "default-translation0" : { "type": "double", "value" : 0.0},
                            "default-translation1" : { "type": "double", "value" : -194.4},
                            "default-translation2" : { "type": "double", "value" : 0.0},
                            "default-width" : { "type": "double", "value" : 1932.67572815534}
                          },
                          "animationTracks" : {

                          }
                        },
                        {
                          "id" : 463,
                          "_type" : "ScreenVMFile",
                          "src" : 2,
                          "trackNumber" : 0,
                          "attributes" : {
                            "ident" : "Rec 4-22-2025-8-51-30-PM"
                          },
                          "parameters" : {
                            "geometryCrop0" : {
                              "type" : "double",
                              "defaultValue" : 0.0,
                              "interp" : "eioe"
                            },
                            "geometryCrop1" : {
                              "type" : "double",
                              "defaultValue" : 0.0,
                              "interp" : "eioe"
                            },
                            "geometryCrop2" : {
                              "type" : "double",
                              "defaultValue" : 0.0,
                              "interp" : "eioe"
                            },
                            "geometryCrop3" : {
                              "type" : "double",
                              "defaultValue" : 0.0,
                              "interp" : "eioe"
                            },
                            "cursorScale" : {
                              "type" : "double",
                              "defaultValue" : 0.0,
                              "interp" : "linr"
                            },
                            "cursorOpacity" : {
                              "type" : "double",
                              "defaultValue" : 0.0,
                              "interp" : "linr"
                            },
                            "cursorTrackLevel" : {
                              "type" : "double",
                              "defaultValue" : 0.0,
                              "interp" : "linr"
                            },
                            "smoothCursorAcrossEditDuration" : 0
                          },
                          "effects" : [

                          ],
                          "start" : 97655040000,
                          "duration" : 352282560000,
                          "mediaStart" : 149352000000,
                          "mediaDuration" : 352282560000,
                          "scalar" : 1,
                          "metadata" : {
                            "AutoAppliedSmartFocus" : "False",
                            "audiateLinkedSession" : "",
                            "clipSpeedAttribute" : { "type": "bool", "value" : false},
                            "colorAttribute" : { "type": "color", "value" : [ 0, 0, 0, 0]},
                            "default-height" : { "type": "double", "value" : 1036.8},
                            "default-translation0" : { "type": "double", "value" : 0.0},
                            "default-translation1" : { "type": "double", "value" : -194.4},
                            "default-translation2" : { "type": "double", "value" : 0.0},
                            "default-width" : { "type": "double", "value" : 1932.67572815534}
                          },
                          "animationTracks" : {

                          }
                        },
                        {
                          "id" : 464,
                          "_type" : "ScreenVMFile",
                          "src" : 2,
                          "trackNumber" : 0,
                          "attributes" : {
                            "ident" : "Rec 4-22-2025-8-51-30-PM"
                          },
                          "parameters" : {
                            "geometryCrop0" : {
                              "type" : "double",
                              "defaultValue" : 0.0,
                              "interp" : "eioe"
                            },
                            "geometryCrop1" : {
                              "type" : "double",
                              "defaultValue" : 0.0,
                              "interp" : "eioe"
                            },
                            "geometryCrop2" : {
                              "type" : "double",
                              "defaultValue" : 0.0,
                              "interp" : "eioe"
                            },
                            "geometryCrop3" : {
                              "type" : "double",
                              "defaultValue" : 0.0,
                              "interp" : "eioe"
                            },
                            "cursorScale" : {
                              "type" : "double",
                              "defaultValue" : 0.0,
                              "interp" : "linr"
                            },
                            "cursorOpacity" : {
                              "type" : "double",
                              "defaultValue" : 0.0,
                              "interp" : "linr"
                            },
                            "cursorTrackLevel" : {
                              "type" : "double",
                              "defaultValue" : 0.0,
                              "interp" : "linr"
                            },
                            "smoothCursorAcrossEditDuration" : 0
                          },
                          "effects" : [

                          ],
                          "start" : 449937600000,
                          "duration" : 8961120000,
                          "mediaStart" : 509843040000,
                          "mediaDuration" : 8961120000,
                          "scalar" : 1,
                          "metadata" : {
                            "AutoAppliedSmartFocus" : "False",
                            "audiateLinkedSession" : "",
                            "clipSpeedAttribute" : { "type": "bool", "value" : false},
                            "colorAttribute" : { "type": "color", "value" : [ 0, 0, 0, 0]},
                            "default-height" : { "type": "double", "value" : 1036.8},
                            "default-translation0" : { "type": "double", "value" : 0.0},
                            "default-translation1" : { "type": "double", "value" : -194.4},
                            "default-translation2" : { "type": "double", "value" : 0.0},
                            "default-width" : { "type": "double", "value" : 1932.67572815534}
                          },
                          "animationTracks" : {

                          }
                        },
                        {
                          "id" : 465,
                          "_type" : "ScreenVMFile",
                          "src" : 2,
                          "trackNumber" : 0,
                          "attributes" : {
                            "ident" : "Rec 4-22-2025-8-51-30-PM"
                          },
                          "parameters" : {
                            "geometryCrop0" : {
                              "type" : "double",
                              "defaultValue" : 0.0,
                              "interp" : "eioe"
                            },
                            "geometryCrop1" : {
                              "type" : "double",
                              "defaultValue" : 0.0,
                              "interp" : "eioe"
                            },
                            "geometryCrop2" : {
                              "type" : "double",
                              "defaultValue" : 0.0,
                              "interp" : "eioe"
                            },
                            "geometryCrop3" : {
                              "type" : "double",
                              "defaultValue" : 0.0,
                              "interp" : "eioe"
                            },
                            "cursorScale" : {
                              "type" : "double",
                              "defaultValue" : 0.0,
                              "interp" : "linr"
                            },
                            "cursorOpacity" : {
                              "type" : "double",
                              "defaultValue" : 0.0,
                              "interp" : "linr"
                            },
                            "cursorTrackLevel" : {
                              "type" : "double",
                              "defaultValue" : 0.0,
                              "interp" : "linr"
                            },
                            "smoothCursorAcrossEditDuration" : 0
                          },
                          "effects" : [

                          ],
                          "start" : 458898720000,
                          "duration" : 472399200000,
                          "mediaStart" : 1416350880000,
                          "mediaDuration" : 472399200000,
                          "scalar" : 1,
                          "metadata" : {
                            "AutoAppliedSmartFocus" : "False",
                            "audiateLinkedSession" : "",
                            "clipSpeedAttribute" : { "type": "bool", "value" : false},
                            "colorAttribute" : { "type": "color", "value" : [ 0, 0, 0, 0]},
                            "default-height" : { "type": "double", "value" : 1036.8},
                            "default-translation0" : { "type": "double", "value" : 0.0},
                            "default-translation1" : { "type": "double", "value" : -194.4},
                            "default-translation2" : { "type": "double", "value" : 0.0},
                            "default-width" : { "type": "double", "value" : 1932.67572815534}
                          },
                          "animationTracks" : {

                          }
                        },
                        {
                          "id" : 466,
                          "_type" : "ScreenVMFile",
                          "src" : 2,
                          "trackNumber" : 0,
                          "attributes" : {
                            "ident" : "Rec 4-22-2025-8-51-30-PM"
                          },
                          "parameters" : {
                            "geometryCrop0" : {
                              "type" : "double",
                              "defaultValue" : 0.0,
                              "interp" : "eioe"
                            },
                            "geometryCrop1" : {
                              "type" : "double",
                              "defaultValue" : 0.0,
                              "interp" : "eioe"
                            },
                            "geometryCrop2" : {
                              "type" : "double",
                              "defaultValue" : 0.0,
                              "interp" : "eioe"
                            },
                            "geometryCrop3" : {
                              "type" : "double",
                              "defaultValue" : 0.0,
                              "interp" : "eioe"
                            },
                            "cursorScale" : {
                              "type" : "double",
                              "defaultValue" : 0.0,
                              "interp" : "linr"
                            },
                            "cursorOpacity" : {
                              "type" : "double",
                              "defaultValue" : 0.0,
                              "interp" : "linr"
                            },
                            "cursorTrackLevel" : {
                              "type" : "double",
                              "defaultValue" : 0.0,
                              "interp" : "linr"
                            },
                            "smoothCursorAcrossEditDuration" : 0
                          },
                          "effects" : [

                          ],
                          "start" : 931297920000,
                          "duration" : 15781920000,
                          "mediaStart" : 1888750080000,
                          "mediaDuration" : 15781920000,
                          "scalar" : 1,
                          "metadata" : {
                            "AutoAppliedSmartFocus" : "False",
                            "audiateLinkedSession" : "",
                            "clipSpeedAttribute" : { "type": "bool", "value" : false},
                            "colorAttribute" : { "type": "color", "value" : [ 0, 0, 0, 0]},
                            "default-height" : { "type": "double", "value" : 1036.8},
                            "default-translation0" : { "type": "double", "value" : 0.0},
                            "default-translation1" : { "type": "double", "value" : -194.4},
                            "default-translation2" : { "type": "double", "value" : 0.0},
                            "default-width" : { "type": "double", "value" : 1932.67572815534}
                          },
                          "animationTracks" : {

                          }
                        },
                        {
                          "id" : 467,
                          "_type" : "ScreenVMFile",
                          "src" : 2,
                          "trackNumber" : 0,
                          "attributes" : {
                            "ident" : "Rec 4-22-2025-8-51-30-PM"
                          },
                          "parameters" : {
                            "geometryCrop0" : {
                              "type" : "double",
                              "defaultValue" : 0.0,
                              "interp" : "eioe"
                            },
                            "geometryCrop1" : {
                              "type" : "double",
                              "defaultValue" : 0.0,
                              "interp" : "eioe"
                            },
                            "geometryCrop2" : {
                              "type" : "double",
                              "defaultValue" : 0.0,
                              "interp" : "eioe"
                            },
                            "geometryCrop3" : {
                              "type" : "double",
                              "defaultValue" : 0.0,
                              "interp" : "eioe"
                            },
                            "cursorScale" : {
                              "type" : "double",
                              "defaultValue" : 0.0,
                              "interp" : "linr"
                            },
                            "cursorOpacity" : {
                              "type" : "double",
                              "defaultValue" : 0.0,
                              "interp" : "linr"
                            },
                            "cursorTrackLevel" : {
                              "type" : "double",
                              "defaultValue" : 0.0,
                              "interp" : "linr"
                            },
                            "smoothCursorAcrossEditDuration" : 0
                          },
                          "effects" : [

                          ],
                          "start" : 947079840000,
                          "duration" : 7502880000,
                          "mediaStart" : 1904532000000,
                          "mediaDuration" : 7502880000,
                          "scalar" : 1,
                          "metadata" : {
                            "AutoAppliedSmartFocus" : "False",
                            "audiateLinkedSession" : "",
                            "clipSpeedAttribute" : { "type": "bool", "value" : false},
                            "colorAttribute" : { "type": "color", "value" : [ 0, 0, 0, 0]},
                            "default-height" : { "type": "double", "value" : 1036.8},
                            "default-translation0" : { "type": "double", "value" : 0.0},
                            "default-translation1" : { "type": "double", "value" : -194.4},
                            "default-translation2" : { "type": "double", "value" : 0.0},
                            "default-width" : { "type": "double", "value" : 1932.67572815534}
                          },
                          "animationTracks" : {

                          }
                        },
                        {
                          "id" : 468,
                          "_type" : "ScreenVMFile",
                          "src" : 2,
                          "trackNumber" : 0,
                          "attributes" : {
                            "ident" : "Rec 4-22-2025-8-51-30-PM"
                          },
                          "parameters" : {
                            "geometryCrop0" : {
                              "type" : "double",
                              "defaultValue" : 0.0,
                              "interp" : "eioe"
                            },
                            "geometryCrop1" : {
                              "type" : "double",
                              "defaultValue" : 0.0,
                              "interp" : "eioe"
                            },
                            "geometryCrop2" : {
                              "type" : "double",
                              "defaultValue" : 0.0,
                              "interp" : "eioe"
                            },
                            "geometryCrop3" : {
                              "type" : "double",
                              "defaultValue" : 0.0,
                              "interp" : "eioe"
                            },
                            "cursorScale" : {
                              "type" : "double",
                              "defaultValue" : 0.0,
                              "interp" : "linr"
                            },
                            "cursorOpacity" : {
                              "type" : "double",
                              "defaultValue" : 0.0,
                              "interp" : "linr"
                            },
                            "cursorTrackLevel" : {
                              "type" : "double",
                              "defaultValue" : 0.0,
                              "interp" : "linr"
                            },
                            "smoothCursorAcrossEditDuration" : 0
                          },
                          "effects" : [

                          ],
                          "start" : 954582720000,
                          "duration" : 13053600000,
                          "mediaStart" : 1912034880000,
                          "mediaDuration" : 13053600000,
                          "scalar" : 1,
                          "metadata" : {
                            "AutoAppliedSmartFocus" : "False",
                            "audiateLinkedSession" : "",
                            "clipSpeedAttribute" : { "type": "bool", "value" : false},
                            "colorAttribute" : { "type": "color", "value" : [ 0, 0, 0, 0]},
                            "default-height" : { "type": "double", "value" : 1036.8},
                            "default-translation0" : { "type": "double", "value" : 0.0},
                            "default-translation1" : { "type": "double", "value" : -194.4},
                            "default-translation2" : { "type": "double", "value" : 0.0},
                            "default-width" : { "type": "double", "value" : 1932.67572815534}
                          },
                          "animationTracks" : {

                          }
                        },
                        {
                          "id" : 469,
                          "_type" : "ScreenVMFile",
                          "src" : 2,
                          "trackNumber" : 0,
                          "attributes" : {
                            "ident" : "Rec 4-22-2025-8-51-30-PM"
                          },
                          "parameters" : {
                            "geometryCrop0" : {
                              "type" : "double",
                              "defaultValue" : 0.0,
                              "interp" : "eioe"
                            },
                            "geometryCrop1" : {
                              "type" : "double",
                              "defaultValue" : 0.0,
                              "interp" : "eioe"
                            },
                            "geometryCrop2" : {
                              "type" : "double",
                              "defaultValue" : 0.0,
                              "interp" : "eioe"
                            },
                            "geometryCrop3" : {
                              "type" : "double",
                              "defaultValue" : 0.0,
                              "interp" : "eioe"
                            },
                            "cursorScale" : {
                              "type" : "double",
                              "defaultValue" : 0.0,
                              "interp" : "linr"
                            },
                            "cursorOpacity" : {
                              "type" : "double",
                              "defaultValue" : 0.0,
                              "interp" : "linr"
                            },
                            "cursorTrackLevel" : {
                              "type" : "double",
                              "defaultValue" : 0.0,
                              "interp" : "linr"
                            },
                            "smoothCursorAcrossEditDuration" : 0
                          },
                          "effects" : [

                          ],
                          "start" : 967636320000,
                          "duration" : 7691040000,
                          "mediaStart" : 1925088480000,
                          "mediaDuration" : 7691040000,
                          "scalar" : 1,
                          "metadata" : {
                            "AutoAppliedSmartFocus" : "False",
                            "audiateLinkedSession" : "",
                            "clipSpeedAttribute" : { "type": "bool", "value" : false},
                            "colorAttribute" : { "type": "color", "value" : [ 0, 0, 0, 0]},
                            "default-height" : { "type": "double", "value" : 1036.8},
                            "default-translation0" : { "type": "double", "value" : 0.0},
                            "default-translation1" : { "type": "double", "value" : -194.4},
                            "default-translation2" : { "type": "double", "value" : 0.0},
                            "default-width" : { "type": "double", "value" : 1932.67572815534}
                          },
                          "animationTracks" : {

                          }
                        },
                        {
                          "id" : 470,
                          "_type" : "ScreenVMFile",
                          "src" : 2,
                          "trackNumber" : 0,
                          "attributes" : {
                            "ident" : "Rec 4-22-2025-8-51-30-PM"
                          },
                          "parameters" : {
                            "geometryCrop0" : {
                              "type" : "double",
                              "defaultValue" : 0.0,
                              "interp" : "eioe"
                            },
                            "geometryCrop1" : {
                              "type" : "double",
                              "defaultValue" : 0.0,
                              "interp" : "eioe"
                            },
                            "geometryCrop2" : {
                              "type" : "double",
                              "defaultValue" : 0.0,
                              "interp" : "eioe"
                            },
                            "geometryCrop3" : {
                              "type" : "double",
                              "defaultValue" : 0.0,
                              "interp" : "eioe"
                            },
                            "cursorScale" : {
                              "type" : "double",
                              "defaultValue" : 0.0,
                              "interp" : "linr"
                            },
                            "cursorOpacity" : {
                              "type" : "double",
                              "defaultValue" : 0.0,
                              "interp" : "linr"
                            },
                            "cursorTrackLevel" : {
                              "type" : "double",
                              "defaultValue" : 0.0,
                              "interp" : "linr"
                            },
                            "smoothCursorAcrossEditDuration" : 0
                          },
                          "effects" : [

                          ],
                          "start" : 975327360000,
                          "duration" : 9807840000,
                          "mediaStart" : 1932779520000,
                          "mediaDuration" : 9807840000,
                          "scalar" : 1,
                          "metadata" : {
                            "AutoAppliedSmartFocus" : "False",
                            "audiateLinkedSession" : "",
                            "clipSpeedAttribute" : { "type": "bool", "value" : false},
                            "colorAttribute" : { "type": "color", "value" : [ 0, 0, 0, 0]},
                            "default-height" : { "type": "double", "value" : 1036.8},
                            "default-translation0" : { "type": "double", "value" : 0.0},
                            "default-translation1" : { "type": "double", "value" : -194.4},
                            "default-translation2" : { "type": "double", "value" : 0.0},
                            "default-width" : { "type": "double", "value" : 1932.67572815534}
                          },
                          "animationTracks" : {

                          }
                        },
                        {
                          "id" : 471,
                          "_type" : "ScreenVMFile",
                          "src" : 2,
                          "trackNumber" : 0,
                          "attributes" : {
                            "ident" : "Rec 4-22-2025-8-51-30-PM"
                          },
                          "parameters" : {
                            "geometryCrop0" : {
                              "type" : "double",
                              "defaultValue" : 0.0,
                              "interp" : "eioe"
                            },
                            "geometryCrop1" : {
                              "type" : "double",
                              "defaultValue" : 0.0,
                              "interp" : "eioe"
                            },
                            "geometryCrop2" : {
                              "type" : "double",
                              "defaultValue" : 0.0,
                              "interp" : "eioe"
                            },
                            "geometryCrop3" : {
                              "type" : "double",
                              "defaultValue" : 0.0,
                              "interp" : "eioe"
                            },
                            "cursorScale" : {
                              "type" : "double",
                              "defaultValue" : 0.0,
                              "interp" : "linr"
                            },
                            "cursorOpacity" : {
                              "type" : "double",
                              "defaultValue" : 0.0,
                              "interp" : "linr"
                            },
                            "cursorTrackLevel" : {
                              "type" : "double",
                              "defaultValue" : 0.0,
                              "interp" : "linr"
                            },
                            "smoothCursorAcrossEditDuration" : 0
                          },
                          "effects" : [

                          ],
                          "start" : 985135200000,
                          "duration" : 20391840000,
                          "mediaStart" : 1942587360000,
                          "mediaDuration" : 20391840000,
                          "scalar" : 1,
                          "metadata" : {
                            "AutoAppliedSmartFocus" : "False",
                            "audiateLinkedSession" : "",
                            "clipSpeedAttribute" : { "type": "bool", "value" : false},
                            "colorAttribute" : { "type": "color", "value" : [ 0, 0, 0, 0]},
                            "default-height" : { "type": "double", "value" : 1036.8},
                            "default-translation0" : { "type": "double", "value" : 0.0},
                            "default-translation1" : { "type": "double", "value" : -194.4},
                            "default-translation2" : { "type": "double", "value" : 0.0},
                            "default-width" : { "type": "double", "value" : 1932.67572815534}
                          },
                          "animationTracks" : {

                          }
                        },
                        {
                          "id" : 472,
                          "_type" : "ScreenVMFile",
                          "src" : 2,
                          "trackNumber" : 0,
                          "attributes" : {
                            "ident" : "Rec 4-22-2025-8-51-30-PM"
                          },
                          "parameters" : {
                            "geometryCrop0" : {
                              "type" : "double",
                              "defaultValue" : 0.0,
                              "interp" : "eioe"
                            },
                            "geometryCrop1" : {
                              "type" : "double",
                              "defaultValue" : 0.0,
                              "interp" : "eioe"
                            },
                            "geometryCrop2" : {
                              "type" : "double",
                              "defaultValue" : 0.0,
                              "interp" : "eioe"
                            },
                            "geometryCrop3" : {
                              "type" : "double",
                              "defaultValue" : 0.0,
                              "interp" : "eioe"
                            },
                            "cursorScale" : {
                              "type" : "double",
                              "defaultValue" : 0.0,
                              "interp" : "linr"
                            },
                            "cursorOpacity" : {
                              "type" : "double",
                              "defaultValue" : 0.0,
                              "interp" : "linr"
                            },
                            "cursorTrackLevel" : {
                              "type" : "double",
                              "defaultValue" : 0.0,
                              "interp" : "linr"
                            },
                            "smoothCursorAcrossEditDuration" : 0
                          },
                          "effects" : [

                          ],
                          "start" : 1005527040000,
                          "duration" : 8914080000,
                          "mediaStart" : 1962979200000,
                          "mediaDuration" : 8914080000,
                          "scalar" : 1,
                          "metadata" : {
                            "AutoAppliedSmartFocus" : "False",
                            "audiateLinkedSession" : "",
                            "clipSpeedAttribute" : { "type": "bool", "value" : false},
                            "colorAttribute" : { "type": "color", "value" : [ 0, 0, 0, 0]},
                            "default-height" : { "type": "double", "value" : 1036.8},
                            "default-translation0" : { "type": "double", "value" : 0.0},
                            "default-translation1" : { "type": "double", "value" : -194.4},
                            "default-translation2" : { "type": "double", "value" : 0.0},
                            "default-width" : { "type": "double", "value" : 1932.67572815534}
                          },
                          "animationTracks" : {

                          }
                        },
                        {
                          "id" : 473,
                          "_type" : "ScreenVMFile",
                          "src" : 2,
                          "trackNumber" : 0,
                          "attributes" : {
                            "ident" : "Rec 4-22-2025-8-51-30-PM"
                          },
                          "parameters" : {
                            "geometryCrop0" : {
                              "type" : "double",
                              "defaultValue" : 0.0,
                              "interp" : "eioe"
                            },
                            "geometryCrop1" : {
                              "type" : "double",
                              "defaultValue" : 0.0,
                              "interp" : "eioe"
                            },
                            "geometryCrop2" : {
                              "type" : "double",
                              "defaultValue" : 0.0,
                              "interp" : "eioe"
                            },
                            "geometryCrop3" : {
                              "type" : "double",
                              "defaultValue" : 0.0,
                              "interp" : "eioe"
                            },
                            "cursorScale" : {
                              "type" : "double",
                              "defaultValue" : 0.0,
                              "interp" : "linr"
                            },
                            "cursorOpacity" : {
                              "type" : "double",
                              "defaultValue" : 0.0,
                              "interp" : "linr"
                            },
                            "cursorTrackLevel" : {
                              "type" : "double",
                              "defaultValue" : 0.0,
                              "interp" : "linr"
                            },
                            "smoothCursorAcrossEditDuration" : 0
                          },
                          "effects" : [

                          ],
                          "start" : 1014441120000,
                          "duration" : 3034080000,
                          "mediaStart" : 1971893280000,
                          "mediaDuration" : 3034080000,
                          "scalar" : 1,
                          "metadata" : {
                            "AutoAppliedSmartFocus" : "False",
                            "audiateLinkedSession" : "",
                            "clipSpeedAttribute" : { "type": "bool", "value" : false},
                            "colorAttribute" : { "type": "color", "value" : [ 0, 0, 0, 0]},
                            "default-height" : { "type": "double", "value" : 1036.8},
                            "default-translation0" : { "type": "double", "value" : 0.0},
                            "default-translation1" : { "type": "double", "value" : -194.4},
                            "default-translation2" : { "type": "double", "value" : 0.0},
                            "default-width" : { "type": "double", "value" : 1932.67572815534}
                          },
                          "animationTracks" : {

                          }
                        },
                        {
                          "id" : 474,
                          "_type" : "ScreenVMFile",
                          "src" : 2,
                          "trackNumber" : 0,
                          "attributes" : {
                            "ident" : "Rec 4-22-2025-8-51-30-PM"
                          },
                          "parameters" : {
                            "geometryCrop0" : {
                              "type" : "double",
                              "defaultValue" : 0.0,
                              "interp" : "eioe"
                            },
                            "geometryCrop1" : {
                              "type" : "double",
                              "defaultValue" : 0.0,
                              "interp" : "eioe"
                            },
                            "geometryCrop2" : {
                              "type" : "double",
                              "defaultValue" : 0.0,
                              "interp" : "eioe"
                            },
                            "geometryCrop3" : {
                              "type" : "double",
                              "defaultValue" : 0.0,
                              "interp" : "eioe"
                            },
                            "cursorScale" : {
                              "type" : "double",
                              "defaultValue" : 0.0,
                              "interp" : "linr"
                            },
                            "cursorOpacity" : {
                              "type" : "double",
                              "defaultValue" : 0.0,
                              "interp" : "linr"
                            },
                            "cursorTrackLevel" : {
                              "type" : "double",
                              "defaultValue" : 0.0,
                              "interp" : "linr"
                            },
                            "smoothCursorAcrossEditDuration" : 0
                          },
                          "effects" : [

                          ],
                          "start" : 1017475200000,
                          "duration" : 22649760000,
                          "mediaStart" : 1974927360000,
                          "mediaDuration" : 22649760000,
                          "scalar" : 1,
                          "metadata" : {
                            "AutoAppliedSmartFocus" : "False",
                            "audiateLinkedSession" : "",
                            "clipSpeedAttribute" : { "type": "bool", "value" : false},
                            "colorAttribute" : { "type": "color", "value" : [ 0, 0, 0, 0]},
                            "default-height" : { "type": "double", "value" : 1036.8},
                            "default-translation0" : { "type": "double", "value" : 0.0},
                            "default-translation1" : { "type": "double", "value" : -194.4},
                            "default-translation2" : { "type": "double", "value" : 0.0},
                            "default-width" : { "type": "double", "value" : 1932.67572815534}
                          },
                          "animationTracks" : {

                          }
                        },
                        {
                          "id" : 475,
                          "_type" : "ScreenVMFile",
                          "src" : 2,
                          "trackNumber" : 0,
                          "attributes" : {
                            "ident" : "Rec 4-22-2025-8-51-30-PM"
                          },
                          "parameters" : {
                            "geometryCrop0" : {
                              "type" : "double",
                              "defaultValue" : 0.0,
                              "interp" : "eioe"
                            },
                            "geometryCrop1" : {
                              "type" : "double",
                              "defaultValue" : 0.0,
                              "interp" : "eioe"
                            },
                            "geometryCrop2" : {
                              "type" : "double",
                              "defaultValue" : 0.0,
                              "interp" : "eioe"
                            },
                            "geometryCrop3" : {
                              "type" : "double",
                              "defaultValue" : 0.0,
                              "interp" : "eioe"
                            },
                            "cursorScale" : {
                              "type" : "double",
                              "defaultValue" : 0.0,
                              "interp" : "linr"
                            },
                            "cursorOpacity" : {
                              "type" : "double",
                              "defaultValue" : 0.0,
                              "interp" : "linr"
                            },
                            "cursorTrackLevel" : {
                              "type" : "double",
                              "defaultValue" : 0.0,
                              "interp" : "linr"
                            },
                            "smoothCursorAcrossEditDuration" : 0
                          },
                          "effects" : [

                          ],
                          "start" : 1040124960000,
                          "duration" : 215419680000,
                          "mediaStart" : 2018886240000,
                          "mediaDuration" : 215419680000,
                          "scalar" : 1,
                          "metadata" : {
                            "AutoAppliedSmartFocus" : "False",
                            "audiateLinkedSession" : "",
                            "clipSpeedAttribute" : { "type": "bool", "value" : false},
                            "colorAttribute" : { "type": "color", "value" : [ 0, 0, 0, 0]},
                            "default-height" : { "type": "double", "value" : 1036.8},
                            "default-translation0" : { "type": "double", "value" : 0.0},
                            "default-translation1" : { "type": "double", "value" : -194.4},
                            "default-translation2" : { "type": "double", "value" : 0.0},
                            "default-width" : { "type": "double", "value" : 1932.67572815534}
                          },
                          "animationTracks" : {

                          }
                        },
                        {
                          "id" : 476,
                          "_type" : "ScreenVMFile",
                          "src" : 2,
                          "trackNumber" : 0,
                          "attributes" : {
                            "ident" : "Rec 4-22-2025-8-51-30-PM"
                          },
                          "parameters" : {
                            "geometryCrop0" : {
                              "type" : "double",
                              "defaultValue" : 0.0,
                              "interp" : "eioe"
                            },
                            "geometryCrop1" : {
                              "type" : "double",
                              "defaultValue" : 0.0,
                              "interp" : "eioe"
                            },
                            "geometryCrop2" : {
                              "type" : "double",
                              "defaultValue" : 0.0,
                              "interp" : "eioe"
                            },
                            "geometryCrop3" : {
                              "type" : "double",
                              "defaultValue" : 0.0,
                              "interp" : "eioe"
                            },
                            "cursorScale" : {
                              "type" : "double",
                              "defaultValue" : 0.0,
                              "interp" : "linr"
                            },
                            "cursorOpacity" : {
                              "type" : "double",
                              "defaultValue" : 0.0,
                              "interp" : "linr"
                            },
                            "cursorTrackLevel" : {
                              "type" : "double",
                              "defaultValue" : 0.0,
                              "interp" : "linr"
                            },
                            "smoothCursorAcrossEditDuration" : 0
                          },
                          "effects" : [

                          ],
                          "start" : 1255544640000,
                          "duration" : 786955680000,
                          "mediaStart" : 2257778880000,
                          "mediaDuration" : 786955680000,
                          "scalar" : 1,
                          "metadata" : {
                            "AutoAppliedSmartFocus" : "False",
                            "audiateLinkedSession" : "",
                            "clipSpeedAttribute" : { "type": "bool", "value" : false},
                            "colorAttribute" : { "type": "color", "value" : [ 0, 0, 0, 0]},
                            "default-height" : { "type": "double", "value" : 1036.8},
                            "default-translation0" : { "type": "double", "value" : 0.0},
                            "default-translation1" : { "type": "double", "value" : -194.4},
                            "default-translation2" : { "type": "double", "value" : 0.0},
                            "default-width" : { "type": "double", "value" : 1932.67572815534}
                          },
                          "animationTracks" : {

                          }
                        },
                        {
                          "id" : 477,
                          "_type" : "ScreenVMFile",
                          "src" : 2,
                          "trackNumber" : 0,
                          "attributes" : {
                            "ident" : "Rec 4-22-2025-8-51-30-PM"
                          },
                          "parameters" : {
                            "geometryCrop0" : {
                              "type" : "double",
                              "defaultValue" : 0.0,
                              "interp" : "eioe"
                            },
                            "geometryCrop1" : {
                              "type" : "double",
                              "defaultValue" : 0.0,
                              "interp" : "eioe"
                            },
                            "geometryCrop2" : {
                              "type" : "double",
                              "defaultValue" : 0.0,
                              "interp" : "eioe"
                            },
                            "geometryCrop3" : {
                              "type" : "double",
                              "defaultValue" : 0.0,
                              "interp" : "eioe"
                            },
                            "cursorScale" : {
                              "type" : "double",
                              "defaultValue" : 0.0,
                              "interp" : "linr"
                            },
                            "cursorOpacity" : {
                              "type" : "double",
                              "defaultValue" : 0.0,
                              "interp" : "linr"
                            },
                            "cursorTrackLevel" : {
                              "type" : "double",
                              "defaultValue" : 0.0,
                              "interp" : "linr"
                            },
                            "smoothCursorAcrossEditDuration" : 0
                          },
                          "effects" : [

                          ],
                          "start" : 2042500320000,
                          "duration" : 20768160000,
                          "mediaStart" : 3047580480000,
                          "mediaDuration" : 20768160000,
                          "scalar" : 1,
                          "metadata" : {
                            "AutoAppliedSmartFocus" : "False",
                            "audiateLinkedSession" : "",
                            "clipSpeedAttribute" : { "type": "bool", "value" : false},
                            "colorAttribute" : { "type": "color", "value" : [ 0, 0, 0, 0]},
                            "default-height" : { "type": "double", "value" : 1036.8},
                            "default-translation0" : { "type": "double", "value" : 0.0},
                            "default-translation1" : { "type": "double", "value" : -194.4},
                            "default-translation2" : { "type": "double", "value" : 0.0},
                            "default-width" : { "type": "double", "value" : 1932.67572815534}
                          },
                          "animationTracks" : {

                          }
                        },
                        {
                          "id" : 478,
                          "_type" : "ScreenVMFile",
                          "src" : 2,
                          "trackNumber" : 0,
                          "attributes" : {
                            "ident" : "Rec 4-22-2025-8-51-30-PM"
                          },
                          "parameters" : {
                            "geometryCrop0" : {
                              "type" : "double",
                              "defaultValue" : 0.0,
                              "interp" : "eioe"
                            },
                            "geometryCrop1" : {
                              "type" : "double",
                              "defaultValue" : 0.0,
                              "interp" : "eioe"
                            },
                            "geometryCrop2" : {
                              "type" : "double",
                              "defaultValue" : 0.0,
                              "interp" : "eioe"
                            },
                            "geometryCrop3" : {
                              "type" : "double",
                              "defaultValue" : 0.0,
                              "interp" : "eioe"
                            },
                            "cursorScale" : {
                              "type" : "double",
                              "defaultValue" : 0.0,
                              "interp" : "linr"
                            },
                            "cursorOpacity" : {
                              "type" : "double",
                              "defaultValue" : 0.0,
                              "interp" : "linr"
                            },
                            "cursorTrackLevel" : {
                              "type" : "double",
                              "defaultValue" : 0.0,
                              "interp" : "linr"
                            },
                            "smoothCursorAcrossEditDuration" : 0
                          },
                          "effects" : [

                          ],
                          "start" : 2063268480000,
                          "duration" : 343039200000,
                          "mediaStart" : 3138932160000,
                          "mediaDuration" : 343039200000,
                          "scalar" : 1,
                          "metadata" : {
                            "AutoAppliedSmartFocus" : "False",
                            "audiateLinkedSession" : "",
                            "clipSpeedAttribute" : { "type": "bool", "value" : false},
                            "colorAttribute" : { "type": "color", "value" : [ 0, 0, 0, 0]},
                            "default-height" : { "type": "double", "value" : 1036.8},
                            "default-translation0" : { "type": "double", "value" : 0.0},
                            "default-translation1" : { "type": "double", "value" : -194.4},
                            "default-translation2" : { "type": "double", "value" : 0.0},
                            "default-width" : { "type": "double", "value" : 1932.67572815534}
                          },
                          "animationTracks" : {

                          }
                        }
                    ],
                    "effects" : [
                        {
                          "effectName" : "CursorColor",
                          "bypassed" : false,
                          "category" : "categoryCursorEffects",
                          "parameters" : {
                            "intensity" : 1.0,
                            "desaturation" : 0.0,
                            "colorLumaCutoff" : 1.0,
                            "color-alpha" : 1.0,
                            "color-red" : 1.0,
                            "color-green" : 0.8980392157,
                            "color-blue" : 0.1215686275,
                            "secondColor-red" : 0.0,
                            "secondColor-green" : 0.0,
                            "secondColor-blue" : 0.0,
                            "secondColor-alpha" : 1.0,
                            "secondColorLumaCutoff" : 0.0,
                            "channel" : 0,
                            "shadowRampStart" : 0.0,
                            "shadowRampEnd" : 0.0,
                            "highlightRampStart" : 1.0,
                            "highlightRampEnd" : 1.0
                          }
                        },
                        {
                          "effectName" : "CursorShadow",
                          "bypassed" : false,
                          "category" : "categoryCursorEffects",
                          "parameters" : {
                            "angle" : 3.92699081698724,
                            "enabled" : 1,
                            "offset" : 5.0,
                            "blur" : 2.0,
                            "opacity" : 0.25,
                            "color-red" : 0.0,
                            "color-green" : 0.0,
                            "color-blue" : 0.0,
                            "color-alpha" : 1.0
                          }
                        },
                        {
                          "effectName" : "CursorHilight",
                          "bypassed" : false,
                          "category" : "categoryCursorEffects",
                          "parameters" : {
                            "radius" : 50.0,
                            "color-red" : 1.0,
                            "color-green" : 1.0,
                            "color-blue" : 0.0,
                            "color-alpha" : 0.75,
                            "blur" : 0.1
                          }
                        }
                    ],
                    "start" : 106921920000,
                    "duration" : 1764000000,
                    "mediaStart" : 978526080000,
                    "mediaDuration" : 26412960000,
                    "scalar" : "75/1123",
                    "metadata" : {
                      "AutoAppliedSmartFocus" : "False",
                      "audiateLinkedSession" : "",
                      "clipSpeedAttribute" : { "type": "bool", "value" : true},
                      "colorAttribute" : { "type": "color", "value" : [ 0, 0, 0, 0]},
                      "default-anchor0" : { "type": "double", "value" : 0.0},
                      "default-anchor1" : { "type": "double", "value" : 0.0},
                      "default-anchor2" : { "type": "double", "value" : 0.0},
                      "default-height" : { "type": "double", "value" : 1036.8},
                      "default-rotation0" : { "type": "double", "value" : 0.0},
                      "default-rotation1" : { "type": "double", "value" : 0.0},
                      "default-rotation2" : { "type": "double", "value" : 0.0},
                      "default-scale0" : { "type": "double", "value" : 0.503300970873786},
                      "default-scale1" : { "type": "double", "value" : 0.503300970873786},
                      "default-scale2" : { "type": "double", "value" : 1.0},
                      "default-shear0" : { "type": "double", "value" : 0.0},
                      "default-shear1" : { "type": "double", "value" : 0.0},
                      "default-shear2" : { "type": "double", "value" : 0.0},
                      "default-translation0" : { "type": "double", "value" : 0.0},
                      "default-translation1" : { "type": "double", "value" : -194.4},
                      "default-translation2" : { "type": "double", "value" : 0.0},
                      "default-width" : { "type": "double", "value" : 1932.67572815534}
                    },
                    "animationTracks" : {
                      "visual" : [
                        {
                          "endTime" : 946350720000,
                          "duration" : 705600000,
                          "range" : [ 945645120000, 705600000]
                        },
                        {
                          "endTime" : 946938720000,
                          "duration" : 588000000,
                          "range" : [ 946350720000, 588000000]
                        },
                        {
                          "endTime" : 950208000000,
                          "duration" : 705600000,
                          "range" : [ 949502400000, 705600000]
                        },
                        {
                          "endTime" : 951572160000,
                          "duration" : 705600000,
                          "range" : [ 950866560000, 705600000]
                        }
                      ]
                    }
                  },
                  {
                    "id" : 479,
                    "_type" : "StitchedMedia",
                    "minMediaStart" : 0,
                    "attributes" : {
                      "ident" : "Rec 4-22-2025-8-51-30-PM",
                      "gain" : 1.0,
                      "mixToMono" : false,
                      "loudnessNormalization" : true,
                      "sourceFileOffset" : 0
                    },
                    "parameters" : {
                      "translation0" : {
                        "type" : "double",
                        "defaultValue" : 6.33786407766917,
                        "keyframes" : [
                          {
                            "endTime" : 946350720000,
                            "time" : 945645120000,
                            "value" : 1529.54135844084,
                            "duration" : 705600000
                          },
                          {
                            "endTime" : 946938720000,
                            "time" : 946350720000,
                            "value" : 2.8421709430404e-14,
                            "duration" : 588000000
                          },
                          {
                            "endTime" : 950208000000,
                            "time" : 949502400000,
                            "value" : 1769.53733046201,
                            "duration" : 705600000
                          },
                          {
                            "endTime" : 951572160000,
                            "time" : 950866560000,
                            "value" : 0.0,
                            "duration" : 705600000
                          }
                        ]
                      },
                      "translation1" : {
                        "type" : "double",
                        "defaultValue" : -2.8421709430404e-14,
                        "keyframes" : [
                          {
                            "endTime" : 946350720000,
                            "time" : 945645120000,
                            "value" : 1155.43533032585,
                            "duration" : 705600000
                          },
                          {
                            "endTime" : 946938720000,
                            "time" : 946350720000,
                            "value" : 4.2632564145606e-14,
                            "duration" : 588000000
                          },
                          {
                            "endTime" : 950208000000,
                            "time" : 949502400000,
                            "value" : 1222.37766654561,
                            "duration" : 705600000
                          },
                          {
                            "endTime" : 951572160000,
                            "time" : 950866560000,
                            "value" : -5.6843418860808e-14,
                            "duration" : 705600000
                          }
                        ]
                      },
                      "scale0" : {
                        "type" : "double",
                        "defaultValue" : 0.503300970873786,
                        "keyframes" : [
                          {
                            "endTime" : 946350720000,
                            "time" : 945645120000,
                            "value" : 2.23861295044012,
                            "duration" : 705600000
                          },
                          {
                            "endTime" : 946938720000,
                            "time" : 946350720000,
                            "value" : 0.5,
                            "duration" : 588000000
                          },
                          {
                            "endTime" : 950208000000,
                            "time" : 949502400000,
                            "value" : 2.05000008547071,
                            "duration" : 705600000
                          },
                          {
                            "endTime" : 951572160000,
                            "time" : 950866560000,
                            "value" : 0.5,
                            "duration" : 705600000
                          }
                        ]
                      },
                      "scale1" : {
                        "type" : "double",
                        "defaultValue" : 0.503300970873786,
                        "keyframes" : [
                          {
                            "endTime" : 946350720000,
                            "time" : 945645120000,
                            "value" : 2.23861378180461,
                            "duration" : 705600000
                          },
                          {
                            "endTime" : 946938720000,
                            "time" : 946350720000,
                            "value" : 0.5,
                            "duration" : 588000000
                          },
                          {
                            "endTime" : 950208000000,
                            "time" : 949502400000,
                            "value" : 2.05000025406246,
                            "duration" : 705600000
                          },
                          {
                            "endTime" : 951572160000,
                            "time" : 950866560000,
                            "value" : 0.500000041119937,
                            "duration" : 705600000
                          }
                        ]
                      },
                      "scale2" : {
                        "type" : "double",
                        "defaultValue" : 1.0,
                        "keyframes" : [
                          {
                            "endTime" : 946938720000,
                            "time" : 946350720000,
                            "value" : 0.5,
                            "duration" : 588000000
                          },
                          {
                            "endTime" : 951572160000,
                            "time" : 950866560000,
                            "value" : 0.121951214427679,
                            "duration" : 705600000
                          }
                        ]
                      },
                      "geometryCrop0" : 0.0,
                      "geometryCrop1" : 0.0,
                      "geometryCrop2" : 0.0,
                      "geometryCrop3" : 0.0,
                      "toc" : {
                        "type" : "string",
                        "keyframes" : [
                          {
                            "endTime" : 1005527040000,
                            "time" : 1005527040000,
                            "value" : "Click restart",
                            "duration" : 0,
                            "metadata" : {
                              "markerIdentifier" : "1E2AA01B-2FB3-4B61-BD67-6D8235BAD854"
                            }
                          },
                          {
                            "endTime" : 1007926080000,
                            "time" : 1007926080000,
                            "value" : "Click Finish",
                            "duration" : 0,
                            "metadata" : {
                              "markerIdentifier" : "103F56F6-6C2E-4E50-82C4-1AD568FA547E"
                            }
                          }
                        ]
                      },
                      "cursorOpacity" : 1.0,
                      "cursorTrackLevel" : 0.0,
                      "cursorScale" : 5.0,
                      "smoothCursorAcrossEditDuration" : 0
                    },
                    "medias" : [
                        {
                          "id" : 480,
                          "_type" : "ScreenVMFile",
                          "src" : 2,
                          "trackNumber" : 0,
                          "attributes" : {
                            "ident" : "Rec 4-22-2025-8-51-30-PM"
                          },
                          "parameters" : {
                            "geometryCrop0" : {
                              "type" : "double",
                              "defaultValue" : 0.0,
                              "interp" : "eioe"
                            },
                            "geometryCrop1" : {
                              "type" : "double",
                              "defaultValue" : 0.0,
                              "interp" : "eioe"
                            },
                            "geometryCrop2" : {
                              "type" : "double",
                              "defaultValue" : 0.0,
                              "interp" : "eioe"
                            },
                            "geometryCrop3" : {
                              "type" : "double",
                              "defaultValue" : 0.0,
                              "interp" : "eioe"
                            },
                            "cursorScale" : {
                              "type" : "double",
                              "defaultValue" : 0.0,
                              "interp" : "linr"
                            },
                            "cursorOpacity" : {
                              "type" : "double",
                              "defaultValue" : 0.0,
                              "interp" : "linr"
                            },
                            "cursorTrackLevel" : {
                              "type" : "double",
                              "defaultValue" : 0.0,
                              "interp" : "linr"
                            },
                            "smoothCursorAcrossEditDuration" : 0
                          },
                          "effects" : [

                          ],
                          "start" : 0,
                          "duration" : 50991360000,
                          "mediaStart" : 0,
                          "mediaDuration" : 50991360000,
                          "scalar" : 1,
                          "metadata" : {
                            "AutoAppliedSmartFocus" : "False",
                            "audiateLinkedSession" : "",
                            "clipSpeedAttribute" : { "type": "bool", "value" : false},
                            "colorAttribute" : { "type": "color", "value" : [ 0, 0, 0, 0]},
                            "default-height" : { "type": "double", "value" : 1036.8},
                            "default-translation0" : { "type": "double", "value" : 0.0},
                            "default-translation1" : { "type": "double", "value" : -194.4},
                            "default-translation2" : { "type": "double", "value" : 0.0},
                            "default-width" : { "type": "double", "value" : 1932.67572815534}
                          },
                          "animationTracks" : {

                          }
                        },
                        {
                          "id" : 481,
                          "_type" : "ScreenVMFile",
                          "src" : 2,
                          "trackNumber" : 0,
                          "attributes" : {
                            "ident" : "Rec 4-22-2025-8-51-30-PM"
                          },
                          "parameters" : {
                            "geometryCrop0" : {
                              "type" : "double",
                              "defaultValue" : 0.0,
                              "interp" : "eioe"
                            },
                            "geometryCrop1" : {
                              "type" : "double",
                              "defaultValue" : 0.0,
                              "interp" : "eioe"
                            },
                            "geometryCrop2" : {
                              "type" : "double",
                              "defaultValue" : 0.0,
                              "interp" : "eioe"
                            },
                            "geometryCrop3" : {
                              "type" : "double",
                              "defaultValue" : 0.0,
                              "interp" : "eioe"
                            },
                            "cursorScale" : {
                              "type" : "double",
                              "defaultValue" : 0.0,
                              "interp" : "linr"
                            },
                            "cursorOpacity" : {
                              "type" : "double",
                              "defaultValue" : 0.0,
                              "interp" : "linr"
                            },
                            "cursorTrackLevel" : {
                              "type" : "double",
                              "defaultValue" : 0.0,
                              "interp" : "linr"
                            },
                            "smoothCursorAcrossEditDuration" : 0
                          },
                          "effects" : [

                          ],
                          "start" : 50991360000,
                          "duration" : 46663680000,
                          "mediaStart" : 66467520000,
                          "mediaDuration" : 46663680000,
                          "scalar" : 1,
                          "metadata" : {
                            "AutoAppliedSmartFocus" : "False",
                            "audiateLinkedSession" : "",
                            "clipSpeedAttribute" : { "type": "bool", "value" : false},
                            "colorAttribute" : { "type": "color", "value" : [ 0, 0, 0, 0]},
                            "default-height" : { "type": "double", "value" : 1036.8},
                            "default-translation0" : { "type": "double", "value" : 0.0},
                            "default-translation1" : { "type": "double", "value" : -194.4},
                            "default-translation2" : { "type": "double", "value" : 0.0},
                            "default-width" : { "type": "double", "value" : 1932.67572815534}
                          },
                          "animationTracks" : {

                          }
                        },
                        {
                          "id" : 482,
                          "_type" : "ScreenVMFile",
                          "src" : 2,
                          "trackNumber" : 0,
                          "attributes" : {
                            "ident" : "Rec 4-22-2025-8-51-30-PM"
                          },
                          "parameters" : {
                            "geometryCrop0" : {
                              "type" : "double",
                              "defaultValue" : 0.0,
                              "interp" : "eioe"
                            },
                            "geometryCrop1" : {
                              "type" : "double",
                              "defaultValue" : 0.0,
                              "interp" : "eioe"
                            },
                            "geometryCrop2" : {
                              "type" : "double",
                              "defaultValue" : 0.0,
                              "interp" : "eioe"
                            },
                            "geometryCrop3" : {
                              "type" : "double",
                              "defaultValue" : 0.0,
                              "interp" : "eioe"
                            },
                            "cursorScale" : {
                              "type" : "double",
                              "defaultValue" : 0.0,
                              "interp" : "linr"
                            },
                            "cursorOpacity" : {
                              "type" : "double",
                              "defaultValue" : 0.0,
                              "interp" : "linr"
                            },
                            "cursorTrackLevel" : {
                              "type" : "double",
                              "defaultValue" : 0.0,
                              "interp" : "linr"
                            },
                            "smoothCursorAcrossEditDuration" : 0
                          },
                          "effects" : [

                          ],
                          "start" : 97655040000,
                          "duration" : 352282560000,
                          "mediaStart" : 149352000000,
                          "mediaDuration" : 352282560000,
                          "scalar" : 1,
                          "metadata" : {
                            "AutoAppliedSmartFocus" : "False",
                            "audiateLinkedSession" : "",
                            "clipSpeedAttribute" : { "type": "bool", "value" : false},
                            "colorAttribute" : { "type": "color", "value" : [ 0, 0, 0, 0]},
                            "default-height" : { "type": "double", "value" : 1036.8},
                            "default-translation0" : { "type": "double", "value" : 0.0},
                            "default-translation1" : { "type": "double", "value" : -194.4},
                            "default-translation2" : { "type": "double", "value" : 0.0},
                            "default-width" : { "type": "double", "value" : 1932.67572815534}
                          },
                          "animationTracks" : {

                          }
                        },
                        {
                          "id" : 483,
                          "_type" : "ScreenVMFile",
                          "src" : 2,
                          "trackNumber" : 0,
                          "attributes" : {
                            "ident" : "Rec 4-22-2025-8-51-30-PM"
                          },
                          "parameters" : {
                            "geometryCrop0" : {
                              "type" : "double",
                              "defaultValue" : 0.0,
                              "interp" : "eioe"
                            },
                            "geometryCrop1" : {
                              "type" : "double",
                              "defaultValue" : 0.0,
                              "interp" : "eioe"
                            },
                            "geometryCrop2" : {
                              "type" : "double",
                              "defaultValue" : 0.0,
                              "interp" : "eioe"
                            },
                            "geometryCrop3" : {
                              "type" : "double",
                              "defaultValue" : 0.0,
                              "interp" : "eioe"
                            },
                            "cursorScale" : {
                              "type" : "double",
                              "defaultValue" : 0.0,
                              "interp" : "linr"
                            },
                            "cursorOpacity" : {
                              "type" : "double",
                              "defaultValue" : 0.0,
                              "interp" : "linr"
                            },
                            "cursorTrackLevel" : {
                              "type" : "double",
                              "defaultValue" : 0.0,
                              "interp" : "linr"
                            },
                            "smoothCursorAcrossEditDuration" : 0
                          },
                          "effects" : [

                          ],
                          "start" : 449937600000,
                          "duration" : 8961120000,
                          "mediaStart" : 509843040000,
                          "mediaDuration" : 8961120000,
                          "scalar" : 1,
                          "metadata" : {
                            "AutoAppliedSmartFocus" : "False",
                            "audiateLinkedSession" : "",
                            "clipSpeedAttribute" : { "type": "bool", "value" : false},
                            "colorAttribute" : { "type": "color", "value" : [ 0, 0, 0, 0]},
                            "default-height" : { "type": "double", "value" : 1036.8},
                            "default-translation0" : { "type": "double", "value" : 0.0},
                            "default-translation1" : { "type": "double", "value" : -194.4},
                            "default-translation2" : { "type": "double", "value" : 0.0},
                            "default-width" : { "type": "double", "value" : 1932.67572815534}
                          },
                          "animationTracks" : {

                          }
                        },
                        {
                          "id" : 484,
                          "_type" : "ScreenVMFile",
                          "src" : 2,
                          "trackNumber" : 0,
                          "attributes" : {
                            "ident" : "Rec 4-22-2025-8-51-30-PM"
                          },
                          "parameters" : {
                            "geometryCrop0" : {
                              "type" : "double",
                              "defaultValue" : 0.0,
                              "interp" : "eioe"
                            },
                            "geometryCrop1" : {
                              "type" : "double",
                              "defaultValue" : 0.0,
                              "interp" : "eioe"
                            },
                            "geometryCrop2" : {
                              "type" : "double",
                              "defaultValue" : 0.0,
                              "interp" : "eioe"
                            },
                            "geometryCrop3" : {
                              "type" : "double",
                              "defaultValue" : 0.0,
                              "interp" : "eioe"
                            },
                            "cursorScale" : {
                              "type" : "double",
                              "defaultValue" : 0.0,
                              "interp" : "linr"
                            },
                            "cursorOpacity" : {
                              "type" : "double",
                              "defaultValue" : 0.0,
                              "interp" : "linr"
                            },
                            "cursorTrackLevel" : {
                              "type" : "double",
                              "defaultValue" : 0.0,
                              "interp" : "linr"
                            },
                            "smoothCursorAcrossEditDuration" : 0
                          },
                          "effects" : [

                          ],
                          "start" : 458898720000,
                          "duration" : 472399200000,
                          "mediaStart" : 1416350880000,
                          "mediaDuration" : 472399200000,
                          "scalar" : 1,
                          "metadata" : {
                            "AutoAppliedSmartFocus" : "False",
                            "audiateLinkedSession" : "",
                            "clipSpeedAttribute" : { "type": "bool", "value" : false},
                            "colorAttribute" : { "type": "color", "value" : [ 0, 0, 0, 0]},
                            "default-height" : { "type": "double", "value" : 1036.8},
                            "default-translation0" : { "type": "double", "value" : 0.0},
                            "default-translation1" : { "type": "double", "value" : -194.4},
                            "default-translation2" : { "type": "double", "value" : 0.0},
                            "default-width" : { "type": "double", "value" : 1932.67572815534}
                          },
                          "animationTracks" : {

                          }
                        },
                        {
                          "id" : 485,
                          "_type" : "ScreenVMFile",
                          "src" : 2,
                          "trackNumber" : 0,
                          "attributes" : {
                            "ident" : "Rec 4-22-2025-8-51-30-PM"
                          },
                          "parameters" : {
                            "geometryCrop0" : {
                              "type" : "double",
                              "defaultValue" : 0.0,
                              "interp" : "eioe"
                            },
                            "geometryCrop1" : {
                              "type" : "double",
                              "defaultValue" : 0.0,
                              "interp" : "eioe"
                            },
                            "geometryCrop2" : {
                              "type" : "double",
                              "defaultValue" : 0.0,
                              "interp" : "eioe"
                            },
                            "geometryCrop3" : {
                              "type" : "double",
                              "defaultValue" : 0.0,
                              "interp" : "eioe"
                            },
                            "cursorScale" : {
                              "type" : "double",
                              "defaultValue" : 0.0,
                              "interp" : "linr"
                            },
                            "cursorOpacity" : {
                              "type" : "double",
                              "defaultValue" : 0.0,
                              "interp" : "linr"
                            },
                            "cursorTrackLevel" : {
                              "type" : "double",
                              "defaultValue" : 0.0,
                              "interp" : "linr"
                            },
                            "smoothCursorAcrossEditDuration" : 0
                          },
                          "effects" : [

                          ],
                          "start" : 931297920000,
                          "duration" : 15781920000,
                          "mediaStart" : 1888750080000,
                          "mediaDuration" : 15781920000,
                          "scalar" : 1,
                          "metadata" : {
                            "AutoAppliedSmartFocus" : "False",
                            "audiateLinkedSession" : "",
                            "clipSpeedAttribute" : { "type": "bool", "value" : false},
                            "colorAttribute" : { "type": "color", "value" : [ 0, 0, 0, 0]},
                            "default-height" : { "type": "double", "value" : 1036.8},
                            "default-translation0" : { "type": "double", "value" : 0.0},
                            "default-translation1" : { "type": "double", "value" : -194.4},
                            "default-translation2" : { "type": "double", "value" : 0.0},
                            "default-width" : { "type": "double", "value" : 1932.67572815534}
                          },
                          "animationTracks" : {

                          }
                        },
                        {
                          "id" : 486,
                          "_type" : "ScreenVMFile",
                          "src" : 2,
                          "trackNumber" : 0,
                          "attributes" : {
                            "ident" : "Rec 4-22-2025-8-51-30-PM"
                          },
                          "parameters" : {
                            "geometryCrop0" : {
                              "type" : "double",
                              "defaultValue" : 0.0,
                              "interp" : "eioe"
                            },
                            "geometryCrop1" : {
                              "type" : "double",
                              "defaultValue" : 0.0,
                              "interp" : "eioe"
                            },
                            "geometryCrop2" : {
                              "type" : "double",
                              "defaultValue" : 0.0,
                              "interp" : "eioe"
                            },
                            "geometryCrop3" : {
                              "type" : "double",
                              "defaultValue" : 0.0,
                              "interp" : "eioe"
                            },
                            "cursorScale" : {
                              "type" : "double",
                              "defaultValue" : 0.0,
                              "interp" : "linr"
                            },
                            "cursorOpacity" : {
                              "type" : "double",
                              "defaultValue" : 0.0,
                              "interp" : "linr"
                            },
                            "cursorTrackLevel" : {
                              "type" : "double",
                              "defaultValue" : 0.0,
                              "interp" : "linr"
                            },
                            "smoothCursorAcrossEditDuration" : 0
                          },
                          "effects" : [

                          ],
                          "start" : 947079840000,
                          "duration" : 7502880000,
                          "mediaStart" : 1904532000000,
                          "mediaDuration" : 7502880000,
                          "scalar" : 1,
                          "metadata" : {
                            "AutoAppliedSmartFocus" : "False",
                            "audiateLinkedSession" : "",
                            "clipSpeedAttribute" : { "type": "bool", "value" : false},
                            "colorAttribute" : { "type": "color", "value" : [ 0, 0, 0, 0]},
                            "default-height" : { "type": "double", "value" : 1036.8},
                            "default-translation0" : { "type": "double", "value" : 0.0},
                            "default-translation1" : { "type": "double", "value" : -194.4},
                            "default-translation2" : { "type": "double", "value" : 0.0},
                            "default-width" : { "type": "double", "value" : 1932.67572815534}
                          },
                          "animationTracks" : {

                          }
                        },
                        {
                          "id" : 487,
                          "_type" : "ScreenVMFile",
                          "src" : 2,
                          "trackNumber" : 0,
                          "attributes" : {
                            "ident" : "Rec 4-22-2025-8-51-30-PM"
                          },
                          "parameters" : {
                            "geometryCrop0" : {
                              "type" : "double",
                              "defaultValue" : 0.0,
                              "interp" : "eioe"
                            },
                            "geometryCrop1" : {
                              "type" : "double",
                              "defaultValue" : 0.0,
                              "interp" : "eioe"
                            },
                            "geometryCrop2" : {
                              "type" : "double",
                              "defaultValue" : 0.0,
                              "interp" : "eioe"
                            },
                            "geometryCrop3" : {
                              "type" : "double",
                              "defaultValue" : 0.0,
                              "interp" : "eioe"
                            },
                            "cursorScale" : {
                              "type" : "double",
                              "defaultValue" : 0.0,
                              "interp" : "linr"
                            },
                            "cursorOpacity" : {
                              "type" : "double",
                              "defaultValue" : 0.0,
                              "interp" : "linr"
                            },
                            "cursorTrackLevel" : {
                              "type" : "double",
                              "defaultValue" : 0.0,
                              "interp" : "linr"
                            },
                            "smoothCursorAcrossEditDuration" : 0
                          },
                          "effects" : [

                          ],
                          "start" : 954582720000,
                          "duration" : 13053600000,
                          "mediaStart" : 1912034880000,
                          "mediaDuration" : 13053600000,
                          "scalar" : 1,
                          "metadata" : {
                            "AutoAppliedSmartFocus" : "False",
                            "audiateLinkedSession" : "",
                            "clipSpeedAttribute" : { "type": "bool", "value" : false},
                            "colorAttribute" : { "type": "color", "value" : [ 0, 0, 0, 0]},
                            "default-height" : { "type": "double", "value" : 1036.8},
                            "default-translation0" : { "type": "double", "value" : 0.0},
                            "default-translation1" : { "type": "double", "value" : -194.4},
                            "default-translation2" : { "type": "double", "value" : 0.0},
                            "default-width" : { "type": "double", "value" : 1932.67572815534}
                          },
                          "animationTracks" : {

                          }
                        },
                        {
                          "id" : 488,
                          "_type" : "ScreenVMFile",
                          "src" : 2,
                          "trackNumber" : 0,
                          "attributes" : {
                            "ident" : "Rec 4-22-2025-8-51-30-PM"
                          },
                          "parameters" : {
                            "geometryCrop0" : {
                              "type" : "double",
                              "defaultValue" : 0.0,
                              "interp" : "eioe"
                            },
                            "geometryCrop1" : {
                              "type" : "double",
                              "defaultValue" : 0.0,
                              "interp" : "eioe"
                            },
                            "geometryCrop2" : {
                              "type" : "double",
                              "defaultValue" : 0.0,
                              "interp" : "eioe"
                            },
                            "geometryCrop3" : {
                              "type" : "double",
                              "defaultValue" : 0.0,
                              "interp" : "eioe"
                            },
                            "cursorScale" : {
                              "type" : "double",
                              "defaultValue" : 0.0,
                              "interp" : "linr"
                            },
                            "cursorOpacity" : {
                              "type" : "double",
                              "defaultValue" : 0.0,
                              "interp" : "linr"
                            },
                            "cursorTrackLevel" : {
                              "type" : "double",
                              "defaultValue" : 0.0,
                              "interp" : "linr"
                            },
                            "smoothCursorAcrossEditDuration" : 0
                          },
                          "effects" : [

                          ],
                          "start" : 967636320000,
                          "duration" : 7691040000,
                          "mediaStart" : 1925088480000,
                          "mediaDuration" : 7691040000,
                          "scalar" : 1,
                          "metadata" : {
                            "AutoAppliedSmartFocus" : "False",
                            "audiateLinkedSession" : "",
                            "clipSpeedAttribute" : { "type": "bool", "value" : false},
                            "colorAttribute" : { "type": "color", "value" : [ 0, 0, 0, 0]},
                            "default-height" : { "type": "double", "value" : 1036.8},
                            "default-translation0" : { "type": "double", "value" : 0.0},
                            "default-translation1" : { "type": "double", "value" : -194.4},
                            "default-translation2" : { "type": "double", "value" : 0.0},
                            "default-width" : { "type": "double", "value" : 1932.67572815534}
                          },
                          "animationTracks" : {

                          }
                        },
                        {
                          "id" : 489,
                          "_type" : "ScreenVMFile",
                          "src" : 2,
                          "trackNumber" : 0,
                          "attributes" : {
                            "ident" : "Rec 4-22-2025-8-51-30-PM"
                          },
                          "parameters" : {
                            "geometryCrop0" : {
                              "type" : "double",
                              "defaultValue" : 0.0,
                              "interp" : "eioe"
                            },
                            "geometryCrop1" : {
                              "type" : "double",
                              "defaultValue" : 0.0,
                              "interp" : "eioe"
                            },
                            "geometryCrop2" : {
                              "type" : "double",
                              "defaultValue" : 0.0,
                              "interp" : "eioe"
                            },
                            "geometryCrop3" : {
                              "type" : "double",
                              "defaultValue" : 0.0,
                              "interp" : "eioe"
                            },
                            "cursorScale" : {
                              "type" : "double",
                              "defaultValue" : 0.0,
                              "interp" : "linr"
                            },
                            "cursorOpacity" : {
                              "type" : "double",
                              "defaultValue" : 0.0,
                              "interp" : "linr"
                            },
                            "cursorTrackLevel" : {
                              "type" : "double",
                              "defaultValue" : 0.0,
                              "interp" : "linr"
                            },
                            "smoothCursorAcrossEditDuration" : 0
                          },
                          "effects" : [

                          ],
                          "start" : 975327360000,
                          "duration" : 9807840000,
                          "mediaStart" : 1932779520000,
                          "mediaDuration" : 9807840000,
                          "scalar" : 1,
                          "metadata" : {
                            "AutoAppliedSmartFocus" : "False",
                            "audiateLinkedSession" : "",
                            "clipSpeedAttribute" : { "type": "bool", "value" : false},
                            "colorAttribute" : { "type": "color", "value" : [ 0, 0, 0, 0]},
                            "default-height" : { "type": "double", "value" : 1036.8},
                            "default-translation0" : { "type": "double", "value" : 0.0},
                            "default-translation1" : { "type": "double", "value" : -194.4},
                            "default-translation2" : { "type": "double", "value" : 0.0},
                            "default-width" : { "type": "double", "value" : 1932.67572815534}
                          },
                          "animationTracks" : {

                          }
                        },
                        {
                          "id" : 490,
                          "_type" : "ScreenVMFile",
                          "src" : 2,
                          "trackNumber" : 0,
                          "attributes" : {
                            "ident" : "Rec 4-22-2025-8-51-30-PM"
                          },
                          "parameters" : {
                            "geometryCrop0" : {
                              "type" : "double",
                              "defaultValue" : 0.0,
                              "interp" : "eioe"
                            },
                            "geometryCrop1" : {
                              "type" : "double",
                              "defaultValue" : 0.0,
                              "interp" : "eioe"
                            },
                            "geometryCrop2" : {
                              "type" : "double",
                              "defaultValue" : 0.0,
                              "interp" : "eioe"
                            },
                            "geometryCrop3" : {
                              "type" : "double",
                              "defaultValue" : 0.0,
                              "interp" : "eioe"
                            },
                            "cursorScale" : {
                              "type" : "double",
                              "defaultValue" : 0.0,
                              "interp" : "linr"
                            },
                            "cursorOpacity" : {
                              "type" : "double",
                              "defaultValue" : 0.0,
                              "interp" : "linr"
                            },
                            "cursorTrackLevel" : {
                              "type" : "double",
                              "defaultValue" : 0.0,
                              "interp" : "linr"
                            },
                            "smoothCursorAcrossEditDuration" : 0
                          },
                          "effects" : [

                          ],
                          "start" : 985135200000,
                          "duration" : 20391840000,
                          "mediaStart" : 1942587360000,
                          "mediaDuration" : 20391840000,
                          "scalar" : 1,
                          "metadata" : {
                            "AutoAppliedSmartFocus" : "False",
                            "audiateLinkedSession" : "",
                            "clipSpeedAttribute" : { "type": "bool", "value" : false},
                            "colorAttribute" : { "type": "color", "value" : [ 0, 0, 0, 0]},
                            "default-height" : { "type": "double", "value" : 1036.8},
                            "default-translation0" : { "type": "double", "value" : 0.0},
                            "default-translation1" : { "type": "double", "value" : -194.4},
                            "default-translation2" : { "type": "double", "value" : 0.0},
                            "default-width" : { "type": "double", "value" : 1932.67572815534}
                          },
                          "animationTracks" : {

                          }
                        },
                        {
                          "id" : 491,
                          "_type" : "ScreenVMFile",
                          "src" : 2,
                          "trackNumber" : 0,
                          "attributes" : {
                            "ident" : "Rec 4-22-2025-8-51-30-PM"
                          },
                          "parameters" : {
                            "geometryCrop0" : {
                              "type" : "double",
                              "defaultValue" : 0.0,
                              "interp" : "eioe"
                            },
                            "geometryCrop1" : {
                              "type" : "double",
                              "defaultValue" : 0.0,
                              "interp" : "eioe"
                            },
                            "geometryCrop2" : {
                              "type" : "double",
                              "defaultValue" : 0.0,
                              "interp" : "eioe"
                            },
                            "geometryCrop3" : {
                              "type" : "double",
                              "defaultValue" : 0.0,
                              "interp" : "eioe"
                            },
                            "cursorScale" : {
                              "type" : "double",
                              "defaultValue" : 0.0,
                              "interp" : "linr"
                            },
                            "cursorOpacity" : {
                              "type" : "double",
                              "defaultValue" : 0.0,
                              "interp" : "linr"
                            },
                            "cursorTrackLevel" : {
                              "type" : "double",
                              "defaultValue" : 0.0,
                              "interp" : "linr"
                            },
                            "smoothCursorAcrossEditDuration" : 0
                          },
                          "effects" : [

                          ],
                          "start" : 1005527040000,
                          "duration" : 8914080000,
                          "mediaStart" : 1962979200000,
                          "mediaDuration" : 8914080000,
                          "scalar" : 1,
                          "metadata" : {
                            "AutoAppliedSmartFocus" : "False",
                            "audiateLinkedSession" : "",
                            "clipSpeedAttribute" : { "type": "bool", "value" : false},
                            "colorAttribute" : { "type": "color", "value" : [ 0, 0, 0, 0]},
                            "default-height" : { "type": "double", "value" : 1036.8},
                            "default-translation0" : { "type": "double", "value" : 0.0},
                            "default-translation1" : { "type": "double", "value" : -194.4},
                            "default-translation2" : { "type": "double", "value" : 0.0},
                            "default-width" : { "type": "double", "value" : 1932.67572815534}
                          },
                          "animationTracks" : {

                          }
                        },
                        {
                          "id" : 492,
                          "_type" : "ScreenVMFile",
                          "src" : 2,
                          "trackNumber" : 0,
                          "attributes" : {
                            "ident" : "Rec 4-22-2025-8-51-30-PM"
                          },
                          "parameters" : {
                            "geometryCrop0" : {
                              "type" : "double",
                              "defaultValue" : 0.0,
                              "interp" : "eioe"
                            },
                            "geometryCrop1" : {
                              "type" : "double",
                              "defaultValue" : 0.0,
                              "interp" : "eioe"
                            },
                            "geometryCrop2" : {
                              "type" : "double",
                              "defaultValue" : 0.0,
                              "interp" : "eioe"
                            },
                            "geometryCrop3" : {
                              "type" : "double",
                              "defaultValue" : 0.0,
                              "interp" : "eioe"
                            },
                            "cursorScale" : {
                              "type" : "double",
                              "defaultValue" : 0.0,
                              "interp" : "linr"
                            },
                            "cursorOpacity" : {
                              "type" : "double",
                              "defaultValue" : 0.0,
                              "interp" : "linr"
                            },
                            "cursorTrackLevel" : {
                              "type" : "double",
                              "defaultValue" : 0.0,
                              "interp" : "linr"
                            },
                            "smoothCursorAcrossEditDuration" : 0
                          },
                          "effects" : [

                          ],
                          "start" : 1014441120000,
                          "duration" : 3034080000,
                          "mediaStart" : 1971893280000,
                          "mediaDuration" : 3034080000,
                          "scalar" : 1,
                          "metadata" : {
                            "AutoAppliedSmartFocus" : "False",
                            "audiateLinkedSession" : "",
                            "clipSpeedAttribute" : { "type": "bool", "value" : false},
                            "colorAttribute" : { "type": "color", "value" : [ 0, 0, 0, 0]},
                            "default-height" : { "type": "double", "value" : 1036.8},
                            "default-translation0" : { "type": "double", "value" : 0.0},
                            "default-translation1" : { "type": "double", "value" : -194.4},
                            "default-translation2" : { "type": "double", "value" : 0.0},
                            "default-width" : { "type": "double", "value" : 1932.67572815534}
                          },
                          "animationTracks" : {

                          }
                        },
                        {
                          "id" : 493,
                          "_type" : "ScreenVMFile",
                          "src" : 2,
                          "trackNumber" : 0,
                          "attributes" : {
                            "ident" : "Rec 4-22-2025-8-51-30-PM"
                          },
                          "parameters" : {
                            "geometryCrop0" : {
                              "type" : "double",
                              "defaultValue" : 0.0,
                              "interp" : "eioe"
                            },
                            "geometryCrop1" : {
                              "type" : "double",
                              "defaultValue" : 0.0,
                              "interp" : "eioe"
                            },
                            "geometryCrop2" : {
                              "type" : "double",
                              "defaultValue" : 0.0,
                              "interp" : "eioe"
                            },
                            "geometryCrop3" : {
                              "type" : "double",
                              "defaultValue" : 0.0,
                              "interp" : "eioe"
                            },
                            "cursorScale" : {
                              "type" : "double",
                              "defaultValue" : 0.0,
                              "interp" : "linr"
                            },
                            "cursorOpacity" : {
                              "type" : "double",
                              "defaultValue" : 0.0,
                              "interp" : "linr"
                            },
                            "cursorTrackLevel" : {
                              "type" : "double",
                              "defaultValue" : 0.0,
                              "interp" : "linr"
                            },
                            "smoothCursorAcrossEditDuration" : 0
                          },
                          "effects" : [

                          ],
                          "start" : 1017475200000,
                          "duration" : 22649760000,
                          "mediaStart" : 1974927360000,
                          "mediaDuration" : 22649760000,
                          "scalar" : 1,
                          "metadata" : {
                            "AutoAppliedSmartFocus" : "False",
                            "audiateLinkedSession" : "",
                            "clipSpeedAttribute" : { "type": "bool", "value" : false},
                            "colorAttribute" : { "type": "color", "value" : [ 0, 0, 0, 0]},
                            "default-height" : { "type": "double", "value" : 1036.8},
                            "default-translation0" : { "type": "double", "value" : 0.0},
                            "default-translation1" : { "type": "double", "value" : -194.4},
                            "default-translation2" : { "type": "double", "value" : 0.0},
                            "default-width" : { "type": "double", "value" : 1932.67572815534}
                          },
                          "animationTracks" : {

                          }
                        },
                        {
                          "id" : 494,
                          "_type" : "ScreenVMFile",
                          "src" : 2,
                          "trackNumber" : 0,
                          "attributes" : {
                            "ident" : "Rec 4-22-2025-8-51-30-PM"
                          },
                          "parameters" : {
                            "geometryCrop0" : {
                              "type" : "double",
                              "defaultValue" : 0.0,
                              "interp" : "eioe"
                            },
                            "geometryCrop1" : {
                              "type" : "double",
                              "defaultValue" : 0.0,
                              "interp" : "eioe"
                            },
                            "geometryCrop2" : {
                              "type" : "double",
                              "defaultValue" : 0.0,
                              "interp" : "eioe"
                            },
                            "geometryCrop3" : {
                              "type" : "double",
                              "defaultValue" : 0.0,
                              "interp" : "eioe"
                            },
                            "cursorScale" : {
                              "type" : "double",
                              "defaultValue" : 0.0,
                              "interp" : "linr"
                            },
                            "cursorOpacity" : {
                              "type" : "double",
                              "defaultValue" : 0.0,
                              "interp" : "linr"
                            },
                            "cursorTrackLevel" : {
                              "type" : "double",
                              "defaultValue" : 0.0,
                              "interp" : "linr"
                            },
                            "smoothCursorAcrossEditDuration" : 0
                          },
                          "effects" : [

                          ],
                          "start" : 1040124960000,
                          "duration" : 215419680000,
                          "mediaStart" : 2018886240000,
                          "mediaDuration" : 215419680000,
                          "scalar" : 1,
                          "metadata" : {
                            "AutoAppliedSmartFocus" : "False",
                            "audiateLinkedSession" : "",
                            "clipSpeedAttribute" : { "type": "bool", "value" : false},
                            "colorAttribute" : { "type": "color", "value" : [ 0, 0, 0, 0]},
                            "default-height" : { "type": "double", "value" : 1036.8},
                            "default-translation0" : { "type": "double", "value" : 0.0},
                            "default-translation1" : { "type": "double", "value" : -194.4},
                            "default-translation2" : { "type": "double", "value" : 0.0},
                            "default-width" : { "type": "double", "value" : 1932.67572815534}
                          },
                          "animationTracks" : {

                          }
                        },
                        {
                          "id" : 495,
                          "_type" : "ScreenVMFile",
                          "src" : 2,
                          "trackNumber" : 0,
                          "attributes" : {
                            "ident" : "Rec 4-22-2025-8-51-30-PM"
                          },
                          "parameters" : {
                            "geometryCrop0" : {
                              "type" : "double",
                              "defaultValue" : 0.0,
                              "interp" : "eioe"
                            },
                            "geometryCrop1" : {
                              "type" : "double",
                              "defaultValue" : 0.0,
                              "interp" : "eioe"
                            },
                            "geometryCrop2" : {
                              "type" : "double",
                              "defaultValue" : 0.0,
                              "interp" : "eioe"
                            },
                            "geometryCrop3" : {
                              "type" : "double",
                              "defaultValue" : 0.0,
                              "interp" : "eioe"
                            },
                            "cursorScale" : {
                              "type" : "double",
                              "defaultValue" : 0.0,
                              "interp" : "linr"
                            },
                            "cursorOpacity" : {
                              "type" : "double",
                              "defaultValue" : 0.0,
                              "interp" : "linr"
                            },
                            "cursorTrackLevel" : {
                              "type" : "double",
                              "defaultValue" : 0.0,
                              "interp" : "linr"
                            },
                            "smoothCursorAcrossEditDuration" : 0
                          },
                          "effects" : [

                          ],
                          "start" : 1255544640000,
                          "duration" : 786955680000,
                          "mediaStart" : 2257778880000,
                          "mediaDuration" : 786955680000,
                          "scalar" : 1,
                          "metadata" : {
                            "AutoAppliedSmartFocus" : "False",
                            "audiateLinkedSession" : "",
                            "clipSpeedAttribute" : { "type": "bool", "value" : false},
                            "colorAttribute" : { "type": "color", "value" : [ 0, 0, 0, 0]},
                            "default-height" : { "type": "double", "value" : 1036.8},
                            "default-translation0" : { "type": "double", "value" : 0.0},
                            "default-translation1" : { "type": "double", "value" : -194.4},
                            "default-translation2" : { "type": "double", "value" : 0.0},
                            "default-width" : { "type": "double", "value" : 1932.67572815534}
                          },
                          "animationTracks" : {

                          }
                        },
                        {
                          "id" : 496,
                          "_type" : "ScreenVMFile",
                          "src" : 2,
                          "trackNumber" : 0,
                          "attributes" : {
                            "ident" : "Rec 4-22-2025-8-51-30-PM"
                          },
                          "parameters" : {
                            "geometryCrop0" : {
                              "type" : "double",
                              "defaultValue" : 0.0,
                              "interp" : "eioe"
                            },
                            "geometryCrop1" : {
                              "type" : "double",
                              "defaultValue" : 0.0,
                              "interp" : "eioe"
                            },
                            "geometryCrop2" : {
                              "type" : "double",
                              "defaultValue" : 0.0,
                              "interp" : "eioe"
                            },
                            "geometryCrop3" : {
                              "type" : "double",
                              "defaultValue" : 0.0,
                              "interp" : "eioe"
                            },
                            "cursorScale" : {
                              "type" : "double",
                              "defaultValue" : 0.0,
                              "interp" : "linr"
                            },
                            "cursorOpacity" : {
                              "type" : "double",
                              "defaultValue" : 0.0,
                              "interp" : "linr"
                            },
                            "cursorTrackLevel" : {
                              "type" : "double",
                              "defaultValue" : 0.0,
                              "interp" : "linr"
                            },
                            "smoothCursorAcrossEditDuration" : 0
                          },
                          "effects" : [

                          ],
                          "start" : 2042500320000,
                          "duration" : 20768160000,
                          "mediaStart" : 3047580480000,
                          "mediaDuration" : 20768160000,
                          "scalar" : 1,
                          "metadata" : {
                            "AutoAppliedSmartFocus" : "False",
                            "audiateLinkedSession" : "",
                            "clipSpeedAttribute" : { "type": "bool", "value" : false},
                            "colorAttribute" : { "type": "color", "value" : [ 0, 0, 0, 0]},
                            "default-height" : { "type": "double", "value" : 1036.8},
                            "default-translation0" : { "type": "double", "value" : 0.0},
                            "default-translation1" : { "type": "double", "value" : -194.4},
                            "default-translation2" : { "type": "double", "value" : 0.0},
                            "default-width" : { "type": "double", "value" : 1932.67572815534}
                          },
                          "animationTracks" : {

                          }
                        },
                        {
                          "id" : 497,
                          "_type" : "ScreenVMFile",
                          "src" : 2,
                          "trackNumber" : 0,
                          "attributes" : {
                            "ident" : "Rec 4-22-2025-8-51-30-PM"
                          },
                          "parameters" : {
                            "geometryCrop0" : {
                              "type" : "double",
                              "defaultValue" : 0.0,
                              "interp" : "eioe"
                            },
                            "geometryCrop1" : {
                              "type" : "double",
                              "defaultValue" : 0.0,
                              "interp" : "eioe"
                            },
                            "geometryCrop2" : {
                              "type" : "double",
                              "defaultValue" : 0.0,
                              "interp" : "eioe"
                            },
                            "geometryCrop3" : {
                              "type" : "double",
                              "defaultValue" : 0.0,
                              "interp" : "eioe"
                            },
                            "cursorScale" : {
                              "type" : "double",
                              "defaultValue" : 0.0,
                              "interp" : "linr"
                            },
                            "cursorOpacity" : {
                              "type" : "double",
                              "defaultValue" : 0.0,
                              "interp" : "linr"
                            },
                            "cursorTrackLevel" : {
                              "type" : "double",
                              "defaultValue" : 0.0,
                              "interp" : "linr"
                            },
                            "smoothCursorAcrossEditDuration" : 0
                          },
                          "effects" : [

                          ],
                          "start" : 2063268480000,
                          "duration" : 343039200000,
                          "mediaStart" : 3138932160000,
                          "mediaDuration" : 343039200000,
                          "scalar" : 1,
                          "metadata" : {
                            "AutoAppliedSmartFocus" : "False",
                            "audiateLinkedSession" : "",
                            "clipSpeedAttribute" : { "type": "bool", "value" : false},
                            "colorAttribute" : { "type": "color", "value" : [ 0, 0, 0, 0]},
                            "default-height" : { "type": "double", "value" : 1036.8},
                            "default-translation0" : { "type": "double", "value" : 0.0},
                            "default-translation1" : { "type": "double", "value" : -194.4},
                            "default-translation2" : { "type": "double", "value" : 0.0},
                            "default-width" : { "type": "double", "value" : 1932.67572815534}
                          },
                          "animationTracks" : {

                          }
                        }
                    ],
                    "effects" : [
                        {
                          "effectName" : "CursorColor",
                          "bypassed" : false,
                          "category" : "categoryCursorEffects",
                          "parameters" : {
                            "intensity" : 1.0,
                            "desaturation" : 0.0,
                            "colorLumaCutoff" : 1.0,
                            "color-alpha" : 1.0,
                            "color-red" : 1.0,
                            "color-green" : 0.8980392157,
                            "color-blue" : 0.1215686275,
                            "secondColor-red" : 0.0,
                            "secondColor-green" : 0.0,
                            "secondColor-blue" : 0.0,
                            "secondColor-alpha" : 1.0,
                            "secondColorLumaCutoff" : 0.0,
                            "channel" : 0,
                            "shadowRampStart" : 0.0,
                            "shadowRampEnd" : 0.0,
                            "highlightRampStart" : 1.0,
                            "highlightRampEnd" : 1.0
                          }
                        },
                        {
                          "effectName" : "CursorShadow",
                          "bypassed" : false,
                          "category" : "categoryCursorEffects",
                          "parameters" : {
                            "angle" : 3.92699081698724,
                            "enabled" : 1,
                            "offset" : 5.0,
                            "blur" : 2.0,
                            "opacity" : 0.25,
                            "color-red" : 0.0,
                            "color-green" : 0.0,
                            "color-blue" : 0.0,
                            "color-alpha" : 1.0
                          }
                        },
                        {
                          "effectName" : "CursorHilight",
                          "bypassed" : false,
                          "category" : "categoryCursorEffects",
                          "parameters" : {
                            "radius" : 50.0,
                            "color-red" : 1.0,
                            "color-green" : 1.0,
                            "color-blue" : 0.0,
                            "color-alpha" : 0.75,
                            "blur" : 0.1
                          }
                        }
                    ],
                    "start" : 108685920000,
                    "duration" : 2540160000,
                    "mediaStart" : 1004939040000,
                    "mediaDuration" : "377848800000/37",
                    "scalar" : "94080000/378227027",
                    "metadata" : {
                      "AutoAppliedSmartFocus" : "False",
                      "audiateLinkedSession" : "",
                      "clipSpeedAttribute" : { "type": "bool", "value" : true},
                      "colorAttribute" : { "type": "color", "value" : [ 0, 0, 0, 0]},
                      "default-anchor0" : { "type": "double", "value" : 0.0},
                      "default-anchor1" : { "type": "double", "value" : 0.0},
                      "default-anchor2" : { "type": "double", "value" : 0.0},
                      "default-height" : { "type": "double", "value" : 1036.8},
                      "default-rotation0" : { "type": "double", "value" : 0.0},
                      "default-rotation1" : { "type": "double", "value" : 0.0},
                      "default-rotation2" : { "type": "double", "value" : 0.0},
                      "default-scale0" : { "type": "double", "value" : 0.503300970873786},
                      "default-scale1" : { "type": "double", "value" : 0.503300970873786},
                      "default-scale2" : { "type": "double", "value" : 1.0},
                      "default-shear0" : { "type": "double", "value" : 0.0},
                      "default-shear1" : { "type": "double", "value" : 0.0},
                      "default-shear2" : { "type": "double", "value" : 0.0},
                      "default-translation0" : { "type": "double", "value" : 0.0},
                      "default-translation1" : { "type": "double", "value" : -194.4},
                      "default-translation2" : { "type": "double", "value" : 0.0},
                      "default-width" : { "type": "double", "value" : 1932.67572815534}
                    },
                    "animationTracks" : {
                      "visual" : [
                        {
                          "endTime" : 946350720000,
                          "duration" : 705600000,
                          "range" : [ 945645120000, 705600000]
                        },
                        {
                          "endTime" : 946938720000,
                          "duration" : 588000000,
                          "range" : [ 946350720000, 588000000]
                        },
                        {
                          "endTime" : 950208000000,
                          "duration" : 705600000,
                          "range" : [ 949502400000, 705600000]
                        },
                        {
                          "endTime" : 951572160000,
                          "duration" : 705600000,
                          "range" : [ 950866560000, 705600000]
                        }
                      ]
                    }
                  },
                  {
                    "id" : 498,
                    "_type" : "StitchedMedia",
                    "minMediaStart" : 0,
                    "attributes" : {
                      "ident" : "Rec 4-22-2025-8-51-30-PM",
                      "gain" : 1.0,
                      "mixToMono" : false,
                      "loudnessNormalization" : true,
                      "sourceFileOffset" : 0
                    },
                    "parameters" : {
                      "translation0" : {
                        "type" : "double",
                        "defaultValue" : 6.33786407766917,
                        "keyframes" : [
                          {
                            "endTime" : 946350720000,
                            "time" : 945645120000,
                            "value" : 1529.54135844084,
                            "duration" : 705600000
                          },
                          {
                            "endTime" : 946938720000,
                            "time" : 946350720000,
                            "value" : 2.8421709430404e-14,
                            "duration" : 588000000
                          },
                          {
                            "endTime" : 950208000000,
                            "time" : 949502400000,
                            "value" : 1769.53733046201,
                            "duration" : 705600000
                          },
                          {
                            "endTime" : 951572160000,
                            "time" : 950866560000,
                            "value" : 0.0,
                            "duration" : 705600000
                          }
                        ]
                      },
                      "translation1" : {
                        "type" : "double",
                        "defaultValue" : -2.8421709430404e-14,
                        "keyframes" : [
                          {
                            "endTime" : 946350720000,
                            "time" : 945645120000,
                            "value" : 1155.43533032585,
                            "duration" : 705600000
                          },
                          {
                            "endTime" : 946938720000,
                            "time" : 946350720000,
                            "value" : 4.2632564145606e-14,
                            "duration" : 588000000
                          },
                          {
                            "endTime" : 950208000000,
                            "time" : 949502400000,
                            "value" : 1222.37766654561,
                            "duration" : 705600000
                          },
                          {
                            "endTime" : 951572160000,
                            "time" : 950866560000,
                            "value" : -5.6843418860808e-14,
                            "duration" : 705600000
                          }
                        ]
                      },
                      "scale0" : {
                        "type" : "double",
                        "defaultValue" : 0.503300970873786,
                        "keyframes" : [
                          {
                            "endTime" : 946350720000,
                            "time" : 945645120000,
                            "value" : 2.23861295044012,
                            "duration" : 705600000
                          },
                          {
                            "endTime" : 946938720000,
                            "time" : 946350720000,
                            "value" : 0.5,
                            "duration" : 588000000
                          },
                          {
                            "endTime" : 950208000000,
                            "time" : 949502400000,
                            "value" : 2.05000008547071,
                            "duration" : 705600000
                          },
                          {
                            "endTime" : 951572160000,
                            "time" : 950866560000,
                            "value" : 0.5,
                            "duration" : 705600000
                          }
                        ]
                      },
                      "scale1" : {
                        "type" : "double",
                        "defaultValue" : 0.503300970873786,
                        "keyframes" : [
                          {
                            "endTime" : 946350720000,
                            "time" : 945645120000,
                            "value" : 2.23861378180461,
                            "duration" : 705600000
                          },
                          {
                            "endTime" : 946938720000,
                            "time" : 946350720000,
                            "value" : 0.5,
                            "duration" : 588000000
                          },
                          {
                            "endTime" : 950208000000,
                            "time" : 949502400000,
                            "value" : 2.05000025406246,
                            "duration" : 705600000
                          },
                          {
                            "endTime" : 951572160000,
                            "time" : 950866560000,
                            "value" : 0.500000041119937,
                            "duration" : 705600000
                          }
                        ]
                      },
                      "scale2" : {
                        "type" : "double",
                        "defaultValue" : 1.0,
                        "keyframes" : [
                          {
                            "endTime" : 946938720000,
                            "time" : 946350720000,
                            "value" : 0.5,
                            "duration" : 588000000
                          },
                          {
                            "endTime" : 951572160000,
                            "time" : 950866560000,
                            "value" : 0.121951214427679,
                            "duration" : 705600000
                          }
                        ]
                      },
                      "geometryCrop0" : 0.0,
                      "geometryCrop1" : 0.0,
                      "geometryCrop2" : 0.0,
                      "geometryCrop3" : 0.0,
                      "toc" : {
                        "type" : "string",
                        "keyframes" : [
                          {
                            "endTime" : 1017475200000,
                            "time" : 1017475200000,
                            "value" : "Open IE",
                            "duration" : 0,
                            "metadata" : {
                              "markerIdentifier" : "244DD759-2F1E-46C3-AE0F-9CB4D0975D6C"
                            }
                          }
                        ]
                      },
                      "cursorOpacity" : 1.0,
                      "cursorTrackLevel" : 0.0,
                      "cursorScale" : 5.0,
                      "smoothCursorAcrossEditDuration" : 0
                    },
                    "medias" : [
                        {
                          "id" : 499,
                          "_type" : "ScreenVMFile",
                          "src" : 2,
                          "trackNumber" : 0,
                          "attributes" : {
                            "ident" : "Rec 4-22-2025-8-51-30-PM"
                          },
                          "parameters" : {
                            "geometryCrop0" : {
                              "type" : "double",
                              "defaultValue" : 0.0,
                              "interp" : "eioe"
                            },
                            "geometryCrop1" : {
                              "type" : "double",
                              "defaultValue" : 0.0,
                              "interp" : "eioe"
                            },
                            "geometryCrop2" : {
                              "type" : "double",
                              "defaultValue" : 0.0,
                              "interp" : "eioe"
                            },
                            "geometryCrop3" : {
                              "type" : "double",
                              "defaultValue" : 0.0,
                              "interp" : "eioe"
                            },
                            "cursorScale" : {
                              "type" : "double",
                              "defaultValue" : 0.0,
                              "interp" : "linr"
                            },
                            "cursorOpacity" : {
                              "type" : "double",
                              "defaultValue" : 0.0,
                              "interp" : "linr"
                            },
                            "cursorTrackLevel" : {
                              "type" : "double",
                              "defaultValue" : 0.0,
                              "interp" : "linr"
                            },
                            "smoothCursorAcrossEditDuration" : 0
                          },
                          "effects" : [

                          ],
                          "start" : 0,
                          "duration" : 50991360000,
                          "mediaStart" : 0,
                          "mediaDuration" : 50991360000,
                          "scalar" : 1,
                          "metadata" : {
                            "AutoAppliedSmartFocus" : "False",
                            "audiateLinkedSession" : "",
                            "clipSpeedAttribute" : { "type": "bool", "value" : false},
                            "colorAttribute" : { "type": "color", "value" : [ 0, 0, 0, 0]},
                            "default-height" : { "type": "double", "value" : 1036.8},
                            "default-translation0" : { "type": "double", "value" : 0.0},
                            "default-translation1" : { "type": "double", "value" : -194.4},
                            "default-translation2" : { "type": "double", "value" : 0.0},
                            "default-width" : { "type": "double", "value" : 1932.67572815534}
                          },
                          "animationTracks" : {

                          }
                        },
                        {
                          "id" : 500,
                          "_type" : "ScreenVMFile",
                          "src" : 2,
                          "trackNumber" : 0,
                          "attributes" : {
                            "ident" : "Rec 4-22-2025-8-51-30-PM"
                          },
                          "parameters" : {
                            "geometryCrop0" : {
                              "type" : "double",
                              "defaultValue" : 0.0,
                              "interp" : "eioe"
                            },
                            "geometryCrop1" : {
                              "type" : "double",
                              "defaultValue" : 0.0,
                              "interp" : "eioe"
                            },
                            "geometryCrop2" : {
                              "type" : "double",
                              "defaultValue" : 0.0,
                              "interp" : "eioe"
                            },
                            "geometryCrop3" : {
                              "type" : "double",
                              "defaultValue" : 0.0,
                              "interp" : "eioe"
                            },
                            "cursorScale" : {
                              "type" : "double",
                              "defaultValue" : 0.0,
                              "interp" : "linr"
                            },
                            "cursorOpacity" : {
                              "type" : "double",
                              "defaultValue" : 0.0,
                              "interp" : "linr"
                            },
                            "cursorTrackLevel" : {
                              "type" : "double",
                              "defaultValue" : 0.0,
                              "interp" : "linr"
                            },
                            "smoothCursorAcrossEditDuration" : 0
                          },
                          "effects" : [

                          ],
                          "start" : 50991360000,
                          "duration" : 46663680000,
                          "mediaStart" : 66467520000,
                          "mediaDuration" : 46663680000,
                          "scalar" : 1,
                          "metadata" : {
                            "AutoAppliedSmartFocus" : "False",
                            "audiateLinkedSession" : "",
                            "clipSpeedAttribute" : { "type": "bool", "value" : false},
                            "colorAttribute" : { "type": "color", "value" : [ 0, 0, 0, 0]},
                            "default-height" : { "type": "double", "value" : 1036.8},
                            "default-translation0" : { "type": "double", "value" : 0.0},
                            "default-translation1" : { "type": "double", "value" : -194.4},
                            "default-translation2" : { "type": "double", "value" : 0.0},
                            "default-width" : { "type": "double", "value" : 1932.67572815534}
                          },
                          "animationTracks" : {

                          }
                        },
                        {
                          "id" : 501,
                          "_type" : "ScreenVMFile",
                          "src" : 2,
                          "trackNumber" : 0,
                          "attributes" : {
                            "ident" : "Rec 4-22-2025-8-51-30-PM"
                          },
                          "parameters" : {
                            "geometryCrop0" : {
                              "type" : "double",
                              "defaultValue" : 0.0,
                              "interp" : "eioe"
                            },
                            "geometryCrop1" : {
                              "type" : "double",
                              "defaultValue" : 0.0,
                              "interp" : "eioe"
                            },
                            "geometryCrop2" : {
                              "type" : "double",
                              "defaultValue" : 0.0,
                              "interp" : "eioe"
                            },
                            "geometryCrop3" : {
                              "type" : "double",
                              "defaultValue" : 0.0,
                              "interp" : "eioe"
                            },
                            "cursorScale" : {
                              "type" : "double",
                              "defaultValue" : 0.0,
                              "interp" : "linr"
                            },
                            "cursorOpacity" : {
                              "type" : "double",
                              "defaultValue" : 0.0,
                              "interp" : "linr"
                            },
                            "cursorTrackLevel" : {
                              "type" : "double",
                              "defaultValue" : 0.0,
                              "interp" : "linr"
                            },
                            "smoothCursorAcrossEditDuration" : 0
                          },
                          "effects" : [

                          ],
                          "start" : 97655040000,
                          "duration" : 352282560000,
                          "mediaStart" : 149352000000,
                          "mediaDuration" : 352282560000,
                          "scalar" : 1,
                          "metadata" : {
                            "AutoAppliedSmartFocus" : "False",
                            "audiateLinkedSession" : "",
                            "clipSpeedAttribute" : { "type": "bool", "value" : false},
                            "colorAttribute" : { "type": "color", "value" : [ 0, 0, 0, 0]},
                            "default-height" : { "type": "double", "value" : 1036.8},
                            "default-translation0" : { "type": "double", "value" : 0.0},
                            "default-translation1" : { "type": "double", "value" : -194.4},
                            "default-translation2" : { "type": "double", "value" : 0.0},
                            "default-width" : { "type": "double", "value" : 1932.67572815534}
                          },
                          "animationTracks" : {

                          }
                        },
                        {
                          "id" : 502,
                          "_type" : "ScreenVMFile",
                          "src" : 2,
                          "trackNumber" : 0,
                          "attributes" : {
                            "ident" : "Rec 4-22-2025-8-51-30-PM"
                          },
                          "parameters" : {
                            "geometryCrop0" : {
                              "type" : "double",
                              "defaultValue" : 0.0,
                              "interp" : "eioe"
                            },
                            "geometryCrop1" : {
                              "type" : "double",
                              "defaultValue" : 0.0,
                              "interp" : "eioe"
                            },
                            "geometryCrop2" : {
                              "type" : "double",
                              "defaultValue" : 0.0,
                              "interp" : "eioe"
                            },
                            "geometryCrop3" : {
                              "type" : "double",
                              "defaultValue" : 0.0,
                              "interp" : "eioe"
                            },
                            "cursorScale" : {
                              "type" : "double",
                              "defaultValue" : 0.0,
                              "interp" : "linr"
                            },
                            "cursorOpacity" : {
                              "type" : "double",
                              "defaultValue" : 0.0,
                              "interp" : "linr"
                            },
                            "cursorTrackLevel" : {
                              "type" : "double",
                              "defaultValue" : 0.0,
                              "interp" : "linr"
                            },
                            "smoothCursorAcrossEditDuration" : 0
                          },
                          "effects" : [

                          ],
                          "start" : 449937600000,
                          "duration" : 8961120000,
                          "mediaStart" : 509843040000,
                          "mediaDuration" : 8961120000,
                          "scalar" : 1,
                          "metadata" : {
                            "AutoAppliedSmartFocus" : "False",
                            "audiateLinkedSession" : "",
                            "clipSpeedAttribute" : { "type": "bool", "value" : false},
                            "colorAttribute" : { "type": "color", "value" : [ 0, 0, 0, 0]},
                            "default-height" : { "type": "double", "value" : 1036.8},
                            "default-translation0" : { "type": "double", "value" : 0.0},
                            "default-translation1" : { "type": "double", "value" : -194.4},
                            "default-translation2" : { "type": "double", "value" : 0.0},
                            "default-width" : { "type": "double", "value" : 1932.67572815534}
                          },
                          "animationTracks" : {

                          }
                        },
                        {
                          "id" : 503,
                          "_type" : "ScreenVMFile",
                          "src" : 2,
                          "trackNumber" : 0,
                          "attributes" : {
                            "ident" : "Rec 4-22-2025-8-51-30-PM"
                          },
                          "parameters" : {
                            "geometryCrop0" : {
                              "type" : "double",
                              "defaultValue" : 0.0,
                              "interp" : "eioe"
                            },
                            "geometryCrop1" : {
                              "type" : "double",
                              "defaultValue" : 0.0,
                              "interp" : "eioe"
                            },
                            "geometryCrop2" : {
                              "type" : "double",
                              "defaultValue" : 0.0,
                              "interp" : "eioe"
                            },
                            "geometryCrop3" : {
                              "type" : "double",
                              "defaultValue" : 0.0,
                              "interp" : "eioe"
                            },
                            "cursorScale" : {
                              "type" : "double",
                              "defaultValue" : 0.0,
                              "interp" : "linr"
                            },
                            "cursorOpacity" : {
                              "type" : "double",
                              "defaultValue" : 0.0,
                              "interp" : "linr"
                            },
                            "cursorTrackLevel" : {
                              "type" : "double",
                              "defaultValue" : 0.0,
                              "interp" : "linr"
                            },
                            "smoothCursorAcrossEditDuration" : 0
                          },
                          "effects" : [

                          ],
                          "start" : 458898720000,
                          "duration" : 472399200000,
                          "mediaStart" : 1416350880000,
                          "mediaDuration" : 472399200000,
                          "scalar" : 1,
                          "metadata" : {
                            "AutoAppliedSmartFocus" : "False",
                            "audiateLinkedSession" : "",
                            "clipSpeedAttribute" : { "type": "bool", "value" : false},
                            "colorAttribute" : { "type": "color", "value" : [ 0, 0, 0, 0]},
                            "default-height" : { "type": "double", "value" : 1036.8},
                            "default-translation0" : { "type": "double", "value" : 0.0},
                            "default-translation1" : { "type": "double", "value" : -194.4},
                            "default-translation2" : { "type": "double", "value" : 0.0},
                            "default-width" : { "type": "double", "value" : 1932.67572815534}
                          },
                          "animationTracks" : {

                          }
                        },
                        {
                          "id" : 504,
                          "_type" : "ScreenVMFile",
                          "src" : 2,
                          "trackNumber" : 0,
                          "attributes" : {
                            "ident" : "Rec 4-22-2025-8-51-30-PM"
                          },
                          "parameters" : {
                            "geometryCrop0" : {
                              "type" : "double",
                              "defaultValue" : 0.0,
                              "interp" : "eioe"
                            },
                            "geometryCrop1" : {
                              "type" : "double",
                              "defaultValue" : 0.0,
                              "interp" : "eioe"
                            },
                            "geometryCrop2" : {
                              "type" : "double",
                              "defaultValue" : 0.0,
                              "interp" : "eioe"
                            },
                            "geometryCrop3" : {
                              "type" : "double",
                              "defaultValue" : 0.0,
                              "interp" : "eioe"
                            },
                            "cursorScale" : {
                              "type" : "double",
                              "defaultValue" : 0.0,
                              "interp" : "linr"
                            },
                            "cursorOpacity" : {
                              "type" : "double",
                              "defaultValue" : 0.0,
                              "interp" : "linr"
                            },
                            "cursorTrackLevel" : {
                              "type" : "double",
                              "defaultValue" : 0.0,
                              "interp" : "linr"
                            },
                            "smoothCursorAcrossEditDuration" : 0
                          },
                          "effects" : [

                          ],
                          "start" : 931297920000,
                          "duration" : 15781920000,
                          "mediaStart" : 1888750080000,
                          "mediaDuration" : 15781920000,
                          "scalar" : 1,
                          "metadata" : {
                            "AutoAppliedSmartFocus" : "False",
                            "audiateLinkedSession" : "",
                            "clipSpeedAttribute" : { "type": "bool", "value" : false},
                            "colorAttribute" : { "type": "color", "value" : [ 0, 0, 0, 0]},
                            "default-height" : { "type": "double", "value" : 1036.8},
                            "default-translation0" : { "type": "double", "value" : 0.0},
                            "default-translation1" : { "type": "double", "value" : -194.4},
                            "default-translation2" : { "type": "double", "value" : 0.0},
                            "default-width" : { "type": "double", "value" : 1932.67572815534}
                          },
                          "animationTracks" : {

                          }
                        },
                        {
                          "id" : 505,
                          "_type" : "ScreenVMFile",
                          "src" : 2,
                          "trackNumber" : 0,
                          "attributes" : {
                            "ident" : "Rec 4-22-2025-8-51-30-PM"
                          },
                          "parameters" : {
                            "geometryCrop0" : {
                              "type" : "double",
                              "defaultValue" : 0.0,
                              "interp" : "eioe"
                            },
                            "geometryCrop1" : {
                              "type" : "double",
                              "defaultValue" : 0.0,
                              "interp" : "eioe"
                            },
                            "geometryCrop2" : {
                              "type" : "double",
                              "defaultValue" : 0.0,
                              "interp" : "eioe"
                            },
                            "geometryCrop3" : {
                              "type" : "double",
                              "defaultValue" : 0.0,
                              "interp" : "eioe"
                            },
                            "cursorScale" : {
                              "type" : "double",
                              "defaultValue" : 0.0,
                              "interp" : "linr"
                            },
                            "cursorOpacity" : {
                              "type" : "double",
                              "defaultValue" : 0.0,
                              "interp" : "linr"
                            },
                            "cursorTrackLevel" : {
                              "type" : "double",
                              "defaultValue" : 0.0,
                              "interp" : "linr"
                            },
                            "smoothCursorAcrossEditDuration" : 0
                          },
                          "effects" : [

                          ],
                          "start" : 947079840000,
                          "duration" : 7502880000,
                          "mediaStart" : 1904532000000,
                          "mediaDuration" : 7502880000,
                          "scalar" : 1,
                          "metadata" : {
                            "AutoAppliedSmartFocus" : "False",
                            "audiateLinkedSession" : "",
                            "clipSpeedAttribute" : { "type": "bool", "value" : false},
                            "colorAttribute" : { "type": "color", "value" : [ 0, 0, 0, 0]},
                            "default-height" : { "type": "double", "value" : 1036.8},
                            "default-translation0" : { "type": "double", "value" : 0.0},
                            "default-translation1" : { "type": "double", "value" : -194.4},
                            "default-translation2" : { "type": "double", "value" : 0.0},
                            "default-width" : { "type": "double", "value" : 1932.67572815534}
                          },
                          "animationTracks" : {

                          }
                        },
                        {
                          "id" : 506,
                          "_type" : "ScreenVMFile",
                          "src" : 2,
                          "trackNumber" : 0,
                          "attributes" : {
                            "ident" : "Rec 4-22-2025-8-51-30-PM"
                          },
                          "parameters" : {
                            "geometryCrop0" : {
                              "type" : "double",
                              "defaultValue" : 0.0,
                              "interp" : "eioe"
                            },
                            "geometryCrop1" : {
                              "type" : "double",
                              "defaultValue" : 0.0,
                              "interp" : "eioe"
                            },
                            "geometryCrop2" : {
                              "type" : "double",
                              "defaultValue" : 0.0,
                              "interp" : "eioe"
                            },
                            "geometryCrop3" : {
                              "type" : "double",
                              "defaultValue" : 0.0,
                              "interp" : "eioe"
                            },
                            "cursorScale" : {
                              "type" : "double",
                              "defaultValue" : 0.0,
                              "interp" : "linr"
                            },
                            "cursorOpacity" : {
                              "type" : "double",
                              "defaultValue" : 0.0,
                              "interp" : "linr"
                            },
                            "cursorTrackLevel" : {
                              "type" : "double",
                              "defaultValue" : 0.0,
                              "interp" : "linr"
                            },
                            "smoothCursorAcrossEditDuration" : 0
                          },
                          "effects" : [

                          ],
                          "start" : 954582720000,
                          "duration" : 13053600000,
                          "mediaStart" : 1912034880000,
                          "mediaDuration" : 13053600000,
                          "scalar" : 1,
                          "metadata" : {
                            "AutoAppliedSmartFocus" : "False",
                            "audiateLinkedSession" : "",
                            "clipSpeedAttribute" : { "type": "bool", "value" : false},
                            "colorAttribute" : { "type": "color", "value" : [ 0, 0, 0, 0]},
                            "default-height" : { "type": "double", "value" : 1036.8},
                            "default-translation0" : { "type": "double", "value" : 0.0},
                            "default-translation1" : { "type": "double", "value" : -194.4},
                            "default-translation2" : { "type": "double", "value" : 0.0},
                            "default-width" : { "type": "double", "value" : 1932.67572815534}
                          },
                          "animationTracks" : {

                          }
                        },
                        {
                          "id" : 507,
                          "_type" : "ScreenVMFile",
                          "src" : 2,
                          "trackNumber" : 0,
                          "attributes" : {
                            "ident" : "Rec 4-22-2025-8-51-30-PM"
                          },
                          "parameters" : {
                            "geometryCrop0" : {
                              "type" : "double",
                              "defaultValue" : 0.0,
                              "interp" : "eioe"
                            },
                            "geometryCrop1" : {
                              "type" : "double",
                              "defaultValue" : 0.0,
                              "interp" : "eioe"
                            },
                            "geometryCrop2" : {
                              "type" : "double",
                              "defaultValue" : 0.0,
                              "interp" : "eioe"
                            },
                            "geometryCrop3" : {
                              "type" : "double",
                              "defaultValue" : 0.0,
                              "interp" : "eioe"
                            },
                            "cursorScale" : {
                              "type" : "double",
                              "defaultValue" : 0.0,
                              "interp" : "linr"
                            },
                            "cursorOpacity" : {
                              "type" : "double",
                              "defaultValue" : 0.0,
                              "interp" : "linr"
                            },
                            "cursorTrackLevel" : {
                              "type" : "double",
                              "defaultValue" : 0.0,
                              "interp" : "linr"
                            },
                            "smoothCursorAcrossEditDuration" : 0
                          },
                          "effects" : [

                          ],
                          "start" : 967636320000,
                          "duration" : 7691040000,
                          "mediaStart" : 1925088480000,
                          "mediaDuration" : 7691040000,
                          "scalar" : 1,
                          "metadata" : {
                            "AutoAppliedSmartFocus" : "False",
                            "audiateLinkedSession" : "",
                            "clipSpeedAttribute" : { "type": "bool", "value" : false},
                            "colorAttribute" : { "type": "color", "value" : [ 0, 0, 0, 0]},
                            "default-height" : { "type": "double", "value" : 1036.8},
                            "default-translation0" : { "type": "double", "value" : 0.0},
                            "default-translation1" : { "type": "double", "value" : -194.4},
                            "default-translation2" : { "type": "double", "value" : 0.0},
                            "default-width" : { "type": "double", "value" : 1932.67572815534}
                          },
                          "animationTracks" : {

                          }
                        },
                        {
                          "id" : 508,
                          "_type" : "ScreenVMFile",
                          "src" : 2,
                          "trackNumber" : 0,
                          "attributes" : {
                            "ident" : "Rec 4-22-2025-8-51-30-PM"
                          },
                          "parameters" : {
                            "geometryCrop0" : {
                              "type" : "double",
                              "defaultValue" : 0.0,
                              "interp" : "eioe"
                            },
                            "geometryCrop1" : {
                              "type" : "double",
                              "defaultValue" : 0.0,
                              "interp" : "eioe"
                            },
                            "geometryCrop2" : {
                              "type" : "double",
                              "defaultValue" : 0.0,
                              "interp" : "eioe"
                            },
                            "geometryCrop3" : {
                              "type" : "double",
                              "defaultValue" : 0.0,
                              "interp" : "eioe"
                            },
                            "cursorScale" : {
                              "type" : "double",
                              "defaultValue" : 0.0,
                              "interp" : "linr"
                            },
                            "cursorOpacity" : {
                              "type" : "double",
                              "defaultValue" : 0.0,
                              "interp" : "linr"
                            },
                            "cursorTrackLevel" : {
                              "type" : "double",
                              "defaultValue" : 0.0,
                              "interp" : "linr"
                            },
                            "smoothCursorAcrossEditDuration" : 0
                          },
                          "effects" : [

                          ],
                          "start" : 975327360000,
                          "duration" : 9807840000,
                          "mediaStart" : 1932779520000,
                          "mediaDuration" : 9807840000,
                          "scalar" : 1,
                          "metadata" : {
                            "AutoAppliedSmartFocus" : "False",
                            "audiateLinkedSession" : "",
                            "clipSpeedAttribute" : { "type": "bool", "value" : false},
                            "colorAttribute" : { "type": "color", "value" : [ 0, 0, 0, 0]},
                            "default-height" : { "type": "double", "value" : 1036.8},
                            "default-translation0" : { "type": "double", "value" : 0.0},
                            "default-translation1" : { "type": "double", "value" : -194.4},
                            "default-translation2" : { "type": "double", "value" : 0.0},
                            "default-width" : { "type": "double", "value" : 1932.67572815534}
                          },
                          "animationTracks" : {

                          }
                        },
                        {
                          "id" : 509,
                          "_type" : "ScreenVMFile",
                          "src" : 2,
                          "trackNumber" : 0,
                          "attributes" : {
                            "ident" : "Rec 4-22-2025-8-51-30-PM"
                          },
                          "parameters" : {
                            "geometryCrop0" : {
                              "type" : "double",
                              "defaultValue" : 0.0,
                              "interp" : "eioe"
                            },
                            "geometryCrop1" : {
                              "type" : "double",
                              "defaultValue" : 0.0,
                              "interp" : "eioe"
                            },
                            "geometryCrop2" : {
                              "type" : "double",
                              "defaultValue" : 0.0,
                              "interp" : "eioe"
                            },
                            "geometryCrop3" : {
                              "type" : "double",
                              "defaultValue" : 0.0,
                              "interp" : "eioe"
                            },
                            "cursorScale" : {
                              "type" : "double",
                              "defaultValue" : 0.0,
                              "interp" : "linr"
                            },
                            "cursorOpacity" : {
                              "type" : "double",
                              "defaultValue" : 0.0,
                              "interp" : "linr"
                            },
                            "cursorTrackLevel" : {
                              "type" : "double",
                              "defaultValue" : 0.0,
                              "interp" : "linr"
                            },
                            "smoothCursorAcrossEditDuration" : 0
                          },
                          "effects" : [

                          ],
                          "start" : 985135200000,
                          "duration" : 20391840000,
                          "mediaStart" : 1942587360000,
                          "mediaDuration" : 20391840000,
                          "scalar" : 1,
                          "metadata" : {
                            "AutoAppliedSmartFocus" : "False",
                            "audiateLinkedSession" : "",
                            "clipSpeedAttribute" : { "type": "bool", "value" : false},
                            "colorAttribute" : { "type": "color", "value" : [ 0, 0, 0, 0]},
                            "default-height" : { "type": "double", "value" : 1036.8},
                            "default-translation0" : { "type": "double", "value" : 0.0},
                            "default-translation1" : { "type": "double", "value" : -194.4},
                            "default-translation2" : { "type": "double", "value" : 0.0},
                            "default-width" : { "type": "double", "value" : 1932.67572815534}
                          },
                          "animationTracks" : {

                          }
                        },
                        {
                          "id" : 510,
                          "_type" : "ScreenVMFile",
                          "src" : 2,
                          "trackNumber" : 0,
                          "attributes" : {
                            "ident" : "Rec 4-22-2025-8-51-30-PM"
                          },
                          "parameters" : {
                            "geometryCrop0" : {
                              "type" : "double",
                              "defaultValue" : 0.0,
                              "interp" : "eioe"
                            },
                            "geometryCrop1" : {
                              "type" : "double",
                              "defaultValue" : 0.0,
                              "interp" : "eioe"
                            },
                            "geometryCrop2" : {
                              "type" : "double",
                              "defaultValue" : 0.0,
                              "interp" : "eioe"
                            },
                            "geometryCrop3" : {
                              "type" : "double",
                              "defaultValue" : 0.0,
                              "interp" : "eioe"
                            },
                            "cursorScale" : {
                              "type" : "double",
                              "defaultValue" : 0.0,
                              "interp" : "linr"
                            },
                            "cursorOpacity" : {
                              "type" : "double",
                              "defaultValue" : 0.0,
                              "interp" : "linr"
                            },
                            "cursorTrackLevel" : {
                              "type" : "double",
                              "defaultValue" : 0.0,
                              "interp" : "linr"
                            },
                            "smoothCursorAcrossEditDuration" : 0
                          },
                          "effects" : [

                          ],
                          "start" : 1005527040000,
                          "duration" : 8914080000,
                          "mediaStart" : 1962979200000,
                          "mediaDuration" : 8914080000,
                          "scalar" : 1,
                          "metadata" : {
                            "AutoAppliedSmartFocus" : "False",
                            "audiateLinkedSession" : "",
                            "clipSpeedAttribute" : { "type": "bool", "value" : false},
                            "colorAttribute" : { "type": "color", "value" : [ 0, 0, 0, 0]},
                            "default-height" : { "type": "double", "value" : 1036.8},
                            "default-translation0" : { "type": "double", "value" : 0.0},
                            "default-translation1" : { "type": "double", "value" : -194.4},
                            "default-translation2" : { "type": "double", "value" : 0.0},
                            "default-width" : { "type": "double", "value" : 1932.67572815534}
                          },
                          "animationTracks" : {

                          }
                        },
                        {
                          "id" : 511,
                          "_type" : "ScreenVMFile",
                          "src" : 2,
                          "trackNumber" : 0,
                          "attributes" : {
                            "ident" : "Rec 4-22-2025-8-51-30-PM"
                          },
                          "parameters" : {
                            "geometryCrop0" : {
                              "type" : "double",
                              "defaultValue" : 0.0,
                              "interp" : "eioe"
                            },
                            "geometryCrop1" : {
                              "type" : "double",
                              "defaultValue" : 0.0,
                              "interp" : "eioe"
                            },
                            "geometryCrop2" : {
                              "type" : "double",
                              "defaultValue" : 0.0,
                              "interp" : "eioe"
                            },
                            "geometryCrop3" : {
                              "type" : "double",
                              "defaultValue" : 0.0,
                              "interp" : "eioe"
                            },
                            "cursorScale" : {
                              "type" : "double",
                              "defaultValue" : 0.0,
                              "interp" : "linr"
                            },
                            "cursorOpacity" : {
                              "type" : "double",
                              "defaultValue" : 0.0,
                              "interp" : "linr"
                            },
                            "cursorTrackLevel" : {
                              "type" : "double",
                              "defaultValue" : 0.0,
                              "interp" : "linr"
                            },
                            "smoothCursorAcrossEditDuration" : 0
                          },
                          "effects" : [

                          ],
                          "start" : 1014441120000,
                          "duration" : 3034080000,
                          "mediaStart" : 1971893280000,
                          "mediaDuration" : 3034080000,
                          "scalar" : 1,
                          "metadata" : {
                            "AutoAppliedSmartFocus" : "False",
                            "audiateLinkedSession" : "",
                            "clipSpeedAttribute" : { "type": "bool", "value" : false},
                            "colorAttribute" : { "type": "color", "value" : [ 0, 0, 0, 0]},
                            "default-height" : { "type": "double", "value" : 1036.8},
                            "default-translation0" : { "type": "double", "value" : 0.0},
                            "default-translation1" : { "type": "double", "value" : -194.4},
                            "default-translation2" : { "type": "double", "value" : 0.0},
                            "default-width" : { "type": "double", "value" : 1932.67572815534}
                          },
                          "animationTracks" : {

                          }
                        },
                        {
                          "id" : 512,
                          "_type" : "ScreenVMFile",
                          "src" : 2,
                          "trackNumber" : 0,
                          "attributes" : {
                            "ident" : "Rec 4-22-2025-8-51-30-PM"
                          },
                          "parameters" : {
                            "geometryCrop0" : {
                              "type" : "double",
                              "defaultValue" : 0.0,
                              "interp" : "eioe"
                            },
                            "geometryCrop1" : {
                              "type" : "double",
                              "defaultValue" : 0.0,
                              "interp" : "eioe"
                            },
                            "geometryCrop2" : {
                              "type" : "double",
                              "defaultValue" : 0.0,
                              "interp" : "eioe"
                            },
                            "geometryCrop3" : {
                              "type" : "double",
                              "defaultValue" : 0.0,
                              "interp" : "eioe"
                            },
                            "cursorScale" : {
                              "type" : "double",
                              "defaultValue" : 0.0,
                              "interp" : "linr"
                            },
                            "cursorOpacity" : {
                              "type" : "double",
                              "defaultValue" : 0.0,
                              "interp" : "linr"
                            },
                            "cursorTrackLevel" : {
                              "type" : "double",
                              "defaultValue" : 0.0,
                              "interp" : "linr"
                            },
                            "smoothCursorAcrossEditDuration" : 0
                          },
                          "effects" : [

                          ],
                          "start" : 1017475200000,
                          "duration" : 22649760000,
                          "mediaStart" : 1974927360000,
                          "mediaDuration" : 22649760000,
                          "scalar" : 1,
                          "metadata" : {
                            "AutoAppliedSmartFocus" : "False",
                            "audiateLinkedSession" : "",
                            "clipSpeedAttribute" : { "type": "bool", "value" : false},
                            "colorAttribute" : { "type": "color", "value" : [ 0, 0, 0, 0]},
                            "default-height" : { "type": "double", "value" : 1036.8},
                            "default-translation0" : { "type": "double", "value" : 0.0},
                            "default-translation1" : { "type": "double", "value" : -194.4},
                            "default-translation2" : { "type": "double", "value" : 0.0},
                            "default-width" : { "type": "double", "value" : 1932.67572815534}
                          },
                          "animationTracks" : {

                          }
                        },
                        {
                          "id" : 513,
                          "_type" : "ScreenVMFile",
                          "src" : 2,
                          "trackNumber" : 0,
                          "attributes" : {
                            "ident" : "Rec 4-22-2025-8-51-30-PM"
                          },
                          "parameters" : {
                            "geometryCrop0" : {
                              "type" : "double",
                              "defaultValue" : 0.0,
                              "interp" : "eioe"
                            },
                            "geometryCrop1" : {
                              "type" : "double",
                              "defaultValue" : 0.0,
                              "interp" : "eioe"
                            },
                            "geometryCrop2" : {
                              "type" : "double",
                              "defaultValue" : 0.0,
                              "interp" : "eioe"
                            },
                            "geometryCrop3" : {
                              "type" : "double",
                              "defaultValue" : 0.0,
                              "interp" : "eioe"
                            },
                            "cursorScale" : {
                              "type" : "double",
                              "defaultValue" : 0.0,
                              "interp" : "linr"
                            },
                            "cursorOpacity" : {
                              "type" : "double",
                              "defaultValue" : 0.0,
                              "interp" : "linr"
                            },
                            "cursorTrackLevel" : {
                              "type" : "double",
                              "defaultValue" : 0.0,
                              "interp" : "linr"
                            },
                            "smoothCursorAcrossEditDuration" : 0
                          },
                          "effects" : [

                          ],
                          "start" : 1040124960000,
                          "duration" : 215419680000,
                          "mediaStart" : 2018886240000,
                          "mediaDuration" : 215419680000,
                          "scalar" : 1,
                          "metadata" : {
                            "AutoAppliedSmartFocus" : "False",
                            "audiateLinkedSession" : "",
                            "clipSpeedAttribute" : { "type": "bool", "value" : false},
                            "colorAttribute" : { "type": "color", "value" : [ 0, 0, 0, 0]},
                            "default-height" : { "type": "double", "value" : 1036.8},
                            "default-translation0" : { "type": "double", "value" : 0.0},
                            "default-translation1" : { "type": "double", "value" : -194.4},
                            "default-translation2" : { "type": "double", "value" : 0.0},
                            "default-width" : { "type": "double", "value" : 1932.67572815534}
                          },
                          "animationTracks" : {

                          }
                        },
                        {
                          "id" : 514,
                          "_type" : "ScreenVMFile",
                          "src" : 2,
                          "trackNumber" : 0,
                          "attributes" : {
                            "ident" : "Rec 4-22-2025-8-51-30-PM"
                          },
                          "parameters" : {
                            "geometryCrop0" : {
                              "type" : "double",
                              "defaultValue" : 0.0,
                              "interp" : "eioe"
                            },
                            "geometryCrop1" : {
                              "type" : "double",
                              "defaultValue" : 0.0,
                              "interp" : "eioe"
                            },
                            "geometryCrop2" : {
                              "type" : "double",
                              "defaultValue" : 0.0,
                              "interp" : "eioe"
                            },
                            "geometryCrop3" : {
                              "type" : "double",
                              "defaultValue" : 0.0,
                              "interp" : "eioe"
                            },
                            "cursorScale" : {
                              "type" : "double",
                              "defaultValue" : 0.0,
                              "interp" : "linr"
                            },
                            "cursorOpacity" : {
                              "type" : "double",
                              "defaultValue" : 0.0,
                              "interp" : "linr"
                            },
                            "cursorTrackLevel" : {
                              "type" : "double",
                              "defaultValue" : 0.0,
                              "interp" : "linr"
                            },
                            "smoothCursorAcrossEditDuration" : 0
                          },
                          "effects" : [

                          ],
                          "start" : 1255544640000,
                          "duration" : 786955680000,
                          "mediaStart" : 2257778880000,
                          "mediaDuration" : 786955680000,
                          "scalar" : 1,
                          "metadata" : {
                            "AutoAppliedSmartFocus" : "False",
                            "audiateLinkedSession" : "",
                            "clipSpeedAttribute" : { "type": "bool", "value" : false},
                            "colorAttribute" : { "type": "color", "value" : [ 0, 0, 0, 0]},
                            "default-height" : { "type": "double", "value" : 1036.8},
                            "default-translation0" : { "type": "double", "value" : 0.0},
                            "default-translation1" : { "type": "double", "value" : -194.4},
                            "default-translation2" : { "type": "double", "value" : 0.0},
                            "default-width" : { "type": "double", "value" : 1932.67572815534}
                          },
                          "animationTracks" : {

                          }
                        },
                        {
                          "id" : 515,
                          "_type" : "ScreenVMFile",
                          "src" : 2,
                          "trackNumber" : 0,
                          "attributes" : {
                            "ident" : "Rec 4-22-2025-8-51-30-PM"
                          },
                          "parameters" : {
                            "geometryCrop0" : {
                              "type" : "double",
                              "defaultValue" : 0.0,
                              "interp" : "eioe"
                            },
                            "geometryCrop1" : {
                              "type" : "double",
                              "defaultValue" : 0.0,
                              "interp" : "eioe"
                            },
                            "geometryCrop2" : {
                              "type" : "double",
                              "defaultValue" : 0.0,
                              "interp" : "eioe"
                            },
                            "geometryCrop3" : {
                              "type" : "double",
                              "defaultValue" : 0.0,
                              "interp" : "eioe"
                            },
                            "cursorScale" : {
                              "type" : "double",
                              "defaultValue" : 0.0,
                              "interp" : "linr"
                            },
                            "cursorOpacity" : {
                              "type" : "double",
                              "defaultValue" : 0.0,
                              "interp" : "linr"
                            },
                            "cursorTrackLevel" : {
                              "type" : "double",
                              "defaultValue" : 0.0,
                              "interp" : "linr"
                            },
                            "smoothCursorAcrossEditDuration" : 0
                          },
                          "effects" : [

                          ],
                          "start" : 2042500320000,
                          "duration" : 20768160000,
                          "mediaStart" : 3047580480000,
                          "mediaDuration" : 20768160000,
                          "scalar" : 1,
                          "metadata" : {
                            "AutoAppliedSmartFocus" : "False",
                            "audiateLinkedSession" : "",
                            "clipSpeedAttribute" : { "type": "bool", "value" : false},
                            "colorAttribute" : { "type": "color", "value" : [ 0, 0, 0, 0]},
                            "default-height" : { "type": "double", "value" : 1036.8},
                            "default-translation0" : { "type": "double", "value" : 0.0},
                            "default-translation1" : { "type": "double", "value" : -194.4},
                            "default-translation2" : { "type": "double", "value" : 0.0},
                            "default-width" : { "type": "double", "value" : 1932.67572815534}
                          },
                          "animationTracks" : {

                          }
                        },
                        {
                          "id" : 516,
                          "_type" : "ScreenVMFile",
                          "src" : 2,
                          "trackNumber" : 0,
                          "attributes" : {
                            "ident" : "Rec 4-22-2025-8-51-30-PM"
                          },
                          "parameters" : {
                            "geometryCrop0" : {
                              "type" : "double",
                              "defaultValue" : 0.0,
                              "interp" : "eioe"
                            },
                            "geometryCrop1" : {
                              "type" : "double",
                              "defaultValue" : 0.0,
                              "interp" : "eioe"
                            },
                            "geometryCrop2" : {
                              "type" : "double",
                              "defaultValue" : 0.0,
                              "interp" : "eioe"
                            },
                            "geometryCrop3" : {
                              "type" : "double",
                              "defaultValue" : 0.0,
                              "interp" : "eioe"
                            },
                            "cursorScale" : {
                              "type" : "double",
                              "defaultValue" : 0.0,
                              "interp" : "linr"
                            },
                            "cursorOpacity" : {
                              "type" : "double",
                              "defaultValue" : 0.0,
                              "interp" : "linr"
                            },
                            "cursorTrackLevel" : {
                              "type" : "double",
                              "defaultValue" : 0.0,
                              "interp" : "linr"
                            },
                            "smoothCursorAcrossEditDuration" : 0
                          },
                          "effects" : [

                          ],
                          "start" : 2063268480000,
                          "duration" : 343039200000,
                          "mediaStart" : 3138932160000,
                          "mediaDuration" : 343039200000,
                          "scalar" : 1,
                          "metadata" : {
                            "AutoAppliedSmartFocus" : "False",
                            "audiateLinkedSession" : "",
                            "clipSpeedAttribute" : { "type": "bool", "value" : false},
                            "colorAttribute" : { "type": "color", "value" : [ 0, 0, 0, 0]},
                            "default-height" : { "type": "double", "value" : 1036.8},
                            "default-translation0" : { "type": "double", "value" : 0.0},
                            "default-translation1" : { "type": "double", "value" : -194.4},
                            "default-translation2" : { "type": "double", "value" : 0.0},
                            "default-width" : { "type": "double", "value" : 1932.67572815534}
                          },
                          "animationTracks" : {

                          }
                        }
                    ],
                    "effects" : [
                        {
                          "effectName" : "CursorColor",
                          "bypassed" : false,
                          "category" : "categoryCursorEffects",
                          "parameters" : {
                            "intensity" : 1.0,
                            "desaturation" : 0.0,
                            "colorLumaCutoff" : 1.0,
                            "color-alpha" : 1.0,
                            "color-red" : 1.0,
                            "color-green" : 0.8980392157,
                            "color-blue" : 0.1215686275,
                            "secondColor-red" : 0.0,
                            "secondColor-green" : 0.0,
                            "secondColor-blue" : 0.0,
                            "secondColor-alpha" : 1.0,
                            "secondColorLumaCutoff" : 0.0,
                            "channel" : 0,
                            "shadowRampStart" : 0.0,
                            "shadowRampEnd" : 0.0,
                            "highlightRampStart" : 1.0,
                            "highlightRampEnd" : 1.0
                          }
                        },
                        {
                          "effectName" : "CursorShadow",
                          "bypassed" : false,
                          "category" : "categoryCursorEffects",
                          "parameters" : {
                            "angle" : 3.92699081698724,
                            "enabled" : 1,
                            "offset" : 5.0,
                            "blur" : 2.0,
                            "opacity" : 0.25,
                            "color-red" : 0.0,
                            "color-green" : 0.0,
                            "color-blue" : 0.0,
                            "color-alpha" : 1.0
                          }
                        },
                        {
                          "effectName" : "CursorHilight",
                          "bypassed" : false,
                          "category" : "categoryCursorEffects",
                          "parameters" : {
                            "radius" : 50.0,
                            "color-red" : 1.0,
                            "color-green" : 1.0,
                            "color-blue" : 0.0,
                            "color-alpha" : 0.75,
                            "blur" : 0.1
                          }
                        }
                    ],
                    "start" : 111226080000,
                    "duration" : 3763200000,
                    "mediaStart" : "37560593280000/37",
                    "mediaDuration" : "139944000000/37",
                    "scalar" : "376320000/378227027",
                    "metadata" : {
                      "AutoAppliedSmartFocus" : "False",
                      "audiateLinkedSession" : "",
                      "clipSpeedAttribute" : { "type": "bool", "value" : true},
                      "colorAttribute" : { "type": "color", "value" : [ 0, 0, 0, 0]},
                      "default-anchor0" : { "type": "double", "value" : 0.0},
                      "default-anchor1" : { "type": "double", "value" : 0.0},
                      "default-anchor2" : { "type": "double", "value" : 0.0},
                      "default-height" : { "type": "double", "value" : 1036.8},
                      "default-rotation0" : { "type": "double", "value" : 0.0},
                      "default-rotation1" : { "type": "double", "value" : 0.0},
                      "default-rotation2" : { "type": "double", "value" : 0.0},
                      "default-scale0" : { "type": "double", "value" : 0.503300970873786},
                      "default-scale1" : { "type": "double", "value" : 0.503300970873786},
                      "default-scale2" : { "type": "double", "value" : 1.0},
                      "default-shear0" : { "type": "double", "value" : 0.0},
                      "default-shear1" : { "type": "double", "value" : 0.0},
                      "default-shear2" : { "type": "double", "value" : 0.0},
                      "default-translation0" : { "type": "double", "value" : 0.0},
                      "default-translation1" : { "type": "double", "value" : -194.4},
                      "default-translation2" : { "type": "double", "value" : 0.0},
                      "default-width" : { "type": "double", "value" : 1932.67572815534}
                    },
                    "animationTracks" : {
                      "visual" : [
                        {
                          "endTime" : 946350720000,
                          "duration" : 705600000,
                          "range" : [ 945645120000, 705600000]
                        },
                        {
                          "endTime" : 946938720000,
                          "duration" : 588000000,
                          "range" : [ 946350720000, 588000000]
                        },
                        {
                          "endTime" : 950208000000,
                          "duration" : 705600000,
                          "range" : [ 949502400000, 705600000]
                        },
                        {
                          "endTime" : 951572160000,
                          "duration" : 705600000,
                          "range" : [ 950866560000, 705600000]
                        }
                      ]
                    }
                  },
                  {
                    "id" : 517,
                    "_type" : "StitchedMedia",
                    "minMediaStart" : 0,
                    "attributes" : {
                      "ident" : "Rec 4-22-2025-8-51-30-PM",
                      "gain" : 1.0,
                      "mixToMono" : false,
                      "loudnessNormalization" : true,
                      "sourceFileOffset" : 0
                    },
                    "parameters" : {
                      "translation0" : 6.33786407766917,
                      "translation1" : -2.8421709430404e-14,
                      "scale0" : 0.503300970873786,
                      "scale1" : 0.503300970873786,
                      "geometryCrop0" : 0.0,
                      "geometryCrop1" : 0.0,
                      "geometryCrop2" : 0.0,
                      "geometryCrop3" : 0.0,
                      "toc" : {
                        "type" : "string",
                        "keyframes" : [
                          {
                            "endTime" : 1018956960000,
                            "time" : 1018956960000,
                            "value" : "Close IE",
                            "duration" : 0,
                            "metadata" : {
                              "markerIdentifier" : "1E43DF3B-A40E-4536-907D-808149C640D0"
                            }
                          }
                        ]
                      },
                      "cursorOpacity" : 1.0,
                      "cursorTrackLevel" : 0.0,
                      "cursorScale" : 5.0,
                      "smoothCursorAcrossEditDuration" : 0
                    },
                    "medias" : [
                        {
                          "id" : 518,
                          "_type" : "ScreenVMFile",
                          "src" : 2,
                          "trackNumber" : 0,
                          "attributes" : {
                            "ident" : "Rec 4-22-2025-8-51-30-PM"
                          },
                          "parameters" : {
                            "geometryCrop0" : {
                              "type" : "double",
                              "defaultValue" : 0.0,
                              "interp" : "eioe"
                            },
                            "geometryCrop1" : {
                              "type" : "double",
                              "defaultValue" : 0.0,
                              "interp" : "eioe"
                            },
                            "geometryCrop2" : {
                              "type" : "double",
                              "defaultValue" : 0.0,
                              "interp" : "eioe"
                            },
                            "geometryCrop3" : {
                              "type" : "double",
                              "defaultValue" : 0.0,
                              "interp" : "eioe"
                            },
                            "cursorScale" : {
                              "type" : "double",
                              "defaultValue" : 0.0,
                              "interp" : "linr"
                            },
                            "cursorOpacity" : {
                              "type" : "double",
                              "defaultValue" : 0.0,
                              "interp" : "linr"
                            },
                            "cursorTrackLevel" : {
                              "type" : "double",
                              "defaultValue" : 0.0,
                              "interp" : "linr"
                            },
                            "smoothCursorAcrossEditDuration" : 0
                          },
                          "effects" : [

                          ],
                          "start" : 0,
                          "duration" : 50991360000,
                          "mediaStart" : 0,
                          "mediaDuration" : 50991360000,
                          "scalar" : 1,
                          "metadata" : {
                            "AutoAppliedSmartFocus" : "False",
                            "audiateLinkedSession" : "",
                            "clipSpeedAttribute" : { "type": "bool", "value" : false},
                            "colorAttribute" : { "type": "color", "value" : [ 0, 0, 0, 0]},
                            "default-height" : { "type": "double", "value" : 1036.8},
                            "default-translation0" : { "type": "double", "value" : 0.0},
                            "default-translation1" : { "type": "double", "value" : -194.4},
                            "default-translation2" : { "type": "double", "value" : 0.0},
                            "default-width" : { "type": "double", "value" : 1932.67572815534}
                          },
                          "animationTracks" : {

                          }
                        },
                        {
                          "id" : 519,
                          "_type" : "ScreenVMFile",
                          "src" : 2,
                          "trackNumber" : 0,
                          "attributes" : {
                            "ident" : "Rec 4-22-2025-8-51-30-PM"
                          },
                          "parameters" : {
                            "geometryCrop0" : {
                              "type" : "double",
                              "defaultValue" : 0.0,
                              "interp" : "eioe"
                            },
                            "geometryCrop1" : {
                              "type" : "double",
                              "defaultValue" : 0.0,
                              "interp" : "eioe"
                            },
                            "geometryCrop2" : {
                              "type" : "double",
                              "defaultValue" : 0.0,
                              "interp" : "eioe"
                            },
                            "geometryCrop3" : {
                              "type" : "double",
                              "defaultValue" : 0.0,
                              "interp" : "eioe"
                            },
                            "cursorScale" : {
                              "type" : "double",
                              "defaultValue" : 0.0,
                              "interp" : "linr"
                            },
                            "cursorOpacity" : {
                              "type" : "double",
                              "defaultValue" : 0.0,
                              "interp" : "linr"
                            },
                            "cursorTrackLevel" : {
                              "type" : "double",
                              "defaultValue" : 0.0,
                              "interp" : "linr"
                            },
                            "smoothCursorAcrossEditDuration" : 0
                          },
                          "effects" : [

                          ],
                          "start" : 50991360000,
                          "duration" : 46663680000,
                          "mediaStart" : 66467520000,
                          "mediaDuration" : 46663680000,
                          "scalar" : 1,
                          "metadata" : {
                            "AutoAppliedSmartFocus" : "False",
                            "audiateLinkedSession" : "",
                            "clipSpeedAttribute" : { "type": "bool", "value" : false},
                            "colorAttribute" : { "type": "color", "value" : [ 0, 0, 0, 0]},
                            "default-height" : { "type": "double", "value" : 1036.8},
                            "default-translation0" : { "type": "double", "value" : 0.0},
                            "default-translation1" : { "type": "double", "value" : -194.4},
                            "default-translation2" : { "type": "double", "value" : 0.0},
                            "default-width" : { "type": "double", "value" : 1932.67572815534}
                          },
                          "animationTracks" : {

                          }
                        },
                        {
                          "id" : 520,
                          "_type" : "ScreenVMFile",
                          "src" : 2,
                          "trackNumber" : 0,
                          "attributes" : {
                            "ident" : "Rec 4-22-2025-8-51-30-PM"
                          },
                          "parameters" : {
                            "geometryCrop0" : {
                              "type" : "double",
                              "defaultValue" : 0.0,
                              "interp" : "eioe"
                            },
                            "geometryCrop1" : {
                              "type" : "double",
                              "defaultValue" : 0.0,
                              "interp" : "eioe"
                            },
                            "geometryCrop2" : {
                              "type" : "double",
                              "defaultValue" : 0.0,
                              "interp" : "eioe"
                            },
                            "geometryCrop3" : {
                              "type" : "double",
                              "defaultValue" : 0.0,
                              "interp" : "eioe"
                            },
                            "cursorScale" : {
                              "type" : "double",
                              "defaultValue" : 0.0,
                              "interp" : "linr"
                            },
                            "cursorOpacity" : {
                              "type" : "double",
                              "defaultValue" : 0.0,
                              "interp" : "linr"
                            },
                            "cursorTrackLevel" : {
                              "type" : "double",
                              "defaultValue" : 0.0,
                              "interp" : "linr"
                            },
                            "smoothCursorAcrossEditDuration" : 0
                          },
                          "effects" : [

                          ],
                          "start" : 97655040000,
                          "duration" : 352282560000,
                          "mediaStart" : 149352000000,
                          "mediaDuration" : 352282560000,
                          "scalar" : 1,
                          "metadata" : {
                            "AutoAppliedSmartFocus" : "False",
                            "audiateLinkedSession" : "",
                            "clipSpeedAttribute" : { "type": "bool", "value" : false},
                            "colorAttribute" : { "type": "color", "value" : [ 0, 0, 0, 0]},
                            "default-height" : { "type": "double", "value" : 1036.8},
                            "default-translation0" : { "type": "double", "value" : 0.0},
                            "default-translation1" : { "type": "double", "value" : -194.4},
                            "default-translation2" : { "type": "double", "value" : 0.0},
                            "default-width" : { "type": "double", "value" : 1932.67572815534}
                          },
                          "animationTracks" : {

                          }
                        },
                        {
                          "id" : 521,
                          "_type" : "ScreenVMFile",
                          "src" : 2,
                          "trackNumber" : 0,
                          "attributes" : {
                            "ident" : "Rec 4-22-2025-8-51-30-PM"
                          },
                          "parameters" : {
                            "geometryCrop0" : {
                              "type" : "double",
                              "defaultValue" : 0.0,
                              "interp" : "eioe"
                            },
                            "geometryCrop1" : {
                              "type" : "double",
                              "defaultValue" : 0.0,
                              "interp" : "eioe"
                            },
                            "geometryCrop2" : {
                              "type" : "double",
                              "defaultValue" : 0.0,
                              "interp" : "eioe"
                            },
                            "geometryCrop3" : {
                              "type" : "double",
                              "defaultValue" : 0.0,
                              "interp" : "eioe"
                            },
                            "cursorScale" : {
                              "type" : "double",
                              "defaultValue" : 0.0,
                              "interp" : "linr"
                            },
                            "cursorOpacity" : {
                              "type" : "double",
                              "defaultValue" : 0.0,
                              "interp" : "linr"
                            },
                            "cursorTrackLevel" : {
                              "type" : "double",
                              "defaultValue" : 0.0,
                              "interp" : "linr"
                            },
                            "smoothCursorAcrossEditDuration" : 0
                          },
                          "effects" : [

                          ],
                          "start" : 449937600000,
                          "duration" : 8961120000,
                          "mediaStart" : 509843040000,
                          "mediaDuration" : 8961120000,
                          "scalar" : 1,
                          "metadata" : {
                            "AutoAppliedSmartFocus" : "False",
                            "audiateLinkedSession" : "",
                            "clipSpeedAttribute" : { "type": "bool", "value" : false},
                            "colorAttribute" : { "type": "color", "value" : [ 0, 0, 0, 0]},
                            "default-height" : { "type": "double", "value" : 1036.8},
                            "default-translation0" : { "type": "double", "value" : 0.0},
                            "default-translation1" : { "type": "double", "value" : -194.4},
                            "default-translation2" : { "type": "double", "value" : 0.0},
                            "default-width" : { "type": "double", "value" : 1932.67572815534}
                          },
                          "animationTracks" : {

                          }
                        },
                        {
                          "id" : 522,
                          "_type" : "ScreenVMFile",
                          "src" : 2,
                          "trackNumber" : 0,
                          "attributes" : {
                            "ident" : "Rec 4-22-2025-8-51-30-PM"
                          },
                          "parameters" : {
                            "geometryCrop0" : {
                              "type" : "double",
                              "defaultValue" : 0.0,
                              "interp" : "eioe"
                            },
                            "geometryCrop1" : {
                              "type" : "double",
                              "defaultValue" : 0.0,
                              "interp" : "eioe"
                            },
                            "geometryCrop2" : {
                              "type" : "double",
                              "defaultValue" : 0.0,
                              "interp" : "eioe"
                            },
                            "geometryCrop3" : {
                              "type" : "double",
                              "defaultValue" : 0.0,
                              "interp" : "eioe"
                            },
                            "cursorScale" : {
                              "type" : "double",
                              "defaultValue" : 0.0,
                              "interp" : "linr"
                            },
                            "cursorOpacity" : {
                              "type" : "double",
                              "defaultValue" : 0.0,
                              "interp" : "linr"
                            },
                            "cursorTrackLevel" : {
                              "type" : "double",
                              "defaultValue" : 0.0,
                              "interp" : "linr"
                            },
                            "smoothCursorAcrossEditDuration" : 0
                          },
                          "effects" : [

                          ],
                          "start" : 458898720000,
                          "duration" : 581226240000,
                          "mediaStart" : 1416350880000,
                          "mediaDuration" : 581226240000,
                          "scalar" : 1,
                          "metadata" : {
                            "AutoAppliedSmartFocus" : "False",
                            "audiateLinkedSession" : "",
                            "clipSpeedAttribute" : { "type": "bool", "value" : false},
                            "colorAttribute" : { "type": "color", "value" : [ 0, 0, 0, 0]},
                            "default-height" : { "type": "double", "value" : 1036.8},
                            "default-translation0" : { "type": "double", "value" : 0.0},
                            "default-translation1" : { "type": "double", "value" : -194.4},
                            "default-translation2" : { "type": "double", "value" : 0.0},
                            "default-width" : { "type": "double", "value" : 1932.67572815534}
                          },
                          "animationTracks" : {

                          }
                        },
                        {
                          "id" : 523,
                          "_type" : "ScreenVMFile",
                          "src" : 2,
                          "trackNumber" : 0,
                          "attributes" : {
                            "ident" : "Rec 4-22-2025-8-51-30-PM"
                          },
                          "parameters" : {
                            "geometryCrop0" : {
                              "type" : "double",
                              "defaultValue" : 0.0,
                              "interp" : "eioe"
                            },
                            "geometryCrop1" : {
                              "type" : "double",
                              "defaultValue" : 0.0,
                              "interp" : "eioe"
                            },
                            "geometryCrop2" : {
                              "type" : "double",
                              "defaultValue" : 0.0,
                              "interp" : "eioe"
                            },
                            "geometryCrop3" : {
                              "type" : "double",
                              "defaultValue" : 0.0,
                              "interp" : "eioe"
                            },
                            "cursorScale" : {
                              "type" : "double",
                              "defaultValue" : 0.0,
                              "interp" : "linr"
                            },
                            "cursorOpacity" : {
                              "type" : "double",
                              "defaultValue" : 0.0,
                              "interp" : "linr"
                            },
                            "cursorTrackLevel" : {
                              "type" : "double",
                              "defaultValue" : 0.0,
                              "interp" : "linr"
                            },
                            "smoothCursorAcrossEditDuration" : 0
                          },
                          "effects" : [

                          ],
                          "start" : 1040124960000,
                          "duration" : 215419680000,
                          "mediaStart" : 2018886240000,
                          "mediaDuration" : 215419680000,
                          "scalar" : 1,
                          "metadata" : {
                            "AutoAppliedSmartFocus" : "False",
                            "audiateLinkedSession" : "",
                            "clipSpeedAttribute" : { "type": "bool", "value" : false},
                            "colorAttribute" : { "type": "color", "value" : [ 0, 0, 0, 0]},
                            "default-height" : { "type": "double", "value" : 1036.8},
                            "default-translation0" : { "type": "double", "value" : 0.0},
                            "default-translation1" : { "type": "double", "value" : -194.4},
                            "default-translation2" : { "type": "double", "value" : 0.0},
                            "default-width" : { "type": "double", "value" : 1932.67572815534}
                          },
                          "animationTracks" : {

                          }
                        },
                        {
                          "id" : 524,
                          "_type" : "ScreenVMFile",
                          "src" : 2,
                          "trackNumber" : 0,
                          "attributes" : {
                            "ident" : "Rec 4-22-2025-8-51-30-PM"
                          },
                          "parameters" : {
                            "geometryCrop0" : {
                              "type" : "double",
                              "defaultValue" : 0.0,
                              "interp" : "eioe"
                            },
                            "geometryCrop1" : {
                              "type" : "double",
                              "defaultValue" : 0.0,
                              "interp" : "eioe"
                            },
                            "geometryCrop2" : {
                              "type" : "double",
                              "defaultValue" : 0.0,
                              "interp" : "eioe"
                            },
                            "geometryCrop3" : {
                              "type" : "double",
                              "defaultValue" : 0.0,
                              "interp" : "eioe"
                            },
                            "cursorScale" : {
                              "type" : "double",
                              "defaultValue" : 0.0,
                              "interp" : "linr"
                            },
                            "cursorOpacity" : {
                              "type" : "double",
                              "defaultValue" : 0.0,
                              "interp" : "linr"
                            },
                            "cursorTrackLevel" : {
                              "type" : "double",
                              "defaultValue" : 0.0,
                              "interp" : "linr"
                            },
                            "smoothCursorAcrossEditDuration" : 0
                          },
                          "effects" : [

                          ],
                          "start" : 1255544640000,
                          "duration" : 786955680000,
                          "mediaStart" : 2257778880000,
                          "mediaDuration" : 786955680000,
                          "scalar" : 1,
                          "metadata" : {
                            "AutoAppliedSmartFocus" : "False",
                            "audiateLinkedSession" : "",
                            "clipSpeedAttribute" : { "type": "bool", "value" : false},
                            "colorAttribute" : { "type": "color", "value" : [ 0, 0, 0, 0]},
                            "default-height" : { "type": "double", "value" : 1036.8},
                            "default-translation0" : { "type": "double", "value" : 0.0},
                            "default-translation1" : { "type": "double", "value" : -194.4},
                            "default-translation2" : { "type": "double", "value" : 0.0},
                            "default-width" : { "type": "double", "value" : 1932.67572815534}
                          },
                          "animationTracks" : {

                          }
                        },
                        {
                          "id" : 525,
                          "_type" : "ScreenVMFile",
                          "src" : 2,
                          "trackNumber" : 0,
                          "attributes" : {
                            "ident" : "Rec 4-22-2025-8-51-30-PM"
                          },
                          "parameters" : {
                            "geometryCrop0" : {
                              "type" : "double",
                              "defaultValue" : 0.0,
                              "interp" : "eioe"
                            },
                            "geometryCrop1" : {
                              "type" : "double",
                              "defaultValue" : 0.0,
                              "interp" : "eioe"
                            },
                            "geometryCrop2" : {
                              "type" : "double",
                              "defaultValue" : 0.0,
                              "interp" : "eioe"
                            },
                            "geometryCrop3" : {
                              "type" : "double",
                              "defaultValue" : 0.0,
                              "interp" : "eioe"
                            },
                            "cursorScale" : {
                              "type" : "double",
                              "defaultValue" : 0.0,
                              "interp" : "linr"
                            },
                            "cursorOpacity" : {
                              "type" : "double",
                              "defaultValue" : 0.0,
                              "interp" : "linr"
                            },
                            "cursorTrackLevel" : {
                              "type" : "double",
                              "defaultValue" : 0.0,
                              "interp" : "linr"
                            },
                            "smoothCursorAcrossEditDuration" : 0
                          },
                          "effects" : [

                          ],
                          "start" : 2042500320000,
                          "duration" : 20768160000,
                          "mediaStart" : 3047580480000,
                          "mediaDuration" : 20768160000,
                          "scalar" : 1,
                          "metadata" : {
                            "AutoAppliedSmartFocus" : "False",
                            "audiateLinkedSession" : "",
                            "clipSpeedAttribute" : { "type": "bool", "value" : false},
                            "colorAttribute" : { "type": "color", "value" : [ 0, 0, 0, 0]},
                            "default-height" : { "type": "double", "value" : 1036.8},
                            "default-translation0" : { "type": "double", "value" : 0.0},
                            "default-translation1" : { "type": "double", "value" : -194.4},
                            "default-translation2" : { "type": "double", "value" : 0.0},
                            "default-width" : { "type": "double", "value" : 1932.67572815534}
                          },
                          "animationTracks" : {

                          }
                        },
                        {
                          "id" : 526,
                          "_type" : "ScreenVMFile",
                          "src" : 2,
                          "trackNumber" : 0,
                          "attributes" : {
                            "ident" : "Rec 4-22-2025-8-51-30-PM"
                          },
                          "parameters" : {
                            "geometryCrop0" : {
                              "type" : "double",
                              "defaultValue" : 0.0,
                              "interp" : "eioe"
                            },
                            "geometryCrop1" : {
                              "type" : "double",
                              "defaultValue" : 0.0,
                              "interp" : "eioe"
                            },
                            "geometryCrop2" : {
                              "type" : "double",
                              "defaultValue" : 0.0,
                              "interp" : "eioe"
                            },
                            "geometryCrop3" : {
                              "type" : "double",
                              "defaultValue" : 0.0,
                              "interp" : "eioe"
                            },
                            "cursorScale" : {
                              "type" : "double",
                              "defaultValue" : 0.0,
                              "interp" : "linr"
                            },
                            "cursorOpacity" : {
                              "type" : "double",
                              "defaultValue" : 0.0,
                              "interp" : "linr"
                            },
                            "cursorTrackLevel" : {
                              "type" : "double",
                              "defaultValue" : 0.0,
                              "interp" : "linr"
                            },
                            "smoothCursorAcrossEditDuration" : 0
                          },
                          "effects" : [

                          ],
                          "start" : 2063268480000,
                          "duration" : 343039200000,
                          "mediaStart" : 3138932160000,
                          "mediaDuration" : 343039200000,
                          "scalar" : 1,
                          "metadata" : {
                            "AutoAppliedSmartFocus" : "False",
                            "audiateLinkedSession" : "",
                            "clipSpeedAttribute" : { "type": "bool", "value" : false},
                            "colorAttribute" : { "type": "color", "value" : [ 0, 0, 0, 0]},
                            "default-height" : { "type": "double", "value" : 1036.8},
                            "default-translation0" : { "type": "double", "value" : 0.0},
                            "default-translation1" : { "type": "double", "value" : -194.4},
                            "default-translation2" : { "type": "double", "value" : 0.0},
                            "default-width" : { "type": "double", "value" : 1932.67572815534}
                          },
                          "animationTracks" : {

                          }
                        }
                    ],
                    "effects" : [
                        {
                          "effectName" : "CursorColor",
                          "bypassed" : false,
                          "category" : "categoryCursorEffects",
                          "parameters" : {
                            "intensity" : 1.0,
                            "desaturation" : 0.0,
                            "colorLumaCutoff" : 1.0,
                            "color-alpha" : 1.0,
                            "color-red" : 1.0,
                            "color-green" : 0.8980392157,
                            "color-blue" : 0.1215686275,
                            "secondColor-red" : 0.0,
                            "secondColor-green" : 0.0,
                            "secondColor-blue" : 0.0,
                            "secondColor-alpha" : 1.0,
                            "secondColorLumaCutoff" : 0.0,
                            "channel" : 0,
                            "shadowRampStart" : 0.0,
                            "shadowRampEnd" : 0.0,
                            "highlightRampStart" : 1.0,
                            "highlightRampEnd" : 1.0
                          }
                        },
                        {
                          "effectName" : "CursorShadow",
                          "bypassed" : false,
                          "category" : "categoryCursorEffects",
                          "parameters" : {
                            "angle" : 3.92699081698724,
                            "enabled" : 1,
                            "offset" : 5.0,
                            "blur" : 2.0,
                            "opacity" : 0.25,
                            "color-red" : 0.0,
                            "color-green" : 0.0,
                            "color-blue" : 0.0,
                            "color-alpha" : 1.0
                          }
                        },
                        {
                          "effectName" : "CursorHilight",
                          "bypassed" : false,
                          "category" : "categoryCursorEffects",
                          "parameters" : {
                            "radius" : 50.0,
                            "color-red" : 1.0,
                            "color-green" : 1.0,
                            "color-blue" : 0.0,
                            "color-alpha" : 0.75,
                            "blur" : 0.1
                          }
                        }
                    ],
                    "start" : 114989280000,
                    "duration" : 23520000,
                    "mediaStart" : 1018933440000,
                    "mediaDuration" : "9664368000/13",
                    "scalar" : "23520000/743412923",
                    "metadata" : {
                      "AutoAppliedSmartFocus" : "False",
                      "audiateLinkedSession" : "",
                      "clipSpeedAttribute" : { "type": "bool", "value" : true},
                      "colorAttribute" : { "type": "color", "value" : [ 0, 0, 0, 0]},
                      "default-height" : { "type": "double", "value" : 1036.8},
                      "default-translation0" : { "type": "double", "value" : 0.0},
                      "default-translation1" : { "type": "double", "value" : -194.4},
                      "default-translation2" : { "type": "double", "value" : 0.0},
                      "default-width" : { "type": "double", "value" : 1932.67572815534}
                    },
                    "animationTracks" : {

                    }
                  },
                  {
                    "id" : 527,
                    "_type" : "StitchedMedia",
                    "minMediaStart" : 0,
                    "attributes" : {
                      "ident" : "Rec 4-22-2025-8-51-30-PM",
                      "gain" : 1.0,
                      "mixToMono" : false,
                      "loudnessNormalization" : true,
                      "sourceFileOffset" : 0
                    },
                    "parameters" : {
                      "translation0" : 6.33786407766917,
                      "translation1" : -2.8421709430404e-14,
                      "scale0" : 0.503300970873786,
                      "scale1" : 0.503300970873786,
                      "geometryCrop0" : 0.0,
                      "geometryCrop1" : 0.0,
                      "geometryCrop2" : 0.0,
                      "geometryCrop3" : 0.0,
                      "cursorOpacity" : 1.0,
                      "cursorTrackLevel" : 0.0,
                      "cursorScale" : 5.0,
                      "smoothCursorAcrossEditDuration" : 0
                    },
                    "medias" : [
                        {
                          "id" : 528,
                          "_type" : "ScreenVMFile",
                          "src" : 2,
                          "trackNumber" : 0,
                          "attributes" : {
                            "ident" : "Rec 4-22-2025-8-51-30-PM"
                          },
                          "parameters" : {
                            "geometryCrop0" : {
                              "type" : "double",
                              "defaultValue" : 0.0,
                              "interp" : "eioe"
                            },
                            "geometryCrop1" : {
                              "type" : "double",
                              "defaultValue" : 0.0,
                              "interp" : "eioe"
                            },
                            "geometryCrop2" : {
                              "type" : "double",
                              "defaultValue" : 0.0,
                              "interp" : "eioe"
                            },
                            "geometryCrop3" : {
                              "type" : "double",
                              "defaultValue" : 0.0,
                              "interp" : "eioe"
                            },
                            "cursorScale" : {
                              "type" : "double",
                              "defaultValue" : 0.0,
                              "interp" : "linr"
                            },
                            "cursorOpacity" : {
                              "type" : "double",
                              "defaultValue" : 0.0,
                              "interp" : "linr"
                            },
                            "cursorTrackLevel" : {
                              "type" : "double",
                              "defaultValue" : 0.0,
                              "interp" : "linr"
                            },
                            "smoothCursorAcrossEditDuration" : 0
                          },
                          "effects" : [

                          ],
                          "start" : 0,
                          "duration" : 50991360000,
                          "mediaStart" : 0,
                          "mediaDuration" : 50991360000,
                          "scalar" : 1,
                          "metadata" : {
                            "AutoAppliedSmartFocus" : "False",
                            "audiateLinkedSession" : "",
                            "clipSpeedAttribute" : { "type": "bool", "value" : false},
                            "colorAttribute" : { "type": "color", "value" : [ 0, 0, 0, 0]},
                            "default-height" : { "type": "double", "value" : 1036.8},
                            "default-translation0" : { "type": "double", "value" : 0.0},
                            "default-translation1" : { "type": "double", "value" : -194.4},
                            "default-translation2" : { "type": "double", "value" : 0.0},
                            "default-width" : { "type": "double", "value" : 1932.67572815534}
                          },
                          "animationTracks" : {

                          }
                        },
                        {
                          "id" : 529,
                          "_type" : "ScreenVMFile",
                          "src" : 2,
                          "trackNumber" : 0,
                          "attributes" : {
                            "ident" : "Rec 4-22-2025-8-51-30-PM"
                          },
                          "parameters" : {
                            "geometryCrop0" : {
                              "type" : "double",
                              "defaultValue" : 0.0,
                              "interp" : "eioe"
                            },
                            "geometryCrop1" : {
                              "type" : "double",
                              "defaultValue" : 0.0,
                              "interp" : "eioe"
                            },
                            "geometryCrop2" : {
                              "type" : "double",
                              "defaultValue" : 0.0,
                              "interp" : "eioe"
                            },
                            "geometryCrop3" : {
                              "type" : "double",
                              "defaultValue" : 0.0,
                              "interp" : "eioe"
                            },
                            "cursorScale" : {
                              "type" : "double",
                              "defaultValue" : 0.0,
                              "interp" : "linr"
                            },
                            "cursorOpacity" : {
                              "type" : "double",
                              "defaultValue" : 0.0,
                              "interp" : "linr"
                            },
                            "cursorTrackLevel" : {
                              "type" : "double",
                              "defaultValue" : 0.0,
                              "interp" : "linr"
                            },
                            "smoothCursorAcrossEditDuration" : 0
                          },
                          "effects" : [

                          ],
                          "start" : 50991360000,
                          "duration" : 46663680000,
                          "mediaStart" : 66467520000,
                          "mediaDuration" : 46663680000,
                          "scalar" : 1,
                          "metadata" : {
                            "AutoAppliedSmartFocus" : "False",
                            "audiateLinkedSession" : "",
                            "clipSpeedAttribute" : { "type": "bool", "value" : false},
                            "colorAttribute" : { "type": "color", "value" : [ 0, 0, 0, 0]},
                            "default-height" : { "type": "double", "value" : 1036.8},
                            "default-translation0" : { "type": "double", "value" : 0.0},
                            "default-translation1" : { "type": "double", "value" : -194.4},
                            "default-translation2" : { "type": "double", "value" : 0.0},
                            "default-width" : { "type": "double", "value" : 1932.67572815534}
                          },
                          "animationTracks" : {

                          }
                        },
                        {
                          "id" : 530,
                          "_type" : "ScreenVMFile",
                          "src" : 2,
                          "trackNumber" : 0,
                          "attributes" : {
                            "ident" : "Rec 4-22-2025-8-51-30-PM"
                          },
                          "parameters" : {
                            "geometryCrop0" : {
                              "type" : "double",
                              "defaultValue" : 0.0,
                              "interp" : "eioe"
                            },
                            "geometryCrop1" : {
                              "type" : "double",
                              "defaultValue" : 0.0,
                              "interp" : "eioe"
                            },
                            "geometryCrop2" : {
                              "type" : "double",
                              "defaultValue" : 0.0,
                              "interp" : "eioe"
                            },
                            "geometryCrop3" : {
                              "type" : "double",
                              "defaultValue" : 0.0,
                              "interp" : "eioe"
                            },
                            "cursorScale" : {
                              "type" : "double",
                              "defaultValue" : 0.0,
                              "interp" : "linr"
                            },
                            "cursorOpacity" : {
                              "type" : "double",
                              "defaultValue" : 0.0,
                              "interp" : "linr"
                            },
                            "cursorTrackLevel" : {
                              "type" : "double",
                              "defaultValue" : 0.0,
                              "interp" : "linr"
                            },
                            "smoothCursorAcrossEditDuration" : 0
                          },
                          "effects" : [

                          ],
                          "start" : 97655040000,
                          "duration" : 352282560000,
                          "mediaStart" : 149352000000,
                          "mediaDuration" : 352282560000,
                          "scalar" : 1,
                          "metadata" : {
                            "AutoAppliedSmartFocus" : "False",
                            "audiateLinkedSession" : "",
                            "clipSpeedAttribute" : { "type": "bool", "value" : false},
                            "colorAttribute" : { "type": "color", "value" : [ 0, 0, 0, 0]},
                            "default-height" : { "type": "double", "value" : 1036.8},
                            "default-translation0" : { "type": "double", "value" : 0.0},
                            "default-translation1" : { "type": "double", "value" : -194.4},
                            "default-translation2" : { "type": "double", "value" : 0.0},
                            "default-width" : { "type": "double", "value" : 1932.67572815534}
                          },
                          "animationTracks" : {

                          }
                        },
                        {
                          "id" : 531,
                          "_type" : "ScreenVMFile",
                          "src" : 2,
                          "trackNumber" : 0,
                          "attributes" : {
                            "ident" : "Rec 4-22-2025-8-51-30-PM"
                          },
                          "parameters" : {
                            "geometryCrop0" : {
                              "type" : "double",
                              "defaultValue" : 0.0,
                              "interp" : "eioe"
                            },
                            "geometryCrop1" : {
                              "type" : "double",
                              "defaultValue" : 0.0,
                              "interp" : "eioe"
                            },
                            "geometryCrop2" : {
                              "type" : "double",
                              "defaultValue" : 0.0,
                              "interp" : "eioe"
                            },
                            "geometryCrop3" : {
                              "type" : "double",
                              "defaultValue" : 0.0,
                              "interp" : "eioe"
                            },
                            "cursorScale" : {
                              "type" : "double",
                              "defaultValue" : 0.0,
                              "interp" : "linr"
                            },
                            "cursorOpacity" : {
                              "type" : "double",
                              "defaultValue" : 0.0,
                              "interp" : "linr"
                            },
                            "cursorTrackLevel" : {
                              "type" : "double",
                              "defaultValue" : 0.0,
                              "interp" : "linr"
                            },
                            "smoothCursorAcrossEditDuration" : 0
                          },
                          "effects" : [

                          ],
                          "start" : 449937600000,
                          "duration" : 8961120000,
                          "mediaStart" : 509843040000,
                          "mediaDuration" : 8961120000,
                          "scalar" : 1,
                          "metadata" : {
                            "AutoAppliedSmartFocus" : "False",
                            "audiateLinkedSession" : "",
                            "clipSpeedAttribute" : { "type": "bool", "value" : false},
                            "colorAttribute" : { "type": "color", "value" : [ 0, 0, 0, 0]},
                            "default-height" : { "type": "double", "value" : 1036.8},
                            "default-translation0" : { "type": "double", "value" : 0.0},
                            "default-translation1" : { "type": "double", "value" : -194.4},
                            "default-translation2" : { "type": "double", "value" : 0.0},
                            "default-width" : { "type": "double", "value" : 1932.67572815534}
                          },
                          "animationTracks" : {

                          }
                        },
                        {
                          "id" : 532,
                          "_type" : "ScreenVMFile",
                          "src" : 2,
                          "trackNumber" : 0,
                          "attributes" : {
                            "ident" : "Rec 4-22-2025-8-51-30-PM"
                          },
                          "parameters" : {
                            "geometryCrop0" : {
                              "type" : "double",
                              "defaultValue" : 0.0,
                              "interp" : "eioe"
                            },
                            "geometryCrop1" : {
                              "type" : "double",
                              "defaultValue" : 0.0,
                              "interp" : "eioe"
                            },
                            "geometryCrop2" : {
                              "type" : "double",
                              "defaultValue" : 0.0,
                              "interp" : "eioe"
                            },
                            "geometryCrop3" : {
                              "type" : "double",
                              "defaultValue" : 0.0,
                              "interp" : "eioe"
                            },
                            "cursorScale" : {
                              "type" : "double",
                              "defaultValue" : 0.0,
                              "interp" : "linr"
                            },
                            "cursorOpacity" : {
                              "type" : "double",
                              "defaultValue" : 0.0,
                              "interp" : "linr"
                            },
                            "cursorTrackLevel" : {
                              "type" : "double",
                              "defaultValue" : 0.0,
                              "interp" : "linr"
                            },
                            "smoothCursorAcrossEditDuration" : 0
                          },
                          "effects" : [

                          ],
                          "start" : 458898720000,
                          "duration" : 581226240000,
                          "mediaStart" : 1416350880000,
                          "mediaDuration" : 581226240000,
                          "scalar" : 1,
                          "metadata" : {
                            "AutoAppliedSmartFocus" : "False",
                            "audiateLinkedSession" : "",
                            "clipSpeedAttribute" : { "type": "bool", "value" : false},
                            "colorAttribute" : { "type": "color", "value" : [ 0, 0, 0, 0]},
                            "default-height" : { "type": "double", "value" : 1036.8},
                            "default-translation0" : { "type": "double", "value" : 0.0},
                            "default-translation1" : { "type": "double", "value" : -194.4},
                            "default-translation2" : { "type": "double", "value" : 0.0},
                            "default-width" : { "type": "double", "value" : 1932.67572815534}
                          },
                          "animationTracks" : {

                          }
                        },
                        {
                          "id" : 533,
                          "_type" : "ScreenVMFile",
                          "src" : 2,
                          "trackNumber" : 0,
                          "attributes" : {
                            "ident" : "Rec 4-22-2025-8-51-30-PM"
                          },
                          "parameters" : {
                            "geometryCrop0" : {
                              "type" : "double",
                              "defaultValue" : 0.0,
                              "interp" : "eioe"
                            },
                            "geometryCrop1" : {
                              "type" : "double",
                              "defaultValue" : 0.0,
                              "interp" : "eioe"
                            },
                            "geometryCrop2" : {
                              "type" : "double",
                              "defaultValue" : 0.0,
                              "interp" : "eioe"
                            },
                            "geometryCrop3" : {
                              "type" : "double",
                              "defaultValue" : 0.0,
                              "interp" : "eioe"
                            },
                            "cursorScale" : {
                              "type" : "double",
                              "defaultValue" : 0.0,
                              "interp" : "linr"
                            },
                            "cursorOpacity" : {
                              "type" : "double",
                              "defaultValue" : 0.0,
                              "interp" : "linr"
                            },
                            "cursorTrackLevel" : {
                              "type" : "double",
                              "defaultValue" : 0.0,
                              "interp" : "linr"
                            },
                            "smoothCursorAcrossEditDuration" : 0
                          },
                          "effects" : [

                          ],
                          "start" : 1040124960000,
                          "duration" : 215419680000,
                          "mediaStart" : 2018886240000,
                          "mediaDuration" : 215419680000,
                          "scalar" : 1,
                          "metadata" : {
                            "AutoAppliedSmartFocus" : "False",
                            "audiateLinkedSession" : "",
                            "clipSpeedAttribute" : { "type": "bool", "value" : false},
                            "colorAttribute" : { "type": "color", "value" : [ 0, 0, 0, 0]},
                            "default-height" : { "type": "double", "value" : 1036.8},
                            "default-translation0" : { "type": "double", "value" : 0.0},
                            "default-translation1" : { "type": "double", "value" : -194.4},
                            "default-translation2" : { "type": "double", "value" : 0.0},
                            "default-width" : { "type": "double", "value" : 1932.67572815534}
                          },
                          "animationTracks" : {

                          }
                        },
                        {
                          "id" : 534,
                          "_type" : "ScreenVMFile",
                          "src" : 2,
                          "trackNumber" : 0,
                          "attributes" : {
                            "ident" : "Rec 4-22-2025-8-51-30-PM"
                          },
                          "parameters" : {
                            "geometryCrop0" : {
                              "type" : "double",
                              "defaultValue" : 0.0,
                              "interp" : "eioe"
                            },
                            "geometryCrop1" : {
                              "type" : "double",
                              "defaultValue" : 0.0,
                              "interp" : "eioe"
                            },
                            "geometryCrop2" : {
                              "type" : "double",
                              "defaultValue" : 0.0,
                              "interp" : "eioe"
                            },
                            "geometryCrop3" : {
                              "type" : "double",
                              "defaultValue" : 0.0,
                              "interp" : "eioe"
                            },
                            "cursorScale" : {
                              "type" : "double",
                              "defaultValue" : 0.0,
                              "interp" : "linr"
                            },
                            "cursorOpacity" : {
                              "type" : "double",
                              "defaultValue" : 0.0,
                              "interp" : "linr"
                            },
                            "cursorTrackLevel" : {
                              "type" : "double",
                              "defaultValue" : 0.0,
                              "interp" : "linr"
                            },
                            "smoothCursorAcrossEditDuration" : 0
                          },
                          "effects" : [

                          ],
                          "start" : 1255544640000,
                          "duration" : 786955680000,
                          "mediaStart" : 2257778880000,
                          "mediaDuration" : 786955680000,
                          "scalar" : 1,
                          "metadata" : {
                            "AutoAppliedSmartFocus" : "False",
                            "audiateLinkedSession" : "",
                            "clipSpeedAttribute" : { "type": "bool", "value" : false},
                            "colorAttribute" : { "type": "color", "value" : [ 0, 0, 0, 0]},
                            "default-height" : { "type": "double", "value" : 1036.8},
                            "default-translation0" : { "type": "double", "value" : 0.0},
                            "default-translation1" : { "type": "double", "value" : -194.4},
                            "default-translation2" : { "type": "double", "value" : 0.0},
                            "default-width" : { "type": "double", "value" : 1932.67572815534}
                          },
                          "animationTracks" : {

                          }
                        },
                        {
                          "id" : 535,
                          "_type" : "ScreenVMFile",
                          "src" : 2,
                          "trackNumber" : 0,
                          "attributes" : {
                            "ident" : "Rec 4-22-2025-8-51-30-PM"
                          },
                          "parameters" : {
                            "geometryCrop0" : {
                              "type" : "double",
                              "defaultValue" : 0.0,
                              "interp" : "eioe"
                            },
                            "geometryCrop1" : {
                              "type" : "double",
                              "defaultValue" : 0.0,
                              "interp" : "eioe"
                            },
                            "geometryCrop2" : {
                              "type" : "double",
                              "defaultValue" : 0.0,
                              "interp" : "eioe"
                            },
                            "geometryCrop3" : {
                              "type" : "double",
                              "defaultValue" : 0.0,
                              "interp" : "eioe"
                            },
                            "cursorScale" : {
                              "type" : "double",
                              "defaultValue" : 0.0,
                              "interp" : "linr"
                            },
                            "cursorOpacity" : {
                              "type" : "double",
                              "defaultValue" : 0.0,
                              "interp" : "linr"
                            },
                            "cursorTrackLevel" : {
                              "type" : "double",
                              "defaultValue" : 0.0,
                              "interp" : "linr"
                            },
                            "smoothCursorAcrossEditDuration" : 0
                          },
                          "effects" : [

                          ],
                          "start" : 2042500320000,
                          "duration" : 20768160000,
                          "mediaStart" : 3047580480000,
                          "mediaDuration" : 20768160000,
                          "scalar" : 1,
                          "metadata" : {
                            "AutoAppliedSmartFocus" : "False",
                            "audiateLinkedSession" : "",
                            "clipSpeedAttribute" : { "type": "bool", "value" : false},
                            "colorAttribute" : { "type": "color", "value" : [ 0, 0, 0, 0]},
                            "default-height" : { "type": "double", "value" : 1036.8},
                            "default-translation0" : { "type": "double", "value" : 0.0},
                            "default-translation1" : { "type": "double", "value" : -194.4},
                            "default-translation2" : { "type": "double", "value" : 0.0},
                            "default-width" : { "type": "double", "value" : 1932.67572815534}
                          },
                          "animationTracks" : {

                          }
                        },
                        {
                          "id" : 536,
                          "_type" : "ScreenVMFile",
                          "src" : 2,
                          "trackNumber" : 0,
                          "attributes" : {
                            "ident" : "Rec 4-22-2025-8-51-30-PM"
                          },
                          "parameters" : {
                            "geometryCrop0" : {
                              "type" : "double",
                              "defaultValue" : 0.0,
                              "interp" : "eioe"
                            },
                            "geometryCrop1" : {
                              "type" : "double",
                              "defaultValue" : 0.0,
                              "interp" : "eioe"
                            },
                            "geometryCrop2" : {
                              "type" : "double",
                              "defaultValue" : 0.0,
                              "interp" : "eioe"
                            },
                            "geometryCrop3" : {
                              "type" : "double",
                              "defaultValue" : 0.0,
                              "interp" : "eioe"
                            },
                            "cursorScale" : {
                              "type" : "double",
                              "defaultValue" : 0.0,
                              "interp" : "linr"
                            },
                            "cursorOpacity" : {
                              "type" : "double",
                              "defaultValue" : 0.0,
                              "interp" : "linr"
                            },
                            "cursorTrackLevel" : {
                              "type" : "double",
                              "defaultValue" : 0.0,
                              "interp" : "linr"
                            },
                            "smoothCursorAcrossEditDuration" : 0
                          },
                          "effects" : [

                          ],
                          "start" : 2063268480000,
                          "duration" : 343039200000,
                          "mediaStart" : 3138932160000,
                          "mediaDuration" : 343039200000,
                          "scalar" : 1,
                          "metadata" : {
                            "AutoAppliedSmartFocus" : "False",
                            "audiateLinkedSession" : "",
                            "clipSpeedAttribute" : { "type": "bool", "value" : false},
                            "colorAttribute" : { "type": "color", "value" : [ 0, 0, 0, 0]},
                            "default-height" : { "type": "double", "value" : 1036.8},
                            "default-translation0" : { "type": "double", "value" : 0.0},
                            "default-translation1" : { "type": "double", "value" : -194.4},
                            "default-translation2" : { "type": "double", "value" : 0.0},
                            "default-width" : { "type": "double", "value" : 1932.67572815534}
                          },
                          "animationTracks" : {

                          }
                        }
                    ],
                    "effects" : [
                        {
                          "effectName" : "CursorColor",
                          "bypassed" : false,
                          "category" : "categoryCursorEffects",
                          "parameters" : {
                            "intensity" : 1.0,
                            "desaturation" : 0.0,
                            "colorLumaCutoff" : 1.0,
                            "color-alpha" : 1.0,
                            "color-red" : 1.0,
                            "color-green" : 0.8980392157,
                            "color-blue" : 0.1215686275,
                            "secondColor-red" : 0.0,
                            "secondColor-green" : 0.0,
                            "secondColor-blue" : 0.0,
                            "secondColor-alpha" : 1.0,
                            "secondColorLumaCutoff" : 0.0,
                            "channel" : 0,
                            "shadowRampStart" : 0.0,
                            "shadowRampEnd" : 0.0,
                            "highlightRampStart" : 1.0,
                            "highlightRampEnd" : 1.0
                          }
                        },
                        {
                          "effectName" : "CursorShadow",
                          "bypassed" : false,
                          "category" : "categoryCursorEffects",
                          "parameters" : {
                            "angle" : 3.92699081698724,
                            "enabled" : 1,
                            "offset" : 5.0,
                            "blur" : 2.0,
                            "opacity" : 0.25,
                            "color-red" : 0.0,
                            "color-green" : 0.0,
                            "color-blue" : 0.0,
                            "color-alpha" : 1.0
                          }
                        },
                        {
                          "effectName" : "CursorHilight",
                          "bypassed" : false,
                          "category" : "categoryCursorEffects",
                          "parameters" : {
                            "radius" : 50.0,
                            "color-red" : 1.0,
                            "color-green" : 1.0,
                            "color-blue" : 0.0,
                            "color-alpha" : 0.75,
                            "blur" : 0.1
                          }
                        }
                    ],
                    "start" : 115012800000,
                    "duration" : 23520000,
                    "mediaStart" : "14492838192000/13",
                    "mediaDuration" : "9664368000/13",
                    "scalar" : "23520000/743412923",
                    "metadata" : {
                      "AutoAppliedSmartFocus" : "False",
                      "audiateLinkedSession" : "",
                      "clipSpeedAttribute" : { "type": "bool", "value" : true},
                      "colorAttribute" : { "type": "color", "value" : [ 0, 0, 0, 0]},
                      "default-height" : { "type": "double", "value" : 1036.8},
                      "default-translation0" : { "type": "double", "value" : 0.0},
                      "default-translation1" : { "type": "double", "value" : -194.4},
                      "default-translation2" : { "type": "double", "value" : 0.0},
                      "default-width" : { "type": "double", "value" : 1932.67572815534}
                    },
                    "animationTracks" : {

                    }
                  },
                  {
                    "id" : 537,
                    "_type" : "StitchedMedia",
                    "minMediaStart" : 0,
                    "attributes" : {
                      "ident" : "Rec 4-22-2025-8-51-30-PM",
                      "gain" : 1.0,
                      "mixToMono" : false,
                      "loudnessNormalization" : true,
                      "sourceFileOffset" : 0
                    },
                    "parameters" : {
                      "translation0" : 6.33786407766917,
                      "translation1" : -2.8421709430404e-14,
                      "scale0" : 0.503300970873786,
                      "scale1" : 0.503300970873786,
                      "geometryCrop0" : 0.0,
                      "geometryCrop1" : 0.0,
                      "geometryCrop2" : 0.0,
                      "geometryCrop3" : 0.0,
                      "toc" : {
                        "type" : "string",
                        "keyframes" : [
                          {
                            "endTime" : 1115577120000,
                            "time" : 1115577120000,
                            "value" : "CI Retriggered",
                            "duration" : 0,
                            "metadata" : {
                              "markerIdentifier" : "01C33788-42E3-461C-A934-8057E772BC8F"
                            }
                          }
                        ]
                      },
                      "cursorOpacity" : 1.0,
                      "cursorTrackLevel" : 0.0,
                      "cursorScale" : 5.0,
                      "smoothCursorAcrossEditDuration" : 0
                    },
                    "medias" : [
                        {
                          "id" : 538,
                          "_type" : "ScreenVMFile",
                          "src" : 2,
                          "trackNumber" : 0,
                          "attributes" : {
                            "ident" : "Rec 4-22-2025-8-51-30-PM"
                          },
                          "parameters" : {
                            "geometryCrop0" : {
                              "type" : "double",
                              "defaultValue" : 0.0,
                              "interp" : "eioe"
                            },
                            "geometryCrop1" : {
                              "type" : "double",
                              "defaultValue" : 0.0,
                              "interp" : "eioe"
                            },
                            "geometryCrop2" : {
                              "type" : "double",
                              "defaultValue" : 0.0,
                              "interp" : "eioe"
                            },
                            "geometryCrop3" : {
                              "type" : "double",
                              "defaultValue" : 0.0,
                              "interp" : "eioe"
                            },
                            "cursorScale" : {
                              "type" : "double",
                              "defaultValue" : 0.0,
                              "interp" : "linr"
                            },
                            "cursorOpacity" : {
                              "type" : "double",
                              "defaultValue" : 0.0,
                              "interp" : "linr"
                            },
                            "cursorTrackLevel" : {
                              "type" : "double",
                              "defaultValue" : 0.0,
                              "interp" : "linr"
                            },
                            "smoothCursorAcrossEditDuration" : 0
                          },
                          "effects" : [

                          ],
                          "start" : 0,
                          "duration" : 50991360000,
                          "mediaStart" : 0,
                          "mediaDuration" : 50991360000,
                          "scalar" : 1,
                          "metadata" : {
                            "AutoAppliedSmartFocus" : "False",
                            "audiateLinkedSession" : "",
                            "clipSpeedAttribute" : { "type": "bool", "value" : false},
                            "colorAttribute" : { "type": "color", "value" : [ 0, 0, 0, 0]},
                            "default-height" : { "type": "double", "value" : 1036.8},
                            "default-translation0" : { "type": "double", "value" : 0.0},
                            "default-translation1" : { "type": "double", "value" : -194.4},
                            "default-translation2" : { "type": "double", "value" : 0.0},
                            "default-width" : { "type": "double", "value" : 1932.67572815534}
                          },
                          "animationTracks" : {

                          }
                        },
                        {
                          "id" : 539,
                          "_type" : "ScreenVMFile",
                          "src" : 2,
                          "trackNumber" : 0,
                          "attributes" : {
                            "ident" : "Rec 4-22-2025-8-51-30-PM"
                          },
                          "parameters" : {
                            "geometryCrop0" : {
                              "type" : "double",
                              "defaultValue" : 0.0,
                              "interp" : "eioe"
                            },
                            "geometryCrop1" : {
                              "type" : "double",
                              "defaultValue" : 0.0,
                              "interp" : "eioe"
                            },
                            "geometryCrop2" : {
                              "type" : "double",
                              "defaultValue" : 0.0,
                              "interp" : "eioe"
                            },
                            "geometryCrop3" : {
                              "type" : "double",
                              "defaultValue" : 0.0,
                              "interp" : "eioe"
                            },
                            "cursorScale" : {
                              "type" : "double",
                              "defaultValue" : 0.0,
                              "interp" : "linr"
                            },
                            "cursorOpacity" : {
                              "type" : "double",
                              "defaultValue" : 0.0,
                              "interp" : "linr"
                            },
                            "cursorTrackLevel" : {
                              "type" : "double",
                              "defaultValue" : 0.0,
                              "interp" : "linr"
                            },
                            "smoothCursorAcrossEditDuration" : 0
                          },
                          "effects" : [

                          ],
                          "start" : 50991360000,
                          "duration" : 46663680000,
                          "mediaStart" : 66467520000,
                          "mediaDuration" : 46663680000,
                          "scalar" : 1,
                          "metadata" : {
                            "AutoAppliedSmartFocus" : "False",
                            "audiateLinkedSession" : "",
                            "clipSpeedAttribute" : { "type": "bool", "value" : false},
                            "colorAttribute" : { "type": "color", "value" : [ 0, 0, 0, 0]},
                            "default-height" : { "type": "double", "value" : 1036.8},
                            "default-translation0" : { "type": "double", "value" : 0.0},
                            "default-translation1" : { "type": "double", "value" : -194.4},
                            "default-translation2" : { "type": "double", "value" : 0.0},
                            "default-width" : { "type": "double", "value" : 1932.67572815534}
                          },
                          "animationTracks" : {

                          }
                        },
                        {
                          "id" : 540,
                          "_type" : "ScreenVMFile",
                          "src" : 2,
                          "trackNumber" : 0,
                          "attributes" : {
                            "ident" : "Rec 4-22-2025-8-51-30-PM"
                          },
                          "parameters" : {
                            "geometryCrop0" : {
                              "type" : "double",
                              "defaultValue" : 0.0,
                              "interp" : "eioe"
                            },
                            "geometryCrop1" : {
                              "type" : "double",
                              "defaultValue" : 0.0,
                              "interp" : "eioe"
                            },
                            "geometryCrop2" : {
                              "type" : "double",
                              "defaultValue" : 0.0,
                              "interp" : "eioe"
                            },
                            "geometryCrop3" : {
                              "type" : "double",
                              "defaultValue" : 0.0,
                              "interp" : "eioe"
                            },
                            "cursorScale" : {
                              "type" : "double",
                              "defaultValue" : 0.0,
                              "interp" : "linr"
                            },
                            "cursorOpacity" : {
                              "type" : "double",
                              "defaultValue" : 0.0,
                              "interp" : "linr"
                            },
                            "cursorTrackLevel" : {
                              "type" : "double",
                              "defaultValue" : 0.0,
                              "interp" : "linr"
                            },
                            "smoothCursorAcrossEditDuration" : 0
                          },
                          "effects" : [

                          ],
                          "start" : 97655040000,
                          "duration" : 352282560000,
                          "mediaStart" : 149352000000,
                          "mediaDuration" : 352282560000,
                          "scalar" : 1,
                          "metadata" : {
                            "AutoAppliedSmartFocus" : "False",
                            "audiateLinkedSession" : "",
                            "clipSpeedAttribute" : { "type": "bool", "value" : false},
                            "colorAttribute" : { "type": "color", "value" : [ 0, 0, 0, 0]},
                            "default-height" : { "type": "double", "value" : 1036.8},
                            "default-translation0" : { "type": "double", "value" : 0.0},
                            "default-translation1" : { "type": "double", "value" : -194.4},
                            "default-translation2" : { "type": "double", "value" : 0.0},
                            "default-width" : { "type": "double", "value" : 1932.67572815534}
                          },
                          "animationTracks" : {

                          }
                        },
                        {
                          "id" : 541,
                          "_type" : "ScreenVMFile",
                          "src" : 2,
                          "trackNumber" : 0,
                          "attributes" : {
                            "ident" : "Rec 4-22-2025-8-51-30-PM"
                          },
                          "parameters" : {
                            "geometryCrop0" : {
                              "type" : "double",
                              "defaultValue" : 0.0,
                              "interp" : "eioe"
                            },
                            "geometryCrop1" : {
                              "type" : "double",
                              "defaultValue" : 0.0,
                              "interp" : "eioe"
                            },
                            "geometryCrop2" : {
                              "type" : "double",
                              "defaultValue" : 0.0,
                              "interp" : "eioe"
                            },
                            "geometryCrop3" : {
                              "type" : "double",
                              "defaultValue" : 0.0,
                              "interp" : "eioe"
                            },
                            "cursorScale" : {
                              "type" : "double",
                              "defaultValue" : 0.0,
                              "interp" : "linr"
                            },
                            "cursorOpacity" : {
                              "type" : "double",
                              "defaultValue" : 0.0,
                              "interp" : "linr"
                            },
                            "cursorTrackLevel" : {
                              "type" : "double",
                              "defaultValue" : 0.0,
                              "interp" : "linr"
                            },
                            "smoothCursorAcrossEditDuration" : 0
                          },
                          "effects" : [

                          ],
                          "start" : 449937600000,
                          "duration" : 8961120000,
                          "mediaStart" : 509843040000,
                          "mediaDuration" : 8961120000,
                          "scalar" : 1,
                          "metadata" : {
                            "AutoAppliedSmartFocus" : "False",
                            "audiateLinkedSession" : "",
                            "clipSpeedAttribute" : { "type": "bool", "value" : false},
                            "colorAttribute" : { "type": "color", "value" : [ 0, 0, 0, 0]},
                            "default-height" : { "type": "double", "value" : 1036.8},
                            "default-translation0" : { "type": "double", "value" : 0.0},
                            "default-translation1" : { "type": "double", "value" : -194.4},
                            "default-translation2" : { "type": "double", "value" : 0.0},
                            "default-width" : { "type": "double", "value" : 1932.67572815534}
                          },
                          "animationTracks" : {

                          }
                        },
                        {
                          "id" : 542,
                          "_type" : "ScreenVMFile",
                          "src" : 2,
                          "trackNumber" : 0,
                          "attributes" : {
                            "ident" : "Rec 4-22-2025-8-51-30-PM"
                          },
                          "parameters" : {
                            "geometryCrop0" : {
                              "type" : "double",
                              "defaultValue" : 0.0,
                              "interp" : "eioe"
                            },
                            "geometryCrop1" : {
                              "type" : "double",
                              "defaultValue" : 0.0,
                              "interp" : "eioe"
                            },
                            "geometryCrop2" : {
                              "type" : "double",
                              "defaultValue" : 0.0,
                              "interp" : "eioe"
                            },
                            "geometryCrop3" : {
                              "type" : "double",
                              "defaultValue" : 0.0,
                              "interp" : "eioe"
                            },
                            "cursorScale" : {
                              "type" : "double",
                              "defaultValue" : 0.0,
                              "interp" : "linr"
                            },
                            "cursorOpacity" : {
                              "type" : "double",
                              "defaultValue" : 0.0,
                              "interp" : "linr"
                            },
                            "cursorTrackLevel" : {
                              "type" : "double",
                              "defaultValue" : 0.0,
                              "interp" : "linr"
                            },
                            "smoothCursorAcrossEditDuration" : 0
                          },
                          "effects" : [

                          ],
                          "start" : 458898720000,
                          "duration" : 581226240000,
                          "mediaStart" : 1416350880000,
                          "mediaDuration" : 581226240000,
                          "scalar" : 1,
                          "metadata" : {
                            "AutoAppliedSmartFocus" : "False",
                            "audiateLinkedSession" : "",
                            "clipSpeedAttribute" : { "type": "bool", "value" : false},
                            "colorAttribute" : { "type": "color", "value" : [ 0, 0, 0, 0]},
                            "default-height" : { "type": "double", "value" : 1036.8},
                            "default-translation0" : { "type": "double", "value" : 0.0},
                            "default-translation1" : { "type": "double", "value" : -194.4},
                            "default-translation2" : { "type": "double", "value" : 0.0},
                            "default-width" : { "type": "double", "value" : 1932.67572815534}
                          },
                          "animationTracks" : {

                          }
                        },
                        {
                          "id" : 543,
                          "_type" : "ScreenVMFile",
                          "src" : 2,
                          "trackNumber" : 0,
                          "attributes" : {
                            "ident" : "Rec 4-22-2025-8-51-30-PM"
                          },
                          "parameters" : {
                            "geometryCrop0" : {
                              "type" : "double",
                              "defaultValue" : 0.0,
                              "interp" : "eioe"
                            },
                            "geometryCrop1" : {
                              "type" : "double",
                              "defaultValue" : 0.0,
                              "interp" : "eioe"
                            },
                            "geometryCrop2" : {
                              "type" : "double",
                              "defaultValue" : 0.0,
                              "interp" : "eioe"
                            },
                            "geometryCrop3" : {
                              "type" : "double",
                              "defaultValue" : 0.0,
                              "interp" : "eioe"
                            },
                            "cursorScale" : {
                              "type" : "double",
                              "defaultValue" : 0.0,
                              "interp" : "linr"
                            },
                            "cursorOpacity" : {
                              "type" : "double",
                              "defaultValue" : 0.0,
                              "interp" : "linr"
                            },
                            "cursorTrackLevel" : {
                              "type" : "double",
                              "defaultValue" : 0.0,
                              "interp" : "linr"
                            },
                            "smoothCursorAcrossEditDuration" : 0
                          },
                          "effects" : [

                          ],
                          "start" : 1040124960000,
                          "duration" : 215419680000,
                          "mediaStart" : 2018886240000,
                          "mediaDuration" : 215419680000,
                          "scalar" : 1,
                          "metadata" : {
                            "AutoAppliedSmartFocus" : "False",
                            "audiateLinkedSession" : "",
                            "clipSpeedAttribute" : { "type": "bool", "value" : false},
                            "colorAttribute" : { "type": "color", "value" : [ 0, 0, 0, 0]},
                            "default-height" : { "type": "double", "value" : 1036.8},
                            "default-translation0" : { "type": "double", "value" : 0.0},
                            "default-translation1" : { "type": "double", "value" : -194.4},
                            "default-translation2" : { "type": "double", "value" : 0.0},
                            "default-width" : { "type": "double", "value" : 1932.67572815534}
                          },
                          "animationTracks" : {

                          }
                        },
                        {
                          "id" : 544,
                          "_type" : "ScreenVMFile",
                          "src" : 2,
                          "trackNumber" : 0,
                          "attributes" : {
                            "ident" : "Rec 4-22-2025-8-51-30-PM"
                          },
                          "parameters" : {
                            "geometryCrop0" : {
                              "type" : "double",
                              "defaultValue" : 0.0,
                              "interp" : "eioe"
                            },
                            "geometryCrop1" : {
                              "type" : "double",
                              "defaultValue" : 0.0,
                              "interp" : "eioe"
                            },
                            "geometryCrop2" : {
                              "type" : "double",
                              "defaultValue" : 0.0,
                              "interp" : "eioe"
                            },
                            "geometryCrop3" : {
                              "type" : "double",
                              "defaultValue" : 0.0,
                              "interp" : "eioe"
                            },
                            "cursorScale" : {
                              "type" : "double",
                              "defaultValue" : 0.0,
                              "interp" : "linr"
                            },
                            "cursorOpacity" : {
                              "type" : "double",
                              "defaultValue" : 0.0,
                              "interp" : "linr"
                            },
                            "cursorTrackLevel" : {
                              "type" : "double",
                              "defaultValue" : 0.0,
                              "interp" : "linr"
                            },
                            "smoothCursorAcrossEditDuration" : 0
                          },
                          "effects" : [

                          ],
                          "start" : 1255544640000,
                          "duration" : 786955680000,
                          "mediaStart" : 2257778880000,
                          "mediaDuration" : 786955680000,
                          "scalar" : 1,
                          "metadata" : {
                            "AutoAppliedSmartFocus" : "False",
                            "audiateLinkedSession" : "",
                            "clipSpeedAttribute" : { "type": "bool", "value" : false},
                            "colorAttribute" : { "type": "color", "value" : [ 0, 0, 0, 0]},
                            "default-height" : { "type": "double", "value" : 1036.8},
                            "default-translation0" : { "type": "double", "value" : 0.0},
                            "default-translation1" : { "type": "double", "value" : -194.4},
                            "default-translation2" : { "type": "double", "value" : 0.0},
                            "default-width" : { "type": "double", "value" : 1932.67572815534}
                          },
                          "animationTracks" : {

                          }
                        },
                        {
                          "id" : 545,
                          "_type" : "ScreenVMFile",
                          "src" : 2,
                          "trackNumber" : 0,
                          "attributes" : {
                            "ident" : "Rec 4-22-2025-8-51-30-PM"
                          },
                          "parameters" : {
                            "geometryCrop0" : {
                              "type" : "double",
                              "defaultValue" : 0.0,
                              "interp" : "eioe"
                            },
                            "geometryCrop1" : {
                              "type" : "double",
                              "defaultValue" : 0.0,
                              "interp" : "eioe"
                            },
                            "geometryCrop2" : {
                              "type" : "double",
                              "defaultValue" : 0.0,
                              "interp" : "eioe"
                            },
                            "geometryCrop3" : {
                              "type" : "double",
                              "defaultValue" : 0.0,
                              "interp" : "eioe"
                            },
                            "cursorScale" : {
                              "type" : "double",
                              "defaultValue" : 0.0,
                              "interp" : "linr"
                            },
                            "cursorOpacity" : {
                              "type" : "double",
                              "defaultValue" : 0.0,
                              "interp" : "linr"
                            },
                            "cursorTrackLevel" : {
                              "type" : "double",
                              "defaultValue" : 0.0,
                              "interp" : "linr"
                            },
                            "smoothCursorAcrossEditDuration" : 0
                          },
                          "effects" : [

                          ],
                          "start" : 2042500320000,
                          "duration" : 20768160000,
                          "mediaStart" : 3047580480000,
                          "mediaDuration" : 20768160000,
                          "scalar" : 1,
                          "metadata" : {
                            "AutoAppliedSmartFocus" : "False",
                            "audiateLinkedSession" : "",
                            "clipSpeedAttribute" : { "type": "bool", "value" : false},
                            "colorAttribute" : { "type": "color", "value" : [ 0, 0, 0, 0]},
                            "default-height" : { "type": "double", "value" : 1036.8},
                            "default-translation0" : { "type": "double", "value" : 0.0},
                            "default-translation1" : { "type": "double", "value" : -194.4},
                            "default-translation2" : { "type": "double", "value" : 0.0},
                            "default-width" : { "type": "double", "value" : 1932.67572815534}
                          },
                          "animationTracks" : {

                          }
                        },
                        {
                          "id" : 546,
                          "_type" : "ScreenVMFile",
                          "src" : 2,
                          "trackNumber" : 0,
                          "attributes" : {
                            "ident" : "Rec 4-22-2025-8-51-30-PM"
                          },
                          "parameters" : {
                            "geometryCrop0" : {
                              "type" : "double",
                              "defaultValue" : 0.0,
                              "interp" : "eioe"
                            },
                            "geometryCrop1" : {
                              "type" : "double",
                              "defaultValue" : 0.0,
                              "interp" : "eioe"
                            },
                            "geometryCrop2" : {
                              "type" : "double",
                              "defaultValue" : 0.0,
                              "interp" : "eioe"
                            },
                            "geometryCrop3" : {
                              "type" : "double",
                              "defaultValue" : 0.0,
                              "interp" : "eioe"
                            },
                            "cursorScale" : {
                              "type" : "double",
                              "defaultValue" : 0.0,
                              "interp" : "linr"
                            },
                            "cursorOpacity" : {
                              "type" : "double",
                              "defaultValue" : 0.0,
                              "interp" : "linr"
                            },
                            "cursorTrackLevel" : {
                              "type" : "double",
                              "defaultValue" : 0.0,
                              "interp" : "linr"
                            },
                            "smoothCursorAcrossEditDuration" : 0
                          },
                          "effects" : [

                          ],
                          "start" : 2063268480000,
                          "duration" : 343039200000,
                          "mediaStart" : 3138932160000,
                          "mediaDuration" : 343039200000,
                          "scalar" : 1,
                          "metadata" : {
                            "AutoAppliedSmartFocus" : "False",
                            "audiateLinkedSession" : "",
                            "clipSpeedAttribute" : { "type": "bool", "value" : false},
                            "colorAttribute" : { "type": "color", "value" : [ 0, 0, 0, 0]},
                            "default-height" : { "type": "double", "value" : 1036.8},
                            "default-translation0" : { "type": "double", "value" : 0.0},
                            "default-translation1" : { "type": "double", "value" : -194.4},
                            "default-translation2" : { "type": "double", "value" : 0.0},
                            "default-width" : { "type": "double", "value" : 1932.67572815534}
                          },
                          "animationTracks" : {

                          }
                        }
                    ],
                    "effects" : [
                        {
                          "effectName" : "CursorColor",
                          "bypassed" : false,
                          "category" : "categoryCursorEffects",
                          "parameters" : {
                            "intensity" : 1.0,
                            "desaturation" : 0.0,
                            "colorLumaCutoff" : 1.0,
                            "color-alpha" : 1.0,
                            "color-red" : 1.0,
                            "color-green" : 0.8980392157,
                            "color-blue" : 0.1215686275,
                            "secondColor-red" : 0.0,
                            "secondColor-green" : 0.0,
                            "secondColor-blue" : 0.0,
                            "secondColor-alpha" : 1.0,
                            "secondColorLumaCutoff" : 0.0,
                            "channel" : 0,
                            "shadowRampStart" : 0.0,
                            "shadowRampEnd" : 0.0,
                            "highlightRampStart" : 1.0,
                            "highlightRampEnd" : 1.0
                          }
                        },
                        {
                          "effectName" : "CursorShadow",
                          "bypassed" : false,
                          "category" : "categoryCursorEffects",
                          "parameters" : {
                            "angle" : 3.92699081698724,
                            "enabled" : 1,
                            "offset" : 5.0,
                            "blur" : 2.0,
                            "opacity" : 0.25,
                            "color-red" : 0.0,
                            "color-green" : 0.0,
                            "color-blue" : 0.0,
                            "color-alpha" : 1.0
                          }
                        },
                        {
                          "effectName" : "CursorHilight",
                          "bypassed" : false,
                          "category" : "categoryCursorEffects",
                          "parameters" : {
                            "radius" : 50.0,
                            "color-red" : 1.0,
                            "color-green" : 1.0,
                            "color-blue" : 0.0,
                            "color-alpha" : 0.75,
                            "blur" : 0.1
                          }
                        }
                    ],
                    "start" : 115036320000,
                    "duration" : 823200000,
                    "mediaStart" : 1115577120000,
                    "mediaDuration" : "3782068920000/47",
                    "scalar" : "823200000/80469551489",
                    "metadata" : {
                      "AutoAppliedSmartFocus" : "False",
                      "audiateLinkedSession" : "",
                      "clipSpeedAttribute" : { "type": "bool", "value" : true},
                      "colorAttribute" : { "type": "color", "value" : [ 0, 0, 0, 0]},
                      "default-height" : { "type": "double", "value" : 1036.8},
                      "default-translation0" : { "type": "double", "value" : 0.0},
                      "default-translation1" : { "type": "double", "value" : -194.4},
                      "default-translation2" : { "type": "double", "value" : 0.0},
                      "default-width" : { "type": "double", "value" : 1932.67572815534}
                    },
                    "animationTracks" : {

                    }
                  },
                  {
                    "id" : 547,
                    "_type" : "StitchedMedia",
                    "minMediaStart" : 0,
                    "attributes" : {
                      "ident" : "Rec 4-22-2025-8-51-30-PM",
                      "gain" : 1.0,
                      "mixToMono" : false,
                      "loudnessNormalization" : true,
                      "sourceFileOffset" : 0
                    },
                    "parameters" : {
                      "translation0" : 6.33786407766917,
                      "translation1" : -2.8421709430404e-14,
                      "scale0" : 0.503300970873786,
                      "scale1" : 0.503300970873786,
                      "geometryCrop0" : 0.0,
                      "geometryCrop1" : 0.0,
                      "geometryCrop2" : 0.0,
                      "geometryCrop3" : 0.0,
                      "cursorOpacity" : 1.0,
                      "cursorTrackLevel" : 0.0,
                      "cursorScale" : 5.0,
                      "smoothCursorAcrossEditDuration" : 0
                    },
                    "medias" : [
                        {
                          "id" : 548,
                          "_type" : "ScreenVMFile",
                          "src" : 2,
                          "trackNumber" : 0,
                          "attributes" : {
                            "ident" : "Rec 4-22-2025-8-51-30-PM"
                          },
                          "parameters" : {
                            "geometryCrop0" : {
                              "type" : "double",
                              "defaultValue" : 0.0,
                              "interp" : "eioe"
                            },
                            "geometryCrop1" : {
                              "type" : "double",
                              "defaultValue" : 0.0,
                              "interp" : "eioe"
                            },
                            "geometryCrop2" : {
                              "type" : "double",
                              "defaultValue" : 0.0,
                              "interp" : "eioe"
                            },
                            "geometryCrop3" : {
                              "type" : "double",
                              "defaultValue" : 0.0,
                              "interp" : "eioe"
                            },
                            "cursorScale" : {
                              "type" : "double",
                              "defaultValue" : 0.0,
                              "interp" : "linr"
                            },
                            "cursorOpacity" : {
                              "type" : "double",
                              "defaultValue" : 0.0,
                              "interp" : "linr"
                            },
                            "cursorTrackLevel" : {
                              "type" : "double",
                              "defaultValue" : 0.0,
                              "interp" : "linr"
                            },
                            "smoothCursorAcrossEditDuration" : 0
                          },
                          "effects" : [

                          ],
                          "start" : 0,
                          "duration" : 50991360000,
                          "mediaStart" : 0,
                          "mediaDuration" : 50991360000,
                          "scalar" : 1,
                          "metadata" : {
                            "AutoAppliedSmartFocus" : "False",
                            "audiateLinkedSession" : "",
                            "clipSpeedAttribute" : { "type": "bool", "value" : false},
                            "colorAttribute" : { "type": "color", "value" : [ 0, 0, 0, 0]},
                            "default-height" : { "type": "double", "value" : 1036.8},
                            "default-translation0" : { "type": "double", "value" : 0.0},
                            "default-translation1" : { "type": "double", "value" : -194.4},
                            "default-translation2" : { "type": "double", "value" : 0.0},
                            "default-width" : { "type": "double", "value" : 1932.67572815534}
                          },
                          "animationTracks" : {

                          }
                        },
                        {
                          "id" : 549,
                          "_type" : "ScreenVMFile",
                          "src" : 2,
                          "trackNumber" : 0,
                          "attributes" : {
                            "ident" : "Rec 4-22-2025-8-51-30-PM"
                          },
                          "parameters" : {
                            "geometryCrop0" : {
                              "type" : "double",
                              "defaultValue" : 0.0,
                              "interp" : "eioe"
                            },
                            "geometryCrop1" : {
                              "type" : "double",
                              "defaultValue" : 0.0,
                              "interp" : "eioe"
                            },
                            "geometryCrop2" : {
                              "type" : "double",
                              "defaultValue" : 0.0,
                              "interp" : "eioe"
                            },
                            "geometryCrop3" : {
                              "type" : "double",
                              "defaultValue" : 0.0,
                              "interp" : "eioe"
                            },
                            "cursorScale" : {
                              "type" : "double",
                              "defaultValue" : 0.0,
                              "interp" : "linr"
                            },
                            "cursorOpacity" : {
                              "type" : "double",
                              "defaultValue" : 0.0,
                              "interp" : "linr"
                            },
                            "cursorTrackLevel" : {
                              "type" : "double",
                              "defaultValue" : 0.0,
                              "interp" : "linr"
                            },
                            "smoothCursorAcrossEditDuration" : 0
                          },
                          "effects" : [

                          ],
                          "start" : 50991360000,
                          "duration" : 46663680000,
                          "mediaStart" : 66467520000,
                          "mediaDuration" : 46663680000,
                          "scalar" : 1,
                          "metadata" : {
                            "AutoAppliedSmartFocus" : "False",
                            "audiateLinkedSession" : "",
                            "clipSpeedAttribute" : { "type": "bool", "value" : false},
                            "colorAttribute" : { "type": "color", "value" : [ 0, 0, 0, 0]},
                            "default-height" : { "type": "double", "value" : 1036.8},
                            "default-translation0" : { "type": "double", "value" : 0.0},
                            "default-translation1" : { "type": "double", "value" : -194.4},
                            "default-translation2" : { "type": "double", "value" : 0.0},
                            "default-width" : { "type": "double", "value" : 1932.67572815534}
                          },
                          "animationTracks" : {

                          }
                        },
                        {
                          "id" : 550,
                          "_type" : "ScreenVMFile",
                          "src" : 2,
                          "trackNumber" : 0,
                          "attributes" : {
                            "ident" : "Rec 4-22-2025-8-51-30-PM"
                          },
                          "parameters" : {
                            "geometryCrop0" : {
                              "type" : "double",
                              "defaultValue" : 0.0,
                              "interp" : "eioe"
                            },
                            "geometryCrop1" : {
                              "type" : "double",
                              "defaultValue" : 0.0,
                              "interp" : "eioe"
                            },
                            "geometryCrop2" : {
                              "type" : "double",
                              "defaultValue" : 0.0,
                              "interp" : "eioe"
                            },
                            "geometryCrop3" : {
                              "type" : "double",
                              "defaultValue" : 0.0,
                              "interp" : "eioe"
                            },
                            "cursorScale" : {
                              "type" : "double",
                              "defaultValue" : 0.0,
                              "interp" : "linr"
                            },
                            "cursorOpacity" : {
                              "type" : "double",
                              "defaultValue" : 0.0,
                              "interp" : "linr"
                            },
                            "cursorTrackLevel" : {
                              "type" : "double",
                              "defaultValue" : 0.0,
                              "interp" : "linr"
                            },
                            "smoothCursorAcrossEditDuration" : 0
                          },
                          "effects" : [

                          ],
                          "start" : 97655040000,
                          "duration" : 352282560000,
                          "mediaStart" : 149352000000,
                          "mediaDuration" : 352282560000,
                          "scalar" : 1,
                          "metadata" : {
                            "AutoAppliedSmartFocus" : "False",
                            "audiateLinkedSession" : "",
                            "clipSpeedAttribute" : { "type": "bool", "value" : false},
                            "colorAttribute" : { "type": "color", "value" : [ 0, 0, 0, 0]},
                            "default-height" : { "type": "double", "value" : 1036.8},
                            "default-translation0" : { "type": "double", "value" : 0.0},
                            "default-translation1" : { "type": "double", "value" : -194.4},
                            "default-translation2" : { "type": "double", "value" : 0.0},
                            "default-width" : { "type": "double", "value" : 1932.67572815534}
                          },
                          "animationTracks" : {

                          }
                        },
                        {
                          "id" : 551,
                          "_type" : "ScreenVMFile",
                          "src" : 2,
                          "trackNumber" : 0,
                          "attributes" : {
                            "ident" : "Rec 4-22-2025-8-51-30-PM"
                          },
                          "parameters" : {
                            "geometryCrop0" : {
                              "type" : "double",
                              "defaultValue" : 0.0,
                              "interp" : "eioe"
                            },
                            "geometryCrop1" : {
                              "type" : "double",
                              "defaultValue" : 0.0,
                              "interp" : "eioe"
                            },
                            "geometryCrop2" : {
                              "type" : "double",
                              "defaultValue" : 0.0,
                              "interp" : "eioe"
                            },
                            "geometryCrop3" : {
                              "type" : "double",
                              "defaultValue" : 0.0,
                              "interp" : "eioe"
                            },
                            "cursorScale" : {
                              "type" : "double",
                              "defaultValue" : 0.0,
                              "interp" : "linr"
                            },
                            "cursorOpacity" : {
                              "type" : "double",
                              "defaultValue" : 0.0,
                              "interp" : "linr"
                            },
                            "cursorTrackLevel" : {
                              "type" : "double",
                              "defaultValue" : 0.0,
                              "interp" : "linr"
                            },
                            "smoothCursorAcrossEditDuration" : 0
                          },
                          "effects" : [

                          ],
                          "start" : 449937600000,
                          "duration" : 8961120000,
                          "mediaStart" : 509843040000,
                          "mediaDuration" : 8961120000,
                          "scalar" : 1,
                          "metadata" : {
                            "AutoAppliedSmartFocus" : "False",
                            "audiateLinkedSession" : "",
                            "clipSpeedAttribute" : { "type": "bool", "value" : false},
                            "colorAttribute" : { "type": "color", "value" : [ 0, 0, 0, 0]},
                            "default-height" : { "type": "double", "value" : 1036.8},
                            "default-translation0" : { "type": "double", "value" : 0.0},
                            "default-translation1" : { "type": "double", "value" : -194.4},
                            "default-translation2" : { "type": "double", "value" : 0.0},
                            "default-width" : { "type": "double", "value" : 1932.67572815534}
                          },
                          "animationTracks" : {

                          }
                        },
                        {
                          "id" : 552,
                          "_type" : "ScreenVMFile",
                          "src" : 2,
                          "trackNumber" : 0,
                          "attributes" : {
                            "ident" : "Rec 4-22-2025-8-51-30-PM"
                          },
                          "parameters" : {
                            "geometryCrop0" : {
                              "type" : "double",
                              "defaultValue" : 0.0,
                              "interp" : "eioe"
                            },
                            "geometryCrop1" : {
                              "type" : "double",
                              "defaultValue" : 0.0,
                              "interp" : "eioe"
                            },
                            "geometryCrop2" : {
                              "type" : "double",
                              "defaultValue" : 0.0,
                              "interp" : "eioe"
                            },
                            "geometryCrop3" : {
                              "type" : "double",
                              "defaultValue" : 0.0,
                              "interp" : "eioe"
                            },
                            "cursorScale" : {
                              "type" : "double",
                              "defaultValue" : 0.0,
                              "interp" : "linr"
                            },
                            "cursorOpacity" : {
                              "type" : "double",
                              "defaultValue" : 0.0,
                              "interp" : "linr"
                            },
                            "cursorTrackLevel" : {
                              "type" : "double",
                              "defaultValue" : 0.0,
                              "interp" : "linr"
                            },
                            "smoothCursorAcrossEditDuration" : 0
                          },
                          "effects" : [

                          ],
                          "start" : 458898720000,
                          "duration" : 581226240000,
                          "mediaStart" : 1416350880000,
                          "mediaDuration" : 581226240000,
                          "scalar" : 1,
                          "metadata" : {
                            "AutoAppliedSmartFocus" : "False",
                            "audiateLinkedSession" : "",
                            "clipSpeedAttribute" : { "type": "bool", "value" : false},
                            "colorAttribute" : { "type": "color", "value" : [ 0, 0, 0, 0]},
                            "default-height" : { "type": "double", "value" : 1036.8},
                            "default-translation0" : { "type": "double", "value" : 0.0},
                            "default-translation1" : { "type": "double", "value" : -194.4},
                            "default-translation2" : { "type": "double", "value" : 0.0},
                            "default-width" : { "type": "double", "value" : 1932.67572815534}
                          },
                          "animationTracks" : {

                          }
                        },
                        {
                          "id" : 553,
                          "_type" : "ScreenVMFile",
                          "src" : 2,
                          "trackNumber" : 0,
                          "attributes" : {
                            "ident" : "Rec 4-22-2025-8-51-30-PM"
                          },
                          "parameters" : {
                            "geometryCrop0" : {
                              "type" : "double",
                              "defaultValue" : 0.0,
                              "interp" : "eioe"
                            },
                            "geometryCrop1" : {
                              "type" : "double",
                              "defaultValue" : 0.0,
                              "interp" : "eioe"
                            },
                            "geometryCrop2" : {
                              "type" : "double",
                              "defaultValue" : 0.0,
                              "interp" : "eioe"
                            },
                            "geometryCrop3" : {
                              "type" : "double",
                              "defaultValue" : 0.0,
                              "interp" : "eioe"
                            },
                            "cursorScale" : {
                              "type" : "double",
                              "defaultValue" : 0.0,
                              "interp" : "linr"
                            },
                            "cursorOpacity" : {
                              "type" : "double",
                              "defaultValue" : 0.0,
                              "interp" : "linr"
                            },
                            "cursorTrackLevel" : {
                              "type" : "double",
                              "defaultValue" : 0.0,
                              "interp" : "linr"
                            },
                            "smoothCursorAcrossEditDuration" : 0
                          },
                          "effects" : [

                          ],
                          "start" : 1040124960000,
                          "duration" : 215419680000,
                          "mediaStart" : 2018886240000,
                          "mediaDuration" : 215419680000,
                          "scalar" : 1,
                          "metadata" : {
                            "AutoAppliedSmartFocus" : "False",
                            "audiateLinkedSession" : "",
                            "clipSpeedAttribute" : { "type": "bool", "value" : false},
                            "colorAttribute" : { "type": "color", "value" : [ 0, 0, 0, 0]},
                            "default-height" : { "type": "double", "value" : 1036.8},
                            "default-translation0" : { "type": "double", "value" : 0.0},
                            "default-translation1" : { "type": "double", "value" : -194.4},
                            "default-translation2" : { "type": "double", "value" : 0.0},
                            "default-width" : { "type": "double", "value" : 1932.67572815534}
                          },
                          "animationTracks" : {

                          }
                        },
                        {
                          "id" : 554,
                          "_type" : "ScreenVMFile",
                          "src" : 2,
                          "trackNumber" : 0,
                          "attributes" : {
                            "ident" : "Rec 4-22-2025-8-51-30-PM"
                          },
                          "parameters" : {
                            "geometryCrop0" : {
                              "type" : "double",
                              "defaultValue" : 0.0,
                              "interp" : "eioe"
                            },
                            "geometryCrop1" : {
                              "type" : "double",
                              "defaultValue" : 0.0,
                              "interp" : "eioe"
                            },
                            "geometryCrop2" : {
                              "type" : "double",
                              "defaultValue" : 0.0,
                              "interp" : "eioe"
                            },
                            "geometryCrop3" : {
                              "type" : "double",
                              "defaultValue" : 0.0,
                              "interp" : "eioe"
                            },
                            "cursorScale" : {
                              "type" : "double",
                              "defaultValue" : 0.0,
                              "interp" : "linr"
                            },
                            "cursorOpacity" : {
                              "type" : "double",
                              "defaultValue" : 0.0,
                              "interp" : "linr"
                            },
                            "cursorTrackLevel" : {
                              "type" : "double",
                              "defaultValue" : 0.0,
                              "interp" : "linr"
                            },
                            "smoothCursorAcrossEditDuration" : 0
                          },
                          "effects" : [

                          ],
                          "start" : 1255544640000,
                          "duration" : 786955680000,
                          "mediaStart" : 2257778880000,
                          "mediaDuration" : 786955680000,
                          "scalar" : 1,
                          "metadata" : {
                            "AutoAppliedSmartFocus" : "False",
                            "audiateLinkedSession" : "",
                            "clipSpeedAttribute" : { "type": "bool", "value" : false},
                            "colorAttribute" : { "type": "color", "value" : [ 0, 0, 0, 0]},
                            "default-height" : { "type": "double", "value" : 1036.8},
                            "default-translation0" : { "type": "double", "value" : 0.0},
                            "default-translation1" : { "type": "double", "value" : -194.4},
                            "default-translation2" : { "type": "double", "value" : 0.0},
                            "default-width" : { "type": "double", "value" : 1932.67572815534}
                          },
                          "animationTracks" : {

                          }
                        },
                        {
                          "id" : 555,
                          "_type" : "ScreenVMFile",
                          "src" : 2,
                          "trackNumber" : 0,
                          "attributes" : {
                            "ident" : "Rec 4-22-2025-8-51-30-PM"
                          },
                          "parameters" : {
                            "geometryCrop0" : {
                              "type" : "double",
                              "defaultValue" : 0.0,
                              "interp" : "eioe"
                            },
                            "geometryCrop1" : {
                              "type" : "double",
                              "defaultValue" : 0.0,
                              "interp" : "eioe"
                            },
                            "geometryCrop2" : {
                              "type" : "double",
                              "defaultValue" : 0.0,
                              "interp" : "eioe"
                            },
                            "geometryCrop3" : {
                              "type" : "double",
                              "defaultValue" : 0.0,
                              "interp" : "eioe"
                            },
                            "cursorScale" : {
                              "type" : "double",
                              "defaultValue" : 0.0,
                              "interp" : "linr"
                            },
                            "cursorOpacity" : {
                              "type" : "double",
                              "defaultValue" : 0.0,
                              "interp" : "linr"
                            },
                            "cursorTrackLevel" : {
                              "type" : "double",
                              "defaultValue" : 0.0,
                              "interp" : "linr"
                            },
                            "smoothCursorAcrossEditDuration" : 0
                          },
                          "effects" : [

                          ],
                          "start" : 2042500320000,
                          "duration" : 20768160000,
                          "mediaStart" : 3047580480000,
                          "mediaDuration" : 20768160000,
                          "scalar" : 1,
                          "metadata" : {
                            "AutoAppliedSmartFocus" : "False",
                            "audiateLinkedSession" : "",
                            "clipSpeedAttribute" : { "type": "bool", "value" : false},
                            "colorAttribute" : { "type": "color", "value" : [ 0, 0, 0, 0]},
                            "default-height" : { "type": "double", "value" : 1036.8},
                            "default-translation0" : { "type": "double", "value" : 0.0},
                            "default-translation1" : { "type": "double", "value" : -194.4},
                            "default-translation2" : { "type": "double", "value" : 0.0},
                            "default-width" : { "type": "double", "value" : 1932.67572815534}
                          },
                          "animationTracks" : {

                          }
                        },
                        {
                          "id" : 556,
                          "_type" : "ScreenVMFile",
                          "src" : 2,
                          "trackNumber" : 0,
                          "attributes" : {
                            "ident" : "Rec 4-22-2025-8-51-30-PM"
                          },
                          "parameters" : {
                            "geometryCrop0" : {
                              "type" : "double",
                              "defaultValue" : 0.0,
                              "interp" : "eioe"
                            },
                            "geometryCrop1" : {
                              "type" : "double",
                              "defaultValue" : 0.0,
                              "interp" : "eioe"
                            },
                            "geometryCrop2" : {
                              "type" : "double",
                              "defaultValue" : 0.0,
                              "interp" : "eioe"
                            },
                            "geometryCrop3" : {
                              "type" : "double",
                              "defaultValue" : 0.0,
                              "interp" : "eioe"
                            },
                            "cursorScale" : {
                              "type" : "double",
                              "defaultValue" : 0.0,
                              "interp" : "linr"
                            },
                            "cursorOpacity" : {
                              "type" : "double",
                              "defaultValue" : 0.0,
                              "interp" : "linr"
                            },
                            "cursorTrackLevel" : {
                              "type" : "double",
                              "defaultValue" : 0.0,
                              "interp" : "linr"
                            },
                            "smoothCursorAcrossEditDuration" : 0
                          },
                          "effects" : [

                          ],
                          "start" : 2063268480000,
                          "duration" : 343039200000,
                          "mediaStart" : 3138932160000,
                          "mediaDuration" : 343039200000,
                          "scalar" : 1,
                          "metadata" : {
                            "AutoAppliedSmartFocus" : "False",
                            "audiateLinkedSession" : "",
                            "clipSpeedAttribute" : { "type": "bool", "value" : false},
                            "colorAttribute" : { "type": "color", "value" : [ 0, 0, 0, 0]},
                            "default-height" : { "type": "double", "value" : 1036.8},
                            "default-translation0" : { "type": "double", "value" : 0.0},
                            "default-translation1" : { "type": "double", "value" : -194.4},
                            "default-translation2" : { "type": "double", "value" : 0.0},
                            "default-width" : { "type": "double", "value" : 1932.67572815534}
                          },
                          "animationTracks" : {

                          }
                        }
                    ],
                    "effects" : [
                        {
                          "effectName" : "CursorColor",
                          "bypassed" : false,
                          "category" : "categoryCursorEffects",
                          "parameters" : {
                            "intensity" : 1.0,
                            "desaturation" : 0.0,
                            "colorLumaCutoff" : 1.0,
                            "color-alpha" : 1.0,
                            "color-red" : 1.0,
                            "color-green" : 0.8980392157,
                            "color-blue" : 0.1215686275,
                            "secondColor-red" : 0.0,
                            "secondColor-green" : 0.0,
                            "secondColor-blue" : 0.0,
                            "secondColor-alpha" : 1.0,
                            "secondColorLumaCutoff" : 0.0,
                            "channel" : 0,
                            "shadowRampStart" : 0.0,
                            "shadowRampEnd" : 0.0,
                            "highlightRampStart" : 1.0,
                            "highlightRampEnd" : 1.0
                          }
                        },
                        {
                          "effectName" : "CursorShadow",
                          "bypassed" : false,
                          "category" : "categoryCursorEffects",
                          "parameters" : {
                            "angle" : 3.92699081698724,
                            "enabled" : 1,
                            "offset" : 5.0,
                            "blur" : 2.0,
                            "opacity" : 0.25,
                            "color-red" : 0.0,
                            "color-green" : 0.0,
                            "color-blue" : 0.0,
                            "color-alpha" : 1.0
                          }
                        },
                        {
                          "effectName" : "CursorHilight",
                          "bypassed" : false,
                          "category" : "categoryCursorEffects",
                          "parameters" : {
                            "radius" : 50.0,
                            "color-red" : 1.0,
                            "color-green" : 1.0,
                            "color-blue" : 0.0,
                            "color-alpha" : 0.75,
                            "blur" : 0.1
                          }
                        }
                    ],
                    "start" : 115859520000,
                    "duration" : 164640000,
                    "mediaStart" : "56754489120000/47",
                    "mediaDuration" : "756413784000/47",
                    "scalar" : "164640000/16093910297",
                    "metadata" : {
                      "AutoAppliedSmartFocus" : "False",
                      "audiateLinkedSession" : "",
                      "clipSpeedAttribute" : { "type": "bool", "value" : true},
                      "colorAttribute" : { "type": "color", "value" : [ 0, 0, 0, 0]},
                      "default-height" : { "type": "double", "value" : 1036.8},
                      "default-translation0" : { "type": "double", "value" : 0.0},
                      "default-translation1" : { "type": "double", "value" : -194.4},
                      "default-translation2" : { "type": "double", "value" : 0.0},
                      "default-width" : { "type": "double", "value" : 1932.67572815534}
                    },
                    "animationTracks" : {

                    }
                  },
                  {
                    "id" : 557,
                    "_type" : "StitchedMedia",
                    "minMediaStart" : 0,
                    "attributes" : {
                      "ident" : "Rec 4-22-2025-8-51-30-PM",
                      "gain" : 1.0,
                      "mixToMono" : false,
                      "loudnessNormalization" : true,
                      "sourceFileOffset" : 0
                    },
                    "parameters" : {
                      "translation0" : 6.33786407766917,
                      "translation1" : -2.8421709430404e-14,
                      "scale0" : 0.503300970873786,
                      "scale1" : 0.503300970873786,
                      "geometryCrop0" : 0.0,
                      "geometryCrop1" : 0.0,
                      "geometryCrop2" : 0.0,
                      "geometryCrop3" : 0.0,
                      "cursorOpacity" : 1.0,
                      "cursorTrackLevel" : 0.0,
                      "cursorScale" : 5.0,
                      "smoothCursorAcrossEditDuration" : 0
                    },
                    "medias" : [
                        {
                          "id" : 558,
                          "_type" : "ScreenVMFile",
                          "src" : 2,
                          "trackNumber" : 0,
                          "attributes" : {
                            "ident" : "Rec 4-22-2025-8-51-30-PM"
                          },
                          "parameters" : {
                            "geometryCrop0" : {
                              "type" : "double",
                              "defaultValue" : 0.0,
                              "interp" : "eioe"
                            },
                            "geometryCrop1" : {
                              "type" : "double",
                              "defaultValue" : 0.0,
                              "interp" : "eioe"
                            },
                            "geometryCrop2" : {
                              "type" : "double",
                              "defaultValue" : 0.0,
                              "interp" : "eioe"
                            },
                            "geometryCrop3" : {
                              "type" : "double",
                              "defaultValue" : 0.0,
                              "interp" : "eioe"
                            },
                            "cursorScale" : {
                              "type" : "double",
                              "defaultValue" : 0.0,
                              "interp" : "linr"
                            },
                            "cursorOpacity" : {
                              "type" : "double",
                              "defaultValue" : 0.0,
                              "interp" : "linr"
                            },
                            "cursorTrackLevel" : {
                              "type" : "double",
                              "defaultValue" : 0.0,
                              "interp" : "linr"
                            },
                            "smoothCursorAcrossEditDuration" : 0
                          },
                          "effects" : [

                          ],
                          "start" : 0,
                          "duration" : 50991360000,
                          "mediaStart" : 0,
                          "mediaDuration" : 50991360000,
                          "scalar" : 1,
                          "metadata" : {
                            "AutoAppliedSmartFocus" : "False",
                            "audiateLinkedSession" : "",
                            "clipSpeedAttribute" : { "type": "bool", "value" : false},
                            "colorAttribute" : { "type": "color", "value" : [ 0, 0, 0, 0]},
                            "default-height" : { "type": "double", "value" : 1036.8},
                            "default-translation0" : { "type": "double", "value" : 0.0},
                            "default-translation1" : { "type": "double", "value" : -194.4},
                            "default-translation2" : { "type": "double", "value" : 0.0},
                            "default-width" : { "type": "double", "value" : 1932.67572815534}
                          },
                          "animationTracks" : {

                          }
                        },
                        {
                          "id" : 559,
                          "_type" : "ScreenVMFile",
                          "src" : 2,
                          "trackNumber" : 0,
                          "attributes" : {
                            "ident" : "Rec 4-22-2025-8-51-30-PM"
                          },
                          "parameters" : {
                            "geometryCrop0" : {
                              "type" : "double",
                              "defaultValue" : 0.0,
                              "interp" : "eioe"
                            },
                            "geometryCrop1" : {
                              "type" : "double",
                              "defaultValue" : 0.0,
                              "interp" : "eioe"
                            },
                            "geometryCrop2" : {
                              "type" : "double",
                              "defaultValue" : 0.0,
                              "interp" : "eioe"
                            },
                            "geometryCrop3" : {
                              "type" : "double",
                              "defaultValue" : 0.0,
                              "interp" : "eioe"
                            },
                            "cursorScale" : {
                              "type" : "double",
                              "defaultValue" : 0.0,
                              "interp" : "linr"
                            },
                            "cursorOpacity" : {
                              "type" : "double",
                              "defaultValue" : 0.0,
                              "interp" : "linr"
                            },
                            "cursorTrackLevel" : {
                              "type" : "double",
                              "defaultValue" : 0.0,
                              "interp" : "linr"
                            },
                            "smoothCursorAcrossEditDuration" : 0
                          },
                          "effects" : [

                          ],
                          "start" : 50991360000,
                          "duration" : 46663680000,
                          "mediaStart" : 66467520000,
                          "mediaDuration" : 46663680000,
                          "scalar" : 1,
                          "metadata" : {
                            "AutoAppliedSmartFocus" : "False",
                            "audiateLinkedSession" : "",
                            "clipSpeedAttribute" : { "type": "bool", "value" : false},
                            "colorAttribute" : { "type": "color", "value" : [ 0, 0, 0, 0]},
                            "default-height" : { "type": "double", "value" : 1036.8},
                            "default-translation0" : { "type": "double", "value" : 0.0},
                            "default-translation1" : { "type": "double", "value" : -194.4},
                            "default-translation2" : { "type": "double", "value" : 0.0},
                            "default-width" : { "type": "double", "value" : 1932.67572815534}
                          },
                          "animationTracks" : {

                          }
                        },
                        {
                          "id" : 560,
                          "_type" : "ScreenVMFile",
                          "src" : 2,
                          "trackNumber" : 0,
                          "attributes" : {
                            "ident" : "Rec 4-22-2025-8-51-30-PM"
                          },
                          "parameters" : {
                            "geometryCrop0" : {
                              "type" : "double",
                              "defaultValue" : 0.0,
                              "interp" : "eioe"
                            },
                            "geometryCrop1" : {
                              "type" : "double",
                              "defaultValue" : 0.0,
                              "interp" : "eioe"
                            },
                            "geometryCrop2" : {
                              "type" : "double",
                              "defaultValue" : 0.0,
                              "interp" : "eioe"
                            },
                            "geometryCrop3" : {
                              "type" : "double",
                              "defaultValue" : 0.0,
                              "interp" : "eioe"
                            },
                            "cursorScale" : {
                              "type" : "double",
                              "defaultValue" : 0.0,
                              "interp" : "linr"
                            },
                            "cursorOpacity" : {
                              "type" : "double",
                              "defaultValue" : 0.0,
                              "interp" : "linr"
                            },
                            "cursorTrackLevel" : {
                              "type" : "double",
                              "defaultValue" : 0.0,
                              "interp" : "linr"
                            },
                            "smoothCursorAcrossEditDuration" : 0
                          },
                          "effects" : [

                          ],
                          "start" : 97655040000,
                          "duration" : 352282560000,
                          "mediaStart" : 149352000000,
                          "mediaDuration" : 352282560000,
                          "scalar" : 1,
                          "metadata" : {
                            "AutoAppliedSmartFocus" : "False",
                            "audiateLinkedSession" : "",
                            "clipSpeedAttribute" : { "type": "bool", "value" : false},
                            "colorAttribute" : { "type": "color", "value" : [ 0, 0, 0, 0]},
                            "default-height" : { "type": "double", "value" : 1036.8},
                            "default-translation0" : { "type": "double", "value" : 0.0},
                            "default-translation1" : { "type": "double", "value" : -194.4},
                            "default-translation2" : { "type": "double", "value" : 0.0},
                            "default-width" : { "type": "double", "value" : 1932.67572815534}
                          },
                          "animationTracks" : {

                          }
                        },
                        {
                          "id" : 561,
                          "_type" : "ScreenVMFile",
                          "src" : 2,
                          "trackNumber" : 0,
                          "attributes" : {
                            "ident" : "Rec 4-22-2025-8-51-30-PM"
                          },
                          "parameters" : {
                            "geometryCrop0" : {
                              "type" : "double",
                              "defaultValue" : 0.0,
                              "interp" : "eioe"
                            },
                            "geometryCrop1" : {
                              "type" : "double",
                              "defaultValue" : 0.0,
                              "interp" : "eioe"
                            },
                            "geometryCrop2" : {
                              "type" : "double",
                              "defaultValue" : 0.0,
                              "interp" : "eioe"
                            },
                            "geometryCrop3" : {
                              "type" : "double",
                              "defaultValue" : 0.0,
                              "interp" : "eioe"
                            },
                            "cursorScale" : {
                              "type" : "double",
                              "defaultValue" : 0.0,
                              "interp" : "linr"
                            },
                            "cursorOpacity" : {
                              "type" : "double",
                              "defaultValue" : 0.0,
                              "interp" : "linr"
                            },
                            "cursorTrackLevel" : {
                              "type" : "double",
                              "defaultValue" : 0.0,
                              "interp" : "linr"
                            },
                            "smoothCursorAcrossEditDuration" : 0
                          },
                          "effects" : [

                          ],
                          "start" : 449937600000,
                          "duration" : 8961120000,
                          "mediaStart" : 509843040000,
                          "mediaDuration" : 8961120000,
                          "scalar" : 1,
                          "metadata" : {
                            "AutoAppliedSmartFocus" : "False",
                            "audiateLinkedSession" : "",
                            "clipSpeedAttribute" : { "type": "bool", "value" : false},
                            "colorAttribute" : { "type": "color", "value" : [ 0, 0, 0, 0]},
                            "default-height" : { "type": "double", "value" : 1036.8},
                            "default-translation0" : { "type": "double", "value" : 0.0},
                            "default-translation1" : { "type": "double", "value" : -194.4},
                            "default-translation2" : { "type": "double", "value" : 0.0},
                            "default-width" : { "type": "double", "value" : 1932.67572815534}
                          },
                          "animationTracks" : {

                          }
                        },
                        {
                          "id" : 562,
                          "_type" : "ScreenVMFile",
                          "src" : 2,
                          "trackNumber" : 0,
                          "attributes" : {
                            "ident" : "Rec 4-22-2025-8-51-30-PM"
                          },
                          "parameters" : {
                            "geometryCrop0" : {
                              "type" : "double",
                              "defaultValue" : 0.0,
                              "interp" : "eioe"
                            },
                            "geometryCrop1" : {
                              "type" : "double",
                              "defaultValue" : 0.0,
                              "interp" : "eioe"
                            },
                            "geometryCrop2" : {
                              "type" : "double",
                              "defaultValue" : 0.0,
                              "interp" : "eioe"
                            },
                            "geometryCrop3" : {
                              "type" : "double",
                              "defaultValue" : 0.0,
                              "interp" : "eioe"
                            },
                            "cursorScale" : {
                              "type" : "double",
                              "defaultValue" : 0.0,
                              "interp" : "linr"
                            },
                            "cursorOpacity" : {
                              "type" : "double",
                              "defaultValue" : 0.0,
                              "interp" : "linr"
                            },
                            "cursorTrackLevel" : {
                              "type" : "double",
                              "defaultValue" : 0.0,
                              "interp" : "linr"
                            },
                            "smoothCursorAcrossEditDuration" : 0
                          },
                          "effects" : [

                          ],
                          "start" : 458898720000,
                          "duration" : 581226240000,
                          "mediaStart" : 1416350880000,
                          "mediaDuration" : 581226240000,
                          "scalar" : 1,
                          "metadata" : {
                            "AutoAppliedSmartFocus" : "False",
                            "audiateLinkedSession" : "",
                            "clipSpeedAttribute" : { "type": "bool", "value" : false},
                            "colorAttribute" : { "type": "color", "value" : [ 0, 0, 0, 0]},
                            "default-height" : { "type": "double", "value" : 1036.8},
                            "default-translation0" : { "type": "double", "value" : 0.0},
                            "default-translation1" : { "type": "double", "value" : -194.4},
                            "default-translation2" : { "type": "double", "value" : 0.0},
                            "default-width" : { "type": "double", "value" : 1932.67572815534}
                          },
                          "animationTracks" : {

                          }
                        },
                        {
                          "id" : 563,
                          "_type" : "ScreenVMFile",
                          "src" : 2,
                          "trackNumber" : 0,
                          "attributes" : {
                            "ident" : "Rec 4-22-2025-8-51-30-PM"
                          },
                          "parameters" : {
                            "geometryCrop0" : {
                              "type" : "double",
                              "defaultValue" : 0.0,
                              "interp" : "eioe"
                            },
                            "geometryCrop1" : {
                              "type" : "double",
                              "defaultValue" : 0.0,
                              "interp" : "eioe"
                            },
                            "geometryCrop2" : {
                              "type" : "double",
                              "defaultValue" : 0.0,
                              "interp" : "eioe"
                            },
                            "geometryCrop3" : {
                              "type" : "double",
                              "defaultValue" : 0.0,
                              "interp" : "eioe"
                            },
                            "cursorScale" : {
                              "type" : "double",
                              "defaultValue" : 0.0,
                              "interp" : "linr"
                            },
                            "cursorOpacity" : {
                              "type" : "double",
                              "defaultValue" : 0.0,
                              "interp" : "linr"
                            },
                            "cursorTrackLevel" : {
                              "type" : "double",
                              "defaultValue" : 0.0,
                              "interp" : "linr"
                            },
                            "smoothCursorAcrossEditDuration" : 0
                          },
                          "effects" : [

                          ],
                          "start" : 1040124960000,
                          "duration" : 215419680000,
                          "mediaStart" : 2018886240000,
                          "mediaDuration" : 215419680000,
                          "scalar" : 1,
                          "metadata" : {
                            "AutoAppliedSmartFocus" : "False",
                            "audiateLinkedSession" : "",
                            "clipSpeedAttribute" : { "type": "bool", "value" : false},
                            "colorAttribute" : { "type": "color", "value" : [ 0, 0, 0, 0]},
                            "default-height" : { "type": "double", "value" : 1036.8},
                            "default-translation0" : { "type": "double", "value" : 0.0},
                            "default-translation1" : { "type": "double", "value" : -194.4},
                            "default-translation2" : { "type": "double", "value" : 0.0},
                            "default-width" : { "type": "double", "value" : 1932.67572815534}
                          },
                          "animationTracks" : {

                          }
                        },
                        {
                          "id" : 564,
                          "_type" : "ScreenVMFile",
                          "src" : 2,
                          "trackNumber" : 0,
                          "attributes" : {
                            "ident" : "Rec 4-22-2025-8-51-30-PM"
                          },
                          "parameters" : {
                            "geometryCrop0" : {
                              "type" : "double",
                              "defaultValue" : 0.0,
                              "interp" : "eioe"
                            },
                            "geometryCrop1" : {
                              "type" : "double",
                              "defaultValue" : 0.0,
                              "interp" : "eioe"
                            },
                            "geometryCrop2" : {
                              "type" : "double",
                              "defaultValue" : 0.0,
                              "interp" : "eioe"
                            },
                            "geometryCrop3" : {
                              "type" : "double",
                              "defaultValue" : 0.0,
                              "interp" : "eioe"
                            },
                            "cursorScale" : {
                              "type" : "double",
                              "defaultValue" : 0.0,
                              "interp" : "linr"
                            },
                            "cursorOpacity" : {
                              "type" : "double",
                              "defaultValue" : 0.0,
                              "interp" : "linr"
                            },
                            "cursorTrackLevel" : {
                              "type" : "double",
                              "defaultValue" : 0.0,
                              "interp" : "linr"
                            },
                            "smoothCursorAcrossEditDuration" : 0
                          },
                          "effects" : [

                          ],
                          "start" : 1255544640000,
                          "duration" : 786955680000,
                          "mediaStart" : 2257778880000,
                          "mediaDuration" : 786955680000,
                          "scalar" : 1,
                          "metadata" : {
                            "AutoAppliedSmartFocus" : "False",
                            "audiateLinkedSession" : "",
                            "clipSpeedAttribute" : { "type": "bool", "value" : false},
                            "colorAttribute" : { "type": "color", "value" : [ 0, 0, 0, 0]},
                            "default-height" : { "type": "double", "value" : 1036.8},
                            "default-translation0" : { "type": "double", "value" : 0.0},
                            "default-translation1" : { "type": "double", "value" : -194.4},
                            "default-translation2" : { "type": "double", "value" : 0.0},
                            "default-width" : { "type": "double", "value" : 1932.67572815534}
                          },
                          "animationTracks" : {

                          }
                        },
                        {
                          "id" : 565,
                          "_type" : "ScreenVMFile",
                          "src" : 2,
                          "trackNumber" : 0,
                          "attributes" : {
                            "ident" : "Rec 4-22-2025-8-51-30-PM"
                          },
                          "parameters" : {
                            "geometryCrop0" : {
                              "type" : "double",
                              "defaultValue" : 0.0,
                              "interp" : "eioe"
                            },
                            "geometryCrop1" : {
                              "type" : "double",
                              "defaultValue" : 0.0,
                              "interp" : "eioe"
                            },
                            "geometryCrop2" : {
                              "type" : "double",
                              "defaultValue" : 0.0,
                              "interp" : "eioe"
                            },
                            "geometryCrop3" : {
                              "type" : "double",
                              "defaultValue" : 0.0,
                              "interp" : "eioe"
                            },
                            "cursorScale" : {
                              "type" : "double",
                              "defaultValue" : 0.0,
                              "interp" : "linr"
                            },
                            "cursorOpacity" : {
                              "type" : "double",
                              "defaultValue" : 0.0,
                              "interp" : "linr"
                            },
                            "cursorTrackLevel" : {
                              "type" : "double",
                              "defaultValue" : 0.0,
                              "interp" : "linr"
                            },
                            "smoothCursorAcrossEditDuration" : 0
                          },
                          "effects" : [

                          ],
                          "start" : 2042500320000,
                          "duration" : 20768160000,
                          "mediaStart" : 3047580480000,
                          "mediaDuration" : 20768160000,
                          "scalar" : 1,
                          "metadata" : {
                            "AutoAppliedSmartFocus" : "False",
                            "audiateLinkedSession" : "",
                            "clipSpeedAttribute" : { "type": "bool", "value" : false},
                            "colorAttribute" : { "type": "color", "value" : [ 0, 0, 0, 0]},
                            "default-height" : { "type": "double", "value" : 1036.8},
                            "default-translation0" : { "type": "double", "value" : 0.0},
                            "default-translation1" : { "type": "double", "value" : -194.4},
                            "default-translation2" : { "type": "double", "value" : 0.0},
                            "default-width" : { "type": "double", "value" : 1932.67572815534}
                          },
                          "animationTracks" : {

                          }
                        },
                        {
                          "id" : 566,
                          "_type" : "ScreenVMFile",
                          "src" : 2,
                          "trackNumber" : 0,
                          "attributes" : {
                            "ident" : "Rec 4-22-2025-8-51-30-PM"
                          },
                          "parameters" : {
                            "geometryCrop0" : {
                              "type" : "double",
                              "defaultValue" : 0.0,
                              "interp" : "eioe"
                            },
                            "geometryCrop1" : {
                              "type" : "double",
                              "defaultValue" : 0.0,
                              "interp" : "eioe"
                            },
                            "geometryCrop2" : {
                              "type" : "double",
                              "defaultValue" : 0.0,
                              "interp" : "eioe"
                            },
                            "geometryCrop3" : {
                              "type" : "double",
                              "defaultValue" : 0.0,
                              "interp" : "eioe"
                            },
                            "cursorScale" : {
                              "type" : "double",
                              "defaultValue" : 0.0,
                              "interp" : "linr"
                            },
                            "cursorOpacity" : {
                              "type" : "double",
                              "defaultValue" : 0.0,
                              "interp" : "linr"
                            },
                            "cursorTrackLevel" : {
                              "type" : "double",
                              "defaultValue" : 0.0,
                              "interp" : "linr"
                            },
                            "smoothCursorAcrossEditDuration" : 0
                          },
                          "effects" : [

                          ],
                          "start" : 2063268480000,
                          "duration" : 343039200000,
                          "mediaStart" : 3138932160000,
                          "mediaDuration" : 343039200000,
                          "scalar" : 1,
                          "metadata" : {
                            "AutoAppliedSmartFocus" : "False",
                            "audiateLinkedSession" : "",
                            "clipSpeedAttribute" : { "type": "bool", "value" : false},
                            "colorAttribute" : { "type": "color", "value" : [ 0, 0, 0, 0]},
                            "default-height" : { "type": "double", "value" : 1036.8},
                            "default-translation0" : { "type": "double", "value" : 0.0},
                            "default-translation1" : { "type": "double", "value" : -194.4},
                            "default-translation2" : { "type": "double", "value" : 0.0},
                            "default-width" : { "type": "double", "value" : 1932.67572815534}
                          },
                          "animationTracks" : {

                          }
                        }
                    ],
                    "effects" : [
                        {
                          "effectName" : "CursorColor",
                          "bypassed" : false,
                          "category" : "categoryCursorEffects",
                          "parameters" : {
                            "intensity" : 1.0,
                            "desaturation" : 0.0,
                            "colorLumaCutoff" : 1.0,
                            "color-alpha" : 1.0,
                            "color-red" : 1.0,
                            "color-green" : 0.8980392157,
                            "color-blue" : 0.1215686275,
                            "secondColor-red" : 0.0,
                            "secondColor-green" : 0.0,
                            "secondColor-blue" : 0.0,
                            "secondColor-alpha" : 1.0,
                            "secondColorLumaCutoff" : 0.0,
                            "channel" : 0,
                            "shadowRampStart" : 0.0,
                            "shadowRampEnd" : 0.0,
                            "highlightRampStart" : 1.0,
                            "highlightRampEnd" : 1.0
                          }
                        },
                        {
                          "effectName" : "CursorShadow",
                          "bypassed" : false,
                          "category" : "categoryCursorEffects",
                          "parameters" : {
                            "angle" : 3.92699081698724,
                            "enabled" : 1,
                            "offset" : 5.0,
                            "blur" : 2.0,
                            "opacity" : 0.25,
                            "color-red" : 0.0,
                            "color-green" : 0.0,
                            "color-blue" : 0.0,
                            "color-alpha" : 1.0
                          }
                        },
                        {
                          "effectName" : "CursorHilight",
                          "bypassed" : false,
                          "category" : "categoryCursorEffects",
                          "parameters" : {
                            "radius" : 50.0,
                            "color-red" : 1.0,
                            "color-green" : 1.0,
                            "color-blue" : 0.0,
                            "color-alpha" : 0.75,
                            "blur" : 0.1
                          }
                        }
                    ],
                    "start" : 116024160000,
                    "duration" : 258720000,
                    "mediaStart" : 1223636232000,
                    "mediaDuration" : 10905048000,
                    "scalar" : "20/843",
                    "metadata" : {
                      "AutoAppliedSmartFocus" : "False",
                      "audiateLinkedSession" : "",
                      "clipSpeedAttribute" : { "type": "bool", "value" : true},
                      "colorAttribute" : { "type": "color", "value" : [ 0, 0, 0, 0]},
                      "default-height" : { "type": "double", "value" : 1036.8},
                      "default-translation0" : { "type": "double", "value" : 0.0},
                      "default-translation1" : { "type": "double", "value" : -194.4},
                      "default-translation2" : { "type": "double", "value" : 0.0},
                      "default-width" : { "type": "double", "value" : 1932.67572815534}
                    },
                    "animationTracks" : {

                    }
                  },
                  {
                    "id" : 567,
                    "_type" : "StitchedMedia",
                    "minMediaStart" : 0,
                    "attributes" : {
                      "ident" : "Rec 4-22-2025-8-51-30-PM",
                      "gain" : 1.0,
                      "mixToMono" : false,
                      "loudnessNormalization" : true,
                      "sourceFileOffset" : 0
                    },
                    "parameters" : {
                      "translation0" : 6.33786407766917,
                      "translation1" : -2.8421709430404e-14,
                      "scale0" : 0.503300970873786,
                      "scale1" : 0.503300970873786,
                      "geometryCrop0" : 0.0,
                      "geometryCrop1" : 0.0,
                      "geometryCrop2" : 0.0,
                      "geometryCrop3" : 0.0,
                      "toc" : {
                        "type" : "string",
                        "keyframes" : [
                          {
                            "endTime" : 1234541280000,
                            "time" : 1234541280000,
                            "value" : "unit test done",
                            "duration" : 0,
                            "metadata" : {
                              "markerIdentifier" : "FD4A7210-65BE-4EE1-978A-9FDFC0640AD6"
                            }
                          },
                          {
                            "endTime" : 1238233920000,
                            "time" : 1238233920000,
                            "value" : "Click Actions",
                            "duration" : 0,
                            "metadata" : {
                              "markerIdentifier" : "69BC9875-614D-4248-BEDD-FB40C1FA5719"
                            }
                          }
                        ]
                      },
                      "cursorOpacity" : 1.0,
                      "cursorTrackLevel" : 0.0,
                      "cursorScale" : 5.0,
                      "smoothCursorAcrossEditDuration" : 0
                    },
                    "medias" : [
                        {
                          "id" : 568,
                          "_type" : "ScreenVMFile",
                          "src" : 2,
                          "trackNumber" : 0,
                          "attributes" : {
                            "ident" : "Rec 4-22-2025-8-51-30-PM"
                          },
                          "parameters" : {
                            "geometryCrop0" : {
                              "type" : "double",
                              "defaultValue" : 0.0,
                              "interp" : "eioe"
                            },
                            "geometryCrop1" : {
                              "type" : "double",
                              "defaultValue" : 0.0,
                              "interp" : "eioe"
                            },
                            "geometryCrop2" : {
                              "type" : "double",
                              "defaultValue" : 0.0,
                              "interp" : "eioe"
                            },
                            "geometryCrop3" : {
                              "type" : "double",
                              "defaultValue" : 0.0,
                              "interp" : "eioe"
                            },
                            "cursorScale" : {
                              "type" : "double",
                              "defaultValue" : 0.0,
                              "interp" : "linr"
                            },
                            "cursorOpacity" : {
                              "type" : "double",
                              "defaultValue" : 0.0,
                              "interp" : "linr"
                            },
                            "cursorTrackLevel" : {
                              "type" : "double",
                              "defaultValue" : 0.0,
                              "interp" : "linr"
                            },
                            "smoothCursorAcrossEditDuration" : 0
                          },
                          "effects" : [

                          ],
                          "start" : 0,
                          "duration" : 50991360000,
                          "mediaStart" : 0,
                          "mediaDuration" : 50991360000,
                          "scalar" : 1,
                          "metadata" : {
                            "AutoAppliedSmartFocus" : "False",
                            "audiateLinkedSession" : "",
                            "clipSpeedAttribute" : { "type": "bool", "value" : false},
                            "colorAttribute" : { "type": "color", "value" : [ 0, 0, 0, 0]},
                            "default-height" : { "type": "double", "value" : 1036.8},
                            "default-translation0" : { "type": "double", "value" : 0.0},
                            "default-translation1" : { "type": "double", "value" : -194.4},
                            "default-translation2" : { "type": "double", "value" : 0.0},
                            "default-width" : { "type": "double", "value" : 1932.67572815534}
                          },
                          "animationTracks" : {

                          }
                        },
                        {
                          "id" : 569,
                          "_type" : "ScreenVMFile",
                          "src" : 2,
                          "trackNumber" : 0,
                          "attributes" : {
                            "ident" : "Rec 4-22-2025-8-51-30-PM"
                          },
                          "parameters" : {
                            "geometryCrop0" : {
                              "type" : "double",
                              "defaultValue" : 0.0,
                              "interp" : "eioe"
                            },
                            "geometryCrop1" : {
                              "type" : "double",
                              "defaultValue" : 0.0,
                              "interp" : "eioe"
                            },
                            "geometryCrop2" : {
                              "type" : "double",
                              "defaultValue" : 0.0,
                              "interp" : "eioe"
                            },
                            "geometryCrop3" : {
                              "type" : "double",
                              "defaultValue" : 0.0,
                              "interp" : "eioe"
                            },
                            "cursorScale" : {
                              "type" : "double",
                              "defaultValue" : 0.0,
                              "interp" : "linr"
                            },
                            "cursorOpacity" : {
                              "type" : "double",
                              "defaultValue" : 0.0,
                              "interp" : "linr"
                            },
                            "cursorTrackLevel" : {
                              "type" : "double",
                              "defaultValue" : 0.0,
                              "interp" : "linr"
                            },
                            "smoothCursorAcrossEditDuration" : 0
                          },
                          "effects" : [

                          ],
                          "start" : 50991360000,
                          "duration" : 46663680000,
                          "mediaStart" : 66467520000,
                          "mediaDuration" : 46663680000,
                          "scalar" : 1,
                          "metadata" : {
                            "AutoAppliedSmartFocus" : "False",
                            "audiateLinkedSession" : "",
                            "clipSpeedAttribute" : { "type": "bool", "value" : false},
                            "colorAttribute" : { "type": "color", "value" : [ 0, 0, 0, 0]},
                            "default-height" : { "type": "double", "value" : 1036.8},
                            "default-translation0" : { "type": "double", "value" : 0.0},
                            "default-translation1" : { "type": "double", "value" : -194.4},
                            "default-translation2" : { "type": "double", "value" : 0.0},
                            "default-width" : { "type": "double", "value" : 1932.67572815534}
                          },
                          "animationTracks" : {

                          }
                        },
                        {
                          "id" : 570,
                          "_type" : "ScreenVMFile",
                          "src" : 2,
                          "trackNumber" : 0,
                          "attributes" : {
                            "ident" : "Rec 4-22-2025-8-51-30-PM"
                          },
                          "parameters" : {
                            "geometryCrop0" : {
                              "type" : "double",
                              "defaultValue" : 0.0,
                              "interp" : "eioe"
                            },
                            "geometryCrop1" : {
                              "type" : "double",
                              "defaultValue" : 0.0,
                              "interp" : "eioe"
                            },
                            "geometryCrop2" : {
                              "type" : "double",
                              "defaultValue" : 0.0,
                              "interp" : "eioe"
                            },
                            "geometryCrop3" : {
                              "type" : "double",
                              "defaultValue" : 0.0,
                              "interp" : "eioe"
                            },
                            "cursorScale" : {
                              "type" : "double",
                              "defaultValue" : 0.0,
                              "interp" : "linr"
                            },
                            "cursorOpacity" : {
                              "type" : "double",
                              "defaultValue" : 0.0,
                              "interp" : "linr"
                            },
                            "cursorTrackLevel" : {
                              "type" : "double",
                              "defaultValue" : 0.0,
                              "interp" : "linr"
                            },
                            "smoothCursorAcrossEditDuration" : 0
                          },
                          "effects" : [

                          ],
                          "start" : 97655040000,
                          "duration" : 352282560000,
                          "mediaStart" : 149352000000,
                          "mediaDuration" : 352282560000,
                          "scalar" : 1,
                          "metadata" : {
                            "AutoAppliedSmartFocus" : "False",
                            "audiateLinkedSession" : "",
                            "clipSpeedAttribute" : { "type": "bool", "value" : false},
                            "colorAttribute" : { "type": "color", "value" : [ 0, 0, 0, 0]},
                            "default-height" : { "type": "double", "value" : 1036.8},
                            "default-translation0" : { "type": "double", "value" : 0.0},
                            "default-translation1" : { "type": "double", "value" : -194.4},
                            "default-translation2" : { "type": "double", "value" : 0.0},
                            "default-width" : { "type": "double", "value" : 1932.67572815534}
                          },
                          "animationTracks" : {

                          }
                        },
                        {
                          "id" : 571,
                          "_type" : "ScreenVMFile",
                          "src" : 2,
                          "trackNumber" : 0,
                          "attributes" : {
                            "ident" : "Rec 4-22-2025-8-51-30-PM"
                          },
                          "parameters" : {
                            "geometryCrop0" : {
                              "type" : "double",
                              "defaultValue" : 0.0,
                              "interp" : "eioe"
                            },
                            "geometryCrop1" : {
                              "type" : "double",
                              "defaultValue" : 0.0,
                              "interp" : "eioe"
                            },
                            "geometryCrop2" : {
                              "type" : "double",
                              "defaultValue" : 0.0,
                              "interp" : "eioe"
                            },
                            "geometryCrop3" : {
                              "type" : "double",
                              "defaultValue" : 0.0,
                              "interp" : "eioe"
                            },
                            "cursorScale" : {
                              "type" : "double",
                              "defaultValue" : 0.0,
                              "interp" : "linr"
                            },
                            "cursorOpacity" : {
                              "type" : "double",
                              "defaultValue" : 0.0,
                              "interp" : "linr"
                            },
                            "cursorTrackLevel" : {
                              "type" : "double",
                              "defaultValue" : 0.0,
                              "interp" : "linr"
                            },
                            "smoothCursorAcrossEditDuration" : 0
                          },
                          "effects" : [

                          ],
                          "start" : 449937600000,
                          "duration" : 8961120000,
                          "mediaStart" : 509843040000,
                          "mediaDuration" : 8961120000,
                          "scalar" : 1,
                          "metadata" : {
                            "AutoAppliedSmartFocus" : "False",
                            "audiateLinkedSession" : "",
                            "clipSpeedAttribute" : { "type": "bool", "value" : false},
                            "colorAttribute" : { "type": "color", "value" : [ 0, 0, 0, 0]},
                            "default-height" : { "type": "double", "value" : 1036.8},
                            "default-translation0" : { "type": "double", "value" : 0.0},
                            "default-translation1" : { "type": "double", "value" : -194.4},
                            "default-translation2" : { "type": "double", "value" : 0.0},
                            "default-width" : { "type": "double", "value" : 1932.67572815534}
                          },
                          "animationTracks" : {

                          }
                        },
                        {
                          "id" : 572,
                          "_type" : "ScreenVMFile",
                          "src" : 2,
                          "trackNumber" : 0,
                          "attributes" : {
                            "ident" : "Rec 4-22-2025-8-51-30-PM"
                          },
                          "parameters" : {
                            "geometryCrop0" : {
                              "type" : "double",
                              "defaultValue" : 0.0,
                              "interp" : "eioe"
                            },
                            "geometryCrop1" : {
                              "type" : "double",
                              "defaultValue" : 0.0,
                              "interp" : "eioe"
                            },
                            "geometryCrop2" : {
                              "type" : "double",
                              "defaultValue" : 0.0,
                              "interp" : "eioe"
                            },
                            "geometryCrop3" : {
                              "type" : "double",
                              "defaultValue" : 0.0,
                              "interp" : "eioe"
                            },
                            "cursorScale" : {
                              "type" : "double",
                              "defaultValue" : 0.0,
                              "interp" : "linr"
                            },
                            "cursorOpacity" : {
                              "type" : "double",
                              "defaultValue" : 0.0,
                              "interp" : "linr"
                            },
                            "cursorTrackLevel" : {
                              "type" : "double",
                              "defaultValue" : 0.0,
                              "interp" : "linr"
                            },
                            "smoothCursorAcrossEditDuration" : 0
                          },
                          "effects" : [

                          ],
                          "start" : 458898720000,
                          "duration" : 581226240000,
                          "mediaStart" : 1416350880000,
                          "mediaDuration" : 581226240000,
                          "scalar" : 1,
                          "metadata" : {
                            "AutoAppliedSmartFocus" : "False",
                            "audiateLinkedSession" : "",
                            "clipSpeedAttribute" : { "type": "bool", "value" : false},
                            "colorAttribute" : { "type": "color", "value" : [ 0, 0, 0, 0]},
                            "default-height" : { "type": "double", "value" : 1036.8},
                            "default-translation0" : { "type": "double", "value" : 0.0},
                            "default-translation1" : { "type": "double", "value" : -194.4},
                            "default-translation2" : { "type": "double", "value" : 0.0},
                            "default-width" : { "type": "double", "value" : 1932.67572815534}
                          },
                          "animationTracks" : {

                          }
                        },
                        {
                          "id" : 573,
                          "_type" : "ScreenVMFile",
                          "src" : 2,
                          "trackNumber" : 0,
                          "attributes" : {
                            "ident" : "Rec 4-22-2025-8-51-30-PM"
                          },
                          "parameters" : {
                            "geometryCrop0" : {
                              "type" : "double",
                              "defaultValue" : 0.0,
                              "interp" : "eioe"
                            },
                            "geometryCrop1" : {
                              "type" : "double",
                              "defaultValue" : 0.0,
                              "interp" : "eioe"
                            },
                            "geometryCrop2" : {
                              "type" : "double",
                              "defaultValue" : 0.0,
                              "interp" : "eioe"
                            },
                            "geometryCrop3" : {
                              "type" : "double",
                              "defaultValue" : 0.0,
                              "interp" : "eioe"
                            },
                            "cursorScale" : {
                              "type" : "double",
                              "defaultValue" : 0.0,
                              "interp" : "linr"
                            },
                            "cursorOpacity" : {
                              "type" : "double",
                              "defaultValue" : 0.0,
                              "interp" : "linr"
                            },
                            "cursorTrackLevel" : {
                              "type" : "double",
                              "defaultValue" : 0.0,
                              "interp" : "linr"
                            },
                            "smoothCursorAcrossEditDuration" : 0
                          },
                          "effects" : [

                          ],
                          "start" : 1040124960000,
                          "duration" : 198108960000,
                          "mediaStart" : 2018886240000,
                          "mediaDuration" : 198108960000,
                          "scalar" : 1,
                          "metadata" : {
                            "AutoAppliedSmartFocus" : "False",
                            "audiateLinkedSession" : "",
                            "clipSpeedAttribute" : { "type": "bool", "value" : false},
                            "colorAttribute" : { "type": "color", "value" : [ 0, 0, 0, 0]},
                            "default-height" : { "type": "double", "value" : 1036.8},
                            "default-translation0" : { "type": "double", "value" : 0.0},
                            "default-translation1" : { "type": "double", "value" : -194.4},
                            "default-translation2" : { "type": "double", "value" : 0.0},
                            "default-width" : { "type": "double", "value" : 1932.67572815534}
                          },
                          "animationTracks" : {

                          }
                        },
                        {
                          "id" : 574,
                          "_type" : "ScreenVMFile",
                          "src" : 2,
                          "trackNumber" : 0,
                          "attributes" : {
                            "ident" : "Rec 4-22-2025-8-51-30-PM"
                          },
                          "parameters" : {
                            "geometryCrop0" : {
                              "type" : "double",
                              "defaultValue" : 0.0,
                              "interp" : "eioe"
                            },
                            "geometryCrop1" : {
                              "type" : "double",
                              "defaultValue" : 0.0,
                              "interp" : "eioe"
                            },
                            "geometryCrop2" : {
                              "type" : "double",
                              "defaultValue" : 0.0,
                              "interp" : "eioe"
                            },
                            "geometryCrop3" : {
                              "type" : "double",
                              "defaultValue" : 0.0,
                              "interp" : "eioe"
                            },
                            "cursorScale" : {
                              "type" : "double",
                              "defaultValue" : 0.0,
                              "interp" : "linr"
                            },
                            "cursorOpacity" : {
                              "type" : "double",
                              "defaultValue" : 0.0,
                              "interp" : "linr"
                            },
                            "cursorTrackLevel" : {
                              "type" : "double",
                              "defaultValue" : 0.0,
                              "interp" : "linr"
                            },
                            "smoothCursorAcrossEditDuration" : 0
                          },
                          "effects" : [

                          ],
                          "start" : 1238233920000,
                          "duration" : 2234400000,
                          "mediaStart" : 2216995200000,
                          "mediaDuration" : 2234400000,
                          "scalar" : 1,
                          "metadata" : {
                            "AutoAppliedSmartFocus" : "False",
                            "audiateLinkedSession" : "",
                            "clipSpeedAttribute" : { "type": "bool", "value" : false},
                            "colorAttribute" : { "type": "color", "value" : [ 0, 0, 0, 0]},
                            "default-height" : { "type": "double", "value" : 1036.8},
                            "default-translation0" : { "type": "double", "value" : 0.0},
                            "default-translation1" : { "type": "double", "value" : -194.4},
                            "default-translation2" : { "type": "double", "value" : 0.0},
                            "default-width" : { "type": "double", "value" : 1932.67572815534}
                          },
                          "animationTracks" : {

                          }
                        },
                        {
                          "id" : 575,
                          "_type" : "ScreenVMFile",
                          "src" : 2,
                          "trackNumber" : 0,
                          "attributes" : {
                            "ident" : "Rec 4-22-2025-8-51-30-PM"
                          },
                          "parameters" : {
                            "geometryCrop0" : {
                              "type" : "double",
                              "defaultValue" : 0.0,
                              "interp" : "eioe"
                            },
                            "geometryCrop1" : {
                              "type" : "double",
                              "defaultValue" : 0.0,
                              "interp" : "eioe"
                            },
                            "geometryCrop2" : {
                              "type" : "double",
                              "defaultValue" : 0.0,
                              "interp" : "eioe"
                            },
                            "geometryCrop3" : {
                              "type" : "double",
                              "defaultValue" : 0.0,
                              "interp" : "eioe"
                            },
                            "cursorScale" : {
                              "type" : "double",
                              "defaultValue" : 0.0,
                              "interp" : "linr"
                            },
                            "cursorOpacity" : {
                              "type" : "double",
                              "defaultValue" : 0.0,
                              "interp" : "linr"
                            },
                            "cursorTrackLevel" : {
                              "type" : "double",
                              "defaultValue" : 0.0,
                              "interp" : "linr"
                            },
                            "smoothCursorAcrossEditDuration" : 0
                          },
                          "effects" : [

                          ],
                          "start" : 1240468320000,
                          "duration" : 15076320000,
                          "mediaStart" : 2219229600000,
                          "mediaDuration" : 15076320000,
                          "scalar" : 1,
                          "metadata" : {
                            "AutoAppliedSmartFocus" : "False",
                            "audiateLinkedSession" : "",
                            "clipSpeedAttribute" : { "type": "bool", "value" : false},
                            "colorAttribute" : { "type": "color", "value" : [ 0, 0, 0, 0]},
                            "default-height" : { "type": "double", "value" : 1036.8},
                            "default-translation0" : { "type": "double", "value" : 0.0},
                            "default-translation1" : { "type": "double", "value" : -194.4},
                            "default-translation2" : { "type": "double", "value" : 0.0},
                            "default-width" : { "type": "double", "value" : 1932.67572815534}
                          },
                          "animationTracks" : {

                          }
                        },
                        {
                          "id" : 576,
                          "_type" : "ScreenVMFile",
                          "src" : 2,
                          "trackNumber" : 0,
                          "attributes" : {
                            "ident" : "Rec 4-22-2025-8-51-30-PM"
                          },
                          "parameters" : {
                            "geometryCrop0" : {
                              "type" : "double",
                              "defaultValue" : 0.0,
                              "interp" : "eioe"
                            },
                            "geometryCrop1" : {
                              "type" : "double",
                              "defaultValue" : 0.0,
                              "interp" : "eioe"
                            },
                            "geometryCrop2" : {
                              "type" : "double",
                              "defaultValue" : 0.0,
                              "interp" : "eioe"
                            },
                            "geometryCrop3" : {
                              "type" : "double",
                              "defaultValue" : 0.0,
                              "interp" : "eioe"
                            },
                            "cursorScale" : {
                              "type" : "double",
                              "defaultValue" : 0.0,
                              "interp" : "linr"
                            },
                            "cursorOpacity" : {
                              "type" : "double",
                              "defaultValue" : 0.0,
                              "interp" : "linr"
                            },
                            "cursorTrackLevel" : {
                              "type" : "double",
                              "defaultValue" : 0.0,
                              "interp" : "linr"
                            },
                            "smoothCursorAcrossEditDuration" : 0
                          },
                          "effects" : [

                          ],
                          "start" : 1255544640000,
                          "duration" : 786955680000,
                          "mediaStart" : 2257778880000,
                          "mediaDuration" : 786955680000,
                          "scalar" : 1,
                          "metadata" : {
                            "AutoAppliedSmartFocus" : "False",
                            "audiateLinkedSession" : "",
                            "clipSpeedAttribute" : { "type": "bool", "value" : false},
                            "colorAttribute" : { "type": "color", "value" : [ 0, 0, 0, 0]},
                            "default-height" : { "type": "double", "value" : 1036.8},
                            "default-translation0" : { "type": "double", "value" : 0.0},
                            "default-translation1" : { "type": "double", "value" : -194.4},
                            "default-translation2" : { "type": "double", "value" : 0.0},
                            "default-width" : { "type": "double", "value" : 1932.67572815534}
                          },
                          "animationTracks" : {

                          }
                        },
                        {
                          "id" : 577,
                          "_type" : "ScreenVMFile",
                          "src" : 2,
                          "trackNumber" : 0,
                          "attributes" : {
                            "ident" : "Rec 4-22-2025-8-51-30-PM"
                          },
                          "parameters" : {
                            "geometryCrop0" : {
                              "type" : "double",
                              "defaultValue" : 0.0,
                              "interp" : "eioe"
                            },
                            "geometryCrop1" : {
                              "type" : "double",
                              "defaultValue" : 0.0,
                              "interp" : "eioe"
                            },
                            "geometryCrop2" : {
                              "type" : "double",
                              "defaultValue" : 0.0,
                              "interp" : "eioe"
                            },
                            "geometryCrop3" : {
                              "type" : "double",
                              "defaultValue" : 0.0,
                              "interp" : "eioe"
                            },
                            "cursorScale" : {
                              "type" : "double",
                              "defaultValue" : 0.0,
                              "interp" : "linr"
                            },
                            "cursorOpacity" : {
                              "type" : "double",
                              "defaultValue" : 0.0,
                              "interp" : "linr"
                            },
                            "cursorTrackLevel" : {
                              "type" : "double",
                              "defaultValue" : 0.0,
                              "interp" : "linr"
                            },
                            "smoothCursorAcrossEditDuration" : 0
                          },
                          "effects" : [

                          ],
                          "start" : 2042500320000,
                          "duration" : 20768160000,
                          "mediaStart" : 3047580480000,
                          "mediaDuration" : 20768160000,
                          "scalar" : 1,
                          "metadata" : {
                            "AutoAppliedSmartFocus" : "False",
                            "audiateLinkedSession" : "",
                            "clipSpeedAttribute" : { "type": "bool", "value" : false},
                            "colorAttribute" : { "type": "color", "value" : [ 0, 0, 0, 0]},
                            "default-height" : { "type": "double", "value" : 1036.8},
                            "default-translation0" : { "type": "double", "value" : 0.0},
                            "default-translation1" : { "type": "double", "value" : -194.4},
                            "default-translation2" : { "type": "double", "value" : 0.0},
                            "default-width" : { "type": "double", "value" : 1932.67572815534}
                          },
                          "animationTracks" : {

                          }
                        },
                        {
                          "id" : 578,
                          "_type" : "ScreenVMFile",
                          "src" : 2,
                          "trackNumber" : 0,
                          "attributes" : {
                            "ident" : "Rec 4-22-2025-8-51-30-PM"
                          },
                          "parameters" : {
                            "geometryCrop0" : {
                              "type" : "double",
                              "defaultValue" : 0.0,
                              "interp" : "eioe"
                            },
                            "geometryCrop1" : {
                              "type" : "double",
                              "defaultValue" : 0.0,
                              "interp" : "eioe"
                            },
                            "geometryCrop2" : {
                              "type" : "double",
                              "defaultValue" : 0.0,
                              "interp" : "eioe"
                            },
                            "geometryCrop3" : {
                              "type" : "double",
                              "defaultValue" : 0.0,
                              "interp" : "eioe"
                            },
                            "cursorScale" : {
                              "type" : "double",
                              "defaultValue" : 0.0,
                              "interp" : "linr"
                            },
                            "cursorOpacity" : {
                              "type" : "double",
                              "defaultValue" : 0.0,
                              "interp" : "linr"
                            },
                            "cursorTrackLevel" : {
                              "type" : "double",
                              "defaultValue" : 0.0,
                              "interp" : "linr"
                            },
                            "smoothCursorAcrossEditDuration" : 0
                          },
                          "effects" : [

                          ],
                          "start" : 2063268480000,
                          "duration" : 343039200000,
                          "mediaStart" : 3138932160000,
                          "mediaDuration" : 343039200000,
                          "scalar" : 1,
                          "metadata" : {
                            "AutoAppliedSmartFocus" : "False",
                            "audiateLinkedSession" : "",
                            "clipSpeedAttribute" : { "type": "bool", "value" : false},
                            "colorAttribute" : { "type": "color", "value" : [ 0, 0, 0, 0]},
                            "default-height" : { "type": "double", "value" : 1036.8},
                            "default-translation0" : { "type": "double", "value" : 0.0},
                            "default-translation1" : { "type": "double", "value" : -194.4},
                            "default-translation2" : { "type": "double", "value" : 0.0},
                            "default-width" : { "type": "double", "value" : 1932.67572815534}
                          },
                          "animationTracks" : {

                          }
                        }
                    ],
                    "effects" : [
                        {
                          "effectName" : "CursorColor",
                          "bypassed" : false,
                          "category" : "categoryCursorEffects",
                          "parameters" : {
                            "intensity" : 1.0,
                            "desaturation" : 0.0,
                            "colorLumaCutoff" : 1.0,
                            "color-alpha" : 1.0,
                            "color-red" : 1.0,
                            "color-green" : 0.8980392157,
                            "color-blue" : 0.1215686275,
                            "secondColor-red" : 0.0,
                            "secondColor-green" : 0.0,
                            "secondColor-blue" : 0.0,
                            "secondColor-alpha" : 1.0,
                            "secondColorLumaCutoff" : 0.0,
                            "channel" : 0,
                            "shadowRampStart" : 0.0,
                            "shadowRampEnd" : 0.0,
                            "highlightRampStart" : 1.0,
                            "highlightRampEnd" : 1.0
                          }
                        },
                        {
                          "effectName" : "CursorShadow",
                          "bypassed" : false,
                          "category" : "categoryCursorEffects",
                          "parameters" : {
                            "angle" : 3.92699081698724,
                            "enabled" : 1,
                            "offset" : 5.0,
                            "blur" : 2.0,
                            "opacity" : 0.25,
                            "color-red" : 0.0,
                            "color-green" : 0.0,
                            "color-blue" : 0.0,
                            "color-alpha" : 1.0
                          }
                        },
                        {
                          "effectName" : "CursorHilight",
                          "bypassed" : false,
                          "category" : "categoryCursorEffects",
                          "parameters" : {
                            "radius" : 50.0,
                            "color-red" : 1.0,
                            "color-green" : 1.0,
                            "color-blue" : 0.0,
                            "color-alpha" : 0.75,
                            "blur" : 0.1
                          }
                        }
                    ],
                    "start" : 116282880000,
                    "duration" : 917280000,
                    "mediaStart" : 1234541280000,
                    "mediaDuration" : 3974880000,
                    "scalar" : "3/13",
                    "metadata" : {
                      "AutoAppliedSmartFocus" : "False",
                      "audiateLinkedSession" : "",
                      "clipSpeedAttribute" : { "type": "bool", "value" : true},
                      "colorAttribute" : { "type": "color", "value" : [ 0, 0, 0, 0]},
                      "default-height" : { "type": "double", "value" : 1036.8},
                      "default-translation0" : { "type": "double", "value" : 0.0},
                      "default-translation1" : { "type": "double", "value" : -194.4},
                      "default-translation2" : { "type": "double", "value" : 0.0},
                      "default-width" : { "type": "double", "value" : 1932.67572815534}
                    },
                    "animationTracks" : {

                    }
                  },
                  {
                    "id" : 579,
                    "_type" : "StitchedMedia",
                    "minMediaStart" : 0,
                    "attributes" : {
                      "ident" : "Rec 4-22-2025-8-51-30-PM",
                      "gain" : 1.0,
                      "mixToMono" : false,
                      "loudnessNormalization" : true,
                      "sourceFileOffset" : 0
                    },
                    "parameters" : {
                      "translation0" : 6.33786407766917,
                      "translation1" : -2.8421709430404e-14,
                      "scale0" : 0.503300970873786,
                      "scale1" : 0.503300970873786,
                      "geometryCrop0" : 0.0,
                      "geometryCrop1" : 0.0,
                      "geometryCrop2" : 0.0,
                      "geometryCrop3" : 0.0,
                      "toc" : {
                        "type" : "string",
                        "keyframes" : [
                          {
                            "endTime" : 1240468320000,
                            "time" : 1240468320000,
                            "value" : "Click Build VI Package",
                            "duration" : 0,
                            "metadata" : {
                              "markerIdentifier" : "16415886-43E2-4AEF-90F8-D8633236B3A9"
                            }
                          }
                        ]
                      },
                      "cursorOpacity" : 1.0,
                      "cursorTrackLevel" : 0.0,
                      "cursorScale" : 5.0,
                      "smoothCursorAcrossEditDuration" : 0
                    },
                    "medias" : [
                        {
                          "id" : 580,
                          "_type" : "ScreenVMFile",
                          "src" : 2,
                          "trackNumber" : 0,
                          "attributes" : {
                            "ident" : "Rec 4-22-2025-8-51-30-PM"
                          },
                          "parameters" : {
                            "geometryCrop0" : {
                              "type" : "double",
                              "defaultValue" : 0.0,
                              "interp" : "eioe"
                            },
                            "geometryCrop1" : {
                              "type" : "double",
                              "defaultValue" : 0.0,
                              "interp" : "eioe"
                            },
                            "geometryCrop2" : {
                              "type" : "double",
                              "defaultValue" : 0.0,
                              "interp" : "eioe"
                            },
                            "geometryCrop3" : {
                              "type" : "double",
                              "defaultValue" : 0.0,
                              "interp" : "eioe"
                            },
                            "cursorScale" : {
                              "type" : "double",
                              "defaultValue" : 0.0,
                              "interp" : "linr"
                            },
                            "cursorOpacity" : {
                              "type" : "double",
                              "defaultValue" : 0.0,
                              "interp" : "linr"
                            },
                            "cursorTrackLevel" : {
                              "type" : "double",
                              "defaultValue" : 0.0,
                              "interp" : "linr"
                            },
                            "smoothCursorAcrossEditDuration" : 0
                          },
                          "effects" : [

                          ],
                          "start" : 0,
                          "duration" : 50991360000,
                          "mediaStart" : 0,
                          "mediaDuration" : 50991360000,
                          "scalar" : 1,
                          "metadata" : {
                            "AutoAppliedSmartFocus" : "False",
                            "audiateLinkedSession" : "",
                            "clipSpeedAttribute" : { "type": "bool", "value" : false},
                            "colorAttribute" : { "type": "color", "value" : [ 0, 0, 0, 0]},
                            "default-height" : { "type": "double", "value" : 1036.8},
                            "default-translation0" : { "type": "double", "value" : 0.0},
                            "default-translation1" : { "type": "double", "value" : -194.4},
                            "default-translation2" : { "type": "double", "value" : 0.0},
                            "default-width" : { "type": "double", "value" : 1932.67572815534}
                          },
                          "animationTracks" : {

                          }
                        },
                        {
                          "id" : 581,
                          "_type" : "ScreenVMFile",
                          "src" : 2,
                          "trackNumber" : 0,
                          "attributes" : {
                            "ident" : "Rec 4-22-2025-8-51-30-PM"
                          },
                          "parameters" : {
                            "geometryCrop0" : {
                              "type" : "double",
                              "defaultValue" : 0.0,
                              "interp" : "eioe"
                            },
                            "geometryCrop1" : {
                              "type" : "double",
                              "defaultValue" : 0.0,
                              "interp" : "eioe"
                            },
                            "geometryCrop2" : {
                              "type" : "double",
                              "defaultValue" : 0.0,
                              "interp" : "eioe"
                            },
                            "geometryCrop3" : {
                              "type" : "double",
                              "defaultValue" : 0.0,
                              "interp" : "eioe"
                            },
                            "cursorScale" : {
                              "type" : "double",
                              "defaultValue" : 0.0,
                              "interp" : "linr"
                            },
                            "cursorOpacity" : {
                              "type" : "double",
                              "defaultValue" : 0.0,
                              "interp" : "linr"
                            },
                            "cursorTrackLevel" : {
                              "type" : "double",
                              "defaultValue" : 0.0,
                              "interp" : "linr"
                            },
                            "smoothCursorAcrossEditDuration" : 0
                          },
                          "effects" : [

                          ],
                          "start" : 50991360000,
                          "duration" : 46663680000,
                          "mediaStart" : 66467520000,
                          "mediaDuration" : 46663680000,
                          "scalar" : 1,
                          "metadata" : {
                            "AutoAppliedSmartFocus" : "False",
                            "audiateLinkedSession" : "",
                            "clipSpeedAttribute" : { "type": "bool", "value" : false},
                            "colorAttribute" : { "type": "color", "value" : [ 0, 0, 0, 0]},
                            "default-height" : { "type": "double", "value" : 1036.8},
                            "default-translation0" : { "type": "double", "value" : 0.0},
                            "default-translation1" : { "type": "double", "value" : -194.4},
                            "default-translation2" : { "type": "double", "value" : 0.0},
                            "default-width" : { "type": "double", "value" : 1932.67572815534}
                          },
                          "animationTracks" : {

                          }
                        },
                        {
                          "id" : 582,
                          "_type" : "ScreenVMFile",
                          "src" : 2,
                          "trackNumber" : 0,
                          "attributes" : {
                            "ident" : "Rec 4-22-2025-8-51-30-PM"
                          },
                          "parameters" : {
                            "geometryCrop0" : {
                              "type" : "double",
                              "defaultValue" : 0.0,
                              "interp" : "eioe"
                            },
                            "geometryCrop1" : {
                              "type" : "double",
                              "defaultValue" : 0.0,
                              "interp" : "eioe"
                            },
                            "geometryCrop2" : {
                              "type" : "double",
                              "defaultValue" : 0.0,
                              "interp" : "eioe"
                            },
                            "geometryCrop3" : {
                              "type" : "double",
                              "defaultValue" : 0.0,
                              "interp" : "eioe"
                            },
                            "cursorScale" : {
                              "type" : "double",
                              "defaultValue" : 0.0,
                              "interp" : "linr"
                            },
                            "cursorOpacity" : {
                              "type" : "double",
                              "defaultValue" : 0.0,
                              "interp" : "linr"
                            },
                            "cursorTrackLevel" : {
                              "type" : "double",
                              "defaultValue" : 0.0,
                              "interp" : "linr"
                            },
                            "smoothCursorAcrossEditDuration" : 0
                          },
                          "effects" : [

                          ],
                          "start" : 97655040000,
                          "duration" : 352282560000,
                          "mediaStart" : 149352000000,
                          "mediaDuration" : 352282560000,
                          "scalar" : 1,
                          "metadata" : {
                            "AutoAppliedSmartFocus" : "False",
                            "audiateLinkedSession" : "",
                            "clipSpeedAttribute" : { "type": "bool", "value" : false},
                            "colorAttribute" : { "type": "color", "value" : [ 0, 0, 0, 0]},
                            "default-height" : { "type": "double", "value" : 1036.8},
                            "default-translation0" : { "type": "double", "value" : 0.0},
                            "default-translation1" : { "type": "double", "value" : -194.4},
                            "default-translation2" : { "type": "double", "value" : 0.0},
                            "default-width" : { "type": "double", "value" : 1932.67572815534}
                          },
                          "animationTracks" : {

                          }
                        },
                        {
                          "id" : 583,
                          "_type" : "ScreenVMFile",
                          "src" : 2,
                          "trackNumber" : 0,
                          "attributes" : {
                            "ident" : "Rec 4-22-2025-8-51-30-PM"
                          },
                          "parameters" : {
                            "geometryCrop0" : {
                              "type" : "double",
                              "defaultValue" : 0.0,
                              "interp" : "eioe"
                            },
                            "geometryCrop1" : {
                              "type" : "double",
                              "defaultValue" : 0.0,
                              "interp" : "eioe"
                            },
                            "geometryCrop2" : {
                              "type" : "double",
                              "defaultValue" : 0.0,
                              "interp" : "eioe"
                            },
                            "geometryCrop3" : {
                              "type" : "double",
                              "defaultValue" : 0.0,
                              "interp" : "eioe"
                            },
                            "cursorScale" : {
                              "type" : "double",
                              "defaultValue" : 0.0,
                              "interp" : "linr"
                            },
                            "cursorOpacity" : {
                              "type" : "double",
                              "defaultValue" : 0.0,
                              "interp" : "linr"
                            },
                            "cursorTrackLevel" : {
                              "type" : "double",
                              "defaultValue" : 0.0,
                              "interp" : "linr"
                            },
                            "smoothCursorAcrossEditDuration" : 0
                          },
                          "effects" : [

                          ],
                          "start" : 449937600000,
                          "duration" : 8961120000,
                          "mediaStart" : 509843040000,
                          "mediaDuration" : 8961120000,
                          "scalar" : 1,
                          "metadata" : {
                            "AutoAppliedSmartFocus" : "False",
                            "audiateLinkedSession" : "",
                            "clipSpeedAttribute" : { "type": "bool", "value" : false},
                            "colorAttribute" : { "type": "color", "value" : [ 0, 0, 0, 0]},
                            "default-height" : { "type": "double", "value" : 1036.8},
                            "default-translation0" : { "type": "double", "value" : 0.0},
                            "default-translation1" : { "type": "double", "value" : -194.4},
                            "default-translation2" : { "type": "double", "value" : 0.0},
                            "default-width" : { "type": "double", "value" : 1932.67572815534}
                          },
                          "animationTracks" : {

                          }
                        },
                        {
                          "id" : 584,
                          "_type" : "ScreenVMFile",
                          "src" : 2,
                          "trackNumber" : 0,
                          "attributes" : {
                            "ident" : "Rec 4-22-2025-8-51-30-PM"
                          },
                          "parameters" : {
                            "geometryCrop0" : {
                              "type" : "double",
                              "defaultValue" : 0.0,
                              "interp" : "eioe"
                            },
                            "geometryCrop1" : {
                              "type" : "double",
                              "defaultValue" : 0.0,
                              "interp" : "eioe"
                            },
                            "geometryCrop2" : {
                              "type" : "double",
                              "defaultValue" : 0.0,
                              "interp" : "eioe"
                            },
                            "geometryCrop3" : {
                              "type" : "double",
                              "defaultValue" : 0.0,
                              "interp" : "eioe"
                            },
                            "cursorScale" : {
                              "type" : "double",
                              "defaultValue" : 0.0,
                              "interp" : "linr"
                            },
                            "cursorOpacity" : {
                              "type" : "double",
                              "defaultValue" : 0.0,
                              "interp" : "linr"
                            },
                            "cursorTrackLevel" : {
                              "type" : "double",
                              "defaultValue" : 0.0,
                              "interp" : "linr"
                            },
                            "smoothCursorAcrossEditDuration" : 0
                          },
                          "effects" : [

                          ],
                          "start" : 458898720000,
                          "duration" : 581226240000,
                          "mediaStart" : 1416350880000,
                          "mediaDuration" : 581226240000,
                          "scalar" : 1,
                          "metadata" : {
                            "AutoAppliedSmartFocus" : "False",
                            "audiateLinkedSession" : "",
                            "clipSpeedAttribute" : { "type": "bool", "value" : false},
                            "colorAttribute" : { "type": "color", "value" : [ 0, 0, 0, 0]},
                            "default-height" : { "type": "double", "value" : 1036.8},
                            "default-translation0" : { "type": "double", "value" : 0.0},
                            "default-translation1" : { "type": "double", "value" : -194.4},
                            "default-translation2" : { "type": "double", "value" : 0.0},
                            "default-width" : { "type": "double", "value" : 1932.67572815534}
                          },
                          "animationTracks" : {

                          }
                        },
                        {
                          "id" : 585,
                          "_type" : "ScreenVMFile",
                          "src" : 2,
                          "trackNumber" : 0,
                          "attributes" : {
                            "ident" : "Rec 4-22-2025-8-51-30-PM"
                          },
                          "parameters" : {
                            "geometryCrop0" : {
                              "type" : "double",
                              "defaultValue" : 0.0,
                              "interp" : "eioe"
                            },
                            "geometryCrop1" : {
                              "type" : "double",
                              "defaultValue" : 0.0,
                              "interp" : "eioe"
                            },
                            "geometryCrop2" : {
                              "type" : "double",
                              "defaultValue" : 0.0,
                              "interp" : "eioe"
                            },
                            "geometryCrop3" : {
                              "type" : "double",
                              "defaultValue" : 0.0,
                              "interp" : "eioe"
                            },
                            "cursorScale" : {
                              "type" : "double",
                              "defaultValue" : 0.0,
                              "interp" : "linr"
                            },
                            "cursorOpacity" : {
                              "type" : "double",
                              "defaultValue" : 0.0,
                              "interp" : "linr"
                            },
                            "cursorTrackLevel" : {
                              "type" : "double",
                              "defaultValue" : 0.0,
                              "interp" : "linr"
                            },
                            "smoothCursorAcrossEditDuration" : 0
                          },
                          "effects" : [

                          ],
                          "start" : 1040124960000,
                          "duration" : 198108960000,
                          "mediaStart" : 2018886240000,
                          "mediaDuration" : 198108960000,
                          "scalar" : 1,
                          "metadata" : {
                            "AutoAppliedSmartFocus" : "False",
                            "audiateLinkedSession" : "",
                            "clipSpeedAttribute" : { "type": "bool", "value" : false},
                            "colorAttribute" : { "type": "color", "value" : [ 0, 0, 0, 0]},
                            "default-height" : { "type": "double", "value" : 1036.8},
                            "default-translation0" : { "type": "double", "value" : 0.0},
                            "default-translation1" : { "type": "double", "value" : -194.4},
                            "default-translation2" : { "type": "double", "value" : 0.0},
                            "default-width" : { "type": "double", "value" : 1932.67572815534}
                          },
                          "animationTracks" : {

                          }
                        },
                        {
                          "id" : 586,
                          "_type" : "ScreenVMFile",
                          "src" : 2,
                          "trackNumber" : 0,
                          "attributes" : {
                            "ident" : "Rec 4-22-2025-8-51-30-PM"
                          },
                          "parameters" : {
                            "geometryCrop0" : {
                              "type" : "double",
                              "defaultValue" : 0.0,
                              "interp" : "eioe"
                            },
                            "geometryCrop1" : {
                              "type" : "double",
                              "defaultValue" : 0.0,
                              "interp" : "eioe"
                            },
                            "geometryCrop2" : {
                              "type" : "double",
                              "defaultValue" : 0.0,
                              "interp" : "eioe"
                            },
                            "geometryCrop3" : {
                              "type" : "double",
                              "defaultValue" : 0.0,
                              "interp" : "eioe"
                            },
                            "cursorScale" : {
                              "type" : "double",
                              "defaultValue" : 0.0,
                              "interp" : "linr"
                            },
                            "cursorOpacity" : {
                              "type" : "double",
                              "defaultValue" : 0.0,
                              "interp" : "linr"
                            },
                            "cursorTrackLevel" : {
                              "type" : "double",
                              "defaultValue" : 0.0,
                              "interp" : "linr"
                            },
                            "smoothCursorAcrossEditDuration" : 0
                          },
                          "effects" : [

                          ],
                          "start" : 1238233920000,
                          "duration" : 2234400000,
                          "mediaStart" : 2216995200000,
                          "mediaDuration" : 2234400000,
                          "scalar" : 1,
                          "metadata" : {
                            "AutoAppliedSmartFocus" : "False",
                            "audiateLinkedSession" : "",
                            "clipSpeedAttribute" : { "type": "bool", "value" : false},
                            "colorAttribute" : { "type": "color", "value" : [ 0, 0, 0, 0]},
                            "default-height" : { "type": "double", "value" : 1036.8},
                            "default-translation0" : { "type": "double", "value" : 0.0},
                            "default-translation1" : { "type": "double", "value" : -194.4},
                            "default-translation2" : { "type": "double", "value" : 0.0},
                            "default-width" : { "type": "double", "value" : 1932.67572815534}
                          },
                          "animationTracks" : {

                          }
                        },
                        {
                          "id" : 587,
                          "_type" : "ScreenVMFile",
                          "src" : 2,
                          "trackNumber" : 0,
                          "attributes" : {
                            "ident" : "Rec 4-22-2025-8-51-30-PM"
                          },
                          "parameters" : {
                            "geometryCrop0" : {
                              "type" : "double",
                              "defaultValue" : 0.0,
                              "interp" : "eioe"
                            },
                            "geometryCrop1" : {
                              "type" : "double",
                              "defaultValue" : 0.0,
                              "interp" : "eioe"
                            },
                            "geometryCrop2" : {
                              "type" : "double",
                              "defaultValue" : 0.0,
                              "interp" : "eioe"
                            },
                            "geometryCrop3" : {
                              "type" : "double",
                              "defaultValue" : 0.0,
                              "interp" : "eioe"
                            },
                            "cursorScale" : {
                              "type" : "double",
                              "defaultValue" : 0.0,
                              "interp" : "linr"
                            },
                            "cursorOpacity" : {
                              "type" : "double",
                              "defaultValue" : 0.0,
                              "interp" : "linr"
                            },
                            "cursorTrackLevel" : {
                              "type" : "double",
                              "defaultValue" : 0.0,
                              "interp" : "linr"
                            },
                            "smoothCursorAcrossEditDuration" : 0
                          },
                          "effects" : [

                          ],
                          "start" : 1240468320000,
                          "duration" : 15076320000,
                          "mediaStart" : 2219229600000,
                          "mediaDuration" : 15076320000,
                          "scalar" : 1,
                          "metadata" : {
                            "AutoAppliedSmartFocus" : "False",
                            "audiateLinkedSession" : "",
                            "clipSpeedAttribute" : { "type": "bool", "value" : false},
                            "colorAttribute" : { "type": "color", "value" : [ 0, 0, 0, 0]},
                            "default-height" : { "type": "double", "value" : 1036.8},
                            "default-translation0" : { "type": "double", "value" : 0.0},
                            "default-translation1" : { "type": "double", "value" : -194.4},
                            "default-translation2" : { "type": "double", "value" : 0.0},
                            "default-width" : { "type": "double", "value" : 1932.67572815534}
                          },
                          "animationTracks" : {

                          }
                        },
                        {
                          "id" : 588,
                          "_type" : "ScreenVMFile",
                          "src" : 2,
                          "trackNumber" : 0,
                          "attributes" : {
                            "ident" : "Rec 4-22-2025-8-51-30-PM"
                          },
                          "parameters" : {
                            "geometryCrop0" : {
                              "type" : "double",
                              "defaultValue" : 0.0,
                              "interp" : "eioe"
                            },
                            "geometryCrop1" : {
                              "type" : "double",
                              "defaultValue" : 0.0,
                              "interp" : "eioe"
                            },
                            "geometryCrop2" : {
                              "type" : "double",
                              "defaultValue" : 0.0,
                              "interp" : "eioe"
                            },
                            "geometryCrop3" : {
                              "type" : "double",
                              "defaultValue" : 0.0,
                              "interp" : "eioe"
                            },
                            "cursorScale" : {
                              "type" : "double",
                              "defaultValue" : 0.0,
                              "interp" : "linr"
                            },
                            "cursorOpacity" : {
                              "type" : "double",
                              "defaultValue" : 0.0,
                              "interp" : "linr"
                            },
                            "cursorTrackLevel" : {
                              "type" : "double",
                              "defaultValue" : 0.0,
                              "interp" : "linr"
                            },
                            "smoothCursorAcrossEditDuration" : 0
                          },
                          "effects" : [

                          ],
                          "start" : 1255544640000,
                          "duration" : 786955680000,
                          "mediaStart" : 2257778880000,
                          "mediaDuration" : 786955680000,
                          "scalar" : 1,
                          "metadata" : {
                            "AutoAppliedSmartFocus" : "False",
                            "audiateLinkedSession" : "",
                            "clipSpeedAttribute" : { "type": "bool", "value" : false},
                            "colorAttribute" : { "type": "color", "value" : [ 0, 0, 0, 0]},
                            "default-height" : { "type": "double", "value" : 1036.8},
                            "default-translation0" : { "type": "double", "value" : 0.0},
                            "default-translation1" : { "type": "double", "value" : -194.4},
                            "default-translation2" : { "type": "double", "value" : 0.0},
                            "default-width" : { "type": "double", "value" : 1932.67572815534}
                          },
                          "animationTracks" : {

                          }
                        },
                        {
                          "id" : 589,
                          "_type" : "ScreenVMFile",
                          "src" : 2,
                          "trackNumber" : 0,
                          "attributes" : {
                            "ident" : "Rec 4-22-2025-8-51-30-PM"
                          },
                          "parameters" : {
                            "geometryCrop0" : {
                              "type" : "double",
                              "defaultValue" : 0.0,
                              "interp" : "eioe"
                            },
                            "geometryCrop1" : {
                              "type" : "double",
                              "defaultValue" : 0.0,
                              "interp" : "eioe"
                            },
                            "geometryCrop2" : {
                              "type" : "double",
                              "defaultValue" : 0.0,
                              "interp" : "eioe"
                            },
                            "geometryCrop3" : {
                              "type" : "double",
                              "defaultValue" : 0.0,
                              "interp" : "eioe"
                            },
                            "cursorScale" : {
                              "type" : "double",
                              "defaultValue" : 0.0,
                              "interp" : "linr"
                            },
                            "cursorOpacity" : {
                              "type" : "double",
                              "defaultValue" : 0.0,
                              "interp" : "linr"
                            },
                            "cursorTrackLevel" : {
                              "type" : "double",
                              "defaultValue" : 0.0,
                              "interp" : "linr"
                            },
                            "smoothCursorAcrossEditDuration" : 0
                          },
                          "effects" : [

                          ],
                          "start" : 2042500320000,
                          "duration" : 20768160000,
                          "mediaStart" : 3047580480000,
                          "mediaDuration" : 20768160000,
                          "scalar" : 1,
                          "metadata" : {
                            "AutoAppliedSmartFocus" : "False",
                            "audiateLinkedSession" : "",
                            "clipSpeedAttribute" : { "type": "bool", "value" : false},
                            "colorAttribute" : { "type": "color", "value" : [ 0, 0, 0, 0]},
                            "default-height" : { "type": "double", "value" : 1036.8},
                            "default-translation0" : { "type": "double", "value" : 0.0},
                            "default-translation1" : { "type": "double", "value" : -194.4},
                            "default-translation2" : { "type": "double", "value" : 0.0},
                            "default-width" : { "type": "double", "value" : 1932.67572815534}
                          },
                          "animationTracks" : {

                          }
                        },
                        {
                          "id" : 590,
                          "_type" : "ScreenVMFile",
                          "src" : 2,
                          "trackNumber" : 0,
                          "attributes" : {
                            "ident" : "Rec 4-22-2025-8-51-30-PM"
                          },
                          "parameters" : {
                            "geometryCrop0" : {
                              "type" : "double",
                              "defaultValue" : 0.0,
                              "interp" : "eioe"
                            },
                            "geometryCrop1" : {
                              "type" : "double",
                              "defaultValue" : 0.0,
                              "interp" : "eioe"
                            },
                            "geometryCrop2" : {
                              "type" : "double",
                              "defaultValue" : 0.0,
                              "interp" : "eioe"
                            },
                            "geometryCrop3" : {
                              "type" : "double",
                              "defaultValue" : 0.0,
                              "interp" : "eioe"
                            },
                            "cursorScale" : {
                              "type" : "double",
                              "defaultValue" : 0.0,
                              "interp" : "linr"
                            },
                            "cursorOpacity" : {
                              "type" : "double",
                              "defaultValue" : 0.0,
                              "interp" : "linr"
                            },
                            "cursorTrackLevel" : {
                              "type" : "double",
                              "defaultValue" : 0.0,
                              "interp" : "linr"
                            },
                            "smoothCursorAcrossEditDuration" : 0
                          },
                          "effects" : [

                          ],
                          "start" : 2063268480000,
                          "duration" : 343039200000,
                          "mediaStart" : 3138932160000,
                          "mediaDuration" : 343039200000,
                          "scalar" : 1,
                          "metadata" : {
                            "AutoAppliedSmartFocus" : "False",
                            "audiateLinkedSession" : "",
                            "clipSpeedAttribute" : { "type": "bool", "value" : false},
                            "colorAttribute" : { "type": "color", "value" : [ 0, 0, 0, 0]},
                            "default-height" : { "type": "double", "value" : 1036.8},
                            "default-translation0" : { "type": "double", "value" : 0.0},
                            "default-translation1" : { "type": "double", "value" : -194.4},
                            "default-translation2" : { "type": "double", "value" : 0.0},
                            "default-width" : { "type": "double", "value" : 1932.67572815534}
                          },
                          "animationTracks" : {

                          }
                        }
                    ],
                    "effects" : [
                        {
                          "effectName" : "CursorColor",
                          "bypassed" : false,
                          "category" : "categoryCursorEffects",
                          "parameters" : {
                            "intensity" : 1.0,
                            "desaturation" : 0.0,
                            "colorLumaCutoff" : 1.0,
                            "color-alpha" : 1.0,
                            "color-red" : 1.0,
                            "color-green" : 0.8980392157,
                            "color-blue" : 0.1215686275,
                            "secondColor-red" : 0.0,
                            "secondColor-green" : 0.0,
                            "secondColor-blue" : 0.0,
                            "secondColor-alpha" : 1.0,
                            "secondColorLumaCutoff" : 0.0,
                            "channel" : 0,
                            "shadowRampStart" : 0.0,
                            "shadowRampEnd" : 0.0,
                            "highlightRampStart" : 1.0,
                            "highlightRampEnd" : 1.0
                          }
                        },
                        {
                          "effectName" : "CursorShadow",
                          "bypassed" : false,
                          "category" : "categoryCursorEffects",
                          "parameters" : {
                            "angle" : 3.92699081698724,
                            "enabled" : 1,
                            "offset" : 5.0,
                            "blur" : 2.0,
                            "opacity" : 0.25,
                            "color-red" : 0.0,
                            "color-green" : 0.0,
                            "color-blue" : 0.0,
                            "color-alpha" : 1.0
                          }
                        },
                        {
                          "effectName" : "CursorHilight",
                          "bypassed" : false,
                          "category" : "categoryCursorEffects",
                          "parameters" : {
                            "radius" : 50.0,
                            "color-red" : 1.0,
                            "color-green" : 1.0,
                            "color-blue" : 0.0,
                            "color-alpha" : 0.75,
                            "blur" : 0.1
                          }
                        }
                    ],
                    "start" : 117200160000,
                    "duration" : 2116800000,
                    "mediaStart" : 1238516160000,
                    "mediaDuration" : 2116800000,
                    "scalar" : 1,
                    "metadata" : {
                      "AutoAppliedSmartFocus" : "False",
                      "audiateLinkedSession" : "",
                      "clipSpeedAttribute" : { "type": "bool", "value" : false},
                      "colorAttribute" : { "type": "color", "value" : [ 0, 0, 0, 0]},
                      "default-height" : { "type": "double", "value" : 1036.8},
                      "default-translation0" : { "type": "double", "value" : 0.0},
                      "default-translation1" : { "type": "double", "value" : -194.4},
                      "default-translation2" : { "type": "double", "value" : 0.0},
                      "default-width" : { "type": "double", "value" : 1932.67572815534}
                    },
                    "animationTracks" : {

                    }
                  },
                  {
                    "id" : 591,
                    "_type" : "StitchedMedia",
                    "minMediaStart" : 0,
                    "attributes" : {
                      "ident" : "Rec 4-22-2025-8-51-30-PM",
                      "gain" : 1.0,
                      "mixToMono" : false,
                      "loudnessNormalization" : true,
                      "sourceFileOffset" : 0
                    },
                    "parameters" : {
                      "translation0" : 6.33786407766917,
                      "translation1" : -2.8421709430404e-14,
                      "scale0" : 0.503300970873786,
                      "scale1" : 0.503300970873786,
                      "geometryCrop0" : 0.0,
                      "geometryCrop1" : 0.0,
                      "geometryCrop2" : 0.0,
                      "geometryCrop3" : 0.0,
                      "cursorOpacity" : 1.0,
                      "cursorTrackLevel" : 0.0,
                      "cursorScale" : 5.0,
                      "smoothCursorAcrossEditDuration" : 0
                    },
                    "medias" : [
                        {
                          "id" : 592,
                          "_type" : "ScreenVMFile",
                          "src" : 2,
                          "trackNumber" : 0,
                          "attributes" : {
                            "ident" : "Rec 4-22-2025-8-51-30-PM"
                          },
                          "parameters" : {
                            "geometryCrop0" : {
                              "type" : "double",
                              "defaultValue" : 0.0,
                              "interp" : "eioe"
                            },
                            "geometryCrop1" : {
                              "type" : "double",
                              "defaultValue" : 0.0,
                              "interp" : "eioe"
                            },
                            "geometryCrop2" : {
                              "type" : "double",
                              "defaultValue" : 0.0,
                              "interp" : "eioe"
                            },
                            "geometryCrop3" : {
                              "type" : "double",
                              "defaultValue" : 0.0,
                              "interp" : "eioe"
                            },
                            "cursorScale" : {
                              "type" : "double",
                              "defaultValue" : 0.0,
                              "interp" : "linr"
                            },
                            "cursorOpacity" : {
                              "type" : "double",
                              "defaultValue" : 0.0,
                              "interp" : "linr"
                            },
                            "cursorTrackLevel" : {
                              "type" : "double",
                              "defaultValue" : 0.0,
                              "interp" : "linr"
                            },
                            "smoothCursorAcrossEditDuration" : 0
                          },
                          "effects" : [

                          ],
                          "start" : 0,
                          "duration" : 50991360000,
                          "mediaStart" : 0,
                          "mediaDuration" : 50991360000,
                          "scalar" : 1,
                          "metadata" : {
                            "AutoAppliedSmartFocus" : "False",
                            "audiateLinkedSession" : "",
                            "clipSpeedAttribute" : { "type": "bool", "value" : false},
                            "colorAttribute" : { "type": "color", "value" : [ 0, 0, 0, 0]},
                            "default-height" : { "type": "double", "value" : 1036.8},
                            "default-translation0" : { "type": "double", "value" : 0.0},
                            "default-translation1" : { "type": "double", "value" : -194.4},
                            "default-translation2" : { "type": "double", "value" : 0.0},
                            "default-width" : { "type": "double", "value" : 1932.67572815534}
                          },
                          "animationTracks" : {

                          }
                        },
                        {
                          "id" : 593,
                          "_type" : "ScreenVMFile",
                          "src" : 2,
                          "trackNumber" : 0,
                          "attributes" : {
                            "ident" : "Rec 4-22-2025-8-51-30-PM"
                          },
                          "parameters" : {
                            "geometryCrop0" : {
                              "type" : "double",
                              "defaultValue" : 0.0,
                              "interp" : "eioe"
                            },
                            "geometryCrop1" : {
                              "type" : "double",
                              "defaultValue" : 0.0,
                              "interp" : "eioe"
                            },
                            "geometryCrop2" : {
                              "type" : "double",
                              "defaultValue" : 0.0,
                              "interp" : "eioe"
                            },
                            "geometryCrop3" : {
                              "type" : "double",
                              "defaultValue" : 0.0,
                              "interp" : "eioe"
                            },
                            "cursorScale" : {
                              "type" : "double",
                              "defaultValue" : 0.0,
                              "interp" : "linr"
                            },
                            "cursorOpacity" : {
                              "type" : "double",
                              "defaultValue" : 0.0,
                              "interp" : "linr"
                            },
                            "cursorTrackLevel" : {
                              "type" : "double",
                              "defaultValue" : 0.0,
                              "interp" : "linr"
                            },
                            "smoothCursorAcrossEditDuration" : 0
                          },
                          "effects" : [

                          ],
                          "start" : 50991360000,
                          "duration" : 46663680000,
                          "mediaStart" : 66467520000,
                          "mediaDuration" : 46663680000,
                          "scalar" : 1,
                          "metadata" : {
                            "AutoAppliedSmartFocus" : "False",
                            "audiateLinkedSession" : "",
                            "clipSpeedAttribute" : { "type": "bool", "value" : false},
                            "colorAttribute" : { "type": "color", "value" : [ 0, 0, 0, 0]},
                            "default-height" : { "type": "double", "value" : 1036.8},
                            "default-translation0" : { "type": "double", "value" : 0.0},
                            "default-translation1" : { "type": "double", "value" : -194.4},
                            "default-translation2" : { "type": "double", "value" : 0.0},
                            "default-width" : { "type": "double", "value" : 1932.67572815534}
                          },
                          "animationTracks" : {

                          }
                        },
                        {
                          "id" : 594,
                          "_type" : "ScreenVMFile",
                          "src" : 2,
                          "trackNumber" : 0,
                          "attributes" : {
                            "ident" : "Rec 4-22-2025-8-51-30-PM"
                          },
                          "parameters" : {
                            "geometryCrop0" : {
                              "type" : "double",
                              "defaultValue" : 0.0,
                              "interp" : "eioe"
                            },
                            "geometryCrop1" : {
                              "type" : "double",
                              "defaultValue" : 0.0,
                              "interp" : "eioe"
                            },
                            "geometryCrop2" : {
                              "type" : "double",
                              "defaultValue" : 0.0,
                              "interp" : "eioe"
                            },
                            "geometryCrop3" : {
                              "type" : "double",
                              "defaultValue" : 0.0,
                              "interp" : "eioe"
                            },
                            "cursorScale" : {
                              "type" : "double",
                              "defaultValue" : 0.0,
                              "interp" : "linr"
                            },
                            "cursorOpacity" : {
                              "type" : "double",
                              "defaultValue" : 0.0,
                              "interp" : "linr"
                            },
                            "cursorTrackLevel" : {
                              "type" : "double",
                              "defaultValue" : 0.0,
                              "interp" : "linr"
                            },
                            "smoothCursorAcrossEditDuration" : 0
                          },
                          "effects" : [

                          ],
                          "start" : 97655040000,
                          "duration" : 352282560000,
                          "mediaStart" : 149352000000,
                          "mediaDuration" : 352282560000,
                          "scalar" : 1,
                          "metadata" : {
                            "AutoAppliedSmartFocus" : "False",
                            "audiateLinkedSession" : "",
                            "clipSpeedAttribute" : { "type": "bool", "value" : false},
                            "colorAttribute" : { "type": "color", "value" : [ 0, 0, 0, 0]},
                            "default-height" : { "type": "double", "value" : 1036.8},
                            "default-translation0" : { "type": "double", "value" : 0.0},
                            "default-translation1" : { "type": "double", "value" : -194.4},
                            "default-translation2" : { "type": "double", "value" : 0.0},
                            "default-width" : { "type": "double", "value" : 1932.67572815534}
                          },
                          "animationTracks" : {

                          }
                        },
                        {
                          "id" : 595,
                          "_type" : "ScreenVMFile",
                          "src" : 2,
                          "trackNumber" : 0,
                          "attributes" : {
                            "ident" : "Rec 4-22-2025-8-51-30-PM"
                          },
                          "parameters" : {
                            "geometryCrop0" : {
                              "type" : "double",
                              "defaultValue" : 0.0,
                              "interp" : "eioe"
                            },
                            "geometryCrop1" : {
                              "type" : "double",
                              "defaultValue" : 0.0,
                              "interp" : "eioe"
                            },
                            "geometryCrop2" : {
                              "type" : "double",
                              "defaultValue" : 0.0,
                              "interp" : "eioe"
                            },
                            "geometryCrop3" : {
                              "type" : "double",
                              "defaultValue" : 0.0,
                              "interp" : "eioe"
                            },
                            "cursorScale" : {
                              "type" : "double",
                              "defaultValue" : 0.0,
                              "interp" : "linr"
                            },
                            "cursorOpacity" : {
                              "type" : "double",
                              "defaultValue" : 0.0,
                              "interp" : "linr"
                            },
                            "cursorTrackLevel" : {
                              "type" : "double",
                              "defaultValue" : 0.0,
                              "interp" : "linr"
                            },
                            "smoothCursorAcrossEditDuration" : 0
                          },
                          "effects" : [

                          ],
                          "start" : 449937600000,
                          "duration" : 8961120000,
                          "mediaStart" : 509843040000,
                          "mediaDuration" : 8961120000,
                          "scalar" : 1,
                          "metadata" : {
                            "AutoAppliedSmartFocus" : "False",
                            "audiateLinkedSession" : "",
                            "clipSpeedAttribute" : { "type": "bool", "value" : false},
                            "colorAttribute" : { "type": "color", "value" : [ 0, 0, 0, 0]},
                            "default-height" : { "type": "double", "value" : 1036.8},
                            "default-translation0" : { "type": "double", "value" : 0.0},
                            "default-translation1" : { "type": "double", "value" : -194.4},
                            "default-translation2" : { "type": "double", "value" : 0.0},
                            "default-width" : { "type": "double", "value" : 1932.67572815534}
                          },
                          "animationTracks" : {

                          }
                        },
                        {
                          "id" : 596,
                          "_type" : "ScreenVMFile",
                          "src" : 2,
                          "trackNumber" : 0,
                          "attributes" : {
                            "ident" : "Rec 4-22-2025-8-51-30-PM"
                          },
                          "parameters" : {
                            "geometryCrop0" : {
                              "type" : "double",
                              "defaultValue" : 0.0,
                              "interp" : "eioe"
                            },
                            "geometryCrop1" : {
                              "type" : "double",
                              "defaultValue" : 0.0,
                              "interp" : "eioe"
                            },
                            "geometryCrop2" : {
                              "type" : "double",
                              "defaultValue" : 0.0,
                              "interp" : "eioe"
                            },
                            "geometryCrop3" : {
                              "type" : "double",
                              "defaultValue" : 0.0,
                              "interp" : "eioe"
                            },
                            "cursorScale" : {
                              "type" : "double",
                              "defaultValue" : 0.0,
                              "interp" : "linr"
                            },
                            "cursorOpacity" : {
                              "type" : "double",
                              "defaultValue" : 0.0,
                              "interp" : "linr"
                            },
                            "cursorTrackLevel" : {
                              "type" : "double",
                              "defaultValue" : 0.0,
                              "interp" : "linr"
                            },
                            "smoothCursorAcrossEditDuration" : 0
                          },
                          "effects" : [

                          ],
                          "start" : 458898720000,
                          "duration" : 581226240000,
                          "mediaStart" : 1416350880000,
                          "mediaDuration" : 581226240000,
                          "scalar" : 1,
                          "metadata" : {
                            "AutoAppliedSmartFocus" : "False",
                            "audiateLinkedSession" : "",
                            "clipSpeedAttribute" : { "type": "bool", "value" : false},
                            "colorAttribute" : { "type": "color", "value" : [ 0, 0, 0, 0]},
                            "default-height" : { "type": "double", "value" : 1036.8},
                            "default-translation0" : { "type": "double", "value" : 0.0},
                            "default-translation1" : { "type": "double", "value" : -194.4},
                            "default-translation2" : { "type": "double", "value" : 0.0},
                            "default-width" : { "type": "double", "value" : 1932.67572815534}
                          },
                          "animationTracks" : {

                          }
                        },
                        {
                          "id" : 597,
                          "_type" : "ScreenVMFile",
                          "src" : 2,
                          "trackNumber" : 0,
                          "attributes" : {
                            "ident" : "Rec 4-22-2025-8-51-30-PM"
                          },
                          "parameters" : {
                            "geometryCrop0" : {
                              "type" : "double",
                              "defaultValue" : 0.0,
                              "interp" : "eioe"
                            },
                            "geometryCrop1" : {
                              "type" : "double",
                              "defaultValue" : 0.0,
                              "interp" : "eioe"
                            },
                            "geometryCrop2" : {
                              "type" : "double",
                              "defaultValue" : 0.0,
                              "interp" : "eioe"
                            },
                            "geometryCrop3" : {
                              "type" : "double",
                              "defaultValue" : 0.0,
                              "interp" : "eioe"
                            },
                            "cursorScale" : {
                              "type" : "double",
                              "defaultValue" : 0.0,
                              "interp" : "linr"
                            },
                            "cursorOpacity" : {
                              "type" : "double",
                              "defaultValue" : 0.0,
                              "interp" : "linr"
                            },
                            "cursorTrackLevel" : {
                              "type" : "double",
                              "defaultValue" : 0.0,
                              "interp" : "linr"
                            },
                            "smoothCursorAcrossEditDuration" : 0
                          },
                          "effects" : [

                          ],
                          "start" : 1040124960000,
                          "duration" : 215419680000,
                          "mediaStart" : 2018886240000,
                          "mediaDuration" : 215419680000,
                          "scalar" : 1,
                          "metadata" : {
                            "AutoAppliedSmartFocus" : "False",
                            "audiateLinkedSession" : "",
                            "clipSpeedAttribute" : { "type": "bool", "value" : false},
                            "colorAttribute" : { "type": "color", "value" : [ 0, 0, 0, 0]},
                            "default-height" : { "type": "double", "value" : 1036.8},
                            "default-translation0" : { "type": "double", "value" : 0.0},
                            "default-translation1" : { "type": "double", "value" : -194.4},
                            "default-translation2" : { "type": "double", "value" : 0.0},
                            "default-width" : { "type": "double", "value" : 1932.67572815534}
                          },
                          "animationTracks" : {

                          }
                        },
                        {
                          "id" : 598,
                          "_type" : "ScreenVMFile",
                          "src" : 2,
                          "trackNumber" : 0,
                          "attributes" : {
                            "ident" : "Rec 4-22-2025-8-51-30-PM"
                          },
                          "parameters" : {
                            "geometryCrop0" : {
                              "type" : "double",
                              "defaultValue" : 0.0,
                              "interp" : "eioe"
                            },
                            "geometryCrop1" : {
                              "type" : "double",
                              "defaultValue" : 0.0,
                              "interp" : "eioe"
                            },
                            "geometryCrop2" : {
                              "type" : "double",
                              "defaultValue" : 0.0,
                              "interp" : "eioe"
                            },
                            "geometryCrop3" : {
                              "type" : "double",
                              "defaultValue" : 0.0,
                              "interp" : "eioe"
                            },
                            "cursorScale" : {
                              "type" : "double",
                              "defaultValue" : 0.0,
                              "interp" : "linr"
                            },
                            "cursorOpacity" : {
                              "type" : "double",
                              "defaultValue" : 0.0,
                              "interp" : "linr"
                            },
                            "cursorTrackLevel" : {
                              "type" : "double",
                              "defaultValue" : 0.0,
                              "interp" : "linr"
                            },
                            "smoothCursorAcrossEditDuration" : 0
                          },
                          "effects" : [

                          ],
                          "start" : 1255544640000,
                          "duration" : 786955680000,
                          "mediaStart" : 2257778880000,
                          "mediaDuration" : 786955680000,
                          "scalar" : 1,
                          "metadata" : {
                            "AutoAppliedSmartFocus" : "False",
                            "audiateLinkedSession" : "",
                            "clipSpeedAttribute" : { "type": "bool", "value" : false},
                            "colorAttribute" : { "type": "color", "value" : [ 0, 0, 0, 0]},
                            "default-height" : { "type": "double", "value" : 1036.8},
                            "default-translation0" : { "type": "double", "value" : 0.0},
                            "default-translation1" : { "type": "double", "value" : -194.4},
                            "default-translation2" : { "type": "double", "value" : 0.0},
                            "default-width" : { "type": "double", "value" : 1932.67572815534}
                          },
                          "animationTracks" : {

                          }
                        },
                        {
                          "id" : 599,
                          "_type" : "ScreenVMFile",
                          "src" : 2,
                          "trackNumber" : 0,
                          "attributes" : {
                            "ident" : "Rec 4-22-2025-8-51-30-PM"
                          },
                          "parameters" : {
                            "geometryCrop0" : {
                              "type" : "double",
                              "defaultValue" : 0.0,
                              "interp" : "eioe"
                            },
                            "geometryCrop1" : {
                              "type" : "double",
                              "defaultValue" : 0.0,
                              "interp" : "eioe"
                            },
                            "geometryCrop2" : {
                              "type" : "double",
                              "defaultValue" : 0.0,
                              "interp" : "eioe"
                            },
                            "geometryCrop3" : {
                              "type" : "double",
                              "defaultValue" : 0.0,
                              "interp" : "eioe"
                            },
                            "cursorScale" : {
                              "type" : "double",
                              "defaultValue" : 0.0,
                              "interp" : "linr"
                            },
                            "cursorOpacity" : {
                              "type" : "double",
                              "defaultValue" : 0.0,
                              "interp" : "linr"
                            },
                            "cursorTrackLevel" : {
                              "type" : "double",
                              "defaultValue" : 0.0,
                              "interp" : "linr"
                            },
                            "smoothCursorAcrossEditDuration" : 0
                          },
                          "effects" : [

                          ],
                          "start" : 2042500320000,
                          "duration" : 20768160000,
                          "mediaStart" : 3047580480000,
                          "mediaDuration" : 20768160000,
                          "scalar" : 1,
                          "metadata" : {
                            "AutoAppliedSmartFocus" : "False",
                            "audiateLinkedSession" : "",
                            "clipSpeedAttribute" : { "type": "bool", "value" : false},
                            "colorAttribute" : { "type": "color", "value" : [ 0, 0, 0, 0]},
                            "default-height" : { "type": "double", "value" : 1036.8},
                            "default-translation0" : { "type": "double", "value" : 0.0},
                            "default-translation1" : { "type": "double", "value" : -194.4},
                            "default-translation2" : { "type": "double", "value" : 0.0},
                            "default-width" : { "type": "double", "value" : 1932.67572815534}
                          },
                          "animationTracks" : {

                          }
                        },
                        {
                          "id" : 600,
                          "_type" : "ScreenVMFile",
                          "src" : 2,
                          "trackNumber" : 0,
                          "attributes" : {
                            "ident" : "Rec 4-22-2025-8-51-30-PM"
                          },
                          "parameters" : {
                            "geometryCrop0" : {
                              "type" : "double",
                              "defaultValue" : 0.0,
                              "interp" : "eioe"
                            },
                            "geometryCrop1" : {
                              "type" : "double",
                              "defaultValue" : 0.0,
                              "interp" : "eioe"
                            },
                            "geometryCrop2" : {
                              "type" : "double",
                              "defaultValue" : 0.0,
                              "interp" : "eioe"
                            },
                            "geometryCrop3" : {
                              "type" : "double",
                              "defaultValue" : 0.0,
                              "interp" : "eioe"
                            },
                            "cursorScale" : {
                              "type" : "double",
                              "defaultValue" : 0.0,
                              "interp" : "linr"
                            },
                            "cursorOpacity" : {
                              "type" : "double",
                              "defaultValue" : 0.0,
                              "interp" : "linr"
                            },
                            "cursorTrackLevel" : {
                              "type" : "double",
                              "defaultValue" : 0.0,
                              "interp" : "linr"
                            },
                            "smoothCursorAcrossEditDuration" : 0
                          },
                          "effects" : [

                          ],
                          "start" : 2063268480000,
                          "duration" : 343039200000,
                          "mediaStart" : 3138932160000,
                          "mediaDuration" : 343039200000,
                          "scalar" : 1,
                          "metadata" : {
                            "AutoAppliedSmartFocus" : "False",
                            "audiateLinkedSession" : "",
                            "clipSpeedAttribute" : { "type": "bool", "value" : false},
                            "colorAttribute" : { "type": "color", "value" : [ 0, 0, 0, 0]},
                            "default-height" : { "type": "double", "value" : 1036.8},
                            "default-translation0" : { "type": "double", "value" : 0.0},
                            "default-translation1" : { "type": "double", "value" : -194.4},
                            "default-translation2" : { "type": "double", "value" : 0.0},
                            "default-width" : { "type": "double", "value" : 1932.67572815534}
                          },
                          "animationTracks" : {

                          }
                        }
                    ],
                    "effects" : [
                        {
                          "effectName" : "CursorColor",
                          "bypassed" : false,
                          "category" : "categoryCursorEffects",
                          "parameters" : {
                            "intensity" : 1.0,
                            "desaturation" : 0.0,
                            "colorLumaCutoff" : 1.0,
                            "color-alpha" : 1.0,
                            "color-red" : 1.0,
                            "color-green" : 0.8980392157,
                            "color-blue" : 0.1215686275,
                            "secondColor-red" : 0.0,
                            "secondColor-green" : 0.0,
                            "secondColor-blue" : 0.0,
                            "secondColor-alpha" : 1.0,
                            "secondColorLumaCutoff" : 0.0,
                            "channel" : 0,
                            "shadowRampStart" : 0.0,
                            "shadowRampEnd" : 0.0,
                            "highlightRampStart" : 1.0,
                            "highlightRampEnd" : 1.0
                          }
                        },
                        {
                          "effectName" : "CursorShadow",
                          "bypassed" : false,
                          "category" : "categoryCursorEffects",
                          "parameters" : {
                            "angle" : 3.92699081698724,
                            "enabled" : 1,
                            "offset" : 5.0,
                            "blur" : 2.0,
                            "opacity" : 0.25,
                            "color-red" : 0.0,
                            "color-green" : 0.0,
                            "color-blue" : 0.0,
                            "color-alpha" : 1.0
                          }
                        },
                        {
                          "effectName" : "CursorHilight",
                          "bypassed" : false,
                          "category" : "categoryCursorEffects",
                          "parameters" : {
                            "radius" : 50.0,
                            "color-red" : 1.0,
                            "color-green" : 1.0,
                            "color-blue" : 0.0,
                            "color-alpha" : 0.75,
                            "blur" : 0.1
                          }
                        }
                    ],
                    "start" : 119316960000,
                    "duration" : 1787520000,
                    "mediaStart" : 1240632960000,
                    "mediaDuration" : 272055840000,
                    "scalar" : "76/11567",
                    "metadata" : {
                      "AutoAppliedSmartFocus" : "False",
                      "audiateLinkedSession" : "",
                      "clipSpeedAttribute" : { "type": "bool", "value" : true},
                      "colorAttribute" : { "type": "color", "value" : [ 0, 0, 0, 0]},
                      "default-height" : { "type": "double", "value" : 1036.8},
                      "default-translation0" : { "type": "double", "value" : 0.0},
                      "default-translation1" : { "type": "double", "value" : -194.4},
                      "default-translation2" : { "type": "double", "value" : 0.0},
                      "default-width" : { "type": "double", "value" : 1932.67572815534}
                    },
                    "animationTracks" : {

                    }
                  },
                  {
                    "id" : 601,
                    "_type" : "StitchedMedia",
                    "minMediaStart" : 0,
                    "attributes" : {
                      "ident" : "Rec 4-22-2025-8-51-30-PM",
                      "gain" : 1.0,
                      "mixToMono" : false,
                      "loudnessNormalization" : true,
                      "sourceFileOffset" : 0
                    },
                    "parameters" : {
                      "translation0" : 6.33786407766917,
                      "translation1" : -2.8421709430404e-14,
                      "scale0" : 0.503300970873786,
                      "scale1" : 0.503300970873786,
                      "geometryCrop0" : 0.0,
                      "geometryCrop1" : 0.0,
                      "geometryCrop2" : 0.0,
                      "geometryCrop3" : 0.0,
                      "toc" : {
                        "type" : "string",
                        "keyframes" : [
                          {
                            "endTime" : 1512688800000,
                            "time" : 1512688800000,
                            "value" : "Finished building",
                            "duration" : 0,
                            "metadata" : {
                              "markerIdentifier" : "78079775-7BFE-40FC-A3A7-3ABD0CDCEF76"
                            }
                          }
                        ]
                      },
                      "cursorOpacity" : 1.0,
                      "cursorTrackLevel" : 0.0,
                      "cursorScale" : 5.0,
                      "smoothCursorAcrossEditDuration" : 0
                    },
                    "medias" : [
                        {
                          "id" : 602,
                          "_type" : "ScreenVMFile",
                          "src" : 2,
                          "trackNumber" : 0,
                          "attributes" : {
                            "ident" : "Rec 4-22-2025-8-51-30-PM"
                          },
                          "parameters" : {
                            "geometryCrop0" : {
                              "type" : "double",
                              "defaultValue" : 0.0,
                              "interp" : "eioe"
                            },
                            "geometryCrop1" : {
                              "type" : "double",
                              "defaultValue" : 0.0,
                              "interp" : "eioe"
                            },
                            "geometryCrop2" : {
                              "type" : "double",
                              "defaultValue" : 0.0,
                              "interp" : "eioe"
                            },
                            "geometryCrop3" : {
                              "type" : "double",
                              "defaultValue" : 0.0,
                              "interp" : "eioe"
                            },
                            "cursorScale" : {
                              "type" : "double",
                              "defaultValue" : 0.0,
                              "interp" : "linr"
                            },
                            "cursorOpacity" : {
                              "type" : "double",
                              "defaultValue" : 0.0,
                              "interp" : "linr"
                            },
                            "cursorTrackLevel" : {
                              "type" : "double",
                              "defaultValue" : 0.0,
                              "interp" : "linr"
                            },
                            "smoothCursorAcrossEditDuration" : 0
                          },
                          "effects" : [

                          ],
                          "start" : 0,
                          "duration" : 50991360000,
                          "mediaStart" : 0,
                          "mediaDuration" : 50991360000,
                          "scalar" : 1,
                          "metadata" : {
                            "AutoAppliedSmartFocus" : "False",
                            "audiateLinkedSession" : "",
                            "clipSpeedAttribute" : { "type": "bool", "value" : false},
                            "colorAttribute" : { "type": "color", "value" : [ 0, 0, 0, 0]},
                            "default-height" : { "type": "double", "value" : 1036.8},
                            "default-translation0" : { "type": "double", "value" : 0.0},
                            "default-translation1" : { "type": "double", "value" : -194.4},
                            "default-translation2" : { "type": "double", "value" : 0.0},
                            "default-width" : { "type": "double", "value" : 1932.67572815534}
                          },
                          "animationTracks" : {

                          }
                        },
                        {
                          "id" : 603,
                          "_type" : "ScreenVMFile",
                          "src" : 2,
                          "trackNumber" : 0,
                          "attributes" : {
                            "ident" : "Rec 4-22-2025-8-51-30-PM"
                          },
                          "parameters" : {
                            "geometryCrop0" : {
                              "type" : "double",
                              "defaultValue" : 0.0,
                              "interp" : "eioe"
                            },
                            "geometryCrop1" : {
                              "type" : "double",
                              "defaultValue" : 0.0,
                              "interp" : "eioe"
                            },
                            "geometryCrop2" : {
                              "type" : "double",
                              "defaultValue" : 0.0,
                              "interp" : "eioe"
                            },
                            "geometryCrop3" : {
                              "type" : "double",
                              "defaultValue" : 0.0,
                              "interp" : "eioe"
                            },
                            "cursorScale" : {
                              "type" : "double",
                              "defaultValue" : 0.0,
                              "interp" : "linr"
                            },
                            "cursorOpacity" : {
                              "type" : "double",
                              "defaultValue" : 0.0,
                              "interp" : "linr"
                            },
                            "cursorTrackLevel" : {
                              "type" : "double",
                              "defaultValue" : 0.0,
                              "interp" : "linr"
                            },
                            "smoothCursorAcrossEditDuration" : 0
                          },
                          "effects" : [

                          ],
                          "start" : 50991360000,
                          "duration" : 46663680000,
                          "mediaStart" : 66467520000,
                          "mediaDuration" : 46663680000,
                          "scalar" : 1,
                          "metadata" : {
                            "AutoAppliedSmartFocus" : "False",
                            "audiateLinkedSession" : "",
                            "clipSpeedAttribute" : { "type": "bool", "value" : false},
                            "colorAttribute" : { "type": "color", "value" : [ 0, 0, 0, 0]},
                            "default-height" : { "type": "double", "value" : 1036.8},
                            "default-translation0" : { "type": "double", "value" : 0.0},
                            "default-translation1" : { "type": "double", "value" : -194.4},
                            "default-translation2" : { "type": "double", "value" : 0.0},
                            "default-width" : { "type": "double", "value" : 1932.67572815534}
                          },
                          "animationTracks" : {

                          }
                        },
                        {
                          "id" : 604,
                          "_type" : "ScreenVMFile",
                          "src" : 2,
                          "trackNumber" : 0,
                          "attributes" : {
                            "ident" : "Rec 4-22-2025-8-51-30-PM"
                          },
                          "parameters" : {
                            "geometryCrop0" : {
                              "type" : "double",
                              "defaultValue" : 0.0,
                              "interp" : "eioe"
                            },
                            "geometryCrop1" : {
                              "type" : "double",
                              "defaultValue" : 0.0,
                              "interp" : "eioe"
                            },
                            "geometryCrop2" : {
                              "type" : "double",
                              "defaultValue" : 0.0,
                              "interp" : "eioe"
                            },
                            "geometryCrop3" : {
                              "type" : "double",
                              "defaultValue" : 0.0,
                              "interp" : "eioe"
                            },
                            "cursorScale" : {
                              "type" : "double",
                              "defaultValue" : 0.0,
                              "interp" : "linr"
                            },
                            "cursorOpacity" : {
                              "type" : "double",
                              "defaultValue" : 0.0,
                              "interp" : "linr"
                            },
                            "cursorTrackLevel" : {
                              "type" : "double",
                              "defaultValue" : 0.0,
                              "interp" : "linr"
                            },
                            "smoothCursorAcrossEditDuration" : 0
                          },
                          "effects" : [

                          ],
                          "start" : 97655040000,
                          "duration" : 352282560000,
                          "mediaStart" : 149352000000,
                          "mediaDuration" : 352282560000,
                          "scalar" : 1,
                          "metadata" : {
                            "AutoAppliedSmartFocus" : "False",
                            "audiateLinkedSession" : "",
                            "clipSpeedAttribute" : { "type": "bool", "value" : false},
                            "colorAttribute" : { "type": "color", "value" : [ 0, 0, 0, 0]},
                            "default-height" : { "type": "double", "value" : 1036.8},
                            "default-translation0" : { "type": "double", "value" : 0.0},
                            "default-translation1" : { "type": "double", "value" : -194.4},
                            "default-translation2" : { "type": "double", "value" : 0.0},
                            "default-width" : { "type": "double", "value" : 1932.67572815534}
                          },
                          "animationTracks" : {

                          }
                        },
                        {
                          "id" : 605,
                          "_type" : "ScreenVMFile",
                          "src" : 2,
                          "trackNumber" : 0,
                          "attributes" : {
                            "ident" : "Rec 4-22-2025-8-51-30-PM"
                          },
                          "parameters" : {
                            "geometryCrop0" : {
                              "type" : "double",
                              "defaultValue" : 0.0,
                              "interp" : "eioe"
                            },
                            "geometryCrop1" : {
                              "type" : "double",
                              "defaultValue" : 0.0,
                              "interp" : "eioe"
                            },
                            "geometryCrop2" : {
                              "type" : "double",
                              "defaultValue" : 0.0,
                              "interp" : "eioe"
                            },
                            "geometryCrop3" : {
                              "type" : "double",
                              "defaultValue" : 0.0,
                              "interp" : "eioe"
                            },
                            "cursorScale" : {
                              "type" : "double",
                              "defaultValue" : 0.0,
                              "interp" : "linr"
                            },
                            "cursorOpacity" : {
                              "type" : "double",
                              "defaultValue" : 0.0,
                              "interp" : "linr"
                            },
                            "cursorTrackLevel" : {
                              "type" : "double",
                              "defaultValue" : 0.0,
                              "interp" : "linr"
                            },
                            "smoothCursorAcrossEditDuration" : 0
                          },
                          "effects" : [

                          ],
                          "start" : 449937600000,
                          "duration" : 8961120000,
                          "mediaStart" : 509843040000,
                          "mediaDuration" : 8961120000,
                          "scalar" : 1,
                          "metadata" : {
                            "AutoAppliedSmartFocus" : "False",
                            "audiateLinkedSession" : "",
                            "clipSpeedAttribute" : { "type": "bool", "value" : false},
                            "colorAttribute" : { "type": "color", "value" : [ 0, 0, 0, 0]},
                            "default-height" : { "type": "double", "value" : 1036.8},
                            "default-translation0" : { "type": "double", "value" : 0.0},
                            "default-translation1" : { "type": "double", "value" : -194.4},
                            "default-translation2" : { "type": "double", "value" : 0.0},
                            "default-width" : { "type": "double", "value" : 1932.67572815534}
                          },
                          "animationTracks" : {

                          }
                        },
                        {
                          "id" : 606,
                          "_type" : "ScreenVMFile",
                          "src" : 2,
                          "trackNumber" : 0,
                          "attributes" : {
                            "ident" : "Rec 4-22-2025-8-51-30-PM"
                          },
                          "parameters" : {
                            "geometryCrop0" : {
                              "type" : "double",
                              "defaultValue" : 0.0,
                              "interp" : "eioe"
                            },
                            "geometryCrop1" : {
                              "type" : "double",
                              "defaultValue" : 0.0,
                              "interp" : "eioe"
                            },
                            "geometryCrop2" : {
                              "type" : "double",
                              "defaultValue" : 0.0,
                              "interp" : "eioe"
                            },
                            "geometryCrop3" : {
                              "type" : "double",
                              "defaultValue" : 0.0,
                              "interp" : "eioe"
                            },
                            "cursorScale" : {
                              "type" : "double",
                              "defaultValue" : 0.0,
                              "interp" : "linr"
                            },
                            "cursorOpacity" : {
                              "type" : "double",
                              "defaultValue" : 0.0,
                              "interp" : "linr"
                            },
                            "cursorTrackLevel" : {
                              "type" : "double",
                              "defaultValue" : 0.0,
                              "interp" : "linr"
                            },
                            "smoothCursorAcrossEditDuration" : 0
                          },
                          "effects" : [

                          ],
                          "start" : 458898720000,
                          "duration" : 581226240000,
                          "mediaStart" : 1416350880000,
                          "mediaDuration" : 581226240000,
                          "scalar" : 1,
                          "metadata" : {
                            "AutoAppliedSmartFocus" : "False",
                            "audiateLinkedSession" : "",
                            "clipSpeedAttribute" : { "type": "bool", "value" : false},
                            "colorAttribute" : { "type": "color", "value" : [ 0, 0, 0, 0]},
                            "default-height" : { "type": "double", "value" : 1036.8},
                            "default-translation0" : { "type": "double", "value" : 0.0},
                            "default-translation1" : { "type": "double", "value" : -194.4},
                            "default-translation2" : { "type": "double", "value" : 0.0},
                            "default-width" : { "type": "double", "value" : 1932.67572815534}
                          },
                          "animationTracks" : {

                          }
                        },
                        {
                          "id" : 607,
                          "_type" : "ScreenVMFile",
                          "src" : 2,
                          "trackNumber" : 0,
                          "attributes" : {
                            "ident" : "Rec 4-22-2025-8-51-30-PM"
                          },
                          "parameters" : {
                            "geometryCrop0" : {
                              "type" : "double",
                              "defaultValue" : 0.0,
                              "interp" : "eioe"
                            },
                            "geometryCrop1" : {
                              "type" : "double",
                              "defaultValue" : 0.0,
                              "interp" : "eioe"
                            },
                            "geometryCrop2" : {
                              "type" : "double",
                              "defaultValue" : 0.0,
                              "interp" : "eioe"
                            },
                            "geometryCrop3" : {
                              "type" : "double",
                              "defaultValue" : 0.0,
                              "interp" : "eioe"
                            },
                            "cursorScale" : {
                              "type" : "double",
                              "defaultValue" : 0.0,
                              "interp" : "linr"
                            },
                            "cursorOpacity" : {
                              "type" : "double",
                              "defaultValue" : 0.0,
                              "interp" : "linr"
                            },
                            "cursorTrackLevel" : {
                              "type" : "double",
                              "defaultValue" : 0.0,
                              "interp" : "linr"
                            },
                            "smoothCursorAcrossEditDuration" : 0
                          },
                          "effects" : [

                          ],
                          "start" : 1040124960000,
                          "duration" : 215419680000,
                          "mediaStart" : 2018886240000,
                          "mediaDuration" : 215419680000,
                          "scalar" : 1,
                          "metadata" : {
                            "AutoAppliedSmartFocus" : "False",
                            "audiateLinkedSession" : "",
                            "clipSpeedAttribute" : { "type": "bool", "value" : false},
                            "colorAttribute" : { "type": "color", "value" : [ 0, 0, 0, 0]},
                            "default-height" : { "type": "double", "value" : 1036.8},
                            "default-translation0" : { "type": "double", "value" : 0.0},
                            "default-translation1" : { "type": "double", "value" : -194.4},
                            "default-translation2" : { "type": "double", "value" : 0.0},
                            "default-width" : { "type": "double", "value" : 1932.67572815534}
                          },
                          "animationTracks" : {

                          }
                        },
                        {
                          "id" : 608,
                          "_type" : "ScreenVMFile",
                          "src" : 2,
                          "trackNumber" : 0,
                          "attributes" : {
                            "ident" : "Rec 4-22-2025-8-51-30-PM"
                          },
                          "parameters" : {
                            "geometryCrop0" : {
                              "type" : "double",
                              "defaultValue" : 0.0,
                              "interp" : "eioe"
                            },
                            "geometryCrop1" : {
                              "type" : "double",
                              "defaultValue" : 0.0,
                              "interp" : "eioe"
                            },
                            "geometryCrop2" : {
                              "type" : "double",
                              "defaultValue" : 0.0,
                              "interp" : "eioe"
                            },
                            "geometryCrop3" : {
                              "type" : "double",
                              "defaultValue" : 0.0,
                              "interp" : "eioe"
                            },
                            "cursorScale" : {
                              "type" : "double",
                              "defaultValue" : 0.0,
                              "interp" : "linr"
                            },
                            "cursorOpacity" : {
                              "type" : "double",
                              "defaultValue" : 0.0,
                              "interp" : "linr"
                            },
                            "cursorTrackLevel" : {
                              "type" : "double",
                              "defaultValue" : 0.0,
                              "interp" : "linr"
                            },
                            "smoothCursorAcrossEditDuration" : 0
                          },
                          "effects" : [

                          ],
                          "start" : 1255544640000,
                          "duration" : 786955680000,
                          "mediaStart" : 2257778880000,
                          "mediaDuration" : 786955680000,
                          "scalar" : 1,
                          "metadata" : {
                            "AutoAppliedSmartFocus" : "False",
                            "audiateLinkedSession" : "",
                            "clipSpeedAttribute" : { "type": "bool", "value" : false},
                            "colorAttribute" : { "type": "color", "value" : [ 0, 0, 0, 0]},
                            "default-height" : { "type": "double", "value" : 1036.8},
                            "default-translation0" : { "type": "double", "value" : 0.0},
                            "default-translation1" : { "type": "double", "value" : -194.4},
                            "default-translation2" : { "type": "double", "value" : 0.0},
                            "default-width" : { "type": "double", "value" : 1932.67572815534}
                          },
                          "animationTracks" : {

                          }
                        },
                        {
                          "id" : 609,
                          "_type" : "ScreenVMFile",
                          "src" : 2,
                          "trackNumber" : 0,
                          "attributes" : {
                            "ident" : "Rec 4-22-2025-8-51-30-PM"
                          },
                          "parameters" : {
                            "geometryCrop0" : {
                              "type" : "double",
                              "defaultValue" : 0.0,
                              "interp" : "eioe"
                            },
                            "geometryCrop1" : {
                              "type" : "double",
                              "defaultValue" : 0.0,
                              "interp" : "eioe"
                            },
                            "geometryCrop2" : {
                              "type" : "double",
                              "defaultValue" : 0.0,
                              "interp" : "eioe"
                            },
                            "geometryCrop3" : {
                              "type" : "double",
                              "defaultValue" : 0.0,
                              "interp" : "eioe"
                            },
                            "cursorScale" : {
                              "type" : "double",
                              "defaultValue" : 0.0,
                              "interp" : "linr"
                            },
                            "cursorOpacity" : {
                              "type" : "double",
                              "defaultValue" : 0.0,
                              "interp" : "linr"
                            },
                            "cursorTrackLevel" : {
                              "type" : "double",
                              "defaultValue" : 0.0,
                              "interp" : "linr"
                            },
                            "smoothCursorAcrossEditDuration" : 0
                          },
                          "effects" : [

                          ],
                          "start" : 2042500320000,
                          "duration" : 20768160000,
                          "mediaStart" : 3047580480000,
                          "mediaDuration" : 20768160000,
                          "scalar" : 1,
                          "metadata" : {
                            "AutoAppliedSmartFocus" : "False",
                            "audiateLinkedSession" : "",
                            "clipSpeedAttribute" : { "type": "bool", "value" : false},
                            "colorAttribute" : { "type": "color", "value" : [ 0, 0, 0, 0]},
                            "default-height" : { "type": "double", "value" : 1036.8},
                            "default-translation0" : { "type": "double", "value" : 0.0},
                            "default-translation1" : { "type": "double", "value" : -194.4},
                            "default-translation2" : { "type": "double", "value" : 0.0},
                            "default-width" : { "type": "double", "value" : 1932.67572815534}
                          },
                          "animationTracks" : {

                          }
                        },
                        {
                          "id" : 610,
                          "_type" : "ScreenVMFile",
                          "src" : 2,
                          "trackNumber" : 0,
                          "attributes" : {
                            "ident" : "Rec 4-22-2025-8-51-30-PM"
                          },
                          "parameters" : {
                            "geometryCrop0" : {
                              "type" : "double",
                              "defaultValue" : 0.0,
                              "interp" : "eioe"
                            },
                            "geometryCrop1" : {
                              "type" : "double",
                              "defaultValue" : 0.0,
                              "interp" : "eioe"
                            },
                            "geometryCrop2" : {
                              "type" : "double",
                              "defaultValue" : 0.0,
                              "interp" : "eioe"
                            },
                            "geometryCrop3" : {
                              "type" : "double",
                              "defaultValue" : 0.0,
                              "interp" : "eioe"
                            },
                            "cursorScale" : {
                              "type" : "double",
                              "defaultValue" : 0.0,
                              "interp" : "linr"
                            },
                            "cursorOpacity" : {
                              "type" : "double",
                              "defaultValue" : 0.0,
                              "interp" : "linr"
                            },
                            "cursorTrackLevel" : {
                              "type" : "double",
                              "defaultValue" : 0.0,
                              "interp" : "linr"
                            },
                            "smoothCursorAcrossEditDuration" : 0
                          },
                          "effects" : [

                          ],
                          "start" : 2063268480000,
                          "duration" : 343039200000,
                          "mediaStart" : 3138932160000,
                          "mediaDuration" : 343039200000,
                          "scalar" : 1,
                          "metadata" : {
                            "AutoAppliedSmartFocus" : "False",
                            "audiateLinkedSession" : "",
                            "clipSpeedAttribute" : { "type": "bool", "value" : false},
                            "colorAttribute" : { "type": "color", "value" : [ 0, 0, 0, 0]},
                            "default-height" : { "type": "double", "value" : 1036.8},
                            "default-translation0" : { "type": "double", "value" : 0.0},
                            "default-translation1" : { "type": "double", "value" : -194.4},
                            "default-translation2" : { "type": "double", "value" : 0.0},
                            "default-width" : { "type": "double", "value" : 1932.67572815534}
                          },
                          "animationTracks" : {

                          }
                        }
                    ],
                    "effects" : [
                        {
                          "effectName" : "CursorColor",
                          "bypassed" : false,
                          "category" : "categoryCursorEffects",
                          "parameters" : {
                            "intensity" : 1.0,
                            "desaturation" : 0.0,
                            "colorLumaCutoff" : 1.0,
                            "color-alpha" : 1.0,
                            "color-red" : 1.0,
                            "color-green" : 0.8980392157,
                            "color-blue" : 0.1215686275,
                            "secondColor-red" : 0.0,
                            "secondColor-green" : 0.0,
                            "secondColor-blue" : 0.0,
                            "secondColor-alpha" : 1.0,
                            "secondColorLumaCutoff" : 0.0,
                            "channel" : 0,
                            "shadowRampStart" : 0.0,
                            "shadowRampEnd" : 0.0,
                            "highlightRampStart" : 1.0,
                            "highlightRampEnd" : 1.0
                          }
                        },
                        {
                          "effectName" : "CursorShadow",
                          "bypassed" : false,
                          "category" : "categoryCursorEffects",
                          "parameters" : {
                            "angle" : 3.92699081698724,
                            "enabled" : 1,
                            "offset" : 5.0,
                            "blur" : 2.0,
                            "opacity" : 0.25,
                            "color-red" : 0.0,
                            "color-green" : 0.0,
                            "color-blue" : 0.0,
                            "color-alpha" : 1.0
                          }
                        },
                        {
                          "effectName" : "CursorHilight",
                          "bypassed" : false,
                          "category" : "categoryCursorEffects",
                          "parameters" : {
                            "radius" : 50.0,
                            "color-red" : 1.0,
                            "color-green" : 1.0,
                            "color-blue" : 0.0,
                            "color-alpha" : 0.75,
                            "blur" : 0.1
                          }
                        }
                    ],
                    "start" : 121104480000,
                    "duration" : 1364160000,
                    "mediaStart" : 1512688800000,
                    "mediaDuration" : "4582213440000/179",
                    "scalar" : "272832000/5119791553",
                    "metadata" : {
                      "AutoAppliedSmartFocus" : "False",
                      "audiateLinkedSession" : "",
                      "clipSpeedAttribute" : { "type": "bool", "value" : true},
                      "colorAttribute" : { "type": "color", "value" : [ 0, 0, 0, 0]},
                      "default-height" : { "type": "double", "value" : 1036.8},
                      "default-translation0" : { "type": "double", "value" : 0.0},
                      "default-translation1" : { "type": "double", "value" : -194.4},
                      "default-translation2" : { "type": "double", "value" : 0.0},
                      "default-width" : { "type": "double", "value" : 1932.67572815534}
                    },
                    "animationTracks" : {

                    }
                  },
                  {
                    "id" : 611,
                    "_type" : "StitchedMedia",
                    "minMediaStart" : 0,
                    "attributes" : {
                      "ident" : "Rec 4-22-2025-8-51-30-PM",
                      "gain" : 1.0,
                      "mixToMono" : false,
                      "loudnessNormalization" : true,
                      "sourceFileOffset" : 0
                    },
                    "parameters" : {
                      "translation0" : 6.33786407766917,
                      "translation1" : -2.8421709430404e-14,
                      "scale0" : 0.503300970873786,
                      "scale1" : 0.503300970873786,
                      "geometryCrop0" : 0.0,
                      "geometryCrop1" : 0.0,
                      "geometryCrop2" : 0.0,
                      "geometryCrop3" : 0.0,
                      "cursorOpacity" : 1.0,
                      "cursorTrackLevel" : 0.0,
                      "cursorScale" : 5.0,
                      "smoothCursorAcrossEditDuration" : 0
                    },
                    "medias" : [
                        {
                          "id" : 612,
                          "_type" : "ScreenVMFile",
                          "src" : 2,
                          "trackNumber" : 0,
                          "attributes" : {
                            "ident" : "Rec 4-22-2025-8-51-30-PM"
                          },
                          "parameters" : {
                            "geometryCrop0" : {
                              "type" : "double",
                              "defaultValue" : 0.0,
                              "interp" : "eioe"
                            },
                            "geometryCrop1" : {
                              "type" : "double",
                              "defaultValue" : 0.0,
                              "interp" : "eioe"
                            },
                            "geometryCrop2" : {
                              "type" : "double",
                              "defaultValue" : 0.0,
                              "interp" : "eioe"
                            },
                            "geometryCrop3" : {
                              "type" : "double",
                              "defaultValue" : 0.0,
                              "interp" : "eioe"
                            },
                            "cursorScale" : {
                              "type" : "double",
                              "defaultValue" : 0.0,
                              "interp" : "linr"
                            },
                            "cursorOpacity" : {
                              "type" : "double",
                              "defaultValue" : 0.0,
                              "interp" : "linr"
                            },
                            "cursorTrackLevel" : {
                              "type" : "double",
                              "defaultValue" : 0.0,
                              "interp" : "linr"
                            },
                            "smoothCursorAcrossEditDuration" : 0
                          },
                          "effects" : [

                          ],
                          "start" : 0,
                          "duration" : 50991360000,
                          "mediaStart" : 0,
                          "mediaDuration" : 50991360000,
                          "scalar" : 1,
                          "metadata" : {
                            "AutoAppliedSmartFocus" : "False",
                            "audiateLinkedSession" : "",
                            "clipSpeedAttribute" : { "type": "bool", "value" : false},
                            "colorAttribute" : { "type": "color", "value" : [ 0, 0, 0, 0]},
                            "default-height" : { "type": "double", "value" : 1036.8},
                            "default-translation0" : { "type": "double", "value" : 0.0},
                            "default-translation1" : { "type": "double", "value" : -194.4},
                            "default-translation2" : { "type": "double", "value" : 0.0},
                            "default-width" : { "type": "double", "value" : 1932.67572815534}
                          },
                          "animationTracks" : {

                          }
                        },
                        {
                          "id" : 613,
                          "_type" : "ScreenVMFile",
                          "src" : 2,
                          "trackNumber" : 0,
                          "attributes" : {
                            "ident" : "Rec 4-22-2025-8-51-30-PM"
                          },
                          "parameters" : {
                            "geometryCrop0" : {
                              "type" : "double",
                              "defaultValue" : 0.0,
                              "interp" : "eioe"
                            },
                            "geometryCrop1" : {
                              "type" : "double",
                              "defaultValue" : 0.0,
                              "interp" : "eioe"
                            },
                            "geometryCrop2" : {
                              "type" : "double",
                              "defaultValue" : 0.0,
                              "interp" : "eioe"
                            },
                            "geometryCrop3" : {
                              "type" : "double",
                              "defaultValue" : 0.0,
                              "interp" : "eioe"
                            },
                            "cursorScale" : {
                              "type" : "double",
                              "defaultValue" : 0.0,
                              "interp" : "linr"
                            },
                            "cursorOpacity" : {
                              "type" : "double",
                              "defaultValue" : 0.0,
                              "interp" : "linr"
                            },
                            "cursorTrackLevel" : {
                              "type" : "double",
                              "defaultValue" : 0.0,
                              "interp" : "linr"
                            },
                            "smoothCursorAcrossEditDuration" : 0
                          },
                          "effects" : [

                          ],
                          "start" : 50991360000,
                          "duration" : 46663680000,
                          "mediaStart" : 66467520000,
                          "mediaDuration" : 46663680000,
                          "scalar" : 1,
                          "metadata" : {
                            "AutoAppliedSmartFocus" : "False",
                            "audiateLinkedSession" : "",
                            "clipSpeedAttribute" : { "type": "bool", "value" : false},
                            "colorAttribute" : { "type": "color", "value" : [ 0, 0, 0, 0]},
                            "default-height" : { "type": "double", "value" : 1036.8},
                            "default-translation0" : { "type": "double", "value" : 0.0},
                            "default-translation1" : { "type": "double", "value" : -194.4},
                            "default-translation2" : { "type": "double", "value" : 0.0},
                            "default-width" : { "type": "double", "value" : 1932.67572815534}
                          },
                          "animationTracks" : {

                          }
                        },
                        {
                          "id" : 614,
                          "_type" : "ScreenVMFile",
                          "src" : 2,
                          "trackNumber" : 0,
                          "attributes" : {
                            "ident" : "Rec 4-22-2025-8-51-30-PM"
                          },
                          "parameters" : {
                            "geometryCrop0" : {
                              "type" : "double",
                              "defaultValue" : 0.0,
                              "interp" : "eioe"
                            },
                            "geometryCrop1" : {
                              "type" : "double",
                              "defaultValue" : 0.0,
                              "interp" : "eioe"
                            },
                            "geometryCrop2" : {
                              "type" : "double",
                              "defaultValue" : 0.0,
                              "interp" : "eioe"
                            },
                            "geometryCrop3" : {
                              "type" : "double",
                              "defaultValue" : 0.0,
                              "interp" : "eioe"
                            },
                            "cursorScale" : {
                              "type" : "double",
                              "defaultValue" : 0.0,
                              "interp" : "linr"
                            },
                            "cursorOpacity" : {
                              "type" : "double",
                              "defaultValue" : 0.0,
                              "interp" : "linr"
                            },
                            "cursorTrackLevel" : {
                              "type" : "double",
                              "defaultValue" : 0.0,
                              "interp" : "linr"
                            },
                            "smoothCursorAcrossEditDuration" : 0
                          },
                          "effects" : [

                          ],
                          "start" : 97655040000,
                          "duration" : 352282560000,
                          "mediaStart" : 149352000000,
                          "mediaDuration" : 352282560000,
                          "scalar" : 1,
                          "metadata" : {
                            "AutoAppliedSmartFocus" : "False",
                            "audiateLinkedSession" : "",
                            "clipSpeedAttribute" : { "type": "bool", "value" : false},
                            "colorAttribute" : { "type": "color", "value" : [ 0, 0, 0, 0]},
                            "default-height" : { "type": "double", "value" : 1036.8},
                            "default-translation0" : { "type": "double", "value" : 0.0},
                            "default-translation1" : { "type": "double", "value" : -194.4},
                            "default-translation2" : { "type": "double", "value" : 0.0},
                            "default-width" : { "type": "double", "value" : 1932.67572815534}
                          },
                          "animationTracks" : {

                          }
                        },
                        {
                          "id" : 615,
                          "_type" : "ScreenVMFile",
                          "src" : 2,
                          "trackNumber" : 0,
                          "attributes" : {
                            "ident" : "Rec 4-22-2025-8-51-30-PM"
                          },
                          "parameters" : {
                            "geometryCrop0" : {
                              "type" : "double",
                              "defaultValue" : 0.0,
                              "interp" : "eioe"
                            },
                            "geometryCrop1" : {
                              "type" : "double",
                              "defaultValue" : 0.0,
                              "interp" : "eioe"
                            },
                            "geometryCrop2" : {
                              "type" : "double",
                              "defaultValue" : 0.0,
                              "interp" : "eioe"
                            },
                            "geometryCrop3" : {
                              "type" : "double",
                              "defaultValue" : 0.0,
                              "interp" : "eioe"
                            },
                            "cursorScale" : {
                              "type" : "double",
                              "defaultValue" : 0.0,
                              "interp" : "linr"
                            },
                            "cursorOpacity" : {
                              "type" : "double",
                              "defaultValue" : 0.0,
                              "interp" : "linr"
                            },
                            "cursorTrackLevel" : {
                              "type" : "double",
                              "defaultValue" : 0.0,
                              "interp" : "linr"
                            },
                            "smoothCursorAcrossEditDuration" : 0
                          },
                          "effects" : [

                          ],
                          "start" : 449937600000,
                          "duration" : 8961120000,
                          "mediaStart" : 509843040000,
                          "mediaDuration" : 8961120000,
                          "scalar" : 1,
                          "metadata" : {
                            "AutoAppliedSmartFocus" : "False",
                            "audiateLinkedSession" : "",
                            "clipSpeedAttribute" : { "type": "bool", "value" : false},
                            "colorAttribute" : { "type": "color", "value" : [ 0, 0, 0, 0]},
                            "default-height" : { "type": "double", "value" : 1036.8},
                            "default-translation0" : { "type": "double", "value" : 0.0},
                            "default-translation1" : { "type": "double", "value" : -194.4},
                            "default-translation2" : { "type": "double", "value" : 0.0},
                            "default-width" : { "type": "double", "value" : 1932.67572815534}
                          },
                          "animationTracks" : {

                          }
                        },
                        {
                          "id" : 616,
                          "_type" : "ScreenVMFile",
                          "src" : 2,
                          "trackNumber" : 0,
                          "attributes" : {
                            "ident" : "Rec 4-22-2025-8-51-30-PM"
                          },
                          "parameters" : {
                            "geometryCrop0" : {
                              "type" : "double",
                              "defaultValue" : 0.0,
                              "interp" : "eioe"
                            },
                            "geometryCrop1" : {
                              "type" : "double",
                              "defaultValue" : 0.0,
                              "interp" : "eioe"
                            },
                            "geometryCrop2" : {
                              "type" : "double",
                              "defaultValue" : 0.0,
                              "interp" : "eioe"
                            },
                            "geometryCrop3" : {
                              "type" : "double",
                              "defaultValue" : 0.0,
                              "interp" : "eioe"
                            },
                            "cursorScale" : {
                              "type" : "double",
                              "defaultValue" : 0.0,
                              "interp" : "linr"
                            },
                            "cursorOpacity" : {
                              "type" : "double",
                              "defaultValue" : 0.0,
                              "interp" : "linr"
                            },
                            "cursorTrackLevel" : {
                              "type" : "double",
                              "defaultValue" : 0.0,
                              "interp" : "linr"
                            },
                            "smoothCursorAcrossEditDuration" : 0
                          },
                          "effects" : [

                          ],
                          "start" : 458898720000,
                          "duration" : 581226240000,
                          "mediaStart" : 1416350880000,
                          "mediaDuration" : 581226240000,
                          "scalar" : 1,
                          "metadata" : {
                            "AutoAppliedSmartFocus" : "False",
                            "audiateLinkedSession" : "",
                            "clipSpeedAttribute" : { "type": "bool", "value" : false},
                            "colorAttribute" : { "type": "color", "value" : [ 0, 0, 0, 0]},
                            "default-height" : { "type": "double", "value" : 1036.8},
                            "default-translation0" : { "type": "double", "value" : 0.0},
                            "default-translation1" : { "type": "double", "value" : -194.4},
                            "default-translation2" : { "type": "double", "value" : 0.0},
                            "default-width" : { "type": "double", "value" : 1932.67572815534}
                          },
                          "animationTracks" : {

                          }
                        },
                        {
                          "id" : 617,
                          "_type" : "ScreenVMFile",
                          "src" : 2,
                          "trackNumber" : 0,
                          "attributes" : {
                            "ident" : "Rec 4-22-2025-8-51-30-PM"
                          },
                          "parameters" : {
                            "geometryCrop0" : {
                              "type" : "double",
                              "defaultValue" : 0.0,
                              "interp" : "eioe"
                            },
                            "geometryCrop1" : {
                              "type" : "double",
                              "defaultValue" : 0.0,
                              "interp" : "eioe"
                            },
                            "geometryCrop2" : {
                              "type" : "double",
                              "defaultValue" : 0.0,
                              "interp" : "eioe"
                            },
                            "geometryCrop3" : {
                              "type" : "double",
                              "defaultValue" : 0.0,
                              "interp" : "eioe"
                            },
                            "cursorScale" : {
                              "type" : "double",
                              "defaultValue" : 0.0,
                              "interp" : "linr"
                            },
                            "cursorOpacity" : {
                              "type" : "double",
                              "defaultValue" : 0.0,
                              "interp" : "linr"
                            },
                            "cursorTrackLevel" : {
                              "type" : "double",
                              "defaultValue" : 0.0,
                              "interp" : "linr"
                            },
                            "smoothCursorAcrossEditDuration" : 0
                          },
                          "effects" : [

                          ],
                          "start" : 1040124960000,
                          "duration" : 215419680000,
                          "mediaStart" : 2018886240000,
                          "mediaDuration" : 215419680000,
                          "scalar" : 1,
                          "metadata" : {
                            "AutoAppliedSmartFocus" : "False",
                            "audiateLinkedSession" : "",
                            "clipSpeedAttribute" : { "type": "bool", "value" : false},
                            "colorAttribute" : { "type": "color", "value" : [ 0, 0, 0, 0]},
                            "default-height" : { "type": "double", "value" : 1036.8},
                            "default-translation0" : { "type": "double", "value" : 0.0},
                            "default-translation1" : { "type": "double", "value" : -194.4},
                            "default-translation2" : { "type": "double", "value" : 0.0},
                            "default-width" : { "type": "double", "value" : 1932.67572815534}
                          },
                          "animationTracks" : {

                          }
                        },
                        {
                          "id" : 618,
                          "_type" : "ScreenVMFile",
                          "src" : 2,
                          "trackNumber" : 0,
                          "attributes" : {
                            "ident" : "Rec 4-22-2025-8-51-30-PM"
                          },
                          "parameters" : {
                            "geometryCrop0" : {
                              "type" : "double",
                              "defaultValue" : 0.0,
                              "interp" : "eioe"
                            },
                            "geometryCrop1" : {
                              "type" : "double",
                              "defaultValue" : 0.0,
                              "interp" : "eioe"
                            },
                            "geometryCrop2" : {
                              "type" : "double",
                              "defaultValue" : 0.0,
                              "interp" : "eioe"
                            },
                            "geometryCrop3" : {
                              "type" : "double",
                              "defaultValue" : 0.0,
                              "interp" : "eioe"
                            },
                            "cursorScale" : {
                              "type" : "double",
                              "defaultValue" : 0.0,
                              "interp" : "linr"
                            },
                            "cursorOpacity" : {
                              "type" : "double",
                              "defaultValue" : 0.0,
                              "interp" : "linr"
                            },
                            "cursorTrackLevel" : {
                              "type" : "double",
                              "defaultValue" : 0.0,
                              "interp" : "linr"
                            },
                            "smoothCursorAcrossEditDuration" : 0
                          },
                          "effects" : [

                          ],
                          "start" : 1255544640000,
                          "duration" : 786955680000,
                          "mediaStart" : 2257778880000,
                          "mediaDuration" : 786955680000,
                          "scalar" : 1,
                          "metadata" : {
                            "AutoAppliedSmartFocus" : "False",
                            "audiateLinkedSession" : "",
                            "clipSpeedAttribute" : { "type": "bool", "value" : false},
                            "colorAttribute" : { "type": "color", "value" : [ 0, 0, 0, 0]},
                            "default-height" : { "type": "double", "value" : 1036.8},
                            "default-translation0" : { "type": "double", "value" : 0.0},
                            "default-translation1" : { "type": "double", "value" : -194.4},
                            "default-translation2" : { "type": "double", "value" : 0.0},
                            "default-width" : { "type": "double", "value" : 1932.67572815534}
                          },
                          "animationTracks" : {

                          }
                        },
                        {
                          "id" : 619,
                          "_type" : "ScreenVMFile",
                          "src" : 2,
                          "trackNumber" : 0,
                          "attributes" : {
                            "ident" : "Rec 4-22-2025-8-51-30-PM"
                          },
                          "parameters" : {
                            "geometryCrop0" : {
                              "type" : "double",
                              "defaultValue" : 0.0,
                              "interp" : "eioe"
                            },
                            "geometryCrop1" : {
                              "type" : "double",
                              "defaultValue" : 0.0,
                              "interp" : "eioe"
                            },
                            "geometryCrop2" : {
                              "type" : "double",
                              "defaultValue" : 0.0,
                              "interp" : "eioe"
                            },
                            "geometryCrop3" : {
                              "type" : "double",
                              "defaultValue" : 0.0,
                              "interp" : "eioe"
                            },
                            "cursorScale" : {
                              "type" : "double",
                              "defaultValue" : 0.0,
                              "interp" : "linr"
                            },
                            "cursorOpacity" : {
                              "type" : "double",
                              "defaultValue" : 0.0,
                              "interp" : "linr"
                            },
                            "cursorTrackLevel" : {
                              "type" : "double",
                              "defaultValue" : 0.0,
                              "interp" : "linr"
                            },
                            "smoothCursorAcrossEditDuration" : 0
                          },
                          "effects" : [

                          ],
                          "start" : 2042500320000,
                          "duration" : 20768160000,
                          "mediaStart" : 3047580480000,
                          "mediaDuration" : 20768160000,
                          "scalar" : 1,
                          "metadata" : {
                            "AutoAppliedSmartFocus" : "False",
                            "audiateLinkedSession" : "",
                            "clipSpeedAttribute" : { "type": "bool", "value" : false},
                            "colorAttribute" : { "type": "color", "value" : [ 0, 0, 0, 0]},
                            "default-height" : { "type": "double", "value" : 1036.8},
                            "default-translation0" : { "type": "double", "value" : 0.0},
                            "default-translation1" : { "type": "double", "value" : -194.4},
                            "default-translation2" : { "type": "double", "value" : 0.0},
                            "default-width" : { "type": "double", "value" : 1932.67572815534}
                          },
                          "animationTracks" : {

                          }
                        },
                        {
                          "id" : 620,
                          "_type" : "ScreenVMFile",
                          "src" : 2,
                          "trackNumber" : 0,
                          "attributes" : {
                            "ident" : "Rec 4-22-2025-8-51-30-PM"
                          },
                          "parameters" : {
                            "geometryCrop0" : {
                              "type" : "double",
                              "defaultValue" : 0.0,
                              "interp" : "eioe"
                            },
                            "geometryCrop1" : {
                              "type" : "double",
                              "defaultValue" : 0.0,
                              "interp" : "eioe"
                            },
                            "geometryCrop2" : {
                              "type" : "double",
                              "defaultValue" : 0.0,
                              "interp" : "eioe"
                            },
                            "geometryCrop3" : {
                              "type" : "double",
                              "defaultValue" : 0.0,
                              "interp" : "eioe"
                            },
                            "cursorScale" : {
                              "type" : "double",
                              "defaultValue" : 0.0,
                              "interp" : "linr"
                            },
                            "cursorOpacity" : {
                              "type" : "double",
                              "defaultValue" : 0.0,
                              "interp" : "linr"
                            },
                            "cursorTrackLevel" : {
                              "type" : "double",
                              "defaultValue" : 0.0,
                              "interp" : "linr"
                            },
                            "smoothCursorAcrossEditDuration" : 0
                          },
                          "effects" : [

                          ],
                          "start" : 2063268480000,
                          "duration" : 343039200000,
                          "mediaStart" : 3138932160000,
                          "mediaDuration" : 343039200000,
                          "scalar" : 1,
                          "metadata" : {
                            "AutoAppliedSmartFocus" : "False",
                            "audiateLinkedSession" : "",
                            "clipSpeedAttribute" : { "type": "bool", "value" : false},
                            "colorAttribute" : { "type": "color", "value" : [ 0, 0, 0, 0]},
                            "default-height" : { "type": "double", "value" : 1036.8},
                            "default-translation0" : { "type": "double", "value" : 0.0},
                            "default-translation1" : { "type": "double", "value" : -194.4},
                            "default-translation2" : { "type": "double", "value" : 0.0},
                            "default-width" : { "type": "double", "value" : 1932.67572815534}
                          },
                          "animationTracks" : {

                          }
                        }
                    ],
                    "effects" : [
                        {
                          "effectName" : "CursorColor",
                          "bypassed" : false,
                          "category" : "categoryCursorEffects",
                          "parameters" : {
                            "intensity" : 1.0,
                            "desaturation" : 0.0,
                            "colorLumaCutoff" : 1.0,
                            "color-alpha" : 1.0,
                            "color-red" : 1.0,
                            "color-green" : 0.8980392157,
                            "color-blue" : 0.1215686275,
                            "secondColor-red" : 0.0,
                            "secondColor-green" : 0.0,
                            "secondColor-blue" : 0.0,
                            "secondColor-alpha" : 1.0,
                            "secondColorLumaCutoff" : 0.0,
                            "channel" : 0,
                            "shadowRampStart" : 0.0,
                            "shadowRampEnd" : 0.0,
                            "highlightRampStart" : 1.0,
                            "highlightRampEnd" : 1.0
                          }
                        },
                        {
                          "effectName" : "CursorShadow",
                          "bypassed" : false,
                          "category" : "categoryCursorEffects",
                          "parameters" : {
                            "angle" : 3.92699081698724,
                            "enabled" : 1,
                            "offset" : 5.0,
                            "blur" : 2.0,
                            "opacity" : 0.25,
                            "color-red" : 0.0,
                            "color-green" : 0.0,
                            "color-blue" : 0.0,
                            "color-alpha" : 1.0
                          }
                        },
                        {
                          "effectName" : "CursorHilight",
                          "bypassed" : false,
                          "category" : "categoryCursorEffects",
                          "parameters" : {
                            "radius" : 50.0,
                            "color-red" : 1.0,
                            "color-green" : 1.0,
                            "color-blue" : 0.0,
                            "color-alpha" : 0.75,
                            "blur" : 0.1
                          }
                        }
                    ],
                    "start" : 122468640000,
                    "duration" : 3974880000,
                    "mediaStart" : 1592233440000,
                    "mediaDuration" : 3974880000,
                    "scalar" : 1,
                    "metadata" : {
                      "AutoAppliedSmartFocus" : "False",
                      "audiateLinkedSession" : "",
                      "clipSpeedAttribute" : { "type": "bool", "value" : false},
                      "colorAttribute" : { "type": "color", "value" : [ 0, 0, 0, 0]},
                      "default-height" : { "type": "double", "value" : 1036.8},
                      "default-translation0" : { "type": "double", "value" : 0.0},
                      "default-translation1" : { "type": "double", "value" : -194.4},
                      "default-translation2" : { "type": "double", "value" : 0.0},
                      "default-width" : { "type": "double", "value" : 1932.67572815534}
                    },
                    "animationTracks" : {

                    }
                  },
                  {
                    "id" : 621,
                    "_type" : "StitchedMedia",
                    "minMediaStart" : 0,
                    "attributes" : {
                      "ident" : "Rec 4-22-2025-8-51-30-PM",
                      "gain" : 1.0,
                      "mixToMono" : false,
                      "loudnessNormalization" : true,
                      "sourceFileOffset" : 0
                    },
                    "parameters" : {
                      "translation0" : 6.33786407766917,
                      "translation1" : -2.8421709430404e-14,
                      "scale0" : 0.503300970873786,
                      "scale1" : 0.503300970873786,
                      "geometryCrop0" : 0.0,
                      "geometryCrop1" : 0.0,
                      "geometryCrop2" : 0.0,
                      "geometryCrop3" : 0.0,
                      "toc" : {
                        "type" : "string",
                        "keyframes" : [
                          {
                            "endTime" : 1596208320000,
                            "time" : 1596208320000,
                            "value" : "Merge to develop",
                            "duration" : 0,
                            "metadata" : {
                              "markerIdentifier" : "EEC61A98-15D8-448D-B2DC-546AF5E85755"
                            }
                          },
                          {
                            "endTime" : "231469798559952/143",
                            "time" : "231469798559952/143",
                            "value" : "Start unit tests",
                            "duration" : 0,
                            "metadata" : {
                              "markerIdentifier" : "A2450F3B-A867-4193-96F2-B33078AFF35E"
                            }
                          }
                        ]
                      },
                      "cursorOpacity" : 1.0,
                      "cursorTrackLevel" : 0.0,
                      "cursorScale" : 5.0,
                      "smoothCursorAcrossEditDuration" : 0
                    },
                    "medias" : [
                        {
                          "id" : 622,
                          "_type" : "ScreenVMFile",
                          "src" : 2,
                          "trackNumber" : 0,
                          "attributes" : {
                            "ident" : "Rec 4-22-2025-8-51-30-PM"
                          },
                          "parameters" : {
                            "geometryCrop0" : {
                              "type" : "double",
                              "defaultValue" : 0.0,
                              "interp" : "eioe"
                            },
                            "geometryCrop1" : {
                              "type" : "double",
                              "defaultValue" : 0.0,
                              "interp" : "eioe"
                            },
                            "geometryCrop2" : {
                              "type" : "double",
                              "defaultValue" : 0.0,
                              "interp" : "eioe"
                            },
                            "geometryCrop3" : {
                              "type" : "double",
                              "defaultValue" : 0.0,
                              "interp" : "eioe"
                            },
                            "cursorScale" : {
                              "type" : "double",
                              "defaultValue" : 0.0,
                              "interp" : "linr"
                            },
                            "cursorOpacity" : {
                              "type" : "double",
                              "defaultValue" : 0.0,
                              "interp" : "linr"
                            },
                            "cursorTrackLevel" : {
                              "type" : "double",
                              "defaultValue" : 0.0,
                              "interp" : "linr"
                            },
                            "smoothCursorAcrossEditDuration" : 0
                          },
                          "effects" : [

                          ],
                          "start" : 0,
                          "duration" : 50991360000,
                          "mediaStart" : 0,
                          "mediaDuration" : 50991360000,
                          "scalar" : 1,
                          "metadata" : {
                            "AutoAppliedSmartFocus" : "False",
                            "audiateLinkedSession" : "",
                            "clipSpeedAttribute" : { "type": "bool", "value" : false},
                            "colorAttribute" : { "type": "color", "value" : [ 0, 0, 0, 0]},
                            "default-height" : { "type": "double", "value" : 1036.8},
                            "default-translation0" : { "type": "double", "value" : 0.0},
                            "default-translation1" : { "type": "double", "value" : -194.4},
                            "default-translation2" : { "type": "double", "value" : 0.0},
                            "default-width" : { "type": "double", "value" : 1932.67572815534}
                          },
                          "animationTracks" : {

                          }
                        },
                        {
                          "id" : 623,
                          "_type" : "ScreenVMFile",
                          "src" : 2,
                          "trackNumber" : 0,
                          "attributes" : {
                            "ident" : "Rec 4-22-2025-8-51-30-PM"
                          },
                          "parameters" : {
                            "geometryCrop0" : {
                              "type" : "double",
                              "defaultValue" : 0.0,
                              "interp" : "eioe"
                            },
                            "geometryCrop1" : {
                              "type" : "double",
                              "defaultValue" : 0.0,
                              "interp" : "eioe"
                            },
                            "geometryCrop2" : {
                              "type" : "double",
                              "defaultValue" : 0.0,
                              "interp" : "eioe"
                            },
                            "geometryCrop3" : {
                              "type" : "double",
                              "defaultValue" : 0.0,
                              "interp" : "eioe"
                            },
                            "cursorScale" : {
                              "type" : "double",
                              "defaultValue" : 0.0,
                              "interp" : "linr"
                            },
                            "cursorOpacity" : {
                              "type" : "double",
                              "defaultValue" : 0.0,
                              "interp" : "linr"
                            },
                            "cursorTrackLevel" : {
                              "type" : "double",
                              "defaultValue" : 0.0,
                              "interp" : "linr"
                            },
                            "smoothCursorAcrossEditDuration" : 0
                          },
                          "effects" : [

                          ],
                          "start" : 50991360000,
                          "duration" : 46663680000,
                          "mediaStart" : 66467520000,
                          "mediaDuration" : 46663680000,
                          "scalar" : 1,
                          "metadata" : {
                            "AutoAppliedSmartFocus" : "False",
                            "audiateLinkedSession" : "",
                            "clipSpeedAttribute" : { "type": "bool", "value" : false},
                            "colorAttribute" : { "type": "color", "value" : [ 0, 0, 0, 0]},
                            "default-height" : { "type": "double", "value" : 1036.8},
                            "default-translation0" : { "type": "double", "value" : 0.0},
                            "default-translation1" : { "type": "double", "value" : -194.4},
                            "default-translation2" : { "type": "double", "value" : 0.0},
                            "default-width" : { "type": "double", "value" : 1932.67572815534}
                          },
                          "animationTracks" : {

                          }
                        },
                        {
                          "id" : 624,
                          "_type" : "ScreenVMFile",
                          "src" : 2,
                          "trackNumber" : 0,
                          "attributes" : {
                            "ident" : "Rec 4-22-2025-8-51-30-PM"
                          },
                          "parameters" : {
                            "geometryCrop0" : {
                              "type" : "double",
                              "defaultValue" : 0.0,
                              "interp" : "eioe"
                            },
                            "geometryCrop1" : {
                              "type" : "double",
                              "defaultValue" : 0.0,
                              "interp" : "eioe"
                            },
                            "geometryCrop2" : {
                              "type" : "double",
                              "defaultValue" : 0.0,
                              "interp" : "eioe"
                            },
                            "geometryCrop3" : {
                              "type" : "double",
                              "defaultValue" : 0.0,
                              "interp" : "eioe"
                            },
                            "cursorScale" : {
                              "type" : "double",
                              "defaultValue" : 0.0,
                              "interp" : "linr"
                            },
                            "cursorOpacity" : {
                              "type" : "double",
                              "defaultValue" : 0.0,
                              "interp" : "linr"
                            },
                            "cursorTrackLevel" : {
                              "type" : "double",
                              "defaultValue" : 0.0,
                              "interp" : "linr"
                            },
                            "smoothCursorAcrossEditDuration" : 0
                          },
                          "effects" : [

                          ],
                          "start" : 97655040000,
                          "duration" : 352282560000,
                          "mediaStart" : 149352000000,
                          "mediaDuration" : 352282560000,
                          "scalar" : 1,
                          "metadata" : {
                            "AutoAppliedSmartFocus" : "False",
                            "audiateLinkedSession" : "",
                            "clipSpeedAttribute" : { "type": "bool", "value" : false},
                            "colorAttribute" : { "type": "color", "value" : [ 0, 0, 0, 0]},
                            "default-height" : { "type": "double", "value" : 1036.8},
                            "default-translation0" : { "type": "double", "value" : 0.0},
                            "default-translation1" : { "type": "double", "value" : -194.4},
                            "default-translation2" : { "type": "double", "value" : 0.0},
                            "default-width" : { "type": "double", "value" : 1932.67572815534}
                          },
                          "animationTracks" : {

                          }
                        },
                        {
                          "id" : 625,
                          "_type" : "ScreenVMFile",
                          "src" : 2,
                          "trackNumber" : 0,
                          "attributes" : {
                            "ident" : "Rec 4-22-2025-8-51-30-PM"
                          },
                          "parameters" : {
                            "geometryCrop0" : {
                              "type" : "double",
                              "defaultValue" : 0.0,
                              "interp" : "eioe"
                            },
                            "geometryCrop1" : {
                              "type" : "double",
                              "defaultValue" : 0.0,
                              "interp" : "eioe"
                            },
                            "geometryCrop2" : {
                              "type" : "double",
                              "defaultValue" : 0.0,
                              "interp" : "eioe"
                            },
                            "geometryCrop3" : {
                              "type" : "double",
                              "defaultValue" : 0.0,
                              "interp" : "eioe"
                            },
                            "cursorScale" : {
                              "type" : "double",
                              "defaultValue" : 0.0,
                              "interp" : "linr"
                            },
                            "cursorOpacity" : {
                              "type" : "double",
                              "defaultValue" : 0.0,
                              "interp" : "linr"
                            },
                            "cursorTrackLevel" : {
                              "type" : "double",
                              "defaultValue" : 0.0,
                              "interp" : "linr"
                            },
                            "smoothCursorAcrossEditDuration" : 0
                          },
                          "effects" : [

                          ],
                          "start" : 449937600000,
                          "duration" : 8961120000,
                          "mediaStart" : 509843040000,
                          "mediaDuration" : 8961120000,
                          "scalar" : 1,
                          "metadata" : {
                            "AutoAppliedSmartFocus" : "False",
                            "audiateLinkedSession" : "",
                            "clipSpeedAttribute" : { "type": "bool", "value" : false},
                            "colorAttribute" : { "type": "color", "value" : [ 0, 0, 0, 0]},
                            "default-height" : { "type": "double", "value" : 1036.8},
                            "default-translation0" : { "type": "double", "value" : 0.0},
                            "default-translation1" : { "type": "double", "value" : -194.4},
                            "default-translation2" : { "type": "double", "value" : 0.0},
                            "default-width" : { "type": "double", "value" : 1932.67572815534}
                          },
                          "animationTracks" : {

                          }
                        },
                        {
                          "id" : 626,
                          "_type" : "ScreenVMFile",
                          "src" : 2,
                          "trackNumber" : 0,
                          "attributes" : {
                            "ident" : "Rec 4-22-2025-8-51-30-PM"
                          },
                          "parameters" : {
                            "geometryCrop0" : {
                              "type" : "double",
                              "defaultValue" : 0.0,
                              "interp" : "eioe"
                            },
                            "geometryCrop1" : {
                              "type" : "double",
                              "defaultValue" : 0.0,
                              "interp" : "eioe"
                            },
                            "geometryCrop2" : {
                              "type" : "double",
                              "defaultValue" : 0.0,
                              "interp" : "eioe"
                            },
                            "geometryCrop3" : {
                              "type" : "double",
                              "defaultValue" : 0.0,
                              "interp" : "eioe"
                            },
                            "cursorScale" : {
                              "type" : "double",
                              "defaultValue" : 0.0,
                              "interp" : "linr"
                            },
                            "cursorOpacity" : {
                              "type" : "double",
                              "defaultValue" : 0.0,
                              "interp" : "linr"
                            },
                            "cursorTrackLevel" : {
                              "type" : "double",
                              "defaultValue" : 0.0,
                              "interp" : "linr"
                            },
                            "smoothCursorAcrossEditDuration" : 0
                          },
                          "effects" : [

                          ],
                          "start" : 458898720000,
                          "duration" : 581226240000,
                          "mediaStart" : 1416350880000,
                          "mediaDuration" : 581226240000,
                          "scalar" : 1,
                          "metadata" : {
                            "AutoAppliedSmartFocus" : "False",
                            "audiateLinkedSession" : "",
                            "clipSpeedAttribute" : { "type": "bool", "value" : false},
                            "colorAttribute" : { "type": "color", "value" : [ 0, 0, 0, 0]},
                            "default-height" : { "type": "double", "value" : 1036.8},
                            "default-translation0" : { "type": "double", "value" : 0.0},
                            "default-translation1" : { "type": "double", "value" : -194.4},
                            "default-translation2" : { "type": "double", "value" : 0.0},
                            "default-width" : { "type": "double", "value" : 1932.67572815534}
                          },
                          "animationTracks" : {

                          }
                        },
                        {
                          "id" : 627,
                          "_type" : "ScreenVMFile",
                          "src" : 2,
                          "trackNumber" : 0,
                          "attributes" : {
                            "ident" : "Rec 4-22-2025-8-51-30-PM"
                          },
                          "parameters" : {
                            "geometryCrop0" : {
                              "type" : "double",
                              "defaultValue" : 0.0,
                              "interp" : "eioe"
                            },
                            "geometryCrop1" : {
                              "type" : "double",
                              "defaultValue" : 0.0,
                              "interp" : "eioe"
                            },
                            "geometryCrop2" : {
                              "type" : "double",
                              "defaultValue" : 0.0,
                              "interp" : "eioe"
                            },
                            "geometryCrop3" : {
                              "type" : "double",
                              "defaultValue" : 0.0,
                              "interp" : "eioe"
                            },
                            "cursorScale" : {
                              "type" : "double",
                              "defaultValue" : 0.0,
                              "interp" : "linr"
                            },
                            "cursorOpacity" : {
                              "type" : "double",
                              "defaultValue" : 0.0,
                              "interp" : "linr"
                            },
                            "cursorTrackLevel" : {
                              "type" : "double",
                              "defaultValue" : 0.0,
                              "interp" : "linr"
                            },
                            "smoothCursorAcrossEditDuration" : 0
                          },
                          "effects" : [

                          ],
                          "start" : 1040124960000,
                          "duration" : 215419680000,
                          "mediaStart" : 2018886240000,
                          "mediaDuration" : 215419680000,
                          "scalar" : 1,
                          "metadata" : {
                            "AutoAppliedSmartFocus" : "False",
                            "audiateLinkedSession" : "",
                            "clipSpeedAttribute" : { "type": "bool", "value" : false},
                            "colorAttribute" : { "type": "color", "value" : [ 0, 0, 0, 0]},
                            "default-height" : { "type": "double", "value" : 1036.8},
                            "default-translation0" : { "type": "double", "value" : 0.0},
                            "default-translation1" : { "type": "double", "value" : -194.4},
                            "default-translation2" : { "type": "double", "value" : 0.0},
                            "default-width" : { "type": "double", "value" : 1932.67572815534}
                          },
                          "animationTracks" : {

                          }
                        },
                        {
                          "id" : 628,
                          "_type" : "ScreenVMFile",
                          "src" : 2,
                          "trackNumber" : 0,
                          "attributes" : {
                            "ident" : "Rec 4-22-2025-8-51-30-PM"
                          },
                          "parameters" : {
                            "geometryCrop0" : {
                              "type" : "double",
                              "defaultValue" : 0.0,
                              "interp" : "eioe"
                            },
                            "geometryCrop1" : {
                              "type" : "double",
                              "defaultValue" : 0.0,
                              "interp" : "eioe"
                            },
                            "geometryCrop2" : {
                              "type" : "double",
                              "defaultValue" : 0.0,
                              "interp" : "eioe"
                            },
                            "geometryCrop3" : {
                              "type" : "double",
                              "defaultValue" : 0.0,
                              "interp" : "eioe"
                            },
                            "cursorScale" : {
                              "type" : "double",
                              "defaultValue" : 0.0,
                              "interp" : "linr"
                            },
                            "cursorOpacity" : {
                              "type" : "double",
                              "defaultValue" : 0.0,
                              "interp" : "linr"
                            },
                            "cursorTrackLevel" : {
                              "type" : "double",
                              "defaultValue" : 0.0,
                              "interp" : "linr"
                            },
                            "smoothCursorAcrossEditDuration" : 0
                          },
                          "effects" : [

                          ],
                          "start" : 1255544640000,
                          "duration" : 363125280000,
                          "mediaStart" : 2257778880000,
                          "mediaDuration" : 363125280000,
                          "scalar" : 1,
                          "metadata" : {
                            "AutoAppliedSmartFocus" : "False",
                            "audiateLinkedSession" : "",
                            "clipSpeedAttribute" : { "type": "bool", "value" : false},
                            "colorAttribute" : { "type": "color", "value" : [ 0, 0, 0, 0]},
                            "default-height" : { "type": "double", "value" : 1036.8},
                            "default-translation0" : { "type": "double", "value" : 0.0},
                            "default-translation1" : { "type": "double", "value" : -194.4},
                            "default-translation2" : { "type": "double", "value" : 0.0},
                            "default-width" : { "type": "double", "value" : 1932.67572815534}
                          },
                          "animationTracks" : {

                          }
                        },
                        {
                          "id" : 629,
                          "_type" : "ScreenVMFile",
                          "src" : 2,
                          "trackNumber" : 0,
                          "attributes" : {
                            "ident" : "Rec 4-22-2025-8-51-30-PM"
                          },
                          "parameters" : {
                            "geometryCrop0" : {
                              "type" : "double",
                              "defaultValue" : 0.0,
                              "interp" : "eioe"
                            },
                            "geometryCrop1" : {
                              "type" : "double",
                              "defaultValue" : 0.0,
                              "interp" : "eioe"
                            },
                            "geometryCrop2" : {
                              "type" : "double",
                              "defaultValue" : 0.0,
                              "interp" : "eioe"
                            },
                            "geometryCrop3" : {
                              "type" : "double",
                              "defaultValue" : 0.0,
                              "interp" : "eioe"
                            },
                            "cursorScale" : {
                              "type" : "double",
                              "defaultValue" : 0.0,
                              "interp" : "linr"
                            },
                            "cursorOpacity" : {
                              "type" : "double",
                              "defaultValue" : 0.0,
                              "interp" : "linr"
                            },
                            "cursorTrackLevel" : {
                              "type" : "double",
                              "defaultValue" : 0.0,
                              "interp" : "linr"
                            },
                            "smoothCursorAcrossEditDuration" : 0
                          },
                          "effects" : [

                          ],
                          "start" : 1618669920000,
                          "duration" : 423830400002,
                          "mediaStart" : 2620904159998,
                          "mediaDuration" : 423830400002,
                          "scalar" : 1,
                          "metadata" : {
                            "AutoAppliedSmartFocus" : "False",
                            "audiateLinkedSession" : "",
                            "clipSpeedAttribute" : { "type": "bool", "value" : false},
                            "colorAttribute" : { "type": "color", "value" : [ 0, 0, 0, 0]},
                            "default-height" : { "type": "double", "value" : 1036.8},
                            "default-translation0" : { "type": "double", "value" : 0.0},
                            "default-translation1" : { "type": "double", "value" : -194.4},
                            "default-translation2" : { "type": "double", "value" : 0.0},
                            "default-width" : { "type": "double", "value" : 1932.67572815534}
                          },
                          "animationTracks" : {

                          }
                        },
                        {
                          "id" : 630,
                          "_type" : "ScreenVMFile",
                          "src" : 2,
                          "trackNumber" : 0,
                          "attributes" : {
                            "ident" : "Rec 4-22-2025-8-51-30-PM"
                          },
                          "parameters" : {
                            "geometryCrop0" : {
                              "type" : "double",
                              "defaultValue" : 0.0,
                              "interp" : "eioe"
                            },
                            "geometryCrop1" : {
                              "type" : "double",
                              "defaultValue" : 0.0,
                              "interp" : "eioe"
                            },
                            "geometryCrop2" : {
                              "type" : "double",
                              "defaultValue" : 0.0,
                              "interp" : "eioe"
                            },
                            "geometryCrop3" : {
                              "type" : "double",
                              "defaultValue" : 0.0,
                              "interp" : "eioe"
                            },
                            "cursorScale" : {
                              "type" : "double",
                              "defaultValue" : 0.0,
                              "interp" : "linr"
                            },
                            "cursorOpacity" : {
                              "type" : "double",
                              "defaultValue" : 0.0,
                              "interp" : "linr"
                            },
                            "cursorTrackLevel" : {
                              "type" : "double",
                              "defaultValue" : 0.0,
                              "interp" : "linr"
                            },
                            "smoothCursorAcrossEditDuration" : 0
                          },
                          "effects" : [

                          ],
                          "start" : 2042500320002,
                          "duration" : 20768160000,
                          "mediaStart" : 3047580480000,
                          "mediaDuration" : 20768160000,
                          "scalar" : 1,
                          "metadata" : {
                            "AutoAppliedSmartFocus" : "False",
                            "audiateLinkedSession" : "",
                            "clipSpeedAttribute" : { "type": "bool", "value" : false},
                            "colorAttribute" : { "type": "color", "value" : [ 0, 0, 0, 0]},
                            "default-height" : { "type": "double", "value" : 1036.8},
                            "default-translation0" : { "type": "double", "value" : 0.0},
                            "default-translation1" : { "type": "double", "value" : -194.4},
                            "default-translation2" : { "type": "double", "value" : 0.0},
                            "default-width" : { "type": "double", "value" : 1932.67572815534}
                          },
                          "animationTracks" : {

                          }
                        },
                        {
                          "id" : 631,
                          "_type" : "ScreenVMFile",
                          "src" : 2,
                          "trackNumber" : 0,
                          "attributes" : {
                            "ident" : "Rec 4-22-2025-8-51-30-PM"
                          },
                          "parameters" : {
                            "geometryCrop0" : {
                              "type" : "double",
                              "defaultValue" : 0.0,
                              "interp" : "eioe"
                            },
                            "geometryCrop1" : {
                              "type" : "double",
                              "defaultValue" : 0.0,
                              "interp" : "eioe"
                            },
                            "geometryCrop2" : {
                              "type" : "double",
                              "defaultValue" : 0.0,
                              "interp" : "eioe"
                            },
                            "geometryCrop3" : {
                              "type" : "double",
                              "defaultValue" : 0.0,
                              "interp" : "eioe"
                            },
                            "cursorScale" : {
                              "type" : "double",
                              "defaultValue" : 0.0,
                              "interp" : "linr"
                            },
                            "cursorOpacity" : {
                              "type" : "double",
                              "defaultValue" : 0.0,
                              "interp" : "linr"
                            },
                            "cursorTrackLevel" : {
                              "type" : "double",
                              "defaultValue" : 0.0,
                              "interp" : "linr"
                            },
                            "smoothCursorAcrossEditDuration" : 0
                          },
                          "effects" : [

                          ],
                          "start" : 2063268480002,
                          "duration" : 343039200000,
                          "mediaStart" : 3138932160000,
                          "mediaDuration" : 343039200000,
                          "scalar" : 1,
                          "metadata" : {
                            "AutoAppliedSmartFocus" : "False",
                            "audiateLinkedSession" : "",
                            "clipSpeedAttribute" : { "type": "bool", "value" : false},
                            "colorAttribute" : { "type": "color", "value" : [ 0, 0, 0, 0]},
                            "default-height" : { "type": "double", "value" : 1036.8},
                            "default-translation0" : { "type": "double", "value" : 0.0},
                            "default-translation1" : { "type": "double", "value" : -194.4},
                            "default-translation2" : { "type": "double", "value" : 0.0},
                            "default-width" : { "type": "double", "value" : 1932.67572815534}
                          },
                          "animationTracks" : {

                          }
                        }
                    ],
                    "effects" : [
                        {
                          "effectName" : "CursorColor",
                          "bypassed" : false,
                          "category" : "categoryCursorEffects",
                          "parameters" : {
                            "intensity" : 1.0,
                            "desaturation" : 0.0,
                            "colorLumaCutoff" : 1.0,
                            "color-alpha" : 1.0,
                            "color-red" : 1.0,
                            "color-green" : 0.8980392157,
                            "color-blue" : 0.1215686275,
                            "secondColor-red" : 0.0,
                            "secondColor-green" : 0.0,
                            "secondColor-blue" : 0.0,
                            "secondColor-alpha" : 1.0,
                            "secondColorLumaCutoff" : 0.0,
                            "channel" : 0,
                            "shadowRampStart" : 0.0,
                            "shadowRampEnd" : 0.0,
                            "highlightRampStart" : 1.0,
                            "highlightRampEnd" : 1.0
                          }
                        },
                        {
                          "effectName" : "CursorShadow",
                          "bypassed" : false,
                          "category" : "categoryCursorEffects",
                          "parameters" : {
                            "angle" : 3.92699081698724,
                            "enabled" : 1,
                            "offset" : 5.0,
                            "blur" : 2.0,
                            "opacity" : 0.25,
                            "color-red" : 0.0,
                            "color-green" : 0.0,
                            "color-blue" : 0.0,
                            "color-alpha" : 1.0
                          }
                        },
                        {
                          "effectName" : "CursorHilight",
                          "bypassed" : false,
                          "category" : "categoryCursorEffects",
                          "parameters" : {
                            "radius" : 50.0,
                            "color-red" : 1.0,
                            "color-green" : 1.0,
                            "color-blue" : 0.0,
                            "color-alpha" : 0.75,
                            "blur" : 0.1
                          }
                        }
                    ],
                    "start" : 126443520000,
                    "duration" : 7761600000,
                    "mediaStart" : 1596208320000,
                    "mediaDuration" : "7597830239952/143",
                    "scalar" : "7761600000/53131679999",
                    "metadata" : {
                      "AutoAppliedSmartFocus" : "False",
                      "audiateLinkedSession" : "",
                      "clipSpeedAttribute" : { "type": "bool", "value" : true},
                      "colorAttribute" : { "type": "color", "value" : [ 0, 0, 0, 0]},
                      "default-height" : { "type": "double", "value" : 1036.8},
                      "default-translation0" : { "type": "double", "value" : 0.0},
                      "default-translation1" : { "type": "double", "value" : -194.4},
                      "default-translation2" : { "type": "double", "value" : 0.0},
                      "default-width" : { "type": "double", "value" : 1932.67572815534}
                    },
                    "animationTracks" : {

                    }
                  },
                  {
                    "id" : 632,
                    "_type" : "StitchedMedia",
                    "minMediaStart" : 0,
                    "attributes" : {
                      "ident" : "Rec 4-22-2025-8-51-30-PM",
                      "gain" : 1.0,
                      "mixToMono" : false,
                      "loudnessNormalization" : true,
                      "sourceFileOffset" : 0
                    },
                    "parameters" : {
                      "translation0" : 6.33786407766917,
                      "translation1" : -2.8421709430404e-14,
                      "scale0" : 0.503300970873786,
                      "scale1" : 0.503300970873786,
                      "geometryCrop0" : 0.0,
                      "geometryCrop1" : 0.0,
                      "geometryCrop2" : 0.0,
                      "geometryCrop3" : 0.0,
                      "toc" : {
                        "type" : "string",
                        "keyframes" : [
                          {
                            "endTime" : 1649340000000,
                            "time" : 1649340000000,
                            "value" : "Finish unit test",
                            "duration" : 0,
                            "metadata" : {
                              "markerIdentifier" : "8DF780A0-6929-4F83-9F25-E7240B139F14"
                            }
                          }
                        ]
                      },
                      "cursorOpacity" : 1.0,
                      "cursorTrackLevel" : 0.0,
                      "cursorScale" : 5.0,
                      "smoothCursorAcrossEditDuration" : 0
                    },
                    "medias" : [
                        {
                          "id" : 633,
                          "_type" : "ScreenVMFile",
                          "src" : 2,
                          "trackNumber" : 0,
                          "attributes" : {
                            "ident" : "Rec 4-22-2025-8-51-30-PM"
                          },
                          "parameters" : {
                            "geometryCrop0" : {
                              "type" : "double",
                              "defaultValue" : 0.0,
                              "interp" : "eioe"
                            },
                            "geometryCrop1" : {
                              "type" : "double",
                              "defaultValue" : 0.0,
                              "interp" : "eioe"
                            },
                            "geometryCrop2" : {
                              "type" : "double",
                              "defaultValue" : 0.0,
                              "interp" : "eioe"
                            },
                            "geometryCrop3" : {
                              "type" : "double",
                              "defaultValue" : 0.0,
                              "interp" : "eioe"
                            },
                            "cursorScale" : {
                              "type" : "double",
                              "defaultValue" : 0.0,
                              "interp" : "linr"
                            },
                            "cursorOpacity" : {
                              "type" : "double",
                              "defaultValue" : 0.0,
                              "interp" : "linr"
                            },
                            "cursorTrackLevel" : {
                              "type" : "double",
                              "defaultValue" : 0.0,
                              "interp" : "linr"
                            },
                            "smoothCursorAcrossEditDuration" : 0
                          },
                          "effects" : [

                          ],
                          "start" : 0,
                          "duration" : 50991360000,
                          "mediaStart" : 0,
                          "mediaDuration" : 50991360000,
                          "scalar" : 1,
                          "metadata" : {
                            "AutoAppliedSmartFocus" : "False",
                            "audiateLinkedSession" : "",
                            "clipSpeedAttribute" : { "type": "bool", "value" : false},
                            "colorAttribute" : { "type": "color", "value" : [ 0, 0, 0, 0]},
                            "default-height" : { "type": "double", "value" : 1036.8},
                            "default-translation0" : { "type": "double", "value" : 0.0},
                            "default-translation1" : { "type": "double", "value" : -194.4},
                            "default-translation2" : { "type": "double", "value" : 0.0},
                            "default-width" : { "type": "double", "value" : 1932.67572815534}
                          },
                          "animationTracks" : {

                          }
                        },
                        {
                          "id" : 634,
                          "_type" : "ScreenVMFile",
                          "src" : 2,
                          "trackNumber" : 0,
                          "attributes" : {
                            "ident" : "Rec 4-22-2025-8-51-30-PM"
                          },
                          "parameters" : {
                            "geometryCrop0" : {
                              "type" : "double",
                              "defaultValue" : 0.0,
                              "interp" : "eioe"
                            },
                            "geometryCrop1" : {
                              "type" : "double",
                              "defaultValue" : 0.0,
                              "interp" : "eioe"
                            },
                            "geometryCrop2" : {
                              "type" : "double",
                              "defaultValue" : 0.0,
                              "interp" : "eioe"
                            },
                            "geometryCrop3" : {
                              "type" : "double",
                              "defaultValue" : 0.0,
                              "interp" : "eioe"
                            },
                            "cursorScale" : {
                              "type" : "double",
                              "defaultValue" : 0.0,
                              "interp" : "linr"
                            },
                            "cursorOpacity" : {
                              "type" : "double",
                              "defaultValue" : 0.0,
                              "interp" : "linr"
                            },
                            "cursorTrackLevel" : {
                              "type" : "double",
                              "defaultValue" : 0.0,
                              "interp" : "linr"
                            },
                            "smoothCursorAcrossEditDuration" : 0
                          },
                          "effects" : [

                          ],
                          "start" : 50991360000,
                          "duration" : 46663680000,
                          "mediaStart" : 66467520000,
                          "mediaDuration" : 46663680000,
                          "scalar" : 1,
                          "metadata" : {
                            "AutoAppliedSmartFocus" : "False",
                            "audiateLinkedSession" : "",
                            "clipSpeedAttribute" : { "type": "bool", "value" : false},
                            "colorAttribute" : { "type": "color", "value" : [ 0, 0, 0, 0]},
                            "default-height" : { "type": "double", "value" : 1036.8},
                            "default-translation0" : { "type": "double", "value" : 0.0},
                            "default-translation1" : { "type": "double", "value" : -194.4},
                            "default-translation2" : { "type": "double", "value" : 0.0},
                            "default-width" : { "type": "double", "value" : 1932.67572815534}
                          },
                          "animationTracks" : {

                          }
                        },
                        {
                          "id" : 635,
                          "_type" : "ScreenVMFile",
                          "src" : 2,
                          "trackNumber" : 0,
                          "attributes" : {
                            "ident" : "Rec 4-22-2025-8-51-30-PM"
                          },
                          "parameters" : {
                            "geometryCrop0" : {
                              "type" : "double",
                              "defaultValue" : 0.0,
                              "interp" : "eioe"
                            },
                            "geometryCrop1" : {
                              "type" : "double",
                              "defaultValue" : 0.0,
                              "interp" : "eioe"
                            },
                            "geometryCrop2" : {
                              "type" : "double",
                              "defaultValue" : 0.0,
                              "interp" : "eioe"
                            },
                            "geometryCrop3" : {
                              "type" : "double",
                              "defaultValue" : 0.0,
                              "interp" : "eioe"
                            },
                            "cursorScale" : {
                              "type" : "double",
                              "defaultValue" : 0.0,
                              "interp" : "linr"
                            },
                            "cursorOpacity" : {
                              "type" : "double",
                              "defaultValue" : 0.0,
                              "interp" : "linr"
                            },
                            "cursorTrackLevel" : {
                              "type" : "double",
                              "defaultValue" : 0.0,
                              "interp" : "linr"
                            },
                            "smoothCursorAcrossEditDuration" : 0
                          },
                          "effects" : [

                          ],
                          "start" : 97655040000,
                          "duration" : 352282560000,
                          "mediaStart" : 149352000000,
                          "mediaDuration" : 352282560000,
                          "scalar" : 1,
                          "metadata" : {
                            "AutoAppliedSmartFocus" : "False",
                            "audiateLinkedSession" : "",
                            "clipSpeedAttribute" : { "type": "bool", "value" : false},
                            "colorAttribute" : { "type": "color", "value" : [ 0, 0, 0, 0]},
                            "default-height" : { "type": "double", "value" : 1036.8},
                            "default-translation0" : { "type": "double", "value" : 0.0},
                            "default-translation1" : { "type": "double", "value" : -194.4},
                            "default-translation2" : { "type": "double", "value" : 0.0},
                            "default-width" : { "type": "double", "value" : 1932.67572815534}
                          },
                          "animationTracks" : {

                          }
                        },
                        {
                          "id" : 636,
                          "_type" : "ScreenVMFile",
                          "src" : 2,
                          "trackNumber" : 0,
                          "attributes" : {
                            "ident" : "Rec 4-22-2025-8-51-30-PM"
                          },
                          "parameters" : {
                            "geometryCrop0" : {
                              "type" : "double",
                              "defaultValue" : 0.0,
                              "interp" : "eioe"
                            },
                            "geometryCrop1" : {
                              "type" : "double",
                              "defaultValue" : 0.0,
                              "interp" : "eioe"
                            },
                            "geometryCrop2" : {
                              "type" : "double",
                              "defaultValue" : 0.0,
                              "interp" : "eioe"
                            },
                            "geometryCrop3" : {
                              "type" : "double",
                              "defaultValue" : 0.0,
                              "interp" : "eioe"
                            },
                            "cursorScale" : {
                              "type" : "double",
                              "defaultValue" : 0.0,
                              "interp" : "linr"
                            },
                            "cursorOpacity" : {
                              "type" : "double",
                              "defaultValue" : 0.0,
                              "interp" : "linr"
                            },
                            "cursorTrackLevel" : {
                              "type" : "double",
                              "defaultValue" : 0.0,
                              "interp" : "linr"
                            },
                            "smoothCursorAcrossEditDuration" : 0
                          },
                          "effects" : [

                          ],
                          "start" : 449937600000,
                          "duration" : 8961120000,
                          "mediaStart" : 509843040000,
                          "mediaDuration" : 8961120000,
                          "scalar" : 1,
                          "metadata" : {
                            "AutoAppliedSmartFocus" : "False",
                            "audiateLinkedSession" : "",
                            "clipSpeedAttribute" : { "type": "bool", "value" : false},
                            "colorAttribute" : { "type": "color", "value" : [ 0, 0, 0, 0]},
                            "default-height" : { "type": "double", "value" : 1036.8},
                            "default-translation0" : { "type": "double", "value" : 0.0},
                            "default-translation1" : { "type": "double", "value" : -194.4},
                            "default-translation2" : { "type": "double", "value" : 0.0},
                            "default-width" : { "type": "double", "value" : 1932.67572815534}
                          },
                          "animationTracks" : {

                          }
                        },
                        {
                          "id" : 637,
                          "_type" : "ScreenVMFile",
                          "src" : 2,
                          "trackNumber" : 0,
                          "attributes" : {
                            "ident" : "Rec 4-22-2025-8-51-30-PM"
                          },
                          "parameters" : {
                            "geometryCrop0" : {
                              "type" : "double",
                              "defaultValue" : 0.0,
                              "interp" : "eioe"
                            },
                            "geometryCrop1" : {
                              "type" : "double",
                              "defaultValue" : 0.0,
                              "interp" : "eioe"
                            },
                            "geometryCrop2" : {
                              "type" : "double",
                              "defaultValue" : 0.0,
                              "interp" : "eioe"
                            },
                            "geometryCrop3" : {
                              "type" : "double",
                              "defaultValue" : 0.0,
                              "interp" : "eioe"
                            },
                            "cursorScale" : {
                              "type" : "double",
                              "defaultValue" : 0.0,
                              "interp" : "linr"
                            },
                            "cursorOpacity" : {
                              "type" : "double",
                              "defaultValue" : 0.0,
                              "interp" : "linr"
                            },
                            "cursorTrackLevel" : {
                              "type" : "double",
                              "defaultValue" : 0.0,
                              "interp" : "linr"
                            },
                            "smoothCursorAcrossEditDuration" : 0
                          },
                          "effects" : [

                          ],
                          "start" : 458898720000,
                          "duration" : 581226240000,
                          "mediaStart" : 1416350880000,
                          "mediaDuration" : 581226240000,
                          "scalar" : 1,
                          "metadata" : {
                            "AutoAppliedSmartFocus" : "False",
                            "audiateLinkedSession" : "",
                            "clipSpeedAttribute" : { "type": "bool", "value" : false},
                            "colorAttribute" : { "type": "color", "value" : [ 0, 0, 0, 0]},
                            "default-height" : { "type": "double", "value" : 1036.8},
                            "default-translation0" : { "type": "double", "value" : 0.0},
                            "default-translation1" : { "type": "double", "value" : -194.4},
                            "default-translation2" : { "type": "double", "value" : 0.0},
                            "default-width" : { "type": "double", "value" : 1932.67572815534}
                          },
                          "animationTracks" : {

                          }
                        },
                        {
                          "id" : 638,
                          "_type" : "ScreenVMFile",
                          "src" : 2,
                          "trackNumber" : 0,
                          "attributes" : {
                            "ident" : "Rec 4-22-2025-8-51-30-PM"
                          },
                          "parameters" : {
                            "geometryCrop0" : {
                              "type" : "double",
                              "defaultValue" : 0.0,
                              "interp" : "eioe"
                            },
                            "geometryCrop1" : {
                              "type" : "double",
                              "defaultValue" : 0.0,
                              "interp" : "eioe"
                            },
                            "geometryCrop2" : {
                              "type" : "double",
                              "defaultValue" : 0.0,
                              "interp" : "eioe"
                            },
                            "geometryCrop3" : {
                              "type" : "double",
                              "defaultValue" : 0.0,
                              "interp" : "eioe"
                            },
                            "cursorScale" : {
                              "type" : "double",
                              "defaultValue" : 0.0,
                              "interp" : "linr"
                            },
                            "cursorOpacity" : {
                              "type" : "double",
                              "defaultValue" : 0.0,
                              "interp" : "linr"
                            },
                            "cursorTrackLevel" : {
                              "type" : "double",
                              "defaultValue" : 0.0,
                              "interp" : "linr"
                            },
                            "smoothCursorAcrossEditDuration" : 0
                          },
                          "effects" : [

                          ],
                          "start" : 1040124960000,
                          "duration" : 215419680000,
                          "mediaStart" : 2018886240000,
                          "mediaDuration" : 215419680000,
                          "scalar" : 1,
                          "metadata" : {
                            "AutoAppliedSmartFocus" : "False",
                            "audiateLinkedSession" : "",
                            "clipSpeedAttribute" : { "type": "bool", "value" : false},
                            "colorAttribute" : { "type": "color", "value" : [ 0, 0, 0, 0]},
                            "default-height" : { "type": "double", "value" : 1036.8},
                            "default-translation0" : { "type": "double", "value" : 0.0},
                            "default-translation1" : { "type": "double", "value" : -194.4},
                            "default-translation2" : { "type": "double", "value" : 0.0},
                            "default-width" : { "type": "double", "value" : 1932.67572815534}
                          },
                          "animationTracks" : {

                          }
                        },
                        {
                          "id" : 639,
                          "_type" : "ScreenVMFile",
                          "src" : 2,
                          "trackNumber" : 0,
                          "attributes" : {
                            "ident" : "Rec 4-22-2025-8-51-30-PM"
                          },
                          "parameters" : {
                            "geometryCrop0" : {
                              "type" : "double",
                              "defaultValue" : 0.0,
                              "interp" : "eioe"
                            },
                            "geometryCrop1" : {
                              "type" : "double",
                              "defaultValue" : 0.0,
                              "interp" : "eioe"
                            },
                            "geometryCrop2" : {
                              "type" : "double",
                              "defaultValue" : 0.0,
                              "interp" : "eioe"
                            },
                            "geometryCrop3" : {
                              "type" : "double",
                              "defaultValue" : 0.0,
                              "interp" : "eioe"
                            },
                            "cursorScale" : {
                              "type" : "double",
                              "defaultValue" : 0.0,
                              "interp" : "linr"
                            },
                            "cursorOpacity" : {
                              "type" : "double",
                              "defaultValue" : 0.0,
                              "interp" : "linr"
                            },
                            "cursorTrackLevel" : {
                              "type" : "double",
                              "defaultValue" : 0.0,
                              "interp" : "linr"
                            },
                            "smoothCursorAcrossEditDuration" : 0
                          },
                          "effects" : [

                          ],
                          "start" : 1255544640000,
                          "duration" : 786955680000,
                          "mediaStart" : 2257778880000,
                          "mediaDuration" : 786955680000,
                          "scalar" : 1,
                          "metadata" : {
                            "AutoAppliedSmartFocus" : "False",
                            "audiateLinkedSession" : "",
                            "clipSpeedAttribute" : { "type": "bool", "value" : false},
                            "colorAttribute" : { "type": "color", "value" : [ 0, 0, 0, 0]},
                            "default-height" : { "type": "double", "value" : 1036.8},
                            "default-translation0" : { "type": "double", "value" : 0.0},
                            "default-translation1" : { "type": "double", "value" : -194.4},
                            "default-translation2" : { "type": "double", "value" : 0.0},
                            "default-width" : { "type": "double", "value" : 1932.67572815534}
                          },
                          "animationTracks" : {

                          }
                        },
                        {
                          "id" : 640,
                          "_type" : "ScreenVMFile",
                          "src" : 2,
                          "trackNumber" : 0,
                          "attributes" : {
                            "ident" : "Rec 4-22-2025-8-51-30-PM"
                          },
                          "parameters" : {
                            "geometryCrop0" : {
                              "type" : "double",
                              "defaultValue" : 0.0,
                              "interp" : "eioe"
                            },
                            "geometryCrop1" : {
                              "type" : "double",
                              "defaultValue" : 0.0,
                              "interp" : "eioe"
                            },
                            "geometryCrop2" : {
                              "type" : "double",
                              "defaultValue" : 0.0,
                              "interp" : "eioe"
                            },
                            "geometryCrop3" : {
                              "type" : "double",
                              "defaultValue" : 0.0,
                              "interp" : "eioe"
                            },
                            "cursorScale" : {
                              "type" : "double",
                              "defaultValue" : 0.0,
                              "interp" : "linr"
                            },
                            "cursorOpacity" : {
                              "type" : "double",
                              "defaultValue" : 0.0,
                              "interp" : "linr"
                            },
                            "cursorTrackLevel" : {
                              "type" : "double",
                              "defaultValue" : 0.0,
                              "interp" : "linr"
                            },
                            "smoothCursorAcrossEditDuration" : 0
                          },
                          "effects" : [

                          ],
                          "start" : 2042500320000,
                          "duration" : 20768160000,
                          "mediaStart" : 3047580480000,
                          "mediaDuration" : 20768160000,
                          "scalar" : 1,
                          "metadata" : {
                            "AutoAppliedSmartFocus" : "False",
                            "audiateLinkedSession" : "",
                            "clipSpeedAttribute" : { "type": "bool", "value" : false},
                            "colorAttribute" : { "type": "color", "value" : [ 0, 0, 0, 0]},
                            "default-height" : { "type": "double", "value" : 1036.8},
                            "default-translation0" : { "type": "double", "value" : 0.0},
                            "default-translation1" : { "type": "double", "value" : -194.4},
                            "default-translation2" : { "type": "double", "value" : 0.0},
                            "default-width" : { "type": "double", "value" : 1932.67572815534}
                          },
                          "animationTracks" : {

                          }
                        },
                        {
                          "id" : 641,
                          "_type" : "ScreenVMFile",
                          "src" : 2,
                          "trackNumber" : 0,
                          "attributes" : {
                            "ident" : "Rec 4-22-2025-8-51-30-PM"
                          },
                          "parameters" : {
                            "geometryCrop0" : {
                              "type" : "double",
                              "defaultValue" : 0.0,
                              "interp" : "eioe"
                            },
                            "geometryCrop1" : {
                              "type" : "double",
                              "defaultValue" : 0.0,
                              "interp" : "eioe"
                            },
                            "geometryCrop2" : {
                              "type" : "double",
                              "defaultValue" : 0.0,
                              "interp" : "eioe"
                            },
                            "geometryCrop3" : {
                              "type" : "double",
                              "defaultValue" : 0.0,
                              "interp" : "eioe"
                            },
                            "cursorScale" : {
                              "type" : "double",
                              "defaultValue" : 0.0,
                              "interp" : "linr"
                            },
                            "cursorOpacity" : {
                              "type" : "double",
                              "defaultValue" : 0.0,
                              "interp" : "linr"
                            },
                            "cursorTrackLevel" : {
                              "type" : "double",
                              "defaultValue" : 0.0,
                              "interp" : "linr"
                            },
                            "smoothCursorAcrossEditDuration" : 0
                          },
                          "effects" : [

                          ],
                          "start" : 2063268480000,
                          "duration" : 343039200000,
                          "mediaStart" : 3138932160000,
                          "mediaDuration" : 343039200000,
                          "scalar" : 1,
                          "metadata" : {
                            "AutoAppliedSmartFocus" : "False",
                            "audiateLinkedSession" : "",
                            "clipSpeedAttribute" : { "type": "bool", "value" : false},
                            "colorAttribute" : { "type": "color", "value" : [ 0, 0, 0, 0]},
                            "default-height" : { "type": "double", "value" : 1036.8},
                            "default-translation0" : { "type": "double", "value" : 0.0},
                            "default-translation1" : { "type": "double", "value" : -194.4},
                            "default-translation2" : { "type": "double", "value" : 0.0},
                            "default-width" : { "type": "double", "value" : 1932.67572815534}
                          },
                          "animationTracks" : {

                          }
                        }
                    ],
                    "effects" : [
                        {
                          "effectName" : "CursorColor",
                          "bypassed" : false,
                          "category" : "categoryCursorEffects",
                          "parameters" : {
                            "intensity" : 1.0,
                            "desaturation" : 0.0,
                            "colorLumaCutoff" : 1.0,
                            "color-alpha" : 1.0,
                            "color-red" : 1.0,
                            "color-green" : 0.8980392157,
                            "color-blue" : 0.1215686275,
                            "secondColor-red" : 0.0,
                            "secondColor-green" : 0.0,
                            "secondColor-blue" : 0.0,
                            "secondColor-alpha" : 1.0,
                            "secondColorLumaCutoff" : 0.0,
                            "channel" : 0,
                            "shadowRampStart" : 0.0,
                            "shadowRampEnd" : 0.0,
                            "highlightRampStart" : 1.0,
                            "highlightRampEnd" : 1.0
                          }
                        },
                        {
                          "effectName" : "CursorShadow",
                          "bypassed" : false,
                          "category" : "categoryCursorEffects",
                          "parameters" : {
                            "angle" : 3.92699081698724,
                            "enabled" : 1,
                            "offset" : 5.0,
                            "blur" : 2.0,
                            "opacity" : 0.25,
                            "color-red" : 0.0,
                            "color-green" : 0.0,
                            "color-blue" : 0.0,
                            "color-alpha" : 1.0
                          }
                        },
                        {
                          "effectName" : "CursorHilight",
                          "bypassed" : false,
                          "category" : "categoryCursorEffects",
                          "parameters" : {
                            "radius" : 50.0,
                            "color-red" : 1.0,
                            "color-green" : 1.0,
                            "color-blue" : 0.0,
                            "color-alpha" : 0.75,
                            "blur" : 0.1
                          }
                        }
                    ],
                    "start" : 134205120000,
                    "duration" : 1034880000,
                    "mediaStart" : 1649340000000,
                    "mediaDuration" : 1834560000,
                    "scalar" : "22/39",
                    "metadata" : {
                      "AutoAppliedSmartFocus" : "False",
                      "audiateLinkedSession" : "",
                      "clipSpeedAttribute" : { "type": "bool", "value" : true},
                      "colorAttribute" : { "type": "color", "value" : [ 0, 0, 0, 0]},
                      "default-height" : { "type": "double", "value" : 1036.8},
                      "default-translation0" : { "type": "double", "value" : 0.0},
                      "default-translation1" : { "type": "double", "value" : -194.4},
                      "default-translation2" : { "type": "double", "value" : 0.0},
                      "default-width" : { "type": "double", "value" : 1932.67572815534}
                    },
                    "animationTracks" : {

                    }
                  },
                  {
                    "id" : 642,
                    "_type" : "StitchedMedia",
                    "minMediaStart" : 0,
                    "attributes" : {
                      "ident" : "Rec 4-22-2025-8-51-30-PM",
                      "gain" : 1.0,
                      "mixToMono" : false,
                      "loudnessNormalization" : true,
                      "sourceFileOffset" : 0
                    },
                    "parameters" : {
                      "translation0" : 6.33786407766917,
                      "translation1" : -2.8421709430404e-14,
                      "scale0" : 0.503300970873786,
                      "scale1" : 0.503300970873786,
                      "geometryCrop0" : 0.0,
                      "geometryCrop1" : 0.0,
                      "geometryCrop2" : 0.0,
                      "geometryCrop3" : 0.0,
                      "toc" : {
                        "type" : "string",
                        "keyframes" : [
                          {
                            "endTime" : 1662393600000,
                            "time" : 1662393600000,
                            "value" : "Click build VI Package",
                            "duration" : 0,
                            "metadata" : {
                              "markerIdentifier" : "DB3048E3-0709-4E1C-B828-E3A7B371DAFB"
                            }
                          }
                        ]
                      },
                      "cursorOpacity" : 1.0,
                      "cursorTrackLevel" : 0.0,
                      "cursorScale" : 5.0,
                      "smoothCursorAcrossEditDuration" : 0
                    },
                    "medias" : [
                        {
                          "id" : 643,
                          "_type" : "ScreenVMFile",
                          "src" : 2,
                          "trackNumber" : 0,
                          "attributes" : {
                            "ident" : "Rec 4-22-2025-8-51-30-PM"
                          },
                          "parameters" : {
                            "geometryCrop0" : {
                              "type" : "double",
                              "defaultValue" : 0.0,
                              "interp" : "eioe"
                            },
                            "geometryCrop1" : {
                              "type" : "double",
                              "defaultValue" : 0.0,
                              "interp" : "eioe"
                            },
                            "geometryCrop2" : {
                              "type" : "double",
                              "defaultValue" : 0.0,
                              "interp" : "eioe"
                            },
                            "geometryCrop3" : {
                              "type" : "double",
                              "defaultValue" : 0.0,
                              "interp" : "eioe"
                            },
                            "cursorScale" : {
                              "type" : "double",
                              "defaultValue" : 0.0,
                              "interp" : "linr"
                            },
                            "cursorOpacity" : {
                              "type" : "double",
                              "defaultValue" : 0.0,
                              "interp" : "linr"
                            },
                            "cursorTrackLevel" : {
                              "type" : "double",
                              "defaultValue" : 0.0,
                              "interp" : "linr"
                            },
                            "smoothCursorAcrossEditDuration" : 0
                          },
                          "effects" : [

                          ],
                          "start" : 0,
                          "duration" : 50991360000,
                          "mediaStart" : 0,
                          "mediaDuration" : 50991360000,
                          "scalar" : 1,
                          "metadata" : {
                            "AutoAppliedSmartFocus" : "False",
                            "audiateLinkedSession" : "",
                            "clipSpeedAttribute" : { "type": "bool", "value" : false},
                            "colorAttribute" : { "type": "color", "value" : [ 0, 0, 0, 0]},
                            "default-height" : { "type": "double", "value" : 1036.8},
                            "default-translation0" : { "type": "double", "value" : 0.0},
                            "default-translation1" : { "type": "double", "value" : -194.4},
                            "default-translation2" : { "type": "double", "value" : 0.0},
                            "default-width" : { "type": "double", "value" : 1932.67572815534}
                          },
                          "animationTracks" : {

                          }
                        },
                        {
                          "id" : 644,
                          "_type" : "ScreenVMFile",
                          "src" : 2,
                          "trackNumber" : 0,
                          "attributes" : {
                            "ident" : "Rec 4-22-2025-8-51-30-PM"
                          },
                          "parameters" : {
                            "geometryCrop0" : {
                              "type" : "double",
                              "defaultValue" : 0.0,
                              "interp" : "eioe"
                            },
                            "geometryCrop1" : {
                              "type" : "double",
                              "defaultValue" : 0.0,
                              "interp" : "eioe"
                            },
                            "geometryCrop2" : {
                              "type" : "double",
                              "defaultValue" : 0.0,
                              "interp" : "eioe"
                            },
                            "geometryCrop3" : {
                              "type" : "double",
                              "defaultValue" : 0.0,
                              "interp" : "eioe"
                            },
                            "cursorScale" : {
                              "type" : "double",
                              "defaultValue" : 0.0,
                              "interp" : "linr"
                            },
                            "cursorOpacity" : {
                              "type" : "double",
                              "defaultValue" : 0.0,
                              "interp" : "linr"
                            },
                            "cursorTrackLevel" : {
                              "type" : "double",
                              "defaultValue" : 0.0,
                              "interp" : "linr"
                            },
                            "smoothCursorAcrossEditDuration" : 0
                          },
                          "effects" : [

                          ],
                          "start" : 50991360000,
                          "duration" : 46663680000,
                          "mediaStart" : 66467520000,
                          "mediaDuration" : 46663680000,
                          "scalar" : 1,
                          "metadata" : {
                            "AutoAppliedSmartFocus" : "False",
                            "audiateLinkedSession" : "",
                            "clipSpeedAttribute" : { "type": "bool", "value" : false},
                            "colorAttribute" : { "type": "color", "value" : [ 0, 0, 0, 0]},
                            "default-height" : { "type": "double", "value" : 1036.8},
                            "default-translation0" : { "type": "double", "value" : 0.0},
                            "default-translation1" : { "type": "double", "value" : -194.4},
                            "default-translation2" : { "type": "double", "value" : 0.0},
                            "default-width" : { "type": "double", "value" : 1932.67572815534}
                          },
                          "animationTracks" : {

                          }
                        },
                        {
                          "id" : 645,
                          "_type" : "ScreenVMFile",
                          "src" : 2,
                          "trackNumber" : 0,
                          "attributes" : {
                            "ident" : "Rec 4-22-2025-8-51-30-PM"
                          },
                          "parameters" : {
                            "geometryCrop0" : {
                              "type" : "double",
                              "defaultValue" : 0.0,
                              "interp" : "eioe"
                            },
                            "geometryCrop1" : {
                              "type" : "double",
                              "defaultValue" : 0.0,
                              "interp" : "eioe"
                            },
                            "geometryCrop2" : {
                              "type" : "double",
                              "defaultValue" : 0.0,
                              "interp" : "eioe"
                            },
                            "geometryCrop3" : {
                              "type" : "double",
                              "defaultValue" : 0.0,
                              "interp" : "eioe"
                            },
                            "cursorScale" : {
                              "type" : "double",
                              "defaultValue" : 0.0,
                              "interp" : "linr"
                            },
                            "cursorOpacity" : {
                              "type" : "double",
                              "defaultValue" : 0.0,
                              "interp" : "linr"
                            },
                            "cursorTrackLevel" : {
                              "type" : "double",
                              "defaultValue" : 0.0,
                              "interp" : "linr"
                            },
                            "smoothCursorAcrossEditDuration" : 0
                          },
                          "effects" : [

                          ],
                          "start" : 97655040000,
                          "duration" : 352282560000,
                          "mediaStart" : 149352000000,
                          "mediaDuration" : 352282560000,
                          "scalar" : 1,
                          "metadata" : {
                            "AutoAppliedSmartFocus" : "False",
                            "audiateLinkedSession" : "",
                            "clipSpeedAttribute" : { "type": "bool", "value" : false},
                            "colorAttribute" : { "type": "color", "value" : [ 0, 0, 0, 0]},
                            "default-height" : { "type": "double", "value" : 1036.8},
                            "default-translation0" : { "type": "double", "value" : 0.0},
                            "default-translation1" : { "type": "double", "value" : -194.4},
                            "default-translation2" : { "type": "double", "value" : 0.0},
                            "default-width" : { "type": "double", "value" : 1932.67572815534}
                          },
                          "animationTracks" : {

                          }
                        },
                        {
                          "id" : 646,
                          "_type" : "ScreenVMFile",
                          "src" : 2,
                          "trackNumber" : 0,
                          "attributes" : {
                            "ident" : "Rec 4-22-2025-8-51-30-PM"
                          },
                          "parameters" : {
                            "geometryCrop0" : {
                              "type" : "double",
                              "defaultValue" : 0.0,
                              "interp" : "eioe"
                            },
                            "geometryCrop1" : {
                              "type" : "double",
                              "defaultValue" : 0.0,
                              "interp" : "eioe"
                            },
                            "geometryCrop2" : {
                              "type" : "double",
                              "defaultValue" : 0.0,
                              "interp" : "eioe"
                            },
                            "geometryCrop3" : {
                              "type" : "double",
                              "defaultValue" : 0.0,
                              "interp" : "eioe"
                            },
                            "cursorScale" : {
                              "type" : "double",
                              "defaultValue" : 0.0,
                              "interp" : "linr"
                            },
                            "cursorOpacity" : {
                              "type" : "double",
                              "defaultValue" : 0.0,
                              "interp" : "linr"
                            },
                            "cursorTrackLevel" : {
                              "type" : "double",
                              "defaultValue" : 0.0,
                              "interp" : "linr"
                            },
                            "smoothCursorAcrossEditDuration" : 0
                          },
                          "effects" : [

                          ],
                          "start" : 449937600000,
                          "duration" : 8961120000,
                          "mediaStart" : 509843040000,
                          "mediaDuration" : 8961120000,
                          "scalar" : 1,
                          "metadata" : {
                            "AutoAppliedSmartFocus" : "False",
                            "audiateLinkedSession" : "",
                            "clipSpeedAttribute" : { "type": "bool", "value" : false},
                            "colorAttribute" : { "type": "color", "value" : [ 0, 0, 0, 0]},
                            "default-height" : { "type": "double", "value" : 1036.8},
                            "default-translation0" : { "type": "double", "value" : 0.0},
                            "default-translation1" : { "type": "double", "value" : -194.4},
                            "default-translation2" : { "type": "double", "value" : 0.0},
                            "default-width" : { "type": "double", "value" : 1932.67572815534}
                          },
                          "animationTracks" : {

                          }
                        },
                        {
                          "id" : 647,
                          "_type" : "ScreenVMFile",
                          "src" : 2,
                          "trackNumber" : 0,
                          "attributes" : {
                            "ident" : "Rec 4-22-2025-8-51-30-PM"
                          },
                          "parameters" : {
                            "geometryCrop0" : {
                              "type" : "double",
                              "defaultValue" : 0.0,
                              "interp" : "eioe"
                            },
                            "geometryCrop1" : {
                              "type" : "double",
                              "defaultValue" : 0.0,
                              "interp" : "eioe"
                            },
                            "geometryCrop2" : {
                              "type" : "double",
                              "defaultValue" : 0.0,
                              "interp" : "eioe"
                            },
                            "geometryCrop3" : {
                              "type" : "double",
                              "defaultValue" : 0.0,
                              "interp" : "eioe"
                            },
                            "cursorScale" : {
                              "type" : "double",
                              "defaultValue" : 0.0,
                              "interp" : "linr"
                            },
                            "cursorOpacity" : {
                              "type" : "double",
                              "defaultValue" : 0.0,
                              "interp" : "linr"
                            },
                            "cursorTrackLevel" : {
                              "type" : "double",
                              "defaultValue" : 0.0,
                              "interp" : "linr"
                            },
                            "smoothCursorAcrossEditDuration" : 0
                          },
                          "effects" : [

                          ],
                          "start" : 458898720000,
                          "duration" : 581226240000,
                          "mediaStart" : 1416350880000,
                          "mediaDuration" : 581226240000,
                          "scalar" : 1,
                          "metadata" : {
                            "AutoAppliedSmartFocus" : "False",
                            "audiateLinkedSession" : "",
                            "clipSpeedAttribute" : { "type": "bool", "value" : false},
                            "colorAttribute" : { "type": "color", "value" : [ 0, 0, 0, 0]},
                            "default-height" : { "type": "double", "value" : 1036.8},
                            "default-translation0" : { "type": "double", "value" : 0.0},
                            "default-translation1" : { "type": "double", "value" : -194.4},
                            "default-translation2" : { "type": "double", "value" : 0.0},
                            "default-width" : { "type": "double", "value" : 1932.67572815534}
                          },
                          "animationTracks" : {

                          }
                        },
                        {
                          "id" : 648,
                          "_type" : "ScreenVMFile",
                          "src" : 2,
                          "trackNumber" : 0,
                          "attributes" : {
                            "ident" : "Rec 4-22-2025-8-51-30-PM"
                          },
                          "parameters" : {
                            "geometryCrop0" : {
                              "type" : "double",
                              "defaultValue" : 0.0,
                              "interp" : "eioe"
                            },
                            "geometryCrop1" : {
                              "type" : "double",
                              "defaultValue" : 0.0,
                              "interp" : "eioe"
                            },
                            "geometryCrop2" : {
                              "type" : "double",
                              "defaultValue" : 0.0,
                              "interp" : "eioe"
                            },
                            "geometryCrop3" : {
                              "type" : "double",
                              "defaultValue" : 0.0,
                              "interp" : "eioe"
                            },
                            "cursorScale" : {
                              "type" : "double",
                              "defaultValue" : 0.0,
                              "interp" : "linr"
                            },
                            "cursorOpacity" : {
                              "type" : "double",
                              "defaultValue" : 0.0,
                              "interp" : "linr"
                            },
                            "cursorTrackLevel" : {
                              "type" : "double",
                              "defaultValue" : 0.0,
                              "interp" : "linr"
                            },
                            "smoothCursorAcrossEditDuration" : 0
                          },
                          "effects" : [

                          ],
                          "start" : 1040124960000,
                          "duration" : 215419680000,
                          "mediaStart" : 2018886240000,
                          "mediaDuration" : 215419680000,
                          "scalar" : 1,
                          "metadata" : {
                            "AutoAppliedSmartFocus" : "False",
                            "audiateLinkedSession" : "",
                            "clipSpeedAttribute" : { "type": "bool", "value" : false},
                            "colorAttribute" : { "type": "color", "value" : [ 0, 0, 0, 0]},
                            "default-height" : { "type": "double", "value" : 1036.8},
                            "default-translation0" : { "type": "double", "value" : 0.0},
                            "default-translation1" : { "type": "double", "value" : -194.4},
                            "default-translation2" : { "type": "double", "value" : 0.0},
                            "default-width" : { "type": "double", "value" : 1932.67572815534}
                          },
                          "animationTracks" : {

                          }
                        },
                        {
                          "id" : 649,
                          "_type" : "ScreenVMFile",
                          "src" : 2,
                          "trackNumber" : 0,
                          "attributes" : {
                            "ident" : "Rec 4-22-2025-8-51-30-PM"
                          },
                          "parameters" : {
                            "geometryCrop0" : {
                              "type" : "double",
                              "defaultValue" : 0.0,
                              "interp" : "eioe"
                            },
                            "geometryCrop1" : {
                              "type" : "double",
                              "defaultValue" : 0.0,
                              "interp" : "eioe"
                            },
                            "geometryCrop2" : {
                              "type" : "double",
                              "defaultValue" : 0.0,
                              "interp" : "eioe"
                            },
                            "geometryCrop3" : {
                              "type" : "double",
                              "defaultValue" : 0.0,
                              "interp" : "eioe"
                            },
                            "cursorScale" : {
                              "type" : "double",
                              "defaultValue" : 0.0,
                              "interp" : "linr"
                            },
                            "cursorOpacity" : {
                              "type" : "double",
                              "defaultValue" : 0.0,
                              "interp" : "linr"
                            },
                            "cursorTrackLevel" : {
                              "type" : "double",
                              "defaultValue" : 0.0,
                              "interp" : "linr"
                            },
                            "smoothCursorAcrossEditDuration" : 0
                          },
                          "effects" : [

                          ],
                          "start" : 1255544640000,
                          "duration" : 786955680000,
                          "mediaStart" : 2257778880000,
                          "mediaDuration" : 786955680000,
                          "scalar" : 1,
                          "metadata" : {
                            "AutoAppliedSmartFocus" : "False",
                            "audiateLinkedSession" : "",
                            "clipSpeedAttribute" : { "type": "bool", "value" : false},
                            "colorAttribute" : { "type": "color", "value" : [ 0, 0, 0, 0]},
                            "default-height" : { "type": "double", "value" : 1036.8},
                            "default-translation0" : { "type": "double", "value" : 0.0},
                            "default-translation1" : { "type": "double", "value" : -194.4},
                            "default-translation2" : { "type": "double", "value" : 0.0},
                            "default-width" : { "type": "double", "value" : 1932.67572815534}
                          },
                          "animationTracks" : {

                          }
                        },
                        {
                          "id" : 650,
                          "_type" : "ScreenVMFile",
                          "src" : 2,
                          "trackNumber" : 0,
                          "attributes" : {
                            "ident" : "Rec 4-22-2025-8-51-30-PM"
                          },
                          "parameters" : {
                            "geometryCrop0" : {
                              "type" : "double",
                              "defaultValue" : 0.0,
                              "interp" : "eioe"
                            },
                            "geometryCrop1" : {
                              "type" : "double",
                              "defaultValue" : 0.0,
                              "interp" : "eioe"
                            },
                            "geometryCrop2" : {
                              "type" : "double",
                              "defaultValue" : 0.0,
                              "interp" : "eioe"
                            },
                            "geometryCrop3" : {
                              "type" : "double",
                              "defaultValue" : 0.0,
                              "interp" : "eioe"
                            },
                            "cursorScale" : {
                              "type" : "double",
                              "defaultValue" : 0.0,
                              "interp" : "linr"
                            },
                            "cursorOpacity" : {
                              "type" : "double",
                              "defaultValue" : 0.0,
                              "interp" : "linr"
                            },
                            "cursorTrackLevel" : {
                              "type" : "double",
                              "defaultValue" : 0.0,
                              "interp" : "linr"
                            },
                            "smoothCursorAcrossEditDuration" : 0
                          },
                          "effects" : [

                          ],
                          "start" : 2042500320000,
                          "duration" : 20768160000,
                          "mediaStart" : 3047580480000,
                          "mediaDuration" : 20768160000,
                          "scalar" : 1,
                          "metadata" : {
                            "AutoAppliedSmartFocus" : "False",
                            "audiateLinkedSession" : "",
                            "clipSpeedAttribute" : { "type": "bool", "value" : false},
                            "colorAttribute" : { "type": "color", "value" : [ 0, 0, 0, 0]},
                            "default-height" : { "type": "double", "value" : 1036.8},
                            "default-translation0" : { "type": "double", "value" : 0.0},
                            "default-translation1" : { "type": "double", "value" : -194.4},
                            "default-translation2" : { "type": "double", "value" : 0.0},
                            "default-width" : { "type": "double", "value" : 1932.67572815534}
                          },
                          "animationTracks" : {

                          }
                        },
                        {
                          "id" : 651,
                          "_type" : "ScreenVMFile",
                          "src" : 2,
                          "trackNumber" : 0,
                          "attributes" : {
                            "ident" : "Rec 4-22-2025-8-51-30-PM"
                          },
                          "parameters" : {
                            "geometryCrop0" : {
                              "type" : "double",
                              "defaultValue" : 0.0,
                              "interp" : "eioe"
                            },
                            "geometryCrop1" : {
                              "type" : "double",
                              "defaultValue" : 0.0,
                              "interp" : "eioe"
                            },
                            "geometryCrop2" : {
                              "type" : "double",
                              "defaultValue" : 0.0,
                              "interp" : "eioe"
                            },
                            "geometryCrop3" : {
                              "type" : "double",
                              "defaultValue" : 0.0,
                              "interp" : "eioe"
                            },
                            "cursorScale" : {
                              "type" : "double",
                              "defaultValue" : 0.0,
                              "interp" : "linr"
                            },
                            "cursorOpacity" : {
                              "type" : "double",
                              "defaultValue" : 0.0,
                              "interp" : "linr"
                            },
                            "cursorTrackLevel" : {
                              "type" : "double",
                              "defaultValue" : 0.0,
                              "interp" : "linr"
                            },
                            "smoothCursorAcrossEditDuration" : 0
                          },
                          "effects" : [

                          ],
                          "start" : 2063268480000,
                          "duration" : 343039200000,
                          "mediaStart" : 3138932160000,
                          "mediaDuration" : 343039200000,
                          "scalar" : 1,
                          "metadata" : {
                            "AutoAppliedSmartFocus" : "False",
                            "audiateLinkedSession" : "",
                            "clipSpeedAttribute" : { "type": "bool", "value" : false},
                            "colorAttribute" : { "type": "color", "value" : [ 0, 0, 0, 0]},
                            "default-height" : { "type": "double", "value" : 1036.8},
                            "default-translation0" : { "type": "double", "value" : 0.0},
                            "default-translation1" : { "type": "double", "value" : -194.4},
                            "default-translation2" : { "type": "double", "value" : 0.0},
                            "default-width" : { "type": "double", "value" : 1932.67572815534}
                          },
                          "animationTracks" : {

                          }
                        }
                    ],
                    "effects" : [
                        {
                          "effectName" : "CursorColor",
                          "bypassed" : false,
                          "category" : "categoryCursorEffects",
                          "parameters" : {
                            "intensity" : 1.0,
                            "desaturation" : 0.0,
                            "colorLumaCutoff" : 1.0,
                            "color-alpha" : 1.0,
                            "color-red" : 1.0,
                            "color-green" : 0.8980392157,
                            "color-blue" : 0.1215686275,
                            "secondColor-red" : 0.0,
                            "secondColor-green" : 0.0,
                            "secondColor-blue" : 0.0,
                            "secondColor-alpha" : 1.0,
                            "secondColorLumaCutoff" : 0.0,
                            "channel" : 0,
                            "shadowRampStart" : 0.0,
                            "shadowRampEnd" : 0.0,
                            "highlightRampStart" : 1.0,
                            "highlightRampEnd" : 1.0
                          }
                        },
                        {
                          "effectName" : "CursorShadow",
                          "bypassed" : false,
                          "category" : "categoryCursorEffects",
                          "parameters" : {
                            "angle" : 3.92699081698724,
                            "enabled" : 1,
                            "offset" : 5.0,
                            "blur" : 2.0,
                            "opacity" : 0.25,
                            "color-red" : 0.0,
                            "color-green" : 0.0,
                            "color-blue" : 0.0,
                            "color-alpha" : 1.0
                          }
                        },
                        {
                          "effectName" : "CursorHilight",
                          "bypassed" : false,
                          "category" : "categoryCursorEffects",
                          "parameters" : {
                            "radius" : 50.0,
                            "color-red" : 1.0,
                            "color-green" : 1.0,
                            "color-blue" : 0.0,
                            "color-alpha" : 0.75,
                            "blur" : 0.1
                          }
                        }
                    ],
                    "start" : 135240000000,
                    "duration" : 893760000,
                    "mediaStart" : 1661570400000,
                    "mediaDuration" : 893760000,
                    "scalar" : 1,
                    "metadata" : {
                      "AutoAppliedSmartFocus" : "False",
                      "audiateLinkedSession" : "",
                      "clipSpeedAttribute" : { "type": "bool", "value" : false},
                      "colorAttribute" : { "type": "color", "value" : [ 0, 0, 0, 0]},
                      "default-height" : { "type": "double", "value" : 1036.8},
                      "default-translation0" : { "type": "double", "value" : 0.0},
                      "default-translation1" : { "type": "double", "value" : -194.4},
                      "default-translation2" : { "type": "double", "value" : 0.0},
                      "default-width" : { "type": "double", "value" : 1932.67572815534}
                    },
                    "animationTracks" : {

                    }
                  },
                  {
                    "id" : 652,
                    "_type" : "StitchedMedia",
                    "minMediaStart" : 0,
                    "attributes" : {
                      "ident" : "Rec 4-22-2025-8-51-30-PM",
                      "gain" : 1.0,
                      "mixToMono" : false,
                      "loudnessNormalization" : true,
                      "sourceFileOffset" : 0
                    },
                    "parameters" : {
                      "translation0" : 6.33786407766917,
                      "translation1" : -2.8421709430404e-14,
                      "scale0" : 0.503300970873786,
                      "scale1" : 0.503300970873786,
                      "geometryCrop0" : 0.0,
                      "geometryCrop1" : 0.0,
                      "geometryCrop2" : 0.0,
                      "geometryCrop3" : 0.0,
                      "cursorOpacity" : 1.0,
                      "cursorTrackLevel" : 0.0,
                      "cursorScale" : 5.0,
                      "smoothCursorAcrossEditDuration" : 0
                    },
                    "medias" : [
                        {
                          "id" : 653,
                          "_type" : "ScreenVMFile",
                          "src" : 2,
                          "trackNumber" : 0,
                          "attributes" : {
                            "ident" : "Rec 4-22-2025-8-51-30-PM"
                          },
                          "parameters" : {
                            "geometryCrop0" : {
                              "type" : "double",
                              "defaultValue" : 0.0,
                              "interp" : "eioe"
                            },
                            "geometryCrop1" : {
                              "type" : "double",
                              "defaultValue" : 0.0,
                              "interp" : "eioe"
                            },
                            "geometryCrop2" : {
                              "type" : "double",
                              "defaultValue" : 0.0,
                              "interp" : "eioe"
                            },
                            "geometryCrop3" : {
                              "type" : "double",
                              "defaultValue" : 0.0,
                              "interp" : "eioe"
                            },
                            "cursorScale" : {
                              "type" : "double",
                              "defaultValue" : 0.0,
                              "interp" : "linr"
                            },
                            "cursorOpacity" : {
                              "type" : "double",
                              "defaultValue" : 0.0,
                              "interp" : "linr"
                            },
                            "cursorTrackLevel" : {
                              "type" : "double",
                              "defaultValue" : 0.0,
                              "interp" : "linr"
                            },
                            "smoothCursorAcrossEditDuration" : 0
                          },
                          "effects" : [

                          ],
                          "start" : 0,
                          "duration" : 50991360000,
                          "mediaStart" : 0,
                          "mediaDuration" : 50991360000,
                          "scalar" : 1,
                          "metadata" : {
                            "AutoAppliedSmartFocus" : "False",
                            "audiateLinkedSession" : "",
                            "clipSpeedAttribute" : { "type": "bool", "value" : false},
                            "colorAttribute" : { "type": "color", "value" : [ 0, 0, 0, 0]},
                            "default-height" : { "type": "double", "value" : 1036.8},
                            "default-translation0" : { "type": "double", "value" : 0.0},
                            "default-translation1" : { "type": "double", "value" : -194.4},
                            "default-translation2" : { "type": "double", "value" : 0.0},
                            "default-width" : { "type": "double", "value" : 1932.67572815534}
                          },
                          "animationTracks" : {

                          }
                        },
                        {
                          "id" : 654,
                          "_type" : "ScreenVMFile",
                          "src" : 2,
                          "trackNumber" : 0,
                          "attributes" : {
                            "ident" : "Rec 4-22-2025-8-51-30-PM"
                          },
                          "parameters" : {
                            "geometryCrop0" : {
                              "type" : "double",
                              "defaultValue" : 0.0,
                              "interp" : "eioe"
                            },
                            "geometryCrop1" : {
                              "type" : "double",
                              "defaultValue" : 0.0,
                              "interp" : "eioe"
                            },
                            "geometryCrop2" : {
                              "type" : "double",
                              "defaultValue" : 0.0,
                              "interp" : "eioe"
                            },
                            "geometryCrop3" : {
                              "type" : "double",
                              "defaultValue" : 0.0,
                              "interp" : "eioe"
                            },
                            "cursorScale" : {
                              "type" : "double",
                              "defaultValue" : 0.0,
                              "interp" : "linr"
                            },
                            "cursorOpacity" : {
                              "type" : "double",
                              "defaultValue" : 0.0,
                              "interp" : "linr"
                            },
                            "cursorTrackLevel" : {
                              "type" : "double",
                              "defaultValue" : 0.0,
                              "interp" : "linr"
                            },
                            "smoothCursorAcrossEditDuration" : 0
                          },
                          "effects" : [

                          ],
                          "start" : 50991360000,
                          "duration" : 46663680000,
                          "mediaStart" : 66467520000,
                          "mediaDuration" : 46663680000,
                          "scalar" : 1,
                          "metadata" : {
                            "AutoAppliedSmartFocus" : "False",
                            "audiateLinkedSession" : "",
                            "clipSpeedAttribute" : { "type": "bool", "value" : false},
                            "colorAttribute" : { "type": "color", "value" : [ 0, 0, 0, 0]},
                            "default-height" : { "type": "double", "value" : 1036.8},
                            "default-translation0" : { "type": "double", "value" : 0.0},
                            "default-translation1" : { "type": "double", "value" : -194.4},
                            "default-translation2" : { "type": "double", "value" : 0.0},
                            "default-width" : { "type": "double", "value" : 1932.67572815534}
                          },
                          "animationTracks" : {

                          }
                        },
                        {
                          "id" : 655,
                          "_type" : "ScreenVMFile",
                          "src" : 2,
                          "trackNumber" : 0,
                          "attributes" : {
                            "ident" : "Rec 4-22-2025-8-51-30-PM"
                          },
                          "parameters" : {
                            "geometryCrop0" : {
                              "type" : "double",
                              "defaultValue" : 0.0,
                              "interp" : "eioe"
                            },
                            "geometryCrop1" : {
                              "type" : "double",
                              "defaultValue" : 0.0,
                              "interp" : "eioe"
                            },
                            "geometryCrop2" : {
                              "type" : "double",
                              "defaultValue" : 0.0,
                              "interp" : "eioe"
                            },
                            "geometryCrop3" : {
                              "type" : "double",
                              "defaultValue" : 0.0,
                              "interp" : "eioe"
                            },
                            "cursorScale" : {
                              "type" : "double",
                              "defaultValue" : 0.0,
                              "interp" : "linr"
                            },
                            "cursorOpacity" : {
                              "type" : "double",
                              "defaultValue" : 0.0,
                              "interp" : "linr"
                            },
                            "cursorTrackLevel" : {
                              "type" : "double",
                              "defaultValue" : 0.0,
                              "interp" : "linr"
                            },
                            "smoothCursorAcrossEditDuration" : 0
                          },
                          "effects" : [

                          ],
                          "start" : 97655040000,
                          "duration" : 352282560000,
                          "mediaStart" : 149352000000,
                          "mediaDuration" : 352282560000,
                          "scalar" : 1,
                          "metadata" : {
                            "AutoAppliedSmartFocus" : "False",
                            "audiateLinkedSession" : "",
                            "clipSpeedAttribute" : { "type": "bool", "value" : false},
                            "colorAttribute" : { "type": "color", "value" : [ 0, 0, 0, 0]},
                            "default-height" : { "type": "double", "value" : 1036.8},
                            "default-translation0" : { "type": "double", "value" : 0.0},
                            "default-translation1" : { "type": "double", "value" : -194.4},
                            "default-translation2" : { "type": "double", "value" : 0.0},
                            "default-width" : { "type": "double", "value" : 1932.67572815534}
                          },
                          "animationTracks" : {

                          }
                        },
                        {
                          "id" : 656,
                          "_type" : "ScreenVMFile",
                          "src" : 2,
                          "trackNumber" : 0,
                          "attributes" : {
                            "ident" : "Rec 4-22-2025-8-51-30-PM"
                          },
                          "parameters" : {
                            "geometryCrop0" : {
                              "type" : "double",
                              "defaultValue" : 0.0,
                              "interp" : "eioe"
                            },
                            "geometryCrop1" : {
                              "type" : "double",
                              "defaultValue" : 0.0,
                              "interp" : "eioe"
                            },
                            "geometryCrop2" : {
                              "type" : "double",
                              "defaultValue" : 0.0,
                              "interp" : "eioe"
                            },
                            "geometryCrop3" : {
                              "type" : "double",
                              "defaultValue" : 0.0,
                              "interp" : "eioe"
                            },
                            "cursorScale" : {
                              "type" : "double",
                              "defaultValue" : 0.0,
                              "interp" : "linr"
                            },
                            "cursorOpacity" : {
                              "type" : "double",
                              "defaultValue" : 0.0,
                              "interp" : "linr"
                            },
                            "cursorTrackLevel" : {
                              "type" : "double",
                              "defaultValue" : 0.0,
                              "interp" : "linr"
                            },
                            "smoothCursorAcrossEditDuration" : 0
                          },
                          "effects" : [

                          ],
                          "start" : 449937600000,
                          "duration" : 8961120000,
                          "mediaStart" : 509843040000,
                          "mediaDuration" : 8961120000,
                          "scalar" : 1,
                          "metadata" : {
                            "AutoAppliedSmartFocus" : "False",
                            "audiateLinkedSession" : "",
                            "clipSpeedAttribute" : { "type": "bool", "value" : false},
                            "colorAttribute" : { "type": "color", "value" : [ 0, 0, 0, 0]},
                            "default-height" : { "type": "double", "value" : 1036.8},
                            "default-translation0" : { "type": "double", "value" : 0.0},
                            "default-translation1" : { "type": "double", "value" : -194.4},
                            "default-translation2" : { "type": "double", "value" : 0.0},
                            "default-width" : { "type": "double", "value" : 1932.67572815534}
                          },
                          "animationTracks" : {

                          }
                        },
                        {
                          "id" : 657,
                          "_type" : "ScreenVMFile",
                          "src" : 2,
                          "trackNumber" : 0,
                          "attributes" : {
                            "ident" : "Rec 4-22-2025-8-51-30-PM"
                          },
                          "parameters" : {
                            "geometryCrop0" : {
                              "type" : "double",
                              "defaultValue" : 0.0,
                              "interp" : "eioe"
                            },
                            "geometryCrop1" : {
                              "type" : "double",
                              "defaultValue" : 0.0,
                              "interp" : "eioe"
                            },
                            "geometryCrop2" : {
                              "type" : "double",
                              "defaultValue" : 0.0,
                              "interp" : "eioe"
                            },
                            "geometryCrop3" : {
                              "type" : "double",
                              "defaultValue" : 0.0,
                              "interp" : "eioe"
                            },
                            "cursorScale" : {
                              "type" : "double",
                              "defaultValue" : 0.0,
                              "interp" : "linr"
                            },
                            "cursorOpacity" : {
                              "type" : "double",
                              "defaultValue" : 0.0,
                              "interp" : "linr"
                            },
                            "cursorTrackLevel" : {
                              "type" : "double",
                              "defaultValue" : 0.0,
                              "interp" : "linr"
                            },
                            "smoothCursorAcrossEditDuration" : 0
                          },
                          "effects" : [

                          ],
                          "start" : 458898720000,
                          "duration" : 581226240000,
                          "mediaStart" : 1416350880000,
                          "mediaDuration" : 581226240000,
                          "scalar" : 1,
                          "metadata" : {
                            "AutoAppliedSmartFocus" : "False",
                            "audiateLinkedSession" : "",
                            "clipSpeedAttribute" : { "type": "bool", "value" : false},
                            "colorAttribute" : { "type": "color", "value" : [ 0, 0, 0, 0]},
                            "default-height" : { "type": "double", "value" : 1036.8},
                            "default-translation0" : { "type": "double", "value" : 0.0},
                            "default-translation1" : { "type": "double", "value" : -194.4},
                            "default-translation2" : { "type": "double", "value" : 0.0},
                            "default-width" : { "type": "double", "value" : 1932.67572815534}
                          },
                          "animationTracks" : {

                          }
                        },
                        {
                          "id" : 658,
                          "_type" : "ScreenVMFile",
                          "src" : 2,
                          "trackNumber" : 0,
                          "attributes" : {
                            "ident" : "Rec 4-22-2025-8-51-30-PM"
                          },
                          "parameters" : {
                            "geometryCrop0" : {
                              "type" : "double",
                              "defaultValue" : 0.0,
                              "interp" : "eioe"
                            },
                            "geometryCrop1" : {
                              "type" : "double",
                              "defaultValue" : 0.0,
                              "interp" : "eioe"
                            },
                            "geometryCrop2" : {
                              "type" : "double",
                              "defaultValue" : 0.0,
                              "interp" : "eioe"
                            },
                            "geometryCrop3" : {
                              "type" : "double",
                              "defaultValue" : 0.0,
                              "interp" : "eioe"
                            },
                            "cursorScale" : {
                              "type" : "double",
                              "defaultValue" : 0.0,
                              "interp" : "linr"
                            },
                            "cursorOpacity" : {
                              "type" : "double",
                              "defaultValue" : 0.0,
                              "interp" : "linr"
                            },
                            "cursorTrackLevel" : {
                              "type" : "double",
                              "defaultValue" : 0.0,
                              "interp" : "linr"
                            },
                            "smoothCursorAcrossEditDuration" : 0
                          },
                          "effects" : [

                          ],
                          "start" : 1040124960000,
                          "duration" : 215419680000,
                          "mediaStart" : 2018886240000,
                          "mediaDuration" : 215419680000,
                          "scalar" : 1,
                          "metadata" : {
                            "AutoAppliedSmartFocus" : "False",
                            "audiateLinkedSession" : "",
                            "clipSpeedAttribute" : { "type": "bool", "value" : false},
                            "colorAttribute" : { "type": "color", "value" : [ 0, 0, 0, 0]},
                            "default-height" : { "type": "double", "value" : 1036.8},
                            "default-translation0" : { "type": "double", "value" : 0.0},
                            "default-translation1" : { "type": "double", "value" : -194.4},
                            "default-translation2" : { "type": "double", "value" : 0.0},
                            "default-width" : { "type": "double", "value" : 1932.67572815534}
                          },
                          "animationTracks" : {

                          }
                        },
                        {
                          "id" : 659,
                          "_type" : "ScreenVMFile",
                          "src" : 2,
                          "trackNumber" : 0,
                          "attributes" : {
                            "ident" : "Rec 4-22-2025-8-51-30-PM"
                          },
                          "parameters" : {
                            "geometryCrop0" : {
                              "type" : "double",
                              "defaultValue" : 0.0,
                              "interp" : "eioe"
                            },
                            "geometryCrop1" : {
                              "type" : "double",
                              "defaultValue" : 0.0,
                              "interp" : "eioe"
                            },
                            "geometryCrop2" : {
                              "type" : "double",
                              "defaultValue" : 0.0,
                              "interp" : "eioe"
                            },
                            "geometryCrop3" : {
                              "type" : "double",
                              "defaultValue" : 0.0,
                              "interp" : "eioe"
                            },
                            "cursorScale" : {
                              "type" : "double",
                              "defaultValue" : 0.0,
                              "interp" : "linr"
                            },
                            "cursorOpacity" : {
                              "type" : "double",
                              "defaultValue" : 0.0,
                              "interp" : "linr"
                            },
                            "cursorTrackLevel" : {
                              "type" : "double",
                              "defaultValue" : 0.0,
                              "interp" : "linr"
                            },
                            "smoothCursorAcrossEditDuration" : 0
                          },
                          "effects" : [

                          ],
                          "start" : 1255544640000,
                          "duration" : 786955680000,
                          "mediaStart" : 2257778880000,
                          "mediaDuration" : 786955680000,
                          "scalar" : 1,
                          "metadata" : {
                            "AutoAppliedSmartFocus" : "False",
                            "audiateLinkedSession" : "",
                            "clipSpeedAttribute" : { "type": "bool", "value" : false},
                            "colorAttribute" : { "type": "color", "value" : [ 0, 0, 0, 0]},
                            "default-height" : { "type": "double", "value" : 1036.8},
                            "default-translation0" : { "type": "double", "value" : 0.0},
                            "default-translation1" : { "type": "double", "value" : -194.4},
                            "default-translation2" : { "type": "double", "value" : 0.0},
                            "default-width" : { "type": "double", "value" : 1932.67572815534}
                          },
                          "animationTracks" : {

                          }
                        },
                        {
                          "id" : 660,
                          "_type" : "ScreenVMFile",
                          "src" : 2,
                          "trackNumber" : 0,
                          "attributes" : {
                            "ident" : "Rec 4-22-2025-8-51-30-PM"
                          },
                          "parameters" : {
                            "geometryCrop0" : {
                              "type" : "double",
                              "defaultValue" : 0.0,
                              "interp" : "eioe"
                            },
                            "geometryCrop1" : {
                              "type" : "double",
                              "defaultValue" : 0.0,
                              "interp" : "eioe"
                            },
                            "geometryCrop2" : {
                              "type" : "double",
                              "defaultValue" : 0.0,
                              "interp" : "eioe"
                            },
                            "geometryCrop3" : {
                              "type" : "double",
                              "defaultValue" : 0.0,
                              "interp" : "eioe"
                            },
                            "cursorScale" : {
                              "type" : "double",
                              "defaultValue" : 0.0,
                              "interp" : "linr"
                            },
                            "cursorOpacity" : {
                              "type" : "double",
                              "defaultValue" : 0.0,
                              "interp" : "linr"
                            },
                            "cursorTrackLevel" : {
                              "type" : "double",
                              "defaultValue" : 0.0,
                              "interp" : "linr"
                            },
                            "smoothCursorAcrossEditDuration" : 0
                          },
                          "effects" : [

                          ],
                          "start" : 2042500320000,
                          "duration" : 20768160000,
                          "mediaStart" : 3047580480000,
                          "mediaDuration" : 20768160000,
                          "scalar" : 1,
                          "metadata" : {
                            "AutoAppliedSmartFocus" : "False",
                            "audiateLinkedSession" : "",
                            "clipSpeedAttribute" : { "type": "bool", "value" : false},
                            "colorAttribute" : { "type": "color", "value" : [ 0, 0, 0, 0]},
                            "default-height" : { "type": "double", "value" : 1036.8},
                            "default-translation0" : { "type": "double", "value" : 0.0},
                            "default-translation1" : { "type": "double", "value" : -194.4},
                            "default-translation2" : { "type": "double", "value" : 0.0},
                            "default-width" : { "type": "double", "value" : 1932.67572815534}
                          },
                          "animationTracks" : {

                          }
                        },
                        {
                          "id" : 661,
                          "_type" : "ScreenVMFile",
                          "src" : 2,
                          "trackNumber" : 0,
                          "attributes" : {
                            "ident" : "Rec 4-22-2025-8-51-30-PM"
                          },
                          "parameters" : {
                            "geometryCrop0" : {
                              "type" : "double",
                              "defaultValue" : 0.0,
                              "interp" : "eioe"
                            },
                            "geometryCrop1" : {
                              "type" : "double",
                              "defaultValue" : 0.0,
                              "interp" : "eioe"
                            },
                            "geometryCrop2" : {
                              "type" : "double",
                              "defaultValue" : 0.0,
                              "interp" : "eioe"
                            },
                            "geometryCrop3" : {
                              "type" : "double",
                              "defaultValue" : 0.0,
                              "interp" : "eioe"
                            },
                            "cursorScale" : {
                              "type" : "double",
                              "defaultValue" : 0.0,
                              "interp" : "linr"
                            },
                            "cursorOpacity" : {
                              "type" : "double",
                              "defaultValue" : 0.0,
                              "interp" : "linr"
                            },
                            "cursorTrackLevel" : {
                              "type" : "double",
                              "defaultValue" : 0.0,
                              "interp" : "linr"
                            },
                            "smoothCursorAcrossEditDuration" : 0
                          },
                          "effects" : [

                          ],
                          "start" : 2063268480000,
                          "duration" : 343039200000,
                          "mediaStart" : 3138932160000,
                          "mediaDuration" : 343039200000,
                          "scalar" : 1,
                          "metadata" : {
                            "AutoAppliedSmartFocus" : "False",
                            "audiateLinkedSession" : "",
                            "clipSpeedAttribute" : { "type": "bool", "value" : false},
                            "colorAttribute" : { "type": "color", "value" : [ 0, 0, 0, 0]},
                            "default-height" : { "type": "double", "value" : 1036.8},
                            "default-translation0" : { "type": "double", "value" : 0.0},
                            "default-translation1" : { "type": "double", "value" : -194.4},
                            "default-translation2" : { "type": "double", "value" : 0.0},
                            "default-width" : { "type": "double", "value" : 1932.67572815534}
                          },
                          "animationTracks" : {

                          }
                        }
                    ],
                    "effects" : [
                        {
                          "effectName" : "CursorColor",
                          "bypassed" : false,
                          "category" : "categoryCursorEffects",
                          "parameters" : {
                            "intensity" : 1.0,
                            "desaturation" : 0.0,
                            "colorLumaCutoff" : 1.0,
                            "color-alpha" : 1.0,
                            "color-red" : 1.0,
                            "color-green" : 0.8980392157,
                            "color-blue" : 0.1215686275,
                            "secondColor-red" : 0.0,
                            "secondColor-green" : 0.0,
                            "secondColor-blue" : 0.0,
                            "secondColor-alpha" : 1.0,
                            "secondColorLumaCutoff" : 0.0,
                            "channel" : 0,
                            "shadowRampStart" : 0.0,
                            "shadowRampEnd" : 0.0,
                            "highlightRampStart" : 1.0,
                            "highlightRampEnd" : 1.0
                          }
                        },
                        {
                          "effectName" : "CursorShadow",
                          "bypassed" : false,
                          "category" : "categoryCursorEffects",
                          "parameters" : {
                            "angle" : 3.92699081698724,
                            "enabled" : 1,
                            "offset" : 5.0,
                            "blur" : 2.0,
                            "opacity" : 0.25,
                            "color-red" : 0.0,
                            "color-green" : 0.0,
                            "color-blue" : 0.0,
                            "color-alpha" : 1.0
                          }
                        },
                        {
                          "effectName" : "CursorHilight",
                          "bypassed" : false,
                          "category" : "categoryCursorEffects",
                          "parameters" : {
                            "radius" : 50.0,
                            "color-red" : 1.0,
                            "color-green" : 1.0,
                            "color-blue" : 0.0,
                            "color-alpha" : 0.75,
                            "blur" : 0.1
                          }
                        }
                    ],
                    "start" : 136133760000,
                    "duration" : 3175200000,
                    "mediaStart" : 1662464160000,
                    "mediaDuration" : 358774080000,
                    "scalar" : "135/15254",
                    "metadata" : {
                      "AutoAppliedSmartFocus" : "False",
                      "audiateLinkedSession" : "",
                      "clipSpeedAttribute" : { "type": "bool", "value" : true},
                      "colorAttribute" : { "type": "color", "value" : [ 0, 0, 0, 0]},
                      "default-height" : { "type": "double", "value" : 1036.8},
                      "default-translation0" : { "type": "double", "value" : 0.0},
                      "default-translation1" : { "type": "double", "value" : -194.4},
                      "default-translation2" : { "type": "double", "value" : 0.0},
                      "default-width" : { "type": "double", "value" : 1932.67572815534}
                    },
                    "animationTracks" : {

                    }
                  },
                  {
                    "id" : 662,
                    "_type" : "StitchedMedia",
                    "minMediaStart" : 0,
                    "attributes" : {
                      "ident" : "Rec 4-22-2025-8-51-30-PM",
                      "gain" : 1.0,
                      "mixToMono" : false,
                      "loudnessNormalization" : true,
                      "sourceFileOffset" : 0
                    },
                    "parameters" : {
                      "translation0" : 6.33786407766917,
                      "translation1" : -2.8421709430404e-14,
                      "scale0" : 0.503300970873786,
                      "scale1" : 0.503300970873786,
                      "geometryCrop0" : 0.0,
                      "geometryCrop1" : 0.0,
                      "geometryCrop2" : 0.0,
                      "geometryCrop3" : 0.0,
                      "toc" : {
                        "type" : "string",
                        "keyframes" : [
                          {
                            "endTime" : 2021708640000,
                            "time" : 2021708640000,
                            "value" : "Build finished",
                            "duration" : 0,
                            "metadata" : {
                              "markerIdentifier" : "914858C5-DF2B-4330-82EC-C95D38F93321"
                            }
                          }
                        ]
                      },
                      "cursorOpacity" : 1.0,
                      "cursorTrackLevel" : 0.0,
                      "cursorScale" : 5.0,
                      "smoothCursorAcrossEditDuration" : 0
                    },
                    "medias" : [
                        {
                          "id" : 663,
                          "_type" : "ScreenVMFile",
                          "src" : 2,
                          "trackNumber" : 0,
                          "attributes" : {
                            "ident" : "Rec 4-22-2025-8-51-30-PM"
                          },
                          "parameters" : {
                            "geometryCrop0" : {
                              "type" : "double",
                              "defaultValue" : 0.0,
                              "interp" : "eioe"
                            },
                            "geometryCrop1" : {
                              "type" : "double",
                              "defaultValue" : 0.0,
                              "interp" : "eioe"
                            },
                            "geometryCrop2" : {
                              "type" : "double",
                              "defaultValue" : 0.0,
                              "interp" : "eioe"
                            },
                            "geometryCrop3" : {
                              "type" : "double",
                              "defaultValue" : 0.0,
                              "interp" : "eioe"
                            },
                            "cursorScale" : {
                              "type" : "double",
                              "defaultValue" : 0.0,
                              "interp" : "linr"
                            },
                            "cursorOpacity" : {
                              "type" : "double",
                              "defaultValue" : 0.0,
                              "interp" : "linr"
                            },
                            "cursorTrackLevel" : {
                              "type" : "double",
                              "defaultValue" : 0.0,
                              "interp" : "linr"
                            },
                            "smoothCursorAcrossEditDuration" : 0
                          },
                          "effects" : [

                          ],
                          "start" : 0,
                          "duration" : 50991360000,
                          "mediaStart" : 0,
                          "mediaDuration" : 50991360000,
                          "scalar" : 1,
                          "metadata" : {
                            "AutoAppliedSmartFocus" : "False",
                            "audiateLinkedSession" : "",
                            "clipSpeedAttribute" : { "type": "bool", "value" : false},
                            "colorAttribute" : { "type": "color", "value" : [ 0, 0, 0, 0]},
                            "default-height" : { "type": "double", "value" : 1036.8},
                            "default-translation0" : { "type": "double", "value" : 0.0},
                            "default-translation1" : { "type": "double", "value" : -194.4},
                            "default-translation2" : { "type": "double", "value" : 0.0},
                            "default-width" : { "type": "double", "value" : 1932.67572815534}
                          },
                          "animationTracks" : {

                          }
                        },
                        {
                          "id" : 664,
                          "_type" : "ScreenVMFile",
                          "src" : 2,
                          "trackNumber" : 0,
                          "attributes" : {
                            "ident" : "Rec 4-22-2025-8-51-30-PM"
                          },
                          "parameters" : {
                            "geometryCrop0" : {
                              "type" : "double",
                              "defaultValue" : 0.0,
                              "interp" : "eioe"
                            },
                            "geometryCrop1" : {
                              "type" : "double",
                              "defaultValue" : 0.0,
                              "interp" : "eioe"
                            },
                            "geometryCrop2" : {
                              "type" : "double",
                              "defaultValue" : 0.0,
                              "interp" : "eioe"
                            },
                            "geometryCrop3" : {
                              "type" : "double",
                              "defaultValue" : 0.0,
                              "interp" : "eioe"
                            },
                            "cursorScale" : {
                              "type" : "double",
                              "defaultValue" : 0.0,
                              "interp" : "linr"
                            },
                            "cursorOpacity" : {
                              "type" : "double",
                              "defaultValue" : 0.0,
                              "interp" : "linr"
                            },
                            "cursorTrackLevel" : {
                              "type" : "double",
                              "defaultValue" : 0.0,
                              "interp" : "linr"
                            },
                            "smoothCursorAcrossEditDuration" : 0
                          },
                          "effects" : [

                          ],
                          "start" : 50991360000,
                          "duration" : 46663680000,
                          "mediaStart" : 66467520000,
                          "mediaDuration" : 46663680000,
                          "scalar" : 1,
                          "metadata" : {
                            "AutoAppliedSmartFocus" : "False",
                            "audiateLinkedSession" : "",
                            "clipSpeedAttribute" : { "type": "bool", "value" : false},
                            "colorAttribute" : { "type": "color", "value" : [ 0, 0, 0, 0]},
                            "default-height" : { "type": "double", "value" : 1036.8},
                            "default-translation0" : { "type": "double", "value" : 0.0},
                            "default-translation1" : { "type": "double", "value" : -194.4},
                            "default-translation2" : { "type": "double", "value" : 0.0},
                            "default-width" : { "type": "double", "value" : 1932.67572815534}
                          },
                          "animationTracks" : {

                          }
                        },
                        {
                          "id" : 665,
                          "_type" : "ScreenVMFile",
                          "src" : 2,
                          "trackNumber" : 0,
                          "attributes" : {
                            "ident" : "Rec 4-22-2025-8-51-30-PM"
                          },
                          "parameters" : {
                            "geometryCrop0" : {
                              "type" : "double",
                              "defaultValue" : 0.0,
                              "interp" : "eioe"
                            },
                            "geometryCrop1" : {
                              "type" : "double",
                              "defaultValue" : 0.0,
                              "interp" : "eioe"
                            },
                            "geometryCrop2" : {
                              "type" : "double",
                              "defaultValue" : 0.0,
                              "interp" : "eioe"
                            },
                            "geometryCrop3" : {
                              "type" : "double",
                              "defaultValue" : 0.0,
                              "interp" : "eioe"
                            },
                            "cursorScale" : {
                              "type" : "double",
                              "defaultValue" : 0.0,
                              "interp" : "linr"
                            },
                            "cursorOpacity" : {
                              "type" : "double",
                              "defaultValue" : 0.0,
                              "interp" : "linr"
                            },
                            "cursorTrackLevel" : {
                              "type" : "double",
                              "defaultValue" : 0.0,
                              "interp" : "linr"
                            },
                            "smoothCursorAcrossEditDuration" : 0
                          },
                          "effects" : [

                          ],
                          "start" : 97655040000,
                          "duration" : 352282560000,
                          "mediaStart" : 149352000000,
                          "mediaDuration" : 352282560000,
                          "scalar" : 1,
                          "metadata" : {
                            "AutoAppliedSmartFocus" : "False",
                            "audiateLinkedSession" : "",
                            "clipSpeedAttribute" : { "type": "bool", "value" : false},
                            "colorAttribute" : { "type": "color", "value" : [ 0, 0, 0, 0]},
                            "default-height" : { "type": "double", "value" : 1036.8},
                            "default-translation0" : { "type": "double", "value" : 0.0},
                            "default-translation1" : { "type": "double", "value" : -194.4},
                            "default-translation2" : { "type": "double", "value" : 0.0},
                            "default-width" : { "type": "double", "value" : 1932.67572815534}
                          },
                          "animationTracks" : {

                          }
                        },
                        {
                          "id" : 666,
                          "_type" : "ScreenVMFile",
                          "src" : 2,
                          "trackNumber" : 0,
                          "attributes" : {
                            "ident" : "Rec 4-22-2025-8-51-30-PM"
                          },
                          "parameters" : {
                            "geometryCrop0" : {
                              "type" : "double",
                              "defaultValue" : 0.0,
                              "interp" : "eioe"
                            },
                            "geometryCrop1" : {
                              "type" : "double",
                              "defaultValue" : 0.0,
                              "interp" : "eioe"
                            },
                            "geometryCrop2" : {
                              "type" : "double",
                              "defaultValue" : 0.0,
                              "interp" : "eioe"
                            },
                            "geometryCrop3" : {
                              "type" : "double",
                              "defaultValue" : 0.0,
                              "interp" : "eioe"
                            },
                            "cursorScale" : {
                              "type" : "double",
                              "defaultValue" : 0.0,
                              "interp" : "linr"
                            },
                            "cursorOpacity" : {
                              "type" : "double",
                              "defaultValue" : 0.0,
                              "interp" : "linr"
                            },
                            "cursorTrackLevel" : {
                              "type" : "double",
                              "defaultValue" : 0.0,
                              "interp" : "linr"
                            },
                            "smoothCursorAcrossEditDuration" : 0
                          },
                          "effects" : [

                          ],
                          "start" : 449937600000,
                          "duration" : 8961120000,
                          "mediaStart" : 509843040000,
                          "mediaDuration" : 8961120000,
                          "scalar" : 1,
                          "metadata" : {
                            "AutoAppliedSmartFocus" : "False",
                            "audiateLinkedSession" : "",
                            "clipSpeedAttribute" : { "type": "bool", "value" : false},
                            "colorAttribute" : { "type": "color", "value" : [ 0, 0, 0, 0]},
                            "default-height" : { "type": "double", "value" : 1036.8},
                            "default-translation0" : { "type": "double", "value" : 0.0},
                            "default-translation1" : { "type": "double", "value" : -194.4},
                            "default-translation2" : { "type": "double", "value" : 0.0},
                            "default-width" : { "type": "double", "value" : 1932.67572815534}
                          },
                          "animationTracks" : {

                          }
                        },
                        {
                          "id" : 667,
                          "_type" : "ScreenVMFile",
                          "src" : 2,
                          "trackNumber" : 0,
                          "attributes" : {
                            "ident" : "Rec 4-22-2025-8-51-30-PM"
                          },
                          "parameters" : {
                            "geometryCrop0" : {
                              "type" : "double",
                              "defaultValue" : 0.0,
                              "interp" : "eioe"
                            },
                            "geometryCrop1" : {
                              "type" : "double",
                              "defaultValue" : 0.0,
                              "interp" : "eioe"
                            },
                            "geometryCrop2" : {
                              "type" : "double",
                              "defaultValue" : 0.0,
                              "interp" : "eioe"
                            },
                            "geometryCrop3" : {
                              "type" : "double",
                              "defaultValue" : 0.0,
                              "interp" : "eioe"
                            },
                            "cursorScale" : {
                              "type" : "double",
                              "defaultValue" : 0.0,
                              "interp" : "linr"
                            },
                            "cursorOpacity" : {
                              "type" : "double",
                              "defaultValue" : 0.0,
                              "interp" : "linr"
                            },
                            "cursorTrackLevel" : {
                              "type" : "double",
                              "defaultValue" : 0.0,
                              "interp" : "linr"
                            },
                            "smoothCursorAcrossEditDuration" : 0
                          },
                          "effects" : [

                          ],
                          "start" : 458898720000,
                          "duration" : 581226240000,
                          "mediaStart" : 1416350880000,
                          "mediaDuration" : 581226240000,
                          "scalar" : 1,
                          "metadata" : {
                            "AutoAppliedSmartFocus" : "False",
                            "audiateLinkedSession" : "",
                            "clipSpeedAttribute" : { "type": "bool", "value" : false},
                            "colorAttribute" : { "type": "color", "value" : [ 0, 0, 0, 0]},
                            "default-height" : { "type": "double", "value" : 1036.8},
                            "default-translation0" : { "type": "double", "value" : 0.0},
                            "default-translation1" : { "type": "double", "value" : -194.4},
                            "default-translation2" : { "type": "double", "value" : 0.0},
                            "default-width" : { "type": "double", "value" : 1932.67572815534}
                          },
                          "animationTracks" : {

                          }
                        },
                        {
                          "id" : 668,
                          "_type" : "ScreenVMFile",
                          "src" : 2,
                          "trackNumber" : 0,
                          "attributes" : {
                            "ident" : "Rec 4-22-2025-8-51-30-PM"
                          },
                          "parameters" : {
                            "geometryCrop0" : {
                              "type" : "double",
                              "defaultValue" : 0.0,
                              "interp" : "eioe"
                            },
                            "geometryCrop1" : {
                              "type" : "double",
                              "defaultValue" : 0.0,
                              "interp" : "eioe"
                            },
                            "geometryCrop2" : {
                              "type" : "double",
                              "defaultValue" : 0.0,
                              "interp" : "eioe"
                            },
                            "geometryCrop3" : {
                              "type" : "double",
                              "defaultValue" : 0.0,
                              "interp" : "eioe"
                            },
                            "cursorScale" : {
                              "type" : "double",
                              "defaultValue" : 0.0,
                              "interp" : "linr"
                            },
                            "cursorOpacity" : {
                              "type" : "double",
                              "defaultValue" : 0.0,
                              "interp" : "linr"
                            },
                            "cursorTrackLevel" : {
                              "type" : "double",
                              "defaultValue" : 0.0,
                              "interp" : "linr"
                            },
                            "smoothCursorAcrossEditDuration" : 0
                          },
                          "effects" : [

                          ],
                          "start" : 1040124960000,
                          "duration" : 215419680000,
                          "mediaStart" : 2018886240000,
                          "mediaDuration" : 215419680000,
                          "scalar" : 1,
                          "metadata" : {
                            "AutoAppliedSmartFocus" : "False",
                            "audiateLinkedSession" : "",
                            "clipSpeedAttribute" : { "type": "bool", "value" : false},
                            "colorAttribute" : { "type": "color", "value" : [ 0, 0, 0, 0]},
                            "default-height" : { "type": "double", "value" : 1036.8},
                            "default-translation0" : { "type": "double", "value" : 0.0},
                            "default-translation1" : { "type": "double", "value" : -194.4},
                            "default-translation2" : { "type": "double", "value" : 0.0},
                            "default-width" : { "type": "double", "value" : 1932.67572815534}
                          },
                          "animationTracks" : {

                          }
                        },
                        {
                          "id" : 669,
                          "_type" : "ScreenVMFile",
                          "src" : 2,
                          "trackNumber" : 0,
                          "attributes" : {
                            "ident" : "Rec 4-22-2025-8-51-30-PM"
                          },
                          "parameters" : {
                            "geometryCrop0" : {
                              "type" : "double",
                              "defaultValue" : 0.0,
                              "interp" : "eioe"
                            },
                            "geometryCrop1" : {
                              "type" : "double",
                              "defaultValue" : 0.0,
                              "interp" : "eioe"
                            },
                            "geometryCrop2" : {
                              "type" : "double",
                              "defaultValue" : 0.0,
                              "interp" : "eioe"
                            },
                            "geometryCrop3" : {
                              "type" : "double",
                              "defaultValue" : 0.0,
                              "interp" : "eioe"
                            },
                            "cursorScale" : {
                              "type" : "double",
                              "defaultValue" : 0.0,
                              "interp" : "linr"
                            },
                            "cursorOpacity" : {
                              "type" : "double",
                              "defaultValue" : 0.0,
                              "interp" : "linr"
                            },
                            "cursorTrackLevel" : {
                              "type" : "double",
                              "defaultValue" : 0.0,
                              "interp" : "linr"
                            },
                            "smoothCursorAcrossEditDuration" : 0
                          },
                          "effects" : [

                          ],
                          "start" : 1255544640000,
                          "duration" : 1224192480000,
                          "mediaStart" : 2257778880000,
                          "mediaDuration" : 1224192480000,
                          "scalar" : 1,
                          "metadata" : {
                            "AutoAppliedSmartFocus" : "False",
                            "audiateLinkedSession" : "",
                            "clipSpeedAttribute" : { "type": "bool", "value" : false},
                            "colorAttribute" : { "type": "color", "value" : [ 0, 0, 0, 0]},
                            "default-height" : { "type": "double", "value" : 1036.8},
                            "default-translation0" : { "type": "double", "value" : 0.0},
                            "default-translation1" : { "type": "double", "value" : -194.4},
                            "default-translation2" : { "type": "double", "value" : 0.0},
                            "default-width" : { "type": "double", "value" : 1932.67572815534}
                          },
                          "animationTracks" : {

                          }
                        }
                    ],
                    "effects" : [
                        {
                          "effectName" : "CursorColor",
                          "bypassed" : false,
                          "category" : "categoryCursorEffects",
                          "parameters" : {
                            "intensity" : 1.0,
                            "desaturation" : 0.0,
                            "colorLumaCutoff" : 1.0,
                            "color-alpha" : 1.0,
                            "color-red" : 1.0,
                            "color-green" : 0.8980392157,
                            "color-blue" : 0.1215686275,
                            "secondColor-red" : 0.0,
                            "secondColor-green" : 0.0,
                            "secondColor-blue" : 0.0,
                            "secondColor-alpha" : 1.0,
                            "secondColorLumaCutoff" : 0.0,
                            "channel" : 0,
                            "shadowRampStart" : 0.0,
                            "shadowRampEnd" : 0.0,
                            "highlightRampStart" : 1.0,
                            "highlightRampEnd" : 1.0
                          }
                        },
                        {
                          "effectName" : "CursorShadow",
                          "bypassed" : false,
                          "category" : "categoryCursorEffects",
                          "parameters" : {
                            "angle" : 3.92699081698724,
                            "enabled" : 1,
                            "offset" : 5.0,
                            "blur" : 2.0,
                            "opacity" : 0.25,
                            "color-red" : 0.0,
                            "color-green" : 0.0,
                            "color-blue" : 0.0,
                            "color-alpha" : 1.0
                          }
                        },
                        {
                          "effectName" : "CursorHilight",
                          "bypassed" : false,
                          "category" : "categoryCursorEffects",
                          "parameters" : {
                            "radius" : 50.0,
                            "color-red" : 1.0,
                            "color-green" : 1.0,
                            "color-blue" : 0.0,
                            "color-alpha" : 0.75,
                            "blur" : 0.1
                          }
                        }
                    ],
                    "start" : 139308960000,
                    "duration" : 3339840000,
                    "mediaStart" : 2021238240000,
                    "mediaDuration" : 13194720000,
                    "scalar" : "142/561",
                    "metadata" : {
                      "AutoAppliedSmartFocus" : "False",
                      "audiateLinkedSession" : "",
                      "clipSpeedAttribute" : { "type": "bool", "value" : true},
                      "colorAttribute" : { "type": "color", "value" : [ 0, 0, 0, 0]},
                      "default-height" : { "type": "double", "value" : 1036.8},
                      "default-translation0" : { "type": "double", "value" : 0.0},
                      "default-translation1" : { "type": "double", "value" : -194.4},
                      "default-translation2" : { "type": "double", "value" : 0.0},
                      "default-width" : { "type": "double", "value" : 1932.67572815534}
                    },
                    "animationTracks" : {

                    }
                  },
                  {
                    "id" : 670,
                    "_type" : "StitchedMedia",
                    "minMediaStart" : 0,
                    "attributes" : {
                      "ident" : "Rec 4-22-2025-8-51-30-PM",
                      "gain" : 1.0,
                      "mixToMono" : false,
                      "loudnessNormalization" : true,
                      "sourceFileOffset" : 0
                    },
                    "parameters" : {
                      "translation0" : {
                        "type" : "double",
                        "defaultValue" : 6.33786407766917,
                        "keyframes" : [
                          {
                            "endTime" : 3038854560000,
                            "time" : 3038148960000,
                            "value" : 3721.81332784474,
                            "duration" : 705600000
                          },
                          {
                            "endTime" : 3040806720000,
                            "time" : 3040101120000,
                            "value" : 0.0,
                            "duration" : 705600000
                          }
                        ]
                      },
                      "translation1" : {
                        "type" : "double",
                        "defaultValue" : -2.8421709430404e-14,
                        "keyframes" : [
                          {
                            "endTime" : 3038854560000,
                            "time" : 3038148960000,
                            "value" : -361.385320457505,
                            "duration" : 705600000
                          },
                          {
                            "endTime" : 3040806720000,
                            "time" : 3040101120000,
                            "value" : 0.0,
                            "duration" : 705600000
                          }
                        ]
                      },
                      "scale0" : {
                        "type" : "double",
                        "defaultValue" : 0.503300970873786,
                        "keyframes" : [
                          {
                            "endTime" : 3038854560000,
                            "time" : 3038148960000,
                            "value" : 3.16700463297322,
                            "duration" : 705600000
                          },
                          {
                            "endTime" : 3040806720000,
                            "time" : 3040101120000,
                            "value" : 0.5,
                            "duration" : 705600000
                          }
                        ]
                      },
                      "scale1" : {
                        "type" : "double",
                        "defaultValue" : 0.503300970873786,
                        "keyframes" : [
                          {
                            "endTime" : 3038854560000,
                            "time" : 3038148960000,
                            "value" : 3.16700429025115,
                            "duration" : 705600000
                          },
                          {
                            "endTime" : 3040806720000,
                            "time" : 3040101120000,
                            "value" : 0.499999945891763,
                            "duration" : 705600000
                          }
                        ]
                      },
                      "scale2" : {
                        "type" : "double",
                        "defaultValue" : 1.0,
                        "keyframes" : [
                          {
                            "endTime" : 3040806720000,
                            "time" : 3040101120000,
                            "value" : 0.157877887134821,
                            "duration" : 705600000
                          }
                        ]
                      },
                      "geometryCrop0" : 0.0,
                      "geometryCrop1" : 0.0,
                      "geometryCrop2" : 0.0,
                      "geometryCrop3" : 0.0,
                      "toc" : {
                        "type" : "string",
                        "keyframes" : [
                          {
                            "endTime" : 3036667200000,
                            "time" : 3036667200000,
                            "value" : "Click on releases",
                            "duration" : 0,
                            "metadata" : {
                              "markerIdentifier" : "398A8523-F9F2-458A-AAE1-EDBF8E8265FA"
                            }
                          },
                          {
                            "endTime" : 3040806720000,
                            "time" : 3040806720000,
                            "value" : "emphasize it was built now",
                            "duration" : 0,
                            "metadata" : {
                              "markerIdentifier" : "05974AC5-68C5-470D-BD57-82C84A0A9BD2"
                            }
                          }
                        ]
                      },
                      "cursorOpacity" : 1.0,
                      "cursorTrackLevel" : 0.0,
                      "cursorScale" : {
                        "type" : "double",
                        "defaultValue" : 5.0,
                        "keyframes" : [
                          {
                            "endTime" : 3038854560000,
                            "time" : 3038148960000,
                            "value" : 5.0,
                            "duration" : 705600000
                          },
                          {
                            "endTime" : 3040806720000,
                            "time" : 3040101120000,
                            "value" : 5.0,
                            "duration" : 705600000
                          }
                        ]
                      },
                      "smoothCursorAcrossEditDuration" : 0
                    },
                    "medias" : [
                        {
                          "id" : 671,
                          "_type" : "ScreenVMFile",
                          "src" : 2,
                          "trackNumber" : 0,
                          "attributes" : {
                            "ident" : "Rec 4-22-2025-8-51-30-PM"
                          },
                          "parameters" : {
                            "geometryCrop0" : {
                              "type" : "double",
                              "defaultValue" : 0.0,
                              "interp" : "eioe"
                            },
                            "geometryCrop1" : {
                              "type" : "double",
                              "defaultValue" : 0.0,
                              "interp" : "eioe"
                            },
                            "geometryCrop2" : {
                              "type" : "double",
                              "defaultValue" : 0.0,
                              "interp" : "eioe"
                            },
                            "geometryCrop3" : {
                              "type" : "double",
                              "defaultValue" : 0.0,
                              "interp" : "eioe"
                            },
                            "cursorScale" : {
                              "type" : "double",
                              "defaultValue" : 0.0,
                              "interp" : "linr"
                            },
                            "cursorOpacity" : {
                              "type" : "double",
                              "defaultValue" : 0.0,
                              "interp" : "linr"
                            },
                            "cursorTrackLevel" : {
                              "type" : "double",
                              "defaultValue" : 0.0,
                              "interp" : "linr"
                            },
                            "smoothCursorAcrossEditDuration" : 0
                          },
                          "effects" : [

                          ],
                          "start" : 0,
                          "duration" : 3040806720000,
                          "mediaStart" : 0,
                          "mediaDuration" : 3040806720000,
                          "scalar" : 1,
                          "metadata" : {
                            "AutoAppliedSmartFocus" : "False",
                            "audiateLinkedSession" : "",
                            "clipSpeedAttribute" : { "type": "bool", "value" : false},
                            "colorAttribute" : { "type": "color", "value" : [ 0, 0, 0, 0]},
                            "default-height" : { "type": "double", "value" : 1036.8},
                            "default-translation0" : { "type": "double", "value" : 0.0},
                            "default-translation1" : { "type": "double", "value" : -194.4},
                            "default-translation2" : { "type": "double", "value" : 0.0},
                            "default-width" : { "type": "double", "value" : 1932.67572815534}
                          },
                          "animationTracks" : {

                          }
                        },
                        {
                          "id" : 672,
                          "_type" : "ScreenVMFile",
                          "src" : 2,
                          "trackNumber" : 0,
                          "attributes" : {
                            "ident" : "Rec 4-22-2025-8-51-30-PM"
                          },
                          "parameters" : {
                            "geometryCrop0" : {
                              "type" : "double",
                              "defaultValue" : 0.0,
                              "interp" : "eioe"
                            },
                            "geometryCrop1" : {
                              "type" : "double",
                              "defaultValue" : 0.0,
                              "interp" : "eioe"
                            },
                            "geometryCrop2" : {
                              "type" : "double",
                              "defaultValue" : 0.0,
                              "interp" : "eioe"
                            },
                            "geometryCrop3" : {
                              "type" : "double",
                              "defaultValue" : 0.0,
                              "interp" : "eioe"
                            },
                            "cursorScale" : {
                              "type" : "double",
                              "defaultValue" : 0.0,
                              "interp" : "linr"
                            },
                            "cursorOpacity" : {
                              "type" : "double",
                              "defaultValue" : 0.0,
                              "interp" : "linr"
                            },
                            "cursorTrackLevel" : {
                              "type" : "double",
                              "defaultValue" : 0.0,
                              "interp" : "linr"
                            },
                            "smoothCursorAcrossEditDuration" : 0
                          },
                          "effects" : [

                          ],
                          "start" : 3040806720000,
                          "duration" : 3927840000,
                          "mediaStart" : 3040806720000,
                          "mediaDuration" : 3927840000,
                          "scalar" : 1,
                          "metadata" : {
                            "AutoAppliedSmartFocus" : "False",
                            "audiateLinkedSession" : "",
                            "clipSpeedAttribute" : { "type": "bool", "value" : false},
                            "colorAttribute" : { "type": "color", "value" : [ 0, 0, 0, 0]},
                            "default-height" : { "type": "double", "value" : 1036.8},
                            "default-translation0" : { "type": "double", "value" : 0.0},
                            "default-translation1" : { "type": "double", "value" : -194.4},
                            "default-translation2" : { "type": "double", "value" : 0.0},
                            "default-width" : { "type": "double", "value" : 1932.67572815534}
                          },
                          "animationTracks" : {

                          }
                        },
                        {
                          "id" : 673,
                          "_type" : "ScreenVMFile",
                          "src" : 2,
                          "trackNumber" : 0,
                          "attributes" : {
                            "ident" : "Rec 4-22-2025-8-51-30-PM"
                          },
                          "parameters" : {
                            "geometryCrop0" : {
                              "type" : "double",
                              "defaultValue" : 0.0,
                              "interp" : "eioe"
                            },
                            "geometryCrop1" : {
                              "type" : "double",
                              "defaultValue" : 0.0,
                              "interp" : "eioe"
                            },
                            "geometryCrop2" : {
                              "type" : "double",
                              "defaultValue" : 0.0,
                              "interp" : "eioe"
                            },
                            "geometryCrop3" : {
                              "type" : "double",
                              "defaultValue" : 0.0,
                              "interp" : "eioe"
                            },
                            "cursorScale" : {
                              "type" : "double",
                              "defaultValue" : 0.0,
                              "interp" : "linr"
                            },
                            "cursorOpacity" : {
                              "type" : "double",
                              "defaultValue" : 0.0,
                              "interp" : "linr"
                            },
                            "cursorTrackLevel" : {
                              "type" : "double",
                              "defaultValue" : 0.0,
                              "interp" : "linr"
                            },
                            "smoothCursorAcrossEditDuration" : 0
                          },
                          "effects" : [

                          ],
                          "start" : 3044734560000,
                          "duration" : 7432320000,
                          "mediaStart" : 3047580480000,
                          "mediaDuration" : 7432320000,
                          "scalar" : 1,
                          "metadata" : {
                            "AutoAppliedSmartFocus" : "False",
                            "audiateLinkedSession" : "",
                            "clipSpeedAttribute" : { "type": "bool", "value" : false},
                            "colorAttribute" : { "type": "color", "value" : [ 0, 0, 0, 0]},
                            "default-height" : { "type": "double", "value" : 1036.8},
                            "default-translation0" : { "type": "double", "value" : 0.0},
                            "default-translation1" : { "type": "double", "value" : -194.4},
                            "default-translation2" : { "type": "double", "value" : 0.0},
                            "default-width" : { "type": "double", "value" : 1932.67572815534}
                          },
                          "animationTracks" : {

                          }
                        },
                        {
                          "id" : 674,
                          "_type" : "ScreenVMFile",
                          "src" : 2,
                          "trackNumber" : 0,
                          "attributes" : {
                            "ident" : "Rec 4-22-2025-8-51-30-PM"
                          },
                          "parameters" : {
                            "geometryCrop0" : {
                              "type" : "double",
                              "defaultValue" : 0.0,
                              "interp" : "eioe"
                            },
                            "geometryCrop1" : {
                              "type" : "double",
                              "defaultValue" : 0.0,
                              "interp" : "eioe"
                            },
                            "geometryCrop2" : {
                              "type" : "double",
                              "defaultValue" : 0.0,
                              "interp" : "eioe"
                            },
                            "geometryCrop3" : {
                              "type" : "double",
                              "defaultValue" : 0.0,
                              "interp" : "eioe"
                            },
                            "cursorScale" : {
                              "type" : "double",
                              "defaultValue" : 0.0,
                              "interp" : "linr"
                            },
                            "cursorOpacity" : {
                              "type" : "double",
                              "defaultValue" : 0.0,
                              "interp" : "linr"
                            },
                            "cursorTrackLevel" : {
                              "type" : "double",
                              "defaultValue" : 0.0,
                              "interp" : "linr"
                            },
                            "smoothCursorAcrossEditDuration" : 0
                          },
                          "effects" : [

                          ],
                          "start" : 3052166880000,
                          "duration" : 1246560000,
                          "mediaStart" : 3055012800000,
                          "mediaDuration" : 1246560000,
                          "scalar" : 1,
                          "metadata" : {
                            "AutoAppliedSmartFocus" : "False",
                            "audiateLinkedSession" : "",
                            "clipSpeedAttribute" : { "type": "bool", "value" : false},
                            "colorAttribute" : { "type": "color", "value" : [ 0, 0, 0, 0]},
                            "default-height" : { "type": "double", "value" : 1036.8},
                            "default-translation0" : { "type": "double", "value" : 0.0},
                            "default-translation1" : { "type": "double", "value" : -194.4},
                            "default-translation2" : { "type": "double", "value" : 0.0},
                            "default-width" : { "type": "double", "value" : 1932.67572815534}
                          },
                          "animationTracks" : {

                          }
                        },
                        {
                          "id" : 675,
                          "_type" : "ScreenVMFile",
                          "src" : 2,
                          "trackNumber" : 0,
                          "attributes" : {
                            "ident" : "Rec 4-22-2025-8-51-30-PM"
                          },
                          "parameters" : {
                            "geometryCrop0" : {
                              "type" : "double",
                              "defaultValue" : 0.0,
                              "interp" : "eioe"
                            },
                            "geometryCrop1" : {
                              "type" : "double",
                              "defaultValue" : 0.0,
                              "interp" : "eioe"
                            },
                            "geometryCrop2" : {
                              "type" : "double",
                              "defaultValue" : 0.0,
                              "interp" : "eioe"
                            },
                            "geometryCrop3" : {
                              "type" : "double",
                              "defaultValue" : 0.0,
                              "interp" : "eioe"
                            },
                            "cursorScale" : {
                              "type" : "double",
                              "defaultValue" : 0.0,
                              "interp" : "linr"
                            },
                            "cursorOpacity" : {
                              "type" : "double",
                              "defaultValue" : 0.0,
                              "interp" : "linr"
                            },
                            "cursorTrackLevel" : {
                              "type" : "double",
                              "defaultValue" : 0.0,
                              "interp" : "linr"
                            },
                            "smoothCursorAcrossEditDuration" : 0
                          },
                          "effects" : [

                          ],
                          "start" : 3053413440000,
                          "duration" : 72276960000,
                          "mediaStart" : 3409694400000,
                          "mediaDuration" : 72276960000,
                          "scalar" : 1,
                          "metadata" : {
                            "AutoAppliedSmartFocus" : "False",
                            "audiateLinkedSession" : "",
                            "clipSpeedAttribute" : { "type": "bool", "value" : false},
                            "colorAttribute" : { "type": "color", "value" : [ 0, 0, 0, 0]},
                            "default-height" : { "type": "double", "value" : 1036.8},
                            "default-translation0" : { "type": "double", "value" : 0.0},
                            "default-translation1" : { "type": "double", "value" : -194.4},
                            "default-translation2" : { "type": "double", "value" : 0.0},
                            "default-width" : { "type": "double", "value" : 1932.67572815534}
                          },
                          "animationTracks" : {

                          }
                        }
                    ],
                    "effects" : [
                        {
                          "effectName" : "CursorColor",
                          "bypassed" : false,
                          "category" : "categoryCursorEffects",
                          "parameters" : {
                            "intensity" : 1.0,
                            "desaturation" : 0.0,
                            "colorLumaCutoff" : 1.0,
                            "color-alpha" : 1.0,
                            "color-red" : 1.0,
                            "color-green" : 0.8980392157,
                            "color-blue" : 0.1215686275,
                            "secondColor-red" : 0.0,
                            "secondColor-green" : 0.0,
                            "secondColor-blue" : 0.0,
                            "secondColor-alpha" : 1.0,
                            "secondColorLumaCutoff" : 0.0,
                            "channel" : 0,
                            "shadowRampStart" : 0.0,
                            "shadowRampEnd" : 0.0,
                            "highlightRampStart" : 1.0,
                            "highlightRampEnd" : 1.0
                          }
                        },
                        {
                          "effectName" : "CursorShadow",
                          "bypassed" : false,
                          "category" : "categoryCursorEffects",
                          "parameters" : {
                            "angle" : 3.92699081698724,
                            "enabled" : 1,
                            "offset" : 5.0,
                            "blur" : 2.0,
                            "opacity" : 0.25,
                            "color-red" : 0.0,
                            "color-green" : 0.0,
                            "color-blue" : 0.0,
                            "color-alpha" : 1.0
                          }
                        },
                        {
                          "effectName" : "CursorHilight",
                          "bypassed" : false,
                          "category" : "categoryCursorEffects",
                          "parameters" : {
                            "radius" : 50.0,
                            "color-red" : 1.0,
                            "color-green" : 1.0,
                            "color-blue" : 0.0,
                            "color-alpha" : 0.75,
                            "blur" : 0.1
                          }
                        }
                    ],
                    "start" : 142648800000,
                    "duration" : 9901920000,
                    "mediaStart" : 3036667200000,
                    "mediaDuration" : 9901920000,
                    "scalar" : 1,
                    "metadata" : {
                      "AutoAppliedSmartFocus" : "False",
                      "audiateLinkedSession" : "",
                      "clipSpeedAttribute" : { "type": "bool", "value" : false},
                      "colorAttribute" : { "type": "color", "value" : [ 0, 0, 0, 0]},
                      "default-anchor0" : { "type": "double", "value" : 0.0},
                      "default-anchor1" : { "type": "double", "value" : 0.0},
                      "default-anchor2" : { "type": "double", "value" : 0.0},
                      "default-height" : { "type": "double", "value" : 1036.8},
                      "default-rotation0" : { "type": "double", "value" : 0.0},
                      "default-rotation1" : { "type": "double", "value" : 0.0},
                      "default-rotation2" : { "type": "double", "value" : 0.0},
                      "default-scale0" : { "type": "double", "value" : 0.503300970873786},
                      "default-scale1" : { "type": "double", "value" : 0.503300970873786},
                      "default-scale2" : { "type": "double", "value" : 1.0},
                      "default-shear0" : { "type": "double", "value" : 0.0},
                      "default-shear1" : { "type": "double", "value" : 0.0},
                      "default-shear2" : { "type": "double", "value" : 0.0},
                      "default-translation0" : { "type": "double", "value" : 0.0},
                      "default-translation1" : { "type": "double", "value" : -194.4},
                      "default-translation2" : { "type": "double", "value" : 0.0},
                      "default-width" : { "type": "double", "value" : 1932.67572815534}
                    },
                    "animationTracks" : {
                      "visual" : [
                        {
                          "endTime" : 3038854560000,
                          "duration" : 705600000,
                          "range" : [ 3038148960000, 705600000]
                        },
                        {
                          "endTime" : 3040806720000,
                          "duration" : 705600000,
                          "range" : [ 3040101120000, 705600000]
                        }
                      ]
                    }
                  },
                  {
                    "id" : 676,
                    "_type" : "StitchedMedia",
                    "minMediaStart" : 0,
                    "attributes" : {
                      "ident" : "Rec 4-22-2025-8-51-30-PM",
                      "gain" : 1.0,
                      "mixToMono" : false,
                      "loudnessNormalization" : true,
                      "sourceFileOffset" : 0
                    },
                    "parameters" : {
                      "translation0" : {
                        "type" : "double",
                        "defaultValue" : 6.33786407766917,
                        "keyframes" : [
                          {
                            "endTime" : 3038854560000,
                            "time" : 3038148960000,
                            "value" : 3721.81332784474,
                            "duration" : 705600000
                          },
                          {
                            "endTime" : 3040806720000,
                            "time" : 3040101120000,
                            "value" : 0.0,
                            "duration" : 705600000
                          },
                          {
                            "endTime" : 3047251200000,
                            "time" : 3046569120000,
                            "value" : 191.392683002676,
                            "duration" : 682080000
                          },
                          {
                            "endTime" : 3048827040000,
                            "time" : 3048121440000,
                            "value" : -7.105427357601e-14,
                            "duration" : 705600000
                          }
                        ]
                      },
                      "translation1" : {
                        "type" : "double",
                        "defaultValue" : -2.8421709430404e-14,
                        "keyframes" : [
                          {
                            "endTime" : 3038854560000,
                            "time" : 3038148960000,
                            "value" : -361.385320457505,
                            "duration" : 705600000
                          },
                          {
                            "endTime" : 3040806720000,
                            "time" : 3040101120000,
                            "value" : 0.0,
                            "duration" : 705600000
                          },
                          {
                            "endTime" : 3047251200000,
                            "time" : 3046569120000,
                            "value" : -85.0633419197033,
                            "duration" : 682080000
                          },
                          {
                            "endTime" : 3048827040000,
                            "time" : 3048121440000,
                            "value" : -7.105427357601e-15,
                            "duration" : 705600000
                          }
                        ]
                      },
                      "scale0" : {
                        "type" : "double",
                        "defaultValue" : 0.503300970873786,
                        "keyframes" : [
                          {
                            "endTime" : 3038854560000,
                            "time" : 3038148960000,
                            "value" : 3.16700463297322,
                            "duration" : 705600000
                          },
                          {
                            "endTime" : 3040806720000,
                            "time" : 3040101120000,
                            "value" : 0.5,
                            "duration" : 705600000
                          },
                          {
                            "endTime" : 3047251200000,
                            "time" : 3046569120000,
                            "value" : 1.24824231462728,
                            "duration" : 682080000
                          },
                          {
                            "endTime" : 3048827040000,
                            "time" : 3048121440000,
                            "value" : 0.5,
                            "duration" : 705600000
                          }
                        ]
                      },
                      "scale1" : {
                        "type" : "double",
                        "defaultValue" : 0.503300970873786,
                        "keyframes" : [
                          {
                            "endTime" : 3038854560000,
                            "time" : 3038148960000,
                            "value" : 3.16700429025115,
                            "duration" : 705600000
                          },
                          {
                            "endTime" : 3040806720000,
                            "time" : 3040101120000,
                            "value" : 0.499999945891763,
                            "duration" : 705600000
                          },
                          {
                            "endTime" : 3047251200000,
                            "time" : 3046569120000,
                            "value" : 1.24824205453361,
                            "duration" : 682080000
                          },
                          {
                            "endTime" : 3048827040000,
                            "time" : 3048121440000,
                            "value" : 0.5,
                            "duration" : 705600000
                          }
                        ]
                      },
                      "scale2" : {
                        "type" : "double",
                        "defaultValue" : 1.0,
                        "keyframes" : [
                          {
                            "endTime" : 3040806720000,
                            "time" : 3040101120000,
                            "value" : 0.157877887134821,
                            "duration" : 705600000
                          },
                          {
                            "endTime" : 3048827040000,
                            "time" : 3048121440000,
                            "value" : 0.0789389435674104,
                            "duration" : 705600000
                          }
                        ]
                      },
                      "geometryCrop0" : 0.0,
                      "geometryCrop1" : 0.0,
                      "geometryCrop2" : 0.0,
                      "geometryCrop3" : 0.0,
                      "cursorOpacity" : 1.0,
                      "cursorTrackLevel" : 0.0,
                      "cursorScale" : {
                        "type" : "double",
                        "defaultValue" : 5.0,
                        "keyframes" : [
                          {
                            "endTime" : 3038854560000,
                            "time" : 3038148960000,
                            "value" : 5.0,
                            "duration" : 705600000
                          },
                          {
                            "endTime" : 3040806720000,
                            "time" : 3040101120000,
                            "value" : 5.0,
                            "duration" : 705600000
                          },
                          {
                            "endTime" : 3047251200000,
                            "time" : 3046569120000,
                            "value" : 5.0,
                            "duration" : 682080000
                          },
                          {
                            "endTime" : 3048827040000,
                            "time" : 3048121440000,
                            "value" : 5.0,
                            "duration" : 705600000
                          }
                        ]
                      },
                      "smoothCursorAcrossEditDuration" : 0
                    },
                    "medias" : [
                        {
                          "id" : 677,
                          "_type" : "ScreenVMFile",
                          "src" : 2,
                          "trackNumber" : 0,
                          "attributes" : {
                            "ident" : "Rec 4-22-2025-8-51-30-PM"
                          },
                          "parameters" : {
                            "geometryCrop0" : {
                              "type" : "double",
                              "defaultValue" : 0.0,
                              "interp" : "eioe"
                            },
                            "geometryCrop1" : {
                              "type" : "double",
                              "defaultValue" : 0.0,
                              "interp" : "eioe"
                            },
                            "geometryCrop2" : {
                              "type" : "double",
                              "defaultValue" : 0.0,
                              "interp" : "eioe"
                            },
                            "geometryCrop3" : {
                              "type" : "double",
                              "defaultValue" : 0.0,
                              "interp" : "eioe"
                            },
                            "cursorScale" : {
                              "type" : "double",
                              "defaultValue" : 0.0,
                              "interp" : "linr"
                            },
                            "cursorOpacity" : {
                              "type" : "double",
                              "defaultValue" : 0.0,
                              "interp" : "linr"
                            },
                            "cursorTrackLevel" : {
                              "type" : "double",
                              "defaultValue" : 0.0,
                              "interp" : "linr"
                            },
                            "smoothCursorAcrossEditDuration" : 0
                          },
                          "effects" : [

                          ],
                          "start" : 0,
                          "duration" : 3040806720000,
                          "mediaStart" : 0,
                          "mediaDuration" : 3040806720000,
                          "scalar" : 1,
                          "metadata" : {
                            "AutoAppliedSmartFocus" : "False",
                            "audiateLinkedSession" : "",
                            "clipSpeedAttribute" : { "type": "bool", "value" : false},
                            "colorAttribute" : { "type": "color", "value" : [ 0, 0, 0, 0]},
                            "default-height" : { "type": "double", "value" : 1036.8},
                            "default-translation0" : { "type": "double", "value" : 0.0},
                            "default-translation1" : { "type": "double", "value" : -194.4},
                            "default-translation2" : { "type": "double", "value" : 0.0},
                            "default-width" : { "type": "double", "value" : 1932.67572815534}
                          },
                          "animationTracks" : {

                          }
                        },
                        {
                          "id" : 678,
                          "_type" : "ScreenVMFile",
                          "src" : 2,
                          "trackNumber" : 0,
                          "attributes" : {
                            "ident" : "Rec 4-22-2025-8-51-30-PM"
                          },
                          "parameters" : {
                            "geometryCrop0" : {
                              "type" : "double",
                              "defaultValue" : 0.0,
                              "interp" : "eioe"
                            },
                            "geometryCrop1" : {
                              "type" : "double",
                              "defaultValue" : 0.0,
                              "interp" : "eioe"
                            },
                            "geometryCrop2" : {
                              "type" : "double",
                              "defaultValue" : 0.0,
                              "interp" : "eioe"
                            },
                            "geometryCrop3" : {
                              "type" : "double",
                              "defaultValue" : 0.0,
                              "interp" : "eioe"
                            },
                            "cursorScale" : {
                              "type" : "double",
                              "defaultValue" : 0.0,
                              "interp" : "linr"
                            },
                            "cursorOpacity" : {
                              "type" : "double",
                              "defaultValue" : 0.0,
                              "interp" : "linr"
                            },
                            "cursorTrackLevel" : {
                              "type" : "double",
                              "defaultValue" : 0.0,
                              "interp" : "linr"
                            },
                            "smoothCursorAcrossEditDuration" : 0
                          },
                          "effects" : [

                          ],
                          "start" : 3040806720000,
                          "duration" : 3927840000,
                          "mediaStart" : 3040806720000,
                          "mediaDuration" : 3927840000,
                          "scalar" : 1,
                          "metadata" : {
                            "AutoAppliedSmartFocus" : "False",
                            "audiateLinkedSession" : "",
                            "clipSpeedAttribute" : { "type": "bool", "value" : false},
                            "colorAttribute" : { "type": "color", "value" : [ 0, 0, 0, 0]},
                            "default-height" : { "type": "double", "value" : 1036.8},
                            "default-translation0" : { "type": "double", "value" : 0.0},
                            "default-translation1" : { "type": "double", "value" : -194.4},
                            "default-translation2" : { "type": "double", "value" : 0.0},
                            "default-width" : { "type": "double", "value" : 1932.67572815534}
                          },
                          "animationTracks" : {

                          }
                        },
                        {
                          "id" : 679,
                          "_type" : "ScreenVMFile",
                          "src" : 2,
                          "trackNumber" : 0,
                          "attributes" : {
                            "ident" : "Rec 4-22-2025-8-51-30-PM"
                          },
                          "parameters" : {
                            "geometryCrop0" : {
                              "type" : "double",
                              "defaultValue" : 0.0,
                              "interp" : "eioe"
                            },
                            "geometryCrop1" : {
                              "type" : "double",
                              "defaultValue" : 0.0,
                              "interp" : "eioe"
                            },
                            "geometryCrop2" : {
                              "type" : "double",
                              "defaultValue" : 0.0,
                              "interp" : "eioe"
                            },
                            "geometryCrop3" : {
                              "type" : "double",
                              "defaultValue" : 0.0,
                              "interp" : "eioe"
                            },
                            "cursorScale" : {
                              "type" : "double",
                              "defaultValue" : 0.0,
                              "interp" : "linr"
                            },
                            "cursorOpacity" : {
                              "type" : "double",
                              "defaultValue" : 0.0,
                              "interp" : "linr"
                            },
                            "cursorTrackLevel" : {
                              "type" : "double",
                              "defaultValue" : 0.0,
                              "interp" : "linr"
                            },
                            "smoothCursorAcrossEditDuration" : 0
                          },
                          "effects" : [

                          ],
                          "start" : 3044734560000,
                          "duration" : 3222240000,
                          "mediaStart" : 3047580480000,
                          "mediaDuration" : 3222240000,
                          "scalar" : 1,
                          "metadata" : {
                            "AutoAppliedSmartFocus" : "False",
                            "audiateLinkedSession" : "",
                            "clipSpeedAttribute" : { "type": "bool", "value" : false},
                            "colorAttribute" : { "type": "color", "value" : [ 0, 0, 0, 0]},
                            "default-height" : { "type": "double", "value" : 1036.8},
                            "default-translation0" : { "type": "double", "value" : 0.0},
                            "default-translation1" : { "type": "double", "value" : -194.4},
                            "default-translation2" : { "type": "double", "value" : 0.0},
                            "default-width" : { "type": "double", "value" : 1932.67572815534}
                          },
                          "animationTracks" : {

                          }
                        },
                        {
                          "id" : 680,
                          "_type" : "ScreenVMFile",
                          "src" : 2,
                          "trackNumber" : 0,
                          "attributes" : {
                            "ident" : "Rec 4-22-2025-8-51-30-PM"
                          },
                          "parameters" : {
                            "geometryCrop0" : {
                              "type" : "double",
                              "defaultValue" : 0.0,
                              "interp" : "eioe"
                            },
                            "geometryCrop1" : {
                              "type" : "double",
                              "defaultValue" : 0.0,
                              "interp" : "eioe"
                            },
                            "geometryCrop2" : {
                              "type" : "double",
                              "defaultValue" : 0.0,
                              "interp" : "eioe"
                            },
                            "geometryCrop3" : {
                              "type" : "double",
                              "defaultValue" : 0.0,
                              "interp" : "eioe"
                            },
                            "cursorScale" : {
                              "type" : "double",
                              "defaultValue" : 0.0,
                              "interp" : "linr"
                            },
                            "cursorOpacity" : {
                              "type" : "double",
                              "defaultValue" : 0.0,
                              "interp" : "linr"
                            },
                            "cursorTrackLevel" : {
                              "type" : "double",
                              "defaultValue" : 0.0,
                              "interp" : "linr"
                            },
                            "smoothCursorAcrossEditDuration" : 0
                          },
                          "effects" : [

                          ],
                          "start" : 3047956800000,
                          "duration" : 5597760000,
                          "mediaStart" : 3049415040000,
                          "mediaDuration" : 5597760000,
                          "scalar" : 1,
                          "metadata" : {
                            "AutoAppliedSmartFocus" : "False",
                            "audiateLinkedSession" : "",
                            "clipSpeedAttribute" : { "type": "bool", "value" : false},
                            "colorAttribute" : { "type": "color", "value" : [ 0, 0, 0, 0]},
                            "default-height" : { "type": "double", "value" : 1036.8},
                            "default-translation0" : { "type": "double", "value" : 0.0},
                            "default-translation1" : { "type": "double", "value" : -194.4},
                            "default-translation2" : { "type": "double", "value" : 0.0},
                            "default-width" : { "type": "double", "value" : 1932.67572815534}
                          },
                          "animationTracks" : {

                          }
                        },
                        {
                          "id" : 681,
                          "_type" : "ScreenVMFile",
                          "src" : 2,
                          "trackNumber" : 0,
                          "attributes" : {
                            "ident" : "Rec 4-22-2025-8-51-30-PM"
                          },
                          "parameters" : {
                            "geometryCrop0" : {
                              "type" : "double",
                              "defaultValue" : 0.0,
                              "interp" : "eioe"
                            },
                            "geometryCrop1" : {
                              "type" : "double",
                              "defaultValue" : 0.0,
                              "interp" : "eioe"
                            },
                            "geometryCrop2" : {
                              "type" : "double",
                              "defaultValue" : 0.0,
                              "interp" : "eioe"
                            },
                            "geometryCrop3" : {
                              "type" : "double",
                              "defaultValue" : 0.0,
                              "interp" : "eioe"
                            },
                            "cursorScale" : {
                              "type" : "double",
                              "defaultValue" : 0.0,
                              "interp" : "linr"
                            },
                            "cursorOpacity" : {
                              "type" : "double",
                              "defaultValue" : 0.0,
                              "interp" : "linr"
                            },
                            "cursorTrackLevel" : {
                              "type" : "double",
                              "defaultValue" : 0.0,
                              "interp" : "linr"
                            },
                            "smoothCursorAcrossEditDuration" : 0
                          },
                          "effects" : [

                          ],
                          "start" : 3053554560000,
                          "duration" : 1246560000,
                          "mediaStart" : 3055012800000,
                          "mediaDuration" : 1246560000,
                          "scalar" : 1,
                          "metadata" : {
                            "AutoAppliedSmartFocus" : "False",
                            "audiateLinkedSession" : "",
                            "clipSpeedAttribute" : { "type": "bool", "value" : false},
                            "colorAttribute" : { "type": "color", "value" : [ 0, 0, 0, 0]},
                            "default-height" : { "type": "double", "value" : 1036.8},
                            "default-translation0" : { "type": "double", "value" : 0.0},
                            "default-translation1" : { "type": "double", "value" : -194.4},
                            "default-translation2" : { "type": "double", "value" : 0.0},
                            "default-width" : { "type": "double", "value" : 1932.67572815534}
                          },
                          "animationTracks" : {

                          }
                        },
                        {
                          "id" : 682,
                          "_type" : "ScreenVMFile",
                          "src" : 2,
                          "trackNumber" : 0,
                          "attributes" : {
                            "ident" : "Rec 4-22-2025-8-51-30-PM"
                          },
                          "parameters" : {
                            "geometryCrop0" : {
                              "type" : "double",
                              "defaultValue" : 0.0,
                              "interp" : "eioe"
                            },
                            "geometryCrop1" : {
                              "type" : "double",
                              "defaultValue" : 0.0,
                              "interp" : "eioe"
                            },
                            "geometryCrop2" : {
                              "type" : "double",
                              "defaultValue" : 0.0,
                              "interp" : "eioe"
                            },
                            "geometryCrop3" : {
                              "type" : "double",
                              "defaultValue" : 0.0,
                              "interp" : "eioe"
                            },
                            "cursorScale" : {
                              "type" : "double",
                              "defaultValue" : 0.0,
                              "interp" : "linr"
                            },
                            "cursorOpacity" : {
                              "type" : "double",
                              "defaultValue" : 0.0,
                              "interp" : "linr"
                            },
                            "cursorTrackLevel" : {
                              "type" : "double",
                              "defaultValue" : 0.0,
                              "interp" : "linr"
                            },
                            "smoothCursorAcrossEditDuration" : 0
                          },
                          "effects" : [

                          ],
                          "start" : 3054801120000,
                          "duration" : 72276960000,
                          "mediaStart" : 3409694400000,
                          "mediaDuration" : 72276960000,
                          "scalar" : 1,
                          "metadata" : {
                            "AutoAppliedSmartFocus" : "False",
                            "audiateLinkedSession" : "",
                            "clipSpeedAttribute" : { "type": "bool", "value" : false},
                            "colorAttribute" : { "type": "color", "value" : [ 0, 0, 0, 0]},
                            "default-height" : { "type": "double", "value" : 1036.8},
                            "default-translation0" : { "type": "double", "value" : 0.0},
                            "default-translation1" : { "type": "double", "value" : -194.4},
                            "default-translation2" : { "type": "double", "value" : 0.0},
                            "default-width" : { "type": "double", "value" : 1932.67572815534}
                          },
                          "animationTracks" : {

                          }
                        }
                    ],
                    "effects" : [
                        {
                          "effectName" : "CursorColor",
                          "bypassed" : false,
                          "category" : "categoryCursorEffects",
                          "parameters" : {
                            "intensity" : 1.0,
                            "desaturation" : 0.0,
                            "colorLumaCutoff" : 1.0,
                            "color-alpha" : 1.0,
                            "color-red" : 1.0,
                            "color-green" : 0.8980392157,
                            "color-blue" : 0.1215686275,
                            "secondColor-red" : 0.0,
                            "secondColor-green" : 0.0,
                            "secondColor-blue" : 0.0,
                            "secondColor-alpha" : 1.0,
                            "secondColorLumaCutoff" : 0.0,
                            "channel" : 0,
                            "shadowRampStart" : 0.0,
                            "shadowRampEnd" : 0.0,
                            "highlightRampStart" : 1.0,
                            "highlightRampEnd" : 1.0
                          }
                        },
                        {
                          "effectName" : "CursorShadow",
                          "bypassed" : false,
                          "category" : "categoryCursorEffects",
                          "parameters" : {
                            "angle" : 3.92699081698724,
                            "enabled" : 1,
                            "offset" : 5.0,
                            "blur" : 2.0,
                            "opacity" : 0.25,
                            "color-red" : 0.0,
                            "color-green" : 0.0,
                            "color-blue" : 0.0,
                            "color-alpha" : 1.0
                          }
                        },
                        {
                          "effectName" : "CursorHilight",
                          "bypassed" : false,
                          "category" : "categoryCursorEffects",
                          "parameters" : {
                            "radius" : 50.0,
                            "color-red" : 1.0,
                            "color-green" : 1.0,
                            "color-blue" : 0.0,
                            "color-alpha" : 0.75,
                            "blur" : 0.1
                          }
                        }
                    ],
                    "start" : 152550720000,
                    "duration" : 2775360000,
                    "mediaStart" : 3046569120000,
                    "mediaDuration" : 2775360000,
                    "scalar" : 1,
                    "metadata" : {
                      "AutoAppliedSmartFocus" : "False",
                      "audiateLinkedSession" : "",
                      "clipSpeedAttribute" : { "type": "bool", "value" : false},
                      "colorAttribute" : { "type": "color", "value" : [ 0, 0, 0, 0]},
                      "default-anchor0" : { "type": "double", "value" : 0.0},
                      "default-anchor1" : { "type": "double", "value" : 0.0},
                      "default-anchor2" : { "type": "double", "value" : 0.0},
                      "default-height" : { "type": "double", "value" : 1036.8},
                      "default-rotation0" : { "type": "double", "value" : 0.0},
                      "default-rotation1" : { "type": "double", "value" : 0.0},
                      "default-rotation2" : { "type": "double", "value" : 0.0},
                      "default-scale0" : { "type": "double", "value" : 0.503300970873786},
                      "default-scale1" : { "type": "double", "value" : 0.503300970873786},
                      "default-scale2" : { "type": "double", "value" : 1.0},
                      "default-shear0" : { "type": "double", "value" : 0.0},
                      "default-shear1" : { "type": "double", "value" : 0.0},
                      "default-shear2" : { "type": "double", "value" : 0.0},
                      "default-translation0" : { "type": "double", "value" : 0.0},
                      "default-translation1" : { "type": "double", "value" : -194.4},
                      "default-translation2" : { "type": "double", "value" : 0.0},
                      "default-width" : { "type": "double", "value" : 1932.67572815534}
                    },
                    "animationTracks" : {
                      "visual" : [
                        {
                          "endTime" : 3038854560000,
                          "duration" : 705600000,
                          "range" : [ 3038148960000, 705600000]
                        },
                        {
                          "endTime" : 3040806720000,
                          "duration" : 705600000,
                          "range" : [ 3040101120000, 705600000]
                        },
                        {
                          "endTime" : 3047251200000,
                          "duration" : 682080000,
                          "range" : [ 3046569120000, 682080000]
                        },
                        {
                          "endTime" : 3048827040000,
                          "duration" : 705600000,
                          "range" : [ 3048121440000, 705600000]
                        }
                      ]
                    }
                  },
                  {
                    "id" : 683,
                    "_type" : "StitchedMedia",
                    "minMediaStart" : 0,
                    "attributes" : {
                      "ident" : "Rec 4-22-2025-8-51-30-PM",
                      "gain" : 1.0,
                      "mixToMono" : false,
                      "loudnessNormalization" : true,
                      "sourceFileOffset" : 0
                    },
                    "parameters" : {
                      "translation0" : {
                        "type" : "double",
                        "defaultValue" : 6.33786407766917,
                        "keyframes" : [
                          {
                            "endTime" : 3038854560000,
                            "time" : 3038148960000,
                            "value" : 3721.81332784474,
                            "duration" : 705600000
                          },
                          {
                            "endTime" : 3040806720000,
                            "time" : 3040101120000,
                            "value" : 0.0,
                            "duration" : 705600000
                          },
                          {
                            "endTime" : 3052519680000,
                            "time" : 3051814080000,
                            "value" : 867.451445254374,
                            "duration" : 705600000
                          }
                        ]
                      },
                      "translation1" : {
                        "type" : "double",
                        "defaultValue" : -2.8421709430404e-14,
                        "keyframes" : [
                          {
                            "endTime" : 3038854560000,
                            "time" : 3038148960000,
                            "value" : -361.385320457505,
                            "duration" : 705600000
                          },
                          {
                            "endTime" : 3040806720000,
                            "time" : 3040101120000,
                            "value" : 0.0,
                            "duration" : 705600000
                          },
                          {
                            "endTime" : 3052519680000,
                            "time" : 3051814080000,
                            "value" : 186.666744147636,
                            "duration" : 705600000
                          }
                        ]
                      },
                      "scale0" : {
                        "type" : "double",
                        "defaultValue" : 0.503300970873786,
                        "keyframes" : [
                          {
                            "endTime" : 3038854560000,
                            "time" : 3038148960000,
                            "value" : 3.16700463297322,
                            "duration" : 705600000
                          },
                          {
                            "endTime" : 3040806720000,
                            "time" : 3040101120000,
                            "value" : 0.5,
                            "duration" : 705600000
                          },
                          {
                            "endTime" : 3052519680000,
                            "time" : 3051814080000,
                            "value" : 1.93355148750859,
                            "duration" : 705600000
                          }
                        ]
                      },
                      "scale1" : {
                        "type" : "double",
                        "defaultValue" : 0.503300970873786,
                        "keyframes" : [
                          {
                            "endTime" : 3038854560000,
                            "time" : 3038148960000,
                            "value" : 3.16700429025115,
                            "duration" : 705600000
                          },
                          {
                            "endTime" : 3040806720000,
                            "time" : 3040101120000,
                            "value" : 0.499999945891763,
                            "duration" : 705600000
                          },
                          {
                            "endTime" : 3052519680000,
                            "time" : 3051814080000,
                            "value" : 1.93355082831984,
                            "duration" : 705600000
                          }
                        ]
                      },
                      "scale2" : {
                        "type" : "double",
                        "defaultValue" : 1.0,
                        "keyframes" : [
                          {
                            "endTime" : 3040806720000,
                            "time" : 3040101120000,
                            "value" : 0.157877887134821,
                            "duration" : 705600000
                          }
                        ]
                      },
                      "geometryCrop0" : 0.0,
                      "geometryCrop1" : 0.0,
                      "geometryCrop2" : 0.0,
                      "geometryCrop3" : 0.0,
                      "cursorOpacity" : 1.0,
                      "cursorTrackLevel" : 0.0,
                      "cursorScale" : 5.0,
                      "smoothCursorAcrossEditDuration" : 0
                    },
                    "medias" : [
                        {
                          "id" : 684,
                          "_type" : "ScreenVMFile",
                          "src" : 2,
                          "trackNumber" : 0,
                          "attributes" : {
                            "ident" : "Rec 4-22-2025-8-51-30-PM"
                          },
                          "parameters" : {
                            "geometryCrop0" : {
                              "type" : "double",
                              "defaultValue" : 0.0,
                              "interp" : "eioe"
                            },
                            "geometryCrop1" : {
                              "type" : "double",
                              "defaultValue" : 0.0,
                              "interp" : "eioe"
                            },
                            "geometryCrop2" : {
                              "type" : "double",
                              "defaultValue" : 0.0,
                              "interp" : "eioe"
                            },
                            "geometryCrop3" : {
                              "type" : "double",
                              "defaultValue" : 0.0,
                              "interp" : "eioe"
                            },
                            "cursorScale" : {
                              "type" : "double",
                              "defaultValue" : 0.0,
                              "interp" : "linr"
                            },
                            "cursorOpacity" : {
                              "type" : "double",
                              "defaultValue" : 0.0,
                              "interp" : "linr"
                            },
                            "cursorTrackLevel" : {
                              "type" : "double",
                              "defaultValue" : 0.0,
                              "interp" : "linr"
                            },
                            "smoothCursorAcrossEditDuration" : 0
                          },
                          "effects" : [

                          ],
                          "start" : 0,
                          "duration" : 3040806720000,
                          "mediaStart" : 0,
                          "mediaDuration" : 3040806720000,
                          "scalar" : 1,
                          "metadata" : {
                            "AutoAppliedSmartFocus" : "False",
                            "audiateLinkedSession" : "",
                            "clipSpeedAttribute" : { "type": "bool", "value" : false},
                            "colorAttribute" : { "type": "color", "value" : [ 0, 0, 0, 0]},
                            "default-height" : { "type": "double", "value" : 1036.8},
                            "default-translation0" : { "type": "double", "value" : 0.0},
                            "default-translation1" : { "type": "double", "value" : -194.4},
                            "default-translation2" : { "type": "double", "value" : 0.0},
                            "default-width" : { "type": "double", "value" : 1932.67572815534}
                          },
                          "animationTracks" : {

                          }
                        },
                        {
                          "id" : 685,
                          "_type" : "ScreenVMFile",
                          "src" : 2,
                          "trackNumber" : 0,
                          "attributes" : {
                            "ident" : "Rec 4-22-2025-8-51-30-PM"
                          },
                          "parameters" : {
                            "geometryCrop0" : {
                              "type" : "double",
                              "defaultValue" : 0.0,
                              "interp" : "eioe"
                            },
                            "geometryCrop1" : {
                              "type" : "double",
                              "defaultValue" : 0.0,
                              "interp" : "eioe"
                            },
                            "geometryCrop2" : {
                              "type" : "double",
                              "defaultValue" : 0.0,
                              "interp" : "eioe"
                            },
                            "geometryCrop3" : {
                              "type" : "double",
                              "defaultValue" : 0.0,
                              "interp" : "eioe"
                            },
                            "cursorScale" : {
                              "type" : "double",
                              "defaultValue" : 0.0,
                              "interp" : "linr"
                            },
                            "cursorOpacity" : {
                              "type" : "double",
                              "defaultValue" : 0.0,
                              "interp" : "linr"
                            },
                            "cursorTrackLevel" : {
                              "type" : "double",
                              "defaultValue" : 0.0,
                              "interp" : "linr"
                            },
                            "smoothCursorAcrossEditDuration" : 0
                          },
                          "effects" : [

                          ],
                          "start" : 3040806720000,
                          "duration" : 3927840000,
                          "mediaStart" : 3040806720000,
                          "mediaDuration" : 3927840000,
                          "scalar" : 1,
                          "metadata" : {
                            "AutoAppliedSmartFocus" : "False",
                            "audiateLinkedSession" : "",
                            "clipSpeedAttribute" : { "type": "bool", "value" : false},
                            "colorAttribute" : { "type": "color", "value" : [ 0, 0, 0, 0]},
                            "default-height" : { "type": "double", "value" : 1036.8},
                            "default-translation0" : { "type": "double", "value" : 0.0},
                            "default-translation1" : { "type": "double", "value" : -194.4},
                            "default-translation2" : { "type": "double", "value" : 0.0},
                            "default-width" : { "type": "double", "value" : 1932.67572815534}
                          },
                          "animationTracks" : {

                          }
                        },
                        {
                          "id" : 686,
                          "_type" : "ScreenVMFile",
                          "src" : 2,
                          "trackNumber" : 0,
                          "attributes" : {
                            "ident" : "Rec 4-22-2025-8-51-30-PM"
                          },
                          "parameters" : {
                            "geometryCrop0" : {
                              "type" : "double",
                              "defaultValue" : 0.0,
                              "interp" : "eioe"
                            },
                            "geometryCrop1" : {
                              "type" : "double",
                              "defaultValue" : 0.0,
                              "interp" : "eioe"
                            },
                            "geometryCrop2" : {
                              "type" : "double",
                              "defaultValue" : 0.0,
                              "interp" : "eioe"
                            },
                            "geometryCrop3" : {
                              "type" : "double",
                              "defaultValue" : 0.0,
                              "interp" : "eioe"
                            },
                            "cursorScale" : {
                              "type" : "double",
                              "defaultValue" : 0.0,
                              "interp" : "linr"
                            },
                            "cursorOpacity" : {
                              "type" : "double",
                              "defaultValue" : 0.0,
                              "interp" : "linr"
                            },
                            "cursorTrackLevel" : {
                              "type" : "double",
                              "defaultValue" : 0.0,
                              "interp" : "linr"
                            },
                            "smoothCursorAcrossEditDuration" : 0
                          },
                          "effects" : [

                          ],
                          "start" : 3044734560000,
                          "duration" : 7361760000,
                          "mediaStart" : 3047580480000,
                          "mediaDuration" : 7361760000,
                          "scalar" : 1,
                          "metadata" : {
                            "AutoAppliedSmartFocus" : "False",
                            "audiateLinkedSession" : "",
                            "clipSpeedAttribute" : { "type": "bool", "value" : false},
                            "colorAttribute" : { "type": "color", "value" : [ 0, 0, 0, 0]},
                            "default-height" : { "type": "double", "value" : 1036.8},
                            "default-translation0" : { "type": "double", "value" : 0.0},
                            "default-translation1" : { "type": "double", "value" : -194.4},
                            "default-translation2" : { "type": "double", "value" : 0.0},
                            "default-width" : { "type": "double", "value" : 1932.67572815534}
                          },
                          "animationTracks" : {

                          }
                        },
                        {
                          "id" : 687,
                          "_type" : "ScreenIMFile",
                          "src" : 2,
                          "trackNumber" : 0,
                          "trimStartSum" : 0,
                          "attributes" : {
                            "ident" : "Rec 4-22-2025-8-51-30-PM",
                            "isPathEdited" : false
                          },
                          "parameters" : {
                            "geometryCrop0" : {
                              "type" : "double",
                              "defaultValue" : 0.0,
                              "interp" : "eioe"
                            },
                            "geometryCrop1" : {
                              "type" : "double",
                              "defaultValue" : 0.0,
                              "interp" : "eioe"
                            },
                            "geometryCrop2" : {
                              "type" : "double",
                              "defaultValue" : 0.0,
                              "interp" : "eioe"
                            },
                            "geometryCrop3" : {
                              "type" : "double",
                              "defaultValue" : 0.0,
                              "interp" : "eioe"
                            },
                            "cursorOpacity" : {
                              "type" : "double",
                              "defaultValue" : 0.0,
                              "interp" : "linr"
                            },
                            "cursorTrackLevel" : {
                              "type" : "double",
                              "defaultValue" : 0.0,
                              "interp" : "linr"
                            },
                            "cursorScale" : {
                              "type" : "double",
                              "defaultValue" : 0.0,
                              "interp" : "linr"
                            },
                            "cursorImagePath" : "2b7b6af1-7a1f-11e2-83d0-0017f200be7f/2",
                            "smoothCursorAcrossEditDuration" : 0,
                            "cursorLocation" : {
                              "type" : "point",
                              "keyframes" : [
                                {
                                  "endTime" : 0,
                                  "time" : 0,
                                  "value" : [ 1045, 1100, 0],
                                  "duration" : 0
                                }
                              ]
                            }
                          },
                          "effects" : [

                          ],
                          "start" : 3052096320000,
                          "duration" : 7056000000,
                          "mediaStart" : 3054942240000,
                          "mediaDuration" : 1,
                          "scalar" : 1,
                          "animationTracks" : {

                          }
                        },
                        {
                          "id" : 688,
                          "_type" : "ScreenVMFile",
                          "src" : 2,
                          "trackNumber" : 0,
                          "attributes" : {
                            "ident" : "Rec 4-22-2025-8-51-30-PM"
                          },
                          "parameters" : {
                            "geometryCrop0" : {
                              "type" : "double",
                              "defaultValue" : 0.0,
                              "interp" : "eioe"
                            },
                            "geometryCrop1" : {
                              "type" : "double",
                              "defaultValue" : 0.0,
                              "interp" : "eioe"
                            },
                            "geometryCrop2" : {
                              "type" : "double",
                              "defaultValue" : 0.0,
                              "interp" : "eioe"
                            },
                            "geometryCrop3" : {
                              "type" : "double",
                              "defaultValue" : 0.0,
                              "interp" : "eioe"
                            },
                            "cursorScale" : {
                              "type" : "double",
                              "defaultValue" : 0.0,
                              "interp" : "linr"
                            },
                            "cursorOpacity" : {
                              "type" : "double",
                              "defaultValue" : 0.0,
                              "interp" : "linr"
                            },
                            "cursorTrackLevel" : {
                              "type" : "double",
                              "defaultValue" : 0.0,
                              "interp" : "linr"
                            },
                            "smoothCursorAcrossEditDuration" : 0
                          },
                          "effects" : [

                          ],
                          "start" : 3059152320000,
                          "duration" : 70560000,
                          "mediaStart" : 3054942240000,
                          "mediaDuration" : 70560000,
                          "scalar" : 1,
                          "metadata" : {
                            "AutoAppliedSmartFocus" : "False",
                            "audiateLinkedSession" : "",
                            "clipSpeedAttribute" : { "type": "bool", "value" : false},
                            "colorAttribute" : { "type": "color", "value" : [ 0, 0, 0, 0]},
                            "default-height" : { "type": "double", "value" : 1036.8},
                            "default-translation0" : { "type": "double", "value" : 0.0},
                            "default-translation1" : { "type": "double", "value" : -194.4},
                            "default-translation2" : { "type": "double", "value" : 0.0},
                            "default-width" : { "type": "double", "value" : 1932.67572815534}
                          },
                          "animationTracks" : {

                          }
                        },
                        {
                          "id" : 689,
                          "_type" : "ScreenVMFile",
                          "src" : 2,
                          "trackNumber" : 0,
                          "attributes" : {
                            "ident" : "Rec 4-22-2025-8-51-30-PM"
                          },
                          "parameters" : {
                            "geometryCrop0" : {
                              "type" : "double",
                              "defaultValue" : 0.0,
                              "interp" : "eioe"
                            },
                            "geometryCrop1" : {
                              "type" : "double",
                              "defaultValue" : 0.0,
                              "interp" : "eioe"
                            },
                            "geometryCrop2" : {
                              "type" : "double",
                              "defaultValue" : 0.0,
                              "interp" : "eioe"
                            },
                            "geometryCrop3" : {
                              "type" : "double",
                              "defaultValue" : 0.0,
                              "interp" : "eioe"
                            },
                            "cursorScale" : {
                              "type" : "double",
                              "defaultValue" : 0.0,
                              "interp" : "linr"
                            },
                            "cursorOpacity" : {
                              "type" : "double",
                              "defaultValue" : 0.0,
                              "interp" : "linr"
                            },
                            "cursorTrackLevel" : {
                              "type" : "double",
                              "defaultValue" : 0.0,
                              "interp" : "linr"
                            },
                            "smoothCursorAcrossEditDuration" : 0
                          },
                          "effects" : [

                          ],
                          "start" : 3059222880000,
                          "duration" : 1246560000,
                          "mediaStart" : 3055012800000,
                          "mediaDuration" : 1246560000,
                          "scalar" : 1,
                          "metadata" : {
                            "AutoAppliedSmartFocus" : "False",
                            "audiateLinkedSession" : "",
                            "clipSpeedAttribute" : { "type": "bool", "value" : false},
                            "colorAttribute" : { "type": "color", "value" : [ 0, 0, 0, 0]},
                            "default-height" : { "type": "double", "value" : 1036.8},
                            "default-translation0" : { "type": "double", "value" : 0.0},
                            "default-translation1" : { "type": "double", "value" : -194.4},
                            "default-translation2" : { "type": "double", "value" : 0.0},
                            "default-width" : { "type": "double", "value" : 1932.67572815534}
                          },
                          "animationTracks" : {

                          }
                        },
                        {
                          "id" : 690,
                          "_type" : "ScreenVMFile",
                          "src" : 2,
                          "trackNumber" : 0,
                          "attributes" : {
                            "ident" : "Rec 4-22-2025-8-51-30-PM"
                          },
                          "parameters" : {
                            "geometryCrop0" : {
                              "type" : "double",
                              "defaultValue" : 0.0,
                              "interp" : "eioe"
                            },
                            "geometryCrop1" : {
                              "type" : "double",
                              "defaultValue" : 0.0,
                              "interp" : "eioe"
                            },
                            "geometryCrop2" : {
                              "type" : "double",
                              "defaultValue" : 0.0,
                              "interp" : "eioe"
                            },
                            "geometryCrop3" : {
                              "type" : "double",
                              "defaultValue" : 0.0,
                              "interp" : "eioe"
                            },
                            "cursorScale" : {
                              "type" : "double",
                              "defaultValue" : 0.0,
                              "interp" : "linr"
                            },
                            "cursorOpacity" : {
                              "type" : "double",
                              "defaultValue" : 0.0,
                              "interp" : "linr"
                            },
                            "cursorTrackLevel" : {
                              "type" : "double",
                              "defaultValue" : 0.0,
                              "interp" : "linr"
                            },
                            "smoothCursorAcrossEditDuration" : 0
                          },
                          "effects" : [

                          ],
                          "start" : 3060469440000,
                          "duration" : 72276960000,
                          "mediaStart" : 3409694400000,
                          "mediaDuration" : 72276960000,
                          "scalar" : 1,
                          "metadata" : {
                            "AutoAppliedSmartFocus" : "False",
                            "audiateLinkedSession" : "",
                            "clipSpeedAttribute" : { "type": "bool", "value" : false},
                            "colorAttribute" : { "type": "color", "value" : [ 0, 0, 0, 0]},
                            "default-height" : { "type": "double", "value" : 1036.8},
                            "default-translation0" : { "type": "double", "value" : 0.0},
                            "default-translation1" : { "type": "double", "value" : -194.4},
                            "default-translation2" : { "type": "double", "value" : 0.0},
                            "default-width" : { "type": "double", "value" : 1932.67572815534}
                          },
                          "animationTracks" : {

                          }
                        }
                    ],
                    "effects" : [
                        {
                          "effectName" : "CursorColor",
                          "bypassed" : false,
                          "category" : "categoryCursorEffects",
                          "parameters" : {
                            "intensity" : {
                              "type" : "double",
                              "defaultValue" : 1.0,
                              "interp" : "linr",
                              "uiHints" : {
                                "userInterfaceType" : 0,
                                "unitType" : 0
                              }
                            },
                            "desaturation" : {
                              "type" : "double",
                              "defaultValue" : 0.0,
                              "interp" : "linr",
                              "uiHints" : {
                                "userInterfaceType" : 0,
                                "unitType" : 0
                              }
                            },
                            "colorLumaCutoff" : {
                              "type" : "double",
                              "defaultValue" : 1.0,
                              "interp" : "linr",
                              "uiHints" : {
                                "userInterfaceType" : 0,
                                "unitType" : 0
                              }
                            },
                            "color-alpha" : {
                              "type" : "double",
                              "defaultValue" : 1.0,
                              "interp" : "linr",
                              "uiHints" : {
                                "userInterfaceType" : 0,
                                "unitType" : 0
                              }
                            },
                            "color-red" : {
                              "type" : "double",
                              "defaultValue" : 1.0,
                              "interp" : "linr",
                              "uiHints" : {
                                "userInterfaceType" : 0,
                                "unitType" : 0
                              }
                            },
                            "color-green" : {
                              "type" : "double",
                              "defaultValue" : 0.8980392157,
                              "interp" : "linr",
                              "uiHints" : {
                                "userInterfaceType" : 0,
                                "unitType" : 0
                              }
                            },
                            "color-blue" : {
                              "type" : "double",
                              "defaultValue" : 0.1215686275,
                              "interp" : "linr",
                              "uiHints" : {
                                "userInterfaceType" : 0,
                                "unitType" : 0
                              }
                            },
                            "secondColor-red" : {
                              "type" : "double",
                              "defaultValue" : 0.0,
                              "interp" : "linr",
                              "uiHints" : {
                                "userInterfaceType" : 0,
                                "unitType" : 0
                              }
                            },
                            "secondColor-green" : {
                              "type" : "double",
                              "defaultValue" : 0.0,
                              "interp" : "linr",
                              "uiHints" : {
                                "userInterfaceType" : 0,
                                "unitType" : 0
                              }
                            },
                            "secondColor-blue" : {
                              "type" : "double",
                              "defaultValue" : 0.0,
                              "interp" : "linr",
                              "uiHints" : {
                                "userInterfaceType" : 0,
                                "unitType" : 0
                              }
                            },
                            "secondColor-alpha" : {
                              "type" : "double",
                              "defaultValue" : 1.0,
                              "interp" : "linr",
                              "uiHints" : {
                                "userInterfaceType" : 0,
                                "unitType" : 0
                              }
                            },
                            "secondColorLumaCutoff" : {
                              "type" : "double",
                              "defaultValue" : 0.0,
                              "interp" : "linr",
                              "uiHints" : {
                                "userInterfaceType" : 0,
                                "unitType" : 0
                              }
                            },
                            "channel" : {
                              "type" : "int",
                              "uiHints" : {
                                "userInterfaceType" : 0,
                                "unitType" : 0
                              },
                              "keyframes" : [
                                {
                                  "endTime" : 0,
                                  "time" : 0,
                                  "value" : 0,
                                  "duration" : 0
                                },
                                {
                                  "endTime" : 3052096320000,
                                  "time" : 3052096320000,
                                  "value" : 0,
                                  "duration" : 0
                                }
                              ]
                            },
                            "shadowRampStart" : {
                              "type" : "double",
                              "defaultValue" : 0.0,
                              "interp" : "linr",
                              "uiHints" : {
                                "userInterfaceType" : 0,
                                "unitType" : 0
                              }
                            },
                            "shadowRampEnd" : {
                              "type" : "double",
                              "defaultValue" : 0.0,
                              "interp" : "linr",
                              "uiHints" : {
                                "userInterfaceType" : 0,
                                "unitType" : 0
                              }
                            },
                            "highlightRampStart" : {
                              "type" : "double",
                              "defaultValue" : 1.0,
                              "interp" : "linr",
                              "uiHints" : {
                                "userInterfaceType" : 0,
                                "unitType" : 0
                              }
                            },
                            "highlightRampEnd" : {
                              "type" : "double",
                              "defaultValue" : 1.0,
                              "interp" : "linr",
                              "uiHints" : {
                                "userInterfaceType" : 0,
                                "unitType" : 0
                              }
                            }
                          }
                        },
                        {
                          "effectName" : "CursorShadow",
                          "bypassed" : false,
                          "category" : "categoryCursorEffects",
                          "parameters" : {
                            "angle" : {
                              "type" : "double",
                              "defaultValue" : 3.92699081698724,
                              "interp" : "linr",
                              "uiHints" : {
                                "userInterfaceType" : 0,
                                "unitType" : 0
                              }
                            },
                            "enabled" : {
                              "type" : "int",
                              "uiHints" : {
                                "userInterfaceType" : 0,
                                "unitType" : 0
                              },
                              "keyframes" : [
                                {
                                  "endTime" : 0,
                                  "time" : 0,
                                  "value" : 1,
                                  "duration" : 0
                                },
                                {
                                  "endTime" : 3052096320000,
                                  "time" : 3052096320000,
                                  "value" : 1,
                                  "duration" : 0
                                }
                              ]
                            },
                            "offset" : {
                              "type" : "double",
                              "defaultValue" : 5.0,
                              "interp" : "linr",
                              "uiHints" : {
                                "userInterfaceType" : 0,
                                "unitType" : 0
                              }
                            },
                            "blur" : {
                              "type" : "double",
                              "defaultValue" : 2.0,
                              "interp" : "linr",
                              "uiHints" : {
                                "userInterfaceType" : 0,
                                "unitType" : 0
                              }
                            },
                            "opacity" : {
                              "type" : "double",
                              "defaultValue" : 0.25,
                              "interp" : "linr",
                              "uiHints" : {
                                "userInterfaceType" : 0,
                                "unitType" : 0
                              }
                            },
                            "color-red" : {
                              "type" : "double",
                              "defaultValue" : 0.0,
                              "interp" : "linr",
                              "uiHints" : {
                                "userInterfaceType" : 0,
                                "unitType" : 0
                              }
                            },
                            "color-green" : {
                              "type" : "double",
                              "defaultValue" : 0.0,
                              "interp" : "linr",
                              "uiHints" : {
                                "userInterfaceType" : 0,
                                "unitType" : 0
                              }
                            },
                            "color-blue" : {
                              "type" : "double",
                              "defaultValue" : 0.0,
                              "interp" : "linr",
                              "uiHints" : {
                                "userInterfaceType" : 0,
                                "unitType" : 0
                              }
                            },
                            "color-alpha" : {
                              "type" : "double",
                              "defaultValue" : 1.0,
                              "interp" : "linr",
                              "uiHints" : {
                                "userInterfaceType" : 0,
                                "unitType" : 0
                              }
                            }
                          }
                        },
                        {
                          "effectName" : "CursorHilight",
                          "bypassed" : false,
                          "category" : "categoryCursorEffects",
                          "parameters" : {
                            "radius" : {
                              "type" : "double",
                              "defaultValue" : 50.0,
                              "interp" : "linr",
                              "uiHints" : {
                                "userInterfaceType" : 0,
                                "unitType" : 0
                              }
                            },
                            "color-red" : {
                              "type" : "double",
                              "defaultValue" : 1.0,
                              "interp" : "linr",
                              "uiHints" : {
                                "userInterfaceType" : 0,
                                "unitType" : 0
                              }
                            },
                            "color-green" : {
                              "type" : "double",
                              "defaultValue" : 1.0,
                              "interp" : "linr",
                              "uiHints" : {
                                "userInterfaceType" : 0,
                                "unitType" : 0
                              }
                            },
                            "color-blue" : {
                              "type" : "double",
                              "defaultValue" : 0.0,
                              "interp" : "linr",
                              "uiHints" : {
                                "userInterfaceType" : 0,
                                "unitType" : 0
                              }
                            },
                            "color-alpha" : {
                              "type" : "double",
                              "defaultValue" : 0.75,
                              "interp" : "linr",
                              "uiHints" : {
                                "userInterfaceType" : 0,
                                "unitType" : 0
                              }
                            },
                            "blur" : {
                              "type" : "double",
                              "defaultValue" : 0.1,
                              "interp" : "linr",
                              "uiHints" : {
                                "userInterfaceType" : 0,
                                "unitType" : 0
                              }
                            }
                          }
                        }
                    ],
                    "start" : 155326080000,
                    "duration" : 6420960000,
                    "mediaStart" : 3047956800000,
                    "mediaDuration" : 6420960000,
                    "scalar" : 1,
                    "metadata" : {
                      "AutoAppliedSmartFocus" : "False",
                      "audiateLinkedSession" : "",
                      "clipSpeedAttribute" : { "type": "bool", "value" : false},
                      "colorAttribute" : { "type": "color", "value" : [ 0, 0, 0, 0]},
                      "default-anchor0" : { "type": "double", "value" : 0.0},
                      "default-anchor1" : { "type": "double", "value" : 0.0},
                      "default-anchor2" : { "type": "double", "value" : 0.0},
                      "default-height" : { "type": "double", "value" : 1036.8},
                      "default-rotation0" : { "type": "double", "value" : 0.0},
                      "default-rotation1" : { "type": "double", "value" : 0.0},
                      "default-rotation2" : { "type": "double", "value" : 0.0},
                      "default-scale0" : { "type": "double", "value" : 0.503300970873786},
                      "default-scale1" : { "type": "double", "value" : 0.503300970873786},
                      "default-scale2" : { "type": "double", "value" : 1.0},
                      "default-shear0" : { "type": "double", "value" : 0.0},
                      "default-shear1" : { "type": "double", "value" : 0.0},
                      "default-shear2" : { "type": "double", "value" : 0.0},
                      "default-translation0" : { "type": "double", "value" : 0.0},
                      "default-translation1" : { "type": "double", "value" : -194.4},
                      "default-translation2" : { "type": "double", "value" : 0.0},
                      "default-width" : { "type": "double", "value" : 1932.67572815534}
                    },
                    "animationTracks" : {
                      "visual" : [
                        {
                          "endTime" : 3038854560000,
                          "duration" : 705600000,
                          "range" : [ 3038148960000, 705600000]
                        },
                        {
                          "endTime" : 3040806720000,
                          "duration" : 705600000,
                          "range" : [ 3040101120000, 705600000]
                        },
                        {
                          "endTime" : 3052519680000,
                          "duration" : 705600000,
                          "range" : [ 3051814080000, 705600000]
                        }
                      ]
                    }
                  },
                  {
                    "id" : 691,
                    "_type" : "StitchedMedia",
                    "minMediaStart" : 0,
                    "attributes" : {
                      "ident" : "Rec 4-22-2025-8-51-30-PM",
                      "gain" : 1.0,
                      "mixToMono" : false,
                      "loudnessNormalization" : true,
                      "sourceFileOffset" : 0
                    },
                    "parameters" : {
                      "translation0" : {
                        "type" : "double",
                        "defaultValue" : 6.33786407766917,
                        "interp" : "eioe",
                        "keyframes" : [
                          {
                            "endTime" : 3038854560000,
                            "time" : 3038148960000,
                            "value" : 3721.81332784474,
                            "duration" : 705600000
                          },
                          {
                            "endTime" : 3040806720000,
                            "time" : 3040101120000,
                            "value" : 0.0,
                            "duration" : 705600000
                          },
                          {
                            "endTime" : 3052519680000,
                            "time" : 3051814080000,
                            "value" : 867.451445254374,
                            "duration" : 705600000
                          },
                          {
                            "endTime" : 3056753280000,
                            "time" : 3055012800000,
                            "value" : 2.8421709430404e-14,
                            "duration" : 1740480000
                          }
                        ]
                      },
                      "translation1" : {
                        "type" : "double",
                        "defaultValue" : -2.8421709430404e-14,
                        "interp" : "eioe",
                        "keyframes" : [
                          {
                            "endTime" : 3038854560000,
                            "time" : 3038148960000,
                            "value" : -361.385320457505,
                            "duration" : 705600000
                          },
                          {
                            "endTime" : 3040806720000,
                            "time" : 3040101120000,
                            "value" : 0.0,
                            "duration" : 705600000
                          },
                          {
                            "endTime" : 3052519680000,
                            "time" : 3051814080000,
                            "value" : 186.666744147636,
                            "duration" : 705600000
                          },
                          {
                            "endTime" : 3056753280000,
                            "time" : 3055012800000,
                            "value" : 7.105427357601e-15,
                            "duration" : 1740480000
                          }
                        ]
                      },
                      "scale0" : {
                        "type" : "double",
                        "defaultValue" : 0.503300970873786,
                        "interp" : "eioe",
                        "keyframes" : [
                          {
                            "endTime" : 3038854560000,
                            "time" : 3038148960000,
                            "value" : 3.16700463297322,
                            "duration" : 705600000
                          },
                          {
                            "endTime" : 3040806720000,
                            "time" : 3040101120000,
                            "value" : 0.5,
                            "duration" : 705600000
                          },
                          {
                            "endTime" : 3052519680000,
                            "time" : 3051814080000,
                            "value" : 1.93355148750859,
                            "duration" : 705600000
                          },
                          {
                            "endTime" : 3056753280000,
                            "time" : 3055012800000,
                            "value" : 0.5,
                            "duration" : 1740480000
                          }
                        ]
                      },
                      "scale1" : {
                        "type" : "double",
                        "defaultValue" : 0.503300970873786,
                        "interp" : "eioe",
                        "keyframes" : [
                          {
                            "endTime" : 3038854560000,
                            "time" : 3038148960000,
                            "value" : 3.16700429025115,
                            "duration" : 705600000
                          },
                          {
                            "endTime" : 3040806720000,
                            "time" : 3040101120000,
                            "value" : 0.499999945891763,
                            "duration" : 705600000
                          },
                          {
                            "endTime" : 3052519680000,
                            "time" : 3051814080000,
                            "value" : 1.93355082831984,
                            "duration" : 705600000
                          },
                          {
                            "endTime" : 3056753280000,
                            "time" : 3055012800000,
                            "value" : 0.499999829539384,
                            "duration" : 1740480000
                          }
                        ]
                      },
                      "scale2" : {
                        "type" : "double",
                        "defaultValue" : 1.0,
                        "interp" : "eioe",
                        "keyframes" : [
                          {
                            "endTime" : 3040806720000,
                            "time" : 3040101120000,
                            "value" : 0.157877887134821,
                            "duration" : 705600000
                          },
                          {
                            "endTime" : 3056753280000,
                            "time" : 3055012800000,
                            "value" : 0.0408258813263485,
                            "duration" : 1740480000
                          }
                        ]
                      },
                      "geometryCrop0" : {
                        "type" : "double",
                        "defaultValue" : 0.0,
                        "interp" : "eioe"
                      },
                      "geometryCrop1" : {
                        "type" : "double",
                        "defaultValue" : 0.0,
                        "interp" : "eioe"
                      },
                      "geometryCrop2" : {
                        "type" : "double",
                        "defaultValue" : 0.0,
                        "interp" : "eioe"
                      },
                      "geometryCrop3" : {
                        "type" : "double",
                        "defaultValue" : 0.0,
                        "interp" : "eioe"
                      },
                      "cursorOpacity" : {
                        "type" : "double",
                        "defaultValue" : 1.0,
                        "interp" : "linr"
                      },
                      "cursorTrackLevel" : {
                        "type" : "double",
                        "defaultValue" : 0.0,
                        "interp" : "linr"
                      },
                      "cursorScale" : {
                        "type" : "double",
                        "defaultValue" : 5.0,
                        "interp" : "linr"
                      },
                      "smoothCursorAcrossEditDuration" : 0
                    },
                    "medias" : [
                        {
                          "id" : 692,
                          "_type" : "ScreenVMFile",
                          "src" : 2,
                          "trackNumber" : 0,
                          "attributes" : {
                            "ident" : "Rec 4-22-2025-8-51-30-PM"
                          },
                          "parameters" : {
                            "geometryCrop0" : {
                              "type" : "double",
                              "defaultValue" : 0.0,
                              "interp" : "eioe"
                            },
                            "geometryCrop1" : {
                              "type" : "double",
                              "defaultValue" : 0.0,
                              "interp" : "eioe"
                            },
                            "geometryCrop2" : {
                              "type" : "double",
                              "defaultValue" : 0.0,
                              "interp" : "eioe"
                            },
                            "geometryCrop3" : {
                              "type" : "double",
                              "defaultValue" : 0.0,
                              "interp" : "eioe"
                            },
                            "cursorScale" : {
                              "type" : "double",
                              "defaultValue" : 0.0,
                              "interp" : "linr"
                            },
                            "cursorOpacity" : {
                              "type" : "double",
                              "defaultValue" : 0.0,
                              "interp" : "linr"
                            },
                            "cursorTrackLevel" : {
                              "type" : "double",
                              "defaultValue" : 0.0,
                              "interp" : "linr"
                            },
                            "smoothCursorAcrossEditDuration" : 0
                          },
                          "effects" : [

                          ],
                          "start" : 0,
                          "duration" : 3040806720000,
                          "mediaStart" : 0,
                          "mediaDuration" : 3040806720000,
                          "scalar" : 1,
                          "metadata" : {
                            "AutoAppliedSmartFocus" : "False",
                            "audiateLinkedSession" : "",
                            "clipSpeedAttribute" : { "type": "bool", "value" : false},
                            "colorAttribute" : { "type": "color", "value" : [ 0, 0, 0, 0]},
                            "default-height" : { "type": "double", "value" : 1036.8},
                            "default-translation0" : { "type": "double", "value" : 0.0},
                            "default-translation1" : { "type": "double", "value" : -194.4},
                            "default-translation2" : { "type": "double", "value" : 0.0},
                            "default-width" : { "type": "double", "value" : 1932.67572815534}
                          },
                          "animationTracks" : {

                          }
                        },
                        {
                          "id" : 693,
                          "_type" : "ScreenVMFile",
                          "src" : 2,
                          "trackNumber" : 0,
                          "attributes" : {
                            "ident" : "Rec 4-22-2025-8-51-30-PM"
                          },
                          "parameters" : {
                            "geometryCrop0" : {
                              "type" : "double",
                              "defaultValue" : 0.0,
                              "interp" : "eioe"
                            },
                            "geometryCrop1" : {
                              "type" : "double",
                              "defaultValue" : 0.0,
                              "interp" : "eioe"
                            },
                            "geometryCrop2" : {
                              "type" : "double",
                              "defaultValue" : 0.0,
                              "interp" : "eioe"
                            },
                            "geometryCrop3" : {
                              "type" : "double",
                              "defaultValue" : 0.0,
                              "interp" : "eioe"
                            },
                            "cursorScale" : {
                              "type" : "double",
                              "defaultValue" : 0.0,
                              "interp" : "linr"
                            },
                            "cursorOpacity" : {
                              "type" : "double",
                              "defaultValue" : 0.0,
                              "interp" : "linr"
                            },
                            "cursorTrackLevel" : {
                              "type" : "double",
                              "defaultValue" : 0.0,
                              "interp" : "linr"
                            },
                            "smoothCursorAcrossEditDuration" : 0
                          },
                          "effects" : [

                          ],
                          "start" : 3040806720000,
                          "duration" : 3927840000,
                          "mediaStart" : 3040806720000,
                          "mediaDuration" : 3927840000,
                          "scalar" : 1,
                          "metadata" : {
                            "AutoAppliedSmartFocus" : "False",
                            "audiateLinkedSession" : "",
                            "clipSpeedAttribute" : { "type": "bool", "value" : false},
                            "colorAttribute" : { "type": "color", "value" : [ 0, 0, 0, 0]},
                            "default-height" : { "type": "double", "value" : 1036.8},
                            "default-translation0" : { "type": "double", "value" : 0.0},
                            "default-translation1" : { "type": "double", "value" : -194.4},
                            "default-translation2" : { "type": "double", "value" : 0.0},
                            "default-width" : { "type": "double", "value" : 1932.67572815534}
                          },
                          "animationTracks" : {

                          }
                        },
                        {
                          "id" : 694,
                          "_type" : "ScreenVMFile",
                          "src" : 2,
                          "trackNumber" : 0,
                          "attributes" : {
                            "ident" : "Rec 4-22-2025-8-51-30-PM"
                          },
                          "parameters" : {
                            "geometryCrop0" : {
                              "type" : "double",
                              "defaultValue" : 0.0,
                              "interp" : "eioe"
                            },
                            "geometryCrop1" : {
                              "type" : "double",
                              "defaultValue" : 0.0,
                              "interp" : "eioe"
                            },
                            "geometryCrop2" : {
                              "type" : "double",
                              "defaultValue" : 0.0,
                              "interp" : "eioe"
                            },
                            "geometryCrop3" : {
                              "type" : "double",
                              "defaultValue" : 0.0,
                              "interp" : "eioe"
                            },
                            "cursorScale" : {
                              "type" : "double",
                              "defaultValue" : 0.0,
                              "interp" : "linr"
                            },
                            "cursorOpacity" : {
                              "type" : "double",
                              "defaultValue" : 0.0,
                              "interp" : "linr"
                            },
                            "cursorTrackLevel" : {
                              "type" : "double",
                              "defaultValue" : 0.0,
                              "interp" : "linr"
                            },
                            "smoothCursorAcrossEditDuration" : 0
                          },
                          "effects" : [

                          ],
                          "start" : 3044734560000,
                          "duration" : 7361760000,
                          "mediaStart" : 3047580480000,
                          "mediaDuration" : 7361760000,
                          "scalar" : 1,
                          "metadata" : {
                            "AutoAppliedSmartFocus" : "False",
                            "audiateLinkedSession" : "",
                            "clipSpeedAttribute" : { "type": "bool", "value" : false},
                            "colorAttribute" : { "type": "color", "value" : [ 0, 0, 0, 0]},
                            "default-height" : { "type": "double", "value" : 1036.8},
                            "default-translation0" : { "type": "double", "value" : 0.0},
                            "default-translation1" : { "type": "double", "value" : -194.4},
                            "default-translation2" : { "type": "double", "value" : 0.0},
                            "default-width" : { "type": "double", "value" : 1932.67572815534}
                          },
                          "animationTracks" : {

                          }
                        },
                        {
                          "id" : 695,
                          "_type" : "ScreenIMFile",
                          "src" : 2,
                          "trackNumber" : 0,
                          "trimStartSum" : 0,
                          "attributes" : {
                            "ident" : "Rec 4-22-2025-8-51-30-PM",
                            "isPathEdited" : false
                          },
                          "parameters" : {
                            "geometryCrop0" : {
                              "type" : "double",
                              "defaultValue" : 0.0,
                              "interp" : "eioe"
                            },
                            "geometryCrop1" : {
                              "type" : "double",
                              "defaultValue" : 0.0,
                              "interp" : "eioe"
                            },
                            "geometryCrop2" : {
                              "type" : "double",
                              "defaultValue" : 0.0,
                              "interp" : "eioe"
                            },
                            "geometryCrop3" : {
                              "type" : "double",
                              "defaultValue" : 0.0,
                              "interp" : "eioe"
                            },
                            "cursorOpacity" : {
                              "type" : "double",
                              "defaultValue" : 0.0,
                              "interp" : "linr"
                            },
                            "cursorTrackLevel" : {
                              "type" : "double",
                              "defaultValue" : 0.0,
                              "interp" : "linr"
                            },
                            "cursorScale" : {
                              "type" : "double",
                              "defaultValue" : 0.0,
                              "interp" : "linr"
                            },
                            "cursorImagePath" : "2b7b6af1-7a1f-11e2-83d0-0017f200be7f/2",
                            "smoothCursorAcrossEditDuration" : 0,
                            "cursorLocation" : {
                              "type" : "point",
                              "keyframes" : [
                                {
                                  "endTime" : 0,
                                  "time" : 0,
                                  "value" : [ 1045, 1100, 0],
                                  "duration" : 0
                                }
                              ]
                            }
                          },
                          "effects" : [

                          ],
                          "start" : 3052096320000,
                          "duration" : 7056000000,
                          "mediaStart" : 3054942240000,
                          "mediaDuration" : 1,
                          "scalar" : 1,
                          "animationTracks" : {

                          }
                        },
                        {
                          "id" : 696,
                          "_type" : "ScreenVMFile",
                          "src" : 2,
                          "trackNumber" : 0,
                          "attributes" : {
                            "ident" : "Rec 4-22-2025-8-51-30-PM"
                          },
                          "parameters" : {
                            "geometryCrop0" : {
                              "type" : "double",
                              "defaultValue" : 0.0,
                              "interp" : "eioe"
                            },
                            "geometryCrop1" : {
                              "type" : "double",
                              "defaultValue" : 0.0,
                              "interp" : "eioe"
                            },
                            "geometryCrop2" : {
                              "type" : "double",
                              "defaultValue" : 0.0,
                              "interp" : "eioe"
                            },
                            "geometryCrop3" : {
                              "type" : "double",
                              "defaultValue" : 0.0,
                              "interp" : "eioe"
                            },
                            "cursorScale" : {
                              "type" : "double",
                              "defaultValue" : 0.0,
                              "interp" : "linr"
                            },
                            "cursorOpacity" : {
                              "type" : "double",
                              "defaultValue" : 0.0,
                              "interp" : "linr"
                            },
                            "cursorTrackLevel" : {
                              "type" : "double",
                              "defaultValue" : 0.0,
                              "interp" : "linr"
                            },
                            "smoothCursorAcrossEditDuration" : 0
                          },
                          "effects" : [

                          ],
                          "start" : 3059152320000,
                          "duration" : 70560000,
                          "mediaStart" : 3054942240000,
                          "mediaDuration" : 70560000,
                          "scalar" : 1,
                          "metadata" : {
                            "AutoAppliedSmartFocus" : "False",
                            "audiateLinkedSession" : "",
                            "clipSpeedAttribute" : { "type": "bool", "value" : false},
                            "colorAttribute" : { "type": "color", "value" : [ 0, 0, 0, 0]},
                            "default-height" : { "type": "double", "value" : 1036.8},
                            "default-translation0" : { "type": "double", "value" : 0.0},
                            "default-translation1" : { "type": "double", "value" : -194.4},
                            "default-translation2" : { "type": "double", "value" : 0.0},
                            "default-width" : { "type": "double", "value" : 1932.67572815534}
                          },
                          "animationTracks" : {

                          }
                        },
                        {
                          "id" : 697,
                          "_type" : "ScreenVMFile",
                          "src" : 2,
                          "trackNumber" : 0,
                          "attributes" : {
                            "ident" : "Rec 4-22-2025-8-51-30-PM"
                          },
                          "parameters" : {
                            "geometryCrop0" : {
                              "type" : "double",
                              "defaultValue" : 0.0,
                              "interp" : "eioe"
                            },
                            "geometryCrop1" : {
                              "type" : "double",
                              "defaultValue" : 0.0,
                              "interp" : "eioe"
                            },
                            "geometryCrop2" : {
                              "type" : "double",
                              "defaultValue" : 0.0,
                              "interp" : "eioe"
                            },
                            "geometryCrop3" : {
                              "type" : "double",
                              "defaultValue" : 0.0,
                              "interp" : "eioe"
                            },
                            "cursorScale" : {
                              "type" : "double",
                              "defaultValue" : 0.0,
                              "interp" : "linr"
                            },
                            "cursorOpacity" : {
                              "type" : "double",
                              "defaultValue" : 0.0,
                              "interp" : "linr"
                            },
                            "cursorTrackLevel" : {
                              "type" : "double",
                              "defaultValue" : 0.0,
                              "interp" : "linr"
                            },
                            "smoothCursorAcrossEditDuration" : 0
                          },
                          "effects" : [

                          ],
                          "start" : 3059222880000,
                          "duration" : 1246560000,
                          "mediaStart" : 3055012800000,
                          "mediaDuration" : 1246560000,
                          "scalar" : 1,
                          "metadata" : {
                            "AutoAppliedSmartFocus" : "False",
                            "audiateLinkedSession" : "",
                            "clipSpeedAttribute" : { "type": "bool", "value" : false},
                            "colorAttribute" : { "type": "color", "value" : [ 0, 0, 0, 0]},
                            "default-height" : { "type": "double", "value" : 1036.8},
                            "default-translation0" : { "type": "double", "value" : 0.0},
                            "default-translation1" : { "type": "double", "value" : -194.4},
                            "default-translation2" : { "type": "double", "value" : 0.0},
                            "default-width" : { "type": "double", "value" : 1932.67572815534}
                          },
                          "animationTracks" : {

                          }
                        },
                        {
                          "id" : 698,
                          "_type" : "ScreenVMFile",
                          "src" : 2,
                          "trackNumber" : 0,
                          "attributes" : {
                            "ident" : "Rec 4-22-2025-8-51-30-PM"
                          },
                          "parameters" : {
                            "geometryCrop0" : {
                              "type" : "double",
                              "defaultValue" : 0.0,
                              "interp" : "eioe"
                            },
                            "geometryCrop1" : {
                              "type" : "double",
                              "defaultValue" : 0.0,
                              "interp" : "eioe"
                            },
                            "geometryCrop2" : {
                              "type" : "double",
                              "defaultValue" : 0.0,
                              "interp" : "eioe"
                            },
                            "geometryCrop3" : {
                              "type" : "double",
                              "defaultValue" : 0.0,
                              "interp" : "eioe"
                            },
                            "cursorScale" : {
                              "type" : "double",
                              "defaultValue" : 0.0,
                              "interp" : "linr"
                            },
                            "cursorOpacity" : {
                              "type" : "double",
                              "defaultValue" : 0.0,
                              "interp" : "linr"
                            },
                            "cursorTrackLevel" : {
                              "type" : "double",
                              "defaultValue" : 0.0,
                              "interp" : "linr"
                            },
                            "smoothCursorAcrossEditDuration" : 0
                          },
                          "effects" : [

                          ],
                          "start" : 3060469440000,
                          "duration" : 72276960000,
                          "mediaStart" : 3409694400000,
                          "mediaDuration" : 72276960000,
                          "scalar" : 1,
                          "metadata" : {
                            "AutoAppliedSmartFocus" : "False",
                            "audiateLinkedSession" : "",
                            "clipSpeedAttribute" : { "type": "bool", "value" : false},
                            "colorAttribute" : { "type": "color", "value" : [ 0, 0, 0, 0]},
                            "default-height" : { "type": "double", "value" : 1036.8},
                            "default-translation0" : { "type": "double", "value" : 0.0},
                            "default-translation1" : { "type": "double", "value" : -194.4},
                            "default-translation2" : { "type": "double", "value" : 0.0},
                            "default-width" : { "type": "double", "value" : 1932.67572815534}
                          },
                          "animationTracks" : {

                          }
                        }
                    ],
                    "effects" : [
                        {
                          "effectName" : "CursorColor",
                          "bypassed" : false,
                          "category" : "categoryCursorEffects",
                          "parameters" : {
                            "intensity" : {
                              "type" : "double",
                              "defaultValue" : 1.0,
                              "interp" : "linr",
                              "uiHints" : {
                                "userInterfaceType" : 0,
                                "unitType" : 0
                              }
                            },
                            "desaturation" : {
                              "type" : "double",
                              "defaultValue" : 0.0,
                              "interp" : "linr",
                              "uiHints" : {
                                "userInterfaceType" : 0,
                                "unitType" : 0
                              }
                            },
                            "colorLumaCutoff" : {
                              "type" : "double",
                              "defaultValue" : 1.0,
                              "interp" : "linr",
                              "uiHints" : {
                                "userInterfaceType" : 0,
                                "unitType" : 0
                              }
                            },
                            "color-alpha" : {
                              "type" : "double",
                              "defaultValue" : 1.0,
                              "interp" : "linr",
                              "uiHints" : {
                                "userInterfaceType" : 0,
                                "unitType" : 0
                              }
                            },
                            "color-red" : {
                              "type" : "double",
                              "defaultValue" : 1.0,
                              "interp" : "linr",
                              "uiHints" : {
                                "userInterfaceType" : 0,
                                "unitType" : 0
                              }
                            },
                            "color-green" : {
                              "type" : "double",
                              "defaultValue" : 0.8980392157,
                              "interp" : "linr",
                              "uiHints" : {
                                "userInterfaceType" : 0,
                                "unitType" : 0
                              }
                            },
                            "color-blue" : {
                              "type" : "double",
                              "defaultValue" : 0.1215686275,
                              "interp" : "linr",
                              "uiHints" : {
                                "userInterfaceType" : 0,
                                "unitType" : 0
                              }
                            },
                            "secondColor-red" : {
                              "type" : "double",
                              "defaultValue" : 0.0,
                              "interp" : "linr",
                              "uiHints" : {
                                "userInterfaceType" : 0,
                                "unitType" : 0
                              }
                            },
                            "secondColor-green" : {
                              "type" : "double",
                              "defaultValue" : 0.0,
                              "interp" : "linr",
                              "uiHints" : {
                                "userInterfaceType" : 0,
                                "unitType" : 0
                              }
                            },
                            "secondColor-blue" : {
                              "type" : "double",
                              "defaultValue" : 0.0,
                              "interp" : "linr",
                              "uiHints" : {
                                "userInterfaceType" : 0,
                                "unitType" : 0
                              }
                            },
                            "secondColor-alpha" : {
                              "type" : "double",
                              "defaultValue" : 1.0,
                              "interp" : "linr",
                              "uiHints" : {
                                "userInterfaceType" : 0,
                                "unitType" : 0
                              }
                            },
                            "secondColorLumaCutoff" : {
                              "type" : "double",
                              "defaultValue" : 0.0,
                              "interp" : "linr",
                              "uiHints" : {
                                "userInterfaceType" : 0,
                                "unitType" : 0
                              }
                            },
                            "channel" : {
                              "type" : "int",
                              "uiHints" : {
                                "userInterfaceType" : 0,
                                "unitType" : 0
                              },
                              "keyframes" : [
                                {
                                  "endTime" : 0,
                                  "time" : 0,
                                  "value" : 0,
                                  "duration" : 0
                                },
                                {
                                  "endTime" : 3052096320000,
                                  "time" : 3052096320000,
                                  "value" : 0,
                                  "duration" : 0
                                }
                              ]
                            },
                            "shadowRampStart" : {
                              "type" : "double",
                              "defaultValue" : 0.0,
                              "interp" : "linr",
                              "uiHints" : {
                                "userInterfaceType" : 0,
                                "unitType" : 0
                              }
                            },
                            "shadowRampEnd" : {
                              "type" : "double",
                              "defaultValue" : 0.0,
                              "interp" : "linr",
                              "uiHints" : {
                                "userInterfaceType" : 0,
                                "unitType" : 0
                              }
                            },
                            "highlightRampStart" : {
                              "type" : "double",
                              "defaultValue" : 1.0,
                              "interp" : "linr",
                              "uiHints" : {
                                "userInterfaceType" : 0,
                                "unitType" : 0
                              }
                            },
                            "highlightRampEnd" : {
                              "type" : "double",
                              "defaultValue" : 1.0,
                              "interp" : "linr",
                              "uiHints" : {
                                "userInterfaceType" : 0,
                                "unitType" : 0
                              }
                            }
                          }
                        },
                        {
                          "effectName" : "CursorShadow",
                          "bypassed" : false,
                          "category" : "categoryCursorEffects",
                          "parameters" : {
                            "angle" : {
                              "type" : "double",
                              "defaultValue" : 3.92699081698724,
                              "interp" : "linr",
                              "uiHints" : {
                                "userInterfaceType" : 0,
                                "unitType" : 0
                              }
                            },
                            "enabled" : {
                              "type" : "int",
                              "uiHints" : {
                                "userInterfaceType" : 0,
                                "unitType" : 0
                              },
                              "keyframes" : [
                                {
                                  "endTime" : 0,
                                  "time" : 0,
                                  "value" : 1,
                                  "duration" : 0
                                },
                                {
                                  "endTime" : 3052096320000,
                                  "time" : 3052096320000,
                                  "value" : 1,
                                  "duration" : 0
                                }
                              ]
                            },
                            "offset" : {
                              "type" : "double",
                              "defaultValue" : 5.0,
                              "interp" : "linr",
                              "uiHints" : {
                                "userInterfaceType" : 0,
                                "unitType" : 0
                              }
                            },
                            "blur" : {
                              "type" : "double",
                              "defaultValue" : 2.0,
                              "interp" : "linr",
                              "uiHints" : {
                                "userInterfaceType" : 0,
                                "unitType" : 0
                              }
                            },
                            "opacity" : {
                              "type" : "double",
                              "defaultValue" : 0.25,
                              "interp" : "linr",
                              "uiHints" : {
                                "userInterfaceType" : 0,
                                "unitType" : 0
                              }
                            },
                            "color-red" : {
                              "type" : "double",
                              "defaultValue" : 0.0,
                              "interp" : "linr",
                              "uiHints" : {
                                "userInterfaceType" : 0,
                                "unitType" : 0
                              }
                            },
                            "color-green" : {
                              "type" : "double",
                              "defaultValue" : 0.0,
                              "interp" : "linr",
                              "uiHints" : {
                                "userInterfaceType" : 0,
                                "unitType" : 0
                              }
                            },
                            "color-blue" : {
                              "type" : "double",
                              "defaultValue" : 0.0,
                              "interp" : "linr",
                              "uiHints" : {
                                "userInterfaceType" : 0,
                                "unitType" : 0
                              }
                            },
                            "color-alpha" : {
                              "type" : "double",
                              "defaultValue" : 1.0,
                              "interp" : "linr",
                              "uiHints" : {
                                "userInterfaceType" : 0,
                                "unitType" : 0
                              }
                            }
                          }
                        },
                        {
                          "effectName" : "CursorHilight",
                          "bypassed" : false,
                          "category" : "categoryCursorEffects",
                          "parameters" : {
                            "radius" : {
                              "type" : "double",
                              "defaultValue" : 50.0,
                              "interp" : "linr",
                              "uiHints" : {
                                "userInterfaceType" : 0,
                                "unitType" : 0
                              }
                            },
                            "color-red" : {
                              "type" : "double",
                              "defaultValue" : 1.0,
                              "interp" : "linr",
                              "uiHints" : {
                                "userInterfaceType" : 0,
                                "unitType" : 0
                              }
                            },
                            "color-green" : {
                              "type" : "double",
                              "defaultValue" : 1.0,
                              "interp" : "linr",
                              "uiHints" : {
                                "userInterfaceType" : 0,
                                "unitType" : 0
                              }
                            },
                            "color-blue" : {
                              "type" : "double",
                              "defaultValue" : 0.0,
                              "interp" : "linr",
                              "uiHints" : {
                                "userInterfaceType" : 0,
                                "unitType" : 0
                              }
                            },
                            "color-alpha" : {
                              "type" : "double",
                              "defaultValue" : 0.75,
                              "interp" : "linr",
                              "uiHints" : {
                                "userInterfaceType" : 0,
                                "unitType" : 0
                              }
                            },
                            "blur" : {
                              "type" : "double",
                              "defaultValue" : 0.1,
                              "interp" : "linr",
                              "uiHints" : {
                                "userInterfaceType" : 0,
                                "unitType" : 0
                              }
                            }
                          }
                        }
                    ],
                    "start" : 161747040000,
                    "duration" : 4798080000,
                    "mediaStart" : 3054377760000,
                    "mediaDuration" : 4798080000,
                    "scalar" : 1,
                    "metadata" : {
                      "AutoAppliedSmartFocus" : "False",
                      "audiateLinkedSession" : "",
                      "clipSpeedAttribute" : { "type": "bool", "value" : false},
                      "colorAttribute" : { "type": "color", "value" : [ 0, 0, 0, 0]},
                      "default-anchor0" : { "type": "double", "value" : 0.0},
                      "default-anchor1" : { "type": "double", "value" : 0.0},
                      "default-anchor2" : { "type": "double", "value" : 0.0},
                      "default-height" : { "type": "double", "value" : 1036.8},
                      "default-rotation0" : { "type": "double", "value" : 0.0},
                      "default-rotation1" : { "type": "double", "value" : 0.0},
                      "default-rotation2" : { "type": "double", "value" : 0.0},
                      "default-scale0" : { "type": "double", "value" : 0.503300970873786},
                      "default-scale1" : { "type": "double", "value" : 0.503300970873786},
                      "default-scale2" : { "type": "double", "value" : 1.0},
                      "default-shear0" : { "type": "double", "value" : 0.0},
                      "default-shear1" : { "type": "double", "value" : 0.0},
                      "default-shear2" : { "type": "double", "value" : 0.0},
                      "default-translation0" : { "type": "double", "value" : 0.0},
                      "default-translation1" : { "type": "double", "value" : -194.4},
                      "default-translation2" : { "type": "double", "value" : 0.0},
                      "default-width" : { "type": "double", "value" : 1932.67572815534}
                    },
                    "animationTracks" : {
                      "visual" : [
                        {
                          "endTime" : 3038854560000,
                          "duration" : 705600000,
                          "range" : [ 3038148960000, 705600000]
                        },
                        {
                          "endTime" : 3040806720000,
                          "duration" : 705600000,
                          "range" : [ 3040101120000, 705600000]
                        },
                        {
                          "endTime" : 3052519680000,
                          "duration" : 705600000,
                          "range" : [ 3051814080000, 705600000]
                        },
                        {
                          "endTime" : 3056753280000,
                          "duration" : 1740480000,
                          "range" : [ 3055012800000, 1740480000]
                        }
                      ]
                    }
                  }
                ]
              },
              {
                "trackIndex" : 1,
                "medias" : [
                  {
                    "id" : 699,
                    "_type" : "Callout",
                    "def" : {
                        "kind" : "remix",
                        "shape" : "shape-rectangle",
                        "style" : "basic",
                        "corner-radius" : 8.0,
                        "fill-color-blue" : 0.0,
                        "fill-color-green" : 0.0,
                        "fill-color-opacity" : 0.0,
                        "fill-color-red" : 0.0,
                        "height" : 85.0633419197034,
                        "stroke-color-blue" : 0.0352941176470588,
                        "stroke-color-green" : 0.0352941176470588,
                        "stroke-color-opacity" : 1.0,
                        "stroke-color-red" : 0.949019607843137,
                        "stroke-width" : 6.0,
                        "width" : 1775.0,
                        "fill-style" : "solid",
                        "stroke-style" : "solid"
                    },
                    "attributes" : {
                      "ident" : "",
                      "autoRotateText" : true
                    },
                    "parameters" : {
                      "translation1" : -42.5316709598517,
                      "geometryCrop0" : 0.0,
                      "geometryCrop1" : 0.0,
                      "geometryCrop2" : 0.0,
                      "geometryCrop3" : 0.0
                    },
                    "effects" : [

                    ],
                    "start" : 153232800000,
                    "duration" : 870240000,
                    "mediaStart" : 0,
                    "mediaDuration" : 870240000,
                    "scalar" : 1,
                    "metadata" : {
                      "audiateLinkedSession" : "",
                      "clipSpeedAttribute" : { "type": "bool", "value" : false},
                      "colorAttribute" : { "type": "color", "value" : [ 0, 0, 0, 0]},
                      "default-anchor0" : { "type": "double", "value" : 0.0},
                      "default-anchor1" : { "type": "double", "value" : 0.0},
                      "default-anchor2" : { "type": "double", "value" : 0.0},
                      "default-height" : { "type": "double", "value" : 186.0},
                      "default-rotation0" : { "type": "double", "value" : 0.0},
                      "default-rotation1" : { "type": "double", "value" : 0.0},
                      "default-rotation2" : { "type": "double", "value" : 0.0},
                      "default-scale0" : { "type": "double", "value" : 1.0},
                      "default-scale1" : { "type": "double", "value" : 1.0},
                      "default-scale2" : { "type": "double", "value" : 1.0},
                      "default-shear0" : { "type": "double", "value" : 0.0},
                      "default-shear1" : { "type": "double", "value" : 0.0},
                      "default-shear2" : { "type": "double", "value" : 0.0},
                      "default-stroke-color-blue" : { "type": "double", "value" : 1.0},
                      "default-stroke-color-green" : { "type": "double", "value" : 1.0},
                      "default-stroke-color-red" : { "type": "double", "value" : 1.0},
                      "default-translation0" : { "type": "double", "value" : 0.0},
                      "default-translation1" : { "type": "double", "value" : 0.0},
                      "default-translation2" : { "type": "double", "value" : 0.0},
                      "default-width" : { "type": "double", "value" : 246.0}
                    },
                    "animationTracks" : {

                    }
                  }
                ]
              }            ]
          }
        }
      ]
    },
    "trackAttributes" : [
      {
        "ident" : "",
        "audioMuted" : false,
        "videoHidden" : false,
        "magnetic" : true,
        "matte" : 0,
        "solo" : false,
        "metadata" : {
          "IsLocked" : "False",
          "WinTrackHeight" : "76.6384615384571"
        }
      },
      {
        "ident" : "",
        "audioMuted" : false,
        "videoHidden" : false,
        "magnetic" : false,
        "matte" : 0,
        "solo" : false,
        "metadata" : {
          "IsLocked" : "False",
          "WinTrackHeight" : "76.6384615384571"
        }
      }
    ],
    "parameters" : {
      "toc" : {
        "type" : "string",
        "keyframes" : [
          {
            "endTime" : 91140000000,
            "time" : 91140000000,
            "value" : "Marker 1",
            "duration" : 0,
            "metadata" : {
              "markerIdentifier" : "6D5F5232-0E87-463C-AC97-B1A9519E5B5F"
            }
          },
          {
            "endTime" : 92104320000,
            "time" : 92104320000,
            "value" : "Marker 1",
            "duration" : 0,
            "metadata" : {
              "markerIdentifier" : "4DA26765-D4B9-4CD8-A9C1-14FBA43048B8"
            }
          }
        ]
      }
    },
    "captionAttributes" : {
      "enabled" : true,
      "fontName" : "Arial",
      "fontSize" : 64,
      "backgroundColor" : [ 0, 0, 0, 191],
      "foregroundColor" : [ 255, 255, 255, 255],
      "lang" : "en",
      "alignment" : 0,
      "defaultFontSize" : true,
      "opacity" : 0.5,
      "backgroundEnabled" : true,
      "backgroundOnlyAroundText" : true
    },
    "gain" : 1.0,
    "legacyAttenuateAudioMix" : false,
    "backgroundColor" : [ 0, 0, 0, 255]
  },
  "metadata" : {
    "AutoSaveFile" : "C:\\Users\\svelderr\\AppData\\Local\\TechSmith\\Camtasia Studio\\25.0\\Auto-Saves\\How a contribution is made from start to mergec58e1ba.autosave.tscproj",
    "CanvasZoom" : { "type": "int", "value" : 100},
    "Date" : "2025-04-22 08:51:48 PM",
    "Fit" : { "type": "int", "value" : 0},
    "IsAutoSave" : { "type": "bool", "value" : false},
    "IsStandalone" : { "type": "bool", "value" : true},
    "Language" : "ENU",
    "ProfileName" : "",
    "ProjectThumbnail" : "iVBORw0KGgoAAAANSUhEUgAAAoAAAAFoCAYAAADHMkpRAAAAAXNSR0IArs4c6QAAAARnQU1BAACx\r\njwv8YQUAAAAJcEhZcwAAJOgAACToAYJjBRwAAAZxSURBVHhe7chBDcAwAMSw8ifdFUAQ3BzJn5zX\r\nBQDgV3ICALArJwAAu3ICALArJwAAu3ICALArJwAAu3ICALArJwAAu3ICALArJwAAu3ICALArJwAA\r\nu3ICALArJwAAu3ICALArJwAAu3ICALArJwAAu3ICALArJwAAu3ICALArJwAAu3ICALArJwAAu3IC\r\nALArJwAAu3ICALArJwAAu3ICALArJwAAu3ICALArJwAAu3ICALArJwAAu3ICALArJwAAu3ICALAr\r\nJwAAu3ICALArJwAAu3ICALArJwAAu3ICALArJwAAu3ICALArJwAAu3ICALArJwAAu3ICALArJwAA\r\nu3ICALArJwAAu3ICALArJwAAu3ICALArJwAAu3ICALArJwAAu3ICALArJwAAu3ICALArJwAAu3IC\r\nALArJwAAu3ICALArJwAAu3ICALArJwAAu3ICALArJwAAu3ICALArJwAAu3ICALArJwAAu3ICALAr\r\nJwAAu3ICALArJwAAu3ICALArJwAAu3ICALArJwAAu3ICALArJwAAu3ICALArJwAAu3ICALArJwAA\r\nu3ICALArJwAAu3ICALArJwAAu3ICALArJwAAu3ICALArJwAAu3ICALArJwAAu3ICALArJwAAu3IC\r\nALArJwAAu3ICALArJwAAu3ICALArJwAAu3ICALArJwAAu3ICALArJwAAu3ICALArJwAAu3ICALAr\r\nJwAAu3ICALArJwAAu3ICALArJwAAu3ICALArJwAAu3ICALArJwAAu3ICALArJwAAu3ICALArJwAA\r\nu3ICALArJwAAu3ICALArJwAAu3ICALArJwAAu3ICALArJwAAu3ICALArJwAAu3ICALArJwAAu3IC\r\nALArJwAAu3ICALArJwAAu3ICALArJwAAu3ICALArJwAAu3ICALArJwAAu3ICALArJwAAu3ICALAr\r\nJwAAu3ICALArJwAAu3ICALArJwAAu3ICALArJwAAu3ICALArJwAAu3ICALArJwAAu3ICALArJwAA\r\nu3ICALArJwAAu3ICALArJwAAu3ICALArJwAAu3ICALArJwAAu3ICALArJwAAu3ICALArJwAAu3IC\r\nALArJwAAu3ICALArJwAAu3ICALArJwAAu3ICALArJwAAu3ICALArJwAAu3ICALArJwAAu3ICALAr\r\nJwAAu3ICALArJwAAu3ICALArJwAAu3ICALArJwAAu3ICALArJwAAu3ICALArJwAAu3ICALArJwAA\r\nu3ICALArJwAAu3ICALArJwAAu3ICALArJwAAu3ICALArJwAAu3ICALArJwAAu3ICALArJwAAu3IC\r\nALArJwAAu3ICALArJwAAu3ICALArJwAAu3ICALArJwAAu3ICALArJwAAu3ICALArJwAAu3ICALAr\r\nJwAAu3ICALArJwAAu3ICALArJwAAu3ICALArJwAAu3ICALArJwAAu3ICALArJwAAu3ICALArJwAA\r\nu3ICALArJwAAu3ICALArJwAAu3ICALArJwAAu3ICALArJwAAu3ICALArJwAAu3ICALArJwAAu3IC\r\nALArJwAAu3ICALArJwAAu3ICALArJwAAu3ICALArJwAAu3ICALArJwAAu3ICALArJwAAu3ICALAr\r\nJwAAu3ICALArJwAAu3ICALArJwAAu3ICALArJwAAu3ICALArJwAAu3ICALArJwAAu3ICALArJwAA\r\nu3ICALArJwAAu3ICALArJwAAu3ICALArJwAAu3ICALArJwAAu3ICALArJwAAu3ICALArJwAAu3IC\r\nALArJwAAu3ICALArJwAAu3ICALArJwAAu3ICALArJwAAu3ICALArJwAAu3ICALArJwAAu3ICALAr\r\nJwAAu3ICALArJwAAu3ICALArJwAAu3ICALArJwAAu3ICALArJwAAu3ICALArJwAAu3ICALArJwAA\r\nu3ICALArJwAAu3ICALArJwAAu3ICALArJwAAu3ICALArJwAAu3ICALArJwAAu3ICALArJwAAu3IC\r\nALArJwAAu3ICALArJwAAu3ICALArJwAAu3ICALArJwAAu3ICALArJwAAu3ICALArJwAAu3ICALAr\r\nJwAAu3ICALArJwAAu3ICALArJwAAu3ICALArJwAAu3ICALArJwAAu3ICALArJwAAu3ICALArJwAA\r\nu3ICALArJwAAu3ICALArJwAAu3ICADDp3A/mI7CBEzt/RwAAAABJRU5ErkJggg==",
    "RulerGuidesX" : [],
    "RulerGuidesY" : [],
    "RulerShowing" : { "type": "bool", "value" : false},
    "Title" : "How a contribution is made from start to merge",
    "audioNarrationNotes" : "",
    "calloutStyle" : "All"
  }
}
